G04 EAGLE Gerber RS-274X export*
G75*
%MOMM*%
%FSLAX34Y34*%
%LPD*%
%INSoldermask Bottom*%
%IPPOS*%
%AMOC8*
5,1,8,0,0,1.08239X$1,22.5*%
G01*
%ADD10C,0.853200*%
%ADD11R,1.473200X0.838200*%
%ADD12R,0.838200X1.473200*%
%ADD13C,1.219200*%
%ADD14C,0.762000*%
%ADD15C,2.082800*%
%ADD16R,1.727200X1.727200*%
%ADD17C,1.221313*%
%ADD18C,1.203200*%
%ADD19R,1.223200X2.073200*%
%ADD20C,3.251200*%
%ADD21C,0.838200*%

G36*
X381058Y87893D02*
X381058Y87893D01*
X381116Y87891D01*
X381198Y87913D01*
X381282Y87925D01*
X381335Y87949D01*
X381391Y87963D01*
X381464Y88006D01*
X381541Y88041D01*
X381586Y88079D01*
X381636Y88109D01*
X381694Y88170D01*
X381758Y88225D01*
X381790Y88273D01*
X381830Y88316D01*
X381869Y88391D01*
X381916Y88461D01*
X381933Y88517D01*
X381960Y88569D01*
X381971Y88637D01*
X382001Y88732D01*
X382004Y88832D01*
X382015Y88900D01*
X382015Y147320D01*
X382007Y147378D01*
X382009Y147436D01*
X381987Y147518D01*
X381975Y147602D01*
X381952Y147655D01*
X381937Y147711D01*
X381894Y147784D01*
X381859Y147861D01*
X381821Y147906D01*
X381792Y147956D01*
X381730Y148014D01*
X381676Y148078D01*
X381627Y148110D01*
X381584Y148150D01*
X381509Y148189D01*
X381439Y148236D01*
X381383Y148253D01*
X381331Y148280D01*
X381263Y148291D01*
X381168Y148321D01*
X381068Y148324D01*
X381000Y148335D01*
X127000Y148335D01*
X126942Y148327D01*
X126884Y148329D01*
X126802Y148307D01*
X126719Y148295D01*
X126665Y148272D01*
X126609Y148257D01*
X126536Y148214D01*
X126459Y148179D01*
X126414Y148141D01*
X126364Y148112D01*
X126306Y148050D01*
X126242Y147996D01*
X126210Y147947D01*
X126170Y147904D01*
X126131Y147829D01*
X126085Y147759D01*
X126067Y147703D01*
X126040Y147651D01*
X126029Y147583D01*
X125999Y147488D01*
X125996Y147388D01*
X125985Y147320D01*
X125985Y88900D01*
X125993Y88842D01*
X125991Y88784D01*
X126013Y88702D01*
X126025Y88619D01*
X126049Y88565D01*
X126063Y88509D01*
X126106Y88436D01*
X126141Y88359D01*
X126179Y88314D01*
X126209Y88264D01*
X126270Y88206D01*
X126325Y88142D01*
X126373Y88110D01*
X126416Y88070D01*
X126491Y88031D01*
X126561Y87985D01*
X126617Y87967D01*
X126669Y87940D01*
X126737Y87929D01*
X126832Y87899D01*
X126932Y87896D01*
X127000Y87885D01*
X381000Y87885D01*
X381058Y87893D01*
G37*
G36*
X489650Y377609D02*
X489650Y377609D01*
X489716Y377611D01*
X489759Y377628D01*
X489806Y377637D01*
X489863Y377670D01*
X489923Y377695D01*
X489958Y377727D01*
X489999Y377751D01*
X490040Y377802D01*
X490089Y377846D01*
X490111Y377889D01*
X490140Y377925D01*
X490161Y377987D01*
X490192Y378046D01*
X490200Y378100D01*
X490212Y378138D01*
X490211Y378177D01*
X490219Y378231D01*
X490219Y380771D01*
X490208Y380836D01*
X490206Y380902D01*
X490188Y380946D01*
X490180Y380992D01*
X490146Y381049D01*
X490121Y381110D01*
X490090Y381145D01*
X490065Y381185D01*
X490014Y381227D01*
X489970Y381275D01*
X489928Y381297D01*
X489891Y381327D01*
X489829Y381348D01*
X489770Y381378D01*
X489716Y381386D01*
X489679Y381399D01*
X489639Y381398D01*
X489585Y381406D01*
X475615Y381406D01*
X475550Y381394D01*
X475484Y381392D01*
X475441Y381374D01*
X475394Y381366D01*
X475337Y381332D01*
X475277Y381308D01*
X475242Y381276D01*
X475201Y381252D01*
X475159Y381201D01*
X475111Y381156D01*
X475089Y381114D01*
X475060Y381078D01*
X475039Y381015D01*
X475008Y380957D01*
X475000Y380902D01*
X474988Y380865D01*
X474988Y380862D01*
X474989Y380825D01*
X474981Y380771D01*
X474981Y378231D01*
X474992Y378167D01*
X474994Y378101D01*
X475012Y378057D01*
X475020Y378011D01*
X475054Y377954D01*
X475079Y377893D01*
X475110Y377858D01*
X475135Y377817D01*
X475186Y377776D01*
X475230Y377727D01*
X475272Y377706D01*
X475309Y377676D01*
X475371Y377655D01*
X475430Y377625D01*
X475484Y377617D01*
X475521Y377604D01*
X475561Y377605D01*
X475615Y377597D01*
X489585Y377597D01*
X489650Y377609D01*
G37*
G36*
X178855Y315023D02*
X178855Y315023D01*
X178921Y315025D01*
X178965Y315043D01*
X179011Y315051D01*
X179068Y315085D01*
X179129Y315109D01*
X179164Y315141D01*
X179205Y315165D01*
X179246Y315216D01*
X179295Y315261D01*
X179316Y315303D01*
X179346Y315340D01*
X179367Y315402D01*
X179397Y315460D01*
X179405Y315515D01*
X179418Y315552D01*
X179417Y315591D01*
X179425Y315646D01*
X179425Y319456D01*
X179413Y319521D01*
X179411Y319586D01*
X179394Y319630D01*
X179385Y319677D01*
X179352Y319733D01*
X179327Y319794D01*
X179295Y319829D01*
X179271Y319870D01*
X179220Y319911D01*
X179176Y319960D01*
X179134Y319981D01*
X179097Y320011D01*
X179035Y320032D01*
X178976Y320062D01*
X178922Y320070D01*
X178884Y320083D01*
X178845Y320082D01*
X178791Y320090D01*
X176251Y320090D01*
X176186Y320078D01*
X176120Y320076D01*
X176076Y320059D01*
X176030Y320050D01*
X175973Y320017D01*
X175912Y319992D01*
X175877Y319960D01*
X175837Y319936D01*
X175795Y319885D01*
X175747Y319841D01*
X175725Y319799D01*
X175695Y319762D01*
X175674Y319700D01*
X175644Y319641D01*
X175636Y319587D01*
X175623Y319550D01*
X175623Y319545D01*
X175624Y319509D01*
X175616Y319456D01*
X175616Y315646D01*
X175628Y315581D01*
X175630Y315515D01*
X175648Y315472D01*
X175656Y315425D01*
X175690Y315368D01*
X175714Y315307D01*
X175746Y315272D01*
X175770Y315232D01*
X175821Y315190D01*
X175866Y315142D01*
X175908Y315120D01*
X175944Y315090D01*
X176007Y315069D01*
X176065Y315039D01*
X176120Y315031D01*
X176157Y315019D01*
X176196Y315020D01*
X176251Y315012D01*
X178791Y315012D01*
X178855Y315023D01*
G37*
G36*
X238825Y227342D02*
X238825Y227342D01*
X238891Y227344D01*
X238934Y227362D01*
X238981Y227370D01*
X239038Y227404D01*
X239098Y227429D01*
X239133Y227460D01*
X239174Y227485D01*
X239216Y227536D01*
X239264Y227580D01*
X239286Y227622D01*
X239315Y227659D01*
X239336Y227721D01*
X239367Y227780D01*
X239375Y227834D01*
X239387Y227871D01*
X239386Y227911D01*
X239394Y227965D01*
X239394Y231775D01*
X239383Y231840D01*
X239381Y231906D01*
X239363Y231949D01*
X239355Y231996D01*
X239321Y232053D01*
X239296Y232113D01*
X239265Y232148D01*
X239240Y232189D01*
X239189Y232231D01*
X239145Y232279D01*
X239103Y232301D01*
X239066Y232330D01*
X239004Y232351D01*
X238945Y232382D01*
X238891Y232390D01*
X238854Y232402D01*
X238814Y232401D01*
X238760Y232409D01*
X236220Y232409D01*
X236155Y232398D01*
X236089Y232396D01*
X236046Y232378D01*
X235999Y232370D01*
X235942Y232336D01*
X235882Y232311D01*
X235847Y232280D01*
X235806Y232255D01*
X235765Y232204D01*
X235716Y232160D01*
X235694Y232118D01*
X235665Y232081D01*
X235644Y232019D01*
X235613Y231960D01*
X235605Y231906D01*
X235593Y231869D01*
X235593Y231865D01*
X235593Y231864D01*
X235594Y231829D01*
X235586Y231775D01*
X235586Y227965D01*
X235597Y227900D01*
X235599Y227834D01*
X235617Y227791D01*
X235625Y227744D01*
X235659Y227687D01*
X235684Y227627D01*
X235715Y227592D01*
X235740Y227551D01*
X235791Y227510D01*
X235835Y227461D01*
X235877Y227439D01*
X235914Y227410D01*
X235976Y227389D01*
X236035Y227358D01*
X236089Y227350D01*
X236126Y227338D01*
X236166Y227339D01*
X236220Y227331D01*
X238760Y227331D01*
X238825Y227342D01*
G37*
D10*
X49050Y464510D03*
X49050Y406710D03*
D11*
X181915Y442138D03*
X181915Y450266D03*
D12*
X472440Y379501D03*
X482600Y379501D03*
X492760Y379501D03*
D13*
X482600Y203200D03*
X508000Y203200D03*
X533400Y203200D03*
X558800Y203200D03*
D14*
X608838Y114808D03*
X609600Y88900D03*
D13*
X88900Y444500D03*
D11*
X237490Y234950D03*
X237490Y224790D03*
X260350Y235204D03*
X260350Y227076D03*
X283210Y235204D03*
X283210Y227076D03*
X306070Y235204D03*
X306070Y227076D03*
D15*
X635000Y406400D03*
X635000Y431800D03*
D13*
X406400Y165100D03*
X381000Y165100D03*
X266700Y330200D03*
D11*
X322707Y378511D03*
X322707Y370383D03*
D16*
X124460Y31750D03*
X99060Y31750D03*
X175260Y31750D03*
X149860Y31750D03*
X226060Y31750D03*
X200660Y31750D03*
X302260Y31750D03*
X276860Y31750D03*
X353060Y31750D03*
X327660Y31750D03*
X403860Y31750D03*
X378460Y31750D03*
D15*
X635000Y330200D03*
X635000Y304800D03*
D11*
X177800Y359664D03*
X177800Y351536D03*
D17*
X139700Y228600D03*
X139700Y254000D03*
X139700Y279400D03*
X114300Y228600D03*
X114300Y254000D03*
X114300Y279400D03*
D11*
X177521Y322631D03*
X177521Y312471D03*
D15*
X481330Y114300D03*
X483870Y139700D03*
X481330Y165100D03*
X506730Y114300D03*
X509270Y139700D03*
X506730Y165100D03*
X532130Y114300D03*
X534670Y139700D03*
X532130Y165100D03*
X557530Y114300D03*
X560070Y139700D03*
X557530Y165100D03*
X635000Y355600D03*
X635000Y381000D03*
X635000Y457200D03*
X635000Y482600D03*
X635000Y254000D03*
X635000Y279400D03*
D18*
X368300Y184150D03*
X381000Y184150D03*
X393700Y184150D03*
X406400Y184150D03*
X355600Y184150D03*
X368300Y196850D03*
X381000Y196850D03*
X393700Y196850D03*
X406400Y196850D03*
X355600Y196850D03*
D19*
X83720Y496285D03*
X83720Y553435D03*
X109120Y496285D03*
X109120Y553435D03*
X134520Y496285D03*
X134520Y553435D03*
X159920Y496285D03*
X159920Y553435D03*
X185320Y496285D03*
X185320Y553435D03*
X210720Y496285D03*
X210720Y553435D03*
X236120Y496285D03*
X236120Y553435D03*
X261520Y496285D03*
X261520Y553435D03*
X286920Y496285D03*
X286920Y553435D03*
X312320Y496285D03*
X312320Y553435D03*
X337720Y496285D03*
X337720Y553435D03*
X363120Y496285D03*
X363120Y553435D03*
X388520Y496285D03*
X388520Y553435D03*
X413920Y496285D03*
X413920Y553435D03*
X439320Y496285D03*
X439320Y553435D03*
X464720Y496285D03*
X464720Y553435D03*
X490120Y496285D03*
X490120Y553435D03*
X515520Y496285D03*
X515520Y553435D03*
X540920Y496285D03*
X540920Y553435D03*
X566320Y496285D03*
X566320Y553435D03*
D18*
X96420Y524860D03*
X553620Y524860D03*
D20*
X35000Y35000D03*
X615000Y35000D03*
X35000Y525000D03*
X615000Y525000D03*
D21*
X586358Y8849D03*
X7757Y499126D03*
D13*
X266700Y393700D03*
X368300Y63500D03*
X342900Y63500D03*
X292100Y63500D03*
X266700Y63500D03*
X241300Y63500D03*
X215900Y63500D03*
X152400Y63500D03*
X127000Y63500D03*
M02*
