G75*
%MOIN*%
%OFA0B0*%
%FSLAX25Y25*%
%IPPOS*%
%LPD*%
%AMOC8*
5,1,8,0,0,1.08239X$1,22.5*
%
%ADD10C,0.01000*%
%ADD11C,0.00500*%
%ADD12C,0.03000*%
%ADD13C,0.00700*%
%ADD14C,0.00800*%
%ADD15R,0.12340X0.06050*%
%ADD16R,0.13030X0.05870*%
%ADD17R,0.12570X0.05900*%
%ADD18R,0.11870X0.05910*%
%ADD19R,0.03600X0.05800*%
%ADD20R,0.03460X0.06070*%
%ADD21C,0.00300*%
%ADD22C,0.00600*%
%ADD23R,0.07205X0.00118*%
%ADD24R,0.07913X0.00118*%
%ADD25R,0.08386X0.00079*%
%ADD26R,0.08858X0.00157*%
%ADD27R,0.09094X0.00118*%
%ADD28R,0.09331X0.00118*%
%ADD29R,0.09567X0.00079*%
%ADD30R,0.03661X0.00118*%
%ADD31R,0.02126X0.00118*%
%ADD32R,0.02953X0.00118*%
%ADD33R,0.02244X0.00157*%
%ADD34R,0.00591X0.00157*%
%ADD35R,0.01535X0.00157*%
%ADD36R,0.02598X0.00157*%
%ADD37R,0.02244X0.00118*%
%ADD38R,0.00472X0.00118*%
%ADD39R,0.01181X0.00118*%
%ADD40R,0.02362X0.00118*%
%ADD41R,0.00945X0.00118*%
%ADD42R,0.00354X0.00118*%
%ADD43R,0.00827X0.00118*%
%ADD44R,0.02480X0.00157*%
%ADD45R,0.00354X0.00157*%
%ADD46R,0.00236X0.00157*%
%ADD47R,0.02480X0.00118*%
%ADD48R,0.02598X0.00118*%
%ADD49R,0.01063X0.00118*%
%ADD50R,0.02835X0.00118*%
%ADD51R,0.00472X0.00157*%
%ADD52R,0.04252X0.00157*%
%ADD53R,0.04370X0.00118*%
%ADD54R,0.00591X0.00118*%
%ADD55R,0.04488X0.00118*%
%ADD56R,0.00709X0.00157*%
%ADD57R,0.04488X0.00157*%
%ADD58R,0.00236X0.00118*%
%ADD59R,0.00118X0.00118*%
%ADD60R,0.00118X0.00157*%
%ADD61R,0.04370X0.00157*%
%ADD62R,0.04252X0.00118*%
%ADD63R,0.02717X0.00118*%
%ADD64R,0.03071X0.00157*%
%ADD65R,0.03425X0.00118*%
%ADD66R,0.09567X0.00118*%
%ADD67R,0.08858X0.00118*%
%ADD68R,0.08386X0.00118*%
%ADD69R,0.00787X0.00157*%
%ADD70R,0.01732X0.00157*%
%ADD71R,0.02047X0.00157*%
%ADD72R,0.02362X0.00157*%
%ADD73R,0.02520X0.00157*%
%ADD74R,0.02677X0.00157*%
%ADD75R,0.02835X0.00157*%
%ADD76R,0.01260X0.00157*%
%ADD77R,0.01102X0.00157*%
%ADD78R,0.00945X0.00157*%
%ADD79R,0.01417X0.00157*%
%ADD80R,0.00157X0.00157*%
%ADD81R,0.01575X0.00157*%
%ADD82R,0.01890X0.00157*%
%ADD83R,0.03150X0.00157*%
%ADD84R,0.03307X0.00157*%
%ADD85R,0.02992X0.00157*%
%ADD86R,0.00630X0.00157*%
%ADD87R,0.01181X0.00157*%
%ADD88R,0.01299X0.00118*%
%ADD89R,0.01417X0.00118*%
%ADD90R,0.01535X0.00118*%
%ADD91R,0.01654X0.00118*%
%ADD92R,0.00827X0.00157*%
%ADD93R,0.01063X0.00157*%
%ADD94R,0.02008X0.00157*%
%ADD95R,0.01772X0.00118*%
%ADD96R,0.00709X0.00118*%
%ADD97R,0.01299X0.00157*%
%ADD98R,0.01890X0.00118*%
%ADD99R,0.02008X0.00118*%
%ADD100R,0.01772X0.00157*%
%ADD101R,0.02953X0.00157*%
%ADD102R,0.25039X0.00157*%
%ADD103R,0.25512X0.00157*%
%ADD104R,0.25827X0.00157*%
%ADD105R,0.25984X0.00157*%
%ADD106R,0.26142X0.00157*%
%ADD107R,0.26457X0.00157*%
%ADD108R,0.11339X0.00157*%
%ADD109R,0.14803X0.00157*%
%ADD110R,0.02205X0.00157*%
%ADD111R,0.00315X0.00157*%
%ADD112R,0.04409X0.00157*%
%ADD113R,0.04567X0.00157*%
%ADD114R,0.04094X0.00157*%
%ADD115R,0.27559X0.00157*%
%ADD116R,0.28031X0.00157*%
%ADD117R,0.28346X0.00157*%
%ADD118R,0.28504X0.00157*%
%ADD119R,0.28661X0.00157*%
%ADD120R,0.28976X0.00157*%
%ADD121R,0.17165X0.00157*%
%ADD122R,0.03780X0.00157*%
%ADD123R,0.03622X0.00157*%
%ADD124R,0.03465X0.00157*%
%ADD125R,0.05197X0.00157*%
%ADD126R,0.05039X0.00157*%
%ADD127R,0.04882X0.00157*%
%ADD128R,0.04724X0.00157*%
%ADD129R,0.25669X0.00157*%
%ADD130R,0.26614X0.00157*%
%ADD131R,0.26772X0.00157*%
%ADD132R,0.27087X0.00157*%
%ADD133R,0.10394X0.00157*%
%ADD134R,0.16063X0.00157*%
%ADD135R,0.05354X0.00157*%
%ADD136R,0.03937X0.00157*%
%ADD137R,0.26929X0.00157*%
%ADD138R,0.27244X0.00157*%
%ADD139R,0.27402X0.00157*%
%ADD140R,0.27717X0.00157*%
%ADD141R,0.27874X0.00157*%
%ADD142R,0.29134X0.00157*%
%ADD143R,0.00157X0.02520*%
%ADD144R,0.00157X0.00630*%
%ADD145R,0.00157X0.00472*%
%ADD146R,0.00157X0.03465*%
%ADD147R,0.00157X0.01417*%
%ADD148R,0.00157X0.00315*%
%ADD149R,0.00157X0.01102*%
%ADD150R,0.00157X0.03150*%
%ADD151R,0.00157X0.00945*%
%ADD152R,0.00157X0.00787*%
%ADD153R,0.00157X0.03937*%
%ADD154R,0.00157X0.02205*%
%ADD155R,0.00157X0.01890*%
%ADD156R,0.00157X0.03307*%
%ADD157R,0.00157X0.01260*%
%ADD158R,0.00157X0.02677*%
%ADD159R,0.00157X0.04094*%
%ADD160R,0.00157X0.02835*%
%ADD161R,0.00157X0.02992*%
%ADD162R,0.00157X0.03780*%
%ADD163R,0.00157X0.01575*%
%ADD164R,0.00157X0.01732*%
%ADD165R,0.00157X0.02362*%
%ADD166R,0.00157X0.02047*%
%ADD167R,0.00157X0.04409*%
%ADD168R,0.09449X0.00157*%
%ADD169R,0.09764X0.00157*%
%ADD170R,0.09921X0.00157*%
%ADD171R,0.10079X0.00157*%
%ADD172R,0.10236X0.00157*%
%ADD173R,0.10551X0.00157*%
%ADD174R,0.15118X0.00157*%
%ADD175R,0.15276X0.00157*%
%ADD176R,0.15433X0.00157*%
%ADD177R,0.15591X0.00157*%
%ADD178R,0.15748X0.00157*%
%ADD179R,0.15906X0.00157*%
%ADD180R,0.21260X0.00157*%
%ADD181R,0.21417X0.00157*%
%ADD182R,0.21575X0.00157*%
%ADD183R,0.21732X0.00157*%
%ADD184R,0.21890X0.00157*%
%ADD185R,0.22047X0.00157*%
%ADD186R,0.22205X0.00157*%
%ADD187R,0.08976X0.00157*%
%ADD188R,0.22362X0.00157*%
%ADD189R,0.23465X0.00157*%
%ADD190R,0.23622X0.00157*%
%ADD191R,0.23780X0.00157*%
%ADD192R,0.23937X0.00157*%
%ADD193R,0.22520X0.00157*%
%ADD194R,0.22677X0.00157*%
%ADD195R,0.22992X0.00157*%
%ADD196R,0.23150X0.00157*%
%ADD197R,0.23307X0.00157*%
%ADD198R,0.24409X0.00157*%
%ADD199R,0.24567X0.00157*%
%ADD200R,0.24724X0.00157*%
%ADD201R,0.24882X0.00157*%
%ADD202R,0.17795X0.00157*%
%ADD203R,0.17953X0.00157*%
%ADD204R,0.18110X0.00157*%
%ADD205R,0.18268X0.00157*%
%ADD206R,0.19370X0.00157*%
%ADD207R,0.19528X0.00157*%
%ADD208R,0.19685X0.00157*%
%ADD209R,0.19843X0.00157*%
%ADD210R,0.05512X0.00157*%
%ADD211R,0.18425X0.00157*%
%ADD212R,0.11024X0.00157*%
%ADD213R,0.22835X0.00157*%
%ADD214R,0.16850X0.00157*%
%ADD215R,0.14488X0.00157*%
%ADD216R,0.20000X0.00157*%
%ADD217R,0.00394X0.00394*%
%ADD218R,0.00787X0.00394*%
%ADD219R,0.08268X0.00394*%
%ADD220R,0.01969X0.00394*%
%ADD221R,0.01181X0.00394*%
%ADD222R,0.02362X0.00394*%
%ADD223R,0.09843X0.00394*%
%ADD224R,0.02756X0.00394*%
%ADD225R,0.03150X0.00394*%
%ADD226R,0.03543X0.00394*%
%ADD227R,0.09055X0.00394*%
%ADD228R,0.03937X0.00394*%
%ADD229R,0.04331X0.00394*%
%ADD230R,0.04724X0.00394*%
%ADD231R,0.05118X0.00394*%
%ADD232R,0.05906X0.00394*%
%ADD233R,0.05512X0.00394*%
%ADD234R,0.06299X0.00394*%
%ADD235R,0.06693X0.00394*%
%ADD236R,0.08661X0.00394*%
%ADD237R,0.07480X0.00394*%
%ADD238R,0.07087X0.00394*%
%ADD239R,0.07874X0.00394*%
%ADD240R,0.09449X0.00394*%
%ADD241R,0.01575X0.00394*%
D10*
X0218694Y0275499D02*
X0220194Y0276499D01*
X0220194Y0274499D01*
X0218694Y0275499D01*
X0228694Y0275499D01*
X0228694Y0285499D01*
X0229694Y0283999D01*
X0227694Y0283999D01*
X0228694Y0285499D01*
X0236695Y0282133D02*
X0242495Y0282133D01*
X0239245Y0280143D02*
X0239326Y0280070D01*
X0239409Y0280000D01*
X0239495Y0279933D01*
X0239583Y0279869D01*
X0239674Y0279809D01*
X0239766Y0279752D01*
X0239861Y0279698D01*
X0239957Y0279648D01*
X0240055Y0279601D01*
X0240155Y0279558D01*
X0240256Y0279518D01*
X0240359Y0279483D01*
X0240463Y0279451D01*
X0240568Y0279422D01*
X0240674Y0279398D01*
X0240781Y0279377D01*
X0240888Y0279361D01*
X0240996Y0279348D01*
X0241105Y0279339D01*
X0241213Y0279334D01*
X0241322Y0279333D01*
X0241431Y0279336D01*
X0241539Y0279343D01*
X0241647Y0279354D01*
X0241755Y0279368D01*
X0241862Y0279387D01*
X0241969Y0279410D01*
X0242074Y0279436D01*
X0242179Y0279466D01*
X0242282Y0279500D01*
X0242384Y0279538D01*
X0242485Y0279579D01*
X0242584Y0279624D01*
X0242681Y0279672D01*
X0242776Y0279724D01*
X0242870Y0279780D01*
X0242962Y0279838D01*
X0243051Y0279901D01*
X0243138Y0279966D01*
X0243222Y0280034D01*
X0243304Y0280105D01*
X0243384Y0280180D01*
X0243461Y0280257D01*
X0243534Y0280337D01*
X0243605Y0280419D01*
X0243673Y0280504D01*
X0243738Y0280592D01*
X0243799Y0280681D01*
X0243858Y0280773D01*
X0243912Y0280867D01*
X0243964Y0280963D01*
X0244012Y0281060D01*
X0244056Y0281160D01*
X0244097Y0281261D01*
X0244134Y0281363D01*
X0244167Y0281466D01*
X0244197Y0281571D01*
X0244222Y0281677D01*
X0244244Y0281783D01*
X0244262Y0281890D01*
X0244276Y0281998D01*
X0244286Y0282106D01*
X0244293Y0282215D01*
X0244295Y0282324D01*
X0244293Y0282432D01*
X0244288Y0282541D01*
X0244278Y0282649D01*
X0244265Y0282757D01*
X0244248Y0282865D01*
X0244226Y0282971D01*
X0244201Y0283077D01*
X0244172Y0283182D01*
X0244140Y0283286D01*
X0244103Y0283388D01*
X0244063Y0283489D01*
X0244020Y0283589D01*
X0243972Y0283687D01*
X0243921Y0283783D01*
X0243867Y0283877D01*
X0243809Y0283969D01*
X0243749Y0284059D01*
X0243684Y0284147D01*
X0243617Y0284233D01*
X0243547Y0284315D01*
X0243473Y0284396D01*
X0243397Y0284473D01*
X0243318Y0284548D01*
X0243237Y0284620D01*
X0243152Y0284689D01*
X0243066Y0284755D01*
X0242977Y0284817D01*
X0242886Y0284877D01*
X0242793Y0284932D01*
X0242697Y0284985D01*
X0242600Y0285034D01*
X0242502Y0285080D01*
X0242401Y0285122D01*
X0242299Y0285160D01*
X0242196Y0285194D01*
X0242092Y0285225D01*
X0241987Y0285252D01*
X0241880Y0285275D01*
X0241773Y0285295D01*
X0241666Y0285310D01*
X0241558Y0285321D01*
X0241449Y0285329D01*
X0241341Y0285333D01*
X0241232Y0285332D01*
X0241123Y0285328D01*
X0241015Y0285320D01*
X0240907Y0285308D01*
X0240799Y0285292D01*
X0240692Y0285272D01*
X0240586Y0285248D01*
X0240481Y0285220D01*
X0240377Y0285189D01*
X0240274Y0285154D01*
X0240172Y0285115D01*
X0240072Y0285072D01*
X0239974Y0285026D01*
X0239877Y0284977D01*
X0239782Y0284924D01*
X0239689Y0284867D01*
X0239598Y0284807D01*
X0239510Y0284744D01*
X0239424Y0284678D01*
X0239340Y0284608D01*
X0239259Y0284536D01*
X0239180Y0284461D01*
X0239105Y0284383D01*
X0238195Y0283133D02*
X0236695Y0282133D01*
X0238195Y0281133D01*
X0238195Y0283133D01*
X0239195Y0280233D02*
X0240795Y0280533D01*
X0239995Y0278733D01*
X0239195Y0280133D01*
X0238694Y0275899D02*
X0238694Y0272999D01*
X0238695Y0271633D02*
X0238804Y0271635D01*
X0238912Y0271641D01*
X0239021Y0271651D01*
X0239128Y0271664D01*
X0239236Y0271682D01*
X0239342Y0271704D01*
X0239448Y0271729D01*
X0239553Y0271758D01*
X0239656Y0271791D01*
X0239759Y0271828D01*
X0239860Y0271868D01*
X0239959Y0271912D01*
X0240057Y0271960D01*
X0240153Y0272011D01*
X0240247Y0272066D01*
X0240339Y0272124D01*
X0240429Y0272185D01*
X0240516Y0272249D01*
X0240602Y0272317D01*
X0240684Y0272387D01*
X0240764Y0272461D01*
X0240842Y0272537D01*
X0240916Y0272617D01*
X0240988Y0272698D01*
X0241057Y0272783D01*
X0241122Y0272870D01*
X0241184Y0272959D01*
X0241243Y0273050D01*
X0241299Y0273143D01*
X0241351Y0273239D01*
X0241400Y0273336D01*
X0241445Y0273435D01*
X0241487Y0273535D01*
X0241525Y0273637D01*
X0241559Y0273740D01*
X0241590Y0273845D01*
X0241616Y0273950D01*
X0241639Y0274057D01*
X0241658Y0274164D01*
X0241673Y0274271D01*
X0241684Y0274380D01*
X0241691Y0274488D01*
X0241695Y0274597D01*
X0241694Y0274705D01*
X0241690Y0274814D01*
X0241681Y0274923D01*
X0241669Y0275031D01*
X0241652Y0275138D01*
X0241632Y0275245D01*
X0241608Y0275351D01*
X0241580Y0275456D01*
X0241548Y0275560D01*
X0241513Y0275663D01*
X0241474Y0275764D01*
X0241431Y0275864D01*
X0241384Y0275963D01*
X0241334Y0276059D01*
X0241281Y0276154D01*
X0241224Y0276247D01*
X0241164Y0276337D01*
X0241101Y0276426D01*
X0241034Y0276512D01*
X0240964Y0276595D01*
X0240892Y0276676D01*
X0240816Y0276754D01*
X0240738Y0276830D01*
X0240657Y0276902D01*
X0240574Y0276972D01*
X0240488Y0277039D01*
X0240399Y0277102D01*
X0240309Y0277162D01*
X0240216Y0277219D01*
X0240121Y0277272D01*
X0240025Y0277322D01*
X0239926Y0277369D01*
X0239826Y0277412D01*
X0239725Y0277451D01*
X0239622Y0277486D01*
X0239518Y0277518D01*
X0239413Y0277546D01*
X0239307Y0277570D01*
X0239200Y0277590D01*
X0239093Y0277607D01*
X0238985Y0277619D01*
X0238876Y0277628D01*
X0238767Y0277632D01*
X0238659Y0277633D01*
X0238550Y0277629D01*
X0238442Y0277622D01*
X0238333Y0277611D01*
X0238226Y0277596D01*
X0238119Y0277577D01*
X0238012Y0277554D01*
X0237907Y0277528D01*
X0237802Y0277497D01*
X0237699Y0277463D01*
X0237597Y0277425D01*
X0237497Y0277383D01*
X0237398Y0277338D01*
X0237301Y0277289D01*
X0237205Y0277237D01*
X0237112Y0277181D01*
X0237021Y0277122D01*
X0236932Y0277060D01*
X0236845Y0276995D01*
X0236760Y0276926D01*
X0236679Y0276854D01*
X0236599Y0276780D01*
X0236523Y0276702D01*
X0236449Y0276622D01*
X0236379Y0276540D01*
X0236311Y0276454D01*
X0236247Y0276367D01*
X0236186Y0276277D01*
X0236128Y0276185D01*
X0236073Y0276091D01*
X0236022Y0275995D01*
X0235974Y0275897D01*
X0235930Y0275798D01*
X0235890Y0275697D01*
X0235853Y0275594D01*
X0235820Y0275491D01*
X0235791Y0275386D01*
X0235766Y0275280D01*
X0235744Y0275174D01*
X0235726Y0275066D01*
X0235713Y0274959D01*
X0235703Y0274850D01*
X0235697Y0274742D01*
X0235695Y0274633D01*
X0235195Y0276333D01*
X0236995Y0275533D01*
X0235695Y0274633D01*
X0236095Y0275533D02*
X0235795Y0275933D01*
X0237294Y0274499D02*
X0240094Y0274499D01*
X0245695Y0273633D02*
X0246695Y0272133D01*
X0246695Y0278033D01*
X0248885Y0274683D02*
X0248958Y0274764D01*
X0249028Y0274847D01*
X0249095Y0274933D01*
X0249159Y0275021D01*
X0249219Y0275112D01*
X0249276Y0275204D01*
X0249330Y0275299D01*
X0249380Y0275395D01*
X0249427Y0275493D01*
X0249470Y0275593D01*
X0249510Y0275694D01*
X0249545Y0275797D01*
X0249577Y0275901D01*
X0249606Y0276006D01*
X0249630Y0276112D01*
X0249651Y0276219D01*
X0249667Y0276326D01*
X0249680Y0276434D01*
X0249689Y0276543D01*
X0249694Y0276651D01*
X0249695Y0276760D01*
X0249692Y0276869D01*
X0249685Y0276977D01*
X0249674Y0277085D01*
X0249660Y0277193D01*
X0249641Y0277300D01*
X0249618Y0277407D01*
X0249592Y0277512D01*
X0249562Y0277617D01*
X0249528Y0277720D01*
X0249490Y0277822D01*
X0249449Y0277923D01*
X0249404Y0278022D01*
X0249356Y0278119D01*
X0249304Y0278214D01*
X0249248Y0278308D01*
X0249190Y0278400D01*
X0249127Y0278489D01*
X0249062Y0278576D01*
X0248994Y0278660D01*
X0248923Y0278742D01*
X0248848Y0278822D01*
X0248771Y0278899D01*
X0248691Y0278972D01*
X0248609Y0279043D01*
X0248524Y0279111D01*
X0248436Y0279176D01*
X0248347Y0279237D01*
X0248255Y0279296D01*
X0248161Y0279350D01*
X0248065Y0279402D01*
X0247968Y0279450D01*
X0247868Y0279494D01*
X0247767Y0279535D01*
X0247665Y0279572D01*
X0247562Y0279605D01*
X0247457Y0279635D01*
X0247351Y0279660D01*
X0247245Y0279682D01*
X0247138Y0279700D01*
X0247030Y0279714D01*
X0246922Y0279724D01*
X0246813Y0279731D01*
X0246704Y0279733D01*
X0246596Y0279731D01*
X0246487Y0279726D01*
X0246379Y0279716D01*
X0246271Y0279703D01*
X0246163Y0279686D01*
X0246057Y0279664D01*
X0245951Y0279639D01*
X0245846Y0279610D01*
X0245742Y0279578D01*
X0245640Y0279541D01*
X0245539Y0279501D01*
X0245439Y0279458D01*
X0245341Y0279410D01*
X0245245Y0279359D01*
X0245151Y0279305D01*
X0245059Y0279247D01*
X0244969Y0279187D01*
X0244881Y0279122D01*
X0244795Y0279055D01*
X0244713Y0278985D01*
X0244632Y0278911D01*
X0244555Y0278835D01*
X0244480Y0278756D01*
X0244408Y0278675D01*
X0244339Y0278590D01*
X0244273Y0278504D01*
X0244211Y0278415D01*
X0244151Y0278324D01*
X0244096Y0278231D01*
X0244043Y0278135D01*
X0243994Y0278038D01*
X0243948Y0277940D01*
X0243906Y0277839D01*
X0243868Y0277737D01*
X0243834Y0277634D01*
X0243803Y0277530D01*
X0243776Y0277425D01*
X0243753Y0277318D01*
X0243733Y0277211D01*
X0243718Y0277104D01*
X0243707Y0276996D01*
X0243699Y0276887D01*
X0243695Y0276779D01*
X0243696Y0276670D01*
X0243700Y0276561D01*
X0243708Y0276453D01*
X0243720Y0276345D01*
X0243736Y0276237D01*
X0243756Y0276130D01*
X0243780Y0276024D01*
X0243808Y0275919D01*
X0243839Y0275815D01*
X0243874Y0275712D01*
X0243913Y0275610D01*
X0243956Y0275510D01*
X0244002Y0275412D01*
X0244051Y0275315D01*
X0244104Y0275220D01*
X0244161Y0275127D01*
X0244221Y0275036D01*
X0244284Y0274948D01*
X0244350Y0274862D01*
X0244420Y0274778D01*
X0244492Y0274697D01*
X0244567Y0274618D01*
X0244645Y0274543D01*
X0245695Y0273633D02*
X0247695Y0273633D01*
X0246695Y0272133D01*
X0248795Y0274633D02*
X0250395Y0275333D01*
X0248395Y0276133D01*
X0248795Y0274633D01*
X0246695Y0281233D02*
X0246695Y0282133D01*
X0245895Y0282133D01*
D11*
X0236195Y0275133D02*
X0235695Y0275133D01*
D12*
X0222145Y0282083D03*
D13*
X0219145Y0282083D02*
X0219147Y0282192D01*
X0219153Y0282301D01*
X0219163Y0282409D01*
X0219177Y0282517D01*
X0219194Y0282625D01*
X0219216Y0282732D01*
X0219241Y0282838D01*
X0219271Y0282942D01*
X0219304Y0283046D01*
X0219341Y0283149D01*
X0219381Y0283250D01*
X0219425Y0283349D01*
X0219473Y0283447D01*
X0219525Y0283544D01*
X0219579Y0283638D01*
X0219637Y0283730D01*
X0219699Y0283820D01*
X0219764Y0283907D01*
X0219831Y0283993D01*
X0219902Y0284076D01*
X0219976Y0284156D01*
X0220053Y0284233D01*
X0220132Y0284308D01*
X0220214Y0284379D01*
X0220299Y0284448D01*
X0220386Y0284513D01*
X0220475Y0284576D01*
X0220567Y0284634D01*
X0220661Y0284690D01*
X0220756Y0284742D01*
X0220854Y0284791D01*
X0220953Y0284836D01*
X0221054Y0284878D01*
X0221156Y0284915D01*
X0221259Y0284949D01*
X0221364Y0284980D01*
X0221470Y0285006D01*
X0221576Y0285029D01*
X0221684Y0285047D01*
X0221792Y0285062D01*
X0221900Y0285073D01*
X0222009Y0285080D01*
X0222118Y0285083D01*
X0222227Y0285082D01*
X0222336Y0285077D01*
X0222444Y0285068D01*
X0222552Y0285055D01*
X0222660Y0285038D01*
X0222767Y0285018D01*
X0222873Y0284993D01*
X0222978Y0284965D01*
X0223082Y0284933D01*
X0223185Y0284897D01*
X0223287Y0284857D01*
X0223387Y0284814D01*
X0223485Y0284767D01*
X0223582Y0284717D01*
X0223676Y0284663D01*
X0223769Y0284605D01*
X0223860Y0284545D01*
X0223948Y0284481D01*
X0224034Y0284414D01*
X0224117Y0284344D01*
X0224198Y0284271D01*
X0224276Y0284195D01*
X0224351Y0284116D01*
X0224424Y0284034D01*
X0224493Y0283950D01*
X0224559Y0283864D01*
X0224622Y0283775D01*
X0224682Y0283684D01*
X0224739Y0283591D01*
X0224792Y0283496D01*
X0224841Y0283399D01*
X0224887Y0283300D01*
X0224929Y0283200D01*
X0224968Y0283098D01*
X0225003Y0282994D01*
X0225034Y0282890D01*
X0225062Y0282785D01*
X0225085Y0282678D01*
X0225105Y0282571D01*
X0225121Y0282463D01*
X0225133Y0282355D01*
X0225141Y0282246D01*
X0225145Y0282137D01*
X0225145Y0282029D01*
X0225141Y0281920D01*
X0225133Y0281811D01*
X0225121Y0281703D01*
X0225105Y0281595D01*
X0225085Y0281488D01*
X0225062Y0281381D01*
X0225034Y0281276D01*
X0225003Y0281172D01*
X0224968Y0281068D01*
X0224929Y0280966D01*
X0224887Y0280866D01*
X0224841Y0280767D01*
X0224792Y0280670D01*
X0224739Y0280575D01*
X0224682Y0280482D01*
X0224622Y0280391D01*
X0224559Y0280302D01*
X0224493Y0280216D01*
X0224424Y0280132D01*
X0224351Y0280050D01*
X0224276Y0279971D01*
X0224198Y0279895D01*
X0224117Y0279822D01*
X0224034Y0279752D01*
X0223948Y0279685D01*
X0223860Y0279621D01*
X0223769Y0279561D01*
X0223676Y0279503D01*
X0223582Y0279449D01*
X0223485Y0279399D01*
X0223387Y0279352D01*
X0223287Y0279309D01*
X0223185Y0279269D01*
X0223082Y0279233D01*
X0222978Y0279201D01*
X0222873Y0279173D01*
X0222767Y0279148D01*
X0222660Y0279128D01*
X0222552Y0279111D01*
X0222444Y0279098D01*
X0222336Y0279089D01*
X0222227Y0279084D01*
X0222118Y0279083D01*
X0222009Y0279086D01*
X0221900Y0279093D01*
X0221792Y0279104D01*
X0221684Y0279119D01*
X0221576Y0279137D01*
X0221470Y0279160D01*
X0221364Y0279186D01*
X0221259Y0279217D01*
X0221156Y0279251D01*
X0221054Y0279288D01*
X0220953Y0279330D01*
X0220854Y0279375D01*
X0220756Y0279424D01*
X0220661Y0279476D01*
X0220567Y0279532D01*
X0220475Y0279590D01*
X0220386Y0279653D01*
X0220299Y0279718D01*
X0220214Y0279787D01*
X0220132Y0279858D01*
X0220053Y0279933D01*
X0219976Y0280010D01*
X0219902Y0280090D01*
X0219831Y0280173D01*
X0219764Y0280259D01*
X0219699Y0280346D01*
X0219637Y0280436D01*
X0219579Y0280528D01*
X0219525Y0280622D01*
X0219473Y0280719D01*
X0219425Y0280817D01*
X0219381Y0280916D01*
X0219341Y0281017D01*
X0219304Y0281120D01*
X0219271Y0281224D01*
X0219241Y0281328D01*
X0219216Y0281434D01*
X0219194Y0281541D01*
X0219177Y0281649D01*
X0219163Y0281757D01*
X0219153Y0281865D01*
X0219147Y0281974D01*
X0219145Y0282083D01*
D14*
X0156035Y0170323D02*
X0156035Y0147853D01*
X0156035Y0170323D02*
X0216095Y0170253D01*
X0216095Y0148013D01*
X0226035Y0147853D02*
X0226035Y0170323D01*
X0226205Y0170443D02*
X0286135Y0170363D01*
X0286095Y0170253D02*
X0286095Y0148013D01*
X0246035Y0147853D02*
X0246035Y0170323D01*
X0196095Y0170253D02*
X0196095Y0148013D01*
X0211155Y0233863D02*
X0211145Y0255213D01*
X0246375Y0255263D01*
X0246385Y0233913D01*
X0211155Y0233863D01*
X0163795Y0236433D02*
X0163795Y0239133D01*
X0157856Y0342971D02*
X0151356Y0342971D01*
X0341875Y0341823D02*
X0341875Y0336841D01*
X0341875Y0332903D02*
X0341875Y0327921D01*
X0341875Y0323984D02*
X0341875Y0319001D01*
X0341875Y0315064D02*
X0341875Y0310082D01*
X0341875Y0306145D02*
X0341875Y0301162D01*
X0341875Y0297225D02*
X0341875Y0292243D01*
X0341875Y0288306D02*
X0341875Y0283323D01*
X0341915Y0283333D02*
X0348124Y0283333D01*
X0352061Y0283333D02*
X0358269Y0283333D01*
X0362206Y0283333D02*
X0368415Y0283333D01*
X0368445Y0341843D02*
X0362236Y0341843D01*
X0358299Y0341843D02*
X0352091Y0341843D01*
X0348154Y0341843D02*
X0341945Y0341843D01*
D15*
X0162315Y0167298D03*
D16*
X0190650Y0167228D03*
D17*
X0251390Y0167323D03*
D18*
X0280220Y0167278D03*
D19*
X0212975Y0252113D03*
D20*
X0244705Y0252248D03*
D21*
X0262479Y0322597D02*
X0262834Y0322951D01*
X0263424Y0323424D01*
X0263779Y0323778D01*
X0263975Y0323935D01*
X0263975Y0331219D01*
X0263818Y0331258D01*
X0263621Y0331298D01*
X0263424Y0331298D01*
X0263267Y0331337D01*
X0263070Y0331376D01*
X0262912Y0331416D01*
X0262519Y0331494D01*
X0262519Y0330786D01*
X0262361Y0330983D01*
X0262204Y0331140D01*
X0262007Y0331298D01*
X0261613Y0331534D01*
X0261141Y0331613D01*
X0260865Y0331613D01*
X0260275Y0331573D01*
X0259723Y0331376D01*
X0259290Y0331101D01*
X0258936Y0330707D01*
X0258660Y0330274D01*
X0258503Y0329762D01*
X0258385Y0329211D01*
X0258346Y0328620D01*
X0259881Y0328660D01*
X0259881Y0329014D01*
X0259920Y0329329D01*
X0260038Y0329644D01*
X0260157Y0329920D01*
X0260353Y0330156D01*
X0260590Y0330313D01*
X0260865Y0330431D01*
X0261220Y0330471D01*
X0261534Y0330431D01*
X0261849Y0330313D01*
X0262046Y0330156D01*
X0262243Y0329920D01*
X0262361Y0329644D01*
X0262479Y0329329D01*
X0262519Y0329014D01*
X0262519Y0328345D01*
X0262361Y0327715D01*
X0262243Y0327439D01*
X0262046Y0327242D01*
X0261810Y0327046D01*
X0261534Y0326967D01*
X0261180Y0326927D01*
X0260865Y0326967D01*
X0260550Y0327046D01*
X0260314Y0327242D01*
X0260157Y0327439D01*
X0260038Y0327715D01*
X0258700Y0327085D01*
X0258936Y0326652D01*
X0259290Y0326298D01*
X0259723Y0325983D01*
X0260196Y0325825D01*
X0260786Y0325746D01*
X0261495Y0325865D01*
X0261731Y0325983D01*
X0262125Y0326219D01*
X0262440Y0326613D01*
X0262479Y0326613D01*
X0262479Y0322597D01*
X0262479Y0322761D02*
X0262643Y0322761D01*
X0262479Y0323059D02*
X0262969Y0323059D01*
X0263342Y0323358D02*
X0262479Y0323358D01*
X0262479Y0323656D02*
X0263657Y0323656D01*
X0263975Y0323955D02*
X0262479Y0323955D01*
X0262479Y0324253D02*
X0263975Y0324253D01*
X0263975Y0324552D02*
X0262479Y0324552D01*
X0262479Y0324850D02*
X0263975Y0324850D01*
X0263975Y0325149D02*
X0262479Y0325149D01*
X0262479Y0325447D02*
X0263975Y0325447D01*
X0263975Y0325746D02*
X0262479Y0325746D01*
X0262479Y0326044D02*
X0263975Y0326044D01*
X0263975Y0326343D02*
X0262479Y0326343D01*
X0262224Y0326343D02*
X0259245Y0326343D01*
X0258947Y0326641D02*
X0263975Y0326641D01*
X0263975Y0326940D02*
X0261291Y0326940D01*
X0261081Y0326940D02*
X0258779Y0326940D01*
X0258700Y0327085D02*
X0260038Y0327715D01*
X0259920Y0328030D01*
X0259881Y0328345D01*
X0259881Y0328660D01*
X0258346Y0328620D01*
X0258385Y0328069D01*
X0258503Y0327557D01*
X0258700Y0327085D01*
X0258636Y0327238D02*
X0259026Y0327238D01*
X0260319Y0327238D01*
X0260115Y0327537D02*
X0259660Y0327537D01*
X0258512Y0327537D01*
X0258439Y0327835D02*
X0259993Y0327835D01*
X0259907Y0328134D02*
X0258380Y0328134D01*
X0258359Y0328432D02*
X0259881Y0328432D01*
X0259881Y0328731D02*
X0258353Y0328731D01*
X0258373Y0329029D02*
X0259883Y0329029D01*
X0259920Y0329328D02*
X0258410Y0329328D01*
X0258474Y0329626D02*
X0260032Y0329626D01*
X0260161Y0329925D02*
X0258553Y0329925D01*
X0258645Y0330223D02*
X0260455Y0330223D01*
X0259839Y0331418D02*
X0261807Y0331418D01*
X0262225Y0331119D02*
X0259319Y0331119D01*
X0259038Y0330821D02*
X0262491Y0330821D01*
X0262519Y0330821D02*
X0263975Y0330821D01*
X0263975Y0331119D02*
X0262519Y0331119D01*
X0262519Y0331418D02*
X0262903Y0331418D01*
X0263975Y0330522D02*
X0258818Y0330522D01*
X0257637Y0330235D02*
X0257558Y0330471D01*
X0257440Y0330628D01*
X0257322Y0330825D01*
X0257204Y0330983D01*
X0257046Y0331101D01*
X0256653Y0331337D01*
X0256456Y0331416D01*
X0256259Y0331455D01*
X0256023Y0331534D01*
X0255786Y0331573D01*
X0255590Y0331613D01*
X0254684Y0331613D01*
X0254487Y0331573D01*
X0254251Y0331573D01*
X0254054Y0331534D01*
X0253857Y0331455D01*
X0253660Y0331416D01*
X0253464Y0331337D01*
X0252991Y0330983D01*
X0252873Y0330825D01*
X0252794Y0330668D01*
X0252716Y0330471D01*
X0252676Y0330274D01*
X0252676Y0326849D01*
X0252637Y0326770D01*
X0252637Y0326416D01*
X0252597Y0326337D01*
X0252597Y0326258D01*
X0252558Y0326179D01*
X0252558Y0326061D01*
X0252519Y0325983D01*
X0252479Y0325943D01*
X0252479Y0325904D01*
X0254015Y0325904D01*
X0254015Y0325943D01*
X0254054Y0325983D01*
X0254054Y0326022D01*
X0254094Y0326061D01*
X0254094Y0326179D01*
X0254133Y0326219D01*
X0254133Y0326455D01*
X0254212Y0326337D01*
X0254330Y0326258D01*
X0254409Y0326179D01*
X0254527Y0326101D01*
X0254645Y0326061D01*
X0254763Y0325983D01*
X0255235Y0325825D01*
X0255353Y0325825D01*
X0255471Y0325786D01*
X0255629Y0325786D01*
X0255747Y0325746D01*
X0256180Y0325746D01*
X0256377Y0325786D01*
X0256574Y0325786D01*
X0256731Y0325825D01*
X0256928Y0325904D01*
X0257086Y0325983D01*
X0257204Y0326061D01*
X0257361Y0326140D01*
X0257479Y0326258D01*
X0257558Y0326376D01*
X0257676Y0326534D01*
X0257755Y0326652D01*
X0257794Y0326849D01*
X0257873Y0327006D01*
X0257873Y0327203D01*
X0257912Y0327400D01*
X0257834Y0327833D01*
X0257716Y0328187D01*
X0257558Y0328463D01*
X0257283Y0328699D01*
X0257007Y0328857D01*
X0256692Y0328975D01*
X0256377Y0329053D01*
X0256023Y0329093D01*
X0255708Y0328266D01*
X0255826Y0328227D01*
X0255905Y0328187D01*
X0255944Y0328148D01*
X0256101Y0328069D01*
X0256141Y0328030D01*
X0256220Y0327990D01*
X0256338Y0327754D01*
X0256338Y0327676D01*
X0256377Y0327597D01*
X0256377Y0327400D01*
X0256338Y0327282D01*
X0256338Y0327203D01*
X0256298Y0327124D01*
X0256259Y0327085D01*
X0256220Y0327006D01*
X0256141Y0326967D01*
X0256101Y0326927D01*
X0255944Y0326849D01*
X0255865Y0326849D01*
X0255786Y0326809D01*
X0255708Y0326809D01*
X0255629Y0326770D01*
X0255432Y0326770D01*
X0255235Y0326809D01*
X0255038Y0326809D01*
X0254881Y0326888D01*
X0254723Y0326927D01*
X0254605Y0327006D01*
X0254527Y0327085D01*
X0254448Y0327203D01*
X0254369Y0327282D01*
X0254290Y0327518D01*
X0254251Y0327597D01*
X0254212Y0327715D01*
X0254212Y0328620D01*
X0254290Y0328542D01*
X0254369Y0328542D01*
X0254527Y0328463D01*
X0254605Y0328463D01*
X0254684Y0328424D01*
X0254842Y0328424D01*
X0255038Y0329211D01*
X0254763Y0329290D01*
X0254527Y0329368D01*
X0254330Y0329487D01*
X0254212Y0329644D01*
X0254212Y0330077D01*
X0254330Y0330313D01*
X0254369Y0330353D01*
X0254409Y0330431D01*
X0254645Y0330550D01*
X0254723Y0330550D01*
X0254802Y0330589D01*
X0255511Y0330589D01*
X0255905Y0330392D01*
X0256062Y0330235D01*
X0256101Y0330156D01*
X0256141Y0330038D01*
X0256180Y0329959D01*
X0256180Y0329762D01*
X0257716Y0329762D01*
X0257637Y0330235D01*
X0257639Y0330223D02*
X0256068Y0330223D01*
X0256180Y0329925D02*
X0257688Y0329925D01*
X0257520Y0330522D02*
X0255645Y0330522D01*
X0254590Y0330522D02*
X0252736Y0330522D01*
X0252676Y0330223D02*
X0254285Y0330223D01*
X0254212Y0329925D02*
X0252676Y0329925D01*
X0252676Y0329626D02*
X0254225Y0329626D01*
X0254648Y0329328D02*
X0252676Y0329328D01*
X0252676Y0329029D02*
X0254993Y0329029D01*
X0255999Y0329029D01*
X0256473Y0329029D01*
X0256023Y0329093D02*
X0255708Y0328266D01*
X0255629Y0328266D01*
X0255550Y0328305D01*
X0255393Y0328305D01*
X0255275Y0328345D01*
X0255117Y0328345D01*
X0254999Y0328384D01*
X0254920Y0328384D01*
X0254842Y0328424D01*
X0255038Y0329211D01*
X0255314Y0329172D01*
X0256023Y0329093D01*
X0255885Y0328731D02*
X0257227Y0328731D01*
X0257576Y0328432D02*
X0255771Y0328432D01*
X0254844Y0328432D01*
X0254666Y0328432D01*
X0254918Y0328731D02*
X0252676Y0328731D01*
X0252676Y0328432D02*
X0254212Y0328432D01*
X0254212Y0328134D02*
X0252676Y0328134D01*
X0252676Y0327835D02*
X0254212Y0327835D01*
X0254281Y0327537D02*
X0252676Y0327537D01*
X0252676Y0327238D02*
X0254413Y0327238D01*
X0254705Y0326940D02*
X0252676Y0326940D01*
X0252637Y0326641D02*
X0257748Y0326641D01*
X0257840Y0326940D02*
X0256114Y0326940D01*
X0256338Y0327238D02*
X0257880Y0327238D01*
X0257888Y0327537D02*
X0256377Y0327537D01*
X0256297Y0327835D02*
X0257833Y0327835D01*
X0257733Y0328134D02*
X0255972Y0328134D01*
X0255885Y0328731D02*
X0254918Y0328731D01*
X0254208Y0326343D02*
X0257536Y0326343D01*
X0257178Y0326044D02*
X0254670Y0326044D01*
X0254077Y0326044D02*
X0252550Y0326044D01*
X0252600Y0326343D02*
X0254133Y0326343D01*
X0251810Y0326343D02*
X0250275Y0326343D01*
X0250275Y0326641D02*
X0251810Y0326641D01*
X0251810Y0326940D02*
X0250275Y0326940D01*
X0250275Y0327238D02*
X0251810Y0327238D01*
X0251810Y0327537D02*
X0250275Y0327537D01*
X0250275Y0327835D02*
X0251810Y0327835D01*
X0251810Y0328134D02*
X0250275Y0328134D01*
X0250275Y0328432D02*
X0251810Y0328432D01*
X0251810Y0328731D02*
X0250275Y0328731D01*
X0250275Y0328778D02*
X0250275Y0325904D01*
X0251810Y0325904D01*
X0251810Y0331219D01*
X0251613Y0331258D01*
X0251456Y0331298D01*
X0251259Y0331298D01*
X0251062Y0331337D01*
X0250905Y0331376D01*
X0250511Y0331455D01*
X0250353Y0331494D01*
X0250353Y0330431D01*
X0250196Y0330707D01*
X0250038Y0330904D01*
X0249842Y0331140D01*
X0249645Y0331298D01*
X0249369Y0331455D01*
X0249133Y0331534D01*
X0248857Y0331613D01*
X0248306Y0331613D01*
X0248267Y0331573D01*
X0248227Y0331573D01*
X0248227Y0330156D01*
X0248267Y0330156D01*
X0248346Y0330195D01*
X0248779Y0330195D01*
X0249172Y0330156D01*
X0249487Y0330077D01*
X0249763Y0329920D01*
X0249960Y0329683D01*
X0250117Y0329408D01*
X0250196Y0329132D01*
X0250275Y0328778D01*
X0250219Y0329029D02*
X0251810Y0329029D01*
X0251810Y0329328D02*
X0250140Y0329328D01*
X0249992Y0329626D02*
X0251810Y0329626D01*
X0251810Y0329925D02*
X0249753Y0329925D01*
X0250302Y0330522D02*
X0248227Y0330522D01*
X0248227Y0330821D02*
X0250105Y0330821D01*
X0250353Y0330821D02*
X0251810Y0330821D01*
X0251810Y0331119D02*
X0250353Y0331119D01*
X0250353Y0331418D02*
X0250698Y0331418D01*
X0249859Y0331119D02*
X0248227Y0331119D01*
X0248227Y0331418D02*
X0249435Y0331418D01*
X0250353Y0330522D02*
X0251810Y0330522D01*
X0251810Y0330223D02*
X0248227Y0330223D01*
X0247637Y0330223D02*
X0246101Y0330223D01*
X0246101Y0329925D02*
X0247637Y0329925D01*
X0247637Y0329626D02*
X0246101Y0329626D01*
X0245967Y0329626D02*
X0244265Y0329626D01*
X0244448Y0329447D02*
X0242361Y0331494D01*
X0244172Y0331494D01*
X0246101Y0329487D01*
X0246101Y0333581D01*
X0247637Y0332754D01*
X0247637Y0325904D01*
X0246101Y0325904D01*
X0246101Y0327833D01*
X0245511Y0328384D01*
X0243975Y0325904D01*
X0242125Y0325904D01*
X0244448Y0329447D01*
X0244370Y0329328D02*
X0247637Y0329328D01*
X0247637Y0329029D02*
X0244174Y0329029D01*
X0243978Y0328731D02*
X0247637Y0328731D01*
X0247637Y0328432D02*
X0243783Y0328432D01*
X0243587Y0328134D02*
X0245356Y0328134D01*
X0245171Y0327835D02*
X0243391Y0327835D01*
X0243196Y0327537D02*
X0244986Y0327537D01*
X0244802Y0327238D02*
X0243000Y0327238D01*
X0242804Y0326940D02*
X0244617Y0326940D01*
X0244432Y0326641D02*
X0242609Y0326641D01*
X0242413Y0326343D02*
X0244247Y0326343D01*
X0244062Y0326044D02*
X0242217Y0326044D01*
X0241180Y0326044D02*
X0239684Y0326044D01*
X0239684Y0325904D02*
X0241180Y0325904D01*
X0241180Y0330471D01*
X0242716Y0330471D01*
X0242558Y0330589D01*
X0241928Y0331219D01*
X0241771Y0331337D01*
X0241653Y0331494D01*
X0241180Y0331494D01*
X0241180Y0332282D01*
X0241062Y0332597D01*
X0240944Y0332872D01*
X0240747Y0333109D01*
X0240471Y0333305D01*
X0240157Y0333463D01*
X0239763Y0333581D01*
X0238621Y0333581D01*
X0238542Y0333542D01*
X0238542Y0332439D01*
X0239212Y0332439D01*
X0239369Y0332400D01*
X0239527Y0332321D01*
X0239605Y0332203D01*
X0239645Y0332124D01*
X0239645Y0331967D01*
X0239684Y0331809D01*
X0239684Y0331494D01*
X0238621Y0331494D01*
X0238621Y0330471D01*
X0239684Y0330471D01*
X0239684Y0325904D01*
X0239684Y0326343D02*
X0241180Y0326343D01*
X0241180Y0326641D02*
X0239684Y0326641D01*
X0239684Y0326940D02*
X0241180Y0326940D01*
X0241180Y0327238D02*
X0239684Y0327238D01*
X0239684Y0327537D02*
X0241180Y0327537D01*
X0241180Y0327835D02*
X0239684Y0327835D01*
X0239684Y0328134D02*
X0241180Y0328134D01*
X0241180Y0328432D02*
X0239684Y0328432D01*
X0239684Y0328731D02*
X0241180Y0328731D01*
X0241180Y0329029D02*
X0239684Y0329029D01*
X0239684Y0329328D02*
X0241180Y0329328D01*
X0241180Y0329626D02*
X0239684Y0329626D01*
X0239684Y0329925D02*
X0241180Y0329925D01*
X0241180Y0330223D02*
X0239684Y0330223D01*
X0238621Y0330522D02*
X0242647Y0330522D01*
X0242327Y0330821D02*
X0238621Y0330821D01*
X0238621Y0331119D02*
X0242028Y0331119D01*
X0241710Y0331418D02*
X0238621Y0331418D01*
X0238149Y0331418D02*
X0236653Y0331418D01*
X0236653Y0331494D02*
X0236653Y0328345D01*
X0236574Y0327715D01*
X0236534Y0327479D01*
X0236298Y0327164D01*
X0236101Y0327046D01*
X0235905Y0327006D01*
X0235668Y0326967D01*
X0235353Y0327006D01*
X0235117Y0327046D01*
X0234920Y0327164D01*
X0234763Y0327321D01*
X0234645Y0327557D01*
X0234527Y0327833D01*
X0234487Y0328148D01*
X0234487Y0331494D01*
X0232952Y0331494D01*
X0232952Y0325904D01*
X0234409Y0325904D01*
X0234409Y0326691D01*
X0234448Y0326691D01*
X0234605Y0326455D01*
X0234763Y0326258D01*
X0234960Y0326101D01*
X0235196Y0325983D01*
X0235393Y0325904D01*
X0235629Y0325825D01*
X0235905Y0325786D01*
X0236141Y0325746D01*
X0236692Y0325786D01*
X0237125Y0325943D01*
X0237479Y0326140D01*
X0237755Y0326376D01*
X0237952Y0326731D01*
X0238070Y0327124D01*
X0238149Y0327557D01*
X0238149Y0331494D01*
X0236653Y0331494D01*
X0236653Y0331119D02*
X0238149Y0331119D01*
X0238149Y0330821D02*
X0236653Y0330821D01*
X0236653Y0330522D02*
X0238149Y0330522D01*
X0238149Y0330223D02*
X0236653Y0330223D01*
X0236653Y0329925D02*
X0238149Y0329925D01*
X0238149Y0329626D02*
X0236653Y0329626D01*
X0236653Y0329328D02*
X0238149Y0329328D01*
X0238149Y0329029D02*
X0236653Y0329029D01*
X0236653Y0328731D02*
X0238149Y0328731D01*
X0238149Y0328432D02*
X0236653Y0328432D01*
X0236626Y0328134D02*
X0238149Y0328134D01*
X0238149Y0327835D02*
X0236589Y0327835D01*
X0236544Y0327537D02*
X0238145Y0327537D01*
X0238091Y0327238D02*
X0236354Y0327238D01*
X0234846Y0327238D02*
X0232952Y0327238D01*
X0232952Y0326940D02*
X0238015Y0326940D01*
X0237902Y0326641D02*
X0234481Y0326641D01*
X0234409Y0326641D02*
X0232952Y0326641D01*
X0232952Y0326343D02*
X0234409Y0326343D01*
X0234695Y0326343D02*
X0237716Y0326343D01*
X0237307Y0326044D02*
X0235072Y0326044D01*
X0234409Y0326044D02*
X0232952Y0326044D01*
X0232125Y0326044D02*
X0230590Y0326044D01*
X0230590Y0325904D02*
X0232125Y0325904D01*
X0232125Y0331494D01*
X0230668Y0331494D01*
X0230668Y0330707D01*
X0230629Y0330707D01*
X0230471Y0330943D01*
X0230314Y0331101D01*
X0230117Y0331258D01*
X0229881Y0331416D01*
X0229409Y0331573D01*
X0229172Y0331613D01*
X0228936Y0331613D01*
X0228385Y0331573D01*
X0227952Y0331455D01*
X0227597Y0331258D01*
X0227322Y0330983D01*
X0227125Y0330668D01*
X0227007Y0330274D01*
X0226928Y0329841D01*
X0226889Y0329329D01*
X0226889Y0325904D01*
X0228424Y0325904D01*
X0228424Y0329053D01*
X0228464Y0329368D01*
X0228503Y0329644D01*
X0228542Y0329880D01*
X0228660Y0330077D01*
X0228779Y0330235D01*
X0228975Y0330353D01*
X0229172Y0330392D01*
X0229409Y0330431D01*
X0229723Y0330392D01*
X0229960Y0330353D01*
X0230157Y0330235D01*
X0230314Y0330038D01*
X0230432Y0329841D01*
X0230550Y0329565D01*
X0230590Y0329211D01*
X0230590Y0325904D01*
X0230590Y0326343D02*
X0232125Y0326343D01*
X0232125Y0326641D02*
X0230590Y0326641D01*
X0230590Y0326940D02*
X0232125Y0326940D01*
X0232125Y0327238D02*
X0230590Y0327238D01*
X0230590Y0327537D02*
X0232125Y0327537D01*
X0232125Y0327835D02*
X0230590Y0327835D01*
X0230590Y0328134D02*
X0232125Y0328134D01*
X0232125Y0328432D02*
X0230590Y0328432D01*
X0230590Y0328731D02*
X0232125Y0328731D01*
X0232125Y0329029D02*
X0230590Y0329029D01*
X0230577Y0329328D02*
X0232125Y0329328D01*
X0232125Y0329626D02*
X0230524Y0329626D01*
X0230382Y0329925D02*
X0232125Y0329925D01*
X0232125Y0330223D02*
X0230165Y0330223D01*
X0230553Y0330821D02*
X0227221Y0330821D01*
X0227081Y0330522D02*
X0232125Y0330522D01*
X0232125Y0330821D02*
X0230668Y0330821D01*
X0230668Y0331119D02*
X0232125Y0331119D01*
X0232125Y0331418D02*
X0230668Y0331418D01*
X0230291Y0331119D02*
X0227458Y0331119D01*
X0227884Y0331418D02*
X0229875Y0331418D01*
X0228770Y0330223D02*
X0226998Y0330223D01*
X0226943Y0329925D02*
X0228569Y0329925D01*
X0228500Y0329626D02*
X0226912Y0329626D01*
X0226889Y0329328D02*
X0228459Y0329328D01*
X0228424Y0329029D02*
X0226889Y0329029D01*
X0226889Y0328731D02*
X0228424Y0328731D01*
X0228424Y0328432D02*
X0226889Y0328432D01*
X0226889Y0328134D02*
X0228424Y0328134D01*
X0228424Y0327835D02*
X0226889Y0327835D01*
X0226889Y0327537D02*
X0228424Y0327537D01*
X0228424Y0327238D02*
X0226889Y0327238D01*
X0226889Y0326940D02*
X0228424Y0326940D01*
X0228424Y0326641D02*
X0226889Y0326641D01*
X0226889Y0326343D02*
X0228424Y0326343D01*
X0228424Y0326044D02*
X0226889Y0326044D01*
X0232952Y0327537D02*
X0234655Y0327537D01*
X0234526Y0327835D02*
X0232952Y0327835D01*
X0232952Y0328134D02*
X0234489Y0328134D01*
X0234487Y0328432D02*
X0232952Y0328432D01*
X0232952Y0328731D02*
X0234487Y0328731D01*
X0234487Y0329029D02*
X0232952Y0329029D01*
X0232952Y0329328D02*
X0234487Y0329328D01*
X0234487Y0329626D02*
X0232952Y0329626D01*
X0232952Y0329925D02*
X0234487Y0329925D01*
X0234487Y0330223D02*
X0232952Y0330223D01*
X0232952Y0330522D02*
X0234487Y0330522D01*
X0234487Y0330821D02*
X0232952Y0330821D01*
X0232952Y0331119D02*
X0234487Y0331119D01*
X0234487Y0331418D02*
X0232952Y0331418D01*
X0238542Y0332612D02*
X0241056Y0332612D01*
X0241168Y0332313D02*
X0239532Y0332313D01*
X0239645Y0332015D02*
X0241180Y0332015D01*
X0241180Y0331716D02*
X0239684Y0331716D01*
X0238542Y0332910D02*
X0240913Y0332910D01*
X0240607Y0333209D02*
X0238542Y0333209D01*
X0238542Y0333507D02*
X0240009Y0333507D01*
X0240461Y0335298D02*
X0244487Y0335298D01*
X0244487Y0335000D02*
X0242251Y0335000D01*
X0242204Y0335038D02*
X0242007Y0335156D01*
X0241771Y0335195D01*
X0241023Y0335195D01*
X0240550Y0335274D01*
X0240117Y0335392D01*
X0239723Y0335550D01*
X0239330Y0335786D01*
X0239015Y0336061D01*
X0238700Y0336376D01*
X0238424Y0336731D01*
X0238031Y0337439D01*
X0237834Y0338148D01*
X0237794Y0338857D01*
X0237912Y0339487D01*
X0238109Y0340038D01*
X0238385Y0340510D01*
X0238700Y0340865D01*
X0239015Y0341022D01*
X0239015Y0340707D01*
X0239094Y0340471D01*
X0239212Y0340392D01*
X0239330Y0340353D01*
X0239605Y0340353D01*
X0239920Y0340510D01*
X0240038Y0340589D01*
X0240196Y0340707D01*
X0240314Y0340786D01*
X0240432Y0340904D01*
X0240511Y0341061D01*
X0240590Y0341179D01*
X0240629Y0341337D01*
X0240668Y0341455D01*
X0240629Y0341573D01*
X0240590Y0341652D01*
X0240550Y0341770D01*
X0240471Y0341888D01*
X0240314Y0342006D01*
X0240157Y0342085D01*
X0239960Y0342124D01*
X0239802Y0342164D01*
X0239684Y0342164D01*
X0239566Y0342124D01*
X0239448Y0342124D01*
X0239487Y0342164D01*
X0239645Y0342282D01*
X0239881Y0342400D01*
X0240196Y0342518D01*
X0240550Y0342636D01*
X0240944Y0342636D01*
X0241377Y0342557D01*
X0241810Y0342321D01*
X0242164Y0342006D01*
X0242361Y0341731D01*
X0242479Y0341376D01*
X0242479Y0341061D01*
X0242401Y0340707D01*
X0242204Y0340353D01*
X0241928Y0340038D01*
X0241613Y0339683D01*
X0241338Y0339368D01*
X0241220Y0339093D01*
X0241220Y0338817D01*
X0241298Y0338581D01*
X0241456Y0338384D01*
X0241692Y0338227D01*
X0242007Y0338148D01*
X0242322Y0338148D01*
X0242519Y0338187D01*
X0242716Y0338266D01*
X0242834Y0338345D01*
X0242952Y0338463D01*
X0243031Y0338620D01*
X0243070Y0338739D01*
X0243070Y0338857D01*
X0243031Y0338975D01*
X0242952Y0339093D01*
X0242794Y0339250D01*
X0242676Y0339290D01*
X0242519Y0339368D01*
X0242479Y0339408D01*
X0242558Y0339447D01*
X0242637Y0339447D01*
X0242794Y0339487D01*
X0243109Y0339487D01*
X0243346Y0339447D01*
X0243739Y0339290D01*
X0243897Y0339172D01*
X0244094Y0339053D01*
X0244212Y0338857D01*
X0244330Y0338620D01*
X0244409Y0338384D01*
X0244487Y0337676D01*
X0244487Y0332636D01*
X0244448Y0332636D01*
X0244369Y0332754D01*
X0244251Y0332872D01*
X0244133Y0333030D01*
X0243936Y0333227D01*
X0243739Y0333463D01*
X0243503Y0333699D01*
X0243306Y0333975D01*
X0242794Y0334487D01*
X0242597Y0334723D01*
X0242204Y0335038D01*
X0242616Y0334701D02*
X0244487Y0334701D01*
X0244487Y0334403D02*
X0242878Y0334403D01*
X0243177Y0334104D02*
X0244487Y0334104D01*
X0244487Y0333806D02*
X0243427Y0333806D01*
X0243695Y0333507D02*
X0244487Y0333507D01*
X0244487Y0333209D02*
X0243954Y0333209D01*
X0244223Y0332910D02*
X0244487Y0332910D01*
X0244246Y0331418D02*
X0242440Y0331418D01*
X0242744Y0331119D02*
X0244533Y0331119D01*
X0244820Y0330821D02*
X0243048Y0330821D01*
X0243352Y0330522D02*
X0245107Y0330522D01*
X0245393Y0330223D02*
X0243657Y0330223D01*
X0243961Y0329925D02*
X0245680Y0329925D01*
X0246101Y0330522D02*
X0247637Y0330522D01*
X0247637Y0330821D02*
X0246101Y0330821D01*
X0246101Y0331119D02*
X0247637Y0331119D01*
X0247637Y0331418D02*
X0246101Y0331418D01*
X0246101Y0331716D02*
X0247637Y0331716D01*
X0247637Y0332015D02*
X0246101Y0332015D01*
X0246101Y0332313D02*
X0247637Y0332313D01*
X0247637Y0332612D02*
X0246101Y0332612D01*
X0246101Y0332910D02*
X0247347Y0332910D01*
X0246793Y0333209D02*
X0246101Y0333209D01*
X0246101Y0333507D02*
X0246239Y0333507D01*
X0244487Y0335597D02*
X0239645Y0335597D01*
X0239205Y0335895D02*
X0244487Y0335895D01*
X0244487Y0336194D02*
X0238882Y0336194D01*
X0238610Y0336492D02*
X0244487Y0336492D01*
X0244487Y0336791D02*
X0238391Y0336791D01*
X0238225Y0337089D02*
X0244487Y0337089D01*
X0244487Y0337388D02*
X0238059Y0337388D01*
X0237962Y0337686D02*
X0244486Y0337686D01*
X0244453Y0337985D02*
X0237879Y0337985D01*
X0237826Y0338283D02*
X0241607Y0338283D01*
X0241298Y0338582D02*
X0237810Y0338582D01*
X0237799Y0338880D02*
X0241220Y0338880D01*
X0241256Y0339179D02*
X0237855Y0339179D01*
X0237911Y0339477D02*
X0241433Y0339477D01*
X0241695Y0339776D02*
X0238016Y0339776D01*
X0238131Y0340074D02*
X0241960Y0340074D01*
X0242215Y0340373D02*
X0239646Y0340373D01*
X0239269Y0340373D02*
X0238305Y0340373D01*
X0238528Y0340671D02*
X0239027Y0340671D01*
X0239015Y0340970D02*
X0238911Y0340970D01*
X0240148Y0340671D02*
X0242381Y0340671D01*
X0242459Y0340970D02*
X0240465Y0340970D01*
X0240612Y0341268D02*
X0242479Y0341268D01*
X0242416Y0341567D02*
X0240631Y0341567D01*
X0240487Y0341865D02*
X0242265Y0341865D01*
X0241987Y0342164D02*
X0239488Y0342164D01*
X0240048Y0342462D02*
X0241551Y0342462D01*
X0242757Y0339477D02*
X0243165Y0339477D01*
X0242866Y0339179D02*
X0243887Y0339179D01*
X0244197Y0338880D02*
X0243062Y0338880D01*
X0243011Y0338582D02*
X0244343Y0338582D01*
X0244420Y0338283D02*
X0242741Y0338283D01*
X0245779Y0328134D02*
X0247637Y0328134D01*
X0247637Y0327835D02*
X0246099Y0327835D01*
X0246101Y0327537D02*
X0247637Y0327537D01*
X0247637Y0327238D02*
X0246101Y0327238D01*
X0246101Y0326940D02*
X0247637Y0326940D01*
X0247637Y0326641D02*
X0246101Y0326641D01*
X0246101Y0326343D02*
X0247637Y0326343D01*
X0247637Y0326044D02*
X0246101Y0326044D01*
X0250275Y0326044D02*
X0251810Y0326044D01*
X0252871Y0330821D02*
X0257325Y0330821D01*
X0257016Y0331119D02*
X0253173Y0331119D01*
X0253670Y0331418D02*
X0256447Y0331418D01*
X0261962Y0330223D02*
X0263975Y0330223D01*
X0263975Y0329925D02*
X0262239Y0329925D01*
X0262368Y0329626D02*
X0263975Y0329626D01*
X0263975Y0329328D02*
X0262480Y0329328D01*
X0262517Y0329029D02*
X0263975Y0329029D01*
X0263975Y0328731D02*
X0262519Y0328731D01*
X0262519Y0328432D02*
X0263975Y0328432D01*
X0263975Y0328134D02*
X0262466Y0328134D01*
X0262391Y0327835D02*
X0263975Y0327835D01*
X0263975Y0327537D02*
X0262285Y0327537D01*
X0262041Y0327238D02*
X0263975Y0327238D01*
X0264679Y0327238D02*
X0266201Y0327238D01*
X0266220Y0327164D02*
X0266141Y0327479D01*
X0266180Y0327636D01*
X0266259Y0327794D01*
X0266416Y0327912D01*
X0266613Y0328030D01*
X0266849Y0328109D01*
X0267479Y0328266D01*
X0267873Y0328345D01*
X0268227Y0328424D01*
X0268542Y0328542D01*
X0268818Y0328660D01*
X0269094Y0328817D01*
X0269330Y0328975D01*
X0269487Y0329211D01*
X0269605Y0329487D01*
X0269645Y0329841D01*
X0269605Y0330313D01*
X0269448Y0330707D01*
X0269172Y0331022D01*
X0268897Y0331258D01*
X0268503Y0331455D01*
X0268109Y0331534D01*
X0267676Y0331613D01*
X0266771Y0331613D01*
X0266338Y0331534D01*
X0265944Y0331416D01*
X0265590Y0331258D01*
X0265275Y0331022D01*
X0265038Y0330707D01*
X0264842Y0330313D01*
X0264763Y0329841D01*
X0266220Y0329841D01*
X0266259Y0330038D01*
X0266338Y0330235D01*
X0266416Y0330353D01*
X0266534Y0330431D01*
X0266692Y0330510D01*
X0266889Y0330589D01*
X0267558Y0330589D01*
X0267676Y0330550D01*
X0267834Y0330510D01*
X0267952Y0330471D01*
X0268109Y0330235D01*
X0268109Y0330077D01*
X0268070Y0329920D01*
X0267952Y0329762D01*
X0267794Y0329644D01*
X0267558Y0329526D01*
X0267322Y0329447D01*
X0267007Y0329408D01*
X0266062Y0329172D01*
X0265708Y0329093D01*
X0265157Y0328778D01*
X0264920Y0328581D01*
X0264763Y0328345D01*
X0264645Y0328069D01*
X0264605Y0327715D01*
X0264684Y0327203D01*
X0264842Y0326770D01*
X0265078Y0326455D01*
X0265393Y0326179D01*
X0265786Y0325983D01*
X0266220Y0325865D01*
X0266692Y0325786D01*
X0267164Y0325746D01*
X0267637Y0325786D01*
X0268109Y0325865D01*
X0268542Y0325983D01*
X0268936Y0326179D01*
X0269251Y0326455D01*
X0269527Y0326809D01*
X0269684Y0327203D01*
X0269763Y0327715D01*
X0268306Y0327715D01*
X0268306Y0327479D01*
X0268227Y0327282D01*
X0268109Y0327124D01*
X0267794Y0326888D01*
X0267558Y0326849D01*
X0267361Y0326809D01*
X0267125Y0326770D01*
X0266968Y0326809D01*
X0266810Y0326809D01*
X0266653Y0326849D01*
X0266495Y0326927D01*
X0266338Y0327046D01*
X0266220Y0327164D01*
X0266479Y0326940D02*
X0264780Y0326940D01*
X0264938Y0326641D02*
X0269396Y0326641D01*
X0269579Y0326940D02*
X0267863Y0326940D01*
X0268195Y0327238D02*
X0269690Y0327238D01*
X0269735Y0327537D02*
X0268306Y0327537D01*
X0268251Y0328432D02*
X0264821Y0328432D01*
X0264672Y0328134D02*
X0266951Y0328134D01*
X0266315Y0327835D02*
X0264619Y0327835D01*
X0264633Y0327537D02*
X0266155Y0327537D01*
X0265206Y0326343D02*
X0269123Y0326343D01*
X0268666Y0326044D02*
X0265663Y0326044D01*
X0265100Y0328731D02*
X0268942Y0328731D01*
X0269366Y0329029D02*
X0265597Y0329029D01*
X0266236Y0329925D02*
X0264777Y0329925D01*
X0264827Y0330223D02*
X0266333Y0330223D01*
X0266722Y0330522D02*
X0264946Y0330522D01*
X0265124Y0330821D02*
X0269349Y0330821D01*
X0269522Y0330522D02*
X0267786Y0330522D01*
X0268109Y0330223D02*
X0269613Y0330223D01*
X0269638Y0329925D02*
X0268071Y0329925D01*
X0267759Y0329626D02*
X0269621Y0329626D01*
X0269537Y0329328D02*
X0266687Y0329328D01*
X0265404Y0331119D02*
X0269059Y0331119D01*
X0268578Y0331418D02*
X0265950Y0331418D01*
X0261834Y0326044D02*
X0259639Y0326044D01*
D22*
X0251945Y0299653D02*
X0245945Y0299653D01*
X0245885Y0299651D01*
X0245824Y0299646D01*
X0245765Y0299637D01*
X0245706Y0299624D01*
X0245647Y0299608D01*
X0245590Y0299588D01*
X0245535Y0299565D01*
X0245480Y0299538D01*
X0245428Y0299509D01*
X0245377Y0299476D01*
X0245328Y0299440D01*
X0245282Y0299402D01*
X0245238Y0299360D01*
X0245196Y0299316D01*
X0245158Y0299270D01*
X0245122Y0299221D01*
X0245089Y0299170D01*
X0245060Y0299118D01*
X0245033Y0299063D01*
X0245010Y0299008D01*
X0244990Y0298951D01*
X0244974Y0298892D01*
X0244961Y0298833D01*
X0244952Y0298774D01*
X0244947Y0298713D01*
X0244945Y0298653D01*
X0244945Y0291853D01*
X0244947Y0291793D01*
X0244952Y0291732D01*
X0244961Y0291673D01*
X0244974Y0291614D01*
X0244990Y0291555D01*
X0245010Y0291498D01*
X0245033Y0291443D01*
X0245060Y0291388D01*
X0245089Y0291336D01*
X0245122Y0291285D01*
X0245158Y0291236D01*
X0245196Y0291190D01*
X0245238Y0291146D01*
X0245282Y0291104D01*
X0245328Y0291066D01*
X0245377Y0291030D01*
X0245428Y0290997D01*
X0245480Y0290968D01*
X0245535Y0290941D01*
X0245590Y0290918D01*
X0245647Y0290898D01*
X0245706Y0290882D01*
X0245765Y0290869D01*
X0245824Y0290860D01*
X0245885Y0290855D01*
X0245945Y0290853D01*
X0251945Y0290853D01*
X0252005Y0290855D01*
X0252066Y0290860D01*
X0252125Y0290869D01*
X0252184Y0290882D01*
X0252243Y0290898D01*
X0252300Y0290918D01*
X0252355Y0290941D01*
X0252410Y0290968D01*
X0252462Y0290997D01*
X0252513Y0291030D01*
X0252562Y0291066D01*
X0252608Y0291104D01*
X0252652Y0291146D01*
X0252694Y0291190D01*
X0252732Y0291236D01*
X0252768Y0291285D01*
X0252801Y0291336D01*
X0252830Y0291388D01*
X0252857Y0291443D01*
X0252880Y0291498D01*
X0252900Y0291555D01*
X0252916Y0291614D01*
X0252929Y0291673D01*
X0252938Y0291732D01*
X0252943Y0291793D01*
X0252945Y0291853D01*
X0252945Y0298653D01*
X0252943Y0298713D01*
X0252938Y0298774D01*
X0252929Y0298833D01*
X0252916Y0298892D01*
X0252900Y0298951D01*
X0252880Y0299008D01*
X0252857Y0299063D01*
X0252830Y0299118D01*
X0252801Y0299170D01*
X0252768Y0299221D01*
X0252732Y0299270D01*
X0252694Y0299316D01*
X0252652Y0299360D01*
X0252608Y0299402D01*
X0252562Y0299440D01*
X0252513Y0299476D01*
X0252462Y0299509D01*
X0252410Y0299538D01*
X0252355Y0299565D01*
X0252300Y0299588D01*
X0252243Y0299608D01*
X0252184Y0299624D01*
X0252125Y0299637D01*
X0252066Y0299646D01*
X0252005Y0299651D01*
X0251945Y0299653D01*
X0305095Y0299443D02*
X0305095Y0295043D01*
X0305097Y0294960D01*
X0305103Y0294877D01*
X0305112Y0294794D01*
X0305126Y0294712D01*
X0305143Y0294631D01*
X0305164Y0294550D01*
X0305188Y0294471D01*
X0305217Y0294393D01*
X0305248Y0294316D01*
X0305284Y0294241D01*
X0305322Y0294167D01*
X0305365Y0294095D01*
X0305410Y0294026D01*
X0305459Y0293958D01*
X0305510Y0293893D01*
X0305565Y0293830D01*
X0305622Y0293770D01*
X0305682Y0293713D01*
X0305745Y0293658D01*
X0305810Y0293607D01*
X0305878Y0293558D01*
X0305947Y0293513D01*
X0306019Y0293470D01*
X0306093Y0293432D01*
X0306168Y0293396D01*
X0306245Y0293365D01*
X0306323Y0293336D01*
X0306402Y0293312D01*
X0306483Y0293291D01*
X0306564Y0293274D01*
X0306646Y0293260D01*
X0306729Y0293251D01*
X0306812Y0293245D01*
X0306895Y0293243D01*
X0316895Y0293243D01*
X0316978Y0293245D01*
X0317061Y0293251D01*
X0317144Y0293260D01*
X0317226Y0293274D01*
X0317307Y0293291D01*
X0317388Y0293312D01*
X0317467Y0293336D01*
X0317545Y0293365D01*
X0317622Y0293396D01*
X0317697Y0293432D01*
X0317771Y0293470D01*
X0317843Y0293513D01*
X0317912Y0293558D01*
X0317980Y0293607D01*
X0318045Y0293658D01*
X0318108Y0293713D01*
X0318168Y0293770D01*
X0318225Y0293830D01*
X0318280Y0293893D01*
X0318331Y0293958D01*
X0318380Y0294026D01*
X0318425Y0294095D01*
X0318468Y0294167D01*
X0318506Y0294241D01*
X0318542Y0294316D01*
X0318573Y0294393D01*
X0318602Y0294471D01*
X0318626Y0294550D01*
X0318647Y0294631D01*
X0318664Y0294712D01*
X0318678Y0294794D01*
X0318687Y0294877D01*
X0318693Y0294960D01*
X0318695Y0295043D01*
X0318695Y0299443D01*
X0318693Y0299526D01*
X0318687Y0299609D01*
X0318678Y0299692D01*
X0318664Y0299774D01*
X0318647Y0299855D01*
X0318626Y0299936D01*
X0318602Y0300015D01*
X0318573Y0300093D01*
X0318542Y0300170D01*
X0318506Y0300245D01*
X0318468Y0300319D01*
X0318425Y0300391D01*
X0318380Y0300460D01*
X0318331Y0300528D01*
X0318280Y0300593D01*
X0318225Y0300656D01*
X0318168Y0300716D01*
X0318108Y0300773D01*
X0318045Y0300828D01*
X0317980Y0300879D01*
X0317912Y0300928D01*
X0317843Y0300973D01*
X0317771Y0301016D01*
X0317697Y0301054D01*
X0317622Y0301090D01*
X0317545Y0301121D01*
X0317467Y0301150D01*
X0317388Y0301174D01*
X0317307Y0301195D01*
X0317226Y0301212D01*
X0317144Y0301226D01*
X0317061Y0301235D01*
X0316978Y0301241D01*
X0316895Y0301243D01*
X0306895Y0301243D01*
X0306812Y0301241D01*
X0306729Y0301235D01*
X0306646Y0301226D01*
X0306564Y0301212D01*
X0306483Y0301195D01*
X0306402Y0301174D01*
X0306323Y0301150D01*
X0306245Y0301121D01*
X0306168Y0301090D01*
X0306093Y0301054D01*
X0306019Y0301016D01*
X0305947Y0300973D01*
X0305878Y0300928D01*
X0305810Y0300879D01*
X0305745Y0300828D01*
X0305682Y0300773D01*
X0305622Y0300716D01*
X0305565Y0300656D01*
X0305510Y0300593D01*
X0305459Y0300528D01*
X0305410Y0300460D01*
X0305365Y0300391D01*
X0305322Y0300319D01*
X0305284Y0300245D01*
X0305248Y0300170D01*
X0305217Y0300093D01*
X0305188Y0300015D01*
X0305164Y0299936D01*
X0305143Y0299855D01*
X0305126Y0299774D01*
X0305112Y0299692D01*
X0305103Y0299609D01*
X0305097Y0299526D01*
X0305095Y0299443D01*
X0195895Y0291233D02*
X0195895Y0284433D01*
X0195893Y0284373D01*
X0195888Y0284312D01*
X0195879Y0284253D01*
X0195866Y0284194D01*
X0195850Y0284135D01*
X0195830Y0284078D01*
X0195807Y0284023D01*
X0195780Y0283968D01*
X0195751Y0283916D01*
X0195718Y0283865D01*
X0195682Y0283816D01*
X0195644Y0283770D01*
X0195602Y0283726D01*
X0195558Y0283684D01*
X0195512Y0283646D01*
X0195463Y0283610D01*
X0195412Y0283577D01*
X0195360Y0283548D01*
X0195305Y0283521D01*
X0195250Y0283498D01*
X0195193Y0283478D01*
X0195134Y0283462D01*
X0195075Y0283449D01*
X0195016Y0283440D01*
X0194955Y0283435D01*
X0194895Y0283433D01*
X0188895Y0283433D01*
X0188835Y0283435D01*
X0188774Y0283440D01*
X0188715Y0283449D01*
X0188656Y0283462D01*
X0188597Y0283478D01*
X0188540Y0283498D01*
X0188485Y0283521D01*
X0188430Y0283548D01*
X0188378Y0283577D01*
X0188327Y0283610D01*
X0188278Y0283646D01*
X0188232Y0283684D01*
X0188188Y0283726D01*
X0188146Y0283770D01*
X0188108Y0283816D01*
X0188072Y0283865D01*
X0188039Y0283916D01*
X0188010Y0283968D01*
X0187983Y0284023D01*
X0187960Y0284078D01*
X0187940Y0284135D01*
X0187924Y0284194D01*
X0187911Y0284253D01*
X0187902Y0284312D01*
X0187897Y0284373D01*
X0187895Y0284433D01*
X0187895Y0291233D01*
X0187897Y0291293D01*
X0187902Y0291354D01*
X0187911Y0291413D01*
X0187924Y0291472D01*
X0187940Y0291531D01*
X0187960Y0291588D01*
X0187983Y0291643D01*
X0188010Y0291698D01*
X0188039Y0291750D01*
X0188072Y0291801D01*
X0188108Y0291850D01*
X0188146Y0291896D01*
X0188188Y0291940D01*
X0188232Y0291982D01*
X0188278Y0292020D01*
X0188327Y0292056D01*
X0188378Y0292089D01*
X0188430Y0292118D01*
X0188485Y0292145D01*
X0188540Y0292168D01*
X0188597Y0292188D01*
X0188656Y0292204D01*
X0188715Y0292217D01*
X0188774Y0292226D01*
X0188835Y0292231D01*
X0188895Y0292233D01*
X0194895Y0292233D01*
X0194955Y0292231D01*
X0195016Y0292226D01*
X0195075Y0292217D01*
X0195134Y0292204D01*
X0195193Y0292188D01*
X0195250Y0292168D01*
X0195305Y0292145D01*
X0195360Y0292118D01*
X0195412Y0292089D01*
X0195463Y0292056D01*
X0195512Y0292020D01*
X0195558Y0291982D01*
X0195602Y0291940D01*
X0195644Y0291896D01*
X0195682Y0291850D01*
X0195718Y0291801D01*
X0195751Y0291750D01*
X0195780Y0291698D01*
X0195807Y0291643D01*
X0195830Y0291588D01*
X0195850Y0291531D01*
X0195866Y0291472D01*
X0195879Y0291413D01*
X0195888Y0291354D01*
X0195893Y0291293D01*
X0195895Y0291233D01*
X0193985Y0277653D02*
X0189585Y0277653D01*
X0189502Y0277651D01*
X0189419Y0277645D01*
X0189336Y0277636D01*
X0189254Y0277622D01*
X0189173Y0277605D01*
X0189092Y0277584D01*
X0189013Y0277560D01*
X0188935Y0277531D01*
X0188858Y0277500D01*
X0188783Y0277464D01*
X0188709Y0277426D01*
X0188637Y0277383D01*
X0188568Y0277338D01*
X0188500Y0277289D01*
X0188435Y0277238D01*
X0188372Y0277183D01*
X0188312Y0277126D01*
X0188255Y0277066D01*
X0188200Y0277003D01*
X0188149Y0276938D01*
X0188100Y0276870D01*
X0188055Y0276801D01*
X0188012Y0276729D01*
X0187974Y0276655D01*
X0187938Y0276580D01*
X0187907Y0276503D01*
X0187878Y0276425D01*
X0187854Y0276346D01*
X0187833Y0276265D01*
X0187816Y0276184D01*
X0187802Y0276102D01*
X0187793Y0276019D01*
X0187787Y0275936D01*
X0187785Y0275853D01*
X0187785Y0269853D01*
X0187787Y0269770D01*
X0187793Y0269687D01*
X0187802Y0269604D01*
X0187816Y0269522D01*
X0187833Y0269441D01*
X0187854Y0269360D01*
X0187878Y0269281D01*
X0187907Y0269203D01*
X0187938Y0269126D01*
X0187974Y0269051D01*
X0188012Y0268977D01*
X0188055Y0268905D01*
X0188100Y0268836D01*
X0188149Y0268768D01*
X0188200Y0268703D01*
X0188255Y0268640D01*
X0188312Y0268580D01*
X0188372Y0268523D01*
X0188435Y0268468D01*
X0188500Y0268417D01*
X0188568Y0268368D01*
X0188637Y0268323D01*
X0188709Y0268280D01*
X0188783Y0268242D01*
X0188858Y0268206D01*
X0188935Y0268175D01*
X0189013Y0268146D01*
X0189092Y0268122D01*
X0189173Y0268101D01*
X0189254Y0268084D01*
X0189336Y0268070D01*
X0189419Y0268061D01*
X0189502Y0268055D01*
X0189585Y0268053D01*
X0193985Y0268053D01*
X0194068Y0268055D01*
X0194151Y0268061D01*
X0194234Y0268070D01*
X0194316Y0268084D01*
X0194397Y0268101D01*
X0194478Y0268122D01*
X0194557Y0268146D01*
X0194635Y0268175D01*
X0194712Y0268206D01*
X0194787Y0268242D01*
X0194861Y0268280D01*
X0194933Y0268323D01*
X0195002Y0268368D01*
X0195070Y0268417D01*
X0195135Y0268468D01*
X0195198Y0268523D01*
X0195258Y0268580D01*
X0195315Y0268640D01*
X0195370Y0268703D01*
X0195421Y0268768D01*
X0195470Y0268836D01*
X0195515Y0268905D01*
X0195558Y0268977D01*
X0195596Y0269051D01*
X0195632Y0269126D01*
X0195663Y0269203D01*
X0195692Y0269281D01*
X0195716Y0269360D01*
X0195737Y0269441D01*
X0195754Y0269522D01*
X0195768Y0269604D01*
X0195777Y0269687D01*
X0195783Y0269770D01*
X0195785Y0269853D01*
X0195785Y0275853D01*
X0195783Y0275936D01*
X0195777Y0276019D01*
X0195768Y0276102D01*
X0195754Y0276184D01*
X0195737Y0276265D01*
X0195716Y0276346D01*
X0195692Y0276425D01*
X0195663Y0276503D01*
X0195632Y0276580D01*
X0195596Y0276655D01*
X0195558Y0276729D01*
X0195515Y0276801D01*
X0195470Y0276870D01*
X0195421Y0276938D01*
X0195370Y0277003D01*
X0195315Y0277066D01*
X0195258Y0277126D01*
X0195198Y0277183D01*
X0195135Y0277238D01*
X0195070Y0277289D01*
X0195002Y0277338D01*
X0194933Y0277383D01*
X0194861Y0277426D01*
X0194787Y0277464D01*
X0194712Y0277500D01*
X0194635Y0277531D01*
X0194557Y0277560D01*
X0194478Y0277584D01*
X0194397Y0277605D01*
X0194316Y0277622D01*
X0194234Y0277636D01*
X0194151Y0277645D01*
X0194068Y0277651D01*
X0193985Y0277653D01*
X0196515Y0319103D02*
X0190515Y0319103D01*
X0190455Y0319105D01*
X0190394Y0319110D01*
X0190335Y0319119D01*
X0190276Y0319132D01*
X0190217Y0319148D01*
X0190160Y0319168D01*
X0190105Y0319191D01*
X0190050Y0319218D01*
X0189998Y0319247D01*
X0189947Y0319280D01*
X0189898Y0319316D01*
X0189852Y0319354D01*
X0189808Y0319396D01*
X0189766Y0319440D01*
X0189728Y0319486D01*
X0189692Y0319535D01*
X0189659Y0319586D01*
X0189630Y0319638D01*
X0189603Y0319693D01*
X0189580Y0319748D01*
X0189560Y0319805D01*
X0189544Y0319864D01*
X0189531Y0319923D01*
X0189522Y0319982D01*
X0189517Y0320043D01*
X0189515Y0320103D01*
X0189515Y0326903D01*
X0189517Y0326963D01*
X0189522Y0327024D01*
X0189531Y0327083D01*
X0189544Y0327142D01*
X0189560Y0327201D01*
X0189580Y0327258D01*
X0189603Y0327313D01*
X0189630Y0327368D01*
X0189659Y0327420D01*
X0189692Y0327471D01*
X0189728Y0327520D01*
X0189766Y0327566D01*
X0189808Y0327610D01*
X0189852Y0327652D01*
X0189898Y0327690D01*
X0189947Y0327726D01*
X0189998Y0327759D01*
X0190050Y0327788D01*
X0190105Y0327815D01*
X0190160Y0327838D01*
X0190217Y0327858D01*
X0190276Y0327874D01*
X0190335Y0327887D01*
X0190394Y0327896D01*
X0190455Y0327901D01*
X0190515Y0327903D01*
X0196515Y0327903D01*
X0196575Y0327901D01*
X0196636Y0327896D01*
X0196695Y0327887D01*
X0196754Y0327874D01*
X0196813Y0327858D01*
X0196870Y0327838D01*
X0196925Y0327815D01*
X0196980Y0327788D01*
X0197032Y0327759D01*
X0197083Y0327726D01*
X0197132Y0327690D01*
X0197178Y0327652D01*
X0197222Y0327610D01*
X0197264Y0327566D01*
X0197302Y0327520D01*
X0197338Y0327471D01*
X0197371Y0327420D01*
X0197400Y0327368D01*
X0197427Y0327313D01*
X0197450Y0327258D01*
X0197470Y0327201D01*
X0197486Y0327142D01*
X0197499Y0327083D01*
X0197508Y0327024D01*
X0197513Y0326963D01*
X0197515Y0326903D01*
X0197515Y0320103D01*
X0197513Y0320043D01*
X0197508Y0319982D01*
X0197499Y0319923D01*
X0197486Y0319864D01*
X0197470Y0319805D01*
X0197450Y0319748D01*
X0197427Y0319693D01*
X0197400Y0319638D01*
X0197371Y0319586D01*
X0197338Y0319535D01*
X0197302Y0319486D01*
X0197264Y0319440D01*
X0197222Y0319396D01*
X0197178Y0319354D01*
X0197132Y0319316D01*
X0197083Y0319280D01*
X0197032Y0319247D01*
X0196980Y0319218D01*
X0196925Y0319191D01*
X0196870Y0319168D01*
X0196813Y0319148D01*
X0196754Y0319132D01*
X0196695Y0319119D01*
X0196636Y0319110D01*
X0196575Y0319105D01*
X0196515Y0319103D01*
D23*
X0311895Y0306036D03*
X0311895Y0301351D03*
D24*
X0311895Y0301469D03*
X0311895Y0305917D03*
D25*
X0311895Y0305819D03*
D26*
X0311895Y0305701D03*
D27*
X0311895Y0305563D03*
X0311895Y0301784D03*
D28*
X0311895Y0301902D03*
X0311895Y0305445D03*
D29*
X0311895Y0305347D03*
D30*
X0314966Y0305248D03*
D31*
X0311363Y0305248D03*
X0249965Y0284432D03*
X0236943Y0286123D03*
X0217581Y0272344D03*
D32*
X0308470Y0305248D03*
D33*
X0315793Y0305110D03*
X0315793Y0302276D03*
D34*
X0313667Y0305110D03*
X0311659Y0304638D03*
X0250615Y0269216D03*
X0248725Y0269216D03*
X0245906Y0284216D03*
X0238065Y0288150D03*
X0232649Y0284817D03*
X0230759Y0284817D03*
X0227677Y0270617D03*
X0216459Y0270317D03*
D35*
X0228031Y0271561D03*
X0228976Y0272034D03*
X0229921Y0271561D03*
X0245906Y0285161D03*
X0311541Y0305110D03*
D36*
X0308174Y0305110D03*
X0315970Y0304166D03*
X0315970Y0303693D03*
X0315970Y0303221D03*
D37*
X0315793Y0302414D03*
X0315674Y0302138D03*
X0315793Y0304973D03*
X0307997Y0302414D03*
X0250024Y0286794D03*
X0249906Y0284550D03*
X0245906Y0285968D03*
X0236120Y0272340D03*
X0218504Y0285627D03*
D38*
X0218644Y0273289D03*
X0235880Y0285178D03*
X0244784Y0287188D03*
X0247028Y0287188D03*
X0311718Y0304500D03*
X0311954Y0303910D03*
X0312781Y0304421D03*
X0312781Y0304500D03*
X0313726Y0304894D03*
X0313726Y0304973D03*
X0313726Y0303083D03*
D39*
X0311600Y0304973D03*
X0250556Y0285968D03*
X0250438Y0285417D03*
X0249138Y0286440D03*
X0245965Y0284826D03*
X0231763Y0286372D03*
X0230098Y0271227D03*
X0227854Y0271227D03*
X0249729Y0270771D03*
D40*
X0236061Y0269978D03*
X0249965Y0286716D03*
X0218563Y0287989D03*
X0307938Y0302532D03*
X0307938Y0302610D03*
X0307938Y0304776D03*
X0307938Y0304894D03*
X0308056Y0304973D03*
X0312781Y0302965D03*
X0315852Y0302610D03*
X0315852Y0302532D03*
X0315852Y0304776D03*
X0315852Y0304894D03*
D41*
X0311600Y0304894D03*
X0249020Y0286361D03*
X0248902Y0286243D03*
X0248902Y0285023D03*
X0246438Y0285495D03*
X0245965Y0284550D03*
X0245257Y0285850D03*
X0244784Y0286794D03*
X0247028Y0286794D03*
X0238006Y0287934D03*
X0237652Y0287461D03*
X0235998Y0287816D03*
X0236235Y0285926D03*
X0235880Y0285454D03*
X0238006Y0285572D03*
X0232708Y0285033D03*
X0232590Y0285151D03*
X0232472Y0285427D03*
X0232353Y0285624D03*
X0231054Y0285506D03*
X0230936Y0285427D03*
X0230818Y0285151D03*
X0219035Y0285706D03*
X0218917Y0285824D03*
X0218799Y0286099D03*
X0218681Y0286217D03*
X0218563Y0286296D03*
X0218445Y0286572D03*
X0218327Y0286650D03*
X0218090Y0287044D03*
X0217972Y0287162D03*
X0218644Y0273013D03*
X0218290Y0272541D03*
X0216518Y0272895D03*
X0216872Y0271006D03*
X0216518Y0270533D03*
X0218526Y0270651D03*
X0227736Y0270833D03*
X0230216Y0270833D03*
X0235589Y0272261D03*
X0235707Y0272143D03*
X0235825Y0271868D03*
X0235943Y0271750D03*
X0236061Y0271671D03*
X0236179Y0271395D03*
X0236298Y0271317D03*
X0236534Y0270923D03*
X0236652Y0270805D03*
X0248784Y0269550D03*
X0248902Y0269826D03*
X0249020Y0269905D03*
X0250320Y0270023D03*
X0250438Y0269826D03*
X0250556Y0269550D03*
X0250674Y0269432D03*
D42*
X0250615Y0269078D03*
X0232649Y0284679D03*
X0235939Y0288288D03*
X0238065Y0288288D03*
X0238065Y0285178D03*
X0216459Y0273289D03*
X0216459Y0270179D03*
X0218585Y0270179D03*
X0311777Y0303083D03*
X0311895Y0304028D03*
X0311777Y0304303D03*
X0311777Y0304421D03*
X0312840Y0304303D03*
X0313785Y0304303D03*
X0313785Y0304421D03*
X0313785Y0304500D03*
X0313785Y0304776D03*
X0313785Y0303555D03*
X0313785Y0303477D03*
X0313785Y0303358D03*
D43*
X0313548Y0303910D03*
X0311659Y0304776D03*
X0310123Y0304421D03*
X0250733Y0286440D03*
X0250733Y0286361D03*
X0250733Y0286243D03*
X0248843Y0285968D03*
X0248843Y0285850D03*
X0248843Y0285417D03*
X0248843Y0285298D03*
X0250024Y0284078D03*
X0246615Y0285850D03*
X0246497Y0285771D03*
X0246969Y0286716D03*
X0247087Y0286913D03*
X0245316Y0285771D03*
X0245434Y0285495D03*
X0245906Y0284432D03*
X0244843Y0286716D03*
X0244725Y0286913D03*
X0238065Y0288013D03*
X0235939Y0288013D03*
X0238065Y0285454D03*
X0232412Y0285506D03*
X0231704Y0286569D03*
X0231704Y0286844D03*
X0231704Y0286962D03*
X0231704Y0287041D03*
X0231704Y0287317D03*
X0231704Y0287395D03*
X0231704Y0287513D03*
X0231113Y0285624D03*
X0230759Y0285033D03*
X0230759Y0284954D03*
X0230275Y0273313D03*
X0230275Y0273195D03*
X0230275Y0273117D03*
X0230275Y0272841D03*
X0230275Y0272762D03*
X0230275Y0272644D03*
X0230275Y0272369D03*
X0230275Y0272250D03*
X0230275Y0272172D03*
X0228976Y0272644D03*
X0227677Y0272644D03*
X0227677Y0272762D03*
X0227677Y0272841D03*
X0227677Y0273117D03*
X0227677Y0273195D03*
X0227677Y0273313D03*
X0227677Y0272369D03*
X0227677Y0272250D03*
X0227677Y0272172D03*
X0227677Y0270754D03*
X0230275Y0270754D03*
X0218585Y0270454D03*
X0216459Y0270454D03*
X0216459Y0273013D03*
X0248725Y0269432D03*
X0248725Y0269354D03*
X0249079Y0270023D03*
X0249670Y0270968D03*
X0249670Y0271243D03*
X0249670Y0271361D03*
X0249670Y0271440D03*
X0249670Y0271716D03*
X0249670Y0271794D03*
X0249670Y0271913D03*
X0250379Y0269905D03*
D44*
X0236120Y0270116D03*
X0245906Y0286106D03*
X0249906Y0286578D03*
X0218504Y0287851D03*
X0307879Y0302748D03*
X0308115Y0302276D03*
X0307879Y0304638D03*
X0312722Y0302748D03*
X0315911Y0302748D03*
X0315911Y0304638D03*
D45*
X0313785Y0304638D03*
X0313785Y0303221D03*
D46*
X0312781Y0304638D03*
D47*
X0312722Y0302886D03*
X0315911Y0302886D03*
X0315911Y0302965D03*
X0315911Y0304421D03*
X0315911Y0304500D03*
X0307879Y0304500D03*
X0249788Y0284826D03*
X0245906Y0286243D03*
X0236120Y0272813D03*
X0236120Y0272734D03*
X0236120Y0272616D03*
X0236120Y0270450D03*
X0236120Y0270372D03*
X0236120Y0270254D03*
X0218504Y0285154D03*
X0218504Y0285233D03*
X0218504Y0285351D03*
X0218504Y0287517D03*
X0218504Y0287595D03*
X0218504Y0287713D03*
D48*
X0307938Y0302886D03*
X0308293Y0302138D03*
X0307938Y0304421D03*
X0312663Y0302610D03*
X0315970Y0303083D03*
X0315970Y0303358D03*
X0315970Y0303477D03*
X0315970Y0303555D03*
X0315970Y0303831D03*
X0315970Y0303910D03*
X0315970Y0304028D03*
X0315970Y0304303D03*
D49*
X0313430Y0304028D03*
X0310123Y0304303D03*
X0310123Y0302965D03*
X0249079Y0284905D03*
X0237947Y0285650D03*
X0237711Y0285926D03*
X0237593Y0286005D03*
X0236294Y0286005D03*
X0236057Y0285650D03*
X0235939Y0285572D03*
X0236412Y0287343D03*
X0236294Y0287461D03*
X0236175Y0287540D03*
X0235939Y0287934D03*
X0237593Y0287343D03*
X0237711Y0287540D03*
X0237947Y0287816D03*
X0231704Y0286450D03*
X0218268Y0286769D03*
X0217913Y0287241D03*
X0218585Y0272895D03*
X0218467Y0272817D03*
X0218231Y0272462D03*
X0216931Y0272462D03*
X0216813Y0272541D03*
X0216577Y0272817D03*
X0216931Y0271124D03*
X0216813Y0270927D03*
X0216577Y0270651D03*
X0218112Y0271124D03*
X0218231Y0271006D03*
X0218349Y0270927D03*
X0218585Y0270533D03*
X0227795Y0270951D03*
X0228976Y0272369D03*
X0230157Y0270951D03*
X0236357Y0271198D03*
X0236711Y0270726D03*
X0249670Y0270850D03*
D50*
X0307938Y0304303D03*
X0312545Y0302414D03*
D51*
X0313726Y0303693D03*
X0313726Y0304166D03*
X0313017Y0304166D03*
X0311836Y0304166D03*
X0352376Y0298398D03*
X0356471Y0298240D03*
X0356471Y0298083D03*
X0356628Y0298555D03*
X0356786Y0298870D03*
X0360093Y0298870D03*
X0360093Y0298713D03*
X0360093Y0299028D03*
X0360093Y0299185D03*
X0360093Y0299343D03*
X0360093Y0296193D03*
X0360093Y0296036D03*
X0360093Y0295878D03*
X0360093Y0295721D03*
X0360093Y0295563D03*
X0363715Y0296036D03*
X0363715Y0296193D03*
X0363715Y0296351D03*
X0363715Y0296508D03*
X0363715Y0296823D03*
X0363715Y0296981D03*
X0363715Y0297138D03*
X0363715Y0297296D03*
X0363225Y0305958D03*
X0363225Y0306116D03*
X0363225Y0306273D03*
X0363225Y0306431D03*
X0363225Y0306588D03*
X0363225Y0306746D03*
X0363225Y0306903D03*
X0363225Y0307061D03*
X0363225Y0307218D03*
X0363225Y0307376D03*
X0363225Y0307533D03*
X0363225Y0307691D03*
X0361650Y0307061D03*
X0360548Y0307691D03*
X0360548Y0307848D03*
X0359130Y0307848D03*
X0359130Y0307691D03*
X0359130Y0307533D03*
X0359130Y0307376D03*
X0359130Y0307218D03*
X0359130Y0307061D03*
X0359130Y0306903D03*
X0359130Y0306746D03*
X0359130Y0306588D03*
X0359130Y0306431D03*
X0359130Y0306273D03*
X0359130Y0306116D03*
X0359130Y0305958D03*
X0359130Y0305801D03*
X0359130Y0308006D03*
X0359130Y0308163D03*
X0359130Y0308320D03*
X0359130Y0308478D03*
X0359130Y0308635D03*
X0359130Y0308793D03*
X0359130Y0308950D03*
X0359130Y0309108D03*
X0359130Y0309265D03*
X0363937Y0317258D03*
X0365040Y0318046D03*
X0365985Y0317258D03*
X0362520Y0318833D03*
X0362520Y0318990D03*
X0362520Y0319463D03*
X0358268Y0319463D03*
X0358268Y0318990D03*
X0358268Y0318833D03*
X0359280Y0326011D03*
X0359280Y0326168D03*
X0359280Y0326326D03*
X0359280Y0326483D03*
X0359280Y0326641D03*
X0359280Y0326798D03*
X0359280Y0326956D03*
X0359280Y0327113D03*
X0359280Y0327271D03*
X0359280Y0327428D03*
X0359280Y0327586D03*
X0359280Y0327743D03*
X0359280Y0327901D03*
X0359280Y0328058D03*
X0359280Y0328216D03*
X0359280Y0328373D03*
X0359280Y0328530D03*
X0359280Y0328688D03*
X0359280Y0328845D03*
X0359280Y0329003D03*
X0359280Y0329160D03*
X0359280Y0329318D03*
X0359280Y0329475D03*
X0360698Y0328058D03*
X0360698Y0327901D03*
X0361800Y0327271D03*
X0363375Y0327271D03*
X0363375Y0327428D03*
X0363375Y0327586D03*
X0363375Y0327743D03*
X0363375Y0327901D03*
X0363375Y0327113D03*
X0363375Y0326956D03*
X0363375Y0326798D03*
X0363375Y0326641D03*
X0363375Y0326483D03*
X0363375Y0326326D03*
X0363375Y0326168D03*
X0364230Y0339043D03*
X0364230Y0339200D03*
X0364230Y0339358D03*
X0364230Y0339515D03*
X0358900Y0289385D03*
X0358900Y0289228D03*
X0358900Y0289070D03*
X0358900Y0288913D03*
X0358900Y0288755D03*
X0358900Y0288598D03*
X0358900Y0288440D03*
X0358900Y0288283D03*
X0358900Y0288126D03*
X0358900Y0287968D03*
X0358900Y0287811D03*
X0358900Y0287653D03*
X0358900Y0287496D03*
X0358900Y0287338D03*
X0358900Y0287181D03*
X0358900Y0287023D03*
X0358900Y0286866D03*
X0358900Y0286708D03*
X0358900Y0286551D03*
X0358900Y0286393D03*
X0358900Y0286236D03*
X0358900Y0286078D03*
X0358900Y0285921D03*
X0360318Y0287811D03*
X0360318Y0287968D03*
X0361420Y0287181D03*
X0362995Y0287181D03*
X0362995Y0287338D03*
X0362995Y0287496D03*
X0362995Y0287653D03*
X0362995Y0287811D03*
X0362995Y0287023D03*
X0362995Y0286866D03*
X0362995Y0286708D03*
X0362995Y0286551D03*
X0362995Y0286393D03*
X0362995Y0286236D03*
X0362995Y0286078D03*
X0364470Y0278138D03*
X0363210Y0276878D03*
X0363210Y0276721D03*
X0362265Y0277351D03*
X0362265Y0277508D03*
X0361005Y0277666D03*
X0361005Y0277823D03*
X0361005Y0277981D03*
X0361005Y0276563D03*
X0361005Y0276406D03*
X0364470Y0276091D03*
X0364332Y0268818D03*
X0363230Y0266928D03*
X0362285Y0267558D03*
X0361025Y0267558D03*
X0361025Y0267716D03*
X0361025Y0267873D03*
X0361025Y0266771D03*
X0361025Y0266613D03*
X0361025Y0266456D03*
X0364332Y0265511D03*
X0363767Y0258268D03*
X0364870Y0256378D03*
X0366602Y0256378D03*
X0360145Y0258268D03*
X0353059Y0257638D03*
X0353059Y0257481D03*
X0355178Y0247981D03*
X0355178Y0247823D03*
X0355178Y0247666D03*
X0355178Y0246563D03*
X0355178Y0246406D03*
X0356438Y0247351D03*
X0356438Y0247508D03*
X0357383Y0246878D03*
X0357383Y0246721D03*
X0358643Y0248138D03*
X0360218Y0247823D03*
X0361950Y0248610D03*
X0364312Y0248453D03*
X0364470Y0248138D03*
X0353624Y0268031D03*
X0353624Y0268188D03*
X0354234Y0276878D03*
X0353289Y0277508D03*
X0348407Y0278296D03*
X0341060Y0218968D03*
X0350385Y0213503D03*
X0350305Y0203820D03*
X0311600Y0219298D03*
X0269412Y0169275D03*
X0269570Y0168645D03*
X0267995Y0167228D03*
X0267995Y0167071D03*
X0266893Y0167701D03*
X0265475Y0167701D03*
X0265475Y0167858D03*
X0265475Y0168016D03*
X0265475Y0168173D03*
X0265475Y0167543D03*
X0265475Y0167386D03*
X0265475Y0167228D03*
X0265475Y0167071D03*
X0265475Y0166913D03*
X0261538Y0166283D03*
X0261538Y0166126D03*
X0261538Y0168645D03*
X0261538Y0168803D03*
X0269570Y0166283D03*
X0269412Y0165653D03*
X0250905Y0154280D03*
X0242327Y0167141D03*
X0241382Y0168086D03*
X0240437Y0167298D03*
X0240437Y0167141D03*
X0238862Y0168873D03*
X0239020Y0169503D03*
X0234768Y0169503D03*
X0234768Y0168873D03*
X0231146Y0168558D03*
X0231146Y0168400D03*
X0231146Y0168243D03*
X0231146Y0168086D03*
X0231146Y0167928D03*
X0231146Y0167771D03*
X0231146Y0167613D03*
X0231146Y0166196D03*
X0231146Y0166038D03*
X0231146Y0165881D03*
X0231146Y0165723D03*
X0229729Y0167456D03*
X0229729Y0167613D03*
X0229729Y0167771D03*
X0229729Y0167928D03*
X0213415Y0167208D03*
X0212312Y0167996D03*
X0211367Y0167208D03*
X0209950Y0168783D03*
X0209950Y0168940D03*
X0209950Y0169413D03*
X0205698Y0169413D03*
X0205698Y0168940D03*
X0205698Y0168783D03*
X0200029Y0167366D03*
X0190915Y0154120D03*
X0179410Y0165623D03*
X0179410Y0165781D03*
X0179410Y0165938D03*
X0179410Y0166096D03*
X0179410Y0166253D03*
X0177992Y0167198D03*
X0176733Y0167671D03*
X0175315Y0167671D03*
X0175315Y0167828D03*
X0175315Y0167986D03*
X0175315Y0168143D03*
X0175315Y0167356D03*
X0175315Y0167198D03*
X0175315Y0167041D03*
X0175315Y0166883D03*
X0175315Y0166726D03*
X0179410Y0168773D03*
X0179410Y0168930D03*
X0179410Y0169088D03*
X0179410Y0169245D03*
X0215660Y0243108D03*
X0219552Y0251803D03*
X0219552Y0251961D03*
X0219552Y0252118D03*
X0219552Y0252276D03*
X0219552Y0252433D03*
X0219552Y0252591D03*
X0219552Y0252748D03*
X0219552Y0252906D03*
X0219552Y0253063D03*
X0223489Y0251016D03*
X0223489Y0250858D03*
X0223489Y0250701D03*
X0223489Y0250543D03*
X0225694Y0252276D03*
X0232938Y0253693D03*
X0237032Y0253693D03*
X0237190Y0254323D03*
X0238450Y0252276D03*
X0238450Y0252118D03*
X0239552Y0252906D03*
X0240497Y0252118D03*
X0240497Y0251961D03*
X0242610Y0242898D03*
X0183060Y0270963D03*
X0183060Y0271121D03*
X0183060Y0271278D03*
X0183060Y0271436D03*
X0183060Y0271593D03*
X0181642Y0272538D03*
X0180383Y0273011D03*
X0178965Y0273011D03*
X0178965Y0273168D03*
X0178965Y0273326D03*
X0178965Y0273483D03*
X0178965Y0273640D03*
X0178965Y0272696D03*
X0178965Y0272538D03*
X0178965Y0272381D03*
X0178965Y0272223D03*
X0178965Y0272066D03*
X0183060Y0273955D03*
X0183060Y0274113D03*
X0183060Y0274270D03*
X0183060Y0274428D03*
X0183060Y0274585D03*
X0183060Y0274743D03*
X0172194Y0274585D03*
X0172194Y0274428D03*
X0172194Y0274270D03*
X0172194Y0274113D03*
X0172194Y0273955D03*
X0172194Y0273798D03*
X0172194Y0273640D03*
X0172194Y0273483D03*
X0172194Y0273326D03*
X0172194Y0273168D03*
X0172194Y0273011D03*
X0172194Y0272853D03*
X0172194Y0272696D03*
X0172194Y0272538D03*
X0172194Y0272381D03*
X0172194Y0272223D03*
X0172194Y0272066D03*
X0172194Y0271908D03*
X0172194Y0271751D03*
X0172194Y0271593D03*
X0172194Y0271436D03*
X0172194Y0271278D03*
X0172194Y0271121D03*
X0172194Y0270963D03*
X0170776Y0272538D03*
X0169516Y0273011D03*
X0168099Y0274113D03*
X0168257Y0274743D03*
X0168959Y0286516D03*
X0168959Y0286673D03*
X0171164Y0287776D03*
X0165022Y0287303D03*
X0165022Y0287146D03*
X0165022Y0286988D03*
X0165022Y0288563D03*
X0165022Y0288720D03*
X0178565Y0288720D03*
X0178565Y0288563D03*
X0178565Y0288406D03*
X0178565Y0287461D03*
X0178565Y0287303D03*
X0178565Y0287146D03*
X0179983Y0288091D03*
X0181242Y0287618D03*
X0182660Y0286673D03*
X0182660Y0286516D03*
X0182660Y0286358D03*
X0182660Y0286201D03*
X0182660Y0286043D03*
X0182660Y0289035D03*
X0182660Y0289193D03*
X0182660Y0289350D03*
X0182660Y0289508D03*
X0182660Y0289665D03*
X0182660Y0289823D03*
X0180503Y0322383D03*
X0180503Y0322541D03*
X0180345Y0322698D03*
X0180188Y0323643D03*
X0180188Y0323801D03*
X0180188Y0325218D03*
X0178770Y0324745D03*
X0177038Y0323171D03*
X0177038Y0323013D03*
X0177038Y0322856D03*
X0177038Y0322698D03*
X0177038Y0322541D03*
X0177038Y0322383D03*
X0170582Y0323486D03*
X0170582Y0323643D03*
X0170582Y0323801D03*
X0170582Y0323958D03*
X0168377Y0324430D03*
X0168377Y0323328D03*
X0168377Y0323171D03*
X0168377Y0323013D03*
X0168377Y0322856D03*
X0168377Y0322698D03*
X0168377Y0322541D03*
X0168377Y0322383D03*
X0184282Y0324903D03*
X0184282Y0325060D03*
X0184282Y0325218D03*
X0184282Y0325375D03*
X0184282Y0325533D03*
X0223067Y0296020D03*
X0223067Y0295863D03*
X0223067Y0295706D03*
X0223067Y0294761D03*
X0223067Y0294603D03*
X0223067Y0294446D03*
X0227004Y0293816D03*
X0227004Y0293658D03*
X0227004Y0293501D03*
X0227004Y0293343D03*
X0229209Y0295076D03*
X0236925Y0295076D03*
X0236925Y0295233D03*
X0236925Y0295391D03*
X0236925Y0295548D03*
X0236925Y0295706D03*
X0236925Y0295863D03*
X0236925Y0296020D03*
X0236925Y0296178D03*
X0236925Y0296335D03*
X0236925Y0296493D03*
X0236925Y0296650D03*
X0236925Y0296808D03*
X0236925Y0296965D03*
X0236925Y0294918D03*
X0236925Y0294761D03*
X0236925Y0294603D03*
X0236925Y0294446D03*
X0238342Y0294918D03*
X0238342Y0295076D03*
X0239445Y0295706D03*
X0240390Y0294918D03*
X0240390Y0294761D03*
X0241807Y0294761D03*
X0241807Y0294918D03*
X0241807Y0295076D03*
X0241807Y0295233D03*
X0241807Y0295391D03*
X0241807Y0295548D03*
X0241807Y0295706D03*
X0241807Y0295863D03*
X0241807Y0296020D03*
X0241807Y0296178D03*
X0241807Y0296335D03*
X0241807Y0296493D03*
X0241807Y0296650D03*
X0241807Y0296808D03*
X0241807Y0294603D03*
X0241807Y0294446D03*
X0241807Y0294288D03*
X0241807Y0294131D03*
X0241807Y0293973D03*
X0241807Y0293816D03*
X0241807Y0293658D03*
X0241807Y0293501D03*
D52*
X0228214Y0254323D03*
X0175501Y0272066D03*
X0175501Y0272223D03*
X0175501Y0273483D03*
X0163532Y0270963D03*
X0163375Y0271121D03*
X0163375Y0271278D03*
X0308647Y0304166D03*
X0358875Y0336996D03*
X0358718Y0337311D03*
X0346852Y0267243D03*
X0346852Y0267086D03*
X0346445Y0256378D03*
D53*
X0308706Y0303358D03*
X0308706Y0303910D03*
X0308706Y0304028D03*
D54*
X0310123Y0302886D03*
X0312013Y0303831D03*
X0313667Y0303831D03*
X0250615Y0284905D03*
X0249670Y0272188D03*
X0230275Y0273589D03*
X0228976Y0272762D03*
X0227677Y0273589D03*
X0231704Y0287789D03*
D55*
X0308765Y0303477D03*
X0308765Y0303555D03*
X0308765Y0303831D03*
D56*
X0312072Y0303693D03*
X0244784Y0287050D03*
X0238124Y0285316D03*
X0235880Y0285316D03*
X0235880Y0288150D03*
X0218644Y0273151D03*
X0216400Y0273151D03*
X0218644Y0270317D03*
X0230216Y0270617D03*
D57*
X0308765Y0303693D03*
D58*
X0311836Y0303555D03*
X0249965Y0287306D03*
X0230818Y0284679D03*
X0248784Y0269078D03*
D59*
X0245906Y0284078D03*
X0250615Y0285023D03*
X0230275Y0270479D03*
X0227677Y0270479D03*
X0311777Y0303358D03*
X0311777Y0303477D03*
D60*
X0311777Y0303221D03*
D61*
X0308706Y0303221D03*
D62*
X0308647Y0303083D03*
D63*
X0307997Y0302965D03*
X0312604Y0302532D03*
X0245906Y0286440D03*
X0245906Y0286361D03*
D64*
X0312426Y0302276D03*
D65*
X0312367Y0302138D03*
X0228976Y0271896D03*
D66*
X0311895Y0302020D03*
D67*
X0311895Y0301705D03*
D68*
X0311895Y0301587D03*
D69*
X0350329Y0296351D03*
X0352691Y0297453D03*
X0352691Y0297611D03*
X0356313Y0297611D03*
X0356313Y0297453D03*
X0356943Y0299185D03*
X0360093Y0295406D03*
X0363872Y0295721D03*
X0363872Y0297611D03*
X0363872Y0298555D03*
X0363872Y0299185D03*
X0364957Y0306431D03*
X0363382Y0308478D03*
X0363382Y0309265D03*
X0360705Y0308163D03*
X0361493Y0306746D03*
X0361493Y0306588D03*
X0359130Y0305486D03*
X0364095Y0316786D03*
X0365827Y0316786D03*
X0365107Y0326641D03*
X0363532Y0328688D03*
X0363532Y0329475D03*
X0360855Y0328373D03*
X0361643Y0326956D03*
X0361643Y0326798D03*
X0359280Y0325696D03*
X0365805Y0336681D03*
X0364230Y0338885D03*
X0363152Y0289385D03*
X0363152Y0288598D03*
X0361263Y0286866D03*
X0361263Y0286708D03*
X0360475Y0288283D03*
X0358900Y0285606D03*
X0364727Y0286551D03*
X0362423Y0277823D03*
X0363052Y0276406D03*
X0360848Y0275933D03*
X0359115Y0276248D03*
X0359115Y0277981D03*
X0360848Y0278296D03*
X0354076Y0276406D03*
X0353446Y0277823D03*
X0353446Y0277981D03*
X0348249Y0278610D03*
X0353624Y0268503D03*
X0353466Y0267086D03*
X0355198Y0267243D03*
X0355198Y0268031D03*
X0355198Y0266298D03*
X0355198Y0266141D03*
X0359135Y0266298D03*
X0359135Y0268031D03*
X0360868Y0268346D03*
X0362443Y0268031D03*
X0362443Y0267873D03*
X0363072Y0266456D03*
X0364647Y0266928D03*
X0364647Y0267086D03*
X0364647Y0267243D03*
X0364647Y0267401D03*
X0360868Y0265983D03*
X0354634Y0257481D03*
X0354634Y0256693D03*
X0354634Y0255748D03*
X0354634Y0255591D03*
X0352901Y0256536D03*
X0353059Y0257953D03*
X0355021Y0248296D03*
X0356596Y0247823D03*
X0357226Y0246406D03*
X0358800Y0247666D03*
X0360218Y0248138D03*
X0363052Y0247981D03*
X0363052Y0246248D03*
X0355021Y0245933D03*
X0353289Y0246248D03*
X0353289Y0247981D03*
X0365027Y0255906D03*
X0366445Y0255906D03*
X0342162Y0220543D03*
X0348967Y0213346D03*
X0351014Y0212558D03*
X0350305Y0203663D03*
X0350305Y0201301D03*
X0350305Y0201143D03*
X0332172Y0221381D03*
X0321517Y0223183D03*
X0321517Y0219246D03*
X0311600Y0223550D03*
X0242610Y0247150D03*
X0240340Y0251646D03*
X0239552Y0253063D03*
X0238607Y0251803D03*
X0233630Y0246863D03*
X0233630Y0242926D03*
X0225662Y0245341D03*
X0223647Y0251488D03*
X0223647Y0251646D03*
X0221914Y0251331D03*
X0219710Y0251331D03*
X0219710Y0251173D03*
X0219710Y0253535D03*
X0216762Y0244683D03*
X0181485Y0272066D03*
X0181485Y0272223D03*
X0180540Y0273483D03*
X0178808Y0274113D03*
X0178808Y0271593D03*
X0172194Y0270806D03*
X0170619Y0272066D03*
X0169674Y0273326D03*
X0169674Y0273483D03*
X0168959Y0285886D03*
X0169116Y0287146D03*
X0169116Y0287303D03*
X0165179Y0286673D03*
X0165179Y0289193D03*
X0176361Y0286831D03*
X0178408Y0286673D03*
X0178408Y0286516D03*
X0178408Y0289193D03*
X0180140Y0288563D03*
X0181085Y0287303D03*
X0181085Y0287146D03*
X0223224Y0293973D03*
X0225429Y0294131D03*
X0227161Y0294288D03*
X0227161Y0294446D03*
X0227004Y0293186D03*
X0223224Y0296493D03*
X0234878Y0294131D03*
X0236768Y0293973D03*
X0236768Y0293816D03*
X0238500Y0294603D03*
X0239445Y0295863D03*
X0240232Y0294446D03*
X0182235Y0322541D03*
X0180503Y0322068D03*
X0180030Y0323486D03*
X0178770Y0322541D03*
X0177196Y0321911D03*
X0177196Y0323643D03*
X0177196Y0324903D03*
X0177196Y0325060D03*
X0177196Y0325218D03*
X0168534Y0325218D03*
X0168534Y0325060D03*
X0168534Y0323801D03*
X0168534Y0321911D03*
X0175158Y0168773D03*
X0175158Y0168615D03*
X0176890Y0168143D03*
X0176890Y0167986D03*
X0177835Y0166883D03*
X0177835Y0166726D03*
X0179410Y0165466D03*
X0175158Y0166253D03*
X0171693Y0168300D03*
X0180777Y0154923D03*
X0179202Y0150986D03*
X0190915Y0151443D03*
X0190915Y0151601D03*
X0190915Y0153963D03*
X0200697Y0154903D03*
X0200697Y0150966D03*
X0212282Y0152931D03*
X0211525Y0166736D03*
X0213257Y0166736D03*
X0213257Y0166893D03*
X0202076Y0166578D03*
X0231146Y0165566D03*
X0231303Y0166826D03*
X0231303Y0166983D03*
X0231303Y0167141D03*
X0231303Y0169030D03*
X0240595Y0166826D03*
X0242170Y0166826D03*
X0241382Y0168243D03*
X0242162Y0152901D03*
X0250905Y0151761D03*
X0250905Y0151603D03*
X0250905Y0154123D03*
X0259322Y0151136D03*
X0260897Y0155073D03*
X0261696Y0165653D03*
X0261538Y0166441D03*
X0261381Y0169118D03*
X0265318Y0168645D03*
X0267050Y0168173D03*
X0267838Y0166756D03*
X0265318Y0166441D03*
X0265318Y0166283D03*
X0230847Y0154633D03*
X0230847Y0150696D03*
D70*
X0240902Y0152271D03*
X0241060Y0152113D03*
X0238233Y0165881D03*
X0238233Y0166038D03*
X0238233Y0166196D03*
X0238233Y0166353D03*
X0238233Y0166511D03*
X0238233Y0166668D03*
X0238233Y0166826D03*
X0238233Y0166983D03*
X0238233Y0167141D03*
X0238233Y0167298D03*
X0238233Y0167456D03*
X0238233Y0167613D03*
X0238233Y0167771D03*
X0238233Y0167928D03*
X0238233Y0168086D03*
X0238233Y0168243D03*
X0238233Y0168400D03*
X0238233Y0168558D03*
X0238233Y0168715D03*
X0241382Y0168873D03*
X0244532Y0168873D03*
X0244532Y0169030D03*
X0244532Y0169188D03*
X0244532Y0169345D03*
X0244532Y0168715D03*
X0244532Y0168558D03*
X0244532Y0168400D03*
X0244532Y0168243D03*
X0244532Y0168086D03*
X0244532Y0167928D03*
X0244532Y0167771D03*
X0244532Y0167613D03*
X0244532Y0167456D03*
X0244532Y0167298D03*
X0244532Y0167141D03*
X0244532Y0166983D03*
X0244532Y0166826D03*
X0244532Y0166668D03*
X0244532Y0166511D03*
X0244532Y0166353D03*
X0244532Y0166196D03*
X0244532Y0166038D03*
X0244532Y0165881D03*
X0257444Y0165653D03*
X0257444Y0165496D03*
X0257444Y0166126D03*
X0257444Y0166283D03*
X0257444Y0168016D03*
X0257444Y0168173D03*
X0261538Y0169433D03*
X0263113Y0168330D03*
X0264845Y0169433D03*
X0267523Y0165653D03*
X0273822Y0165811D03*
X0273822Y0165968D03*
X0273822Y0166126D03*
X0273822Y0166283D03*
X0273822Y0166441D03*
X0273822Y0166598D03*
X0273822Y0166756D03*
X0273822Y0166913D03*
X0273822Y0167071D03*
X0273822Y0167228D03*
X0273822Y0167386D03*
X0273822Y0167543D03*
X0273822Y0167701D03*
X0273822Y0167858D03*
X0273822Y0168016D03*
X0273822Y0168173D03*
X0273822Y0168330D03*
X0273822Y0168488D03*
X0273822Y0168645D03*
X0273822Y0168803D03*
X0273822Y0168960D03*
X0273822Y0169118D03*
X0269752Y0153548D03*
X0269752Y0153391D03*
X0269752Y0153233D03*
X0269752Y0153076D03*
X0269595Y0152918D03*
X0260897Y0154128D03*
X0260897Y0154285D03*
X0226894Y0166353D03*
X0226894Y0166511D03*
X0226894Y0166668D03*
X0226894Y0166826D03*
X0226894Y0166983D03*
X0226894Y0167141D03*
X0226894Y0167298D03*
X0226894Y0168400D03*
X0215462Y0168468D03*
X0215462Y0168625D03*
X0215462Y0168783D03*
X0215462Y0168940D03*
X0215462Y0169098D03*
X0215462Y0169255D03*
X0215462Y0169413D03*
X0215462Y0168310D03*
X0215462Y0168153D03*
X0215462Y0167996D03*
X0215462Y0167838D03*
X0215462Y0167681D03*
X0215462Y0167523D03*
X0215462Y0167366D03*
X0215462Y0167208D03*
X0215462Y0167051D03*
X0215462Y0166893D03*
X0215462Y0166736D03*
X0215462Y0166578D03*
X0215462Y0166421D03*
X0215462Y0166263D03*
X0215462Y0166106D03*
X0215462Y0165948D03*
X0215462Y0165791D03*
X0215462Y0165633D03*
X0201604Y0168625D03*
X0201604Y0168783D03*
X0200029Y0166106D03*
X0197194Y0166106D03*
X0197194Y0166263D03*
X0183662Y0166253D03*
X0183662Y0166096D03*
X0183662Y0165938D03*
X0183662Y0165781D03*
X0183662Y0165623D03*
X0183662Y0166411D03*
X0183662Y0166568D03*
X0183662Y0166726D03*
X0183662Y0166883D03*
X0183662Y0167041D03*
X0183662Y0167198D03*
X0183662Y0167356D03*
X0183662Y0167513D03*
X0183662Y0167671D03*
X0183662Y0167828D03*
X0183662Y0167986D03*
X0183662Y0168143D03*
X0183662Y0168300D03*
X0183662Y0168458D03*
X0183662Y0168615D03*
X0183662Y0168773D03*
X0183662Y0168930D03*
X0183662Y0169088D03*
X0183662Y0169245D03*
X0177363Y0169245D03*
X0177363Y0169403D03*
X0177363Y0165623D03*
X0171221Y0165623D03*
X0168544Y0165623D03*
X0168544Y0165781D03*
X0168544Y0165938D03*
X0168544Y0166096D03*
X0168544Y0166253D03*
X0168544Y0166411D03*
X0168544Y0166568D03*
X0168544Y0166726D03*
X0168544Y0166883D03*
X0168544Y0167041D03*
X0168544Y0167198D03*
X0168544Y0167356D03*
X0168544Y0167513D03*
X0168544Y0167671D03*
X0168544Y0167828D03*
X0168544Y0167986D03*
X0168544Y0168143D03*
X0168544Y0168300D03*
X0168544Y0168458D03*
X0168544Y0168615D03*
X0168544Y0168773D03*
X0168544Y0168930D03*
X0168544Y0169088D03*
X0168544Y0169245D03*
X0170292Y0153178D03*
X0170292Y0153021D03*
X0170292Y0152863D03*
X0170292Y0152706D03*
X0170135Y0152548D03*
X0180777Y0153978D03*
X0180777Y0154135D03*
X0211022Y0152301D03*
X0211180Y0152143D03*
X0311600Y0223393D03*
X0330912Y0220751D03*
X0331070Y0220593D03*
X0340587Y0221016D03*
X0340745Y0221173D03*
X0340745Y0221331D03*
X0340587Y0221488D03*
X0341060Y0223063D03*
X0354706Y0245461D03*
X0354706Y0248768D03*
X0351241Y0250028D03*
X0350067Y0255118D03*
X0353216Y0258268D03*
X0356681Y0257796D03*
X0356681Y0257638D03*
X0356681Y0256536D03*
X0356681Y0256378D03*
X0356681Y0255906D03*
X0356681Y0255748D03*
X0360775Y0254961D03*
X0363137Y0254961D03*
X0368492Y0255118D03*
X0368492Y0255276D03*
X0368492Y0255433D03*
X0368492Y0255591D03*
X0368492Y0255748D03*
X0368492Y0255906D03*
X0368492Y0256063D03*
X0368492Y0256221D03*
X0368492Y0256378D03*
X0368492Y0256536D03*
X0368492Y0256693D03*
X0368492Y0256851D03*
X0368492Y0257008D03*
X0368492Y0257166D03*
X0368492Y0257323D03*
X0368492Y0257481D03*
X0368492Y0257638D03*
X0368492Y0257796D03*
X0368492Y0257953D03*
X0368492Y0258110D03*
X0368492Y0259055D03*
X0368492Y0259843D03*
X0368112Y0265668D03*
X0368112Y0265826D03*
X0368112Y0265983D03*
X0368112Y0266141D03*
X0368112Y0266298D03*
X0368112Y0266456D03*
X0368112Y0266613D03*
X0368112Y0266771D03*
X0368112Y0266928D03*
X0368112Y0267086D03*
X0368112Y0267243D03*
X0368112Y0267401D03*
X0368112Y0267558D03*
X0368112Y0267716D03*
X0368112Y0267873D03*
X0368112Y0268031D03*
X0368112Y0268188D03*
X0368112Y0268346D03*
X0368112Y0268503D03*
X0368112Y0268660D03*
X0368112Y0269605D03*
X0368112Y0270393D03*
X0368092Y0275461D03*
X0368092Y0275618D03*
X0368092Y0275776D03*
X0368092Y0275933D03*
X0368092Y0276091D03*
X0368092Y0276248D03*
X0368092Y0276406D03*
X0368092Y0276563D03*
X0368092Y0276721D03*
X0368092Y0276878D03*
X0368092Y0277036D03*
X0368092Y0277193D03*
X0368092Y0277351D03*
X0368092Y0277508D03*
X0368092Y0277666D03*
X0368092Y0277823D03*
X0368092Y0277981D03*
X0368092Y0278138D03*
X0368092Y0278296D03*
X0368092Y0278453D03*
X0368092Y0278610D03*
X0360533Y0278768D03*
X0360533Y0275461D03*
X0357226Y0276248D03*
X0357226Y0277981D03*
X0351399Y0275461D03*
X0349037Y0277351D03*
X0349037Y0277508D03*
X0349037Y0277666D03*
X0349037Y0277823D03*
X0349037Y0277981D03*
X0349037Y0278138D03*
X0346852Y0269920D03*
X0350632Y0268031D03*
X0350632Y0267401D03*
X0350632Y0265668D03*
X0353781Y0268818D03*
X0357246Y0268031D03*
X0357246Y0266298D03*
X0357246Y0265668D03*
X0346287Y0259370D03*
X0359115Y0245461D03*
X0362108Y0247508D03*
X0364312Y0246878D03*
X0368249Y0249555D03*
X0368249Y0250343D03*
X0360948Y0285763D03*
X0354176Y0287023D03*
X0354176Y0287181D03*
X0354176Y0287338D03*
X0354176Y0287496D03*
X0354176Y0287653D03*
X0354176Y0287811D03*
X0354176Y0287968D03*
X0354176Y0288126D03*
X0354176Y0288283D03*
X0355841Y0295563D03*
X0355841Y0295721D03*
X0352849Y0296193D03*
X0354423Y0298555D03*
X0350329Y0298083D03*
X0354406Y0306903D03*
X0354406Y0307061D03*
X0354406Y0307218D03*
X0354406Y0307376D03*
X0354406Y0307533D03*
X0354406Y0307691D03*
X0354406Y0307848D03*
X0354406Y0308006D03*
X0354406Y0308163D03*
X0361178Y0305643D03*
X0367949Y0307061D03*
X0367949Y0307218D03*
X0367949Y0307376D03*
X0367949Y0307533D03*
X0367949Y0307691D03*
X0367949Y0307848D03*
X0367949Y0308006D03*
X0361328Y0325853D03*
X0354556Y0327113D03*
X0354556Y0327271D03*
X0354556Y0327428D03*
X0354556Y0327586D03*
X0354556Y0327743D03*
X0354556Y0327901D03*
X0354556Y0328058D03*
X0354556Y0328216D03*
X0354556Y0328373D03*
X0363600Y0336523D03*
X0361868Y0338885D03*
X0367852Y0338255D03*
X0367852Y0338098D03*
X0367852Y0337941D03*
X0367852Y0337783D03*
X0367852Y0337626D03*
X0367852Y0337468D03*
X0367852Y0336523D03*
X0367852Y0336208D03*
X0367852Y0336051D03*
X0368099Y0328216D03*
X0368099Y0328058D03*
X0368099Y0327901D03*
X0368099Y0327743D03*
X0368099Y0327586D03*
X0368099Y0327428D03*
X0368099Y0327271D03*
X0367719Y0288126D03*
X0367719Y0287968D03*
X0367719Y0287811D03*
X0367719Y0287653D03*
X0367719Y0287496D03*
X0367719Y0287338D03*
X0367719Y0287181D03*
X0244012Y0293501D03*
X0244012Y0293658D03*
X0244012Y0293816D03*
X0244012Y0293973D03*
X0244012Y0294131D03*
X0244012Y0294288D03*
X0244012Y0294446D03*
X0244012Y0294603D03*
X0244012Y0294761D03*
X0244012Y0294918D03*
X0244012Y0295076D03*
X0244012Y0295233D03*
X0244012Y0295391D03*
X0244012Y0295548D03*
X0244012Y0295706D03*
X0244012Y0295863D03*
X0244012Y0296020D03*
X0244012Y0296178D03*
X0244012Y0296335D03*
X0244012Y0296493D03*
X0244012Y0296650D03*
X0244012Y0296808D03*
X0244012Y0296965D03*
X0239445Y0296493D03*
X0236453Y0293186D03*
X0234878Y0294761D03*
X0234878Y0294918D03*
X0234878Y0295076D03*
X0234878Y0295233D03*
X0234878Y0295391D03*
X0234878Y0295548D03*
X0234878Y0295706D03*
X0234878Y0295863D03*
X0234878Y0296020D03*
X0234878Y0296178D03*
X0234878Y0296335D03*
X0234878Y0296493D03*
X0234878Y0296650D03*
X0234878Y0296808D03*
X0234878Y0296965D03*
X0234878Y0297123D03*
X0229209Y0293816D03*
X0227634Y0296335D03*
X0227634Y0296493D03*
X0223697Y0297123D03*
X0187312Y0274585D03*
X0187312Y0274428D03*
X0187312Y0274270D03*
X0187312Y0274113D03*
X0187312Y0273955D03*
X0187312Y0273798D03*
X0187312Y0273640D03*
X0187312Y0273483D03*
X0187312Y0273326D03*
X0187312Y0273168D03*
X0187312Y0273011D03*
X0187312Y0272853D03*
X0187312Y0272696D03*
X0187312Y0272538D03*
X0187312Y0272381D03*
X0187312Y0272223D03*
X0187312Y0272066D03*
X0187312Y0271908D03*
X0187312Y0271751D03*
X0187312Y0271593D03*
X0187312Y0271436D03*
X0187312Y0271278D03*
X0187312Y0271121D03*
X0187312Y0270963D03*
X0181013Y0270963D03*
X0181013Y0274743D03*
X0170146Y0274743D03*
X0170146Y0274585D03*
X0167469Y0273955D03*
X0167469Y0273798D03*
X0167469Y0273640D03*
X0167469Y0273483D03*
X0167469Y0273326D03*
X0167469Y0273168D03*
X0167469Y0273011D03*
X0167469Y0272853D03*
X0167469Y0272696D03*
X0167469Y0272538D03*
X0167469Y0272381D03*
X0167469Y0272223D03*
X0167469Y0272066D03*
X0167469Y0271908D03*
X0167469Y0271751D03*
X0167469Y0271593D03*
X0167469Y0271436D03*
X0167469Y0271278D03*
X0167469Y0271121D03*
X0171164Y0286516D03*
X0173998Y0286516D03*
X0173998Y0286358D03*
X0169589Y0289193D03*
X0169589Y0289350D03*
X0166912Y0288091D03*
X0166912Y0287933D03*
X0166912Y0287776D03*
X0180613Y0286043D03*
X0180613Y0289823D03*
X0179558Y0323171D03*
X0220182Y0254323D03*
X0224119Y0253693D03*
X0224119Y0253535D03*
X0225694Y0251016D03*
X0228686Y0250858D03*
X0233568Y0250858D03*
X0233568Y0250701D03*
X0233568Y0251016D03*
X0233568Y0251173D03*
X0233568Y0251331D03*
X0233568Y0251488D03*
X0233568Y0251646D03*
X0233568Y0251803D03*
X0233568Y0251961D03*
X0233568Y0252118D03*
X0233568Y0252276D03*
X0233568Y0252433D03*
X0233568Y0252591D03*
X0233568Y0252748D03*
X0233568Y0252906D03*
X0233568Y0253063D03*
X0233568Y0253220D03*
X0233568Y0253378D03*
X0233568Y0253535D03*
X0236403Y0253535D03*
X0236403Y0253378D03*
X0236403Y0253220D03*
X0236403Y0253063D03*
X0236403Y0252906D03*
X0236403Y0252748D03*
X0236403Y0252591D03*
X0236403Y0252433D03*
X0236403Y0252276D03*
X0236403Y0252118D03*
X0236403Y0251961D03*
X0236403Y0251803D03*
X0236403Y0251646D03*
X0236403Y0251488D03*
X0236403Y0251331D03*
X0236403Y0251173D03*
X0236403Y0251016D03*
X0236403Y0250858D03*
X0236403Y0250701D03*
X0239552Y0253693D03*
X0242610Y0246993D03*
X0224560Y0244553D03*
X0224402Y0244711D03*
X0215345Y0245313D03*
X0215345Y0245471D03*
X0215187Y0245628D03*
X0215187Y0245156D03*
X0215660Y0247203D03*
X0215300Y0250543D03*
X0215300Y0250701D03*
X0215300Y0250858D03*
X0215300Y0251016D03*
X0215300Y0252433D03*
X0215300Y0252591D03*
X0215300Y0252748D03*
X0215300Y0252906D03*
X0215300Y0253063D03*
X0215300Y0253220D03*
X0215300Y0253378D03*
D71*
X0215458Y0253850D03*
X0215458Y0251961D03*
X0215458Y0251803D03*
X0215458Y0251646D03*
X0215660Y0247045D03*
X0215660Y0243423D03*
X0220182Y0250386D03*
X0225694Y0250701D03*
X0224277Y0254165D03*
X0233568Y0250386D03*
X0236403Y0250386D03*
X0239552Y0254008D03*
X0242610Y0246835D03*
X0242610Y0243213D03*
X0234102Y0245446D03*
X0234102Y0245603D03*
X0234102Y0245760D03*
X0234102Y0245918D03*
X0224560Y0246915D03*
X0181013Y0270806D03*
X0178335Y0270806D03*
X0174398Y0271121D03*
X0174398Y0271593D03*
X0174398Y0271751D03*
X0174398Y0273798D03*
X0174398Y0273955D03*
X0174398Y0274428D03*
X0167469Y0270806D03*
X0165652Y0285886D03*
X0171164Y0286201D03*
X0173998Y0286673D03*
X0173998Y0286831D03*
X0169746Y0289823D03*
X0180613Y0285886D03*
X0186912Y0285886D03*
X0186912Y0289823D03*
X0223697Y0293186D03*
X0229209Y0293501D03*
X0227791Y0296965D03*
X0239445Y0296808D03*
X0180503Y0321596D03*
X0177826Y0324116D03*
X0172786Y0324745D03*
X0311600Y0223235D03*
X0311600Y0219613D03*
X0321989Y0221766D03*
X0321989Y0221923D03*
X0321989Y0222080D03*
X0321989Y0222238D03*
X0331070Y0222955D03*
X0341060Y0222905D03*
X0341060Y0219283D03*
X0351399Y0245618D03*
X0351084Y0245933D03*
X0351084Y0249713D03*
X0356838Y0258110D03*
X0346287Y0259213D03*
X0362423Y0247823D03*
X0365415Y0246091D03*
X0368092Y0248768D03*
X0365277Y0266298D03*
X0365277Y0268031D03*
X0348879Y0277036D03*
X0347619Y0279870D03*
X0354333Y0286393D03*
X0354333Y0286551D03*
X0354333Y0288755D03*
X0355841Y0295406D03*
X0352849Y0296036D03*
X0350329Y0296981D03*
X0350329Y0297138D03*
X0350329Y0297611D03*
X0350329Y0297768D03*
X0354563Y0306273D03*
X0354563Y0306431D03*
X0354563Y0308635D03*
X0353859Y0315683D03*
X0354713Y0326483D03*
X0354713Y0326641D03*
X0354713Y0328845D03*
X0363600Y0336208D03*
X0364860Y0338728D03*
X0367694Y0339515D03*
X0367694Y0339673D03*
X0367694Y0337311D03*
X0367694Y0336838D03*
X0367694Y0335893D03*
X0367942Y0328845D03*
X0367942Y0326641D03*
X0367942Y0326483D03*
X0368032Y0315526D03*
X0367792Y0308635D03*
X0367792Y0306431D03*
X0367792Y0306273D03*
X0367652Y0299028D03*
X0367652Y0298870D03*
X0367652Y0297768D03*
X0367652Y0297611D03*
X0367652Y0296666D03*
X0367652Y0295878D03*
X0367652Y0295721D03*
X0367562Y0288755D03*
X0367562Y0286551D03*
X0367562Y0286393D03*
X0267523Y0165496D03*
X0264845Y0165496D03*
X0257601Y0167228D03*
X0257601Y0167386D03*
X0257601Y0168803D03*
X0257601Y0168960D03*
X0241382Y0169188D03*
X0238233Y0165566D03*
X0227051Y0165881D03*
X0227051Y0167771D03*
X0227051Y0169030D03*
X0227051Y0169188D03*
X0231319Y0153688D03*
X0231319Y0153530D03*
X0231319Y0153373D03*
X0231319Y0153216D03*
X0241060Y0154475D03*
X0260897Y0153813D03*
X0211180Y0154505D03*
X0201169Y0153958D03*
X0201169Y0153800D03*
X0201169Y0153643D03*
X0201169Y0153486D03*
X0200029Y0165791D03*
X0197352Y0166736D03*
X0197352Y0166893D03*
X0201604Y0168940D03*
X0180777Y0153663D03*
X0177363Y0165466D03*
X0174685Y0165466D03*
X0171221Y0169403D03*
D72*
X0180777Y0153348D03*
X0190915Y0153176D03*
X0200029Y0165476D03*
X0197509Y0167366D03*
X0197509Y0167523D03*
X0212312Y0169255D03*
X0211180Y0154348D03*
X0241060Y0154318D03*
X0250905Y0153336D03*
X0260897Y0153498D03*
X0270697Y0151186D03*
X0257759Y0166913D03*
X0257759Y0169275D03*
X0241382Y0169345D03*
X0241382Y0166511D03*
X0241382Y0166353D03*
X0241382Y0166196D03*
X0241382Y0166038D03*
X0241382Y0165881D03*
X0171237Y0150816D03*
X0242610Y0243371D03*
X0242610Y0243528D03*
X0242610Y0246678D03*
X0239552Y0254165D03*
X0225694Y0250386D03*
X0224560Y0246758D03*
X0215660Y0246888D03*
X0215615Y0254165D03*
X0236061Y0270588D03*
X0236179Y0272478D03*
X0236179Y0272950D03*
X0249847Y0284688D03*
X0239445Y0296965D03*
X0232516Y0293501D03*
X0232043Y0294446D03*
X0231886Y0294761D03*
X0231886Y0294918D03*
X0229209Y0293186D03*
X0218563Y0287379D03*
X0218445Y0285489D03*
X0218445Y0285017D03*
X0174556Y0273640D03*
X0171164Y0285886D03*
X0173998Y0286988D03*
X0177983Y0324273D03*
X0177983Y0324430D03*
X0311600Y0223078D03*
X0311600Y0219928D03*
X0311600Y0219771D03*
X0331070Y0222798D03*
X0341060Y0222748D03*
X0350305Y0202876D03*
X0365257Y0245776D03*
X0364155Y0246721D03*
X0351084Y0249555D03*
X0346287Y0259055D03*
X0350946Y0267558D03*
X0346852Y0269605D03*
X0348722Y0276721D03*
X0347462Y0280185D03*
X0354491Y0286078D03*
X0354491Y0289070D03*
X0367404Y0286078D03*
X0367494Y0295563D03*
X0367494Y0297296D03*
X0364660Y0298240D03*
X0367634Y0305958D03*
X0354721Y0305958D03*
X0354721Y0308950D03*
X0353701Y0315998D03*
X0354871Y0326168D03*
X0354871Y0329160D03*
X0363600Y0335893D03*
X0359190Y0339830D03*
X0367784Y0326168D03*
X0351746Y0299500D03*
X0357403Y0268818D03*
X0357403Y0265511D03*
D73*
X0356917Y0258268D03*
X0351005Y0246248D03*
X0365178Y0245618D03*
X0341138Y0219441D03*
X0331148Y0222640D03*
X0311678Y0222920D03*
X0242688Y0246520D03*
X0239473Y0250543D03*
X0239473Y0250701D03*
X0239473Y0250858D03*
X0239473Y0251016D03*
X0239473Y0251173D03*
X0239473Y0251331D03*
X0228607Y0251646D03*
X0228607Y0251803D03*
X0228450Y0252118D03*
X0228292Y0252433D03*
X0224638Y0246600D03*
X0215738Y0243581D03*
X0215694Y0254323D03*
X0184083Y0271751D03*
X0184083Y0273326D03*
X0174635Y0274743D03*
X0183683Y0286831D03*
X0183683Y0288406D03*
X0173022Y0323328D03*
X0173022Y0323486D03*
X0173022Y0323643D03*
X0173022Y0323801D03*
X0173022Y0323958D03*
X0231807Y0295233D03*
X0231807Y0295076D03*
X0239366Y0294131D03*
X0239366Y0293973D03*
X0239366Y0293816D03*
X0239366Y0293658D03*
X0239366Y0293501D03*
X0239366Y0293343D03*
X0348643Y0276563D03*
X0354570Y0285921D03*
X0354570Y0289228D03*
X0352770Y0295721D03*
X0354502Y0299343D03*
X0354800Y0305801D03*
X0354800Y0309108D03*
X0353622Y0316156D03*
X0364961Y0316156D03*
X0364961Y0316313D03*
X0364961Y0316471D03*
X0364961Y0315998D03*
X0364961Y0315841D03*
X0364961Y0315683D03*
X0364961Y0319305D03*
X0364961Y0319463D03*
X0367706Y0326011D03*
X0367706Y0329318D03*
X0354950Y0329318D03*
X0354950Y0326011D03*
X0358639Y0339200D03*
X0361946Y0339673D03*
X0367556Y0309108D03*
X0367556Y0305801D03*
X0367416Y0299343D03*
X0367326Y0289228D03*
X0367326Y0285921D03*
X0257837Y0169433D03*
X0270593Y0168488D03*
X0270593Y0168330D03*
X0270593Y0168173D03*
X0270593Y0168016D03*
X0270593Y0166913D03*
X0270593Y0166756D03*
X0270593Y0166598D03*
X0270593Y0166441D03*
X0241138Y0154160D03*
X0227288Y0165566D03*
X0227288Y0169503D03*
X0212391Y0169413D03*
X0212391Y0166421D03*
X0212391Y0166263D03*
X0212391Y0166106D03*
X0212391Y0165948D03*
X0212391Y0165791D03*
X0212391Y0165633D03*
X0201682Y0169255D03*
X0197588Y0167838D03*
X0197588Y0167681D03*
X0211258Y0154190D03*
D74*
X0211337Y0151671D03*
X0197666Y0167996D03*
X0197666Y0168153D03*
X0180512Y0168143D03*
X0180512Y0167986D03*
X0180512Y0168300D03*
X0180512Y0168458D03*
X0180512Y0166883D03*
X0180512Y0166726D03*
X0180512Y0166568D03*
X0180512Y0166411D03*
X0172638Y0168143D03*
X0171237Y0154753D03*
X0190915Y0153018D03*
X0190915Y0152861D03*
X0190915Y0152703D03*
X0190915Y0152546D03*
X0190915Y0152388D03*
X0241217Y0151641D03*
X0250905Y0152548D03*
X0250905Y0152706D03*
X0250905Y0152863D03*
X0250905Y0153021D03*
X0250905Y0153178D03*
X0257916Y0166756D03*
X0262798Y0168016D03*
X0262798Y0168173D03*
X0270697Y0155123D03*
X0241382Y0165566D03*
X0241382Y0165723D03*
X0241382Y0169503D03*
X0311600Y0220086D03*
X0311600Y0220243D03*
X0311600Y0222763D03*
X0331227Y0220121D03*
X0341060Y0219598D03*
X0341060Y0222433D03*
X0341060Y0222590D03*
X0349912Y0213188D03*
X0350305Y0202718D03*
X0350305Y0202561D03*
X0350305Y0202403D03*
X0350305Y0202246D03*
X0350305Y0202088D03*
X0350697Y0257166D03*
X0350697Y0257323D03*
X0348564Y0276406D03*
X0347462Y0280343D03*
X0354648Y0289385D03*
X0352691Y0295563D03*
X0361195Y0296351D03*
X0361195Y0296508D03*
X0361195Y0296666D03*
X0361195Y0296823D03*
X0361195Y0297926D03*
X0361195Y0298083D03*
X0361195Y0298240D03*
X0361195Y0298398D03*
X0367337Y0295406D03*
X0367247Y0289385D03*
X0367477Y0309265D03*
X0354878Y0309265D03*
X0355028Y0329475D03*
X0367627Y0329475D03*
X0358560Y0339043D03*
X0239445Y0297123D03*
X0231728Y0295548D03*
X0231728Y0295391D03*
X0232516Y0293343D03*
X0218185Y0293501D03*
X0183762Y0288878D03*
X0183762Y0288720D03*
X0183762Y0288563D03*
X0183762Y0287303D03*
X0183762Y0287146D03*
X0183762Y0286988D03*
X0174313Y0285886D03*
X0184162Y0273798D03*
X0184162Y0273640D03*
X0184162Y0273483D03*
X0184162Y0272223D03*
X0184162Y0272066D03*
X0184162Y0271908D03*
X0174713Y0270806D03*
X0162745Y0274743D03*
X0215660Y0246730D03*
X0215660Y0246573D03*
X0215660Y0243738D03*
X0224717Y0244081D03*
X0228529Y0251961D03*
X0228371Y0252276D03*
X0228214Y0252591D03*
X0228214Y0252748D03*
X0239552Y0254323D03*
X0242610Y0246363D03*
X0242610Y0243843D03*
X0242610Y0243686D03*
X0185385Y0322698D03*
X0185385Y0322856D03*
X0185385Y0323013D03*
X0185385Y0324116D03*
X0185385Y0324273D03*
X0185385Y0324430D03*
X0185385Y0324588D03*
X0173101Y0323171D03*
D75*
X0185306Y0322541D03*
X0185306Y0322383D03*
X0218264Y0293343D03*
X0218421Y0293186D03*
X0231650Y0295706D03*
X0231650Y0295863D03*
X0239366Y0293186D03*
X0228135Y0253063D03*
X0228135Y0252906D03*
X0224638Y0246443D03*
X0224638Y0246285D03*
X0224481Y0243136D03*
X0239473Y0250386D03*
X0242688Y0246205D03*
X0311678Y0222605D03*
X0331148Y0222483D03*
X0331148Y0222325D03*
X0330991Y0219176D03*
X0349991Y0212873D03*
X0351005Y0246406D03*
X0347153Y0254961D03*
X0347718Y0265511D03*
X0347561Y0265668D03*
X0351183Y0267716D03*
X0351183Y0267873D03*
X0348486Y0276248D03*
X0354727Y0285763D03*
X0364176Y0288440D03*
X0367168Y0285763D03*
X0367258Y0297138D03*
X0367258Y0299500D03*
X0367398Y0305643D03*
X0364406Y0308320D03*
X0364961Y0315526D03*
X0354095Y0319305D03*
X0353937Y0319148D03*
X0353780Y0318990D03*
X0353622Y0318833D03*
X0353622Y0316313D03*
X0355107Y0325853D03*
X0364556Y0328530D03*
X0367548Y0325853D03*
X0363679Y0335736D03*
X0361946Y0339830D03*
X0354957Y0305643D03*
X0354502Y0299500D03*
X0365178Y0245461D03*
X0257995Y0166598D03*
X0270618Y0154965D03*
X0270618Y0151343D03*
X0241138Y0153845D03*
X0241138Y0154003D03*
X0240981Y0150696D03*
X0211101Y0150726D03*
X0211258Y0153875D03*
X0211258Y0154033D03*
X0212391Y0165476D03*
X0201682Y0169413D03*
X0197745Y0168625D03*
X0197745Y0168468D03*
X0197745Y0168310D03*
X0172717Y0167986D03*
X0171158Y0154595D03*
X0171158Y0150973D03*
X0162666Y0274428D03*
X0162666Y0274585D03*
X0160061Y0286043D03*
D76*
X0165416Y0286201D03*
X0167148Y0286988D03*
X0167148Y0288720D03*
X0169353Y0288248D03*
X0169353Y0288091D03*
X0178172Y0286201D03*
X0180849Y0286516D03*
X0180849Y0286673D03*
X0180376Y0289193D03*
X0180776Y0274113D03*
X0181249Y0271593D03*
X0181249Y0271436D03*
X0178572Y0271121D03*
X0170383Y0271436D03*
X0169910Y0273955D03*
X0169910Y0274113D03*
X0214636Y0244683D03*
X0214793Y0244841D03*
X0216683Y0244211D03*
X0223693Y0245341D03*
X0223851Y0245183D03*
X0223693Y0246128D03*
X0221678Y0251646D03*
X0221678Y0253220D03*
X0219946Y0254008D03*
X0217741Y0253220D03*
X0217741Y0253063D03*
X0217741Y0252906D03*
X0217741Y0252748D03*
X0217741Y0250858D03*
X0217741Y0250701D03*
X0217741Y0250543D03*
X0219946Y0250701D03*
X0223883Y0252433D03*
X0223883Y0252591D03*
X0231127Y0252748D03*
X0231127Y0252906D03*
X0231127Y0253063D03*
X0231127Y0253220D03*
X0231127Y0250858D03*
X0231127Y0250701D03*
X0233708Y0246548D03*
X0241743Y0246048D03*
X0243476Y0246048D03*
X0243476Y0244001D03*
X0241743Y0244001D03*
X0236531Y0293343D03*
X0227398Y0295233D03*
X0227398Y0295391D03*
X0225193Y0296020D03*
X0223461Y0293501D03*
X0221256Y0293501D03*
X0221256Y0293658D03*
X0221256Y0295548D03*
X0221256Y0295706D03*
X0221256Y0295863D03*
X0221256Y0296020D03*
X0184676Y0323171D03*
X0182314Y0322856D03*
X0182314Y0322698D03*
X0178849Y0322856D03*
X0177432Y0321596D03*
X0170188Y0322698D03*
X0170188Y0322856D03*
X0170188Y0323013D03*
X0170188Y0323171D03*
X0168770Y0325533D03*
X0166566Y0324430D03*
X0166566Y0324273D03*
X0166566Y0324116D03*
X0166566Y0323958D03*
X0310733Y0222448D03*
X0312466Y0222448D03*
X0312466Y0220401D03*
X0310733Y0220401D03*
X0321596Y0222868D03*
X0330203Y0222168D03*
X0330203Y0221381D03*
X0330361Y0221223D03*
X0340036Y0220543D03*
X0340193Y0220701D03*
X0342083Y0220071D03*
X0350463Y0213346D03*
X0356989Y0245776D03*
X0359037Y0246878D03*
X0359037Y0247036D03*
X0360297Y0248453D03*
X0361556Y0247193D03*
X0361714Y0247351D03*
X0361241Y0246721D03*
X0361241Y0246563D03*
X0361241Y0246406D03*
X0361241Y0246248D03*
X0361241Y0246091D03*
X0364549Y0247036D03*
X0356832Y0248453D03*
X0356832Y0248610D03*
X0354785Y0248610D03*
X0353367Y0247823D03*
X0354555Y0254961D03*
X0352823Y0256378D03*
X0353137Y0258110D03*
X0349988Y0256536D03*
X0349988Y0255433D03*
X0349988Y0255276D03*
X0358649Y0254961D03*
X0365736Y0257638D03*
X0362836Y0265826D03*
X0360632Y0265668D03*
X0359057Y0267873D03*
X0360632Y0268660D03*
X0362679Y0268660D03*
X0362679Y0268503D03*
X0362816Y0275776D03*
X0362659Y0278453D03*
X0362659Y0278610D03*
X0360612Y0278610D03*
X0359194Y0277823D03*
X0353682Y0278453D03*
X0353682Y0278610D03*
X0353840Y0275776D03*
X0353702Y0268660D03*
X0353387Y0266928D03*
X0355120Y0265511D03*
X0350395Y0266141D03*
X0350395Y0266298D03*
X0350395Y0266456D03*
X0350395Y0266613D03*
X0350395Y0266771D03*
X0350395Y0266928D03*
X0356932Y0286866D03*
X0356932Y0288283D03*
X0360711Y0288913D03*
X0363231Y0289543D03*
X0364806Y0286708D03*
X0363231Y0285606D03*
X0361026Y0286078D03*
X0361026Y0286236D03*
X0358282Y0295563D03*
X0358282Y0295721D03*
X0358282Y0295878D03*
X0358282Y0297768D03*
X0358282Y0297926D03*
X0358282Y0298083D03*
X0358282Y0298240D03*
X0360486Y0296981D03*
X0364108Y0297768D03*
X0365526Y0296666D03*
X0354502Y0297926D03*
X0354502Y0298083D03*
X0350250Y0296508D03*
X0357162Y0306746D03*
X0357162Y0308163D03*
X0360941Y0308793D03*
X0363461Y0309423D03*
X0365036Y0306588D03*
X0363461Y0305486D03*
X0361256Y0305958D03*
X0361256Y0306116D03*
X0356457Y0315683D03*
X0356457Y0315841D03*
X0356457Y0318046D03*
X0356457Y0318203D03*
X0364961Y0318518D03*
X0363611Y0325696D03*
X0365186Y0326798D03*
X0363611Y0329633D03*
X0361091Y0329003D03*
X0361406Y0326326D03*
X0361406Y0326168D03*
X0357312Y0326956D03*
X0357312Y0328373D03*
X0363679Y0337153D03*
X0363679Y0337311D03*
X0363836Y0337468D03*
X0363836Y0337626D03*
X0363993Y0337783D03*
X0363993Y0337941D03*
X0361946Y0338255D03*
X0361946Y0338413D03*
X0261460Y0169275D03*
X0265082Y0169118D03*
X0267286Y0168803D03*
X0267601Y0166126D03*
X0265082Y0165811D03*
X0261775Y0165496D03*
X0260188Y0153341D03*
X0260188Y0153183D03*
X0260031Y0153026D03*
X0260031Y0152868D03*
X0259401Y0151608D03*
X0261763Y0152868D03*
X0261606Y0153183D03*
X0262393Y0151608D03*
X0269358Y0154178D03*
X0240351Y0152743D03*
X0240193Y0152901D03*
X0240193Y0153688D03*
X0230926Y0154318D03*
X0232957Y0165723D03*
X0232957Y0165881D03*
X0232957Y0166038D03*
X0232957Y0167928D03*
X0232957Y0168086D03*
X0232957Y0168243D03*
X0232957Y0168400D03*
X0231540Y0169503D03*
X0229335Y0167141D03*
X0229335Y0166983D03*
X0229335Y0166826D03*
X0229335Y0166668D03*
X0212391Y0168468D03*
X0203887Y0168310D03*
X0203887Y0168153D03*
X0203887Y0167996D03*
X0203887Y0167838D03*
X0203887Y0165948D03*
X0203887Y0165791D03*
X0203887Y0165633D03*
X0201682Y0167838D03*
X0201682Y0167996D03*
X0200776Y0154588D03*
X0210313Y0153718D03*
X0210313Y0152931D03*
X0210471Y0152773D03*
X0182273Y0151458D03*
X0181643Y0152718D03*
X0181486Y0153033D03*
X0180068Y0153033D03*
X0180068Y0153191D03*
X0179911Y0152876D03*
X0179911Y0152718D03*
X0179281Y0151458D03*
X0169898Y0153808D03*
X0170985Y0165938D03*
X0170985Y0166096D03*
X0171142Y0169088D03*
X0173032Y0168458D03*
X0174922Y0165781D03*
X0177599Y0166096D03*
X0177599Y0166253D03*
X0177126Y0168615D03*
X0177126Y0168773D03*
D77*
X0177048Y0168458D03*
X0177678Y0166411D03*
X0179725Y0167041D03*
X0179725Y0167198D03*
X0179725Y0167356D03*
X0179725Y0167513D03*
X0179725Y0167671D03*
X0179725Y0167828D03*
X0175000Y0169088D03*
X0175000Y0165938D03*
X0172024Y0153808D03*
X0172024Y0153650D03*
X0172024Y0153493D03*
X0172024Y0153336D03*
X0172024Y0153178D03*
X0172024Y0153021D03*
X0172024Y0152863D03*
X0172024Y0152706D03*
X0172024Y0152548D03*
X0172024Y0152391D03*
X0172024Y0152233D03*
X0172024Y0152076D03*
X0172024Y0151918D03*
X0169820Y0151918D03*
X0169820Y0152391D03*
X0169820Y0153493D03*
X0169820Y0153650D03*
X0179202Y0151301D03*
X0179202Y0151143D03*
X0179360Y0151616D03*
X0181565Y0152876D03*
X0181407Y0153191D03*
X0180777Y0154608D03*
X0180777Y0154765D03*
X0182194Y0151616D03*
X0182352Y0151301D03*
X0190915Y0151758D03*
X0190915Y0151916D03*
X0190915Y0152073D03*
X0190915Y0152231D03*
X0190915Y0153333D03*
X0190915Y0153491D03*
X0190915Y0153648D03*
X0190915Y0153806D03*
X0200697Y0153171D03*
X0200697Y0153013D03*
X0200697Y0152856D03*
X0200697Y0152698D03*
X0200697Y0152541D03*
X0200697Y0152383D03*
X0200697Y0152226D03*
X0200697Y0152068D03*
X0200697Y0151911D03*
X0200697Y0151753D03*
X0200697Y0151596D03*
X0200697Y0151438D03*
X0200697Y0151281D03*
X0200697Y0151123D03*
X0200697Y0154745D03*
X0210235Y0153560D03*
X0210235Y0153403D03*
X0210235Y0153246D03*
X0210235Y0153088D03*
X0212124Y0153718D03*
X0212282Y0153560D03*
X0212282Y0153403D03*
X0212282Y0153246D03*
X0212282Y0153088D03*
X0203966Y0166106D03*
X0203966Y0166263D03*
X0203966Y0167681D03*
X0202076Y0167051D03*
X0202076Y0166893D03*
X0201918Y0167208D03*
X0201918Y0167366D03*
X0201761Y0167523D03*
X0201761Y0167681D03*
X0229414Y0168243D03*
X0229414Y0168400D03*
X0229414Y0168558D03*
X0229414Y0166511D03*
X0231461Y0169345D03*
X0233036Y0167771D03*
X0233036Y0166353D03*
X0233036Y0166196D03*
X0241382Y0168558D03*
X0242004Y0153688D03*
X0242162Y0153530D03*
X0242162Y0153373D03*
X0242162Y0153216D03*
X0242162Y0153058D03*
X0240115Y0153058D03*
X0240115Y0153216D03*
X0240115Y0153373D03*
X0240115Y0153530D03*
X0250905Y0153493D03*
X0250905Y0153651D03*
X0250905Y0153808D03*
X0250905Y0153966D03*
X0250905Y0152391D03*
X0250905Y0152233D03*
X0250905Y0152076D03*
X0250905Y0151918D03*
X0259322Y0151451D03*
X0259322Y0151293D03*
X0259480Y0151766D03*
X0261685Y0153026D03*
X0261527Y0153341D03*
X0260897Y0154758D03*
X0260897Y0154915D03*
X0262314Y0151766D03*
X0262472Y0151451D03*
X0269280Y0152288D03*
X0269280Y0152761D03*
X0269280Y0153863D03*
X0269280Y0154020D03*
X0271484Y0154020D03*
X0271484Y0153863D03*
X0271484Y0153706D03*
X0271484Y0153548D03*
X0271484Y0153391D03*
X0271484Y0153233D03*
X0271484Y0153076D03*
X0271484Y0152918D03*
X0271484Y0152761D03*
X0271484Y0152603D03*
X0271484Y0152446D03*
X0271484Y0152288D03*
X0271484Y0154178D03*
X0267680Y0166283D03*
X0267208Y0168488D03*
X0267208Y0168645D03*
X0265160Y0168960D03*
X0263113Y0168488D03*
X0259963Y0168016D03*
X0259963Y0167858D03*
X0265160Y0165968D03*
X0269885Y0167071D03*
X0269885Y0167858D03*
X0230847Y0154475D03*
X0230847Y0152901D03*
X0230847Y0152743D03*
X0230847Y0152586D03*
X0230847Y0152428D03*
X0230847Y0152271D03*
X0230847Y0152113D03*
X0230847Y0151956D03*
X0230847Y0151798D03*
X0230847Y0151641D03*
X0230847Y0151483D03*
X0230847Y0151326D03*
X0230847Y0151168D03*
X0230847Y0151011D03*
X0230847Y0150853D03*
X0310655Y0220558D03*
X0310655Y0220716D03*
X0310497Y0221031D03*
X0310497Y0221188D03*
X0310497Y0221346D03*
X0310497Y0221503D03*
X0310497Y0221661D03*
X0310497Y0221818D03*
X0310655Y0222133D03*
X0310655Y0222290D03*
X0312544Y0222290D03*
X0312702Y0221976D03*
X0312702Y0221818D03*
X0312702Y0221661D03*
X0312702Y0221503D03*
X0312702Y0221346D03*
X0312702Y0221188D03*
X0312702Y0221031D03*
X0312702Y0220873D03*
X0312544Y0220716D03*
X0312544Y0220558D03*
X0321517Y0220506D03*
X0321517Y0220663D03*
X0321517Y0220821D03*
X0321517Y0220978D03*
X0321517Y0221136D03*
X0321517Y0221293D03*
X0321517Y0221451D03*
X0321517Y0220348D03*
X0321517Y0220191D03*
X0321517Y0220033D03*
X0321517Y0219876D03*
X0321517Y0219718D03*
X0321517Y0219561D03*
X0321517Y0219403D03*
X0321517Y0223025D03*
X0330125Y0222010D03*
X0330125Y0221853D03*
X0330125Y0221696D03*
X0330125Y0221538D03*
X0332014Y0222168D03*
X0332172Y0222010D03*
X0332172Y0221853D03*
X0332172Y0221696D03*
X0332172Y0221538D03*
X0339957Y0220386D03*
X0339957Y0220228D03*
X0340115Y0220071D03*
X0340115Y0221803D03*
X0340115Y0221960D03*
X0340115Y0222118D03*
X0341060Y0223220D03*
X0342004Y0222118D03*
X0342162Y0220386D03*
X0342162Y0220228D03*
X0350305Y0203506D03*
X0350305Y0203348D03*
X0350305Y0203191D03*
X0350305Y0203033D03*
X0350305Y0201931D03*
X0350305Y0201773D03*
X0350305Y0201616D03*
X0350305Y0201458D03*
X0354863Y0245618D03*
X0357068Y0245933D03*
X0358958Y0247193D03*
X0360218Y0248296D03*
X0361478Y0247036D03*
X0361320Y0246878D03*
X0364627Y0247193D03*
X0364785Y0247508D03*
X0356753Y0248296D03*
X0358728Y0255118D03*
X0358728Y0255276D03*
X0358728Y0256851D03*
X0358728Y0257008D03*
X0358728Y0257166D03*
X0358728Y0257323D03*
X0354476Y0257166D03*
X0354476Y0257008D03*
X0354476Y0255118D03*
X0349909Y0255591D03*
X0349909Y0255748D03*
X0349909Y0255906D03*
X0349909Y0256063D03*
X0349909Y0256221D03*
X0349909Y0256378D03*
X0355041Y0265668D03*
X0355041Y0267558D03*
X0355041Y0267716D03*
X0362600Y0268346D03*
X0362915Y0266141D03*
X0362915Y0265983D03*
X0360690Y0275618D03*
X0362895Y0275933D03*
X0364785Y0276721D03*
X0364785Y0277508D03*
X0362580Y0278296D03*
X0361105Y0286393D03*
X0360633Y0288755D03*
X0357011Y0288440D03*
X0357011Y0286708D03*
X0364727Y0288598D03*
X0365357Y0287968D03*
X0365447Y0296508D03*
X0364030Y0299343D03*
X0360408Y0297768D03*
X0360408Y0297611D03*
X0360408Y0297453D03*
X0360408Y0297296D03*
X0360408Y0297138D03*
X0358360Y0297611D03*
X0358360Y0296193D03*
X0358360Y0296036D03*
X0356313Y0297138D03*
X0356313Y0297296D03*
X0356943Y0299343D03*
X0352849Y0296981D03*
X0352849Y0296823D03*
X0351904Y0299185D03*
X0357241Y0306588D03*
X0357241Y0308320D03*
X0360863Y0308635D03*
X0361335Y0306273D03*
X0364957Y0308478D03*
X0365587Y0307848D03*
X0356536Y0315998D03*
X0356536Y0316156D03*
X0356536Y0317731D03*
X0356536Y0317888D03*
X0356536Y0318360D03*
X0357391Y0326798D03*
X0357391Y0328530D03*
X0361013Y0328845D03*
X0361485Y0326483D03*
X0365107Y0328688D03*
X0365737Y0328058D03*
X0365805Y0336838D03*
X0353604Y0278296D03*
X0353919Y0276091D03*
X0353919Y0275933D03*
X0348249Y0278768D03*
X0243712Y0245576D03*
X0243712Y0245418D03*
X0243712Y0245261D03*
X0243712Y0245103D03*
X0243712Y0244946D03*
X0243712Y0244788D03*
X0243712Y0244631D03*
X0243712Y0244473D03*
X0243554Y0244316D03*
X0243554Y0244158D03*
X0243554Y0245890D03*
X0241665Y0245890D03*
X0241665Y0245733D03*
X0241507Y0245418D03*
X0241507Y0245261D03*
X0241507Y0245103D03*
X0241507Y0244946D03*
X0241507Y0244788D03*
X0241507Y0244631D03*
X0241665Y0244316D03*
X0241665Y0244158D03*
X0233630Y0244186D03*
X0233630Y0244343D03*
X0233630Y0244501D03*
X0233630Y0244658D03*
X0233630Y0244816D03*
X0233630Y0244973D03*
X0233630Y0245131D03*
X0233630Y0244028D03*
X0233630Y0243871D03*
X0233630Y0243713D03*
X0233630Y0243556D03*
X0233630Y0243398D03*
X0233630Y0243241D03*
X0233630Y0243083D03*
X0233630Y0246705D03*
X0231206Y0251016D03*
X0231206Y0251173D03*
X0231206Y0252591D03*
X0231206Y0253378D03*
X0223804Y0252276D03*
X0223804Y0252118D03*
X0221757Y0251488D03*
X0219867Y0250858D03*
X0217820Y0251016D03*
X0217820Y0251173D03*
X0217820Y0252591D03*
X0215660Y0247360D03*
X0216605Y0246258D03*
X0216762Y0244526D03*
X0216762Y0244368D03*
X0214715Y0244211D03*
X0214557Y0244368D03*
X0214557Y0244526D03*
X0214715Y0245943D03*
X0214715Y0246100D03*
X0214715Y0246258D03*
X0223615Y0245970D03*
X0223615Y0245813D03*
X0223615Y0245656D03*
X0223615Y0245498D03*
X0225504Y0246128D03*
X0225662Y0245970D03*
X0225662Y0245813D03*
X0225662Y0245656D03*
X0225662Y0245498D03*
X0239552Y0253378D03*
X0236610Y0293501D03*
X0234878Y0294288D03*
X0239445Y0296178D03*
X0227319Y0295076D03*
X0227319Y0294918D03*
X0225272Y0294288D03*
X0223382Y0293658D03*
X0221335Y0293816D03*
X0221335Y0293973D03*
X0221335Y0295391D03*
X0221335Y0296178D03*
X0223382Y0296808D03*
X0182975Y0288248D03*
X0182975Y0288091D03*
X0182975Y0287776D03*
X0182975Y0287618D03*
X0182975Y0287461D03*
X0180928Y0286831D03*
X0180298Y0288878D03*
X0180298Y0289035D03*
X0178250Y0289508D03*
X0176361Y0288878D03*
X0169274Y0287933D03*
X0169274Y0287776D03*
X0165337Y0289508D03*
X0163132Y0288720D03*
X0163132Y0288563D03*
X0163132Y0288406D03*
X0163132Y0288248D03*
X0163132Y0288091D03*
X0163132Y0286516D03*
X0163132Y0286358D03*
X0163132Y0286201D03*
X0169831Y0273798D03*
X0170461Y0271751D03*
X0170461Y0271593D03*
X0178650Y0271278D03*
X0181327Y0271751D03*
X0180698Y0273798D03*
X0180698Y0273955D03*
X0178650Y0274428D03*
X0183375Y0273168D03*
X0183375Y0273011D03*
X0183375Y0272696D03*
X0183375Y0272538D03*
X0183375Y0272381D03*
X0180503Y0321911D03*
X0179873Y0323328D03*
X0178770Y0322698D03*
X0177353Y0325533D03*
X0170267Y0324588D03*
X0170267Y0324430D03*
X0170267Y0324273D03*
X0170267Y0322541D03*
X0166645Y0323801D03*
X0184597Y0323801D03*
X0184597Y0323958D03*
X0184597Y0323643D03*
X0184597Y0323486D03*
X0184597Y0323328D03*
D78*
X0180109Y0325533D03*
X0178692Y0324588D03*
X0177274Y0324588D03*
X0177274Y0324745D03*
X0177274Y0325375D03*
X0177274Y0323801D03*
X0177274Y0321753D03*
X0170345Y0324116D03*
X0168613Y0325375D03*
X0166723Y0324588D03*
X0168613Y0321753D03*
X0165258Y0289350D03*
X0163211Y0288878D03*
X0163211Y0286831D03*
X0163211Y0286673D03*
X0165258Y0286516D03*
X0165258Y0286358D03*
X0167305Y0288878D03*
X0169195Y0287618D03*
X0169195Y0287461D03*
X0178329Y0286358D03*
X0181006Y0286988D03*
X0180219Y0288720D03*
X0178329Y0289350D03*
X0182896Y0287933D03*
X0178729Y0274270D03*
X0180619Y0273640D03*
X0181406Y0271908D03*
X0183296Y0272853D03*
X0178729Y0271436D03*
X0176682Y0271751D03*
X0176682Y0273798D03*
X0170540Y0271908D03*
X0169753Y0273640D03*
X0218209Y0286906D03*
X0223303Y0293816D03*
X0221413Y0294131D03*
X0223303Y0296650D03*
X0225350Y0296178D03*
X0227240Y0294761D03*
X0227240Y0294603D03*
X0236689Y0293658D03*
X0238579Y0294288D03*
X0238579Y0294446D03*
X0240153Y0294288D03*
X0239366Y0296020D03*
X0245375Y0285633D03*
X0248902Y0285161D03*
X0232590Y0285289D03*
X0232235Y0285761D03*
X0231172Y0285761D03*
X0230936Y0285289D03*
X0236416Y0271061D03*
X0248902Y0269688D03*
X0249138Y0270161D03*
X0250201Y0270161D03*
X0250556Y0269688D03*
X0239473Y0253220D03*
X0238686Y0251646D03*
X0238686Y0251488D03*
X0240261Y0251488D03*
X0241586Y0245576D03*
X0241586Y0244473D03*
X0243633Y0245733D03*
X0231284Y0251331D03*
X0223725Y0251803D03*
X0223725Y0251961D03*
X0221836Y0253378D03*
X0219788Y0253693D03*
X0219788Y0253850D03*
X0217899Y0253378D03*
X0217899Y0251331D03*
X0219788Y0251016D03*
X0216526Y0246100D03*
X0224638Y0247230D03*
X0310576Y0221976D03*
X0310576Y0220873D03*
X0312623Y0222133D03*
X0331148Y0223270D03*
X0341926Y0221960D03*
X0349518Y0212401D03*
X0354942Y0245776D03*
X0357147Y0246091D03*
X0357147Y0246248D03*
X0356675Y0247981D03*
X0356675Y0248138D03*
X0354942Y0248453D03*
X0358879Y0247508D03*
X0358879Y0247351D03*
X0362029Y0248768D03*
X0364234Y0248768D03*
X0364706Y0247351D03*
X0363131Y0246406D03*
X0358807Y0255433D03*
X0358807Y0255591D03*
X0358807Y0255748D03*
X0354555Y0255433D03*
X0354555Y0255276D03*
X0354555Y0256851D03*
X0354555Y0257323D03*
X0352823Y0254961D03*
X0351720Y0255906D03*
X0353387Y0265511D03*
X0352285Y0266456D03*
X0355120Y0265983D03*
X0355120Y0265826D03*
X0355120Y0267401D03*
X0355120Y0267873D03*
X0360789Y0268503D03*
X0362521Y0268188D03*
X0362994Y0266298D03*
X0364726Y0266771D03*
X0364726Y0267558D03*
X0360789Y0265826D03*
X0365736Y0257481D03*
X0365736Y0257323D03*
X0362974Y0276091D03*
X0362974Y0276248D03*
X0362501Y0277981D03*
X0362501Y0278138D03*
X0360769Y0278453D03*
X0360769Y0275776D03*
X0364706Y0276878D03*
X0364706Y0277036D03*
X0364706Y0277193D03*
X0364706Y0277351D03*
X0363074Y0285763D03*
X0361184Y0286551D03*
X0360554Y0288440D03*
X0360554Y0288598D03*
X0357089Y0288598D03*
X0365436Y0287811D03*
X0365436Y0287653D03*
X0365436Y0287496D03*
X0365436Y0287338D03*
X0363951Y0295563D03*
X0365368Y0296351D03*
X0365368Y0298398D03*
X0363951Y0298398D03*
X0358439Y0298398D03*
X0358439Y0296351D03*
X0354502Y0297611D03*
X0354502Y0297768D03*
X0352770Y0297296D03*
X0352770Y0297138D03*
X0350250Y0298398D03*
X0361414Y0306431D03*
X0360784Y0308320D03*
X0360784Y0308478D03*
X0357319Y0308478D03*
X0363304Y0305643D03*
X0365666Y0307218D03*
X0365666Y0307376D03*
X0365666Y0307533D03*
X0365666Y0307691D03*
X0365748Y0316628D03*
X0364173Y0316628D03*
X0364961Y0318360D03*
X0356614Y0318518D03*
X0356614Y0316471D03*
X0356614Y0316313D03*
X0361564Y0326641D03*
X0360934Y0328530D03*
X0360934Y0328688D03*
X0357469Y0328688D03*
X0363454Y0325853D03*
X0365816Y0327428D03*
X0365816Y0327586D03*
X0365816Y0327743D03*
X0365816Y0327901D03*
X0361946Y0337941D03*
X0361946Y0338098D03*
X0353525Y0278138D03*
X0353997Y0276248D03*
X0269806Y0167701D03*
X0269806Y0167543D03*
X0269806Y0167386D03*
X0269806Y0167228D03*
X0267759Y0166598D03*
X0267759Y0166441D03*
X0267129Y0168330D03*
X0265239Y0168803D03*
X0265239Y0166126D03*
X0263192Y0166441D03*
X0261617Y0166598D03*
X0260042Y0167701D03*
X0259885Y0168173D03*
X0259885Y0168330D03*
X0259885Y0168488D03*
X0242091Y0166668D03*
X0240673Y0166668D03*
X0241461Y0168400D03*
X0233114Y0168558D03*
X0231382Y0169188D03*
X0229492Y0168086D03*
X0233114Y0166511D03*
X0241138Y0154790D03*
X0262393Y0151293D03*
X0269201Y0152446D03*
X0269201Y0152603D03*
X0213178Y0166578D03*
X0211604Y0166578D03*
X0212391Y0168310D03*
X0204044Y0168468D03*
X0204044Y0166421D03*
X0202155Y0166736D03*
X0211258Y0154820D03*
X0182273Y0151143D03*
X0169741Y0152076D03*
X0169741Y0152233D03*
X0173032Y0166411D03*
X0175079Y0166096D03*
X0177756Y0166568D03*
X0176969Y0168300D03*
X0175079Y0168930D03*
X0171142Y0168930D03*
D79*
X0171063Y0166411D03*
X0171063Y0166253D03*
X0171063Y0165781D03*
X0174843Y0169245D03*
X0177205Y0168930D03*
X0177520Y0165938D03*
X0180777Y0154450D03*
X0180777Y0154293D03*
X0170135Y0153336D03*
X0200855Y0154430D03*
X0210550Y0152616D03*
X0212312Y0168625D03*
X0201604Y0168310D03*
X0201604Y0168153D03*
X0231005Y0154160D03*
X0240430Y0152586D03*
X0241382Y0168715D03*
X0263113Y0166598D03*
X0265003Y0169275D03*
X0267365Y0169118D03*
X0267365Y0168960D03*
X0267523Y0165968D03*
X0269595Y0153706D03*
X0260897Y0154443D03*
X0260897Y0154600D03*
X0311600Y0219456D03*
X0321675Y0222710D03*
X0330440Y0221066D03*
X0353289Y0246406D03*
X0356911Y0245618D03*
X0359115Y0245618D03*
X0359115Y0245776D03*
X0359115Y0245933D03*
X0359115Y0246091D03*
X0359115Y0246248D03*
X0359115Y0246406D03*
X0359115Y0246563D03*
X0359115Y0246721D03*
X0360218Y0248610D03*
X0361320Y0245933D03*
X0361320Y0245776D03*
X0363137Y0255276D03*
X0363137Y0255433D03*
X0363137Y0255591D03*
X0363137Y0255748D03*
X0363137Y0255906D03*
X0363137Y0256063D03*
X0363137Y0256221D03*
X0363137Y0256378D03*
X0363137Y0256536D03*
X0363137Y0256693D03*
X0363137Y0256851D03*
X0363137Y0257008D03*
X0363137Y0257166D03*
X0363137Y0257323D03*
X0363137Y0257481D03*
X0363137Y0257638D03*
X0360775Y0257638D03*
X0362758Y0265668D03*
X0359135Y0266456D03*
X0350474Y0265983D03*
X0350474Y0265826D03*
X0350474Y0267086D03*
X0350632Y0268188D03*
X0347009Y0270235D03*
X0353761Y0275618D03*
X0359115Y0276406D03*
X0362737Y0275618D03*
X0360948Y0285921D03*
X0360790Y0289070D03*
X0360790Y0289228D03*
X0356853Y0288126D03*
X0356853Y0287181D03*
X0356853Y0287023D03*
X0364885Y0286866D03*
X0364030Y0295406D03*
X0356313Y0296823D03*
X0356313Y0296981D03*
X0356156Y0296508D03*
X0354423Y0298240D03*
X0352849Y0296666D03*
X0352849Y0296508D03*
X0351904Y0299343D03*
X0350329Y0298240D03*
X0357083Y0306903D03*
X0357083Y0307061D03*
X0357083Y0308006D03*
X0361020Y0308950D03*
X0361020Y0309108D03*
X0361178Y0305801D03*
X0365115Y0306746D03*
X0365040Y0318675D03*
X0361328Y0326011D03*
X0361170Y0329160D03*
X0361170Y0329318D03*
X0357233Y0328216D03*
X0357233Y0327271D03*
X0357233Y0327113D03*
X0365265Y0326956D03*
X0363600Y0336838D03*
X0363600Y0336996D03*
X0364230Y0338098D03*
X0361868Y0338570D03*
X0350067Y0257638D03*
X0350067Y0256693D03*
X0250438Y0285633D03*
X0249965Y0284216D03*
X0239445Y0296335D03*
X0234878Y0294603D03*
X0234878Y0294446D03*
X0227476Y0295548D03*
X0227476Y0295706D03*
X0225114Y0295863D03*
X0225114Y0294603D03*
X0225114Y0294446D03*
X0223539Y0293343D03*
X0221177Y0293343D03*
X0223539Y0296965D03*
X0180455Y0289350D03*
X0178093Y0289665D03*
X0176361Y0286988D03*
X0178093Y0286043D03*
X0180770Y0286358D03*
X0169431Y0288406D03*
X0169431Y0288563D03*
X0167069Y0288563D03*
X0167069Y0287146D03*
X0165494Y0289665D03*
X0163132Y0286043D03*
X0163132Y0285886D03*
X0169989Y0274270D03*
X0170304Y0271278D03*
X0176761Y0271908D03*
X0178493Y0270963D03*
X0181170Y0271278D03*
X0180855Y0274270D03*
X0178493Y0274585D03*
X0220025Y0254165D03*
X0221599Y0253063D03*
X0221599Y0252906D03*
X0221599Y0251803D03*
X0223962Y0252748D03*
X0223962Y0252906D03*
X0231048Y0250543D03*
X0233787Y0246390D03*
X0239552Y0253535D03*
X0242610Y0243056D03*
X0223930Y0245026D03*
X0177511Y0323958D03*
X0168692Y0321596D03*
D80*
X0180345Y0324430D03*
X0180345Y0324588D03*
X0179825Y0287776D03*
X0180225Y0272696D03*
X0170934Y0272853D03*
X0225694Y0252591D03*
X0233630Y0247020D03*
X0234575Y0245131D03*
X0239552Y0252748D03*
X0240655Y0252433D03*
X0240547Y0295233D03*
X0239445Y0295548D03*
X0229209Y0295391D03*
X0321517Y0223340D03*
X0322462Y0221451D03*
X0356281Y0247036D03*
X0357541Y0247193D03*
X0360218Y0247666D03*
X0364712Y0256693D03*
X0366760Y0256693D03*
X0363387Y0267243D03*
X0362128Y0267086D03*
X0351104Y0268346D03*
X0351104Y0268503D03*
X0353131Y0277036D03*
X0354391Y0277193D03*
X0362108Y0277036D03*
X0363367Y0277193D03*
X0361577Y0287653D03*
X0360160Y0287496D03*
X0336428Y0304149D03*
X0336428Y0306826D03*
X0336428Y0316905D03*
X0360390Y0307376D03*
X0361808Y0307533D03*
X0363780Y0317731D03*
X0361958Y0327743D03*
X0360540Y0327586D03*
X0350539Y0257953D03*
X0350539Y0257796D03*
X0268152Y0167543D03*
X0266735Y0167386D03*
X0260897Y0155230D03*
X0259480Y0150978D03*
X0262314Y0150978D03*
X0242484Y0167613D03*
X0241382Y0167928D03*
X0240280Y0167613D03*
X0230847Y0154790D03*
X0231792Y0152901D03*
X0211210Y0167523D03*
X0211210Y0167681D03*
X0200697Y0155060D03*
X0201642Y0153171D03*
X0182194Y0150828D03*
X0179360Y0150828D03*
X0180777Y0155080D03*
X0170433Y0167828D03*
D81*
X0171142Y0166568D03*
X0173032Y0166568D03*
X0173032Y0168300D03*
X0171142Y0169245D03*
X0174764Y0165623D03*
X0177441Y0165781D03*
X0177284Y0169088D03*
X0197115Y0165948D03*
X0197115Y0165791D03*
X0197115Y0165633D03*
X0199950Y0166263D03*
X0201525Y0168468D03*
X0203887Y0165476D03*
X0212391Y0168783D03*
X0211258Y0154663D03*
X0210786Y0152458D03*
X0200933Y0154273D03*
X0231083Y0154003D03*
X0240666Y0152428D03*
X0241138Y0154633D03*
X0232957Y0165566D03*
X0257365Y0165811D03*
X0257365Y0165968D03*
X0264924Y0165653D03*
X0267601Y0165811D03*
X0267444Y0169275D03*
X0321753Y0222553D03*
X0330676Y0220908D03*
X0331148Y0223113D03*
X0341138Y0219126D03*
X0349518Y0212558D03*
X0356832Y0245461D03*
X0356832Y0248768D03*
X0360297Y0248768D03*
X0361399Y0245618D03*
X0368328Y0249713D03*
X0368328Y0249870D03*
X0368328Y0250028D03*
X0368328Y0250185D03*
X0363059Y0255118D03*
X0360854Y0255118D03*
X0360854Y0255276D03*
X0360854Y0255433D03*
X0360854Y0255591D03*
X0360854Y0255748D03*
X0360854Y0255906D03*
X0360854Y0256063D03*
X0360854Y0256221D03*
X0360854Y0256378D03*
X0360854Y0256536D03*
X0360854Y0256693D03*
X0360854Y0256851D03*
X0360854Y0257008D03*
X0360854Y0257166D03*
X0360854Y0257323D03*
X0360854Y0257481D03*
X0356602Y0257481D03*
X0356602Y0257323D03*
X0356602Y0257166D03*
X0356602Y0257008D03*
X0356602Y0256851D03*
X0356602Y0256693D03*
X0356602Y0255591D03*
X0356602Y0255433D03*
X0356602Y0255276D03*
X0356602Y0255118D03*
X0350145Y0256851D03*
X0350145Y0257481D03*
X0346681Y0259843D03*
X0346523Y0259685D03*
X0346366Y0259528D03*
X0350553Y0267243D03*
X0347246Y0270393D03*
X0346931Y0270078D03*
X0351478Y0275618D03*
X0351478Y0275776D03*
X0351478Y0275933D03*
X0351478Y0276091D03*
X0351478Y0276248D03*
X0351478Y0276406D03*
X0351478Y0276563D03*
X0351478Y0276721D03*
X0351478Y0276878D03*
X0351478Y0277036D03*
X0351478Y0277193D03*
X0351478Y0277351D03*
X0351478Y0277508D03*
X0351478Y0277666D03*
X0351478Y0277823D03*
X0351478Y0277981D03*
X0351478Y0278138D03*
X0353682Y0278768D03*
X0353682Y0275461D03*
X0357147Y0275776D03*
X0357147Y0275933D03*
X0357147Y0276091D03*
X0357147Y0278138D03*
X0357147Y0278296D03*
X0357147Y0278453D03*
X0362659Y0278768D03*
X0362659Y0275461D03*
X0362679Y0268818D03*
X0360474Y0268818D03*
X0360474Y0265511D03*
X0362679Y0265511D03*
X0357167Y0265826D03*
X0357167Y0265983D03*
X0357167Y0266141D03*
X0357167Y0268188D03*
X0357167Y0268346D03*
X0357167Y0268503D03*
X0368191Y0269763D03*
X0368191Y0269920D03*
X0368191Y0270078D03*
X0368191Y0270235D03*
X0368171Y0279555D03*
X0368171Y0279713D03*
X0368171Y0279870D03*
X0368171Y0280028D03*
X0368171Y0280185D03*
X0368171Y0280343D03*
X0364963Y0287023D03*
X0364963Y0287181D03*
X0360869Y0289385D03*
X0356774Y0287968D03*
X0356774Y0287811D03*
X0356774Y0287653D03*
X0356774Y0287496D03*
X0356774Y0287338D03*
X0358282Y0295406D03*
X0356077Y0296193D03*
X0356077Y0296351D03*
X0356234Y0296666D03*
X0355919Y0296036D03*
X0355919Y0295878D03*
X0354502Y0298398D03*
X0352927Y0296351D03*
X0350250Y0296666D03*
X0357004Y0307218D03*
X0357004Y0307376D03*
X0357004Y0307533D03*
X0357004Y0307691D03*
X0357004Y0307848D03*
X0361099Y0309265D03*
X0365193Y0307061D03*
X0365193Y0306903D03*
X0356457Y0315526D03*
X0364961Y0318833D03*
X0365343Y0327113D03*
X0365343Y0327271D03*
X0361249Y0329475D03*
X0357154Y0328058D03*
X0357154Y0327901D03*
X0357154Y0327743D03*
X0357154Y0327586D03*
X0357154Y0327428D03*
X0363521Y0336681D03*
X0364308Y0338255D03*
X0361946Y0338728D03*
X0367930Y0336366D03*
X0368571Y0259685D03*
X0368571Y0259528D03*
X0368571Y0259370D03*
X0368571Y0259213D03*
X0365736Y0257796D03*
X0351478Y0250343D03*
X0351320Y0250185D03*
X0233866Y0246233D03*
X0231127Y0250386D03*
X0228607Y0250701D03*
X0225773Y0251173D03*
X0224040Y0253063D03*
X0224040Y0253220D03*
X0224040Y0253378D03*
X0221521Y0252748D03*
X0221521Y0252591D03*
X0221521Y0252433D03*
X0221521Y0252276D03*
X0221521Y0252118D03*
X0221521Y0251961D03*
X0220103Y0250543D03*
X0217741Y0250386D03*
X0224638Y0247073D03*
X0224166Y0244868D03*
X0215738Y0243266D03*
X0181091Y0271121D03*
X0180934Y0274428D03*
X0180934Y0274585D03*
X0176682Y0273640D03*
X0170068Y0274428D03*
X0170225Y0271121D03*
X0170225Y0270963D03*
X0171085Y0286673D03*
X0169510Y0288720D03*
X0169510Y0288878D03*
X0169510Y0289035D03*
X0166991Y0288406D03*
X0166991Y0288248D03*
X0166991Y0287618D03*
X0166991Y0287461D03*
X0166991Y0287303D03*
X0165416Y0286043D03*
X0176282Y0288720D03*
X0180534Y0289508D03*
X0180534Y0289665D03*
X0180691Y0286201D03*
X0221256Y0293186D03*
X0225035Y0294761D03*
X0225035Y0294918D03*
X0225035Y0295076D03*
X0225035Y0295233D03*
X0225035Y0295391D03*
X0225035Y0295548D03*
X0225035Y0295706D03*
X0227555Y0295863D03*
X0227555Y0296020D03*
X0227555Y0296178D03*
X0229287Y0293973D03*
X0182314Y0323013D03*
X0182314Y0323171D03*
X0182314Y0323328D03*
X0182314Y0323486D03*
X0182314Y0323643D03*
X0182314Y0323801D03*
X0182314Y0323958D03*
X0182314Y0324116D03*
X0182314Y0324273D03*
X0182314Y0324430D03*
X0182314Y0324588D03*
X0182314Y0324745D03*
X0182314Y0324903D03*
X0182314Y0325060D03*
X0182314Y0325218D03*
X0182314Y0325375D03*
X0180582Y0321753D03*
D82*
X0182314Y0325533D03*
X0188613Y0325533D03*
X0188613Y0325375D03*
X0188613Y0325218D03*
X0188613Y0325060D03*
X0188613Y0324903D03*
X0188613Y0324745D03*
X0188613Y0324588D03*
X0188613Y0324430D03*
X0188613Y0324273D03*
X0188613Y0324116D03*
X0188613Y0323958D03*
X0188613Y0323801D03*
X0188613Y0323643D03*
X0188613Y0323486D03*
X0188613Y0323328D03*
X0188613Y0323171D03*
X0188613Y0323013D03*
X0188613Y0322856D03*
X0188613Y0322698D03*
X0188613Y0322541D03*
X0188613Y0322383D03*
X0188613Y0322226D03*
X0188613Y0322068D03*
X0188613Y0321911D03*
X0188613Y0321753D03*
X0188613Y0321596D03*
X0172708Y0321753D03*
X0172708Y0321911D03*
X0172708Y0322068D03*
X0172708Y0322226D03*
X0172708Y0322383D03*
X0172708Y0324903D03*
X0172708Y0325060D03*
X0172708Y0325218D03*
X0172708Y0325375D03*
X0172708Y0325533D03*
X0169668Y0289665D03*
X0169668Y0289508D03*
X0171085Y0286358D03*
X0174077Y0286201D03*
X0178014Y0285886D03*
X0178014Y0289823D03*
X0186991Y0289665D03*
X0186991Y0289508D03*
X0186991Y0289350D03*
X0186991Y0289193D03*
X0186991Y0289035D03*
X0186991Y0288878D03*
X0186991Y0288720D03*
X0186991Y0288563D03*
X0186991Y0288406D03*
X0186991Y0288248D03*
X0186991Y0288091D03*
X0186991Y0287933D03*
X0186991Y0287776D03*
X0186991Y0287618D03*
X0186991Y0287461D03*
X0186991Y0287303D03*
X0186991Y0287146D03*
X0186991Y0286988D03*
X0186991Y0286831D03*
X0186991Y0286673D03*
X0186991Y0286516D03*
X0186991Y0286358D03*
X0186991Y0286201D03*
X0186991Y0286043D03*
X0187233Y0274743D03*
X0187233Y0270806D03*
X0178414Y0274743D03*
X0174320Y0274270D03*
X0174320Y0274113D03*
X0174320Y0271436D03*
X0174320Y0271278D03*
X0170225Y0270806D03*
X0167390Y0270963D03*
X0165573Y0289823D03*
X0217581Y0272206D03*
X0236943Y0286261D03*
X0243933Y0293186D03*
X0243933Y0293343D03*
X0243933Y0297123D03*
X0239366Y0296650D03*
X0229287Y0293658D03*
X0227713Y0296650D03*
X0227713Y0296808D03*
X0224198Y0254008D03*
X0224198Y0253850D03*
X0225773Y0250858D03*
X0228607Y0251016D03*
X0228607Y0251173D03*
X0228607Y0250543D03*
X0233647Y0250543D03*
X0236324Y0250543D03*
X0239473Y0253850D03*
X0242623Y0253850D03*
X0242623Y0253693D03*
X0242623Y0253535D03*
X0242623Y0253378D03*
X0242623Y0253220D03*
X0242623Y0253063D03*
X0242623Y0252906D03*
X0242623Y0252748D03*
X0242623Y0252591D03*
X0242623Y0252433D03*
X0242623Y0252276D03*
X0242623Y0252118D03*
X0242623Y0251961D03*
X0242623Y0251803D03*
X0242623Y0251646D03*
X0242623Y0251488D03*
X0242623Y0251331D03*
X0242623Y0251173D03*
X0242623Y0251016D03*
X0242623Y0250858D03*
X0242623Y0250701D03*
X0242623Y0250543D03*
X0242623Y0250386D03*
X0242623Y0254008D03*
X0242623Y0254165D03*
X0242623Y0254323D03*
X0234023Y0246075D03*
X0234023Y0245288D03*
X0224953Y0244238D03*
X0224796Y0244396D03*
X0215108Y0244998D03*
X0215108Y0245786D03*
X0215379Y0250386D03*
X0215379Y0251173D03*
X0215379Y0251331D03*
X0215379Y0251488D03*
X0215379Y0252118D03*
X0215379Y0252276D03*
X0215379Y0253535D03*
X0215379Y0253693D03*
X0244453Y0169503D03*
X0241461Y0169030D03*
X0244453Y0165723D03*
X0244453Y0165566D03*
X0238311Y0165723D03*
X0235477Y0165723D03*
X0235477Y0165881D03*
X0235477Y0166038D03*
X0235477Y0166196D03*
X0235477Y0166353D03*
X0235477Y0166511D03*
X0235477Y0166668D03*
X0235477Y0166826D03*
X0235477Y0166983D03*
X0235477Y0167141D03*
X0235477Y0167298D03*
X0235477Y0167456D03*
X0235477Y0167613D03*
X0235477Y0167771D03*
X0235477Y0167928D03*
X0235477Y0168086D03*
X0235477Y0168243D03*
X0235477Y0168400D03*
X0235477Y0168558D03*
X0235477Y0168715D03*
X0226973Y0168715D03*
X0226973Y0168558D03*
X0226973Y0168873D03*
X0226973Y0168243D03*
X0226973Y0168086D03*
X0226973Y0167928D03*
X0226973Y0167613D03*
X0226973Y0167456D03*
X0226973Y0166196D03*
X0226973Y0166038D03*
X0215383Y0165476D03*
X0212391Y0168940D03*
X0209241Y0168625D03*
X0209241Y0168468D03*
X0209241Y0168310D03*
X0209241Y0168153D03*
X0209241Y0167996D03*
X0209241Y0167838D03*
X0209241Y0167681D03*
X0209241Y0167523D03*
X0209241Y0167366D03*
X0209241Y0167208D03*
X0209241Y0167051D03*
X0209241Y0166893D03*
X0209241Y0166736D03*
X0209241Y0166578D03*
X0209241Y0166421D03*
X0209241Y0166263D03*
X0209241Y0166106D03*
X0209241Y0165948D03*
X0209241Y0165791D03*
X0209241Y0165633D03*
X0206407Y0165633D03*
X0206407Y0165791D03*
X0206407Y0165948D03*
X0206407Y0166106D03*
X0206407Y0166263D03*
X0206407Y0166421D03*
X0206407Y0166578D03*
X0206407Y0166736D03*
X0206407Y0166893D03*
X0206407Y0167051D03*
X0206407Y0167208D03*
X0206407Y0167366D03*
X0206407Y0167523D03*
X0206407Y0167681D03*
X0206407Y0167838D03*
X0206407Y0167996D03*
X0206407Y0168153D03*
X0206407Y0168310D03*
X0206407Y0168468D03*
X0206407Y0168625D03*
X0199950Y0165948D03*
X0197273Y0165476D03*
X0197273Y0166421D03*
X0197273Y0166578D03*
X0183583Y0165466D03*
X0183583Y0169403D03*
X0174764Y0169403D03*
X0168622Y0169403D03*
X0168622Y0165466D03*
X0171316Y0154910D03*
X0180698Y0153820D03*
X0201091Y0154115D03*
X0201091Y0153328D03*
X0211416Y0151986D03*
X0211573Y0151828D03*
X0231241Y0153058D03*
X0231241Y0153845D03*
X0241296Y0151956D03*
X0241453Y0151798D03*
X0260818Y0153970D03*
X0270776Y0155280D03*
X0273743Y0165496D03*
X0273743Y0165653D03*
X0273743Y0169275D03*
X0273743Y0169433D03*
X0267444Y0169433D03*
X0257523Y0168645D03*
X0257523Y0168488D03*
X0257523Y0168330D03*
X0257523Y0167858D03*
X0257523Y0167701D03*
X0257523Y0167543D03*
X0321911Y0221608D03*
X0321911Y0222395D03*
X0331306Y0220436D03*
X0331463Y0220278D03*
X0340508Y0220858D03*
X0340508Y0221646D03*
X0351163Y0245776D03*
X0351163Y0249870D03*
X0350145Y0254961D03*
X0352508Y0256221D03*
X0356760Y0256221D03*
X0356760Y0256063D03*
X0356602Y0254961D03*
X0356760Y0257953D03*
X0365736Y0257953D03*
X0365736Y0258110D03*
X0368413Y0258268D03*
X0368413Y0254961D03*
X0368171Y0248610D03*
X0368171Y0248453D03*
X0368171Y0248296D03*
X0368171Y0248138D03*
X0368171Y0247981D03*
X0368171Y0247823D03*
X0368171Y0247666D03*
X0368171Y0247508D03*
X0368171Y0247351D03*
X0368171Y0247193D03*
X0368171Y0247036D03*
X0368171Y0246878D03*
X0368171Y0246721D03*
X0368171Y0246563D03*
X0368171Y0246406D03*
X0368171Y0246248D03*
X0368171Y0246091D03*
X0368171Y0245933D03*
X0368171Y0245776D03*
X0368171Y0245618D03*
X0368171Y0245461D03*
X0361556Y0245461D03*
X0368033Y0265511D03*
X0368033Y0268818D03*
X0368013Y0278768D03*
X0367640Y0286708D03*
X0367640Y0286866D03*
X0367640Y0287023D03*
X0367640Y0288283D03*
X0367640Y0288440D03*
X0367640Y0288598D03*
X0360869Y0289543D03*
X0360869Y0285606D03*
X0354255Y0286708D03*
X0354255Y0286866D03*
X0354255Y0288440D03*
X0354255Y0288598D03*
X0350250Y0296823D03*
X0350250Y0297926D03*
X0354502Y0298713D03*
X0354502Y0298870D03*
X0354485Y0306588D03*
X0354485Y0306746D03*
X0354485Y0308320D03*
X0354485Y0308478D03*
X0361099Y0309423D03*
X0361099Y0305486D03*
X0367870Y0306588D03*
X0367870Y0306746D03*
X0367870Y0306903D03*
X0367870Y0308163D03*
X0367870Y0308320D03*
X0367870Y0308478D03*
X0368110Y0315683D03*
X0368110Y0315841D03*
X0368110Y0315998D03*
X0368110Y0316156D03*
X0368110Y0316313D03*
X0368110Y0316471D03*
X0368110Y0316628D03*
X0368110Y0316786D03*
X0368110Y0316943D03*
X0368110Y0317101D03*
X0368110Y0317258D03*
X0368110Y0317416D03*
X0368110Y0317573D03*
X0368110Y0317731D03*
X0368110Y0317888D03*
X0368110Y0318046D03*
X0368110Y0318203D03*
X0368110Y0318360D03*
X0368110Y0318518D03*
X0368110Y0318675D03*
X0368110Y0318833D03*
X0368110Y0318990D03*
X0368110Y0319148D03*
X0368110Y0319305D03*
X0368110Y0319463D03*
X0364961Y0318990D03*
X0361811Y0318675D03*
X0361811Y0318518D03*
X0361811Y0318360D03*
X0361811Y0318203D03*
X0361811Y0318046D03*
X0361811Y0317888D03*
X0361811Y0317731D03*
X0361811Y0317573D03*
X0361811Y0317416D03*
X0361811Y0317258D03*
X0361811Y0317101D03*
X0361811Y0316943D03*
X0361811Y0316786D03*
X0361811Y0316628D03*
X0361811Y0316471D03*
X0361811Y0316313D03*
X0361811Y0316156D03*
X0361811Y0315998D03*
X0361811Y0315841D03*
X0361811Y0315683D03*
X0358977Y0315683D03*
X0358977Y0315841D03*
X0358977Y0315998D03*
X0358977Y0316156D03*
X0358977Y0316313D03*
X0358977Y0316471D03*
X0358977Y0316628D03*
X0358977Y0316786D03*
X0358977Y0316943D03*
X0358977Y0317101D03*
X0358977Y0317258D03*
X0358977Y0317416D03*
X0358977Y0317573D03*
X0358977Y0317731D03*
X0358977Y0317888D03*
X0358977Y0318046D03*
X0358977Y0318203D03*
X0358977Y0318360D03*
X0358977Y0318518D03*
X0358977Y0318675D03*
X0361249Y0325696D03*
X0361249Y0329633D03*
X0354635Y0328688D03*
X0354635Y0328530D03*
X0354635Y0326956D03*
X0354635Y0326798D03*
X0363521Y0336366D03*
X0361946Y0339043D03*
X0361946Y0339200D03*
X0367773Y0339200D03*
X0367773Y0339043D03*
X0367773Y0338885D03*
X0367773Y0338728D03*
X0367773Y0338570D03*
X0367773Y0338413D03*
X0367773Y0339358D03*
X0367773Y0336681D03*
X0368020Y0328688D03*
X0368020Y0328530D03*
X0368020Y0328373D03*
X0368020Y0327113D03*
X0368020Y0326956D03*
X0368020Y0326798D03*
X0367730Y0298713D03*
X0367730Y0298555D03*
X0367730Y0298398D03*
X0367730Y0298240D03*
X0367730Y0298083D03*
X0367730Y0297926D03*
X0367730Y0296508D03*
X0367730Y0296351D03*
X0367730Y0296193D03*
X0367730Y0296036D03*
X0364423Y0297926D03*
X0357304Y0278610D03*
X0357304Y0277823D03*
X0357304Y0276406D03*
X0357304Y0275618D03*
X0357324Y0268660D03*
X0357324Y0267873D03*
X0357324Y0266456D03*
X0353072Y0266771D03*
X0350710Y0265511D03*
X0346773Y0269763D03*
X0348958Y0277193D03*
X0347856Y0279555D03*
X0347698Y0279713D03*
D83*
X0348328Y0275933D03*
X0346143Y0268346D03*
X0347403Y0265983D03*
X0345736Y0258110D03*
X0345736Y0257953D03*
X0346996Y0255276D03*
X0367011Y0285606D03*
X0352612Y0295406D03*
X0347888Y0295406D03*
X0346943Y0296351D03*
X0346786Y0296508D03*
X0346943Y0298555D03*
X0347101Y0298713D03*
X0347258Y0298870D03*
X0347416Y0299028D03*
X0347573Y0299185D03*
X0353307Y0318203D03*
X0353307Y0318360D03*
X0353465Y0318518D03*
X0367391Y0325696D03*
X0358482Y0338728D03*
X0367241Y0305486D03*
X0330991Y0219963D03*
X0330991Y0219333D03*
X0262404Y0166756D03*
X0258152Y0166441D03*
X0260818Y0152711D03*
X0270461Y0151816D03*
X0270461Y0151658D03*
X0270461Y0154335D03*
X0270461Y0154493D03*
X0270461Y0154650D03*
X0240981Y0151483D03*
X0240981Y0150853D03*
X0211101Y0150883D03*
X0211101Y0151513D03*
X0197903Y0169098D03*
X0197903Y0169255D03*
X0180698Y0152561D03*
X0171001Y0151446D03*
X0171001Y0151288D03*
X0171001Y0153965D03*
X0171001Y0154123D03*
X0171001Y0154280D03*
X0224481Y0243293D03*
X0224481Y0243923D03*
X0227977Y0253535D03*
X0232594Y0293186D03*
X0231492Y0296335D03*
X0231492Y0296493D03*
X0231492Y0296650D03*
X0218264Y0296650D03*
X0218106Y0296335D03*
X0218106Y0296178D03*
X0218106Y0293973D03*
X0185148Y0322068D03*
X0173290Y0289350D03*
X0173447Y0289035D03*
X0162666Y0274113D03*
D84*
X0159983Y0286516D03*
X0159983Y0286673D03*
X0159825Y0288248D03*
X0159825Y0288406D03*
X0159825Y0288563D03*
X0159825Y0288720D03*
X0159983Y0289035D03*
X0173368Y0289508D03*
X0173526Y0288878D03*
X0173683Y0288720D03*
X0185070Y0321911D03*
X0163495Y0324745D03*
X0163495Y0324903D03*
X0163337Y0324588D03*
X0163337Y0324430D03*
X0163337Y0324273D03*
X0163337Y0324116D03*
X0163337Y0323958D03*
X0163337Y0323801D03*
X0163337Y0323643D03*
X0218185Y0296493D03*
X0218342Y0296808D03*
X0218027Y0296020D03*
X0218027Y0295863D03*
X0218027Y0295706D03*
X0218027Y0295548D03*
X0218027Y0295391D03*
X0218027Y0295233D03*
X0218185Y0294288D03*
X0218185Y0294131D03*
X0231413Y0296808D03*
X0231413Y0296965D03*
X0228056Y0253850D03*
X0228056Y0253693D03*
X0224560Y0243766D03*
X0224560Y0243608D03*
X0224560Y0243451D03*
X0197981Y0169413D03*
X0180777Y0152403D03*
X0170922Y0151761D03*
X0170922Y0151603D03*
X0211180Y0151356D03*
X0211180Y0151198D03*
X0211180Y0151041D03*
X0241060Y0151011D03*
X0241060Y0151168D03*
X0241060Y0151326D03*
X0260897Y0152553D03*
X0270382Y0152131D03*
X0270382Y0151973D03*
X0331070Y0219491D03*
X0331070Y0219648D03*
X0331070Y0219806D03*
X0350454Y0248138D03*
X0350454Y0248296D03*
X0350454Y0248453D03*
X0346917Y0255433D03*
X0345657Y0257796D03*
X0347324Y0266141D03*
X0348249Y0275776D03*
X0354963Y0285606D03*
X0366932Y0289700D03*
X0367022Y0296981D03*
X0355193Y0305486D03*
X0347809Y0299343D03*
X0346864Y0298398D03*
X0346707Y0298240D03*
X0346549Y0297768D03*
X0346549Y0297611D03*
X0346549Y0297453D03*
X0346549Y0297296D03*
X0346549Y0297138D03*
X0346549Y0296981D03*
X0346707Y0296666D03*
X0367162Y0309580D03*
X0353544Y0316628D03*
X0353229Y0317731D03*
X0353229Y0317888D03*
X0353229Y0318046D03*
X0355343Y0325696D03*
X0367312Y0329790D03*
X0367064Y0337153D03*
D85*
X0367469Y0329633D03*
X0364635Y0328373D03*
X0364635Y0328216D03*
X0355186Y0329633D03*
X0358560Y0338885D03*
X0354331Y0319463D03*
X0353544Y0318675D03*
X0353544Y0316471D03*
X0355036Y0309423D03*
X0364485Y0308163D03*
X0364485Y0308006D03*
X0367319Y0309423D03*
X0367089Y0289543D03*
X0364255Y0288283D03*
X0364255Y0288126D03*
X0354806Y0289543D03*
X0347652Y0295563D03*
X0347494Y0295721D03*
X0347337Y0295878D03*
X0347179Y0296036D03*
X0347022Y0296193D03*
X0348407Y0276091D03*
X0346380Y0268818D03*
X0346222Y0268660D03*
X0346222Y0268503D03*
X0347482Y0265826D03*
X0345815Y0258268D03*
X0347075Y0255118D03*
X0341060Y0222275D03*
X0341060Y0219913D03*
X0341060Y0219756D03*
X0349912Y0213031D03*
X0350070Y0212716D03*
X0270540Y0154808D03*
X0270540Y0151501D03*
X0262798Y0167701D03*
X0262798Y0167858D03*
X0258074Y0169590D03*
X0197824Y0168940D03*
X0197824Y0168783D03*
X0172638Y0167828D03*
X0171080Y0154438D03*
X0171080Y0151131D03*
X0215660Y0243896D03*
X0215660Y0244053D03*
X0215660Y0246415D03*
X0228056Y0253220D03*
X0228056Y0253378D03*
X0218185Y0293658D03*
X0218185Y0293816D03*
X0231571Y0296020D03*
X0231571Y0296178D03*
X0185227Y0322226D03*
X0173368Y0289193D03*
X0160298Y0285886D03*
X0159983Y0286201D03*
X0159983Y0286358D03*
X0162587Y0274270D03*
D86*
X0169595Y0273168D03*
X0170698Y0272381D03*
X0170698Y0272223D03*
X0172272Y0274743D03*
X0178887Y0273955D03*
X0178887Y0273798D03*
X0180461Y0273326D03*
X0180461Y0273168D03*
X0181564Y0272381D03*
X0182981Y0270806D03*
X0178887Y0271751D03*
X0178887Y0271908D03*
X0182581Y0285886D03*
X0181164Y0287461D03*
X0180061Y0288248D03*
X0180061Y0288406D03*
X0178487Y0288878D03*
X0178487Y0289035D03*
X0178487Y0286988D03*
X0178487Y0286831D03*
X0171085Y0287618D03*
X0169038Y0286988D03*
X0169038Y0286831D03*
X0167305Y0286831D03*
X0165101Y0286831D03*
X0165101Y0288878D03*
X0165101Y0289035D03*
X0168456Y0322068D03*
X0168456Y0322226D03*
X0168456Y0323486D03*
X0168456Y0323643D03*
X0168456Y0323958D03*
X0168456Y0324116D03*
X0168456Y0324273D03*
X0168456Y0324588D03*
X0168456Y0324745D03*
X0168456Y0324903D03*
X0170503Y0323328D03*
X0177117Y0323328D03*
X0177117Y0323486D03*
X0177117Y0322226D03*
X0177117Y0322068D03*
X0180267Y0322856D03*
X0180582Y0322226D03*
X0180109Y0325375D03*
X0184361Y0324745D03*
X0223146Y0296335D03*
X0223146Y0296178D03*
X0223146Y0294288D03*
X0223146Y0294131D03*
X0227083Y0294131D03*
X0227083Y0293973D03*
X0229287Y0294918D03*
X0236846Y0294288D03*
X0236846Y0294131D03*
X0238421Y0294761D03*
X0240311Y0294603D03*
X0241886Y0293343D03*
X0241886Y0293186D03*
X0241886Y0296965D03*
X0241886Y0297123D03*
X0237004Y0297123D03*
X0238529Y0251961D03*
X0240418Y0251803D03*
X0225773Y0252118D03*
X0223568Y0251331D03*
X0223568Y0251173D03*
X0223568Y0250386D03*
X0219631Y0251488D03*
X0219631Y0251646D03*
X0219631Y0253220D03*
X0219631Y0253378D03*
X0216526Y0245943D03*
X0179331Y0169403D03*
X0179489Y0168615D03*
X0177914Y0167041D03*
X0176811Y0167828D03*
X0175237Y0168300D03*
X0175237Y0168458D03*
X0175237Y0166568D03*
X0175237Y0166411D03*
X0171615Y0168458D03*
X0171457Y0168615D03*
X0171300Y0168773D03*
X0182273Y0150986D03*
X0199950Y0167208D03*
X0202155Y0166421D03*
X0202155Y0166263D03*
X0202155Y0165476D03*
X0211446Y0166893D03*
X0211446Y0167051D03*
X0212391Y0168153D03*
X0213336Y0167051D03*
X0229650Y0167298D03*
X0231225Y0167298D03*
X0231225Y0167456D03*
X0231225Y0166668D03*
X0231225Y0166511D03*
X0231225Y0166353D03*
X0231225Y0168715D03*
X0231225Y0168873D03*
X0240516Y0166983D03*
X0242248Y0166983D03*
X0261460Y0168960D03*
X0261617Y0168488D03*
X0261775Y0168330D03*
X0261617Y0165811D03*
X0265397Y0166598D03*
X0265397Y0166756D03*
X0265397Y0168330D03*
X0265397Y0168488D03*
X0266971Y0168016D03*
X0266971Y0167858D03*
X0267916Y0166913D03*
X0269491Y0165496D03*
X0269491Y0169433D03*
X0262393Y0151136D03*
X0350936Y0212401D03*
X0341926Y0221803D03*
X0355100Y0246091D03*
X0355100Y0246248D03*
X0355100Y0248138D03*
X0356517Y0247666D03*
X0357304Y0246563D03*
X0358722Y0247823D03*
X0358722Y0247981D03*
X0358564Y0248768D03*
X0360297Y0247981D03*
X0361871Y0247981D03*
X0361871Y0248138D03*
X0364234Y0248610D03*
X0364949Y0256063D03*
X0364949Y0256221D03*
X0365736Y0257166D03*
X0366523Y0256221D03*
X0366523Y0256063D03*
X0358807Y0256693D03*
X0358807Y0257481D03*
X0353137Y0257796D03*
X0352980Y0256693D03*
X0353137Y0255906D03*
X0352823Y0255118D03*
X0351720Y0255748D03*
X0351720Y0257481D03*
X0350775Y0258268D03*
X0353387Y0265668D03*
X0353702Y0266456D03*
X0353545Y0267243D03*
X0353702Y0268346D03*
X0352285Y0268031D03*
X0351340Y0268818D03*
X0352285Y0266298D03*
X0360946Y0266298D03*
X0360946Y0266141D03*
X0360946Y0268031D03*
X0360946Y0268188D03*
X0362364Y0267716D03*
X0363151Y0266771D03*
X0363151Y0266613D03*
X0364391Y0275461D03*
X0363131Y0276563D03*
X0362344Y0277666D03*
X0360926Y0278138D03*
X0360926Y0276248D03*
X0360926Y0276091D03*
X0364391Y0278768D03*
X0355415Y0278768D03*
X0353367Y0277666D03*
X0354155Y0276721D03*
X0354155Y0276563D03*
X0355415Y0275461D03*
X0348328Y0278453D03*
X0357247Y0286551D03*
X0358822Y0285763D03*
X0361341Y0287023D03*
X0360396Y0288126D03*
X0358822Y0289543D03*
X0363074Y0289228D03*
X0363074Y0289070D03*
X0363074Y0288913D03*
X0363074Y0288755D03*
X0363074Y0287968D03*
X0363074Y0285921D03*
X0363793Y0295878D03*
X0363793Y0297453D03*
X0363793Y0298713D03*
X0363793Y0298870D03*
X0363793Y0299028D03*
X0365368Y0298555D03*
X0360171Y0298555D03*
X0356864Y0299028D03*
X0356392Y0297926D03*
X0356392Y0297768D03*
X0354502Y0297453D03*
X0354502Y0297296D03*
X0352612Y0297768D03*
X0352612Y0297926D03*
X0352455Y0298083D03*
X0352455Y0298240D03*
X0352297Y0298555D03*
X0352140Y0298713D03*
X0352140Y0298870D03*
X0351982Y0299028D03*
X0357477Y0306431D03*
X0359052Y0305643D03*
X0361571Y0306903D03*
X0360626Y0308006D03*
X0359052Y0309423D03*
X0363304Y0309108D03*
X0363304Y0308950D03*
X0363304Y0308793D03*
X0363304Y0308635D03*
X0363304Y0307848D03*
X0363304Y0305801D03*
X0364016Y0316943D03*
X0364016Y0317101D03*
X0364961Y0318203D03*
X0365906Y0317101D03*
X0365906Y0316943D03*
X0363454Y0326011D03*
X0363454Y0328058D03*
X0363454Y0328845D03*
X0363454Y0329003D03*
X0363454Y0329160D03*
X0363454Y0329318D03*
X0361721Y0327113D03*
X0360776Y0328216D03*
X0359202Y0329633D03*
X0357627Y0326641D03*
X0359202Y0325853D03*
X0361946Y0337626D03*
X0361946Y0337783D03*
X0364151Y0339673D03*
X0365726Y0337311D03*
D87*
X0230098Y0271089D03*
X0227854Y0271089D03*
D88*
X0227913Y0271306D03*
X0228976Y0272250D03*
X0230039Y0271306D03*
X0217522Y0271596D03*
X0217522Y0271872D03*
X0237002Y0286595D03*
X0237002Y0286871D03*
X0245906Y0284905D03*
X0250497Y0285850D03*
X0250024Y0287188D03*
D89*
X0250438Y0285771D03*
X0250438Y0285495D03*
X0245965Y0285023D03*
X0228917Y0272172D03*
X0227972Y0271424D03*
X0229980Y0271424D03*
D90*
X0229921Y0271699D03*
X0228031Y0271699D03*
X0217522Y0271517D03*
X0217522Y0271950D03*
X0231704Y0286096D03*
X0237002Y0286517D03*
X0237002Y0286950D03*
X0249670Y0270495D03*
D91*
X0249729Y0270417D03*
X0229862Y0271817D03*
X0228090Y0271817D03*
X0217581Y0272069D03*
X0231763Y0286017D03*
X0236943Y0286398D03*
X0245965Y0285298D03*
D92*
X0246497Y0285633D03*
X0247087Y0287050D03*
X0248843Y0286106D03*
X0248725Y0285633D03*
X0250733Y0286106D03*
X0249670Y0272050D03*
X0249670Y0271578D03*
X0249670Y0271106D03*
X0230275Y0272034D03*
X0230275Y0272506D03*
X0230275Y0272979D03*
X0230275Y0273451D03*
X0228976Y0272506D03*
X0227677Y0272506D03*
X0227677Y0272034D03*
X0227677Y0272979D03*
X0227677Y0273451D03*
X0231704Y0286706D03*
X0231704Y0287179D03*
X0231704Y0287651D03*
D93*
X0236057Y0287678D03*
X0237002Y0286733D03*
X0236175Y0285788D03*
X0237829Y0285788D03*
X0237829Y0287678D03*
X0245906Y0284688D03*
X0235766Y0272006D03*
X0236120Y0271533D03*
X0218467Y0270789D03*
X0217522Y0271734D03*
X0218349Y0272679D03*
X0216695Y0272679D03*
X0216695Y0270789D03*
X0218858Y0285961D03*
X0218504Y0286434D03*
D94*
X0237002Y0287206D03*
X0217522Y0271261D03*
D95*
X0217522Y0271399D03*
X0231704Y0285899D03*
X0237002Y0287068D03*
X0245906Y0285417D03*
X0249670Y0270298D03*
D96*
X0250674Y0269354D03*
X0245965Y0284354D03*
X0248784Y0285495D03*
X0248784Y0285771D03*
X0232708Y0284954D03*
D97*
X0231704Y0286234D03*
X0249670Y0270633D03*
D98*
X0236179Y0273088D03*
X0249965Y0284354D03*
X0218445Y0284879D03*
D99*
X0250024Y0286913D03*
D100*
X0250024Y0287050D03*
D101*
X0245906Y0286578D03*
D102*
X0175658Y0276003D03*
X0175658Y0269703D03*
D103*
X0175422Y0269861D03*
X0175422Y0275845D03*
D104*
X0175265Y0275688D03*
X0175265Y0270018D03*
D105*
X0175186Y0270176D03*
X0175186Y0275530D03*
D106*
X0175107Y0275373D03*
X0175107Y0270333D03*
X0231807Y0292083D03*
X0231807Y0298383D03*
X0176487Y0320651D03*
X0176487Y0326635D03*
D107*
X0176330Y0326478D03*
X0176330Y0320808D03*
X0174950Y0275215D03*
X0174950Y0275058D03*
X0174950Y0270648D03*
X0174950Y0270491D03*
D108*
X0182509Y0274900D03*
X0182266Y0289980D03*
D109*
X0168965Y0274900D03*
X0361654Y0314423D03*
X0361654Y0320723D03*
D110*
X0364961Y0319148D03*
X0361811Y0315526D03*
X0358977Y0315526D03*
X0354095Y0315526D03*
X0353780Y0315841D03*
X0354642Y0308793D03*
X0354642Y0306116D03*
X0354502Y0299185D03*
X0354502Y0299028D03*
X0352770Y0295878D03*
X0350250Y0297296D03*
X0350250Y0297453D03*
X0354412Y0288913D03*
X0354412Y0286236D03*
X0357462Y0278768D03*
X0357462Y0275461D03*
X0365336Y0276248D03*
X0365336Y0276406D03*
X0365336Y0276563D03*
X0365336Y0277666D03*
X0365336Y0277823D03*
X0365336Y0277981D03*
X0367483Y0286236D03*
X0367483Y0288913D03*
X0367483Y0289070D03*
X0367573Y0297453D03*
X0367573Y0299185D03*
X0364581Y0298083D03*
X0367713Y0306116D03*
X0367713Y0308793D03*
X0367713Y0308950D03*
X0367863Y0326326D03*
X0367863Y0329003D03*
X0367863Y0329160D03*
X0367616Y0335736D03*
X0364781Y0338413D03*
X0364781Y0338570D03*
X0363521Y0336051D03*
X0361946Y0339358D03*
X0361946Y0339515D03*
X0358954Y0339673D03*
X0358797Y0339515D03*
X0358639Y0339358D03*
X0354792Y0329003D03*
X0354792Y0326326D03*
X0347541Y0280028D03*
X0348800Y0276878D03*
X0365356Y0267873D03*
X0365356Y0267716D03*
X0365356Y0266613D03*
X0365356Y0266456D03*
X0365736Y0258268D03*
X0365736Y0255748D03*
X0365736Y0255591D03*
X0365736Y0255433D03*
X0365736Y0255276D03*
X0365736Y0255118D03*
X0365736Y0254961D03*
X0365336Y0247981D03*
X0365336Y0247823D03*
X0365336Y0247666D03*
X0365336Y0246406D03*
X0365336Y0246248D03*
X0365336Y0245933D03*
X0362344Y0247666D03*
X0351635Y0245461D03*
X0351005Y0246091D03*
X0352350Y0256063D03*
X0350460Y0257008D03*
X0352915Y0266613D03*
X0232437Y0293658D03*
X0232279Y0293816D03*
X0232279Y0293973D03*
X0232122Y0294131D03*
X0232122Y0294288D03*
X0231965Y0294603D03*
X0229287Y0293343D03*
X0227870Y0297123D03*
X0174235Y0286043D03*
X0171085Y0286043D03*
X0174477Y0274585D03*
X0174477Y0271908D03*
X0174477Y0270963D03*
X0215536Y0254008D03*
X0224355Y0254323D03*
X0225773Y0250543D03*
X0228607Y0250386D03*
X0228607Y0251331D03*
X0228607Y0251488D03*
X0179479Y0323013D03*
X0172708Y0321596D03*
X0227130Y0169345D03*
X0227130Y0165723D03*
X0235477Y0165566D03*
X0257680Y0167071D03*
X0257680Y0169118D03*
X0260818Y0153656D03*
X0212391Y0169098D03*
X0209241Y0165476D03*
X0206407Y0165476D03*
X0201682Y0169098D03*
X0199950Y0165633D03*
X0197430Y0167051D03*
X0197430Y0167208D03*
X0180698Y0153506D03*
X0171300Y0165466D03*
D111*
X0175394Y0167513D03*
X0176654Y0167513D03*
X0176654Y0167356D03*
X0178071Y0167356D03*
X0178071Y0167513D03*
X0199950Y0167523D03*
X0199950Y0167681D03*
X0202155Y0166106D03*
X0202155Y0165948D03*
X0202155Y0165791D03*
X0202155Y0165633D03*
X0205619Y0169098D03*
X0205619Y0169255D03*
X0210029Y0169255D03*
X0210029Y0169098D03*
X0211289Y0167366D03*
X0212391Y0167838D03*
X0213493Y0167523D03*
X0213493Y0167366D03*
X0234689Y0169030D03*
X0234689Y0169188D03*
X0234689Y0169345D03*
X0238941Y0169345D03*
X0238941Y0169188D03*
X0238941Y0169030D03*
X0240359Y0167456D03*
X0242406Y0167456D03*
X0242406Y0167298D03*
X0261617Y0165968D03*
X0266814Y0167543D03*
X0268074Y0167386D03*
X0269491Y0166126D03*
X0269491Y0165968D03*
X0269491Y0165811D03*
X0269491Y0168803D03*
X0269491Y0168960D03*
X0269491Y0169118D03*
X0349046Y0213503D03*
X0355257Y0246721D03*
X0355257Y0246878D03*
X0355257Y0247036D03*
X0355257Y0247193D03*
X0355257Y0247351D03*
X0355257Y0247508D03*
X0356360Y0247193D03*
X0357462Y0247036D03*
X0358564Y0248296D03*
X0358564Y0248453D03*
X0358564Y0248610D03*
X0361871Y0248453D03*
X0361871Y0248296D03*
X0364391Y0248296D03*
X0364791Y0256536D03*
X0365736Y0257008D03*
X0366681Y0256536D03*
X0363689Y0257796D03*
X0363689Y0257953D03*
X0363689Y0258110D03*
X0360224Y0258110D03*
X0360224Y0257953D03*
X0360224Y0257796D03*
X0352980Y0257323D03*
X0352980Y0257166D03*
X0352980Y0257008D03*
X0352980Y0256851D03*
X0353137Y0255748D03*
X0353137Y0255591D03*
X0352980Y0255433D03*
X0352980Y0255276D03*
X0350618Y0258110D03*
X0353545Y0265826D03*
X0353545Y0265983D03*
X0353702Y0266141D03*
X0353702Y0266298D03*
X0353545Y0267401D03*
X0353545Y0267558D03*
X0353545Y0267716D03*
X0353545Y0267873D03*
X0351183Y0268660D03*
X0355415Y0275618D03*
X0355415Y0275776D03*
X0355415Y0275933D03*
X0355415Y0276091D03*
X0355415Y0276248D03*
X0355415Y0276406D03*
X0355415Y0276563D03*
X0355415Y0276721D03*
X0355415Y0276878D03*
X0355415Y0277036D03*
X0355415Y0277193D03*
X0355415Y0277351D03*
X0355415Y0277508D03*
X0355415Y0277666D03*
X0355415Y0277823D03*
X0355415Y0277981D03*
X0355415Y0278138D03*
X0355415Y0278296D03*
X0355415Y0278453D03*
X0355415Y0278610D03*
X0354312Y0277036D03*
X0353210Y0277193D03*
X0353210Y0277351D03*
X0352108Y0278296D03*
X0352108Y0278453D03*
X0352108Y0278610D03*
X0352108Y0278768D03*
X0361084Y0277508D03*
X0361084Y0277351D03*
X0361084Y0277193D03*
X0361084Y0277036D03*
X0361084Y0276878D03*
X0361084Y0276721D03*
X0362186Y0277193D03*
X0363289Y0277036D03*
X0364391Y0275933D03*
X0364391Y0275776D03*
X0364391Y0275618D03*
X0364391Y0278296D03*
X0364391Y0278453D03*
X0364391Y0278610D03*
X0361499Y0287338D03*
X0361499Y0287496D03*
X0360239Y0287653D03*
X0363636Y0296666D03*
X0356707Y0298713D03*
X0356549Y0298398D03*
X0354502Y0297138D03*
X0354502Y0296981D03*
X0361729Y0307218D03*
X0361729Y0307376D03*
X0360469Y0307533D03*
X0363859Y0317416D03*
X0363859Y0317573D03*
X0364961Y0317888D03*
X0366063Y0317573D03*
X0366063Y0317416D03*
X0362599Y0319148D03*
X0362599Y0319305D03*
X0358189Y0319305D03*
X0358189Y0319148D03*
X0360619Y0327743D03*
X0361879Y0327586D03*
X0361879Y0327428D03*
X0361946Y0337311D03*
X0361946Y0337468D03*
X0364411Y0268660D03*
X0364411Y0268503D03*
X0364411Y0268346D03*
X0364411Y0268188D03*
X0363309Y0267086D03*
X0362206Y0267243D03*
X0362206Y0267401D03*
X0361104Y0267401D03*
X0361104Y0267243D03*
X0361104Y0267086D03*
X0361104Y0266928D03*
X0364411Y0266141D03*
X0364411Y0265983D03*
X0364411Y0265826D03*
X0364411Y0265668D03*
X0240576Y0252276D03*
X0238371Y0252433D03*
X0237111Y0253850D03*
X0237111Y0254008D03*
X0237111Y0254165D03*
X0232859Y0254165D03*
X0232859Y0254008D03*
X0232859Y0253850D03*
X0232859Y0254323D03*
X0225773Y0252433D03*
X0181721Y0272696D03*
X0181721Y0272853D03*
X0180304Y0272853D03*
X0179044Y0272853D03*
X0170855Y0272696D03*
X0169438Y0272696D03*
X0169438Y0272853D03*
X0168178Y0274270D03*
X0168178Y0274428D03*
X0168178Y0274585D03*
X0168880Y0286043D03*
X0168880Y0286201D03*
X0168880Y0286358D03*
X0171085Y0287933D03*
X0171085Y0288091D03*
X0164943Y0288091D03*
X0164943Y0288248D03*
X0164943Y0288406D03*
X0164943Y0287933D03*
X0164943Y0287776D03*
X0164943Y0287618D03*
X0164943Y0287461D03*
X0178644Y0287618D03*
X0178644Y0287776D03*
X0178644Y0287933D03*
X0178644Y0288091D03*
X0178644Y0288248D03*
X0179904Y0287933D03*
X0181321Y0287933D03*
X0181321Y0287776D03*
X0222988Y0294918D03*
X0222988Y0295076D03*
X0222988Y0295233D03*
X0222988Y0295391D03*
X0222988Y0295548D03*
X0229287Y0295233D03*
X0238264Y0295233D03*
X0240468Y0295076D03*
X0180267Y0323958D03*
X0180267Y0324116D03*
X0180267Y0324273D03*
X0180267Y0324745D03*
X0180267Y0324903D03*
X0180267Y0325060D03*
D112*
X0175022Y0287146D03*
X0175579Y0273326D03*
X0175579Y0273168D03*
X0175579Y0273011D03*
X0175579Y0272853D03*
X0175579Y0272696D03*
X0175579Y0272538D03*
X0175579Y0272381D03*
X0163296Y0271751D03*
X0163296Y0271593D03*
X0163296Y0271436D03*
X0163296Y0273955D03*
X0262089Y0167386D03*
X0280661Y0153016D03*
X0350011Y0192856D03*
X0346366Y0256536D03*
X0346366Y0256693D03*
X0346208Y0257638D03*
X0346773Y0267401D03*
X0346773Y0267558D03*
X0346773Y0267716D03*
X0346773Y0267873D03*
X0346773Y0268031D03*
X0346773Y0268188D03*
X0160971Y0152376D03*
D113*
X0161050Y0152218D03*
X0161050Y0152061D03*
X0161050Y0151903D03*
X0262011Y0167543D03*
X0280740Y0152858D03*
X0280740Y0152701D03*
X0280740Y0152543D03*
X0350090Y0192383D03*
X0350090Y0192541D03*
X0350090Y0192698D03*
X0346287Y0256851D03*
X0346287Y0257008D03*
X0346287Y0257166D03*
X0346287Y0257323D03*
X0346287Y0257481D03*
X0163217Y0271908D03*
X0163217Y0272066D03*
X0163217Y0272223D03*
X0163217Y0272381D03*
X0163217Y0272538D03*
X0163217Y0272696D03*
X0163217Y0272853D03*
X0163217Y0273011D03*
X0163217Y0273168D03*
X0163217Y0273326D03*
X0163217Y0273483D03*
X0163217Y0273640D03*
X0163217Y0273798D03*
X0163967Y0322698D03*
D114*
X0163731Y0322856D03*
X0173810Y0322856D03*
X0173810Y0323013D03*
X0173810Y0322698D03*
X0173810Y0322541D03*
X0173810Y0324116D03*
X0173810Y0324273D03*
X0173810Y0324430D03*
X0173810Y0324588D03*
X0173447Y0289823D03*
X0163611Y0270806D03*
X0262247Y0167228D03*
X0346523Y0256221D03*
X0346931Y0266928D03*
X0359112Y0336681D03*
X0358954Y0336838D03*
X0358797Y0337153D03*
X0358639Y0337468D03*
X0358639Y0337626D03*
D115*
X0231098Y0297595D03*
X0231098Y0292871D03*
X0174156Y0291083D03*
X0174156Y0284783D03*
D116*
X0173920Y0284941D03*
X0173920Y0290925D03*
D117*
X0173762Y0290768D03*
X0173762Y0285098D03*
D118*
X0173683Y0285256D03*
X0173683Y0290610D03*
D119*
X0173605Y0290453D03*
X0173605Y0285413D03*
D120*
X0173447Y0285571D03*
X0173447Y0285728D03*
X0173447Y0290138D03*
X0173447Y0290295D03*
D121*
X0167384Y0289980D03*
D122*
X0160534Y0289823D03*
X0160061Y0287461D03*
X0160061Y0287303D03*
X0163574Y0323013D03*
X0164046Y0325533D03*
X0347088Y0266613D03*
X0348171Y0275461D03*
X0358249Y0276878D03*
X0358249Y0277036D03*
X0358249Y0277193D03*
X0358249Y0277351D03*
X0358269Y0267243D03*
X0358269Y0267086D03*
X0346681Y0255906D03*
X0364549Y0246563D03*
X0366786Y0296823D03*
X0353465Y0317101D03*
X0359584Y0336051D03*
X0359427Y0336208D03*
X0358482Y0338098D03*
X0358482Y0338255D03*
X0172244Y0167671D03*
X0172244Y0167513D03*
X0172244Y0167356D03*
X0172244Y0167198D03*
X0172244Y0167041D03*
D123*
X0172166Y0166883D03*
X0172166Y0166726D03*
X0180777Y0152088D03*
X0180777Y0151931D03*
X0260897Y0152081D03*
X0260897Y0152238D03*
X0350612Y0247823D03*
X0350926Y0248768D03*
X0346760Y0255748D03*
X0347167Y0266456D03*
X0358191Y0266771D03*
X0358191Y0266928D03*
X0358191Y0267401D03*
X0358191Y0267558D03*
X0358171Y0276563D03*
X0358171Y0276721D03*
X0358171Y0277508D03*
X0358171Y0277666D03*
X0348124Y0299500D03*
X0353544Y0316943D03*
X0353386Y0317258D03*
X0359820Y0335736D03*
X0359663Y0335893D03*
X0228056Y0254008D03*
X0218185Y0294446D03*
X0218185Y0294603D03*
X0218185Y0294761D03*
X0218657Y0297123D03*
X0173368Y0289665D03*
X0160298Y0289665D03*
X0159983Y0287618D03*
X0159983Y0287146D03*
X0159983Y0286988D03*
X0163495Y0323171D03*
X0163810Y0325375D03*
D124*
X0163731Y0325218D03*
X0163574Y0325060D03*
X0163416Y0323486D03*
X0163416Y0323328D03*
X0184991Y0321753D03*
X0218579Y0296965D03*
X0218106Y0295076D03*
X0218106Y0294918D03*
X0231335Y0297123D03*
X0160219Y0289508D03*
X0160061Y0289350D03*
X0160061Y0289193D03*
X0159904Y0288878D03*
X0159904Y0288091D03*
X0159904Y0287933D03*
X0159904Y0287776D03*
X0160061Y0286831D03*
X0262404Y0166913D03*
X0260818Y0152396D03*
X0180698Y0152246D03*
X0346838Y0255591D03*
X0350690Y0248610D03*
X0350533Y0247981D03*
X0347246Y0266298D03*
X0348171Y0275618D03*
X0358112Y0267716D03*
X0358112Y0266613D03*
X0346628Y0296823D03*
X0346628Y0297926D03*
X0346628Y0298083D03*
X0353465Y0316786D03*
X0353307Y0317416D03*
X0353307Y0317573D03*
X0358482Y0338413D03*
X0358482Y0338570D03*
X0366986Y0336996D03*
D125*
X0366119Y0339830D03*
X0351714Y0246878D03*
X0174786Y0288248D03*
X0174786Y0288406D03*
X0174628Y0288563D03*
X0164597Y0321911D03*
X0164597Y0322068D03*
D126*
X0164676Y0321753D03*
X0164833Y0321596D03*
X0174865Y0288091D03*
X0174865Y0287933D03*
D127*
X0174943Y0287776D03*
X0174943Y0287618D03*
X0351714Y0246721D03*
D128*
X0351793Y0246563D03*
X0175022Y0287303D03*
X0175022Y0287461D03*
D129*
X0176723Y0320493D03*
X0176723Y0326793D03*
D130*
X0176251Y0326320D03*
X0176251Y0320966D03*
X0231571Y0298225D03*
X0231571Y0292241D03*
D131*
X0176172Y0321123D03*
X0176172Y0326163D03*
D132*
X0176015Y0326005D03*
X0176015Y0325848D03*
X0176015Y0321438D03*
X0176015Y0321281D03*
D133*
X0184361Y0325690D03*
X0363521Y0335421D03*
X0363521Y0340145D03*
D134*
X0361024Y0319620D03*
X0170345Y0325690D03*
D135*
X0164519Y0322541D03*
X0164519Y0322383D03*
X0164519Y0322226D03*
X0351478Y0247666D03*
X0351478Y0247508D03*
X0351635Y0247036D03*
D136*
X0346602Y0256063D03*
X0347009Y0266771D03*
X0359348Y0336366D03*
X0359190Y0336523D03*
X0358560Y0337783D03*
X0358560Y0337941D03*
X0228214Y0254165D03*
X0184912Y0321596D03*
X0262326Y0167071D03*
X0260897Y0151923D03*
X0180777Y0151773D03*
D137*
X0231413Y0292398D03*
X0231413Y0298068D03*
D138*
X0231256Y0297910D03*
X0231256Y0292556D03*
D139*
X0231177Y0292713D03*
X0231177Y0297753D03*
D140*
X0231020Y0297438D03*
X0231020Y0293028D03*
D141*
X0230941Y0297280D03*
D142*
X0229001Y0255583D03*
X0229001Y0255425D03*
X0229001Y0255268D03*
X0229001Y0255110D03*
X0229001Y0254953D03*
X0229001Y0254795D03*
X0229001Y0254638D03*
X0229001Y0254480D03*
X0229001Y0250228D03*
X0229001Y0250071D03*
X0229001Y0249913D03*
X0229001Y0249756D03*
X0229001Y0249598D03*
X0229001Y0249441D03*
X0229001Y0249283D03*
D143*
X0336900Y0290054D03*
X0339263Y0302023D03*
X0339263Y0321708D03*
X0339105Y0330842D03*
X0338948Y0335094D03*
X0336428Y0334621D03*
D144*
X0336428Y0332259D03*
X0340522Y0332259D03*
X0340522Y0329424D03*
X0340522Y0317928D03*
X0340522Y0315724D03*
D145*
X0336428Y0329346D03*
X0340680Y0297850D03*
X0339263Y0291078D03*
X0337530Y0289346D03*
D146*
X0336428Y0293676D03*
X0336428Y0326590D03*
D147*
X0337058Y0329503D03*
X0337215Y0329661D03*
X0337373Y0329818D03*
X0337530Y0329976D03*
X0337688Y0331550D03*
X0337530Y0331708D03*
X0337373Y0331865D03*
X0337215Y0332023D03*
X0339420Y0331708D03*
X0339577Y0331865D03*
X0339735Y0332023D03*
X0339892Y0332023D03*
X0340050Y0332180D03*
X0339420Y0329976D03*
X0339577Y0329818D03*
X0339735Y0329661D03*
X0339892Y0329503D03*
X0336428Y0321787D03*
X0339577Y0318007D03*
X0339735Y0318007D03*
X0337373Y0316905D03*
X0336428Y0312653D03*
X0337058Y0306669D03*
X0337215Y0306669D03*
X0340050Y0304306D03*
X0336428Y0302102D03*
X0339577Y0298794D03*
X0340522Y0297850D03*
X0338003Y0290763D03*
X0340522Y0290133D03*
D148*
X0340680Y0290054D03*
X0336428Y0296511D03*
X0336428Y0299188D03*
X0336428Y0308322D03*
X0336428Y0314779D03*
X0336428Y0319031D03*
D149*
X0336743Y0319109D03*
X0336900Y0319109D03*
X0337215Y0318952D03*
X0337373Y0318952D03*
X0337530Y0318794D03*
X0337688Y0318794D03*
X0337845Y0318794D03*
X0338003Y0318637D03*
X0338160Y0318637D03*
X0338318Y0318637D03*
X0338160Y0320212D03*
X0338003Y0320212D03*
X0337845Y0320212D03*
X0337688Y0320212D03*
X0337688Y0322417D03*
X0337845Y0322417D03*
X0338003Y0322417D03*
X0338160Y0322417D03*
X0338318Y0322417D03*
X0337530Y0322417D03*
X0339577Y0322417D03*
X0339735Y0322417D03*
X0339892Y0322417D03*
X0340050Y0322417D03*
X0340207Y0322417D03*
X0340365Y0322417D03*
X0340207Y0326669D03*
X0340050Y0326669D03*
X0339892Y0326669D03*
X0339735Y0326669D03*
X0339577Y0326669D03*
X0339420Y0326669D03*
X0339263Y0326669D03*
X0339105Y0326669D03*
X0338948Y0326669D03*
X0338790Y0326669D03*
X0338633Y0326669D03*
X0338475Y0326669D03*
X0338318Y0326669D03*
X0338160Y0326669D03*
X0338003Y0326669D03*
X0337845Y0326669D03*
X0337688Y0326669D03*
X0337530Y0326669D03*
X0337373Y0326669D03*
X0336743Y0329346D03*
X0340207Y0329346D03*
X0339420Y0335802D03*
X0339263Y0335802D03*
X0339105Y0335802D03*
X0337845Y0335802D03*
X0337688Y0335802D03*
X0337530Y0335802D03*
X0340050Y0318007D03*
X0340207Y0318007D03*
X0338318Y0315172D03*
X0338160Y0315015D03*
X0338003Y0315015D03*
X0337845Y0315015D03*
X0337688Y0314857D03*
X0337530Y0314857D03*
X0337373Y0314857D03*
X0337215Y0314700D03*
X0337058Y0314700D03*
X0336900Y0314700D03*
X0337530Y0313283D03*
X0337688Y0313283D03*
X0337845Y0313283D03*
X0338003Y0313283D03*
X0338160Y0313283D03*
X0338318Y0313283D03*
X0339577Y0313283D03*
X0339735Y0313283D03*
X0339892Y0313283D03*
X0340050Y0313283D03*
X0340207Y0313283D03*
X0340365Y0313283D03*
X0339735Y0311235D03*
X0340050Y0311078D03*
X0340207Y0311078D03*
X0338160Y0311078D03*
X0338003Y0311078D03*
X0337845Y0311078D03*
X0337688Y0311078D03*
X0337688Y0308243D03*
X0337845Y0308243D03*
X0338003Y0308243D03*
X0338160Y0308243D03*
X0338318Y0308243D03*
X0338475Y0308243D03*
X0338633Y0308243D03*
X0338790Y0308243D03*
X0338948Y0308243D03*
X0339105Y0308243D03*
X0339263Y0308243D03*
X0339420Y0308243D03*
X0339577Y0308243D03*
X0339735Y0308243D03*
X0339892Y0308243D03*
X0340050Y0308243D03*
X0340207Y0308243D03*
X0340207Y0306826D03*
X0340050Y0306826D03*
X0339892Y0306826D03*
X0339735Y0306826D03*
X0339577Y0306826D03*
X0339420Y0306826D03*
X0339263Y0306826D03*
X0339105Y0306826D03*
X0338948Y0306826D03*
X0338790Y0306826D03*
X0338633Y0306826D03*
X0338475Y0306826D03*
X0338475Y0305566D03*
X0338475Y0304149D03*
X0338318Y0304149D03*
X0338160Y0304149D03*
X0338003Y0304149D03*
X0337845Y0304149D03*
X0337688Y0304149D03*
X0337530Y0304149D03*
X0337373Y0304149D03*
X0337215Y0304149D03*
X0337058Y0304149D03*
X0336900Y0304149D03*
X0337530Y0302731D03*
X0337688Y0302731D03*
X0337845Y0302731D03*
X0338003Y0302731D03*
X0338160Y0302731D03*
X0338318Y0302731D03*
X0339577Y0302731D03*
X0339735Y0302731D03*
X0339892Y0302731D03*
X0340050Y0302731D03*
X0340207Y0302731D03*
X0340365Y0302731D03*
X0338633Y0304149D03*
X0340365Y0306826D03*
X0337530Y0308243D03*
X0337373Y0308243D03*
X0337215Y0308243D03*
X0337058Y0308243D03*
X0336900Y0308243D03*
X0336743Y0306826D03*
X0337688Y0300527D03*
X0337845Y0300527D03*
X0338003Y0300527D03*
X0338160Y0300527D03*
X0338160Y0299109D03*
X0338003Y0299109D03*
X0337845Y0299109D03*
X0337688Y0299109D03*
X0337530Y0299109D03*
X0337373Y0299109D03*
X0337215Y0299109D03*
X0337058Y0299109D03*
X0336900Y0299109D03*
X0338318Y0299109D03*
X0338475Y0299109D03*
X0338633Y0299109D03*
X0338790Y0299109D03*
X0338948Y0299109D03*
X0339105Y0299109D03*
X0339263Y0299109D03*
X0339420Y0298952D03*
X0339263Y0296590D03*
X0339105Y0296590D03*
X0338948Y0296590D03*
X0338948Y0293755D03*
X0339105Y0293755D03*
X0339263Y0293755D03*
X0339420Y0293755D03*
X0339577Y0293755D03*
X0339735Y0293755D03*
X0339892Y0293755D03*
X0340050Y0293755D03*
X0340207Y0293755D03*
X0338790Y0293755D03*
X0338633Y0293755D03*
X0338475Y0293755D03*
X0338318Y0293755D03*
X0338160Y0293755D03*
X0338003Y0293755D03*
X0337845Y0293755D03*
X0337688Y0293755D03*
X0337530Y0293755D03*
X0337373Y0293755D03*
X0337688Y0291078D03*
X0337845Y0290920D03*
X0337373Y0290920D03*
X0336428Y0290133D03*
X0339263Y0289031D03*
X0339420Y0289031D03*
X0339577Y0289188D03*
X0336900Y0316905D03*
D150*
X0337215Y0321393D03*
X0337373Y0321393D03*
X0338475Y0321393D03*
X0338633Y0321393D03*
X0338790Y0321393D03*
X0338633Y0312259D03*
X0338475Y0312259D03*
X0337373Y0312259D03*
X0337215Y0312259D03*
X0337215Y0301708D03*
X0337373Y0301708D03*
X0338475Y0301708D03*
X0338633Y0301708D03*
X0339735Y0297771D03*
X0336585Y0334621D03*
X0337373Y0334779D03*
D151*
X0336585Y0332259D03*
X0340365Y0332259D03*
X0340365Y0329424D03*
X0340365Y0326590D03*
X0340365Y0317928D03*
X0340365Y0315724D03*
X0340207Y0315724D03*
X0336743Y0316826D03*
X0336743Y0314621D03*
X0336585Y0314621D03*
X0340365Y0310999D03*
X0340365Y0308322D03*
X0336743Y0308322D03*
X0336585Y0308322D03*
X0336585Y0304228D03*
X0336743Y0304228D03*
X0340365Y0304228D03*
X0336743Y0299188D03*
X0336585Y0299188D03*
X0336585Y0296511D03*
X0336743Y0296511D03*
X0336900Y0296511D03*
X0337058Y0296511D03*
X0337215Y0296511D03*
X0337373Y0296511D03*
X0337530Y0296511D03*
X0337688Y0296511D03*
X0337845Y0296511D03*
X0338003Y0296511D03*
X0338160Y0296511D03*
X0338318Y0296511D03*
X0338475Y0296511D03*
X0338633Y0296511D03*
X0338790Y0296511D03*
X0340365Y0293676D03*
X0337530Y0290999D03*
X0337373Y0289424D03*
D152*
X0339420Y0291078D03*
X0340522Y0293755D03*
X0340522Y0302731D03*
X0340522Y0304149D03*
X0340522Y0306826D03*
X0340522Y0308243D03*
X0340522Y0311078D03*
X0340522Y0313283D03*
X0336585Y0316905D03*
X0336585Y0319109D03*
X0340522Y0322417D03*
X0340522Y0326669D03*
X0336585Y0329346D03*
X0336585Y0306826D03*
D153*
X0336585Y0293755D03*
X0336743Y0293755D03*
X0337058Y0293755D03*
X0337058Y0326669D03*
X0336743Y0326669D03*
X0336585Y0326669D03*
D154*
X0338948Y0330842D03*
X0339420Y0321865D03*
X0336585Y0321708D03*
X0338633Y0315724D03*
X0336585Y0312574D03*
X0338160Y0306275D03*
X0338948Y0304700D03*
X0339420Y0302180D03*
X0336585Y0302023D03*
X0336743Y0290054D03*
D155*
X0336585Y0290054D03*
X0339420Y0304543D03*
X0337845Y0306432D03*
X0337688Y0306432D03*
X0338790Y0315724D03*
X0338948Y0315724D03*
X0339105Y0315724D03*
X0338160Y0316826D03*
X0338003Y0316826D03*
X0338948Y0317928D03*
X0338790Y0330842D03*
D156*
X0339735Y0334700D03*
X0339892Y0334700D03*
X0340050Y0334700D03*
X0340207Y0334700D03*
X0340365Y0334700D03*
X0337215Y0334700D03*
X0337058Y0334700D03*
X0336900Y0334700D03*
X0336743Y0334700D03*
D157*
X0336743Y0332259D03*
X0336900Y0332259D03*
X0337058Y0332102D03*
X0337688Y0330054D03*
X0336900Y0329424D03*
X0340050Y0329424D03*
X0340207Y0332259D03*
X0338318Y0320291D03*
X0337530Y0320291D03*
X0337058Y0319031D03*
X0337058Y0316826D03*
X0337215Y0316826D03*
X0339735Y0315724D03*
X0339892Y0315724D03*
X0340050Y0315724D03*
X0339892Y0317928D03*
X0339577Y0311314D03*
X0339892Y0311157D03*
X0338318Y0311157D03*
X0337530Y0311157D03*
X0336900Y0306747D03*
X0338633Y0305487D03*
X0340207Y0304228D03*
X0338318Y0300606D03*
X0337530Y0300606D03*
X0339577Y0296826D03*
X0339420Y0296669D03*
X0339577Y0290999D03*
X0339105Y0289109D03*
D158*
X0340050Y0290133D03*
X0337215Y0290133D03*
X0337058Y0290133D03*
X0340050Y0297850D03*
X0339105Y0301944D03*
X0336743Y0301944D03*
X0336743Y0312495D03*
X0336743Y0321629D03*
X0337845Y0330763D03*
X0338160Y0335015D03*
X0338318Y0335015D03*
X0338475Y0335015D03*
X0338633Y0335015D03*
X0338790Y0335015D03*
D159*
X0336900Y0326590D03*
X0336900Y0293676D03*
D160*
X0336900Y0301865D03*
X0336900Y0312417D03*
X0339105Y0312417D03*
X0339105Y0321550D03*
X0336900Y0321550D03*
X0339263Y0330842D03*
D161*
X0339577Y0334857D03*
X0340522Y0334700D03*
X0338948Y0321472D03*
X0337058Y0321472D03*
X0337058Y0312338D03*
X0338790Y0312338D03*
X0338948Y0312338D03*
X0339263Y0312338D03*
X0339420Y0312338D03*
X0338948Y0301787D03*
X0338790Y0301787D03*
X0337058Y0301787D03*
X0339892Y0297850D03*
X0339892Y0290133D03*
X0339735Y0290133D03*
D162*
X0337215Y0293676D03*
X0337215Y0326590D03*
D163*
X0338475Y0330842D03*
X0339420Y0317928D03*
X0337688Y0316826D03*
X0337530Y0316826D03*
X0339263Y0315724D03*
X0339420Y0315724D03*
X0339577Y0315724D03*
X0337373Y0306590D03*
X0339735Y0304385D03*
X0339892Y0304385D03*
X0338948Y0289424D03*
D164*
X0339577Y0304464D03*
X0337530Y0306511D03*
X0337845Y0316905D03*
X0339105Y0318007D03*
X0339263Y0318007D03*
X0338633Y0330763D03*
X0338318Y0330763D03*
D165*
X0338003Y0330763D03*
X0338003Y0335172D03*
X0338318Y0306196D03*
X0338790Y0304779D03*
X0340207Y0297850D03*
X0340207Y0290133D03*
X0338633Y0289818D03*
X0338475Y0289976D03*
X0338318Y0290133D03*
D166*
X0338160Y0290448D03*
X0338790Y0289661D03*
X0340365Y0290133D03*
X0340365Y0297850D03*
X0339263Y0304621D03*
X0339105Y0304621D03*
X0338003Y0306354D03*
X0338318Y0316905D03*
X0338633Y0318007D03*
X0338790Y0318007D03*
X0338160Y0330763D03*
D167*
X0338475Y0316826D03*
D168*
X0363993Y0334633D03*
X0363993Y0340933D03*
D169*
X0363836Y0340775D03*
X0363836Y0334791D03*
D170*
X0363757Y0334948D03*
X0363757Y0340618D03*
D171*
X0363679Y0340460D03*
X0363679Y0335106D03*
D172*
X0363600Y0335263D03*
X0363600Y0340303D03*
D173*
X0363442Y0339988D03*
X0363442Y0335578D03*
D174*
X0361496Y0320565D03*
X0361496Y0314581D03*
D175*
X0361418Y0314738D03*
X0361178Y0310683D03*
X0361178Y0310525D03*
X0361178Y0310368D03*
X0361178Y0310210D03*
X0361178Y0310053D03*
X0361178Y0309895D03*
X0361178Y0309738D03*
X0361178Y0305328D03*
X0361178Y0305171D03*
X0361178Y0305013D03*
X0361178Y0304856D03*
X0361178Y0304698D03*
X0361178Y0304541D03*
X0361178Y0304383D03*
X0360948Y0290803D03*
X0360948Y0290645D03*
X0360948Y0290488D03*
X0360948Y0290330D03*
X0360948Y0290173D03*
X0360948Y0290015D03*
X0360948Y0289858D03*
X0360948Y0285448D03*
X0360948Y0285291D03*
X0360948Y0285133D03*
X0360948Y0284976D03*
X0360948Y0284818D03*
X0360948Y0284661D03*
X0360948Y0284503D03*
X0361418Y0320408D03*
X0361328Y0324593D03*
X0361328Y0324751D03*
X0361328Y0324908D03*
X0361328Y0325066D03*
X0361328Y0325223D03*
X0361328Y0325381D03*
X0361328Y0325538D03*
X0361328Y0329948D03*
X0361328Y0330105D03*
X0361328Y0330263D03*
X0361328Y0330420D03*
X0361328Y0330578D03*
X0361328Y0330735D03*
X0361328Y0330893D03*
D176*
X0361339Y0320250D03*
X0361339Y0314896D03*
D177*
X0361260Y0315053D03*
X0361260Y0320093D03*
D178*
X0361181Y0319935D03*
X0361181Y0315211D03*
D179*
X0361103Y0315368D03*
X0361103Y0319778D03*
D180*
X0358045Y0300603D03*
X0358045Y0294303D03*
D181*
X0357967Y0294461D03*
X0357967Y0300445D03*
X0358249Y0278925D03*
D182*
X0358171Y0279083D03*
X0357888Y0294618D03*
X0357888Y0300288D03*
D183*
X0357809Y0300130D03*
X0357809Y0294776D03*
X0358092Y0279240D03*
X0358112Y0271023D03*
X0358112Y0264723D03*
D184*
X0358013Y0279398D03*
X0357730Y0294933D03*
X0357730Y0299973D03*
D185*
X0357652Y0299815D03*
X0357652Y0295091D03*
X0357954Y0270865D03*
X0357954Y0264881D03*
D186*
X0357876Y0265038D03*
X0357876Y0270708D03*
X0357573Y0295248D03*
X0357573Y0299658D03*
D187*
X0360565Y0299500D03*
D188*
X0357797Y0270550D03*
X0357797Y0265196D03*
D189*
X0357246Y0269448D03*
X0357226Y0274673D03*
X0357226Y0280973D03*
X0357626Y0254803D03*
D190*
X0357167Y0269290D03*
D191*
X0357088Y0269133D03*
D192*
X0357009Y0268975D03*
D193*
X0357718Y0265353D03*
D194*
X0358019Y0260473D03*
X0358019Y0254173D03*
D195*
X0357862Y0254331D03*
X0357862Y0260315D03*
X0357462Y0275146D03*
X0357462Y0280500D03*
D196*
X0357383Y0280658D03*
X0357383Y0274988D03*
X0357783Y0260158D03*
X0357783Y0254488D03*
D197*
X0357704Y0254646D03*
X0357704Y0260000D03*
X0357304Y0274831D03*
X0357304Y0280815D03*
D198*
X0357153Y0258898D03*
D199*
X0357075Y0258740D03*
D200*
X0356996Y0258583D03*
D201*
X0356917Y0258425D03*
D202*
X0360218Y0250973D03*
X0360218Y0244673D03*
D203*
X0360139Y0244831D03*
X0360139Y0250815D03*
D204*
X0360060Y0250658D03*
X0360060Y0244988D03*
X0265633Y0170693D03*
X0265633Y0170535D03*
X0265633Y0170378D03*
X0265633Y0170220D03*
X0265633Y0170063D03*
X0265633Y0169905D03*
X0265633Y0169748D03*
X0265633Y0165338D03*
X0265633Y0165181D03*
X0265633Y0165023D03*
X0265633Y0164866D03*
X0265633Y0164708D03*
X0265633Y0164551D03*
X0265633Y0164393D03*
D205*
X0359982Y0245146D03*
X0359982Y0250500D03*
D206*
X0359430Y0249398D03*
X0235713Y0170763D03*
X0235713Y0170605D03*
X0235713Y0170448D03*
X0235713Y0170290D03*
X0235713Y0170133D03*
X0235713Y0169975D03*
X0235713Y0169818D03*
X0235713Y0169660D03*
X0235713Y0165408D03*
X0235713Y0165251D03*
X0235713Y0165093D03*
X0235713Y0164936D03*
X0235713Y0164778D03*
X0235713Y0164621D03*
X0235713Y0164463D03*
D207*
X0359352Y0249240D03*
D208*
X0359273Y0249083D03*
D209*
X0359194Y0248925D03*
D210*
X0351556Y0247351D03*
X0351556Y0247193D03*
D211*
X0359903Y0245303D03*
D212*
X0358822Y0289700D03*
X0359052Y0309580D03*
X0359202Y0329790D03*
D213*
X0357541Y0275303D03*
D214*
X0176103Y0170663D03*
X0176103Y0170505D03*
X0176103Y0170348D03*
X0176103Y0170190D03*
X0176103Y0170033D03*
X0176103Y0169875D03*
X0176103Y0169718D03*
X0176103Y0169560D03*
X0176103Y0165308D03*
X0176103Y0165151D03*
X0176103Y0164993D03*
X0176103Y0164836D03*
X0176103Y0164678D03*
X0176103Y0164521D03*
X0176103Y0164363D03*
D215*
X0267444Y0169590D03*
D216*
X0206328Y0169570D03*
X0206328Y0169728D03*
X0206328Y0169885D03*
X0206328Y0170043D03*
X0206328Y0170200D03*
X0206328Y0170358D03*
X0206328Y0170515D03*
X0206328Y0170673D03*
X0206328Y0165318D03*
X0206328Y0165161D03*
X0206328Y0165003D03*
X0206328Y0164846D03*
X0206328Y0164688D03*
X0206328Y0164531D03*
X0206328Y0164373D03*
D217*
X0257029Y0310541D03*
X0281045Y0321171D03*
X0225533Y0321171D03*
D218*
X0232817Y0321171D03*
X0239116Y0321171D03*
X0244628Y0310935D03*
X0257226Y0318415D03*
X0262738Y0315659D03*
D219*
X0281045Y0314478D03*
X0225533Y0314478D03*
X0217659Y0321171D03*
D220*
X0225533Y0320777D03*
X0229470Y0310935D03*
X0233014Y0310935D03*
X0217659Y0310935D03*
X0247580Y0318022D03*
X0264903Y0320384D03*
X0269628Y0318022D03*
X0274352Y0318022D03*
X0281045Y0320777D03*
X0284982Y0310935D03*
X0269628Y0310935D03*
D221*
X0264903Y0320777D03*
D222*
X0269431Y0317628D03*
X0274549Y0317628D03*
X0274549Y0317234D03*
X0281242Y0320384D03*
X0285179Y0311329D03*
X0277305Y0311329D03*
X0272580Y0310935D03*
X0263525Y0310935D03*
X0254470Y0314478D03*
X0254470Y0314872D03*
X0247384Y0314872D03*
X0247384Y0314478D03*
X0247384Y0314085D03*
X0247384Y0310935D03*
X0247384Y0310541D03*
X0247384Y0310148D03*
X0247384Y0309754D03*
X0247384Y0309360D03*
X0247384Y0308966D03*
X0247384Y0308573D03*
X0247384Y0308179D03*
X0239116Y0311329D03*
X0239116Y0311722D03*
X0239116Y0312116D03*
X0239116Y0312510D03*
X0239116Y0312903D03*
X0239116Y0313297D03*
X0239116Y0313691D03*
X0239116Y0314085D03*
X0239116Y0314478D03*
X0239116Y0317234D03*
X0239116Y0317628D03*
X0239116Y0318022D03*
X0239116Y0318415D03*
X0239116Y0318809D03*
X0239116Y0319203D03*
X0239116Y0319596D03*
X0239116Y0319990D03*
X0239116Y0320384D03*
X0239116Y0320777D03*
X0244628Y0318022D03*
X0232817Y0320384D03*
X0232817Y0320777D03*
X0225730Y0320384D03*
X0221793Y0311329D03*
X0229667Y0311329D03*
X0232817Y0311329D03*
D223*
X0225533Y0312903D03*
X0217659Y0319596D03*
X0217659Y0319990D03*
X0217659Y0320384D03*
X0217659Y0320777D03*
X0281045Y0312903D03*
D224*
X0283407Y0315266D03*
X0283014Y0316053D03*
X0279470Y0316447D03*
X0279077Y0315659D03*
X0277502Y0312510D03*
X0277502Y0312116D03*
X0277108Y0311722D03*
X0274352Y0313691D03*
X0274352Y0314085D03*
X0274352Y0314478D03*
X0274352Y0314872D03*
X0274352Y0315266D03*
X0274352Y0315659D03*
X0274352Y0316053D03*
X0274352Y0316447D03*
X0274352Y0316840D03*
X0269628Y0316840D03*
X0269628Y0316447D03*
X0269628Y0316053D03*
X0269628Y0315659D03*
X0269628Y0315266D03*
X0269628Y0314872D03*
X0269628Y0314478D03*
X0269628Y0314085D03*
X0269628Y0313691D03*
X0269628Y0317234D03*
X0264903Y0318415D03*
X0264903Y0318809D03*
X0264903Y0319203D03*
X0264903Y0319596D03*
X0264903Y0319990D03*
X0264903Y0315266D03*
X0264903Y0314872D03*
X0264903Y0314478D03*
X0264903Y0314085D03*
X0264903Y0313691D03*
X0264903Y0313297D03*
X0259785Y0314085D03*
X0259785Y0314478D03*
X0259785Y0314872D03*
X0254667Y0315266D03*
X0254667Y0314085D03*
X0254667Y0313691D03*
X0247187Y0313691D03*
X0247187Y0315266D03*
X0242856Y0315266D03*
X0242462Y0314872D03*
X0242462Y0314478D03*
X0242462Y0314085D03*
X0242856Y0313691D03*
X0233014Y0313691D03*
X0233014Y0314085D03*
X0233014Y0314478D03*
X0233014Y0313297D03*
X0233014Y0312903D03*
X0233014Y0312510D03*
X0233014Y0312116D03*
X0233014Y0311722D03*
X0229470Y0311722D03*
X0229470Y0312116D03*
X0229077Y0312510D03*
X0227895Y0315266D03*
X0227502Y0316053D03*
X0223958Y0316447D03*
X0223565Y0315659D03*
X0221990Y0312510D03*
X0221990Y0312116D03*
X0221596Y0311722D03*
X0217659Y0311722D03*
X0217659Y0311329D03*
X0217659Y0312116D03*
X0217659Y0312510D03*
X0217659Y0312903D03*
X0217659Y0313297D03*
X0217659Y0313691D03*
X0217659Y0314085D03*
X0217659Y0314478D03*
X0217659Y0314872D03*
X0217659Y0315266D03*
X0217659Y0315659D03*
X0217659Y0316053D03*
X0217659Y0316447D03*
X0217659Y0316840D03*
X0217659Y0317234D03*
X0217659Y0317628D03*
X0217659Y0318022D03*
X0217659Y0318415D03*
X0217659Y0318809D03*
X0225533Y0319990D03*
X0233014Y0319990D03*
X0233014Y0319596D03*
X0233014Y0319203D03*
X0233014Y0318809D03*
X0233014Y0318415D03*
X0233014Y0318022D03*
X0233014Y0317628D03*
X0233014Y0317234D03*
X0281045Y0319990D03*
X0284588Y0312510D03*
X0284982Y0312116D03*
X0284982Y0311722D03*
D225*
X0283210Y0315659D03*
X0282817Y0316447D03*
X0281242Y0319596D03*
X0279273Y0316053D03*
X0278880Y0315266D03*
X0265100Y0315659D03*
X0259588Y0315266D03*
X0259195Y0315659D03*
X0259588Y0313691D03*
X0259195Y0313297D03*
X0254864Y0313297D03*
X0254864Y0315659D03*
X0246990Y0315659D03*
X0243053Y0315659D03*
X0227699Y0315659D03*
X0227305Y0316447D03*
X0225730Y0319596D03*
X0223762Y0316053D03*
X0223368Y0315266D03*
D226*
X0225533Y0319203D03*
X0257029Y0318022D03*
X0257029Y0310935D03*
X0263722Y0311329D03*
X0281045Y0319203D03*
D227*
X0281045Y0313691D03*
X0225533Y0313691D03*
X0217659Y0319203D03*
D228*
X0225730Y0318809D03*
X0263919Y0312510D03*
X0263919Y0312116D03*
X0263919Y0311722D03*
X0281242Y0318809D03*
D229*
X0281045Y0318415D03*
X0264116Y0312903D03*
X0225533Y0318415D03*
D230*
X0225730Y0318022D03*
X0257226Y0317628D03*
X0257226Y0311329D03*
X0281242Y0318022D03*
D231*
X0281045Y0317628D03*
X0264510Y0318022D03*
X0225533Y0317628D03*
D232*
X0225533Y0316840D03*
X0245612Y0317628D03*
X0245612Y0311722D03*
X0257029Y0317234D03*
X0264510Y0317234D03*
X0264510Y0316840D03*
X0264510Y0316447D03*
X0264510Y0316053D03*
X0264510Y0317628D03*
X0271203Y0311329D03*
X0281045Y0316840D03*
D233*
X0281242Y0317234D03*
X0257226Y0311722D03*
X0245809Y0311329D03*
X0225730Y0317234D03*
D234*
X0245415Y0317234D03*
X0245415Y0312116D03*
X0257226Y0312116D03*
X0257226Y0316840D03*
D235*
X0257029Y0316447D03*
X0257029Y0312510D03*
X0245218Y0312510D03*
X0245218Y0316447D03*
X0245218Y0316840D03*
X0271596Y0312116D03*
X0271596Y0311722D03*
D236*
X0281242Y0314085D03*
X0235966Y0314872D03*
X0235966Y0315266D03*
X0235966Y0315659D03*
X0235966Y0316053D03*
X0235966Y0316447D03*
X0235966Y0316840D03*
X0225730Y0314085D03*
D237*
X0257029Y0312903D03*
X0257029Y0316053D03*
X0271990Y0313297D03*
D238*
X0271793Y0312903D03*
X0271793Y0312510D03*
X0245021Y0312903D03*
X0245021Y0313297D03*
X0245021Y0316053D03*
D239*
X0225730Y0314872D03*
X0281242Y0314872D03*
D240*
X0281242Y0313297D03*
X0225730Y0313297D03*
D241*
X0221793Y0310935D03*
X0239116Y0310935D03*
X0277305Y0310935D03*
M02*
