M48
;GenerationSoftware,Autodesk,EAGLE,9.5.2*%
;CreationDate,2020-02-24T20:52:25Z*%
FMAT,2
ICI,OFF
METRIC,TZ,000.000
T8C0.350
T7C0.356
T6C0.381
T5C0.508
T4C0.650
T3C1.000
T2C1.016
T1C3.048
%
G90
M71
T1
X61500Y52500
X3500Y3500
X3500Y52500
X61500Y3500
T2
X32766Y3175
X35306Y3175
X27686Y3175
X20066Y3175
X30226Y3175
X22606Y3175
X14986Y3175
X17526Y3175
X9906Y3175
X12446Y3175
X63500Y43180
X63500Y40640
X63500Y45720
X63500Y27940
X63500Y25400
X63500Y48260
X63500Y38100
X63500Y35560
X55753Y16510
X56007Y13970
X55753Y11430
X53213Y16510
X53467Y13970
X53213Y11430
X50673Y16510
X50927Y13970
X50673Y11430
X48133Y16510
X48387Y13970
X48133Y11430
X63500Y30480
X63500Y33020
X37846Y3175
X40386Y3175
T3
X9642Y52486
X55362Y52486
T4
X4905Y40671
X4905Y46451
T5
X13970Y25400
X13437Y51943
X12116Y55220
X43942Y51943
X14732Y55220
X24892Y55220
X32512Y55220
X40107Y55220
X50292Y55220
X57912Y50089
X18567Y52019
X40157Y49200
X12141Y49784
X28702Y51968
X8382Y51943
X45212Y55220
X33782Y51918
X17196Y55220
X19787Y55220
X36322Y51918
X31217Y51943
X37567Y55220
X21082Y51943
X22301Y55220
X26162Y51918
X29921Y55220
X27407Y55220
X35027Y55220
X23622Y51943
X41402Y51943
X42621Y55220
X54102Y51892
X57963Y55220
X55347Y55220
X11430Y22860
X13970Y22860
X11430Y25400
X11430Y27940
X13970Y27940
X51562Y51892
X52807Y55220
X49022Y51867
X47676Y55220
X46482Y51918
X50292Y56109
X50292Y54305
X57937Y49098
X57887Y51029
X40132Y51079
X40157Y50165
X32512Y53365
X32512Y54280
X14732Y53289
X16002Y51943
X14707Y54178
X19583Y52045
X17551Y52070
X36830Y18415
X38100Y18415
X39370Y18415
X40640Y18415
X35560Y18415
X36830Y19685
X38100Y19685
X39370Y19685
X40640Y19685
X35560Y19685
T6
X43127Y44440
X43666Y41315
X13556Y46782
X23683Y20109
X38557Y26154
X58877Y24435
X33731Y19507
X45720Y41910
X45720Y44720
X29337Y21353
X28333Y21602
X29776Y27310
X26035Y21717
X35550Y16622
X25220Y3663
X38933Y1229
X39075Y11326
X35400Y33452
X29825Y31003
X33752Y31161
X28318Y32390
X25227Y31740
X33731Y26695
X31750Y25867
X53340Y38100
X38478Y44473
X27846Y39332
X26749Y36307
X16276Y34417
X20861Y40640
X24239Y41445
X40272Y32941
X55839Y30477
X17760Y33703
X9843Y9845
X7300Y14630
X11339Y30612
X13675Y16480
X16868Y28611
X11750Y18405
X26939Y45027
X40162Y48362
X24900Y48539
X25400Y11684
X24257Y11684
X26543Y11684
X19515Y15578
X17902Y16680
X26924Y16891
X10417Y43233
X7122Y43353
X14991Y42167
X14775Y45540
X8120Y46203
X8865Y46030
X7163Y46835
X26858Y28318
X46032Y40389
X41278Y39858
X53200Y39362
X47506Y29187
X52570Y28816
X53548Y25918
X23825Y29952
X8801Y22603
X7064Y39055
X7069Y38191
X7059Y39944
X40556Y36833
X22791Y17130
X28666Y12692
X16383Y33457
X14163Y30544
X62647Y19147
X60884Y11481
X60960Y8890
X62746Y16187
X58928Y7574
X8357Y53007
X7442Y52982
X11811Y53058
X11862Y52144
X63561Y19121
X61758Y19147
X17826Y26307
X19020Y27399
X19375Y29075
X24354Y33978
X24049Y32276
X24862Y30726
X20213Y32530
X36012Y32047
X25298Y16916
X28600Y16916
X26899Y15265
X27305Y21546
X26899Y18517
X44450Y38100
X37462Y25441
X26685Y24658
X41834Y37287
X35535Y24333
X24996Y24976
X15725Y42916
X11913Y46584
X20137Y42291
X50165Y37940
X47163Y36556
X17780Y21590
X39461Y36812
X22860Y39370
X22860Y26670
X36299Y44922
X34915Y42466
X28461Y35540
X9789Y8804
X13655Y7275
X9883Y33553
X46370Y33576
X46990Y43180
X46990Y47000
X20175Y46982
X51460Y34580
X41126Y28260
X50772Y44224
X51424Y41440
T7
X11961Y43436
T8
X37384Y22672
X59436Y26721
X31750Y26924
X41430Y21877
X59385Y36652
M30