G75*
%MOIN*%
%OFA0B0*%
%FSLAX25Y25*%
%IPPOS*%
%LPD*%
%AMOC8*
5,1,8,0,0,1.08239X$1,22.5*
%
%ADD10C,0.00600*%
%ADD11C,0.01000*%
%ADD12C,0.00000*%
%ADD13C,0.00039*%
D10*
X0296991Y0173063D02*
X0296991Y0175265D01*
X0297725Y0175999D01*
X0299193Y0175999D01*
X0299927Y0175265D01*
X0299927Y0173063D01*
X0299927Y0174531D02*
X0301395Y0175999D01*
X0300661Y0177667D02*
X0301395Y0178401D01*
X0301395Y0179869D01*
X0300661Y0180603D01*
X0297725Y0180603D01*
X0296991Y0179869D01*
X0296991Y0178401D01*
X0297725Y0177667D01*
X0300661Y0177667D01*
X0300661Y0182271D02*
X0296991Y0182271D01*
X0296991Y0185207D02*
X0300661Y0185207D01*
X0301395Y0184473D01*
X0301395Y0183005D01*
X0300661Y0182271D01*
X0296991Y0186875D02*
X0296991Y0189811D01*
X0296991Y0188343D02*
X0301395Y0188343D01*
X0301395Y0191479D02*
X0301395Y0194415D01*
X0299193Y0192947D02*
X0299193Y0191479D01*
X0296991Y0191479D02*
X0301395Y0191479D01*
X0296991Y0191479D02*
X0296991Y0194415D01*
X0297725Y0200687D02*
X0300661Y0200687D01*
X0301395Y0201421D01*
X0301395Y0202888D01*
X0300661Y0203622D01*
X0297725Y0203622D01*
X0296991Y0202888D01*
X0296991Y0201421D01*
X0297725Y0200687D01*
X0296991Y0205291D02*
X0300661Y0205291D01*
X0301395Y0206024D01*
X0301395Y0207492D01*
X0300661Y0208226D01*
X0296991Y0208226D01*
X0296991Y0209894D02*
X0296991Y0212830D01*
X0296991Y0211362D02*
X0301395Y0211362D01*
X0301395Y0173063D02*
X0296991Y0173063D01*
D11*
X0365990Y0147833D02*
X0133706Y0147833D01*
X0133421Y0147836D01*
X0133135Y0147847D01*
X0132850Y0147864D01*
X0132566Y0147888D01*
X0132282Y0147919D01*
X0131999Y0147957D01*
X0131718Y0148002D01*
X0131437Y0148053D01*
X0131157Y0148111D01*
X0130879Y0148176D01*
X0130603Y0148248D01*
X0130329Y0148326D01*
X0130056Y0148411D01*
X0129786Y0148503D01*
X0129518Y0148601D01*
X0129252Y0148705D01*
X0128989Y0148816D01*
X0128729Y0148933D01*
X0128471Y0149056D01*
X0128217Y0149186D01*
X0127966Y0149322D01*
X0127718Y0149463D01*
X0127474Y0149611D01*
X0127233Y0149764D01*
X0126997Y0149924D01*
X0126764Y0150089D01*
X0126535Y0150259D01*
X0126310Y0150435D01*
X0126090Y0150617D01*
X0125874Y0150803D01*
X0125663Y0150995D01*
X0125456Y0151192D01*
X0125254Y0151394D01*
X0125057Y0151601D01*
X0124865Y0151812D01*
X0124679Y0152028D01*
X0124497Y0152248D01*
X0124321Y0152473D01*
X0124151Y0152702D01*
X0123986Y0152935D01*
X0123826Y0153171D01*
X0123673Y0153412D01*
X0123525Y0153656D01*
X0123384Y0153904D01*
X0123248Y0154155D01*
X0123118Y0154409D01*
X0122995Y0154667D01*
X0122878Y0154927D01*
X0122767Y0155190D01*
X0122663Y0155456D01*
X0122565Y0155724D01*
X0122473Y0155994D01*
X0122388Y0156267D01*
X0122310Y0156541D01*
X0122238Y0156817D01*
X0122173Y0157095D01*
X0122115Y0157375D01*
X0122064Y0157656D01*
X0122019Y0157937D01*
X0121981Y0158220D01*
X0121950Y0158504D01*
X0121926Y0158788D01*
X0121909Y0159073D01*
X0121898Y0159359D01*
X0121895Y0159644D01*
X0121895Y0220668D01*
X0121897Y0220792D01*
X0121903Y0220915D01*
X0121912Y0221039D01*
X0121926Y0221161D01*
X0121943Y0221284D01*
X0121965Y0221406D01*
X0121990Y0221527D01*
X0122019Y0221647D01*
X0122051Y0221766D01*
X0122088Y0221885D01*
X0122128Y0222002D01*
X0122171Y0222117D01*
X0122219Y0222232D01*
X0122270Y0222344D01*
X0122324Y0222455D01*
X0122382Y0222565D01*
X0122443Y0222672D01*
X0122508Y0222778D01*
X0122576Y0222881D01*
X0122647Y0222982D01*
X0122721Y0223081D01*
X0122798Y0223178D01*
X0122879Y0223272D01*
X0122962Y0223363D01*
X0123048Y0223452D01*
X0123137Y0223538D01*
X0123228Y0223621D01*
X0123322Y0223702D01*
X0123419Y0223779D01*
X0123518Y0223853D01*
X0123619Y0223924D01*
X0123722Y0223992D01*
X0123828Y0224057D01*
X0123935Y0224118D01*
X0124045Y0224176D01*
X0124156Y0224230D01*
X0124268Y0224281D01*
X0124383Y0224329D01*
X0124498Y0224372D01*
X0124615Y0224412D01*
X0124734Y0224449D01*
X0124853Y0224481D01*
X0124973Y0224510D01*
X0125094Y0224535D01*
X0125216Y0224557D01*
X0125339Y0224574D01*
X0125461Y0224588D01*
X0125585Y0224597D01*
X0125708Y0224603D01*
X0125832Y0224605D01*
X0137643Y0224605D01*
X0137767Y0224607D01*
X0137890Y0224613D01*
X0138014Y0224622D01*
X0138136Y0224636D01*
X0138259Y0224653D01*
X0138381Y0224675D01*
X0138502Y0224700D01*
X0138622Y0224729D01*
X0138741Y0224761D01*
X0138860Y0224798D01*
X0138977Y0224838D01*
X0139092Y0224881D01*
X0139207Y0224929D01*
X0139319Y0224980D01*
X0139430Y0225034D01*
X0139540Y0225092D01*
X0139647Y0225153D01*
X0139753Y0225218D01*
X0139856Y0225286D01*
X0139957Y0225357D01*
X0140056Y0225431D01*
X0140153Y0225508D01*
X0140247Y0225589D01*
X0140338Y0225672D01*
X0140427Y0225758D01*
X0140513Y0225847D01*
X0140596Y0225938D01*
X0140677Y0226032D01*
X0140754Y0226129D01*
X0140828Y0226228D01*
X0140899Y0226329D01*
X0140967Y0226432D01*
X0141032Y0226538D01*
X0141093Y0226645D01*
X0141151Y0226755D01*
X0141205Y0226866D01*
X0141256Y0226978D01*
X0141304Y0227093D01*
X0141347Y0227208D01*
X0141387Y0227325D01*
X0141424Y0227444D01*
X0141456Y0227563D01*
X0141485Y0227683D01*
X0141510Y0227804D01*
X0141532Y0227926D01*
X0141549Y0228049D01*
X0141563Y0228171D01*
X0141572Y0228295D01*
X0141578Y0228418D01*
X0141580Y0228542D01*
X0141580Y0287597D01*
X0141578Y0287721D01*
X0141572Y0287844D01*
X0141563Y0287968D01*
X0141549Y0288090D01*
X0141532Y0288213D01*
X0141510Y0288335D01*
X0141485Y0288456D01*
X0141456Y0288576D01*
X0141424Y0288695D01*
X0141387Y0288814D01*
X0141347Y0288931D01*
X0141304Y0289046D01*
X0141256Y0289161D01*
X0141205Y0289273D01*
X0141151Y0289384D01*
X0141093Y0289494D01*
X0141032Y0289601D01*
X0140967Y0289707D01*
X0140899Y0289810D01*
X0140828Y0289911D01*
X0140754Y0290010D01*
X0140677Y0290107D01*
X0140596Y0290201D01*
X0140513Y0290292D01*
X0140427Y0290381D01*
X0140338Y0290467D01*
X0140247Y0290550D01*
X0140153Y0290631D01*
X0140056Y0290708D01*
X0139957Y0290782D01*
X0139856Y0290853D01*
X0139753Y0290921D01*
X0139647Y0290986D01*
X0139540Y0291047D01*
X0139430Y0291105D01*
X0139319Y0291159D01*
X0139207Y0291210D01*
X0139092Y0291258D01*
X0138977Y0291301D01*
X0138860Y0291341D01*
X0138741Y0291378D01*
X0138622Y0291410D01*
X0138502Y0291439D01*
X0138381Y0291464D01*
X0138259Y0291486D01*
X0138136Y0291503D01*
X0138014Y0291517D01*
X0137890Y0291526D01*
X0137767Y0291532D01*
X0137643Y0291534D01*
X0125832Y0291534D01*
X0125708Y0291536D01*
X0125585Y0291542D01*
X0125461Y0291551D01*
X0125339Y0291565D01*
X0125216Y0291582D01*
X0125094Y0291604D01*
X0124973Y0291629D01*
X0124853Y0291658D01*
X0124734Y0291690D01*
X0124615Y0291727D01*
X0124498Y0291767D01*
X0124383Y0291810D01*
X0124268Y0291858D01*
X0124156Y0291909D01*
X0124045Y0291963D01*
X0123935Y0292021D01*
X0123828Y0292082D01*
X0123722Y0292147D01*
X0123619Y0292215D01*
X0123518Y0292286D01*
X0123419Y0292360D01*
X0123322Y0292437D01*
X0123228Y0292518D01*
X0123137Y0292601D01*
X0123048Y0292687D01*
X0122962Y0292776D01*
X0122879Y0292867D01*
X0122798Y0292961D01*
X0122721Y0293058D01*
X0122647Y0293157D01*
X0122576Y0293258D01*
X0122508Y0293361D01*
X0122443Y0293467D01*
X0122382Y0293574D01*
X0122324Y0293684D01*
X0122270Y0293795D01*
X0122219Y0293907D01*
X0122171Y0294022D01*
X0122128Y0294137D01*
X0122088Y0294254D01*
X0122051Y0294373D01*
X0122019Y0294492D01*
X0121990Y0294612D01*
X0121965Y0294733D01*
X0121943Y0294855D01*
X0121926Y0294978D01*
X0121912Y0295100D01*
X0121903Y0295224D01*
X0121897Y0295347D01*
X0121895Y0295471D01*
X0121895Y0358463D01*
X0121898Y0358748D01*
X0121909Y0359034D01*
X0121926Y0359319D01*
X0121950Y0359603D01*
X0121981Y0359887D01*
X0122019Y0360170D01*
X0122064Y0360451D01*
X0122115Y0360732D01*
X0122173Y0361012D01*
X0122238Y0361290D01*
X0122310Y0361566D01*
X0122388Y0361840D01*
X0122473Y0362113D01*
X0122565Y0362383D01*
X0122663Y0362651D01*
X0122767Y0362917D01*
X0122878Y0363180D01*
X0122995Y0363440D01*
X0123118Y0363698D01*
X0123248Y0363952D01*
X0123384Y0364203D01*
X0123525Y0364451D01*
X0123673Y0364695D01*
X0123826Y0364936D01*
X0123986Y0365172D01*
X0124151Y0365405D01*
X0124321Y0365634D01*
X0124497Y0365859D01*
X0124679Y0366079D01*
X0124865Y0366295D01*
X0125057Y0366506D01*
X0125254Y0366713D01*
X0125456Y0366915D01*
X0125663Y0367112D01*
X0125874Y0367304D01*
X0126090Y0367490D01*
X0126310Y0367672D01*
X0126535Y0367848D01*
X0126764Y0368018D01*
X0126997Y0368183D01*
X0127233Y0368343D01*
X0127474Y0368496D01*
X0127718Y0368644D01*
X0127966Y0368785D01*
X0128217Y0368921D01*
X0128471Y0369051D01*
X0128729Y0369174D01*
X0128989Y0369291D01*
X0129252Y0369402D01*
X0129518Y0369506D01*
X0129786Y0369604D01*
X0130056Y0369696D01*
X0130329Y0369781D01*
X0130603Y0369859D01*
X0130879Y0369931D01*
X0131157Y0369996D01*
X0131437Y0370054D01*
X0131718Y0370105D01*
X0131999Y0370150D01*
X0132282Y0370188D01*
X0132566Y0370219D01*
X0132850Y0370243D01*
X0133135Y0370260D01*
X0133421Y0370271D01*
X0133706Y0370274D01*
X0365990Y0370274D01*
X0366275Y0370271D01*
X0366561Y0370260D01*
X0366846Y0370243D01*
X0367130Y0370219D01*
X0367414Y0370188D01*
X0367697Y0370150D01*
X0367978Y0370105D01*
X0368259Y0370054D01*
X0368539Y0369996D01*
X0368817Y0369931D01*
X0369093Y0369859D01*
X0369367Y0369781D01*
X0369640Y0369696D01*
X0369910Y0369604D01*
X0370178Y0369506D01*
X0370444Y0369402D01*
X0370707Y0369291D01*
X0370967Y0369174D01*
X0371225Y0369051D01*
X0371479Y0368921D01*
X0371730Y0368785D01*
X0371978Y0368644D01*
X0372222Y0368496D01*
X0372463Y0368343D01*
X0372699Y0368183D01*
X0372932Y0368018D01*
X0373161Y0367848D01*
X0373386Y0367672D01*
X0373606Y0367490D01*
X0373822Y0367304D01*
X0374033Y0367112D01*
X0374240Y0366915D01*
X0374442Y0366713D01*
X0374639Y0366506D01*
X0374831Y0366295D01*
X0375017Y0366079D01*
X0375199Y0365859D01*
X0375375Y0365634D01*
X0375545Y0365405D01*
X0375710Y0365172D01*
X0375870Y0364936D01*
X0376023Y0364695D01*
X0376171Y0364451D01*
X0376312Y0364203D01*
X0376448Y0363952D01*
X0376578Y0363698D01*
X0376701Y0363440D01*
X0376818Y0363180D01*
X0376929Y0362917D01*
X0377033Y0362651D01*
X0377131Y0362383D01*
X0377223Y0362113D01*
X0377308Y0361840D01*
X0377386Y0361566D01*
X0377458Y0361290D01*
X0377523Y0361012D01*
X0377581Y0360732D01*
X0377632Y0360451D01*
X0377677Y0360170D01*
X0377715Y0359887D01*
X0377746Y0359603D01*
X0377770Y0359319D01*
X0377787Y0359034D01*
X0377798Y0358748D01*
X0377801Y0358463D01*
X0377801Y0159644D01*
X0377798Y0159359D01*
X0377787Y0159073D01*
X0377770Y0158788D01*
X0377746Y0158504D01*
X0377715Y0158220D01*
X0377677Y0157937D01*
X0377632Y0157656D01*
X0377581Y0157375D01*
X0377523Y0157095D01*
X0377458Y0156817D01*
X0377386Y0156541D01*
X0377308Y0156267D01*
X0377223Y0155994D01*
X0377131Y0155724D01*
X0377033Y0155456D01*
X0376929Y0155190D01*
X0376818Y0154927D01*
X0376701Y0154667D01*
X0376578Y0154409D01*
X0376448Y0154155D01*
X0376312Y0153904D01*
X0376171Y0153656D01*
X0376023Y0153412D01*
X0375870Y0153171D01*
X0375710Y0152935D01*
X0375545Y0152702D01*
X0375375Y0152473D01*
X0375199Y0152248D01*
X0375017Y0152028D01*
X0374831Y0151812D01*
X0374639Y0151601D01*
X0374442Y0151394D01*
X0374240Y0151192D01*
X0374033Y0150995D01*
X0373822Y0150803D01*
X0373606Y0150617D01*
X0373386Y0150435D01*
X0373161Y0150259D01*
X0372932Y0150089D01*
X0372699Y0149924D01*
X0372463Y0149764D01*
X0372222Y0149611D01*
X0371978Y0149463D01*
X0371730Y0149322D01*
X0371479Y0149186D01*
X0371225Y0149056D01*
X0370967Y0148933D01*
X0370707Y0148816D01*
X0370444Y0148705D01*
X0370178Y0148601D01*
X0369910Y0148503D01*
X0369640Y0148411D01*
X0369367Y0148326D01*
X0369093Y0148248D01*
X0368817Y0148176D01*
X0368539Y0148111D01*
X0368259Y0148053D01*
X0367978Y0148002D01*
X0367697Y0147957D01*
X0367414Y0147919D01*
X0367130Y0147888D01*
X0366846Y0147864D01*
X0366561Y0147847D01*
X0366275Y0147836D01*
X0365990Y0147833D01*
X0302998Y0163581D02*
X0302998Y0222636D01*
X0299060Y0226573D02*
X0298936Y0226571D01*
X0298813Y0226565D01*
X0298689Y0226556D01*
X0298567Y0226542D01*
X0298444Y0226525D01*
X0298322Y0226503D01*
X0298201Y0226478D01*
X0298081Y0226449D01*
X0297962Y0226417D01*
X0297843Y0226380D01*
X0297726Y0226340D01*
X0297611Y0226297D01*
X0297496Y0226249D01*
X0297384Y0226198D01*
X0297273Y0226144D01*
X0297163Y0226086D01*
X0297056Y0226025D01*
X0296950Y0225960D01*
X0296847Y0225892D01*
X0296746Y0225821D01*
X0296647Y0225747D01*
X0296550Y0225670D01*
X0296456Y0225589D01*
X0296365Y0225506D01*
X0296276Y0225420D01*
X0296190Y0225331D01*
X0296107Y0225240D01*
X0296026Y0225146D01*
X0295949Y0225049D01*
X0295875Y0224950D01*
X0295804Y0224849D01*
X0295736Y0224746D01*
X0295671Y0224640D01*
X0295610Y0224533D01*
X0295552Y0224423D01*
X0295498Y0224312D01*
X0295447Y0224200D01*
X0295399Y0224085D01*
X0295356Y0223970D01*
X0295316Y0223853D01*
X0295279Y0223734D01*
X0295247Y0223615D01*
X0295218Y0223495D01*
X0295193Y0223374D01*
X0295171Y0223252D01*
X0295154Y0223129D01*
X0295140Y0223007D01*
X0295131Y0222883D01*
X0295125Y0222760D01*
X0295123Y0222636D01*
X0295123Y0163581D01*
X0295125Y0163457D01*
X0295131Y0163334D01*
X0295140Y0163210D01*
X0295154Y0163088D01*
X0295171Y0162965D01*
X0295193Y0162843D01*
X0295218Y0162722D01*
X0295247Y0162602D01*
X0295279Y0162483D01*
X0295316Y0162364D01*
X0295356Y0162247D01*
X0295399Y0162132D01*
X0295447Y0162017D01*
X0295498Y0161905D01*
X0295552Y0161794D01*
X0295610Y0161684D01*
X0295671Y0161577D01*
X0295736Y0161471D01*
X0295804Y0161368D01*
X0295875Y0161267D01*
X0295949Y0161168D01*
X0296026Y0161071D01*
X0296107Y0160977D01*
X0296190Y0160886D01*
X0296276Y0160797D01*
X0296365Y0160711D01*
X0296456Y0160628D01*
X0296550Y0160547D01*
X0296647Y0160470D01*
X0296746Y0160396D01*
X0296847Y0160325D01*
X0296950Y0160257D01*
X0297056Y0160192D01*
X0297163Y0160131D01*
X0297273Y0160073D01*
X0297384Y0160019D01*
X0297496Y0159968D01*
X0297611Y0159920D01*
X0297726Y0159877D01*
X0297843Y0159837D01*
X0297962Y0159800D01*
X0298081Y0159768D01*
X0298201Y0159739D01*
X0298322Y0159714D01*
X0298444Y0159692D01*
X0298567Y0159675D01*
X0298689Y0159661D01*
X0298813Y0159652D01*
X0298936Y0159646D01*
X0299060Y0159644D01*
X0299184Y0159646D01*
X0299307Y0159652D01*
X0299431Y0159661D01*
X0299553Y0159675D01*
X0299676Y0159692D01*
X0299798Y0159714D01*
X0299919Y0159739D01*
X0300039Y0159768D01*
X0300158Y0159800D01*
X0300277Y0159837D01*
X0300394Y0159877D01*
X0300509Y0159920D01*
X0300624Y0159968D01*
X0300736Y0160019D01*
X0300847Y0160073D01*
X0300957Y0160131D01*
X0301064Y0160192D01*
X0301170Y0160257D01*
X0301273Y0160325D01*
X0301374Y0160396D01*
X0301473Y0160470D01*
X0301570Y0160547D01*
X0301664Y0160628D01*
X0301755Y0160711D01*
X0301844Y0160797D01*
X0301930Y0160886D01*
X0302013Y0160977D01*
X0302094Y0161071D01*
X0302171Y0161168D01*
X0302245Y0161267D01*
X0302316Y0161368D01*
X0302384Y0161471D01*
X0302449Y0161577D01*
X0302510Y0161684D01*
X0302568Y0161794D01*
X0302622Y0161905D01*
X0302673Y0162017D01*
X0302721Y0162132D01*
X0302764Y0162247D01*
X0302804Y0162364D01*
X0302841Y0162483D01*
X0302873Y0162602D01*
X0302902Y0162722D01*
X0302927Y0162843D01*
X0302949Y0162965D01*
X0302966Y0163088D01*
X0302980Y0163210D01*
X0302989Y0163334D01*
X0302995Y0163457D01*
X0302997Y0163581D01*
X0302997Y0222636D02*
X0302995Y0222760D01*
X0302989Y0222883D01*
X0302980Y0223007D01*
X0302966Y0223129D01*
X0302949Y0223252D01*
X0302927Y0223374D01*
X0302902Y0223495D01*
X0302873Y0223615D01*
X0302841Y0223734D01*
X0302804Y0223853D01*
X0302764Y0223970D01*
X0302721Y0224085D01*
X0302673Y0224200D01*
X0302622Y0224312D01*
X0302568Y0224423D01*
X0302510Y0224533D01*
X0302449Y0224640D01*
X0302384Y0224746D01*
X0302316Y0224849D01*
X0302245Y0224950D01*
X0302171Y0225049D01*
X0302094Y0225146D01*
X0302013Y0225240D01*
X0301930Y0225331D01*
X0301844Y0225420D01*
X0301755Y0225506D01*
X0301664Y0225589D01*
X0301570Y0225670D01*
X0301473Y0225747D01*
X0301374Y0225821D01*
X0301273Y0225892D01*
X0301170Y0225960D01*
X0301064Y0226025D01*
X0300957Y0226086D01*
X0300847Y0226144D01*
X0300736Y0226198D01*
X0300624Y0226249D01*
X0300509Y0226297D01*
X0300394Y0226340D01*
X0300277Y0226380D01*
X0300158Y0226417D01*
X0300039Y0226449D01*
X0299919Y0226478D01*
X0299798Y0226503D01*
X0299676Y0226525D01*
X0299553Y0226542D01*
X0299431Y0226556D01*
X0299307Y0226565D01*
X0299184Y0226571D01*
X0299060Y0226573D01*
D12*
X0358021Y0161613D02*
X0358023Y0161767D01*
X0358029Y0161922D01*
X0358039Y0162076D01*
X0358053Y0162230D01*
X0358071Y0162383D01*
X0358092Y0162536D01*
X0358118Y0162689D01*
X0358148Y0162840D01*
X0358181Y0162991D01*
X0358219Y0163141D01*
X0358260Y0163290D01*
X0358305Y0163438D01*
X0358354Y0163584D01*
X0358407Y0163730D01*
X0358463Y0163873D01*
X0358523Y0164016D01*
X0358587Y0164156D01*
X0358654Y0164296D01*
X0358725Y0164433D01*
X0358799Y0164568D01*
X0358877Y0164702D01*
X0358958Y0164833D01*
X0359043Y0164962D01*
X0359131Y0165090D01*
X0359222Y0165214D01*
X0359316Y0165337D01*
X0359414Y0165457D01*
X0359514Y0165574D01*
X0359618Y0165689D01*
X0359724Y0165801D01*
X0359833Y0165910D01*
X0359945Y0166016D01*
X0360060Y0166120D01*
X0360177Y0166220D01*
X0360297Y0166318D01*
X0360420Y0166412D01*
X0360544Y0166503D01*
X0360672Y0166591D01*
X0360801Y0166676D01*
X0360932Y0166757D01*
X0361066Y0166835D01*
X0361201Y0166909D01*
X0361338Y0166980D01*
X0361478Y0167047D01*
X0361618Y0167111D01*
X0361761Y0167171D01*
X0361904Y0167227D01*
X0362050Y0167280D01*
X0362196Y0167329D01*
X0362344Y0167374D01*
X0362493Y0167415D01*
X0362643Y0167453D01*
X0362794Y0167486D01*
X0362945Y0167516D01*
X0363098Y0167542D01*
X0363251Y0167563D01*
X0363404Y0167581D01*
X0363558Y0167595D01*
X0363712Y0167605D01*
X0363867Y0167611D01*
X0364021Y0167613D01*
X0364175Y0167611D01*
X0364330Y0167605D01*
X0364484Y0167595D01*
X0364638Y0167581D01*
X0364791Y0167563D01*
X0364944Y0167542D01*
X0365097Y0167516D01*
X0365248Y0167486D01*
X0365399Y0167453D01*
X0365549Y0167415D01*
X0365698Y0167374D01*
X0365846Y0167329D01*
X0365992Y0167280D01*
X0366138Y0167227D01*
X0366281Y0167171D01*
X0366424Y0167111D01*
X0366564Y0167047D01*
X0366704Y0166980D01*
X0366841Y0166909D01*
X0366976Y0166835D01*
X0367110Y0166757D01*
X0367241Y0166676D01*
X0367370Y0166591D01*
X0367498Y0166503D01*
X0367622Y0166412D01*
X0367745Y0166318D01*
X0367865Y0166220D01*
X0367982Y0166120D01*
X0368097Y0166016D01*
X0368209Y0165910D01*
X0368318Y0165801D01*
X0368424Y0165689D01*
X0368528Y0165574D01*
X0368628Y0165457D01*
X0368726Y0165337D01*
X0368820Y0165214D01*
X0368911Y0165090D01*
X0368999Y0164962D01*
X0369084Y0164833D01*
X0369165Y0164702D01*
X0369243Y0164568D01*
X0369317Y0164433D01*
X0369388Y0164296D01*
X0369455Y0164156D01*
X0369519Y0164016D01*
X0369579Y0163873D01*
X0369635Y0163730D01*
X0369688Y0163584D01*
X0369737Y0163438D01*
X0369782Y0163290D01*
X0369823Y0163141D01*
X0369861Y0162991D01*
X0369894Y0162840D01*
X0369924Y0162689D01*
X0369950Y0162536D01*
X0369971Y0162383D01*
X0369989Y0162230D01*
X0370003Y0162076D01*
X0370013Y0161922D01*
X0370019Y0161767D01*
X0370021Y0161613D01*
X0370019Y0161459D01*
X0370013Y0161304D01*
X0370003Y0161150D01*
X0369989Y0160996D01*
X0369971Y0160843D01*
X0369950Y0160690D01*
X0369924Y0160537D01*
X0369894Y0160386D01*
X0369861Y0160235D01*
X0369823Y0160085D01*
X0369782Y0159936D01*
X0369737Y0159788D01*
X0369688Y0159642D01*
X0369635Y0159496D01*
X0369579Y0159353D01*
X0369519Y0159210D01*
X0369455Y0159070D01*
X0369388Y0158930D01*
X0369317Y0158793D01*
X0369243Y0158658D01*
X0369165Y0158524D01*
X0369084Y0158393D01*
X0368999Y0158264D01*
X0368911Y0158136D01*
X0368820Y0158012D01*
X0368726Y0157889D01*
X0368628Y0157769D01*
X0368528Y0157652D01*
X0368424Y0157537D01*
X0368318Y0157425D01*
X0368209Y0157316D01*
X0368097Y0157210D01*
X0367982Y0157106D01*
X0367865Y0157006D01*
X0367745Y0156908D01*
X0367622Y0156814D01*
X0367498Y0156723D01*
X0367370Y0156635D01*
X0367241Y0156550D01*
X0367110Y0156469D01*
X0366976Y0156391D01*
X0366841Y0156317D01*
X0366704Y0156246D01*
X0366564Y0156179D01*
X0366424Y0156115D01*
X0366281Y0156055D01*
X0366138Y0155999D01*
X0365992Y0155946D01*
X0365846Y0155897D01*
X0365698Y0155852D01*
X0365549Y0155811D01*
X0365399Y0155773D01*
X0365248Y0155740D01*
X0365097Y0155710D01*
X0364944Y0155684D01*
X0364791Y0155663D01*
X0364638Y0155645D01*
X0364484Y0155631D01*
X0364330Y0155621D01*
X0364175Y0155615D01*
X0364021Y0155613D01*
X0363867Y0155615D01*
X0363712Y0155621D01*
X0363558Y0155631D01*
X0363404Y0155645D01*
X0363251Y0155663D01*
X0363098Y0155684D01*
X0362945Y0155710D01*
X0362794Y0155740D01*
X0362643Y0155773D01*
X0362493Y0155811D01*
X0362344Y0155852D01*
X0362196Y0155897D01*
X0362050Y0155946D01*
X0361904Y0155999D01*
X0361761Y0156055D01*
X0361618Y0156115D01*
X0361478Y0156179D01*
X0361338Y0156246D01*
X0361201Y0156317D01*
X0361066Y0156391D01*
X0360932Y0156469D01*
X0360801Y0156550D01*
X0360672Y0156635D01*
X0360544Y0156723D01*
X0360420Y0156814D01*
X0360297Y0156908D01*
X0360177Y0157006D01*
X0360060Y0157106D01*
X0359945Y0157210D01*
X0359833Y0157316D01*
X0359724Y0157425D01*
X0359618Y0157537D01*
X0359514Y0157652D01*
X0359414Y0157769D01*
X0359316Y0157889D01*
X0359222Y0158012D01*
X0359131Y0158136D01*
X0359043Y0158264D01*
X0358958Y0158393D01*
X0358877Y0158524D01*
X0358799Y0158658D01*
X0358725Y0158793D01*
X0358654Y0158930D01*
X0358587Y0159070D01*
X0358523Y0159210D01*
X0358463Y0159353D01*
X0358407Y0159496D01*
X0358354Y0159642D01*
X0358305Y0159788D01*
X0358260Y0159936D01*
X0358219Y0160085D01*
X0358181Y0160235D01*
X0358148Y0160386D01*
X0358118Y0160537D01*
X0358092Y0160690D01*
X0358071Y0160843D01*
X0358053Y0160996D01*
X0358039Y0161150D01*
X0358029Y0161304D01*
X0358023Y0161459D01*
X0358021Y0161613D01*
X0139926Y0307955D02*
X0139928Y0308026D01*
X0139934Y0308097D01*
X0139944Y0308168D01*
X0139958Y0308237D01*
X0139975Y0308306D01*
X0139997Y0308374D01*
X0140022Y0308441D01*
X0140051Y0308506D01*
X0140083Y0308569D01*
X0140119Y0308631D01*
X0140158Y0308690D01*
X0140201Y0308747D01*
X0140246Y0308802D01*
X0140295Y0308854D01*
X0140346Y0308903D01*
X0140400Y0308949D01*
X0140457Y0308993D01*
X0140515Y0309033D01*
X0140576Y0309069D01*
X0140639Y0309103D01*
X0140704Y0309132D01*
X0140770Y0309158D01*
X0140838Y0309181D01*
X0140906Y0309199D01*
X0140976Y0309214D01*
X0141046Y0309225D01*
X0141117Y0309232D01*
X0141188Y0309235D01*
X0141259Y0309234D01*
X0141330Y0309229D01*
X0141401Y0309220D01*
X0141471Y0309207D01*
X0141540Y0309191D01*
X0141608Y0309170D01*
X0141675Y0309146D01*
X0141741Y0309118D01*
X0141804Y0309086D01*
X0141866Y0309051D01*
X0141926Y0309013D01*
X0141984Y0308971D01*
X0142039Y0308927D01*
X0142092Y0308879D01*
X0142142Y0308828D01*
X0142189Y0308775D01*
X0142233Y0308719D01*
X0142274Y0308661D01*
X0142312Y0308600D01*
X0142346Y0308538D01*
X0142376Y0308473D01*
X0142403Y0308408D01*
X0142427Y0308340D01*
X0142446Y0308272D01*
X0142462Y0308203D01*
X0142474Y0308132D01*
X0142482Y0308062D01*
X0142486Y0307991D01*
X0142486Y0307919D01*
X0142482Y0307848D01*
X0142474Y0307778D01*
X0142462Y0307707D01*
X0142446Y0307638D01*
X0142427Y0307570D01*
X0142403Y0307502D01*
X0142376Y0307437D01*
X0142346Y0307372D01*
X0142312Y0307310D01*
X0142274Y0307249D01*
X0142233Y0307191D01*
X0142189Y0307135D01*
X0142142Y0307082D01*
X0142092Y0307031D01*
X0142039Y0306983D01*
X0141984Y0306939D01*
X0141926Y0306897D01*
X0141866Y0306859D01*
X0141804Y0306824D01*
X0141741Y0306792D01*
X0141675Y0306764D01*
X0141608Y0306740D01*
X0141540Y0306719D01*
X0141471Y0306703D01*
X0141401Y0306690D01*
X0141330Y0306681D01*
X0141259Y0306676D01*
X0141188Y0306675D01*
X0141117Y0306678D01*
X0141046Y0306685D01*
X0140976Y0306696D01*
X0140906Y0306711D01*
X0140838Y0306729D01*
X0140770Y0306752D01*
X0140704Y0306778D01*
X0140639Y0306807D01*
X0140576Y0306841D01*
X0140515Y0306877D01*
X0140457Y0306917D01*
X0140400Y0306961D01*
X0140346Y0307007D01*
X0140295Y0307056D01*
X0140246Y0307108D01*
X0140201Y0307163D01*
X0140158Y0307220D01*
X0140119Y0307279D01*
X0140083Y0307341D01*
X0140051Y0307404D01*
X0140022Y0307469D01*
X0139997Y0307536D01*
X0139975Y0307604D01*
X0139958Y0307673D01*
X0139944Y0307742D01*
X0139934Y0307813D01*
X0139928Y0307884D01*
X0139926Y0307955D01*
X0139926Y0330711D02*
X0139928Y0330782D01*
X0139934Y0330853D01*
X0139944Y0330924D01*
X0139958Y0330993D01*
X0139975Y0331062D01*
X0139997Y0331130D01*
X0140022Y0331197D01*
X0140051Y0331262D01*
X0140083Y0331325D01*
X0140119Y0331387D01*
X0140158Y0331446D01*
X0140201Y0331503D01*
X0140246Y0331558D01*
X0140295Y0331610D01*
X0140346Y0331659D01*
X0140400Y0331705D01*
X0140457Y0331749D01*
X0140515Y0331789D01*
X0140576Y0331825D01*
X0140639Y0331859D01*
X0140704Y0331888D01*
X0140770Y0331914D01*
X0140838Y0331937D01*
X0140906Y0331955D01*
X0140976Y0331970D01*
X0141046Y0331981D01*
X0141117Y0331988D01*
X0141188Y0331991D01*
X0141259Y0331990D01*
X0141330Y0331985D01*
X0141401Y0331976D01*
X0141471Y0331963D01*
X0141540Y0331947D01*
X0141608Y0331926D01*
X0141675Y0331902D01*
X0141741Y0331874D01*
X0141804Y0331842D01*
X0141866Y0331807D01*
X0141926Y0331769D01*
X0141984Y0331727D01*
X0142039Y0331683D01*
X0142092Y0331635D01*
X0142142Y0331584D01*
X0142189Y0331531D01*
X0142233Y0331475D01*
X0142274Y0331417D01*
X0142312Y0331356D01*
X0142346Y0331294D01*
X0142376Y0331229D01*
X0142403Y0331164D01*
X0142427Y0331096D01*
X0142446Y0331028D01*
X0142462Y0330959D01*
X0142474Y0330888D01*
X0142482Y0330818D01*
X0142486Y0330747D01*
X0142486Y0330675D01*
X0142482Y0330604D01*
X0142474Y0330534D01*
X0142462Y0330463D01*
X0142446Y0330394D01*
X0142427Y0330326D01*
X0142403Y0330258D01*
X0142376Y0330193D01*
X0142346Y0330128D01*
X0142312Y0330066D01*
X0142274Y0330005D01*
X0142233Y0329947D01*
X0142189Y0329891D01*
X0142142Y0329838D01*
X0142092Y0329787D01*
X0142039Y0329739D01*
X0141984Y0329695D01*
X0141926Y0329653D01*
X0141866Y0329615D01*
X0141804Y0329580D01*
X0141741Y0329548D01*
X0141675Y0329520D01*
X0141608Y0329496D01*
X0141540Y0329475D01*
X0141471Y0329459D01*
X0141401Y0329446D01*
X0141330Y0329437D01*
X0141259Y0329432D01*
X0141188Y0329431D01*
X0141117Y0329434D01*
X0141046Y0329441D01*
X0140976Y0329452D01*
X0140906Y0329467D01*
X0140838Y0329485D01*
X0140770Y0329508D01*
X0140704Y0329534D01*
X0140639Y0329563D01*
X0140576Y0329597D01*
X0140515Y0329633D01*
X0140457Y0329673D01*
X0140400Y0329717D01*
X0140346Y0329763D01*
X0140295Y0329812D01*
X0140246Y0329864D01*
X0140201Y0329919D01*
X0140158Y0329976D01*
X0140119Y0330035D01*
X0140083Y0330097D01*
X0140051Y0330160D01*
X0140022Y0330225D01*
X0139997Y0330292D01*
X0139975Y0330360D01*
X0139958Y0330429D01*
X0139944Y0330498D01*
X0139934Y0330569D01*
X0139928Y0330640D01*
X0139926Y0330711D01*
X0129675Y0354526D02*
X0129677Y0354680D01*
X0129683Y0354835D01*
X0129693Y0354989D01*
X0129707Y0355143D01*
X0129725Y0355296D01*
X0129746Y0355449D01*
X0129772Y0355602D01*
X0129802Y0355753D01*
X0129835Y0355904D01*
X0129873Y0356054D01*
X0129914Y0356203D01*
X0129959Y0356351D01*
X0130008Y0356497D01*
X0130061Y0356643D01*
X0130117Y0356786D01*
X0130177Y0356929D01*
X0130241Y0357069D01*
X0130308Y0357209D01*
X0130379Y0357346D01*
X0130453Y0357481D01*
X0130531Y0357615D01*
X0130612Y0357746D01*
X0130697Y0357875D01*
X0130785Y0358003D01*
X0130876Y0358127D01*
X0130970Y0358250D01*
X0131068Y0358370D01*
X0131168Y0358487D01*
X0131272Y0358602D01*
X0131378Y0358714D01*
X0131487Y0358823D01*
X0131599Y0358929D01*
X0131714Y0359033D01*
X0131831Y0359133D01*
X0131951Y0359231D01*
X0132074Y0359325D01*
X0132198Y0359416D01*
X0132326Y0359504D01*
X0132455Y0359589D01*
X0132586Y0359670D01*
X0132720Y0359748D01*
X0132855Y0359822D01*
X0132992Y0359893D01*
X0133132Y0359960D01*
X0133272Y0360024D01*
X0133415Y0360084D01*
X0133558Y0360140D01*
X0133704Y0360193D01*
X0133850Y0360242D01*
X0133998Y0360287D01*
X0134147Y0360328D01*
X0134297Y0360366D01*
X0134448Y0360399D01*
X0134599Y0360429D01*
X0134752Y0360455D01*
X0134905Y0360476D01*
X0135058Y0360494D01*
X0135212Y0360508D01*
X0135366Y0360518D01*
X0135521Y0360524D01*
X0135675Y0360526D01*
X0135829Y0360524D01*
X0135984Y0360518D01*
X0136138Y0360508D01*
X0136292Y0360494D01*
X0136445Y0360476D01*
X0136598Y0360455D01*
X0136751Y0360429D01*
X0136902Y0360399D01*
X0137053Y0360366D01*
X0137203Y0360328D01*
X0137352Y0360287D01*
X0137500Y0360242D01*
X0137646Y0360193D01*
X0137792Y0360140D01*
X0137935Y0360084D01*
X0138078Y0360024D01*
X0138218Y0359960D01*
X0138358Y0359893D01*
X0138495Y0359822D01*
X0138630Y0359748D01*
X0138764Y0359670D01*
X0138895Y0359589D01*
X0139024Y0359504D01*
X0139152Y0359416D01*
X0139276Y0359325D01*
X0139399Y0359231D01*
X0139519Y0359133D01*
X0139636Y0359033D01*
X0139751Y0358929D01*
X0139863Y0358823D01*
X0139972Y0358714D01*
X0140078Y0358602D01*
X0140182Y0358487D01*
X0140282Y0358370D01*
X0140380Y0358250D01*
X0140474Y0358127D01*
X0140565Y0358003D01*
X0140653Y0357875D01*
X0140738Y0357746D01*
X0140819Y0357615D01*
X0140897Y0357481D01*
X0140971Y0357346D01*
X0141042Y0357209D01*
X0141109Y0357069D01*
X0141173Y0356929D01*
X0141233Y0356786D01*
X0141289Y0356643D01*
X0141342Y0356497D01*
X0141391Y0356351D01*
X0141436Y0356203D01*
X0141477Y0356054D01*
X0141515Y0355904D01*
X0141548Y0355753D01*
X0141578Y0355602D01*
X0141604Y0355449D01*
X0141625Y0355296D01*
X0141643Y0355143D01*
X0141657Y0354989D01*
X0141667Y0354835D01*
X0141673Y0354680D01*
X0141675Y0354526D01*
X0141673Y0354372D01*
X0141667Y0354217D01*
X0141657Y0354063D01*
X0141643Y0353909D01*
X0141625Y0353756D01*
X0141604Y0353603D01*
X0141578Y0353450D01*
X0141548Y0353299D01*
X0141515Y0353148D01*
X0141477Y0352998D01*
X0141436Y0352849D01*
X0141391Y0352701D01*
X0141342Y0352555D01*
X0141289Y0352409D01*
X0141233Y0352266D01*
X0141173Y0352123D01*
X0141109Y0351983D01*
X0141042Y0351843D01*
X0140971Y0351706D01*
X0140897Y0351571D01*
X0140819Y0351437D01*
X0140738Y0351306D01*
X0140653Y0351177D01*
X0140565Y0351049D01*
X0140474Y0350925D01*
X0140380Y0350802D01*
X0140282Y0350682D01*
X0140182Y0350565D01*
X0140078Y0350450D01*
X0139972Y0350338D01*
X0139863Y0350229D01*
X0139751Y0350123D01*
X0139636Y0350019D01*
X0139519Y0349919D01*
X0139399Y0349821D01*
X0139276Y0349727D01*
X0139152Y0349636D01*
X0139024Y0349548D01*
X0138895Y0349463D01*
X0138764Y0349382D01*
X0138630Y0349304D01*
X0138495Y0349230D01*
X0138358Y0349159D01*
X0138218Y0349092D01*
X0138078Y0349028D01*
X0137935Y0348968D01*
X0137792Y0348912D01*
X0137646Y0348859D01*
X0137500Y0348810D01*
X0137352Y0348765D01*
X0137203Y0348724D01*
X0137053Y0348686D01*
X0136902Y0348653D01*
X0136751Y0348623D01*
X0136598Y0348597D01*
X0136445Y0348576D01*
X0136292Y0348558D01*
X0136138Y0348544D01*
X0135984Y0348534D01*
X0135829Y0348528D01*
X0135675Y0348526D01*
X0135521Y0348528D01*
X0135366Y0348534D01*
X0135212Y0348544D01*
X0135058Y0348558D01*
X0134905Y0348576D01*
X0134752Y0348597D01*
X0134599Y0348623D01*
X0134448Y0348653D01*
X0134297Y0348686D01*
X0134147Y0348724D01*
X0133998Y0348765D01*
X0133850Y0348810D01*
X0133704Y0348859D01*
X0133558Y0348912D01*
X0133415Y0348968D01*
X0133272Y0349028D01*
X0133132Y0349092D01*
X0132992Y0349159D01*
X0132855Y0349230D01*
X0132720Y0349304D01*
X0132586Y0349382D01*
X0132455Y0349463D01*
X0132326Y0349548D01*
X0132198Y0349636D01*
X0132074Y0349727D01*
X0131951Y0349821D01*
X0131831Y0349919D01*
X0131714Y0350019D01*
X0131599Y0350123D01*
X0131487Y0350229D01*
X0131378Y0350338D01*
X0131272Y0350450D01*
X0131168Y0350565D01*
X0131068Y0350682D01*
X0130970Y0350802D01*
X0130876Y0350925D01*
X0130785Y0351049D01*
X0130697Y0351177D01*
X0130612Y0351306D01*
X0130531Y0351437D01*
X0130453Y0351571D01*
X0130379Y0351706D01*
X0130308Y0351843D01*
X0130241Y0351983D01*
X0130177Y0352123D01*
X0130117Y0352266D01*
X0130061Y0352409D01*
X0130008Y0352555D01*
X0129959Y0352701D01*
X0129914Y0352849D01*
X0129873Y0352998D01*
X0129835Y0353148D01*
X0129802Y0353299D01*
X0129772Y0353450D01*
X0129746Y0353603D01*
X0129725Y0353756D01*
X0129707Y0353909D01*
X0129693Y0354063D01*
X0129683Y0354217D01*
X0129677Y0354372D01*
X0129675Y0354526D01*
X0358021Y0354526D02*
X0358023Y0354680D01*
X0358029Y0354835D01*
X0358039Y0354989D01*
X0358053Y0355143D01*
X0358071Y0355296D01*
X0358092Y0355449D01*
X0358118Y0355602D01*
X0358148Y0355753D01*
X0358181Y0355904D01*
X0358219Y0356054D01*
X0358260Y0356203D01*
X0358305Y0356351D01*
X0358354Y0356497D01*
X0358407Y0356643D01*
X0358463Y0356786D01*
X0358523Y0356929D01*
X0358587Y0357069D01*
X0358654Y0357209D01*
X0358725Y0357346D01*
X0358799Y0357481D01*
X0358877Y0357615D01*
X0358958Y0357746D01*
X0359043Y0357875D01*
X0359131Y0358003D01*
X0359222Y0358127D01*
X0359316Y0358250D01*
X0359414Y0358370D01*
X0359514Y0358487D01*
X0359618Y0358602D01*
X0359724Y0358714D01*
X0359833Y0358823D01*
X0359945Y0358929D01*
X0360060Y0359033D01*
X0360177Y0359133D01*
X0360297Y0359231D01*
X0360420Y0359325D01*
X0360544Y0359416D01*
X0360672Y0359504D01*
X0360801Y0359589D01*
X0360932Y0359670D01*
X0361066Y0359748D01*
X0361201Y0359822D01*
X0361338Y0359893D01*
X0361478Y0359960D01*
X0361618Y0360024D01*
X0361761Y0360084D01*
X0361904Y0360140D01*
X0362050Y0360193D01*
X0362196Y0360242D01*
X0362344Y0360287D01*
X0362493Y0360328D01*
X0362643Y0360366D01*
X0362794Y0360399D01*
X0362945Y0360429D01*
X0363098Y0360455D01*
X0363251Y0360476D01*
X0363404Y0360494D01*
X0363558Y0360508D01*
X0363712Y0360518D01*
X0363867Y0360524D01*
X0364021Y0360526D01*
X0364175Y0360524D01*
X0364330Y0360518D01*
X0364484Y0360508D01*
X0364638Y0360494D01*
X0364791Y0360476D01*
X0364944Y0360455D01*
X0365097Y0360429D01*
X0365248Y0360399D01*
X0365399Y0360366D01*
X0365549Y0360328D01*
X0365698Y0360287D01*
X0365846Y0360242D01*
X0365992Y0360193D01*
X0366138Y0360140D01*
X0366281Y0360084D01*
X0366424Y0360024D01*
X0366564Y0359960D01*
X0366704Y0359893D01*
X0366841Y0359822D01*
X0366976Y0359748D01*
X0367110Y0359670D01*
X0367241Y0359589D01*
X0367370Y0359504D01*
X0367498Y0359416D01*
X0367622Y0359325D01*
X0367745Y0359231D01*
X0367865Y0359133D01*
X0367982Y0359033D01*
X0368097Y0358929D01*
X0368209Y0358823D01*
X0368318Y0358714D01*
X0368424Y0358602D01*
X0368528Y0358487D01*
X0368628Y0358370D01*
X0368726Y0358250D01*
X0368820Y0358127D01*
X0368911Y0358003D01*
X0368999Y0357875D01*
X0369084Y0357746D01*
X0369165Y0357615D01*
X0369243Y0357481D01*
X0369317Y0357346D01*
X0369388Y0357209D01*
X0369455Y0357069D01*
X0369519Y0356929D01*
X0369579Y0356786D01*
X0369635Y0356643D01*
X0369688Y0356497D01*
X0369737Y0356351D01*
X0369782Y0356203D01*
X0369823Y0356054D01*
X0369861Y0355904D01*
X0369894Y0355753D01*
X0369924Y0355602D01*
X0369950Y0355449D01*
X0369971Y0355296D01*
X0369989Y0355143D01*
X0370003Y0354989D01*
X0370013Y0354835D01*
X0370019Y0354680D01*
X0370021Y0354526D01*
X0370019Y0354372D01*
X0370013Y0354217D01*
X0370003Y0354063D01*
X0369989Y0353909D01*
X0369971Y0353756D01*
X0369950Y0353603D01*
X0369924Y0353450D01*
X0369894Y0353299D01*
X0369861Y0353148D01*
X0369823Y0352998D01*
X0369782Y0352849D01*
X0369737Y0352701D01*
X0369688Y0352555D01*
X0369635Y0352409D01*
X0369579Y0352266D01*
X0369519Y0352123D01*
X0369455Y0351983D01*
X0369388Y0351843D01*
X0369317Y0351706D01*
X0369243Y0351571D01*
X0369165Y0351437D01*
X0369084Y0351306D01*
X0368999Y0351177D01*
X0368911Y0351049D01*
X0368820Y0350925D01*
X0368726Y0350802D01*
X0368628Y0350682D01*
X0368528Y0350565D01*
X0368424Y0350450D01*
X0368318Y0350338D01*
X0368209Y0350229D01*
X0368097Y0350123D01*
X0367982Y0350019D01*
X0367865Y0349919D01*
X0367745Y0349821D01*
X0367622Y0349727D01*
X0367498Y0349636D01*
X0367370Y0349548D01*
X0367241Y0349463D01*
X0367110Y0349382D01*
X0366976Y0349304D01*
X0366841Y0349230D01*
X0366704Y0349159D01*
X0366564Y0349092D01*
X0366424Y0349028D01*
X0366281Y0348968D01*
X0366138Y0348912D01*
X0365992Y0348859D01*
X0365846Y0348810D01*
X0365698Y0348765D01*
X0365549Y0348724D01*
X0365399Y0348686D01*
X0365248Y0348653D01*
X0365097Y0348623D01*
X0364944Y0348597D01*
X0364791Y0348576D01*
X0364638Y0348558D01*
X0364484Y0348544D01*
X0364330Y0348534D01*
X0364175Y0348528D01*
X0364021Y0348526D01*
X0363867Y0348528D01*
X0363712Y0348534D01*
X0363558Y0348544D01*
X0363404Y0348558D01*
X0363251Y0348576D01*
X0363098Y0348597D01*
X0362945Y0348623D01*
X0362794Y0348653D01*
X0362643Y0348686D01*
X0362493Y0348724D01*
X0362344Y0348765D01*
X0362196Y0348810D01*
X0362050Y0348859D01*
X0361904Y0348912D01*
X0361761Y0348968D01*
X0361618Y0349028D01*
X0361478Y0349092D01*
X0361338Y0349159D01*
X0361201Y0349230D01*
X0361066Y0349304D01*
X0360932Y0349382D01*
X0360801Y0349463D01*
X0360672Y0349548D01*
X0360544Y0349636D01*
X0360420Y0349727D01*
X0360297Y0349821D01*
X0360177Y0349919D01*
X0360060Y0350019D01*
X0359945Y0350123D01*
X0359833Y0350229D01*
X0359724Y0350338D01*
X0359618Y0350450D01*
X0359514Y0350565D01*
X0359414Y0350682D01*
X0359316Y0350802D01*
X0359222Y0350925D01*
X0359131Y0351049D01*
X0359043Y0351177D01*
X0358958Y0351306D01*
X0358877Y0351437D01*
X0358799Y0351571D01*
X0358725Y0351706D01*
X0358654Y0351843D01*
X0358587Y0351983D01*
X0358523Y0352123D01*
X0358463Y0352266D01*
X0358407Y0352409D01*
X0358354Y0352555D01*
X0358305Y0352701D01*
X0358260Y0352849D01*
X0358219Y0352998D01*
X0358181Y0353148D01*
X0358148Y0353299D01*
X0358118Y0353450D01*
X0358092Y0353603D01*
X0358071Y0353756D01*
X0358053Y0353909D01*
X0358039Y0354063D01*
X0358029Y0354217D01*
X0358023Y0354372D01*
X0358021Y0354526D01*
X0129675Y0161613D02*
X0129677Y0161767D01*
X0129683Y0161922D01*
X0129693Y0162076D01*
X0129707Y0162230D01*
X0129725Y0162383D01*
X0129746Y0162536D01*
X0129772Y0162689D01*
X0129802Y0162840D01*
X0129835Y0162991D01*
X0129873Y0163141D01*
X0129914Y0163290D01*
X0129959Y0163438D01*
X0130008Y0163584D01*
X0130061Y0163730D01*
X0130117Y0163873D01*
X0130177Y0164016D01*
X0130241Y0164156D01*
X0130308Y0164296D01*
X0130379Y0164433D01*
X0130453Y0164568D01*
X0130531Y0164702D01*
X0130612Y0164833D01*
X0130697Y0164962D01*
X0130785Y0165090D01*
X0130876Y0165214D01*
X0130970Y0165337D01*
X0131068Y0165457D01*
X0131168Y0165574D01*
X0131272Y0165689D01*
X0131378Y0165801D01*
X0131487Y0165910D01*
X0131599Y0166016D01*
X0131714Y0166120D01*
X0131831Y0166220D01*
X0131951Y0166318D01*
X0132074Y0166412D01*
X0132198Y0166503D01*
X0132326Y0166591D01*
X0132455Y0166676D01*
X0132586Y0166757D01*
X0132720Y0166835D01*
X0132855Y0166909D01*
X0132992Y0166980D01*
X0133132Y0167047D01*
X0133272Y0167111D01*
X0133415Y0167171D01*
X0133558Y0167227D01*
X0133704Y0167280D01*
X0133850Y0167329D01*
X0133998Y0167374D01*
X0134147Y0167415D01*
X0134297Y0167453D01*
X0134448Y0167486D01*
X0134599Y0167516D01*
X0134752Y0167542D01*
X0134905Y0167563D01*
X0135058Y0167581D01*
X0135212Y0167595D01*
X0135366Y0167605D01*
X0135521Y0167611D01*
X0135675Y0167613D01*
X0135829Y0167611D01*
X0135984Y0167605D01*
X0136138Y0167595D01*
X0136292Y0167581D01*
X0136445Y0167563D01*
X0136598Y0167542D01*
X0136751Y0167516D01*
X0136902Y0167486D01*
X0137053Y0167453D01*
X0137203Y0167415D01*
X0137352Y0167374D01*
X0137500Y0167329D01*
X0137646Y0167280D01*
X0137792Y0167227D01*
X0137935Y0167171D01*
X0138078Y0167111D01*
X0138218Y0167047D01*
X0138358Y0166980D01*
X0138495Y0166909D01*
X0138630Y0166835D01*
X0138764Y0166757D01*
X0138895Y0166676D01*
X0139024Y0166591D01*
X0139152Y0166503D01*
X0139276Y0166412D01*
X0139399Y0166318D01*
X0139519Y0166220D01*
X0139636Y0166120D01*
X0139751Y0166016D01*
X0139863Y0165910D01*
X0139972Y0165801D01*
X0140078Y0165689D01*
X0140182Y0165574D01*
X0140282Y0165457D01*
X0140380Y0165337D01*
X0140474Y0165214D01*
X0140565Y0165090D01*
X0140653Y0164962D01*
X0140738Y0164833D01*
X0140819Y0164702D01*
X0140897Y0164568D01*
X0140971Y0164433D01*
X0141042Y0164296D01*
X0141109Y0164156D01*
X0141173Y0164016D01*
X0141233Y0163873D01*
X0141289Y0163730D01*
X0141342Y0163584D01*
X0141391Y0163438D01*
X0141436Y0163290D01*
X0141477Y0163141D01*
X0141515Y0162991D01*
X0141548Y0162840D01*
X0141578Y0162689D01*
X0141604Y0162536D01*
X0141625Y0162383D01*
X0141643Y0162230D01*
X0141657Y0162076D01*
X0141667Y0161922D01*
X0141673Y0161767D01*
X0141675Y0161613D01*
X0141673Y0161459D01*
X0141667Y0161304D01*
X0141657Y0161150D01*
X0141643Y0160996D01*
X0141625Y0160843D01*
X0141604Y0160690D01*
X0141578Y0160537D01*
X0141548Y0160386D01*
X0141515Y0160235D01*
X0141477Y0160085D01*
X0141436Y0159936D01*
X0141391Y0159788D01*
X0141342Y0159642D01*
X0141289Y0159496D01*
X0141233Y0159353D01*
X0141173Y0159210D01*
X0141109Y0159070D01*
X0141042Y0158930D01*
X0140971Y0158793D01*
X0140897Y0158658D01*
X0140819Y0158524D01*
X0140738Y0158393D01*
X0140653Y0158264D01*
X0140565Y0158136D01*
X0140474Y0158012D01*
X0140380Y0157889D01*
X0140282Y0157769D01*
X0140182Y0157652D01*
X0140078Y0157537D01*
X0139972Y0157425D01*
X0139863Y0157316D01*
X0139751Y0157210D01*
X0139636Y0157106D01*
X0139519Y0157006D01*
X0139399Y0156908D01*
X0139276Y0156814D01*
X0139152Y0156723D01*
X0139024Y0156635D01*
X0138895Y0156550D01*
X0138764Y0156469D01*
X0138630Y0156391D01*
X0138495Y0156317D01*
X0138358Y0156246D01*
X0138218Y0156179D01*
X0138078Y0156115D01*
X0137935Y0156055D01*
X0137792Y0155999D01*
X0137646Y0155946D01*
X0137500Y0155897D01*
X0137352Y0155852D01*
X0137203Y0155811D01*
X0137053Y0155773D01*
X0136902Y0155740D01*
X0136751Y0155710D01*
X0136598Y0155684D01*
X0136445Y0155663D01*
X0136292Y0155645D01*
X0136138Y0155631D01*
X0135984Y0155621D01*
X0135829Y0155615D01*
X0135675Y0155613D01*
X0135521Y0155615D01*
X0135366Y0155621D01*
X0135212Y0155631D01*
X0135058Y0155645D01*
X0134905Y0155663D01*
X0134752Y0155684D01*
X0134599Y0155710D01*
X0134448Y0155740D01*
X0134297Y0155773D01*
X0134147Y0155811D01*
X0133998Y0155852D01*
X0133850Y0155897D01*
X0133704Y0155946D01*
X0133558Y0155999D01*
X0133415Y0156055D01*
X0133272Y0156115D01*
X0133132Y0156179D01*
X0132992Y0156246D01*
X0132855Y0156317D01*
X0132720Y0156391D01*
X0132586Y0156469D01*
X0132455Y0156550D01*
X0132326Y0156635D01*
X0132198Y0156723D01*
X0132074Y0156814D01*
X0131951Y0156908D01*
X0131831Y0157006D01*
X0131714Y0157106D01*
X0131599Y0157210D01*
X0131487Y0157316D01*
X0131378Y0157425D01*
X0131272Y0157537D01*
X0131168Y0157652D01*
X0131068Y0157769D01*
X0130970Y0157889D01*
X0130876Y0158012D01*
X0130785Y0158136D01*
X0130697Y0158264D01*
X0130612Y0158393D01*
X0130531Y0158524D01*
X0130453Y0158658D01*
X0130379Y0158793D01*
X0130308Y0158930D01*
X0130241Y0159070D01*
X0130177Y0159210D01*
X0130117Y0159353D01*
X0130061Y0159496D01*
X0130008Y0159642D01*
X0129959Y0159788D01*
X0129914Y0159936D01*
X0129873Y0160085D01*
X0129835Y0160235D01*
X0129802Y0160386D01*
X0129772Y0160537D01*
X0129746Y0160690D01*
X0129725Y0160843D01*
X0129707Y0160996D01*
X0129693Y0161150D01*
X0129683Y0161304D01*
X0129677Y0161459D01*
X0129675Y0161613D01*
D13*
X0128076Y0301144D02*
X0125635Y0301144D01*
X0128076Y0301144D01*
X0128143Y0301146D01*
X0128211Y0301152D01*
X0128277Y0301161D01*
X0128343Y0301175D01*
X0128409Y0301192D01*
X0128473Y0301213D01*
X0128536Y0301237D01*
X0128597Y0301265D01*
X0128657Y0301297D01*
X0128714Y0301331D01*
X0128770Y0301370D01*
X0128824Y0301411D01*
X0128875Y0301455D01*
X0128923Y0301502D01*
X0128969Y0301552D01*
X0129011Y0301604D01*
X0129051Y0301658D01*
X0129087Y0301715D01*
X0129121Y0301774D01*
X0129150Y0301834D01*
X0129177Y0301897D01*
X0129199Y0301960D01*
X0129218Y0302025D01*
X0129233Y0302090D01*
X0129245Y0302157D01*
X0129253Y0302224D01*
X0129257Y0302291D01*
X0129257Y0302359D01*
X0129253Y0302426D01*
X0129245Y0302493D01*
X0129233Y0302560D01*
X0129218Y0302625D01*
X0129199Y0302690D01*
X0129177Y0302753D01*
X0129150Y0302816D01*
X0129121Y0302876D01*
X0129087Y0302935D01*
X0129051Y0302992D01*
X0129011Y0303046D01*
X0128969Y0303098D01*
X0128923Y0303148D01*
X0128875Y0303195D01*
X0128824Y0303239D01*
X0128770Y0303280D01*
X0128714Y0303319D01*
X0128657Y0303353D01*
X0128597Y0303385D01*
X0128536Y0303413D01*
X0128473Y0303437D01*
X0128409Y0303458D01*
X0128343Y0303475D01*
X0128277Y0303489D01*
X0128211Y0303498D01*
X0128143Y0303504D01*
X0128076Y0303506D01*
X0125635Y0303506D01*
X0128076Y0303506D01*
X0128143Y0303504D01*
X0128211Y0303498D01*
X0128277Y0303489D01*
X0128343Y0303475D01*
X0128409Y0303458D01*
X0128473Y0303437D01*
X0128536Y0303413D01*
X0128597Y0303385D01*
X0128657Y0303353D01*
X0128714Y0303319D01*
X0128770Y0303280D01*
X0128824Y0303239D01*
X0128875Y0303195D01*
X0128923Y0303148D01*
X0128969Y0303098D01*
X0129011Y0303046D01*
X0129051Y0302992D01*
X0129087Y0302935D01*
X0129121Y0302876D01*
X0129150Y0302816D01*
X0129177Y0302753D01*
X0129199Y0302690D01*
X0129218Y0302625D01*
X0129233Y0302560D01*
X0129245Y0302493D01*
X0129253Y0302426D01*
X0129257Y0302359D01*
X0129257Y0302291D01*
X0129253Y0302224D01*
X0129245Y0302157D01*
X0129233Y0302090D01*
X0129218Y0302025D01*
X0129199Y0301960D01*
X0129177Y0301897D01*
X0129150Y0301834D01*
X0129121Y0301774D01*
X0129087Y0301715D01*
X0129051Y0301658D01*
X0129011Y0301604D01*
X0128969Y0301552D01*
X0128923Y0301502D01*
X0128875Y0301455D01*
X0128824Y0301411D01*
X0128770Y0301370D01*
X0128714Y0301331D01*
X0128657Y0301297D01*
X0128597Y0301265D01*
X0128536Y0301237D01*
X0128473Y0301213D01*
X0128409Y0301192D01*
X0128343Y0301175D01*
X0128277Y0301161D01*
X0128211Y0301152D01*
X0128143Y0301146D01*
X0128076Y0301144D01*
X0125635Y0301144D02*
X0125568Y0301146D01*
X0125500Y0301152D01*
X0125434Y0301161D01*
X0125368Y0301175D01*
X0125302Y0301192D01*
X0125238Y0301213D01*
X0125175Y0301237D01*
X0125114Y0301265D01*
X0125054Y0301297D01*
X0124997Y0301331D01*
X0124941Y0301370D01*
X0124887Y0301411D01*
X0124836Y0301455D01*
X0124788Y0301502D01*
X0124742Y0301552D01*
X0124700Y0301604D01*
X0124660Y0301658D01*
X0124624Y0301715D01*
X0124590Y0301774D01*
X0124561Y0301834D01*
X0124534Y0301897D01*
X0124512Y0301960D01*
X0124493Y0302025D01*
X0124478Y0302090D01*
X0124466Y0302157D01*
X0124458Y0302224D01*
X0124454Y0302291D01*
X0124454Y0302359D01*
X0124458Y0302426D01*
X0124466Y0302493D01*
X0124478Y0302560D01*
X0124493Y0302625D01*
X0124512Y0302690D01*
X0124534Y0302753D01*
X0124561Y0302816D01*
X0124590Y0302876D01*
X0124624Y0302935D01*
X0124660Y0302992D01*
X0124700Y0303046D01*
X0124742Y0303098D01*
X0124788Y0303148D01*
X0124836Y0303195D01*
X0124887Y0303239D01*
X0124941Y0303280D01*
X0124997Y0303319D01*
X0125054Y0303353D01*
X0125114Y0303385D01*
X0125175Y0303413D01*
X0125238Y0303437D01*
X0125302Y0303458D01*
X0125368Y0303475D01*
X0125434Y0303489D01*
X0125500Y0303498D01*
X0125568Y0303504D01*
X0125635Y0303506D01*
X0125568Y0303504D01*
X0125500Y0303498D01*
X0125434Y0303489D01*
X0125368Y0303475D01*
X0125302Y0303458D01*
X0125238Y0303437D01*
X0125175Y0303413D01*
X0125114Y0303385D01*
X0125054Y0303353D01*
X0124997Y0303319D01*
X0124941Y0303280D01*
X0124887Y0303239D01*
X0124836Y0303195D01*
X0124788Y0303148D01*
X0124742Y0303098D01*
X0124700Y0303046D01*
X0124660Y0302992D01*
X0124624Y0302935D01*
X0124590Y0302876D01*
X0124561Y0302816D01*
X0124534Y0302753D01*
X0124512Y0302690D01*
X0124493Y0302625D01*
X0124478Y0302560D01*
X0124466Y0302493D01*
X0124458Y0302426D01*
X0124454Y0302359D01*
X0124454Y0302291D01*
X0124458Y0302224D01*
X0124466Y0302157D01*
X0124478Y0302090D01*
X0124493Y0302025D01*
X0124512Y0301960D01*
X0124534Y0301897D01*
X0124561Y0301834D01*
X0124590Y0301774D01*
X0124624Y0301715D01*
X0124660Y0301658D01*
X0124700Y0301604D01*
X0124742Y0301552D01*
X0124788Y0301502D01*
X0124836Y0301455D01*
X0124887Y0301411D01*
X0124941Y0301370D01*
X0124997Y0301331D01*
X0125054Y0301297D01*
X0125114Y0301265D01*
X0125175Y0301237D01*
X0125238Y0301213D01*
X0125302Y0301192D01*
X0125368Y0301175D01*
X0125434Y0301161D01*
X0125500Y0301152D01*
X0125568Y0301146D01*
X0125635Y0301144D01*
X0141127Y0301144D02*
X0145458Y0301144D01*
X0141127Y0301144D01*
X0141060Y0301146D01*
X0140992Y0301152D01*
X0140926Y0301161D01*
X0140860Y0301175D01*
X0140794Y0301192D01*
X0140730Y0301213D01*
X0140667Y0301237D01*
X0140606Y0301265D01*
X0140546Y0301297D01*
X0140489Y0301331D01*
X0140433Y0301370D01*
X0140379Y0301411D01*
X0140328Y0301455D01*
X0140280Y0301502D01*
X0140234Y0301552D01*
X0140192Y0301604D01*
X0140152Y0301658D01*
X0140116Y0301715D01*
X0140082Y0301774D01*
X0140053Y0301834D01*
X0140026Y0301897D01*
X0140004Y0301960D01*
X0139985Y0302025D01*
X0139970Y0302090D01*
X0139958Y0302157D01*
X0139950Y0302224D01*
X0139946Y0302291D01*
X0139946Y0302359D01*
X0139950Y0302426D01*
X0139958Y0302493D01*
X0139970Y0302560D01*
X0139985Y0302625D01*
X0140004Y0302690D01*
X0140026Y0302753D01*
X0140053Y0302816D01*
X0140082Y0302876D01*
X0140116Y0302935D01*
X0140152Y0302992D01*
X0140192Y0303046D01*
X0140234Y0303098D01*
X0140280Y0303148D01*
X0140328Y0303195D01*
X0140379Y0303239D01*
X0140433Y0303280D01*
X0140489Y0303319D01*
X0140546Y0303353D01*
X0140606Y0303385D01*
X0140667Y0303413D01*
X0140730Y0303437D01*
X0140794Y0303458D01*
X0140860Y0303475D01*
X0140926Y0303489D01*
X0140992Y0303498D01*
X0141060Y0303504D01*
X0141127Y0303506D01*
X0145458Y0303506D01*
X0141127Y0303506D01*
X0141060Y0303504D01*
X0140992Y0303498D01*
X0140926Y0303489D01*
X0140860Y0303475D01*
X0140794Y0303458D01*
X0140730Y0303437D01*
X0140667Y0303413D01*
X0140606Y0303385D01*
X0140546Y0303353D01*
X0140489Y0303319D01*
X0140433Y0303280D01*
X0140379Y0303239D01*
X0140328Y0303195D01*
X0140280Y0303148D01*
X0140234Y0303098D01*
X0140192Y0303046D01*
X0140152Y0302992D01*
X0140116Y0302935D01*
X0140082Y0302876D01*
X0140053Y0302816D01*
X0140026Y0302753D01*
X0140004Y0302690D01*
X0139985Y0302625D01*
X0139970Y0302560D01*
X0139958Y0302493D01*
X0139950Y0302426D01*
X0139946Y0302359D01*
X0139946Y0302291D01*
X0139950Y0302224D01*
X0139958Y0302157D01*
X0139970Y0302090D01*
X0139985Y0302025D01*
X0140004Y0301960D01*
X0140026Y0301897D01*
X0140053Y0301834D01*
X0140082Y0301774D01*
X0140116Y0301715D01*
X0140152Y0301658D01*
X0140192Y0301604D01*
X0140234Y0301552D01*
X0140280Y0301502D01*
X0140328Y0301455D01*
X0140379Y0301411D01*
X0140433Y0301370D01*
X0140489Y0301331D01*
X0140546Y0301297D01*
X0140606Y0301265D01*
X0140667Y0301237D01*
X0140730Y0301213D01*
X0140794Y0301192D01*
X0140860Y0301175D01*
X0140926Y0301161D01*
X0140992Y0301152D01*
X0141060Y0301146D01*
X0141127Y0301144D01*
X0145458Y0301144D02*
X0145525Y0301146D01*
X0145593Y0301152D01*
X0145659Y0301161D01*
X0145725Y0301175D01*
X0145791Y0301192D01*
X0145855Y0301213D01*
X0145918Y0301237D01*
X0145979Y0301265D01*
X0146039Y0301297D01*
X0146096Y0301331D01*
X0146152Y0301370D01*
X0146206Y0301411D01*
X0146257Y0301455D01*
X0146305Y0301502D01*
X0146351Y0301552D01*
X0146393Y0301604D01*
X0146433Y0301658D01*
X0146469Y0301715D01*
X0146503Y0301774D01*
X0146532Y0301834D01*
X0146559Y0301897D01*
X0146581Y0301960D01*
X0146600Y0302025D01*
X0146615Y0302090D01*
X0146627Y0302157D01*
X0146635Y0302224D01*
X0146639Y0302291D01*
X0146639Y0302359D01*
X0146635Y0302426D01*
X0146627Y0302493D01*
X0146615Y0302560D01*
X0146600Y0302625D01*
X0146581Y0302690D01*
X0146559Y0302753D01*
X0146532Y0302816D01*
X0146503Y0302876D01*
X0146469Y0302935D01*
X0146433Y0302992D01*
X0146393Y0303046D01*
X0146351Y0303098D01*
X0146305Y0303148D01*
X0146257Y0303195D01*
X0146206Y0303239D01*
X0146152Y0303280D01*
X0146096Y0303319D01*
X0146039Y0303353D01*
X0145979Y0303385D01*
X0145918Y0303413D01*
X0145855Y0303437D01*
X0145791Y0303458D01*
X0145725Y0303475D01*
X0145659Y0303489D01*
X0145593Y0303498D01*
X0145525Y0303504D01*
X0145458Y0303506D01*
X0145525Y0303504D01*
X0145593Y0303498D01*
X0145659Y0303489D01*
X0145725Y0303475D01*
X0145791Y0303458D01*
X0145855Y0303437D01*
X0145918Y0303413D01*
X0145979Y0303385D01*
X0146039Y0303353D01*
X0146096Y0303319D01*
X0146152Y0303280D01*
X0146206Y0303239D01*
X0146257Y0303195D01*
X0146305Y0303148D01*
X0146351Y0303098D01*
X0146393Y0303046D01*
X0146433Y0302992D01*
X0146469Y0302935D01*
X0146503Y0302876D01*
X0146532Y0302816D01*
X0146559Y0302753D01*
X0146581Y0302690D01*
X0146600Y0302625D01*
X0146615Y0302560D01*
X0146627Y0302493D01*
X0146635Y0302426D01*
X0146639Y0302359D01*
X0146639Y0302291D01*
X0146635Y0302224D01*
X0146627Y0302157D01*
X0146615Y0302090D01*
X0146600Y0302025D01*
X0146581Y0301960D01*
X0146559Y0301897D01*
X0146532Y0301834D01*
X0146503Y0301774D01*
X0146469Y0301715D01*
X0146433Y0301658D01*
X0146393Y0301604D01*
X0146351Y0301552D01*
X0146305Y0301502D01*
X0146257Y0301455D01*
X0146206Y0301411D01*
X0146152Y0301370D01*
X0146096Y0301331D01*
X0146039Y0301297D01*
X0145979Y0301265D01*
X0145918Y0301237D01*
X0145855Y0301213D01*
X0145791Y0301192D01*
X0145725Y0301175D01*
X0145659Y0301161D01*
X0145593Y0301152D01*
X0145525Y0301146D01*
X0145458Y0301144D01*
X0145458Y0335160D02*
X0141127Y0335160D01*
X0145458Y0335160D01*
X0145525Y0335162D01*
X0145593Y0335168D01*
X0145659Y0335177D01*
X0145725Y0335191D01*
X0145791Y0335208D01*
X0145855Y0335229D01*
X0145918Y0335253D01*
X0145979Y0335281D01*
X0146039Y0335313D01*
X0146096Y0335347D01*
X0146152Y0335386D01*
X0146206Y0335427D01*
X0146257Y0335471D01*
X0146305Y0335518D01*
X0146351Y0335568D01*
X0146393Y0335620D01*
X0146433Y0335674D01*
X0146469Y0335731D01*
X0146503Y0335790D01*
X0146532Y0335850D01*
X0146559Y0335913D01*
X0146581Y0335976D01*
X0146600Y0336041D01*
X0146615Y0336106D01*
X0146627Y0336173D01*
X0146635Y0336240D01*
X0146639Y0336307D01*
X0146639Y0336375D01*
X0146635Y0336442D01*
X0146627Y0336509D01*
X0146615Y0336576D01*
X0146600Y0336641D01*
X0146581Y0336706D01*
X0146559Y0336769D01*
X0146532Y0336832D01*
X0146503Y0336892D01*
X0146469Y0336951D01*
X0146433Y0337008D01*
X0146393Y0337062D01*
X0146351Y0337114D01*
X0146305Y0337164D01*
X0146257Y0337211D01*
X0146206Y0337255D01*
X0146152Y0337296D01*
X0146096Y0337335D01*
X0146039Y0337369D01*
X0145979Y0337401D01*
X0145918Y0337429D01*
X0145855Y0337453D01*
X0145791Y0337474D01*
X0145725Y0337491D01*
X0145659Y0337505D01*
X0145593Y0337514D01*
X0145525Y0337520D01*
X0145458Y0337522D01*
X0141127Y0337522D01*
X0145458Y0337522D01*
X0145525Y0337520D01*
X0145593Y0337514D01*
X0145659Y0337505D01*
X0145725Y0337491D01*
X0145791Y0337474D01*
X0145855Y0337453D01*
X0145918Y0337429D01*
X0145979Y0337401D01*
X0146039Y0337369D01*
X0146096Y0337335D01*
X0146152Y0337296D01*
X0146206Y0337255D01*
X0146257Y0337211D01*
X0146305Y0337164D01*
X0146351Y0337114D01*
X0146393Y0337062D01*
X0146433Y0337008D01*
X0146469Y0336951D01*
X0146503Y0336892D01*
X0146532Y0336832D01*
X0146559Y0336769D01*
X0146581Y0336706D01*
X0146600Y0336641D01*
X0146615Y0336576D01*
X0146627Y0336509D01*
X0146635Y0336442D01*
X0146639Y0336375D01*
X0146639Y0336307D01*
X0146635Y0336240D01*
X0146627Y0336173D01*
X0146615Y0336106D01*
X0146600Y0336041D01*
X0146581Y0335976D01*
X0146559Y0335913D01*
X0146532Y0335850D01*
X0146503Y0335790D01*
X0146469Y0335731D01*
X0146433Y0335674D01*
X0146393Y0335620D01*
X0146351Y0335568D01*
X0146305Y0335518D01*
X0146257Y0335471D01*
X0146206Y0335427D01*
X0146152Y0335386D01*
X0146096Y0335347D01*
X0146039Y0335313D01*
X0145979Y0335281D01*
X0145918Y0335253D01*
X0145855Y0335229D01*
X0145791Y0335208D01*
X0145725Y0335191D01*
X0145659Y0335177D01*
X0145593Y0335168D01*
X0145525Y0335162D01*
X0145458Y0335160D01*
X0141127Y0335160D02*
X0141060Y0335162D01*
X0140992Y0335168D01*
X0140926Y0335177D01*
X0140860Y0335191D01*
X0140794Y0335208D01*
X0140730Y0335229D01*
X0140667Y0335253D01*
X0140606Y0335281D01*
X0140546Y0335313D01*
X0140489Y0335347D01*
X0140433Y0335386D01*
X0140379Y0335427D01*
X0140328Y0335471D01*
X0140280Y0335518D01*
X0140234Y0335568D01*
X0140192Y0335620D01*
X0140152Y0335674D01*
X0140116Y0335731D01*
X0140082Y0335790D01*
X0140053Y0335850D01*
X0140026Y0335913D01*
X0140004Y0335976D01*
X0139985Y0336041D01*
X0139970Y0336106D01*
X0139958Y0336173D01*
X0139950Y0336240D01*
X0139946Y0336307D01*
X0139946Y0336375D01*
X0139950Y0336442D01*
X0139958Y0336509D01*
X0139970Y0336576D01*
X0139985Y0336641D01*
X0140004Y0336706D01*
X0140026Y0336769D01*
X0140053Y0336832D01*
X0140082Y0336892D01*
X0140116Y0336951D01*
X0140152Y0337008D01*
X0140192Y0337062D01*
X0140234Y0337114D01*
X0140280Y0337164D01*
X0140328Y0337211D01*
X0140379Y0337255D01*
X0140433Y0337296D01*
X0140489Y0337335D01*
X0140546Y0337369D01*
X0140606Y0337401D01*
X0140667Y0337429D01*
X0140730Y0337453D01*
X0140794Y0337474D01*
X0140860Y0337491D01*
X0140926Y0337505D01*
X0140992Y0337514D01*
X0141060Y0337520D01*
X0141127Y0337522D01*
X0141060Y0337520D01*
X0140992Y0337514D01*
X0140926Y0337505D01*
X0140860Y0337491D01*
X0140794Y0337474D01*
X0140730Y0337453D01*
X0140667Y0337429D01*
X0140606Y0337401D01*
X0140546Y0337369D01*
X0140489Y0337335D01*
X0140433Y0337296D01*
X0140379Y0337255D01*
X0140328Y0337211D01*
X0140280Y0337164D01*
X0140234Y0337114D01*
X0140192Y0337062D01*
X0140152Y0337008D01*
X0140116Y0336951D01*
X0140082Y0336892D01*
X0140053Y0336832D01*
X0140026Y0336769D01*
X0140004Y0336706D01*
X0139985Y0336641D01*
X0139970Y0336576D01*
X0139958Y0336509D01*
X0139950Y0336442D01*
X0139946Y0336375D01*
X0139946Y0336307D01*
X0139950Y0336240D01*
X0139958Y0336173D01*
X0139970Y0336106D01*
X0139985Y0336041D01*
X0140004Y0335976D01*
X0140026Y0335913D01*
X0140053Y0335850D01*
X0140082Y0335790D01*
X0140116Y0335731D01*
X0140152Y0335674D01*
X0140192Y0335620D01*
X0140234Y0335568D01*
X0140280Y0335518D01*
X0140328Y0335471D01*
X0140379Y0335427D01*
X0140433Y0335386D01*
X0140489Y0335347D01*
X0140546Y0335313D01*
X0140606Y0335281D01*
X0140667Y0335253D01*
X0140730Y0335229D01*
X0140794Y0335208D01*
X0140860Y0335191D01*
X0140926Y0335177D01*
X0140992Y0335168D01*
X0141060Y0335162D01*
X0141127Y0335160D01*
X0128076Y0335160D02*
X0125635Y0335160D01*
X0128076Y0335160D01*
X0128143Y0335162D01*
X0128211Y0335168D01*
X0128277Y0335177D01*
X0128343Y0335191D01*
X0128409Y0335208D01*
X0128473Y0335229D01*
X0128536Y0335253D01*
X0128597Y0335281D01*
X0128657Y0335313D01*
X0128714Y0335347D01*
X0128770Y0335386D01*
X0128824Y0335427D01*
X0128875Y0335471D01*
X0128923Y0335518D01*
X0128969Y0335568D01*
X0129011Y0335620D01*
X0129051Y0335674D01*
X0129087Y0335731D01*
X0129121Y0335790D01*
X0129150Y0335850D01*
X0129177Y0335913D01*
X0129199Y0335976D01*
X0129218Y0336041D01*
X0129233Y0336106D01*
X0129245Y0336173D01*
X0129253Y0336240D01*
X0129257Y0336307D01*
X0129257Y0336375D01*
X0129253Y0336442D01*
X0129245Y0336509D01*
X0129233Y0336576D01*
X0129218Y0336641D01*
X0129199Y0336706D01*
X0129177Y0336769D01*
X0129150Y0336832D01*
X0129121Y0336892D01*
X0129087Y0336951D01*
X0129051Y0337008D01*
X0129011Y0337062D01*
X0128969Y0337114D01*
X0128923Y0337164D01*
X0128875Y0337211D01*
X0128824Y0337255D01*
X0128770Y0337296D01*
X0128714Y0337335D01*
X0128657Y0337369D01*
X0128597Y0337401D01*
X0128536Y0337429D01*
X0128473Y0337453D01*
X0128409Y0337474D01*
X0128343Y0337491D01*
X0128277Y0337505D01*
X0128211Y0337514D01*
X0128143Y0337520D01*
X0128076Y0337522D01*
X0125635Y0337522D01*
X0128076Y0337522D01*
X0128143Y0337520D01*
X0128211Y0337514D01*
X0128277Y0337505D01*
X0128343Y0337491D01*
X0128409Y0337474D01*
X0128473Y0337453D01*
X0128536Y0337429D01*
X0128597Y0337401D01*
X0128657Y0337369D01*
X0128714Y0337335D01*
X0128770Y0337296D01*
X0128824Y0337255D01*
X0128875Y0337211D01*
X0128923Y0337164D01*
X0128969Y0337114D01*
X0129011Y0337062D01*
X0129051Y0337008D01*
X0129087Y0336951D01*
X0129121Y0336892D01*
X0129150Y0336832D01*
X0129177Y0336769D01*
X0129199Y0336706D01*
X0129218Y0336641D01*
X0129233Y0336576D01*
X0129245Y0336509D01*
X0129253Y0336442D01*
X0129257Y0336375D01*
X0129257Y0336307D01*
X0129253Y0336240D01*
X0129245Y0336173D01*
X0129233Y0336106D01*
X0129218Y0336041D01*
X0129199Y0335976D01*
X0129177Y0335913D01*
X0129150Y0335850D01*
X0129121Y0335790D01*
X0129087Y0335731D01*
X0129051Y0335674D01*
X0129011Y0335620D01*
X0128969Y0335568D01*
X0128923Y0335518D01*
X0128875Y0335471D01*
X0128824Y0335427D01*
X0128770Y0335386D01*
X0128714Y0335347D01*
X0128657Y0335313D01*
X0128597Y0335281D01*
X0128536Y0335253D01*
X0128473Y0335229D01*
X0128409Y0335208D01*
X0128343Y0335191D01*
X0128277Y0335177D01*
X0128211Y0335168D01*
X0128143Y0335162D01*
X0128076Y0335160D01*
X0125635Y0335160D02*
X0125568Y0335162D01*
X0125500Y0335168D01*
X0125434Y0335177D01*
X0125368Y0335191D01*
X0125302Y0335208D01*
X0125238Y0335229D01*
X0125175Y0335253D01*
X0125114Y0335281D01*
X0125054Y0335313D01*
X0124997Y0335347D01*
X0124941Y0335386D01*
X0124887Y0335427D01*
X0124836Y0335471D01*
X0124788Y0335518D01*
X0124742Y0335568D01*
X0124700Y0335620D01*
X0124660Y0335674D01*
X0124624Y0335731D01*
X0124590Y0335790D01*
X0124561Y0335850D01*
X0124534Y0335913D01*
X0124512Y0335976D01*
X0124493Y0336041D01*
X0124478Y0336106D01*
X0124466Y0336173D01*
X0124458Y0336240D01*
X0124454Y0336307D01*
X0124454Y0336375D01*
X0124458Y0336442D01*
X0124466Y0336509D01*
X0124478Y0336576D01*
X0124493Y0336641D01*
X0124512Y0336706D01*
X0124534Y0336769D01*
X0124561Y0336832D01*
X0124590Y0336892D01*
X0124624Y0336951D01*
X0124660Y0337008D01*
X0124700Y0337062D01*
X0124742Y0337114D01*
X0124788Y0337164D01*
X0124836Y0337211D01*
X0124887Y0337255D01*
X0124941Y0337296D01*
X0124997Y0337335D01*
X0125054Y0337369D01*
X0125114Y0337401D01*
X0125175Y0337429D01*
X0125238Y0337453D01*
X0125302Y0337474D01*
X0125368Y0337491D01*
X0125434Y0337505D01*
X0125500Y0337514D01*
X0125568Y0337520D01*
X0125635Y0337522D01*
X0125568Y0337520D01*
X0125500Y0337514D01*
X0125434Y0337505D01*
X0125368Y0337491D01*
X0125302Y0337474D01*
X0125238Y0337453D01*
X0125175Y0337429D01*
X0125114Y0337401D01*
X0125054Y0337369D01*
X0124997Y0337335D01*
X0124941Y0337296D01*
X0124887Y0337255D01*
X0124836Y0337211D01*
X0124788Y0337164D01*
X0124742Y0337114D01*
X0124700Y0337062D01*
X0124660Y0337008D01*
X0124624Y0336951D01*
X0124590Y0336892D01*
X0124561Y0336832D01*
X0124534Y0336769D01*
X0124512Y0336706D01*
X0124493Y0336641D01*
X0124478Y0336576D01*
X0124466Y0336509D01*
X0124458Y0336442D01*
X0124454Y0336375D01*
X0124454Y0336307D01*
X0124458Y0336240D01*
X0124466Y0336173D01*
X0124478Y0336106D01*
X0124493Y0336041D01*
X0124512Y0335976D01*
X0124534Y0335913D01*
X0124561Y0335850D01*
X0124590Y0335790D01*
X0124624Y0335731D01*
X0124660Y0335674D01*
X0124700Y0335620D01*
X0124742Y0335568D01*
X0124788Y0335518D01*
X0124836Y0335471D01*
X0124887Y0335427D01*
X0124941Y0335386D01*
X0124997Y0335347D01*
X0125054Y0335313D01*
X0125114Y0335281D01*
X0125175Y0335253D01*
X0125238Y0335229D01*
X0125302Y0335208D01*
X0125368Y0335191D01*
X0125434Y0335177D01*
X0125500Y0335168D01*
X0125568Y0335162D01*
X0125635Y0335160D01*
M02*
