G75*
%MOIN*%
%OFA0B0*%
%FSLAX25Y25*%
%IPPOS*%
%LPD*%
%AMOC8*
5,1,8,0,0,1.08239X$1,22.5*
%
%ADD10C,0.00800*%
%ADD11C,0.03359*%
%ADD12R,0.05800X0.03300*%
%ADD13R,0.03300X0.05800*%
%ADD14C,0.00500*%
%ADD15C,0.04800*%
%ADD16C,0.03000*%
%ADD17C,0.08200*%
%ADD18C,0.03800*%
%ADD19R,0.06800X0.06800*%
%ADD20C,0.04808*%
%ADD21C,0.04737*%
%ADD22C,0.12800*%
%ADD23C,0.03300*%
D10*
X0171895Y0182833D02*
X0271895Y0182833D01*
X0271895Y0205833D01*
X0171895Y0205833D01*
X0171895Y0182833D01*
X0171895Y0182968D02*
X0271895Y0182968D01*
X0271895Y0183766D02*
X0171895Y0183766D01*
X0171895Y0184565D02*
X0271895Y0184565D01*
X0271895Y0185363D02*
X0171895Y0185363D01*
X0171895Y0186162D02*
X0271895Y0186162D01*
X0271895Y0186960D02*
X0171895Y0186960D01*
X0171895Y0187759D02*
X0271895Y0187759D01*
X0271895Y0188557D02*
X0171895Y0188557D01*
X0171895Y0189356D02*
X0271895Y0189356D01*
X0271895Y0190154D02*
X0171895Y0190154D01*
X0171895Y0190953D02*
X0271895Y0190953D01*
X0271895Y0191751D02*
X0171895Y0191751D01*
X0171895Y0192550D02*
X0271895Y0192550D01*
X0271895Y0193348D02*
X0171895Y0193348D01*
X0171895Y0194147D02*
X0271895Y0194147D01*
X0271895Y0194945D02*
X0171895Y0194945D01*
X0171895Y0195744D02*
X0271895Y0195744D01*
X0271895Y0196542D02*
X0171895Y0196542D01*
X0171895Y0197341D02*
X0271895Y0197341D01*
X0271895Y0198139D02*
X0171895Y0198139D01*
X0171895Y0198938D02*
X0271895Y0198938D01*
X0271895Y0199736D02*
X0171895Y0199736D01*
X0171895Y0200535D02*
X0271895Y0200535D01*
X0271895Y0201333D02*
X0171895Y0201333D01*
X0171895Y0202132D02*
X0271895Y0202132D01*
X0271895Y0202930D02*
X0171895Y0202930D01*
X0171895Y0203729D02*
X0271895Y0203729D01*
X0271895Y0204527D02*
X0171895Y0204527D01*
X0171895Y0205326D02*
X0271895Y0205326D01*
D11*
X0141206Y0307955D03*
X0141206Y0330711D03*
D12*
X0193515Y0325103D03*
X0193515Y0321903D03*
X0191895Y0289433D03*
X0191895Y0286233D03*
X0191785Y0274853D03*
X0191785Y0270853D03*
X0215395Y0240333D03*
X0215395Y0236333D03*
X0224395Y0237233D03*
X0224395Y0240433D03*
X0233395Y0240433D03*
X0233395Y0237233D03*
X0242395Y0237233D03*
X0242395Y0240433D03*
X0248945Y0293653D03*
X0248945Y0296853D03*
D13*
X0307895Y0297243D03*
X0311895Y0297243D03*
X0315895Y0297243D03*
D14*
X0314645Y0297386D02*
X0309145Y0297386D01*
X0309145Y0297743D02*
X0309145Y0296743D01*
X0314645Y0296743D01*
X0314645Y0297743D01*
X0309145Y0297743D01*
X0309145Y0296888D02*
X0314645Y0296888D01*
X0215895Y0239083D02*
X0214895Y0239083D01*
X0214895Y0237583D01*
X0215895Y0237583D01*
X0215895Y0239083D01*
X0215895Y0239061D02*
X0214895Y0239061D01*
X0214895Y0238562D02*
X0215895Y0238562D01*
X0215895Y0238064D02*
X0214895Y0238064D01*
X0192285Y0272103D02*
X0191285Y0272103D01*
X0191285Y0273603D01*
X0192285Y0273603D01*
X0192285Y0272103D01*
X0192285Y0272461D02*
X0191285Y0272461D01*
X0191285Y0272959D02*
X0192285Y0272959D01*
X0192285Y0273458D02*
X0191285Y0273458D01*
D15*
X0156895Y0327833D03*
X0311895Y0227833D03*
X0321895Y0227833D03*
X0331895Y0227833D03*
X0341895Y0227833D03*
X0281895Y0212833D03*
X0271895Y0212833D03*
D16*
X0361595Y0193033D03*
X0361895Y0182833D03*
D17*
X0341395Y0192833D03*
X0331395Y0192833D03*
X0321395Y0192833D03*
X0311395Y0192833D03*
X0312395Y0202833D03*
X0322395Y0202833D03*
X0332395Y0202833D03*
X0342395Y0202833D03*
X0341395Y0212833D03*
X0331395Y0212833D03*
X0321395Y0212833D03*
X0311395Y0212833D03*
X0371895Y0247833D03*
X0371895Y0257833D03*
X0371895Y0267833D03*
X0371895Y0277833D03*
X0371895Y0287833D03*
X0371895Y0297833D03*
X0371895Y0307833D03*
X0371895Y0317833D03*
X0371895Y0327833D03*
X0371895Y0337833D03*
X0344856Y0349471D03*
X0344856Y0359471D03*
X0334856Y0359471D03*
X0324856Y0359471D03*
X0324856Y0349471D03*
X0334856Y0349471D03*
X0314856Y0349471D03*
X0314856Y0359471D03*
X0304856Y0359471D03*
X0294856Y0359471D03*
X0294856Y0349471D03*
X0304856Y0349471D03*
X0284856Y0349471D03*
X0284856Y0359471D03*
X0274856Y0359471D03*
X0264856Y0359471D03*
X0264856Y0349471D03*
X0274856Y0349471D03*
X0254856Y0349471D03*
X0254856Y0359471D03*
X0244856Y0359471D03*
X0234856Y0359471D03*
X0234856Y0349471D03*
X0244856Y0349471D03*
X0224856Y0349471D03*
X0224856Y0359471D03*
X0214856Y0359471D03*
X0204856Y0359471D03*
X0204856Y0349471D03*
X0214856Y0349471D03*
X0194856Y0349471D03*
X0194856Y0359471D03*
X0184856Y0359471D03*
X0174856Y0359471D03*
X0174856Y0349471D03*
X0184856Y0349471D03*
X0164856Y0349471D03*
X0164856Y0359471D03*
X0154856Y0359471D03*
X0154856Y0349471D03*
D18*
X0226755Y0272773D03*
D19*
X0160895Y0160333D03*
X0170895Y0160333D03*
X0180895Y0160333D03*
X0190895Y0160333D03*
X0200895Y0160333D03*
X0210895Y0160333D03*
X0230895Y0160333D03*
X0240895Y0160333D03*
X0250895Y0160333D03*
X0260895Y0160333D03*
X0270895Y0160333D03*
X0280895Y0160333D03*
D20*
X0176895Y0237833D03*
X0166895Y0237833D03*
X0166895Y0247833D03*
X0166895Y0257833D03*
X0176895Y0257833D03*
X0176895Y0247833D03*
D21*
X0261895Y0225333D03*
X0261895Y0220333D03*
X0266895Y0220333D03*
X0266895Y0225333D03*
X0271895Y0225333D03*
X0271895Y0220333D03*
X0276895Y0220333D03*
X0276895Y0225333D03*
X0281895Y0225333D03*
X0281895Y0220333D03*
D22*
X0364021Y0161613D03*
X0135675Y0161613D03*
X0135675Y0354526D03*
X0364021Y0354526D03*
D23*
X0124949Y0344339D03*
X0352745Y0151317D03*
M02*
