G75*
%MOIN*%
%OFA0B0*%
%FSLAX25Y25*%
%IPPOS*%
%LPD*%
%AMOC8*
5,1,8,0,0,1.08239X$1,22.5*
%
%ADD10R,0.03937X0.04331*%
%ADD11R,0.04331X0.03937*%
%ADD12R,0.01181X0.03937*%
%ADD13R,0.11811X0.05512*%
%ADD14R,0.07874X0.04724*%
%ADD15R,0.05315X0.02362*%
%ADD16R,0.03937X0.01181*%
%ADD17R,0.03937X0.02362*%
%ADD18C,0.00039*%
%ADD19R,0.11400X0.06600*%
%ADD20R,0.02756X0.02756*%
%ADD21R,0.03150X0.03543*%
%ADD22R,0.03150X0.01575*%
%ADD23R,0.03543X0.03150*%
%ADD24R,0.03543X0.03346*%
%ADD25R,0.03346X0.03543*%
%ADD26C,0.03150*%
%ADD27R,0.00984X0.02215*%
%ADD28R,0.03150X0.04724*%
%ADD29C,0.01181*%
%ADD30C,0.06000*%
%ADD31R,0.00900X0.02150*%
%ADD32R,0.02150X0.00900*%
%ADD33R,0.01772X0.00984*%
%ADD34R,0.00984X0.01772*%
%ADD35R,0.01575X0.02953*%
%ADD36R,0.01300X0.02700*%
%ADD37R,0.01811X0.02559*%
%ADD38R,0.02362X0.02362*%
%ADD39R,0.04724X0.02362*%
D10*
X0156895Y0194487D03*
X0164395Y0194487D03*
X0171895Y0194487D03*
X0179395Y0194487D03*
X0179395Y0201180D03*
X0171895Y0201180D03*
X0164395Y0201180D03*
X0156895Y0201180D03*
X0156895Y0209487D03*
X0156895Y0216180D03*
X0164395Y0216180D03*
X0164395Y0209487D03*
X0171895Y0209487D03*
X0171895Y0216180D03*
X0179395Y0216180D03*
X0179395Y0209487D03*
X0179395Y0224487D03*
X0179395Y0231180D03*
X0171895Y0231180D03*
X0171895Y0224487D03*
X0164395Y0224487D03*
X0164395Y0231180D03*
X0156895Y0231180D03*
X0156895Y0224487D03*
X0193455Y0225910D03*
X0193455Y0219217D03*
X0220095Y0256047D03*
X0220095Y0262740D03*
X0235545Y0259957D03*
X0235545Y0266650D03*
X0191895Y0269487D03*
X0191895Y0276180D03*
X0154515Y0274130D03*
X0154515Y0267437D03*
X0153895Y0301517D03*
X0153895Y0308210D03*
X0183915Y0322377D03*
X0183915Y0329070D03*
X0284395Y0315680D03*
X0284395Y0308987D03*
X0289075Y0288670D03*
X0289075Y0281977D03*
X0288795Y0275560D03*
X0288795Y0268867D03*
X0288985Y0260810D03*
X0288985Y0254117D03*
X0318605Y0277077D03*
X0318605Y0283770D03*
X0314395Y0309487D03*
X0314395Y0316180D03*
X0247865Y0222859D03*
X0247865Y0216167D03*
D11*
X0248549Y0202833D03*
X0255242Y0202833D03*
X0252892Y0229523D03*
X0252832Y0235703D03*
X0246139Y0235703D03*
X0246199Y0229523D03*
X0206742Y0224733D03*
X0206742Y0218933D03*
X0200049Y0218933D03*
X0200049Y0224733D03*
X0251199Y0274363D03*
X0257892Y0274363D03*
X0258032Y0282363D03*
X0251339Y0282363D03*
X0290549Y0306963D03*
X0297242Y0306963D03*
X0296449Y0291733D03*
X0303142Y0291733D03*
X0312019Y0292013D03*
X0318712Y0292013D03*
X0321139Y0307333D03*
X0327832Y0307333D03*
X0357249Y0212303D03*
X0363942Y0212303D03*
X0175242Y0282833D03*
X0168549Y0282833D03*
X0170359Y0313713D03*
X0177052Y0313713D03*
X0160222Y0314383D03*
X0153529Y0314383D03*
X0153549Y0324873D03*
X0160242Y0324873D03*
D12*
X0296049Y0268384D03*
X0298608Y0268384D03*
X0301167Y0268384D03*
X0303726Y0268384D03*
X0306285Y0268384D03*
X0308844Y0268384D03*
X0311403Y0268384D03*
X0313962Y0268384D03*
X0316521Y0268384D03*
X0319080Y0268384D03*
X0321639Y0268384D03*
X0324198Y0268384D03*
X0326757Y0268384D03*
X0329316Y0268384D03*
X0329316Y0243187D03*
X0326757Y0243187D03*
X0324198Y0243187D03*
X0321639Y0243187D03*
X0319080Y0243187D03*
X0316521Y0243187D03*
X0313962Y0243187D03*
X0311403Y0243187D03*
X0308844Y0243187D03*
X0306285Y0243187D03*
X0303726Y0243187D03*
X0301167Y0243187D03*
X0298608Y0243187D03*
X0296049Y0243187D03*
D13*
X0349566Y0229413D03*
X0368464Y0229413D03*
D14*
X0371364Y0198857D03*
X0371364Y0176809D03*
D15*
X0356895Y0181928D03*
X0356895Y0185865D03*
X0356895Y0189802D03*
X0356895Y0193739D03*
D16*
X0145557Y0312443D03*
X0145557Y0314412D03*
X0145557Y0316380D03*
X0145557Y0318349D03*
X0145557Y0320317D03*
X0145557Y0322286D03*
X0145557Y0324254D03*
X0145557Y0326223D03*
D17*
X0145557Y0328979D03*
X0145557Y0332030D03*
X0145557Y0309687D03*
X0145557Y0306636D03*
D18*
X0145438Y0304294D02*
X0145878Y0304262D01*
X0146300Y0304133D01*
X0146683Y0303913D01*
X0147007Y0303614D01*
X0147257Y0303250D01*
X0147419Y0302840D01*
X0147486Y0302404D01*
X0147459Y0301968D01*
X0147335Y0301549D01*
X0147122Y0301167D01*
X0146829Y0300843D01*
X0146471Y0300592D01*
X0146066Y0300427D01*
X0145635Y0300357D01*
X0140911Y0300357D01*
X0140499Y0300443D01*
X0140117Y0300619D01*
X0139784Y0300875D01*
X0139516Y0301199D01*
X0139326Y0301575D01*
X0139225Y0301983D01*
X0139218Y0302404D01*
X0139217Y0302786D01*
X0139300Y0303158D01*
X0139465Y0303502D01*
X0139701Y0303802D01*
X0139999Y0304041D01*
X0140342Y0304207D01*
X0140714Y0304294D01*
X0145438Y0304294D01*
X0145583Y0304283D02*
X0140669Y0304283D01*
X0140506Y0304245D02*
X0145932Y0304245D01*
X0146056Y0304207D02*
X0140342Y0304207D01*
X0140264Y0304170D02*
X0146180Y0304170D01*
X0146302Y0304132D02*
X0140186Y0304132D01*
X0140108Y0304094D02*
X0146368Y0304094D01*
X0146434Y0304056D02*
X0140031Y0304056D01*
X0139971Y0304018D02*
X0146500Y0304018D01*
X0146566Y0303980D02*
X0139924Y0303980D01*
X0139877Y0303942D02*
X0146632Y0303942D01*
X0146693Y0303904D02*
X0139829Y0303904D01*
X0139782Y0303867D02*
X0146734Y0303867D01*
X0146775Y0303829D02*
X0139735Y0303829D01*
X0139693Y0303791D02*
X0146816Y0303791D01*
X0146857Y0303753D02*
X0139663Y0303753D01*
X0139633Y0303715D02*
X0146898Y0303715D01*
X0146939Y0303677D02*
X0139603Y0303677D01*
X0139573Y0303639D02*
X0146980Y0303639D01*
X0147016Y0303601D02*
X0139543Y0303601D01*
X0139513Y0303563D02*
X0147042Y0303563D01*
X0147068Y0303526D02*
X0139483Y0303526D01*
X0139458Y0303488D02*
X0147094Y0303488D01*
X0147120Y0303450D02*
X0139439Y0303450D01*
X0139421Y0303412D02*
X0147146Y0303412D01*
X0147172Y0303374D02*
X0139403Y0303374D01*
X0139385Y0303336D02*
X0147198Y0303336D01*
X0147224Y0303298D02*
X0139367Y0303298D01*
X0139349Y0303260D02*
X0147250Y0303260D01*
X0147268Y0303223D02*
X0139331Y0303223D01*
X0139313Y0303185D02*
X0147283Y0303185D01*
X0147297Y0303147D02*
X0139298Y0303147D01*
X0139289Y0303109D02*
X0147312Y0303109D01*
X0147327Y0303071D02*
X0139281Y0303071D01*
X0139272Y0303033D02*
X0147342Y0303033D01*
X0147357Y0302995D02*
X0139264Y0302995D01*
X0139255Y0302957D02*
X0147372Y0302957D01*
X0147387Y0302920D02*
X0139247Y0302920D01*
X0139238Y0302882D02*
X0147402Y0302882D01*
X0147417Y0302844D02*
X0139230Y0302844D01*
X0139221Y0302806D02*
X0147424Y0302806D01*
X0147430Y0302768D02*
X0139217Y0302768D01*
X0139217Y0302730D02*
X0147436Y0302730D01*
X0147441Y0302692D02*
X0139217Y0302692D01*
X0139217Y0302654D02*
X0147447Y0302654D01*
X0147453Y0302616D02*
X0139217Y0302616D01*
X0139217Y0302579D02*
X0147459Y0302579D01*
X0147465Y0302541D02*
X0139217Y0302541D01*
X0139218Y0302503D02*
X0147471Y0302503D01*
X0147476Y0302465D02*
X0139218Y0302465D01*
X0139218Y0302427D02*
X0147482Y0302427D01*
X0147485Y0302389D02*
X0139218Y0302389D01*
X0139219Y0302351D02*
X0147482Y0302351D01*
X0147480Y0302313D02*
X0139220Y0302313D01*
X0139220Y0302276D02*
X0147478Y0302276D01*
X0147475Y0302238D02*
X0139221Y0302238D01*
X0139222Y0302200D02*
X0147473Y0302200D01*
X0147471Y0302162D02*
X0139222Y0302162D01*
X0139223Y0302124D02*
X0147468Y0302124D01*
X0147466Y0302086D02*
X0139224Y0302086D01*
X0139224Y0302048D02*
X0147464Y0302048D01*
X0147461Y0302010D02*
X0139225Y0302010D01*
X0139228Y0301972D02*
X0147459Y0301972D01*
X0147449Y0301935D02*
X0139238Y0301935D01*
X0139247Y0301897D02*
X0147438Y0301897D01*
X0147427Y0301859D02*
X0139256Y0301859D01*
X0139266Y0301821D02*
X0147416Y0301821D01*
X0147404Y0301783D02*
X0139275Y0301783D01*
X0139284Y0301745D02*
X0147393Y0301745D01*
X0147382Y0301707D02*
X0139294Y0301707D01*
X0139303Y0301669D02*
X0147371Y0301669D01*
X0147360Y0301632D02*
X0139312Y0301632D01*
X0139322Y0301594D02*
X0147349Y0301594D01*
X0147338Y0301556D02*
X0139336Y0301556D01*
X0139355Y0301518D02*
X0147318Y0301518D01*
X0147297Y0301480D02*
X0139374Y0301480D01*
X0139393Y0301442D02*
X0147276Y0301442D01*
X0147255Y0301404D02*
X0139412Y0301404D01*
X0139431Y0301366D02*
X0147233Y0301366D01*
X0147212Y0301328D02*
X0139450Y0301328D01*
X0139470Y0301291D02*
X0147191Y0301291D01*
X0147170Y0301253D02*
X0139489Y0301253D01*
X0139508Y0301215D02*
X0147148Y0301215D01*
X0147127Y0301177D02*
X0139534Y0301177D01*
X0139565Y0301139D02*
X0147096Y0301139D01*
X0147062Y0301101D02*
X0139597Y0301101D01*
X0139628Y0301063D02*
X0147028Y0301063D01*
X0146994Y0301025D02*
X0139659Y0301025D01*
X0139691Y0300988D02*
X0146959Y0300988D01*
X0146925Y0300950D02*
X0139722Y0300950D01*
X0139753Y0300912D02*
X0146891Y0300912D01*
X0146857Y0300874D02*
X0139785Y0300874D01*
X0139834Y0300836D02*
X0146819Y0300836D01*
X0146765Y0300798D02*
X0139884Y0300798D01*
X0139933Y0300760D02*
X0146711Y0300760D01*
X0146657Y0300722D02*
X0139982Y0300722D01*
X0140032Y0300685D02*
X0146602Y0300685D01*
X0146548Y0300647D02*
X0140081Y0300647D01*
X0140139Y0300609D02*
X0146494Y0300609D01*
X0146418Y0300571D02*
X0140221Y0300571D01*
X0140304Y0300533D02*
X0146325Y0300533D01*
X0146232Y0300495D02*
X0140386Y0300495D01*
X0140468Y0300457D02*
X0146140Y0300457D01*
X0146017Y0300419D02*
X0140612Y0300419D01*
X0140793Y0300381D02*
X0145786Y0300381D01*
X0129924Y0301956D02*
X0129784Y0301529D01*
X0129552Y0301143D01*
X0129241Y0300819D01*
X0128865Y0300573D01*
X0128443Y0300416D01*
X0127998Y0300357D01*
X0125635Y0300357D01*
X0125209Y0300391D01*
X0124801Y0300520D01*
X0124432Y0300736D01*
X0124120Y0301029D01*
X0123882Y0301384D01*
X0123728Y0301784D01*
X0123667Y0302207D01*
X0123680Y0302640D01*
X0123790Y0303060D01*
X0123989Y0303444D01*
X0124270Y0303775D01*
X0124617Y0304034D01*
X0125013Y0304210D01*
X0125438Y0304294D01*
X0127801Y0304294D01*
X0128255Y0304274D01*
X0128694Y0304153D01*
X0129095Y0303937D01*
X0129438Y0303638D01*
X0129705Y0303270D01*
X0129885Y0302852D01*
X0129966Y0302404D01*
X0129924Y0301956D01*
X0129926Y0301972D02*
X0123701Y0301972D01*
X0123706Y0301935D02*
X0129917Y0301935D01*
X0129905Y0301897D02*
X0123712Y0301897D01*
X0123717Y0301859D02*
X0129893Y0301859D01*
X0129880Y0301821D02*
X0123722Y0301821D01*
X0123728Y0301783D02*
X0129868Y0301783D01*
X0129855Y0301745D02*
X0123743Y0301745D01*
X0123757Y0301707D02*
X0129843Y0301707D01*
X0129830Y0301669D02*
X0123772Y0301669D01*
X0123786Y0301632D02*
X0129818Y0301632D01*
X0129806Y0301594D02*
X0123801Y0301594D01*
X0123816Y0301556D02*
X0129793Y0301556D01*
X0129778Y0301518D02*
X0123830Y0301518D01*
X0123845Y0301480D02*
X0129755Y0301480D01*
X0129732Y0301442D02*
X0123859Y0301442D01*
X0123874Y0301404D02*
X0129709Y0301404D01*
X0129687Y0301366D02*
X0123894Y0301366D01*
X0123919Y0301328D02*
X0129664Y0301328D01*
X0129641Y0301291D02*
X0123945Y0301291D01*
X0123970Y0301253D02*
X0129618Y0301253D01*
X0129595Y0301215D02*
X0123996Y0301215D01*
X0124021Y0301177D02*
X0129573Y0301177D01*
X0129548Y0301139D02*
X0124046Y0301139D01*
X0124072Y0301101D02*
X0129512Y0301101D01*
X0129475Y0301063D02*
X0124097Y0301063D01*
X0124124Y0301025D02*
X0129439Y0301025D01*
X0129403Y0300988D02*
X0124165Y0300988D01*
X0124205Y0300950D02*
X0129366Y0300950D01*
X0129330Y0300912D02*
X0124245Y0300912D01*
X0124286Y0300874D02*
X0129293Y0300874D01*
X0129257Y0300836D02*
X0124326Y0300836D01*
X0124366Y0300798D02*
X0129209Y0300798D01*
X0129151Y0300760D02*
X0124407Y0300760D01*
X0124456Y0300722D02*
X0129093Y0300722D01*
X0129035Y0300685D02*
X0124521Y0300685D01*
X0124585Y0300647D02*
X0128978Y0300647D01*
X0128920Y0300609D02*
X0124650Y0300609D01*
X0124714Y0300571D02*
X0128860Y0300571D01*
X0128758Y0300533D02*
X0124779Y0300533D01*
X0124880Y0300495D02*
X0128656Y0300495D01*
X0128555Y0300457D02*
X0125000Y0300457D01*
X0125120Y0300419D02*
X0128453Y0300419D01*
X0128184Y0300381D02*
X0125331Y0300381D01*
X0123695Y0302010D02*
X0129929Y0302010D01*
X0129933Y0302048D02*
X0123690Y0302048D01*
X0123684Y0302086D02*
X0129937Y0302086D01*
X0129940Y0302124D02*
X0123679Y0302124D01*
X0123673Y0302162D02*
X0129944Y0302162D01*
X0129947Y0302200D02*
X0123668Y0302200D01*
X0123668Y0302238D02*
X0129951Y0302238D01*
X0129954Y0302276D02*
X0123669Y0302276D01*
X0123670Y0302313D02*
X0129958Y0302313D01*
X0129961Y0302351D02*
X0123671Y0302351D01*
X0123672Y0302389D02*
X0129965Y0302389D01*
X0129962Y0302427D02*
X0123674Y0302427D01*
X0123675Y0302465D02*
X0129955Y0302465D01*
X0129948Y0302503D02*
X0123676Y0302503D01*
X0123677Y0302541D02*
X0129941Y0302541D01*
X0129934Y0302579D02*
X0123678Y0302579D01*
X0123679Y0302616D02*
X0129927Y0302616D01*
X0129920Y0302654D02*
X0123684Y0302654D01*
X0123694Y0302692D02*
X0129914Y0302692D01*
X0129907Y0302730D02*
X0123704Y0302730D01*
X0123713Y0302768D02*
X0129900Y0302768D01*
X0129893Y0302806D02*
X0123723Y0302806D01*
X0123733Y0302844D02*
X0129886Y0302844D01*
X0129872Y0302882D02*
X0123743Y0302882D01*
X0123753Y0302920D02*
X0129855Y0302920D01*
X0129839Y0302957D02*
X0123763Y0302957D01*
X0123773Y0302995D02*
X0129823Y0302995D01*
X0129807Y0303033D02*
X0123783Y0303033D01*
X0123795Y0303071D02*
X0129791Y0303071D01*
X0129774Y0303109D02*
X0123815Y0303109D01*
X0123835Y0303147D02*
X0129758Y0303147D01*
X0129742Y0303185D02*
X0123854Y0303185D01*
X0123874Y0303223D02*
X0129726Y0303223D01*
X0129710Y0303260D02*
X0123894Y0303260D01*
X0123914Y0303298D02*
X0129685Y0303298D01*
X0129657Y0303336D02*
X0123933Y0303336D01*
X0123953Y0303374D02*
X0129630Y0303374D01*
X0129602Y0303412D02*
X0123973Y0303412D01*
X0123994Y0303450D02*
X0129575Y0303450D01*
X0129547Y0303488D02*
X0124026Y0303488D01*
X0124059Y0303526D02*
X0129520Y0303526D01*
X0129492Y0303563D02*
X0124091Y0303563D01*
X0124123Y0303601D02*
X0129464Y0303601D01*
X0129436Y0303639D02*
X0124155Y0303639D01*
X0124187Y0303677D02*
X0129393Y0303677D01*
X0129350Y0303715D02*
X0124219Y0303715D01*
X0124252Y0303753D02*
X0129306Y0303753D01*
X0129263Y0303791D02*
X0124292Y0303791D01*
X0124342Y0303829D02*
X0129219Y0303829D01*
X0129176Y0303867D02*
X0124393Y0303867D01*
X0124443Y0303904D02*
X0129133Y0303904D01*
X0129085Y0303942D02*
X0124494Y0303942D01*
X0124545Y0303980D02*
X0129015Y0303980D01*
X0128945Y0304018D02*
X0124595Y0304018D01*
X0124666Y0304056D02*
X0128874Y0304056D01*
X0128804Y0304094D02*
X0124751Y0304094D01*
X0124836Y0304132D02*
X0128733Y0304132D01*
X0128633Y0304170D02*
X0124922Y0304170D01*
X0125007Y0304207D02*
X0128495Y0304207D01*
X0128358Y0304245D02*
X0125192Y0304245D01*
X0125385Y0304283D02*
X0128036Y0304283D01*
X0127998Y0334372D02*
X0125635Y0334372D01*
X0125205Y0334412D01*
X0124794Y0334546D01*
X0124424Y0334769D01*
X0124112Y0335068D01*
X0123875Y0335429D01*
X0123724Y0335834D01*
X0123667Y0336262D01*
X0123708Y0336710D01*
X0123849Y0337137D01*
X0124080Y0337523D01*
X0124392Y0337847D01*
X0124768Y0338094D01*
X0125189Y0338250D01*
X0125635Y0338309D01*
X0127998Y0338309D01*
X0128443Y0338250D01*
X0128865Y0338094D01*
X0129241Y0337847D01*
X0129552Y0337523D01*
X0129784Y0337137D01*
X0129924Y0336710D01*
X0129966Y0336262D01*
X0129909Y0335834D01*
X0129758Y0335429D01*
X0129521Y0335068D01*
X0129209Y0334769D01*
X0128838Y0334546D01*
X0128428Y0334412D01*
X0127998Y0334372D01*
X0128286Y0334399D02*
X0125347Y0334399D01*
X0125129Y0334437D02*
X0128504Y0334437D01*
X0128619Y0334475D02*
X0125013Y0334475D01*
X0124898Y0334513D02*
X0128735Y0334513D01*
X0128845Y0334550D02*
X0124788Y0334550D01*
X0124724Y0334588D02*
X0128908Y0334588D01*
X0128971Y0334626D02*
X0124661Y0334626D01*
X0124598Y0334664D02*
X0129035Y0334664D01*
X0129098Y0334702D02*
X0124535Y0334702D01*
X0124472Y0334740D02*
X0129161Y0334740D01*
X0129218Y0334778D02*
X0124415Y0334778D01*
X0124375Y0334816D02*
X0129258Y0334816D01*
X0129297Y0334854D02*
X0124336Y0334854D01*
X0124296Y0334891D02*
X0129337Y0334891D01*
X0129376Y0334929D02*
X0124257Y0334929D01*
X0124217Y0334967D02*
X0129416Y0334967D01*
X0129455Y0335005D02*
X0124178Y0335005D01*
X0124138Y0335043D02*
X0129494Y0335043D01*
X0129529Y0335081D02*
X0124104Y0335081D01*
X0124079Y0335119D02*
X0129554Y0335119D01*
X0129579Y0335157D02*
X0124054Y0335157D01*
X0124029Y0335194D02*
X0129604Y0335194D01*
X0129629Y0335232D02*
X0124004Y0335232D01*
X0123979Y0335270D02*
X0129653Y0335270D01*
X0129678Y0335308D02*
X0123954Y0335308D01*
X0123930Y0335346D02*
X0129703Y0335346D01*
X0129728Y0335384D02*
X0123905Y0335384D01*
X0123880Y0335422D02*
X0129753Y0335422D01*
X0129769Y0335460D02*
X0123864Y0335460D01*
X0123849Y0335498D02*
X0129783Y0335498D01*
X0129798Y0335535D02*
X0123835Y0335535D01*
X0123821Y0335573D02*
X0129812Y0335573D01*
X0129826Y0335611D02*
X0123807Y0335611D01*
X0123793Y0335649D02*
X0129840Y0335649D01*
X0129854Y0335687D02*
X0123779Y0335687D01*
X0123765Y0335725D02*
X0129868Y0335725D01*
X0129882Y0335763D02*
X0123750Y0335763D01*
X0123736Y0335801D02*
X0129896Y0335801D01*
X0129909Y0335838D02*
X0123723Y0335838D01*
X0123718Y0335876D02*
X0129915Y0335876D01*
X0129920Y0335914D02*
X0123713Y0335914D01*
X0123708Y0335952D02*
X0129925Y0335952D01*
X0129930Y0335990D02*
X0123703Y0335990D01*
X0123698Y0336028D02*
X0129935Y0336028D01*
X0129940Y0336066D02*
X0123693Y0336066D01*
X0123688Y0336104D02*
X0129945Y0336104D01*
X0129950Y0336141D02*
X0123683Y0336141D01*
X0123678Y0336179D02*
X0129955Y0336179D01*
X0129960Y0336217D02*
X0123673Y0336217D01*
X0123668Y0336255D02*
X0129965Y0336255D01*
X0129963Y0336293D02*
X0123670Y0336293D01*
X0123673Y0336331D02*
X0129960Y0336331D01*
X0129956Y0336369D02*
X0123677Y0336369D01*
X0123680Y0336407D02*
X0129953Y0336407D01*
X0129949Y0336445D02*
X0123684Y0336445D01*
X0123687Y0336482D02*
X0129946Y0336482D01*
X0129942Y0336520D02*
X0123691Y0336520D01*
X0123694Y0336558D02*
X0129939Y0336558D01*
X0129935Y0336596D02*
X0123698Y0336596D01*
X0123701Y0336634D02*
X0129931Y0336634D01*
X0129928Y0336672D02*
X0123705Y0336672D01*
X0123708Y0336710D02*
X0129924Y0336710D01*
X0129912Y0336748D02*
X0123721Y0336748D01*
X0123733Y0336785D02*
X0129900Y0336785D01*
X0129887Y0336823D02*
X0123746Y0336823D01*
X0123758Y0336861D02*
X0129875Y0336861D01*
X0129862Y0336899D02*
X0123770Y0336899D01*
X0123783Y0336937D02*
X0129850Y0336937D01*
X0129838Y0336975D02*
X0123795Y0336975D01*
X0123808Y0337013D02*
X0129825Y0337013D01*
X0129813Y0337051D02*
X0123820Y0337051D01*
X0123833Y0337089D02*
X0129800Y0337089D01*
X0129788Y0337126D02*
X0123845Y0337126D01*
X0123865Y0337164D02*
X0129768Y0337164D01*
X0129745Y0337202D02*
X0123888Y0337202D01*
X0123910Y0337240D02*
X0129722Y0337240D01*
X0129700Y0337278D02*
X0123933Y0337278D01*
X0123956Y0337316D02*
X0129677Y0337316D01*
X0129654Y0337354D02*
X0123979Y0337354D01*
X0124001Y0337392D02*
X0129631Y0337392D01*
X0129609Y0337429D02*
X0124024Y0337429D01*
X0124047Y0337467D02*
X0129586Y0337467D01*
X0129563Y0337505D02*
X0124070Y0337505D01*
X0124100Y0337543D02*
X0129533Y0337543D01*
X0129496Y0337581D02*
X0124136Y0337581D01*
X0124173Y0337619D02*
X0129460Y0337619D01*
X0129424Y0337657D02*
X0124209Y0337657D01*
X0124246Y0337695D02*
X0129387Y0337695D01*
X0129351Y0337733D02*
X0124282Y0337733D01*
X0124318Y0337770D02*
X0129314Y0337770D01*
X0129278Y0337808D02*
X0124355Y0337808D01*
X0124391Y0337846D02*
X0129241Y0337846D01*
X0129184Y0337884D02*
X0124449Y0337884D01*
X0124506Y0337922D02*
X0129126Y0337922D01*
X0129069Y0337960D02*
X0124564Y0337960D01*
X0124622Y0337998D02*
X0129011Y0337998D01*
X0128953Y0338036D02*
X0124680Y0338036D01*
X0124737Y0338073D02*
X0128895Y0338073D01*
X0128817Y0338111D02*
X0124816Y0338111D01*
X0124918Y0338149D02*
X0128715Y0338149D01*
X0128613Y0338187D02*
X0125019Y0338187D01*
X0125121Y0338225D02*
X0128511Y0338225D01*
X0128349Y0338263D02*
X0125284Y0338263D01*
X0125570Y0338301D02*
X0128063Y0338301D01*
X0139245Y0336855D02*
X0139359Y0337236D01*
X0139555Y0337581D01*
X0139823Y0337874D01*
X0140150Y0338100D01*
X0140519Y0338248D01*
X0140911Y0338309D01*
X0145635Y0338309D01*
X0146047Y0338263D01*
X0146438Y0338126D01*
X0146789Y0337906D01*
X0147082Y0337613D01*
X0147302Y0337262D01*
X0147439Y0336871D01*
X0147486Y0336459D01*
X0147463Y0336018D01*
X0147342Y0335593D01*
X0147130Y0335206D01*
X0146837Y0334876D01*
X0146478Y0334619D01*
X0146070Y0334448D01*
X0145635Y0334372D01*
X0140911Y0334372D01*
X0140495Y0334464D01*
X0140110Y0334645D01*
X0139776Y0334907D01*
X0139508Y0335238D01*
X0139320Y0335620D01*
X0139222Y0336034D01*
X0139218Y0336459D01*
X0139245Y0336855D01*
X0139247Y0336861D02*
X0147440Y0336861D01*
X0147445Y0336823D02*
X0139243Y0336823D01*
X0139240Y0336785D02*
X0147449Y0336785D01*
X0147453Y0336748D02*
X0139238Y0336748D01*
X0139235Y0336710D02*
X0147457Y0336710D01*
X0147462Y0336672D02*
X0139232Y0336672D01*
X0139230Y0336634D02*
X0147466Y0336634D01*
X0147470Y0336596D02*
X0139227Y0336596D01*
X0139225Y0336558D02*
X0147475Y0336558D01*
X0147479Y0336520D02*
X0139222Y0336520D01*
X0139220Y0336482D02*
X0147483Y0336482D01*
X0147485Y0336445D02*
X0139218Y0336445D01*
X0139218Y0336407D02*
X0147483Y0336407D01*
X0147481Y0336369D02*
X0139219Y0336369D01*
X0139219Y0336331D02*
X0147479Y0336331D01*
X0147477Y0336293D02*
X0139219Y0336293D01*
X0139220Y0336255D02*
X0147475Y0336255D01*
X0147473Y0336217D02*
X0139220Y0336217D01*
X0139220Y0336179D02*
X0147471Y0336179D01*
X0147469Y0336141D02*
X0139221Y0336141D01*
X0139221Y0336104D02*
X0147467Y0336104D01*
X0147465Y0336066D02*
X0139221Y0336066D01*
X0139223Y0336028D02*
X0147463Y0336028D01*
X0147455Y0335990D02*
X0139232Y0335990D01*
X0139241Y0335952D02*
X0147444Y0335952D01*
X0147433Y0335914D02*
X0139250Y0335914D01*
X0139259Y0335876D02*
X0147422Y0335876D01*
X0147412Y0335838D02*
X0139268Y0335838D01*
X0139277Y0335801D02*
X0147401Y0335801D01*
X0147390Y0335763D02*
X0139286Y0335763D01*
X0139295Y0335725D02*
X0147379Y0335725D01*
X0147369Y0335687D02*
X0139304Y0335687D01*
X0139313Y0335649D02*
X0147358Y0335649D01*
X0147347Y0335611D02*
X0139324Y0335611D01*
X0139343Y0335573D02*
X0147331Y0335573D01*
X0147310Y0335535D02*
X0139361Y0335535D01*
X0139380Y0335498D02*
X0147290Y0335498D01*
X0147269Y0335460D02*
X0139398Y0335460D01*
X0139417Y0335422D02*
X0147248Y0335422D01*
X0147227Y0335384D02*
X0139436Y0335384D01*
X0139454Y0335346D02*
X0147207Y0335346D01*
X0147186Y0335308D02*
X0139473Y0335308D01*
X0139492Y0335270D02*
X0147165Y0335270D01*
X0147144Y0335232D02*
X0139512Y0335232D01*
X0139543Y0335194D02*
X0147120Y0335194D01*
X0147086Y0335157D02*
X0139573Y0335157D01*
X0139604Y0335119D02*
X0147053Y0335119D01*
X0147019Y0335081D02*
X0139635Y0335081D01*
X0139666Y0335043D02*
X0146985Y0335043D01*
X0146952Y0335005D02*
X0139696Y0335005D01*
X0139727Y0334967D02*
X0146918Y0334967D01*
X0146885Y0334929D02*
X0139758Y0334929D01*
X0139796Y0334891D02*
X0146851Y0334891D01*
X0146806Y0334854D02*
X0139844Y0334854D01*
X0139893Y0334816D02*
X0146753Y0334816D01*
X0146700Y0334778D02*
X0139941Y0334778D01*
X0139989Y0334740D02*
X0146647Y0334740D01*
X0146594Y0334702D02*
X0140038Y0334702D01*
X0140086Y0334664D02*
X0146541Y0334664D01*
X0146488Y0334626D02*
X0140150Y0334626D01*
X0140231Y0334588D02*
X0146405Y0334588D01*
X0146315Y0334550D02*
X0140311Y0334550D01*
X0140391Y0334513D02*
X0146224Y0334513D01*
X0146134Y0334475D02*
X0140472Y0334475D01*
X0140617Y0334437D02*
X0146006Y0334437D01*
X0145788Y0334399D02*
X0140790Y0334399D01*
X0139258Y0336899D02*
X0147429Y0336899D01*
X0147416Y0336937D02*
X0139269Y0336937D01*
X0139281Y0336975D02*
X0147403Y0336975D01*
X0147390Y0337013D02*
X0139292Y0337013D01*
X0139304Y0337051D02*
X0147376Y0337051D01*
X0147363Y0337089D02*
X0139315Y0337089D01*
X0139326Y0337126D02*
X0147350Y0337126D01*
X0147337Y0337164D02*
X0139338Y0337164D01*
X0139349Y0337202D02*
X0147323Y0337202D01*
X0147310Y0337240D02*
X0139362Y0337240D01*
X0139383Y0337278D02*
X0147292Y0337278D01*
X0147269Y0337316D02*
X0139405Y0337316D01*
X0139426Y0337354D02*
X0147245Y0337354D01*
X0147221Y0337392D02*
X0139448Y0337392D01*
X0139469Y0337429D02*
X0147197Y0337429D01*
X0147173Y0337467D02*
X0139491Y0337467D01*
X0139512Y0337505D02*
X0147150Y0337505D01*
X0147126Y0337543D02*
X0139534Y0337543D01*
X0139556Y0337581D02*
X0147102Y0337581D01*
X0147076Y0337619D02*
X0139590Y0337619D01*
X0139625Y0337657D02*
X0147038Y0337657D01*
X0147000Y0337695D02*
X0139660Y0337695D01*
X0139694Y0337733D02*
X0146962Y0337733D01*
X0146924Y0337770D02*
X0139729Y0337770D01*
X0139763Y0337808D02*
X0146886Y0337808D01*
X0146849Y0337846D02*
X0139798Y0337846D01*
X0139838Y0337884D02*
X0146811Y0337884D01*
X0146763Y0337922D02*
X0139893Y0337922D01*
X0139948Y0337960D02*
X0146703Y0337960D01*
X0146643Y0337998D02*
X0140002Y0337998D01*
X0140057Y0338036D02*
X0146582Y0338036D01*
X0146522Y0338073D02*
X0140112Y0338073D01*
X0140179Y0338111D02*
X0146462Y0338111D01*
X0146372Y0338149D02*
X0140273Y0338149D01*
X0140368Y0338187D02*
X0146264Y0338187D01*
X0146156Y0338225D02*
X0140462Y0338225D01*
X0140616Y0338263D02*
X0146048Y0338263D01*
X0145713Y0338301D02*
X0140856Y0338301D01*
D19*
X0193625Y0332803D03*
X0193625Y0314003D03*
D20*
X0296056Y0284005D03*
X0301174Y0284005D03*
X0307306Y0283915D03*
X0312424Y0283915D03*
X0309865Y0276631D03*
X0298615Y0276721D03*
D21*
X0295635Y0323896D03*
X0288155Y0323896D03*
X0291895Y0332164D03*
X0318155Y0323896D03*
X0325635Y0323896D03*
X0321895Y0332164D03*
D22*
X0321246Y0318392D03*
X0321246Y0315833D03*
X0321246Y0313274D03*
X0327545Y0313274D03*
X0327545Y0315833D03*
X0327545Y0318392D03*
X0297045Y0317892D03*
X0297045Y0315333D03*
X0297045Y0312774D03*
X0290746Y0312774D03*
X0290746Y0315333D03*
X0290746Y0317892D03*
X0178475Y0318814D03*
X0178475Y0321373D03*
X0178475Y0323932D03*
X0172176Y0323932D03*
X0172176Y0321373D03*
X0172176Y0318814D03*
D23*
X0171098Y0330323D03*
X0171098Y0337803D03*
X0179366Y0334063D03*
D24*
X0209395Y0235617D03*
X0209395Y0231050D03*
X0214895Y0231050D03*
X0214895Y0235617D03*
X0210895Y0196117D03*
X0210895Y0191550D03*
D25*
X0207179Y0202533D03*
X0202612Y0202533D03*
X0202612Y0207933D03*
X0207179Y0207933D03*
X0207179Y0213333D03*
X0202612Y0213333D03*
X0204179Y0230333D03*
X0199612Y0230333D03*
X0199612Y0235833D03*
X0204179Y0235833D03*
D26*
X0219927Y0193833D03*
X0223864Y0193833D03*
D27*
X0224848Y0189527D03*
X0226816Y0189527D03*
X0222879Y0189527D03*
X0220911Y0189527D03*
X0218942Y0189527D03*
X0216974Y0189527D03*
X0216974Y0198139D03*
X0218942Y0198139D03*
X0220911Y0198139D03*
X0222879Y0198139D03*
X0224848Y0198139D03*
X0226816Y0198139D03*
D28*
X0205438Y0191833D03*
X0198352Y0191833D03*
D29*
X0219797Y0153048D02*
X0222553Y0153048D01*
X0222553Y0150292D01*
X0219797Y0150292D01*
X0219797Y0153048D01*
X0219797Y0151414D02*
X0222553Y0151414D01*
X0222553Y0152536D02*
X0219797Y0152536D01*
X0219797Y0159954D02*
X0222553Y0159954D01*
X0222553Y0157198D01*
X0219797Y0157198D01*
X0219797Y0159954D01*
X0219797Y0158320D02*
X0222553Y0158320D01*
X0222553Y0159442D02*
X0219797Y0159442D01*
D30*
X0224449Y0210987D03*
X0224449Y0217680D03*
X0231142Y0217680D03*
X0231142Y0210987D03*
D31*
X0230735Y0202253D03*
X0228767Y0202253D03*
X0226798Y0202253D03*
X0224830Y0202253D03*
X0222861Y0202253D03*
X0220893Y0202253D03*
X0218924Y0202253D03*
X0232704Y0202253D03*
X0234672Y0202253D03*
X0236641Y0202253D03*
X0236666Y0226414D03*
X0234697Y0226414D03*
X0232729Y0226414D03*
X0230760Y0226414D03*
X0228792Y0226414D03*
X0226823Y0226414D03*
X0224855Y0226414D03*
X0222886Y0226414D03*
X0220918Y0226414D03*
X0218949Y0226414D03*
D32*
X0215715Y0223204D03*
X0215715Y0221235D03*
X0215715Y0219267D03*
X0215715Y0217298D03*
X0215715Y0215330D03*
X0215715Y0213361D03*
X0215715Y0211393D03*
X0215715Y0209424D03*
X0215715Y0207456D03*
X0215715Y0205487D03*
X0239876Y0205462D03*
X0239876Y0207431D03*
X0239876Y0209399D03*
X0239876Y0211368D03*
X0239876Y0213336D03*
X0239876Y0215305D03*
X0239876Y0217273D03*
X0239876Y0219242D03*
X0239876Y0221210D03*
X0239876Y0223179D03*
D33*
X0240990Y0258896D03*
X0240990Y0260471D03*
X0240990Y0262046D03*
X0240990Y0263620D03*
X0240990Y0265195D03*
X0240990Y0266770D03*
X0252801Y0266770D03*
X0252801Y0265195D03*
X0252801Y0263620D03*
X0252801Y0262046D03*
X0252801Y0260471D03*
X0252801Y0258896D03*
D34*
X0250832Y0256928D03*
X0249257Y0256928D03*
X0247683Y0256928D03*
X0246108Y0256928D03*
X0244533Y0256928D03*
X0242958Y0256928D03*
X0242958Y0268739D03*
X0244533Y0268739D03*
X0246108Y0268739D03*
X0247683Y0268739D03*
X0249257Y0268739D03*
X0250832Y0268739D03*
D35*
X0230214Y0262411D03*
X0225096Y0262411D03*
D36*
X0225005Y0255913D03*
X0227655Y0255913D03*
X0230305Y0255913D03*
D37*
X0239927Y0246164D03*
X0243864Y0246164D03*
X0241895Y0241636D03*
X0249927Y0246164D03*
X0253864Y0246164D03*
X0251895Y0241636D03*
X0243864Y0279502D03*
X0239927Y0279502D03*
X0241895Y0284030D03*
X0228224Y0279532D03*
X0224287Y0279532D03*
X0226255Y0284060D03*
D38*
X0231555Y0283922D03*
X0231555Y0279985D03*
X0236225Y0280065D03*
X0236225Y0284002D03*
X0239887Y0275333D03*
X0243824Y0275333D03*
X0228224Y0275363D03*
X0224287Y0275363D03*
X0239927Y0250333D03*
X0243864Y0250333D03*
X0249927Y0250333D03*
X0253864Y0250333D03*
D39*
X0182919Y0250333D03*
X0182919Y0245333D03*
X0182919Y0255333D03*
X0182919Y0260333D03*
X0182919Y0265333D03*
X0182919Y0270333D03*
X0182919Y0275333D03*
X0160872Y0275333D03*
X0160872Y0270333D03*
X0160872Y0265333D03*
X0160872Y0260333D03*
X0160872Y0255333D03*
X0160872Y0250333D03*
X0160872Y0245333D03*
M02*
