%
M48
M72
T01C0.0138
T02C0.0140
T03C0.0150
T04C0.0200
T05C0.0256
T06C0.0400
T07C0.1200
%
T01
X28501Y23396
X26908Y23709
T02
X16898Y31884
T03
X16091Y31914
X15644Y31921
X15707Y33373
X15010Y33622
X14530Y34185
X16740Y33033
X17527Y33201
X17987Y32932
X18331Y31729
X18092Y31384
X20118Y31433
X20403Y30783
X21190Y30283
X21733Y31100
X23143Y30498
X22721Y29077
X23395Y28775
X23339Y27535
X23932Y26989
X22764Y25932
X23913Y25535
X24680Y25027
X25690Y25283
X26190Y24783
X26939Y24799
X27370Y25080
X28381Y25909
X28045Y27752
X28257Y28944
X28690Y29283
X27726Y29276
X28441Y30475
X29381Y31049
X30190Y31283
X30690Y31783
X30190Y32390
X30690Y33287
X32179Y32194
X32435Y31098
X33135Y30280
X33190Y29783
X31940Y29720
X30758Y29175
X29690Y29783
X30313Y30684
X29169Y32279
X26949Y31942
X26481Y32469
X25506Y31502
X22796Y32510
X21403Y33903
X20133Y33280
X15253Y29459
X14831Y29729
X14969Y30509
X16081Y27993
X16654Y26835
X17766Y26808
X18831Y26047
X18640Y27955
X18598Y28333
X19182Y28052
X21580Y26275
X21190Y25283
X22031Y24616
X22696Y24491
X22440Y23333
X22940Y23266
X23344Y23288
X23740Y23190
X22790Y21433
X21163Y21527
X21514Y22700
X19238Y21350
X19873Y20916
X21740Y19383
X22190Y19383
X22640Y19383
X23476Y19780
X26186Y21327
X27574Y19242
X27518Y15267
X22119Y16225
X17566Y17247
X16044Y18249
X16065Y18659
X15064Y20543
X16816Y22029
X17573Y21272
X19190Y23283
X15655Y23682
X22122Y27279
X25478Y27051
X26417Y27923
X30446Y28002
X30813Y26184
X32887Y26128
X33884Y26402
X33272Y24987
X36190Y24283
X36854Y22321
X36893Y21156
X36160Y19303
X36190Y18283
X35390Y17765
X32450Y28397
X27592Y33903
T04
X17690Y25783
X17690Y24783
X17690Y23783
X16690Y23783
X16690Y24783
X16690Y25783
X26190Y22533
X26690Y22533
X27190Y22533
X27690Y22533
X28190Y22533
X28190Y22033
X27690Y22033
X27190Y22033
X26690Y22033
X26190Y22033
T05
X14121Y30796
X14121Y33071
T06
X16090Y16033
X17090Y16033
X18090Y16033
X19090Y16033
X20090Y16033
X21090Y16033
X23090Y16033
X24090Y16033
X25090Y16033
X26090Y16033
X27090Y16033
X28090Y16033
X31140Y19283
X32140Y19283
X33140Y19283
X34140Y19283
X34240Y20283
X33240Y20283
X32240Y20283
X31240Y20283
X31140Y21283
X32140Y21283
X33140Y21283
X34140Y21283
X37190Y24783
X37190Y25783
X37190Y26783
X37190Y27783
X37190Y28783
X37190Y29783
X37190Y30783
X37190Y31783
X37190Y32783
X37190Y33783
X34486Y34947
X34486Y35947
X33486Y35947
X32486Y35947
X32486Y34947
X33486Y34947
X31486Y34947
X31486Y35947
X30486Y35947
X29486Y35947
X29486Y34947
X30486Y34947
X28486Y34947
X28486Y35947
X27486Y35947
X26486Y35947
X26486Y34947
X27486Y34947
X25486Y34947
X25486Y35947
X24486Y35947
X23486Y35947
X23486Y34947
X24486Y34947
X22486Y34947
X22486Y35947
X21486Y35947
X20486Y35947
X20486Y34947
X21486Y34947
X19486Y34947
X19486Y35947
X18486Y35947
X17486Y35947
X17486Y34947
X18486Y34947
X16486Y34947
X16486Y35947
X15486Y35947
X15486Y34947
T07
X13567Y35453
X36402Y35453
X36402Y16161
X13567Y16161
M30
