G04 EAGLE Gerber RS-274X export*
G75*
%MOMM*%
%FSLAX34Y34*%
%LPD*%
%IN*%
%IPPOS*%
%AMOC8*
5,1,8,0,0,1.08239X$1,22.5*%
G01*
%ADD10C,0.152400*%
%ADD11C,0.254000*%
%ADD12C,0.000000*%
%ADD13C,0.010000*%
%ADD14C,0.254000*%


D10*
X455930Y64084D02*
X444744Y64084D01*
X444744Y69677D01*
X446609Y71541D01*
X450337Y71541D01*
X452201Y69677D01*
X452201Y64084D01*
X452201Y67813D02*
X455930Y71541D01*
X444744Y77642D02*
X444744Y81371D01*
X444744Y77642D02*
X446609Y75778D01*
X454066Y75778D01*
X455930Y77642D01*
X455930Y81371D01*
X454066Y83235D01*
X446609Y83235D01*
X444744Y81371D01*
X444744Y87472D02*
X454066Y87472D01*
X455930Y89336D01*
X455930Y93065D01*
X454066Y94929D01*
X444744Y94929D01*
X444744Y102895D02*
X455930Y102895D01*
X444744Y106623D02*
X444744Y99166D01*
X444744Y110860D02*
X444744Y118317D01*
X444744Y110860D02*
X455930Y110860D01*
X455930Y118317D01*
X450337Y114589D02*
X450337Y110860D01*
X444744Y136112D02*
X444744Y139841D01*
X444744Y136112D02*
X446609Y134248D01*
X454066Y134248D01*
X455930Y136112D01*
X455930Y139841D01*
X454066Y141705D01*
X446609Y141705D01*
X444744Y139841D01*
X444744Y145942D02*
X454066Y145942D01*
X455930Y147806D01*
X455930Y151535D01*
X454066Y153399D01*
X444744Y153399D01*
X444744Y161364D02*
X455930Y161364D01*
X444744Y157636D02*
X444744Y165093D01*
D11*
X620000Y0D02*
X30000Y0D01*
X620000Y0D02*
X620725Y9D01*
X621449Y35D01*
X622173Y79D01*
X622895Y140D01*
X623616Y219D01*
X624335Y315D01*
X625051Y428D01*
X625764Y559D01*
X626474Y707D01*
X627179Y872D01*
X627881Y1054D01*
X628578Y1253D01*
X629271Y1468D01*
X629957Y1701D01*
X630638Y1950D01*
X631313Y2215D01*
X631981Y2496D01*
X632642Y2794D01*
X633296Y3107D01*
X633942Y3436D01*
X634580Y3781D01*
X635209Y4141D01*
X635829Y4516D01*
X636440Y4906D01*
X637042Y5310D01*
X637634Y5729D01*
X638215Y6163D01*
X638786Y6610D01*
X639345Y7071D01*
X639894Y7545D01*
X640430Y8032D01*
X640955Y8532D01*
X641468Y9045D01*
X641968Y9570D01*
X642455Y10106D01*
X642929Y10655D01*
X643390Y11214D01*
X643837Y11785D01*
X644271Y12366D01*
X644690Y12958D01*
X645094Y13560D01*
X645484Y14171D01*
X645859Y14791D01*
X646219Y15420D01*
X646564Y16058D01*
X646893Y16704D01*
X647206Y17358D01*
X647504Y18019D01*
X647785Y18687D01*
X648050Y19362D01*
X648299Y20043D01*
X648532Y20729D01*
X648747Y21422D01*
X648946Y22119D01*
X649128Y22821D01*
X649293Y23526D01*
X649441Y24236D01*
X649572Y24949D01*
X649685Y25665D01*
X649781Y26384D01*
X649860Y27105D01*
X649921Y27827D01*
X649965Y28551D01*
X649991Y29275D01*
X650000Y30000D01*
X650508Y540334D01*
X650499Y541059D01*
X650473Y541783D01*
X650429Y542507D01*
X650368Y543229D01*
X650289Y543950D01*
X650193Y544669D01*
X650080Y545385D01*
X649949Y546098D01*
X649801Y546808D01*
X649636Y547513D01*
X649454Y548215D01*
X649255Y548912D01*
X649040Y549605D01*
X648807Y550291D01*
X648558Y550972D01*
X648293Y551647D01*
X648012Y552315D01*
X647714Y552976D01*
X647401Y553630D01*
X647072Y554276D01*
X646727Y554914D01*
X646367Y555543D01*
X645992Y556163D01*
X645602Y556774D01*
X645198Y557376D01*
X644779Y557968D01*
X644345Y558549D01*
X643898Y559120D01*
X643437Y559679D01*
X642963Y560228D01*
X642476Y560764D01*
X641976Y561289D01*
X641463Y561802D01*
X640938Y562302D01*
X640402Y562789D01*
X639853Y563263D01*
X639294Y563724D01*
X638723Y564171D01*
X638142Y564605D01*
X637550Y565024D01*
X636948Y565428D01*
X636337Y565818D01*
X635717Y566193D01*
X635088Y566553D01*
X634450Y566898D01*
X633804Y567227D01*
X633150Y567540D01*
X632489Y567838D01*
X631821Y568119D01*
X631146Y568384D01*
X630465Y568633D01*
X629779Y568866D01*
X629086Y569081D01*
X628389Y569280D01*
X627687Y569462D01*
X626982Y569627D01*
X626272Y569775D01*
X625559Y569906D01*
X624843Y570019D01*
X624124Y570115D01*
X623403Y570194D01*
X622681Y570255D01*
X621957Y570299D01*
X621233Y570325D01*
X620508Y570334D01*
X30508Y570334D01*
X29783Y570325D01*
X29059Y570299D01*
X28335Y570255D01*
X27613Y570194D01*
X26892Y570115D01*
X26173Y570019D01*
X25457Y569906D01*
X24744Y569775D01*
X24034Y569627D01*
X23329Y569462D01*
X22627Y569280D01*
X21930Y569081D01*
X21237Y568866D01*
X20551Y568633D01*
X19870Y568384D01*
X19195Y568119D01*
X18527Y567838D01*
X17866Y567540D01*
X17212Y567227D01*
X16566Y566898D01*
X15928Y566553D01*
X15299Y566193D01*
X14679Y565818D01*
X14068Y565428D01*
X13466Y565024D01*
X12874Y564605D01*
X12293Y564171D01*
X11722Y563724D01*
X11163Y563263D01*
X10614Y562789D01*
X10078Y562302D01*
X9553Y561802D01*
X9040Y561289D01*
X8540Y560764D01*
X8053Y560228D01*
X7579Y559679D01*
X7118Y559120D01*
X6671Y558549D01*
X6237Y557968D01*
X5818Y557376D01*
X5414Y556774D01*
X5024Y556163D01*
X4649Y555543D01*
X4289Y554914D01*
X3944Y554276D01*
X3615Y553630D01*
X3302Y552976D01*
X3004Y552315D01*
X2723Y551647D01*
X2458Y550972D01*
X2209Y550291D01*
X1976Y549605D01*
X1761Y548912D01*
X1562Y548215D01*
X1380Y547513D01*
X1215Y546808D01*
X1067Y546098D01*
X936Y545385D01*
X823Y544669D01*
X727Y543950D01*
X648Y543229D01*
X587Y542507D01*
X543Y541783D01*
X517Y541059D01*
X508Y540334D01*
X50000Y355000D02*
X50000Y205000D01*
X50000Y355000D02*
X49997Y355242D01*
X49988Y355483D01*
X49974Y355724D01*
X49953Y355965D01*
X49927Y356205D01*
X49895Y356445D01*
X49857Y356684D01*
X49814Y356921D01*
X49764Y357158D01*
X49709Y357393D01*
X49649Y357627D01*
X49582Y357859D01*
X49511Y358090D01*
X49433Y358319D01*
X49350Y358546D01*
X49262Y358771D01*
X49168Y358994D01*
X49069Y359214D01*
X48964Y359432D01*
X48855Y359647D01*
X48740Y359860D01*
X48620Y360070D01*
X48495Y360276D01*
X48365Y360480D01*
X48230Y360681D01*
X48090Y360878D01*
X47946Y361072D01*
X47797Y361262D01*
X47643Y361448D01*
X47485Y361631D01*
X47323Y361810D01*
X47156Y361985D01*
X46985Y362156D01*
X46810Y362323D01*
X46631Y362485D01*
X46448Y362643D01*
X46262Y362797D01*
X46072Y362946D01*
X45878Y363090D01*
X45681Y363230D01*
X45480Y363365D01*
X45276Y363495D01*
X45070Y363620D01*
X44860Y363740D01*
X44647Y363855D01*
X44432Y363964D01*
X44214Y364069D01*
X43994Y364168D01*
X43771Y364262D01*
X43546Y364350D01*
X43319Y364433D01*
X43090Y364511D01*
X42859Y364582D01*
X42627Y364649D01*
X42393Y364709D01*
X42158Y364764D01*
X41921Y364814D01*
X41684Y364857D01*
X41445Y364895D01*
X41205Y364927D01*
X40965Y364953D01*
X40724Y364974D01*
X40483Y364988D01*
X40242Y364997D01*
X40000Y365000D01*
X10000Y365000D01*
X9758Y365003D01*
X9517Y365012D01*
X9276Y365026D01*
X9035Y365047D01*
X8795Y365073D01*
X8555Y365105D01*
X8316Y365143D01*
X8079Y365186D01*
X7842Y365236D01*
X7607Y365291D01*
X7373Y365351D01*
X7141Y365418D01*
X6910Y365489D01*
X6681Y365567D01*
X6454Y365650D01*
X6229Y365738D01*
X6006Y365832D01*
X5786Y365931D01*
X5568Y366036D01*
X5353Y366145D01*
X5140Y366260D01*
X4930Y366380D01*
X4724Y366505D01*
X4520Y366635D01*
X4319Y366770D01*
X4122Y366910D01*
X3928Y367054D01*
X3738Y367203D01*
X3552Y367357D01*
X3369Y367515D01*
X3190Y367677D01*
X3015Y367844D01*
X2844Y368015D01*
X2677Y368190D01*
X2515Y368369D01*
X2357Y368552D01*
X2203Y368738D01*
X2054Y368928D01*
X1910Y369122D01*
X1770Y369319D01*
X1635Y369520D01*
X1505Y369724D01*
X1380Y369930D01*
X1260Y370140D01*
X1145Y370353D01*
X1036Y370568D01*
X931Y370786D01*
X832Y371006D01*
X738Y371229D01*
X650Y371454D01*
X567Y371681D01*
X489Y371910D01*
X418Y372141D01*
X351Y372373D01*
X291Y372607D01*
X236Y372842D01*
X186Y373079D01*
X143Y373316D01*
X105Y373555D01*
X73Y373795D01*
X47Y374035D01*
X26Y374276D01*
X12Y374517D01*
X3Y374758D01*
X0Y375000D01*
X508Y540334D01*
X0Y185000D02*
X0Y30000D01*
X0Y185000D02*
X3Y185242D01*
X12Y185483D01*
X26Y185724D01*
X47Y185965D01*
X73Y186205D01*
X105Y186445D01*
X143Y186684D01*
X186Y186921D01*
X236Y187158D01*
X291Y187393D01*
X351Y187627D01*
X418Y187859D01*
X489Y188090D01*
X567Y188319D01*
X650Y188546D01*
X738Y188771D01*
X832Y188994D01*
X931Y189214D01*
X1036Y189432D01*
X1145Y189647D01*
X1260Y189860D01*
X1380Y190070D01*
X1505Y190276D01*
X1635Y190480D01*
X1770Y190681D01*
X1910Y190878D01*
X2054Y191072D01*
X2203Y191262D01*
X2357Y191448D01*
X2515Y191631D01*
X2677Y191810D01*
X2844Y191985D01*
X3015Y192156D01*
X3190Y192323D01*
X3369Y192485D01*
X3552Y192643D01*
X3738Y192797D01*
X3928Y192946D01*
X4122Y193090D01*
X4319Y193230D01*
X4520Y193365D01*
X4724Y193495D01*
X4930Y193620D01*
X5140Y193740D01*
X5353Y193855D01*
X5568Y193964D01*
X5786Y194069D01*
X6006Y194168D01*
X6229Y194262D01*
X6454Y194350D01*
X6681Y194433D01*
X6910Y194511D01*
X7141Y194582D01*
X7373Y194649D01*
X7607Y194709D01*
X7842Y194764D01*
X8079Y194814D01*
X8316Y194857D01*
X8555Y194895D01*
X8795Y194927D01*
X9035Y194953D01*
X9276Y194974D01*
X9517Y194988D01*
X9758Y194997D01*
X10000Y195000D01*
X40000Y195000D01*
X40242Y195003D01*
X40483Y195012D01*
X40724Y195026D01*
X40965Y195047D01*
X41205Y195073D01*
X41445Y195105D01*
X41684Y195143D01*
X41921Y195186D01*
X42158Y195236D01*
X42393Y195291D01*
X42627Y195351D01*
X42859Y195418D01*
X43090Y195489D01*
X43319Y195567D01*
X43546Y195650D01*
X43771Y195738D01*
X43994Y195832D01*
X44214Y195931D01*
X44432Y196036D01*
X44647Y196145D01*
X44860Y196260D01*
X45070Y196380D01*
X45276Y196505D01*
X45480Y196635D01*
X45681Y196770D01*
X45878Y196910D01*
X46072Y197054D01*
X46262Y197203D01*
X46448Y197357D01*
X46631Y197515D01*
X46810Y197677D01*
X46985Y197844D01*
X47156Y198015D01*
X47323Y198190D01*
X47485Y198369D01*
X47643Y198552D01*
X47797Y198738D01*
X47946Y198928D01*
X48090Y199122D01*
X48230Y199319D01*
X48365Y199520D01*
X48495Y199724D01*
X48620Y199930D01*
X48740Y200140D01*
X48855Y200353D01*
X48964Y200568D01*
X49069Y200786D01*
X49168Y201006D01*
X49262Y201229D01*
X49350Y201454D01*
X49433Y201681D01*
X49511Y201910D01*
X49582Y202141D01*
X49649Y202373D01*
X49709Y202607D01*
X49764Y202842D01*
X49814Y203079D01*
X49857Y203316D01*
X49895Y203555D01*
X49927Y203795D01*
X49953Y204035D01*
X49974Y204276D01*
X49988Y204517D01*
X49997Y204758D01*
X50000Y205000D01*
X0Y30000D02*
X9Y29275D01*
X35Y28551D01*
X79Y27827D01*
X140Y27105D01*
X219Y26384D01*
X315Y25665D01*
X428Y24949D01*
X559Y24236D01*
X707Y23526D01*
X872Y22821D01*
X1054Y22119D01*
X1253Y21422D01*
X1468Y20729D01*
X1701Y20043D01*
X1950Y19362D01*
X2215Y18687D01*
X2496Y18019D01*
X2794Y17358D01*
X3107Y16704D01*
X3436Y16058D01*
X3781Y15420D01*
X4141Y14791D01*
X4516Y14171D01*
X4906Y13560D01*
X5310Y12958D01*
X5729Y12366D01*
X6163Y11785D01*
X6610Y11214D01*
X7071Y10655D01*
X7545Y10106D01*
X8032Y9570D01*
X8532Y9045D01*
X9045Y8532D01*
X9570Y8032D01*
X10106Y7545D01*
X10655Y7071D01*
X11214Y6610D01*
X11785Y6163D01*
X12366Y5729D01*
X12958Y5310D01*
X13560Y4906D01*
X14171Y4516D01*
X14791Y4141D01*
X15420Y3781D01*
X16058Y3436D01*
X16704Y3107D01*
X17358Y2794D01*
X18019Y2496D01*
X18687Y2215D01*
X19362Y1950D01*
X20043Y1701D01*
X20729Y1468D01*
X21422Y1253D01*
X22119Y1054D01*
X22821Y872D01*
X23526Y707D01*
X24236Y559D01*
X24949Y428D01*
X25665Y315D01*
X26384Y219D01*
X27105Y140D01*
X27827Y79D01*
X28551Y35D01*
X29275Y9D01*
X30000Y0D01*
X450000Y30000D02*
X450242Y30003D01*
X450483Y30012D01*
X450724Y30026D01*
X450965Y30047D01*
X451205Y30073D01*
X451445Y30105D01*
X451684Y30143D01*
X451921Y30186D01*
X452158Y30236D01*
X452393Y30291D01*
X452627Y30351D01*
X452859Y30418D01*
X453090Y30489D01*
X453319Y30567D01*
X453546Y30650D01*
X453771Y30738D01*
X453994Y30832D01*
X454214Y30931D01*
X454432Y31036D01*
X454647Y31145D01*
X454860Y31260D01*
X455070Y31380D01*
X455276Y31505D01*
X455480Y31635D01*
X455681Y31770D01*
X455878Y31910D01*
X456072Y32054D01*
X456262Y32203D01*
X456448Y32357D01*
X456631Y32515D01*
X456810Y32677D01*
X456985Y32844D01*
X457156Y33015D01*
X457323Y33190D01*
X457485Y33369D01*
X457643Y33552D01*
X457797Y33738D01*
X457946Y33928D01*
X458090Y34122D01*
X458230Y34319D01*
X458365Y34520D01*
X458495Y34724D01*
X458620Y34930D01*
X458740Y35140D01*
X458855Y35353D01*
X458964Y35568D01*
X459069Y35786D01*
X459168Y36006D01*
X459262Y36229D01*
X459350Y36454D01*
X459433Y36681D01*
X459511Y36910D01*
X459582Y37141D01*
X459649Y37373D01*
X459709Y37607D01*
X459764Y37842D01*
X459814Y38079D01*
X459857Y38316D01*
X459895Y38555D01*
X459927Y38795D01*
X459953Y39035D01*
X459974Y39276D01*
X459988Y39517D01*
X459997Y39758D01*
X460000Y40000D01*
X460000Y190000D01*
X459997Y190242D01*
X459988Y190483D01*
X459974Y190724D01*
X459953Y190965D01*
X459927Y191205D01*
X459895Y191445D01*
X459857Y191684D01*
X459814Y191921D01*
X459764Y192158D01*
X459709Y192393D01*
X459649Y192627D01*
X459582Y192859D01*
X459511Y193090D01*
X459433Y193319D01*
X459350Y193546D01*
X459262Y193771D01*
X459168Y193994D01*
X459069Y194214D01*
X458964Y194432D01*
X458855Y194647D01*
X458740Y194860D01*
X458620Y195070D01*
X458495Y195276D01*
X458365Y195480D01*
X458230Y195681D01*
X458090Y195878D01*
X457946Y196072D01*
X457797Y196262D01*
X457643Y196448D01*
X457485Y196631D01*
X457323Y196810D01*
X457156Y196985D01*
X456985Y197156D01*
X456810Y197323D01*
X456631Y197485D01*
X456448Y197643D01*
X456262Y197797D01*
X456072Y197946D01*
X455878Y198090D01*
X455681Y198230D01*
X455480Y198365D01*
X455276Y198495D01*
X455070Y198620D01*
X454860Y198740D01*
X454647Y198855D01*
X454432Y198964D01*
X454214Y199069D01*
X453994Y199168D01*
X453771Y199262D01*
X453546Y199350D01*
X453319Y199433D01*
X453090Y199511D01*
X452859Y199582D01*
X452627Y199649D01*
X452393Y199709D01*
X452158Y199764D01*
X451921Y199814D01*
X451684Y199857D01*
X451445Y199895D01*
X451205Y199927D01*
X450965Y199953D01*
X450724Y199974D01*
X450483Y199988D01*
X450242Y199997D01*
X450000Y200000D01*
X449758Y199997D01*
X449517Y199988D01*
X449276Y199974D01*
X449035Y199953D01*
X448795Y199927D01*
X448555Y199895D01*
X448316Y199857D01*
X448079Y199814D01*
X447842Y199764D01*
X447607Y199709D01*
X447373Y199649D01*
X447141Y199582D01*
X446910Y199511D01*
X446681Y199433D01*
X446454Y199350D01*
X446229Y199262D01*
X446006Y199168D01*
X445786Y199069D01*
X445568Y198964D01*
X445353Y198855D01*
X445140Y198740D01*
X444930Y198620D01*
X444724Y198495D01*
X444520Y198365D01*
X444319Y198230D01*
X444122Y198090D01*
X443928Y197946D01*
X443738Y197797D01*
X443552Y197643D01*
X443369Y197485D01*
X443190Y197323D01*
X443015Y197156D01*
X442844Y196985D01*
X442677Y196810D01*
X442515Y196631D01*
X442357Y196448D01*
X442203Y196262D01*
X442054Y196072D01*
X441910Y195878D01*
X441770Y195681D01*
X441635Y195480D01*
X441505Y195276D01*
X441380Y195070D01*
X441260Y194860D01*
X441145Y194647D01*
X441036Y194432D01*
X440931Y194214D01*
X440832Y193994D01*
X440738Y193771D01*
X440650Y193546D01*
X440567Y193319D01*
X440489Y193090D01*
X440418Y192859D01*
X440351Y192627D01*
X440291Y192393D01*
X440236Y192158D01*
X440186Y191921D01*
X440143Y191684D01*
X440105Y191445D01*
X440073Y191205D01*
X440047Y190965D01*
X440026Y190724D01*
X440012Y190483D01*
X440003Y190242D01*
X440000Y190000D01*
X440000Y40000D01*
X440003Y39758D01*
X440012Y39517D01*
X440026Y39276D01*
X440047Y39035D01*
X440073Y38795D01*
X440105Y38555D01*
X440143Y38316D01*
X440186Y38079D01*
X440236Y37842D01*
X440291Y37607D01*
X440351Y37373D01*
X440418Y37141D01*
X440489Y36910D01*
X440567Y36681D01*
X440650Y36454D01*
X440738Y36229D01*
X440832Y36006D01*
X440931Y35786D01*
X441036Y35568D01*
X441145Y35353D01*
X441260Y35140D01*
X441380Y34930D01*
X441505Y34724D01*
X441635Y34520D01*
X441770Y34319D01*
X441910Y34122D01*
X442054Y33928D01*
X442203Y33738D01*
X442357Y33552D01*
X442515Y33369D01*
X442677Y33190D01*
X442844Y33015D01*
X443015Y32844D01*
X443190Y32677D01*
X443369Y32515D01*
X443552Y32357D01*
X443738Y32203D01*
X443928Y32054D01*
X444122Y31910D01*
X444319Y31770D01*
X444520Y31635D01*
X444724Y31505D01*
X444930Y31380D01*
X445140Y31260D01*
X445353Y31145D01*
X445568Y31036D01*
X445786Y30931D01*
X446006Y30832D01*
X446229Y30738D01*
X446454Y30650D01*
X446681Y30567D01*
X446910Y30489D01*
X447141Y30418D01*
X447373Y30351D01*
X447607Y30291D01*
X447842Y30236D01*
X448079Y30186D01*
X448316Y30143D01*
X448555Y30105D01*
X448795Y30073D01*
X449035Y30047D01*
X449276Y30026D01*
X449517Y30012D01*
X449758Y30003D01*
X450000Y30000D01*
D12*
X45800Y464510D02*
X45802Y464623D01*
X45808Y464737D01*
X45818Y464850D01*
X45832Y464962D01*
X45849Y465074D01*
X45871Y465186D01*
X45897Y465296D01*
X45926Y465406D01*
X45959Y465514D01*
X45996Y465622D01*
X46037Y465727D01*
X46081Y465832D01*
X46129Y465935D01*
X46180Y466036D01*
X46235Y466135D01*
X46294Y466232D01*
X46356Y466327D01*
X46421Y466420D01*
X46489Y466511D01*
X46560Y466599D01*
X46635Y466685D01*
X46712Y466768D01*
X46792Y466848D01*
X46875Y466925D01*
X46961Y467000D01*
X47049Y467071D01*
X47140Y467139D01*
X47233Y467204D01*
X47328Y467266D01*
X47425Y467325D01*
X47524Y467380D01*
X47625Y467431D01*
X47728Y467479D01*
X47833Y467523D01*
X47938Y467564D01*
X48046Y467601D01*
X48154Y467634D01*
X48264Y467663D01*
X48374Y467689D01*
X48486Y467711D01*
X48598Y467728D01*
X48710Y467742D01*
X48823Y467752D01*
X48937Y467758D01*
X49050Y467760D01*
X49163Y467758D01*
X49277Y467752D01*
X49390Y467742D01*
X49502Y467728D01*
X49614Y467711D01*
X49726Y467689D01*
X49836Y467663D01*
X49946Y467634D01*
X50054Y467601D01*
X50162Y467564D01*
X50267Y467523D01*
X50372Y467479D01*
X50475Y467431D01*
X50576Y467380D01*
X50675Y467325D01*
X50772Y467266D01*
X50867Y467204D01*
X50960Y467139D01*
X51051Y467071D01*
X51139Y467000D01*
X51225Y466925D01*
X51308Y466848D01*
X51388Y466768D01*
X51465Y466685D01*
X51540Y466599D01*
X51611Y466511D01*
X51679Y466420D01*
X51744Y466327D01*
X51806Y466232D01*
X51865Y466135D01*
X51920Y466036D01*
X51971Y465935D01*
X52019Y465832D01*
X52063Y465727D01*
X52104Y465622D01*
X52141Y465514D01*
X52174Y465406D01*
X52203Y465296D01*
X52229Y465186D01*
X52251Y465074D01*
X52268Y464962D01*
X52282Y464850D01*
X52292Y464737D01*
X52298Y464623D01*
X52300Y464510D01*
X52298Y464397D01*
X52292Y464283D01*
X52282Y464170D01*
X52268Y464058D01*
X52251Y463946D01*
X52229Y463834D01*
X52203Y463724D01*
X52174Y463614D01*
X52141Y463506D01*
X52104Y463398D01*
X52063Y463293D01*
X52019Y463188D01*
X51971Y463085D01*
X51920Y462984D01*
X51865Y462885D01*
X51806Y462788D01*
X51744Y462693D01*
X51679Y462600D01*
X51611Y462509D01*
X51540Y462421D01*
X51465Y462335D01*
X51388Y462252D01*
X51308Y462172D01*
X51225Y462095D01*
X51139Y462020D01*
X51051Y461949D01*
X50960Y461881D01*
X50867Y461816D01*
X50772Y461754D01*
X50675Y461695D01*
X50576Y461640D01*
X50475Y461589D01*
X50372Y461541D01*
X50267Y461497D01*
X50162Y461456D01*
X50054Y461419D01*
X49946Y461386D01*
X49836Y461357D01*
X49726Y461331D01*
X49614Y461309D01*
X49502Y461292D01*
X49390Y461278D01*
X49277Y461268D01*
X49163Y461262D01*
X49050Y461260D01*
X48937Y461262D01*
X48823Y461268D01*
X48710Y461278D01*
X48598Y461292D01*
X48486Y461309D01*
X48374Y461331D01*
X48264Y461357D01*
X48154Y461386D01*
X48046Y461419D01*
X47938Y461456D01*
X47833Y461497D01*
X47728Y461541D01*
X47625Y461589D01*
X47524Y461640D01*
X47425Y461695D01*
X47328Y461754D01*
X47233Y461816D01*
X47140Y461881D01*
X47049Y461949D01*
X46961Y462020D01*
X46875Y462095D01*
X46792Y462172D01*
X46712Y462252D01*
X46635Y462335D01*
X46560Y462421D01*
X46489Y462509D01*
X46421Y462600D01*
X46356Y462693D01*
X46294Y462788D01*
X46235Y462885D01*
X46180Y462984D01*
X46129Y463085D01*
X46081Y463188D01*
X46037Y463293D01*
X45996Y463398D01*
X45959Y463506D01*
X45926Y463614D01*
X45897Y463724D01*
X45871Y463834D01*
X45849Y463946D01*
X45832Y464058D01*
X45818Y464170D01*
X45808Y464283D01*
X45802Y464397D01*
X45800Y464510D01*
X45800Y406710D02*
X45802Y406823D01*
X45808Y406937D01*
X45818Y407050D01*
X45832Y407162D01*
X45849Y407274D01*
X45871Y407386D01*
X45897Y407496D01*
X45926Y407606D01*
X45959Y407714D01*
X45996Y407822D01*
X46037Y407927D01*
X46081Y408032D01*
X46129Y408135D01*
X46180Y408236D01*
X46235Y408335D01*
X46294Y408432D01*
X46356Y408527D01*
X46421Y408620D01*
X46489Y408711D01*
X46560Y408799D01*
X46635Y408885D01*
X46712Y408968D01*
X46792Y409048D01*
X46875Y409125D01*
X46961Y409200D01*
X47049Y409271D01*
X47140Y409339D01*
X47233Y409404D01*
X47328Y409466D01*
X47425Y409525D01*
X47524Y409580D01*
X47625Y409631D01*
X47728Y409679D01*
X47833Y409723D01*
X47938Y409764D01*
X48046Y409801D01*
X48154Y409834D01*
X48264Y409863D01*
X48374Y409889D01*
X48486Y409911D01*
X48598Y409928D01*
X48710Y409942D01*
X48823Y409952D01*
X48937Y409958D01*
X49050Y409960D01*
X49163Y409958D01*
X49277Y409952D01*
X49390Y409942D01*
X49502Y409928D01*
X49614Y409911D01*
X49726Y409889D01*
X49836Y409863D01*
X49946Y409834D01*
X50054Y409801D01*
X50162Y409764D01*
X50267Y409723D01*
X50372Y409679D01*
X50475Y409631D01*
X50576Y409580D01*
X50675Y409525D01*
X50772Y409466D01*
X50867Y409404D01*
X50960Y409339D01*
X51051Y409271D01*
X51139Y409200D01*
X51225Y409125D01*
X51308Y409048D01*
X51388Y408968D01*
X51465Y408885D01*
X51540Y408799D01*
X51611Y408711D01*
X51679Y408620D01*
X51744Y408527D01*
X51806Y408432D01*
X51865Y408335D01*
X51920Y408236D01*
X51971Y408135D01*
X52019Y408032D01*
X52063Y407927D01*
X52104Y407822D01*
X52141Y407714D01*
X52174Y407606D01*
X52203Y407496D01*
X52229Y407386D01*
X52251Y407274D01*
X52268Y407162D01*
X52282Y407050D01*
X52292Y406937D01*
X52298Y406823D01*
X52300Y406710D01*
X52298Y406597D01*
X52292Y406483D01*
X52282Y406370D01*
X52268Y406258D01*
X52251Y406146D01*
X52229Y406034D01*
X52203Y405924D01*
X52174Y405814D01*
X52141Y405706D01*
X52104Y405598D01*
X52063Y405493D01*
X52019Y405388D01*
X51971Y405285D01*
X51920Y405184D01*
X51865Y405085D01*
X51806Y404988D01*
X51744Y404893D01*
X51679Y404800D01*
X51611Y404709D01*
X51540Y404621D01*
X51465Y404535D01*
X51388Y404452D01*
X51308Y404372D01*
X51225Y404295D01*
X51139Y404220D01*
X51051Y404149D01*
X50960Y404081D01*
X50867Y404016D01*
X50772Y403954D01*
X50675Y403895D01*
X50576Y403840D01*
X50475Y403789D01*
X50372Y403741D01*
X50267Y403697D01*
X50162Y403656D01*
X50054Y403619D01*
X49946Y403586D01*
X49836Y403557D01*
X49726Y403531D01*
X49614Y403509D01*
X49502Y403492D01*
X49390Y403478D01*
X49277Y403468D01*
X49163Y403462D01*
X49050Y403460D01*
X48937Y403462D01*
X48823Y403468D01*
X48710Y403478D01*
X48598Y403492D01*
X48486Y403509D01*
X48374Y403531D01*
X48264Y403557D01*
X48154Y403586D01*
X48046Y403619D01*
X47938Y403656D01*
X47833Y403697D01*
X47728Y403741D01*
X47625Y403789D01*
X47524Y403840D01*
X47425Y403895D01*
X47328Y403954D01*
X47233Y404016D01*
X47140Y404081D01*
X47049Y404149D01*
X46961Y404220D01*
X46875Y404295D01*
X46792Y404372D01*
X46712Y404452D01*
X46635Y404535D01*
X46560Y404621D01*
X46489Y404709D01*
X46421Y404800D01*
X46356Y404893D01*
X46294Y404988D01*
X46235Y405085D01*
X46180Y405184D01*
X46129Y405285D01*
X46081Y405388D01*
X46037Y405493D01*
X45996Y405598D01*
X45959Y405706D01*
X45926Y405814D01*
X45897Y405924D01*
X45871Y406034D01*
X45849Y406146D01*
X45832Y406258D01*
X45818Y406370D01*
X45808Y406483D01*
X45802Y406597D01*
X45800Y406710D01*
D13*
X15700Y481810D02*
X9500Y481810D01*
X9500Y475810D02*
X15700Y475810D01*
X15808Y475812D01*
X15916Y475818D01*
X16024Y475828D01*
X16132Y475841D01*
X16239Y475859D01*
X16345Y475880D01*
X16450Y475905D01*
X16555Y475934D01*
X16658Y475967D01*
X16760Y476003D01*
X16861Y476044D01*
X16960Y476087D01*
X17057Y476135D01*
X17153Y476185D01*
X17247Y476239D01*
X17338Y476297D01*
X17428Y476358D01*
X17516Y476422D01*
X17601Y476489D01*
X17683Y476559D01*
X17763Y476632D01*
X17840Y476708D01*
X17915Y476787D01*
X17986Y476868D01*
X18055Y476952D01*
X18121Y477038D01*
X18183Y477126D01*
X18242Y477217D01*
X18298Y477310D01*
X18351Y477405D01*
X18400Y477501D01*
X18445Y477600D01*
X18487Y477700D01*
X18525Y477801D01*
X18560Y477904D01*
X18591Y478007D01*
X18618Y478112D01*
X18641Y478218D01*
X18660Y478325D01*
X18676Y478432D01*
X18688Y478540D01*
X18696Y478648D01*
X18700Y478756D01*
X18700Y478864D01*
X18696Y478972D01*
X18688Y479080D01*
X18676Y479188D01*
X18660Y479295D01*
X18641Y479402D01*
X18618Y479508D01*
X18591Y479613D01*
X18560Y479716D01*
X18525Y479819D01*
X18487Y479920D01*
X18445Y480020D01*
X18400Y480119D01*
X18351Y480215D01*
X18298Y480310D01*
X18242Y480403D01*
X18183Y480494D01*
X18121Y480582D01*
X18055Y480668D01*
X17986Y480752D01*
X17915Y480833D01*
X17840Y480912D01*
X17763Y480988D01*
X17683Y481061D01*
X17601Y481131D01*
X17516Y481198D01*
X17428Y481262D01*
X17338Y481323D01*
X17247Y481381D01*
X17153Y481435D01*
X17057Y481485D01*
X16960Y481533D01*
X16861Y481576D01*
X16760Y481617D01*
X16658Y481653D01*
X16555Y481686D01*
X16450Y481715D01*
X16345Y481740D01*
X16239Y481761D01*
X16132Y481779D01*
X16024Y481792D01*
X15916Y481802D01*
X15808Y481808D01*
X15700Y481810D01*
X9500Y481810D02*
X9392Y481808D01*
X9284Y481802D01*
X9176Y481792D01*
X9068Y481779D01*
X8961Y481761D01*
X8855Y481740D01*
X8750Y481715D01*
X8645Y481686D01*
X8542Y481653D01*
X8440Y481617D01*
X8339Y481576D01*
X8240Y481533D01*
X8143Y481485D01*
X8047Y481435D01*
X7953Y481381D01*
X7862Y481323D01*
X7772Y481262D01*
X7684Y481198D01*
X7599Y481131D01*
X7517Y481061D01*
X7437Y480988D01*
X7360Y480912D01*
X7285Y480833D01*
X7214Y480752D01*
X7145Y480668D01*
X7079Y480582D01*
X7017Y480494D01*
X6958Y480403D01*
X6902Y480310D01*
X6849Y480215D01*
X6800Y480119D01*
X6755Y480020D01*
X6713Y479920D01*
X6675Y479819D01*
X6640Y479716D01*
X6609Y479613D01*
X6582Y479508D01*
X6559Y479402D01*
X6540Y479295D01*
X6524Y479188D01*
X6512Y479080D01*
X6504Y478972D01*
X6500Y478864D01*
X6500Y478756D01*
X6504Y478648D01*
X6512Y478540D01*
X6524Y478432D01*
X6540Y478325D01*
X6559Y478218D01*
X6582Y478112D01*
X6609Y478007D01*
X6640Y477904D01*
X6675Y477801D01*
X6713Y477700D01*
X6755Y477600D01*
X6800Y477501D01*
X6849Y477405D01*
X6902Y477310D01*
X6958Y477217D01*
X7017Y477126D01*
X7079Y477038D01*
X7145Y476952D01*
X7214Y476868D01*
X7285Y476787D01*
X7360Y476708D01*
X7437Y476632D01*
X7517Y476559D01*
X7599Y476489D01*
X7684Y476422D01*
X7772Y476358D01*
X7862Y476297D01*
X7953Y476239D01*
X8047Y476185D01*
X8143Y476135D01*
X8240Y476087D01*
X8339Y476044D01*
X8440Y476003D01*
X8542Y475967D01*
X8645Y475934D01*
X8750Y475905D01*
X8855Y475880D01*
X8961Y475859D01*
X9068Y475841D01*
X9176Y475828D01*
X9284Y475818D01*
X9392Y475812D01*
X9500Y475810D01*
X48850Y481810D02*
X59850Y481810D01*
X59850Y475810D02*
X48850Y475810D01*
X48742Y475812D01*
X48634Y475818D01*
X48526Y475828D01*
X48418Y475841D01*
X48311Y475859D01*
X48205Y475880D01*
X48100Y475905D01*
X47995Y475934D01*
X47892Y475967D01*
X47790Y476003D01*
X47689Y476044D01*
X47590Y476087D01*
X47493Y476135D01*
X47397Y476185D01*
X47303Y476239D01*
X47212Y476297D01*
X47122Y476358D01*
X47034Y476422D01*
X46949Y476489D01*
X46867Y476559D01*
X46787Y476632D01*
X46710Y476708D01*
X46635Y476787D01*
X46564Y476868D01*
X46495Y476952D01*
X46429Y477038D01*
X46367Y477126D01*
X46308Y477217D01*
X46252Y477310D01*
X46199Y477405D01*
X46150Y477501D01*
X46105Y477600D01*
X46063Y477700D01*
X46025Y477801D01*
X45990Y477904D01*
X45959Y478007D01*
X45932Y478112D01*
X45909Y478218D01*
X45890Y478325D01*
X45874Y478432D01*
X45862Y478540D01*
X45854Y478648D01*
X45850Y478756D01*
X45850Y478864D01*
X45854Y478972D01*
X45862Y479080D01*
X45874Y479188D01*
X45890Y479295D01*
X45909Y479402D01*
X45932Y479508D01*
X45959Y479613D01*
X45990Y479716D01*
X46025Y479819D01*
X46063Y479920D01*
X46105Y480020D01*
X46150Y480119D01*
X46199Y480215D01*
X46252Y480310D01*
X46308Y480403D01*
X46367Y480494D01*
X46429Y480582D01*
X46495Y480668D01*
X46564Y480752D01*
X46635Y480833D01*
X46710Y480912D01*
X46787Y480988D01*
X46867Y481061D01*
X46949Y481131D01*
X47034Y481198D01*
X47122Y481262D01*
X47212Y481323D01*
X47303Y481381D01*
X47397Y481435D01*
X47493Y481485D01*
X47590Y481533D01*
X47689Y481576D01*
X47790Y481617D01*
X47892Y481653D01*
X47995Y481686D01*
X48100Y481715D01*
X48205Y481740D01*
X48311Y481761D01*
X48418Y481779D01*
X48526Y481792D01*
X48634Y481802D01*
X48742Y481808D01*
X48850Y481810D01*
X59850Y481810D02*
X59958Y481808D01*
X60066Y481802D01*
X60174Y481792D01*
X60282Y481779D01*
X60389Y481761D01*
X60495Y481740D01*
X60600Y481715D01*
X60705Y481686D01*
X60808Y481653D01*
X60910Y481617D01*
X61011Y481576D01*
X61110Y481533D01*
X61207Y481485D01*
X61303Y481435D01*
X61397Y481381D01*
X61488Y481323D01*
X61578Y481262D01*
X61666Y481198D01*
X61751Y481131D01*
X61833Y481061D01*
X61913Y480988D01*
X61990Y480912D01*
X62065Y480833D01*
X62136Y480752D01*
X62205Y480668D01*
X62271Y480582D01*
X62333Y480494D01*
X62392Y480403D01*
X62448Y480310D01*
X62501Y480215D01*
X62550Y480119D01*
X62595Y480020D01*
X62637Y479920D01*
X62675Y479819D01*
X62710Y479716D01*
X62741Y479613D01*
X62768Y479508D01*
X62791Y479402D01*
X62810Y479295D01*
X62826Y479188D01*
X62838Y479080D01*
X62846Y478972D01*
X62850Y478864D01*
X62850Y478756D01*
X62846Y478648D01*
X62838Y478540D01*
X62826Y478432D01*
X62810Y478325D01*
X62791Y478218D01*
X62768Y478112D01*
X62741Y478007D01*
X62710Y477904D01*
X62675Y477801D01*
X62637Y477700D01*
X62595Y477600D01*
X62550Y477501D01*
X62501Y477405D01*
X62448Y477310D01*
X62392Y477217D01*
X62333Y477126D01*
X62271Y477038D01*
X62205Y476952D01*
X62136Y476868D01*
X62065Y476787D01*
X61990Y476708D01*
X61913Y476632D01*
X61833Y476559D01*
X61751Y476489D01*
X61666Y476422D01*
X61578Y476358D01*
X61488Y476297D01*
X61397Y476239D01*
X61303Y476185D01*
X61207Y476135D01*
X61110Y476087D01*
X61011Y476044D01*
X60910Y476003D01*
X60808Y475967D01*
X60705Y475934D01*
X60600Y475905D01*
X60495Y475880D01*
X60389Y475859D01*
X60282Y475841D01*
X60174Y475828D01*
X60066Y475818D01*
X59958Y475812D01*
X59850Y475810D01*
X15700Y395410D02*
X9500Y395410D01*
X9500Y389410D02*
X15700Y389410D01*
X15808Y389412D01*
X15916Y389418D01*
X16024Y389428D01*
X16132Y389441D01*
X16239Y389459D01*
X16345Y389480D01*
X16450Y389505D01*
X16555Y389534D01*
X16658Y389567D01*
X16760Y389603D01*
X16861Y389644D01*
X16960Y389687D01*
X17057Y389735D01*
X17153Y389785D01*
X17247Y389839D01*
X17338Y389897D01*
X17428Y389958D01*
X17516Y390022D01*
X17601Y390089D01*
X17683Y390159D01*
X17763Y390232D01*
X17840Y390308D01*
X17915Y390387D01*
X17986Y390468D01*
X18055Y390552D01*
X18121Y390638D01*
X18183Y390726D01*
X18242Y390817D01*
X18298Y390910D01*
X18351Y391005D01*
X18400Y391101D01*
X18445Y391200D01*
X18487Y391300D01*
X18525Y391401D01*
X18560Y391504D01*
X18591Y391607D01*
X18618Y391712D01*
X18641Y391818D01*
X18660Y391925D01*
X18676Y392032D01*
X18688Y392140D01*
X18696Y392248D01*
X18700Y392356D01*
X18700Y392464D01*
X18696Y392572D01*
X18688Y392680D01*
X18676Y392788D01*
X18660Y392895D01*
X18641Y393002D01*
X18618Y393108D01*
X18591Y393213D01*
X18560Y393316D01*
X18525Y393419D01*
X18487Y393520D01*
X18445Y393620D01*
X18400Y393719D01*
X18351Y393815D01*
X18298Y393910D01*
X18242Y394003D01*
X18183Y394094D01*
X18121Y394182D01*
X18055Y394268D01*
X17986Y394352D01*
X17915Y394433D01*
X17840Y394512D01*
X17763Y394588D01*
X17683Y394661D01*
X17601Y394731D01*
X17516Y394798D01*
X17428Y394862D01*
X17338Y394923D01*
X17247Y394981D01*
X17153Y395035D01*
X17057Y395085D01*
X16960Y395133D01*
X16861Y395176D01*
X16760Y395217D01*
X16658Y395253D01*
X16555Y395286D01*
X16450Y395315D01*
X16345Y395340D01*
X16239Y395361D01*
X16132Y395379D01*
X16024Y395392D01*
X15916Y395402D01*
X15808Y395408D01*
X15700Y395410D01*
X9500Y395410D02*
X9392Y395408D01*
X9284Y395402D01*
X9176Y395392D01*
X9068Y395379D01*
X8961Y395361D01*
X8855Y395340D01*
X8750Y395315D01*
X8645Y395286D01*
X8542Y395253D01*
X8440Y395217D01*
X8339Y395176D01*
X8240Y395133D01*
X8143Y395085D01*
X8047Y395035D01*
X7953Y394981D01*
X7862Y394923D01*
X7772Y394862D01*
X7684Y394798D01*
X7599Y394731D01*
X7517Y394661D01*
X7437Y394588D01*
X7360Y394512D01*
X7285Y394433D01*
X7214Y394352D01*
X7145Y394268D01*
X7079Y394182D01*
X7017Y394094D01*
X6958Y394003D01*
X6902Y393910D01*
X6849Y393815D01*
X6800Y393719D01*
X6755Y393620D01*
X6713Y393520D01*
X6675Y393419D01*
X6640Y393316D01*
X6609Y393213D01*
X6582Y393108D01*
X6559Y393002D01*
X6540Y392895D01*
X6524Y392788D01*
X6512Y392680D01*
X6504Y392572D01*
X6500Y392464D01*
X6500Y392356D01*
X6504Y392248D01*
X6512Y392140D01*
X6524Y392032D01*
X6540Y391925D01*
X6559Y391818D01*
X6582Y391712D01*
X6609Y391607D01*
X6640Y391504D01*
X6675Y391401D01*
X6713Y391300D01*
X6755Y391200D01*
X6800Y391101D01*
X6849Y391005D01*
X6902Y390910D01*
X6958Y390817D01*
X7017Y390726D01*
X7079Y390638D01*
X7145Y390552D01*
X7214Y390468D01*
X7285Y390387D01*
X7360Y390308D01*
X7437Y390232D01*
X7517Y390159D01*
X7599Y390089D01*
X7684Y390022D01*
X7772Y389958D01*
X7862Y389897D01*
X7953Y389839D01*
X8047Y389785D01*
X8143Y389735D01*
X8240Y389687D01*
X8339Y389644D01*
X8440Y389603D01*
X8542Y389567D01*
X8645Y389534D01*
X8750Y389505D01*
X8855Y389480D01*
X8961Y389459D01*
X9068Y389441D01*
X9176Y389428D01*
X9284Y389418D01*
X9392Y389412D01*
X9500Y389410D01*
X48850Y395410D02*
X59850Y395410D01*
X59850Y389410D02*
X48850Y389410D01*
X48742Y389412D01*
X48634Y389418D01*
X48526Y389428D01*
X48418Y389441D01*
X48311Y389459D01*
X48205Y389480D01*
X48100Y389505D01*
X47995Y389534D01*
X47892Y389567D01*
X47790Y389603D01*
X47689Y389644D01*
X47590Y389687D01*
X47493Y389735D01*
X47397Y389785D01*
X47303Y389839D01*
X47212Y389897D01*
X47122Y389958D01*
X47034Y390022D01*
X46949Y390089D01*
X46867Y390159D01*
X46787Y390232D01*
X46710Y390308D01*
X46635Y390387D01*
X46564Y390468D01*
X46495Y390552D01*
X46429Y390638D01*
X46367Y390726D01*
X46308Y390817D01*
X46252Y390910D01*
X46199Y391005D01*
X46150Y391101D01*
X46105Y391200D01*
X46063Y391300D01*
X46025Y391401D01*
X45990Y391504D01*
X45959Y391607D01*
X45932Y391712D01*
X45909Y391818D01*
X45890Y391925D01*
X45874Y392032D01*
X45862Y392140D01*
X45854Y392248D01*
X45850Y392356D01*
X45850Y392464D01*
X45854Y392572D01*
X45862Y392680D01*
X45874Y392788D01*
X45890Y392895D01*
X45909Y393002D01*
X45932Y393108D01*
X45959Y393213D01*
X45990Y393316D01*
X46025Y393419D01*
X46063Y393520D01*
X46105Y393620D01*
X46150Y393719D01*
X46199Y393815D01*
X46252Y393910D01*
X46308Y394003D01*
X46367Y394094D01*
X46429Y394182D01*
X46495Y394268D01*
X46564Y394352D01*
X46635Y394433D01*
X46710Y394512D01*
X46787Y394588D01*
X46867Y394661D01*
X46949Y394731D01*
X47034Y394798D01*
X47122Y394862D01*
X47212Y394923D01*
X47303Y394981D01*
X47397Y395035D01*
X47493Y395085D01*
X47590Y395133D01*
X47689Y395176D01*
X47790Y395217D01*
X47892Y395253D01*
X47995Y395286D01*
X48100Y395315D01*
X48205Y395340D01*
X48311Y395361D01*
X48418Y395379D01*
X48526Y395392D01*
X48634Y395402D01*
X48742Y395408D01*
X48850Y395410D01*
X59850Y395410D02*
X59958Y395408D01*
X60066Y395402D01*
X60174Y395392D01*
X60282Y395379D01*
X60389Y395361D01*
X60495Y395340D01*
X60600Y395315D01*
X60705Y395286D01*
X60808Y395253D01*
X60910Y395217D01*
X61011Y395176D01*
X61110Y395133D01*
X61207Y395085D01*
X61303Y395035D01*
X61397Y394981D01*
X61488Y394923D01*
X61578Y394862D01*
X61666Y394798D01*
X61751Y394731D01*
X61833Y394661D01*
X61913Y394588D01*
X61990Y394512D01*
X62065Y394433D01*
X62136Y394352D01*
X62205Y394268D01*
X62271Y394182D01*
X62333Y394094D01*
X62392Y394003D01*
X62448Y393910D01*
X62501Y393815D01*
X62550Y393719D01*
X62595Y393620D01*
X62637Y393520D01*
X62675Y393419D01*
X62710Y393316D01*
X62741Y393213D01*
X62768Y393108D01*
X62791Y393002D01*
X62810Y392895D01*
X62826Y392788D01*
X62838Y392680D01*
X62846Y392572D01*
X62850Y392464D01*
X62850Y392356D01*
X62846Y392248D01*
X62838Y392140D01*
X62826Y392032D01*
X62810Y391925D01*
X62791Y391818D01*
X62768Y391712D01*
X62741Y391607D01*
X62710Y391504D01*
X62675Y391401D01*
X62637Y391300D01*
X62595Y391200D01*
X62550Y391101D01*
X62501Y391005D01*
X62448Y390910D01*
X62392Y390817D01*
X62333Y390726D01*
X62271Y390638D01*
X62205Y390552D01*
X62136Y390468D01*
X62065Y390387D01*
X61990Y390308D01*
X61913Y390232D01*
X61833Y390159D01*
X61751Y390089D01*
X61666Y390022D01*
X61578Y389958D01*
X61488Y389897D01*
X61397Y389839D01*
X61303Y389785D01*
X61207Y389735D01*
X61110Y389687D01*
X61011Y389644D01*
X60910Y389603D01*
X60808Y389567D01*
X60705Y389534D01*
X60600Y389505D01*
X60495Y389480D01*
X60389Y389459D01*
X60282Y389441D01*
X60174Y389428D01*
X60066Y389418D01*
X59958Y389412D01*
X59850Y389410D01*
X15700Y481810D02*
X9500Y481810D01*
X9500Y475810D02*
X15700Y475810D01*
X15808Y475812D01*
X15916Y475818D01*
X16024Y475828D01*
X16132Y475841D01*
X16239Y475859D01*
X16345Y475880D01*
X16450Y475905D01*
X16555Y475934D01*
X16658Y475967D01*
X16760Y476003D01*
X16861Y476044D01*
X16960Y476087D01*
X17057Y476135D01*
X17153Y476185D01*
X17247Y476239D01*
X17338Y476297D01*
X17428Y476358D01*
X17516Y476422D01*
X17601Y476489D01*
X17683Y476559D01*
X17763Y476632D01*
X17840Y476708D01*
X17915Y476787D01*
X17986Y476868D01*
X18055Y476952D01*
X18121Y477038D01*
X18183Y477126D01*
X18242Y477217D01*
X18298Y477310D01*
X18351Y477405D01*
X18400Y477501D01*
X18445Y477600D01*
X18487Y477700D01*
X18525Y477801D01*
X18560Y477904D01*
X18591Y478007D01*
X18618Y478112D01*
X18641Y478218D01*
X18660Y478325D01*
X18676Y478432D01*
X18688Y478540D01*
X18696Y478648D01*
X18700Y478756D01*
X18700Y478864D01*
X18696Y478972D01*
X18688Y479080D01*
X18676Y479188D01*
X18660Y479295D01*
X18641Y479402D01*
X18618Y479508D01*
X18591Y479613D01*
X18560Y479716D01*
X18525Y479819D01*
X18487Y479920D01*
X18445Y480020D01*
X18400Y480119D01*
X18351Y480215D01*
X18298Y480310D01*
X18242Y480403D01*
X18183Y480494D01*
X18121Y480582D01*
X18055Y480668D01*
X17986Y480752D01*
X17915Y480833D01*
X17840Y480912D01*
X17763Y480988D01*
X17683Y481061D01*
X17601Y481131D01*
X17516Y481198D01*
X17428Y481262D01*
X17338Y481323D01*
X17247Y481381D01*
X17153Y481435D01*
X17057Y481485D01*
X16960Y481533D01*
X16861Y481576D01*
X16760Y481617D01*
X16658Y481653D01*
X16555Y481686D01*
X16450Y481715D01*
X16345Y481740D01*
X16239Y481761D01*
X16132Y481779D01*
X16024Y481792D01*
X15916Y481802D01*
X15808Y481808D01*
X15700Y481810D01*
X9500Y481810D02*
X9392Y481808D01*
X9284Y481802D01*
X9176Y481792D01*
X9068Y481779D01*
X8961Y481761D01*
X8855Y481740D01*
X8750Y481715D01*
X8645Y481686D01*
X8542Y481653D01*
X8440Y481617D01*
X8339Y481576D01*
X8240Y481533D01*
X8143Y481485D01*
X8047Y481435D01*
X7953Y481381D01*
X7862Y481323D01*
X7772Y481262D01*
X7684Y481198D01*
X7599Y481131D01*
X7517Y481061D01*
X7437Y480988D01*
X7360Y480912D01*
X7285Y480833D01*
X7214Y480752D01*
X7145Y480668D01*
X7079Y480582D01*
X7017Y480494D01*
X6958Y480403D01*
X6902Y480310D01*
X6849Y480215D01*
X6800Y480119D01*
X6755Y480020D01*
X6713Y479920D01*
X6675Y479819D01*
X6640Y479716D01*
X6609Y479613D01*
X6582Y479508D01*
X6559Y479402D01*
X6540Y479295D01*
X6524Y479188D01*
X6512Y479080D01*
X6504Y478972D01*
X6500Y478864D01*
X6500Y478756D01*
X6504Y478648D01*
X6512Y478540D01*
X6524Y478432D01*
X6540Y478325D01*
X6559Y478218D01*
X6582Y478112D01*
X6609Y478007D01*
X6640Y477904D01*
X6675Y477801D01*
X6713Y477700D01*
X6755Y477600D01*
X6800Y477501D01*
X6849Y477405D01*
X6902Y477310D01*
X6958Y477217D01*
X7017Y477126D01*
X7079Y477038D01*
X7145Y476952D01*
X7214Y476868D01*
X7285Y476787D01*
X7360Y476708D01*
X7437Y476632D01*
X7517Y476559D01*
X7599Y476489D01*
X7684Y476422D01*
X7772Y476358D01*
X7862Y476297D01*
X7953Y476239D01*
X8047Y476185D01*
X8143Y476135D01*
X8240Y476087D01*
X8339Y476044D01*
X8440Y476003D01*
X8542Y475967D01*
X8645Y475934D01*
X8750Y475905D01*
X8855Y475880D01*
X8961Y475859D01*
X9068Y475841D01*
X9176Y475828D01*
X9284Y475818D01*
X9392Y475812D01*
X9500Y475810D01*
X48850Y481810D02*
X59850Y481810D01*
X59850Y475810D02*
X48850Y475810D01*
X48742Y475812D01*
X48634Y475818D01*
X48526Y475828D01*
X48418Y475841D01*
X48311Y475859D01*
X48205Y475880D01*
X48100Y475905D01*
X47995Y475934D01*
X47892Y475967D01*
X47790Y476003D01*
X47689Y476044D01*
X47590Y476087D01*
X47493Y476135D01*
X47397Y476185D01*
X47303Y476239D01*
X47212Y476297D01*
X47122Y476358D01*
X47034Y476422D01*
X46949Y476489D01*
X46867Y476559D01*
X46787Y476632D01*
X46710Y476708D01*
X46635Y476787D01*
X46564Y476868D01*
X46495Y476952D01*
X46429Y477038D01*
X46367Y477126D01*
X46308Y477217D01*
X46252Y477310D01*
X46199Y477405D01*
X46150Y477501D01*
X46105Y477600D01*
X46063Y477700D01*
X46025Y477801D01*
X45990Y477904D01*
X45959Y478007D01*
X45932Y478112D01*
X45909Y478218D01*
X45890Y478325D01*
X45874Y478432D01*
X45862Y478540D01*
X45854Y478648D01*
X45850Y478756D01*
X45850Y478864D01*
X45854Y478972D01*
X45862Y479080D01*
X45874Y479188D01*
X45890Y479295D01*
X45909Y479402D01*
X45932Y479508D01*
X45959Y479613D01*
X45990Y479716D01*
X46025Y479819D01*
X46063Y479920D01*
X46105Y480020D01*
X46150Y480119D01*
X46199Y480215D01*
X46252Y480310D01*
X46308Y480403D01*
X46367Y480494D01*
X46429Y480582D01*
X46495Y480668D01*
X46564Y480752D01*
X46635Y480833D01*
X46710Y480912D01*
X46787Y480988D01*
X46867Y481061D01*
X46949Y481131D01*
X47034Y481198D01*
X47122Y481262D01*
X47212Y481323D01*
X47303Y481381D01*
X47397Y481435D01*
X47493Y481485D01*
X47590Y481533D01*
X47689Y481576D01*
X47790Y481617D01*
X47892Y481653D01*
X47995Y481686D01*
X48100Y481715D01*
X48205Y481740D01*
X48311Y481761D01*
X48418Y481779D01*
X48526Y481792D01*
X48634Y481802D01*
X48742Y481808D01*
X48850Y481810D01*
X59850Y481810D02*
X59958Y481808D01*
X60066Y481802D01*
X60174Y481792D01*
X60282Y481779D01*
X60389Y481761D01*
X60495Y481740D01*
X60600Y481715D01*
X60705Y481686D01*
X60808Y481653D01*
X60910Y481617D01*
X61011Y481576D01*
X61110Y481533D01*
X61207Y481485D01*
X61303Y481435D01*
X61397Y481381D01*
X61488Y481323D01*
X61578Y481262D01*
X61666Y481198D01*
X61751Y481131D01*
X61833Y481061D01*
X61913Y480988D01*
X61990Y480912D01*
X62065Y480833D01*
X62136Y480752D01*
X62205Y480668D01*
X62271Y480582D01*
X62333Y480494D01*
X62392Y480403D01*
X62448Y480310D01*
X62501Y480215D01*
X62550Y480119D01*
X62595Y480020D01*
X62637Y479920D01*
X62675Y479819D01*
X62710Y479716D01*
X62741Y479613D01*
X62768Y479508D01*
X62791Y479402D01*
X62810Y479295D01*
X62826Y479188D01*
X62838Y479080D01*
X62846Y478972D01*
X62850Y478864D01*
X62850Y478756D01*
X62846Y478648D01*
X62838Y478540D01*
X62826Y478432D01*
X62810Y478325D01*
X62791Y478218D01*
X62768Y478112D01*
X62741Y478007D01*
X62710Y477904D01*
X62675Y477801D01*
X62637Y477700D01*
X62595Y477600D01*
X62550Y477501D01*
X62501Y477405D01*
X62448Y477310D01*
X62392Y477217D01*
X62333Y477126D01*
X62271Y477038D01*
X62205Y476952D01*
X62136Y476868D01*
X62065Y476787D01*
X61990Y476708D01*
X61913Y476632D01*
X61833Y476559D01*
X61751Y476489D01*
X61666Y476422D01*
X61578Y476358D01*
X61488Y476297D01*
X61397Y476239D01*
X61303Y476185D01*
X61207Y476135D01*
X61110Y476087D01*
X61011Y476044D01*
X60910Y476003D01*
X60808Y475967D01*
X60705Y475934D01*
X60600Y475905D01*
X60495Y475880D01*
X60389Y475859D01*
X60282Y475841D01*
X60174Y475828D01*
X60066Y475818D01*
X59958Y475812D01*
X59850Y475810D01*
X15700Y395410D02*
X9500Y395410D01*
X9500Y389410D02*
X15700Y389410D01*
X15808Y389412D01*
X15916Y389418D01*
X16024Y389428D01*
X16132Y389441D01*
X16239Y389459D01*
X16345Y389480D01*
X16450Y389505D01*
X16555Y389534D01*
X16658Y389567D01*
X16760Y389603D01*
X16861Y389644D01*
X16960Y389687D01*
X17057Y389735D01*
X17153Y389785D01*
X17247Y389839D01*
X17338Y389897D01*
X17428Y389958D01*
X17516Y390022D01*
X17601Y390089D01*
X17683Y390159D01*
X17763Y390232D01*
X17840Y390308D01*
X17915Y390387D01*
X17986Y390468D01*
X18055Y390552D01*
X18121Y390638D01*
X18183Y390726D01*
X18242Y390817D01*
X18298Y390910D01*
X18351Y391005D01*
X18400Y391101D01*
X18445Y391200D01*
X18487Y391300D01*
X18525Y391401D01*
X18560Y391504D01*
X18591Y391607D01*
X18618Y391712D01*
X18641Y391818D01*
X18660Y391925D01*
X18676Y392032D01*
X18688Y392140D01*
X18696Y392248D01*
X18700Y392356D01*
X18700Y392464D01*
X18696Y392572D01*
X18688Y392680D01*
X18676Y392788D01*
X18660Y392895D01*
X18641Y393002D01*
X18618Y393108D01*
X18591Y393213D01*
X18560Y393316D01*
X18525Y393419D01*
X18487Y393520D01*
X18445Y393620D01*
X18400Y393719D01*
X18351Y393815D01*
X18298Y393910D01*
X18242Y394003D01*
X18183Y394094D01*
X18121Y394182D01*
X18055Y394268D01*
X17986Y394352D01*
X17915Y394433D01*
X17840Y394512D01*
X17763Y394588D01*
X17683Y394661D01*
X17601Y394731D01*
X17516Y394798D01*
X17428Y394862D01*
X17338Y394923D01*
X17247Y394981D01*
X17153Y395035D01*
X17057Y395085D01*
X16960Y395133D01*
X16861Y395176D01*
X16760Y395217D01*
X16658Y395253D01*
X16555Y395286D01*
X16450Y395315D01*
X16345Y395340D01*
X16239Y395361D01*
X16132Y395379D01*
X16024Y395392D01*
X15916Y395402D01*
X15808Y395408D01*
X15700Y395410D01*
X9500Y395410D02*
X9392Y395408D01*
X9284Y395402D01*
X9176Y395392D01*
X9068Y395379D01*
X8961Y395361D01*
X8855Y395340D01*
X8750Y395315D01*
X8645Y395286D01*
X8542Y395253D01*
X8440Y395217D01*
X8339Y395176D01*
X8240Y395133D01*
X8143Y395085D01*
X8047Y395035D01*
X7953Y394981D01*
X7862Y394923D01*
X7772Y394862D01*
X7684Y394798D01*
X7599Y394731D01*
X7517Y394661D01*
X7437Y394588D01*
X7360Y394512D01*
X7285Y394433D01*
X7214Y394352D01*
X7145Y394268D01*
X7079Y394182D01*
X7017Y394094D01*
X6958Y394003D01*
X6902Y393910D01*
X6849Y393815D01*
X6800Y393719D01*
X6755Y393620D01*
X6713Y393520D01*
X6675Y393419D01*
X6640Y393316D01*
X6609Y393213D01*
X6582Y393108D01*
X6559Y393002D01*
X6540Y392895D01*
X6524Y392788D01*
X6512Y392680D01*
X6504Y392572D01*
X6500Y392464D01*
X6500Y392356D01*
X6504Y392248D01*
X6512Y392140D01*
X6524Y392032D01*
X6540Y391925D01*
X6559Y391818D01*
X6582Y391712D01*
X6609Y391607D01*
X6640Y391504D01*
X6675Y391401D01*
X6713Y391300D01*
X6755Y391200D01*
X6800Y391101D01*
X6849Y391005D01*
X6902Y390910D01*
X6958Y390817D01*
X7017Y390726D01*
X7079Y390638D01*
X7145Y390552D01*
X7214Y390468D01*
X7285Y390387D01*
X7360Y390308D01*
X7437Y390232D01*
X7517Y390159D01*
X7599Y390089D01*
X7684Y390022D01*
X7772Y389958D01*
X7862Y389897D01*
X7953Y389839D01*
X8047Y389785D01*
X8143Y389735D01*
X8240Y389687D01*
X8339Y389644D01*
X8440Y389603D01*
X8542Y389567D01*
X8645Y389534D01*
X8750Y389505D01*
X8855Y389480D01*
X8961Y389459D01*
X9068Y389441D01*
X9176Y389428D01*
X9284Y389418D01*
X9392Y389412D01*
X9500Y389410D01*
X48850Y395410D02*
X59850Y395410D01*
X59850Y389410D02*
X48850Y389410D01*
X48742Y389412D01*
X48634Y389418D01*
X48526Y389428D01*
X48418Y389441D01*
X48311Y389459D01*
X48205Y389480D01*
X48100Y389505D01*
X47995Y389534D01*
X47892Y389567D01*
X47790Y389603D01*
X47689Y389644D01*
X47590Y389687D01*
X47493Y389735D01*
X47397Y389785D01*
X47303Y389839D01*
X47212Y389897D01*
X47122Y389958D01*
X47034Y390022D01*
X46949Y390089D01*
X46867Y390159D01*
X46787Y390232D01*
X46710Y390308D01*
X46635Y390387D01*
X46564Y390468D01*
X46495Y390552D01*
X46429Y390638D01*
X46367Y390726D01*
X46308Y390817D01*
X46252Y390910D01*
X46199Y391005D01*
X46150Y391101D01*
X46105Y391200D01*
X46063Y391300D01*
X46025Y391401D01*
X45990Y391504D01*
X45959Y391607D01*
X45932Y391712D01*
X45909Y391818D01*
X45890Y391925D01*
X45874Y392032D01*
X45862Y392140D01*
X45854Y392248D01*
X45850Y392356D01*
X45850Y392464D01*
X45854Y392572D01*
X45862Y392680D01*
X45874Y392788D01*
X45890Y392895D01*
X45909Y393002D01*
X45932Y393108D01*
X45959Y393213D01*
X45990Y393316D01*
X46025Y393419D01*
X46063Y393520D01*
X46105Y393620D01*
X46150Y393719D01*
X46199Y393815D01*
X46252Y393910D01*
X46308Y394003D01*
X46367Y394094D01*
X46429Y394182D01*
X46495Y394268D01*
X46564Y394352D01*
X46635Y394433D01*
X46710Y394512D01*
X46787Y394588D01*
X46867Y394661D01*
X46949Y394731D01*
X47034Y394798D01*
X47122Y394862D01*
X47212Y394923D01*
X47303Y394981D01*
X47397Y395035D01*
X47493Y395085D01*
X47590Y395133D01*
X47689Y395176D01*
X47790Y395217D01*
X47892Y395253D01*
X47995Y395286D01*
X48100Y395315D01*
X48205Y395340D01*
X48311Y395361D01*
X48418Y395379D01*
X48526Y395392D01*
X48634Y395402D01*
X48742Y395408D01*
X48850Y395410D01*
X59850Y395410D02*
X59958Y395408D01*
X60066Y395402D01*
X60174Y395392D01*
X60282Y395379D01*
X60389Y395361D01*
X60495Y395340D01*
X60600Y395315D01*
X60705Y395286D01*
X60808Y395253D01*
X60910Y395217D01*
X61011Y395176D01*
X61110Y395133D01*
X61207Y395085D01*
X61303Y395035D01*
X61397Y394981D01*
X61488Y394923D01*
X61578Y394862D01*
X61666Y394798D01*
X61751Y394731D01*
X61833Y394661D01*
X61913Y394588D01*
X61990Y394512D01*
X62065Y394433D01*
X62136Y394352D01*
X62205Y394268D01*
X62271Y394182D01*
X62333Y394094D01*
X62392Y394003D01*
X62448Y393910D01*
X62501Y393815D01*
X62550Y393719D01*
X62595Y393620D01*
X62637Y393520D01*
X62675Y393419D01*
X62710Y393316D01*
X62741Y393213D01*
X62768Y393108D01*
X62791Y393002D01*
X62810Y392895D01*
X62826Y392788D01*
X62838Y392680D01*
X62846Y392572D01*
X62850Y392464D01*
X62850Y392356D01*
X62846Y392248D01*
X62838Y392140D01*
X62826Y392032D01*
X62810Y391925D01*
X62791Y391818D01*
X62768Y391712D01*
X62741Y391607D01*
X62710Y391504D01*
X62675Y391401D01*
X62637Y391300D01*
X62595Y391200D01*
X62550Y391101D01*
X62501Y391005D01*
X62448Y390910D01*
X62392Y390817D01*
X62333Y390726D01*
X62271Y390638D01*
X62205Y390552D01*
X62136Y390468D01*
X62065Y390387D01*
X61990Y390308D01*
X61913Y390232D01*
X61833Y390159D01*
X61751Y390089D01*
X61666Y390022D01*
X61578Y389958D01*
X61488Y389897D01*
X61397Y389839D01*
X61303Y389785D01*
X61207Y389735D01*
X61110Y389687D01*
X61011Y389644D01*
X60910Y389603D01*
X60808Y389567D01*
X60705Y389534D01*
X60600Y389505D01*
X60495Y389480D01*
X60389Y389459D01*
X60282Y389441D01*
X60174Y389428D01*
X60066Y389418D01*
X59958Y389412D01*
X59850Y389410D01*
D12*
X91420Y524860D02*
X91422Y525001D01*
X91428Y525142D01*
X91438Y525282D01*
X91452Y525422D01*
X91470Y525562D01*
X91491Y525701D01*
X91517Y525840D01*
X91546Y525978D01*
X91580Y526114D01*
X91617Y526250D01*
X91658Y526385D01*
X91703Y526519D01*
X91752Y526651D01*
X91804Y526782D01*
X91860Y526911D01*
X91920Y527038D01*
X91983Y527164D01*
X92049Y527288D01*
X92120Y527411D01*
X92193Y527531D01*
X92270Y527649D01*
X92350Y527765D01*
X92434Y527878D01*
X92520Y527989D01*
X92610Y528098D01*
X92703Y528204D01*
X92798Y528307D01*
X92897Y528408D01*
X92998Y528506D01*
X93102Y528601D01*
X93209Y528693D01*
X93318Y528782D01*
X93430Y528867D01*
X93544Y528950D01*
X93660Y529030D01*
X93779Y529106D01*
X93900Y529178D01*
X94022Y529248D01*
X94147Y529313D01*
X94273Y529376D01*
X94401Y529434D01*
X94531Y529489D01*
X94662Y529541D01*
X94795Y529588D01*
X94929Y529632D01*
X95064Y529673D01*
X95200Y529709D01*
X95337Y529741D01*
X95475Y529770D01*
X95613Y529795D01*
X95753Y529815D01*
X95893Y529832D01*
X96033Y529845D01*
X96174Y529854D01*
X96314Y529859D01*
X96455Y529860D01*
X96596Y529857D01*
X96737Y529850D01*
X96877Y529839D01*
X97017Y529824D01*
X97157Y529805D01*
X97296Y529783D01*
X97434Y529756D01*
X97572Y529726D01*
X97708Y529691D01*
X97844Y529653D01*
X97978Y529611D01*
X98112Y529565D01*
X98244Y529516D01*
X98374Y529462D01*
X98503Y529405D01*
X98630Y529345D01*
X98756Y529281D01*
X98879Y529213D01*
X99001Y529142D01*
X99121Y529068D01*
X99238Y528990D01*
X99353Y528909D01*
X99466Y528825D01*
X99577Y528738D01*
X99685Y528647D01*
X99790Y528554D01*
X99893Y528457D01*
X99993Y528358D01*
X100090Y528256D01*
X100184Y528151D01*
X100275Y528044D01*
X100363Y527934D01*
X100448Y527822D01*
X100530Y527707D01*
X100609Y527590D01*
X100684Y527471D01*
X100756Y527350D01*
X100824Y527227D01*
X100889Y527102D01*
X100951Y526975D01*
X101008Y526846D01*
X101063Y526716D01*
X101113Y526585D01*
X101160Y526452D01*
X101203Y526318D01*
X101242Y526182D01*
X101277Y526046D01*
X101309Y525909D01*
X101336Y525771D01*
X101360Y525632D01*
X101380Y525492D01*
X101396Y525352D01*
X101408Y525212D01*
X101416Y525071D01*
X101420Y524930D01*
X101420Y524790D01*
X101416Y524649D01*
X101408Y524508D01*
X101396Y524368D01*
X101380Y524228D01*
X101360Y524088D01*
X101336Y523949D01*
X101309Y523811D01*
X101277Y523674D01*
X101242Y523538D01*
X101203Y523402D01*
X101160Y523268D01*
X101113Y523135D01*
X101063Y523004D01*
X101008Y522874D01*
X100951Y522745D01*
X100889Y522618D01*
X100824Y522493D01*
X100756Y522370D01*
X100684Y522249D01*
X100609Y522130D01*
X100530Y522013D01*
X100448Y521898D01*
X100363Y521786D01*
X100275Y521676D01*
X100184Y521569D01*
X100090Y521464D01*
X99993Y521362D01*
X99893Y521263D01*
X99790Y521166D01*
X99685Y521073D01*
X99577Y520982D01*
X99466Y520895D01*
X99353Y520811D01*
X99238Y520730D01*
X99121Y520652D01*
X99001Y520578D01*
X98879Y520507D01*
X98756Y520439D01*
X98630Y520375D01*
X98503Y520315D01*
X98374Y520258D01*
X98244Y520204D01*
X98112Y520155D01*
X97978Y520109D01*
X97844Y520067D01*
X97708Y520029D01*
X97572Y519994D01*
X97434Y519964D01*
X97296Y519937D01*
X97157Y519915D01*
X97017Y519896D01*
X96877Y519881D01*
X96737Y519870D01*
X96596Y519863D01*
X96455Y519860D01*
X96314Y519861D01*
X96174Y519866D01*
X96033Y519875D01*
X95893Y519888D01*
X95753Y519905D01*
X95613Y519925D01*
X95475Y519950D01*
X95337Y519979D01*
X95200Y520011D01*
X95064Y520047D01*
X94929Y520088D01*
X94795Y520132D01*
X94662Y520179D01*
X94531Y520231D01*
X94401Y520286D01*
X94273Y520344D01*
X94147Y520407D01*
X94022Y520472D01*
X93900Y520542D01*
X93779Y520614D01*
X93660Y520690D01*
X93544Y520770D01*
X93430Y520853D01*
X93318Y520938D01*
X93209Y521027D01*
X93102Y521119D01*
X92998Y521214D01*
X92897Y521312D01*
X92798Y521413D01*
X92703Y521516D01*
X92610Y521622D01*
X92520Y521731D01*
X92434Y521842D01*
X92350Y521955D01*
X92270Y522071D01*
X92193Y522189D01*
X92120Y522309D01*
X92049Y522432D01*
X91983Y522556D01*
X91920Y522682D01*
X91860Y522809D01*
X91804Y522938D01*
X91752Y523069D01*
X91703Y523201D01*
X91658Y523335D01*
X91617Y523470D01*
X91580Y523606D01*
X91546Y523742D01*
X91517Y523880D01*
X91491Y524019D01*
X91470Y524158D01*
X91452Y524298D01*
X91438Y524438D01*
X91428Y524578D01*
X91422Y524719D01*
X91420Y524860D01*
X548620Y524860D02*
X548622Y525001D01*
X548628Y525142D01*
X548638Y525282D01*
X548652Y525422D01*
X548670Y525562D01*
X548691Y525701D01*
X548717Y525840D01*
X548746Y525978D01*
X548780Y526114D01*
X548817Y526250D01*
X548858Y526385D01*
X548903Y526519D01*
X548952Y526651D01*
X549004Y526782D01*
X549060Y526911D01*
X549120Y527038D01*
X549183Y527164D01*
X549249Y527288D01*
X549320Y527411D01*
X549393Y527531D01*
X549470Y527649D01*
X549550Y527765D01*
X549634Y527878D01*
X549720Y527989D01*
X549810Y528098D01*
X549903Y528204D01*
X549998Y528307D01*
X550097Y528408D01*
X550198Y528506D01*
X550302Y528601D01*
X550409Y528693D01*
X550518Y528782D01*
X550630Y528867D01*
X550744Y528950D01*
X550860Y529030D01*
X550979Y529106D01*
X551100Y529178D01*
X551222Y529248D01*
X551347Y529313D01*
X551473Y529376D01*
X551601Y529434D01*
X551731Y529489D01*
X551862Y529541D01*
X551995Y529588D01*
X552129Y529632D01*
X552264Y529673D01*
X552400Y529709D01*
X552537Y529741D01*
X552675Y529770D01*
X552813Y529795D01*
X552953Y529815D01*
X553093Y529832D01*
X553233Y529845D01*
X553374Y529854D01*
X553514Y529859D01*
X553655Y529860D01*
X553796Y529857D01*
X553937Y529850D01*
X554077Y529839D01*
X554217Y529824D01*
X554357Y529805D01*
X554496Y529783D01*
X554634Y529756D01*
X554772Y529726D01*
X554908Y529691D01*
X555044Y529653D01*
X555178Y529611D01*
X555312Y529565D01*
X555444Y529516D01*
X555574Y529462D01*
X555703Y529405D01*
X555830Y529345D01*
X555956Y529281D01*
X556079Y529213D01*
X556201Y529142D01*
X556321Y529068D01*
X556438Y528990D01*
X556553Y528909D01*
X556666Y528825D01*
X556777Y528738D01*
X556885Y528647D01*
X556990Y528554D01*
X557093Y528457D01*
X557193Y528358D01*
X557290Y528256D01*
X557384Y528151D01*
X557475Y528044D01*
X557563Y527934D01*
X557648Y527822D01*
X557730Y527707D01*
X557809Y527590D01*
X557884Y527471D01*
X557956Y527350D01*
X558024Y527227D01*
X558089Y527102D01*
X558151Y526975D01*
X558208Y526846D01*
X558263Y526716D01*
X558313Y526585D01*
X558360Y526452D01*
X558403Y526318D01*
X558442Y526182D01*
X558477Y526046D01*
X558509Y525909D01*
X558536Y525771D01*
X558560Y525632D01*
X558580Y525492D01*
X558596Y525352D01*
X558608Y525212D01*
X558616Y525071D01*
X558620Y524930D01*
X558620Y524790D01*
X558616Y524649D01*
X558608Y524508D01*
X558596Y524368D01*
X558580Y524228D01*
X558560Y524088D01*
X558536Y523949D01*
X558509Y523811D01*
X558477Y523674D01*
X558442Y523538D01*
X558403Y523402D01*
X558360Y523268D01*
X558313Y523135D01*
X558263Y523004D01*
X558208Y522874D01*
X558151Y522745D01*
X558089Y522618D01*
X558024Y522493D01*
X557956Y522370D01*
X557884Y522249D01*
X557809Y522130D01*
X557730Y522013D01*
X557648Y521898D01*
X557563Y521786D01*
X557475Y521676D01*
X557384Y521569D01*
X557290Y521464D01*
X557193Y521362D01*
X557093Y521263D01*
X556990Y521166D01*
X556885Y521073D01*
X556777Y520982D01*
X556666Y520895D01*
X556553Y520811D01*
X556438Y520730D01*
X556321Y520652D01*
X556201Y520578D01*
X556079Y520507D01*
X555956Y520439D01*
X555830Y520375D01*
X555703Y520315D01*
X555574Y520258D01*
X555444Y520204D01*
X555312Y520155D01*
X555178Y520109D01*
X555044Y520067D01*
X554908Y520029D01*
X554772Y519994D01*
X554634Y519964D01*
X554496Y519937D01*
X554357Y519915D01*
X554217Y519896D01*
X554077Y519881D01*
X553937Y519870D01*
X553796Y519863D01*
X553655Y519860D01*
X553514Y519861D01*
X553374Y519866D01*
X553233Y519875D01*
X553093Y519888D01*
X552953Y519905D01*
X552813Y519925D01*
X552675Y519950D01*
X552537Y519979D01*
X552400Y520011D01*
X552264Y520047D01*
X552129Y520088D01*
X551995Y520132D01*
X551862Y520179D01*
X551731Y520231D01*
X551601Y520286D01*
X551473Y520344D01*
X551347Y520407D01*
X551222Y520472D01*
X551100Y520542D01*
X550979Y520614D01*
X550860Y520690D01*
X550744Y520770D01*
X550630Y520853D01*
X550518Y520938D01*
X550409Y521027D01*
X550302Y521119D01*
X550198Y521214D01*
X550097Y521312D01*
X549998Y521413D01*
X549903Y521516D01*
X549810Y521622D01*
X549720Y521731D01*
X549634Y521842D01*
X549550Y521955D01*
X549470Y522071D01*
X549393Y522189D01*
X549320Y522309D01*
X549249Y522432D01*
X549183Y522556D01*
X549120Y522682D01*
X549060Y522809D01*
X549004Y522938D01*
X548952Y523069D01*
X548903Y523201D01*
X548858Y523335D01*
X548817Y523470D01*
X548780Y523606D01*
X548746Y523742D01*
X548717Y523880D01*
X548691Y524019D01*
X548670Y524158D01*
X548652Y524298D01*
X548638Y524438D01*
X548628Y524578D01*
X548622Y524719D01*
X548620Y524860D01*
X19760Y35000D02*
X19765Y35374D01*
X19778Y35748D01*
X19801Y36121D01*
X19833Y36494D01*
X19875Y36866D01*
X19925Y37236D01*
X19984Y37605D01*
X20053Y37973D01*
X20130Y38339D01*
X20217Y38703D01*
X20312Y39065D01*
X20416Y39424D01*
X20529Y39781D01*
X20651Y40134D01*
X20781Y40485D01*
X20920Y40832D01*
X21067Y41176D01*
X21223Y41516D01*
X21387Y41852D01*
X21560Y42184D01*
X21740Y42512D01*
X21928Y42835D01*
X22124Y43153D01*
X22328Y43467D01*
X22540Y43775D01*
X22759Y44078D01*
X22986Y44376D01*
X23219Y44668D01*
X23460Y44954D01*
X23708Y45235D01*
X23962Y45509D01*
X24224Y45776D01*
X24491Y46038D01*
X24765Y46292D01*
X25046Y46540D01*
X25332Y46781D01*
X25624Y47014D01*
X25922Y47241D01*
X26225Y47460D01*
X26533Y47672D01*
X26847Y47876D01*
X27165Y48072D01*
X27488Y48260D01*
X27816Y48440D01*
X28148Y48613D01*
X28484Y48777D01*
X28824Y48933D01*
X29168Y49080D01*
X29515Y49219D01*
X29866Y49349D01*
X30219Y49471D01*
X30576Y49584D01*
X30935Y49688D01*
X31297Y49783D01*
X31661Y49870D01*
X32027Y49947D01*
X32395Y50016D01*
X32764Y50075D01*
X33134Y50125D01*
X33506Y50167D01*
X33879Y50199D01*
X34252Y50222D01*
X34626Y50235D01*
X35000Y50240D01*
X35374Y50235D01*
X35748Y50222D01*
X36121Y50199D01*
X36494Y50167D01*
X36866Y50125D01*
X37236Y50075D01*
X37605Y50016D01*
X37973Y49947D01*
X38339Y49870D01*
X38703Y49783D01*
X39065Y49688D01*
X39424Y49584D01*
X39781Y49471D01*
X40134Y49349D01*
X40485Y49219D01*
X40832Y49080D01*
X41176Y48933D01*
X41516Y48777D01*
X41852Y48613D01*
X42184Y48440D01*
X42512Y48260D01*
X42835Y48072D01*
X43153Y47876D01*
X43467Y47672D01*
X43775Y47460D01*
X44078Y47241D01*
X44376Y47014D01*
X44668Y46781D01*
X44954Y46540D01*
X45235Y46292D01*
X45509Y46038D01*
X45776Y45776D01*
X46038Y45509D01*
X46292Y45235D01*
X46540Y44954D01*
X46781Y44668D01*
X47014Y44376D01*
X47241Y44078D01*
X47460Y43775D01*
X47672Y43467D01*
X47876Y43153D01*
X48072Y42835D01*
X48260Y42512D01*
X48440Y42184D01*
X48613Y41852D01*
X48777Y41516D01*
X48933Y41176D01*
X49080Y40832D01*
X49219Y40485D01*
X49349Y40134D01*
X49471Y39781D01*
X49584Y39424D01*
X49688Y39065D01*
X49783Y38703D01*
X49870Y38339D01*
X49947Y37973D01*
X50016Y37605D01*
X50075Y37236D01*
X50125Y36866D01*
X50167Y36494D01*
X50199Y36121D01*
X50222Y35748D01*
X50235Y35374D01*
X50240Y35000D01*
X50235Y34626D01*
X50222Y34252D01*
X50199Y33879D01*
X50167Y33506D01*
X50125Y33134D01*
X50075Y32764D01*
X50016Y32395D01*
X49947Y32027D01*
X49870Y31661D01*
X49783Y31297D01*
X49688Y30935D01*
X49584Y30576D01*
X49471Y30219D01*
X49349Y29866D01*
X49219Y29515D01*
X49080Y29168D01*
X48933Y28824D01*
X48777Y28484D01*
X48613Y28148D01*
X48440Y27816D01*
X48260Y27488D01*
X48072Y27165D01*
X47876Y26847D01*
X47672Y26533D01*
X47460Y26225D01*
X47241Y25922D01*
X47014Y25624D01*
X46781Y25332D01*
X46540Y25046D01*
X46292Y24765D01*
X46038Y24491D01*
X45776Y24224D01*
X45509Y23962D01*
X45235Y23708D01*
X44954Y23460D01*
X44668Y23219D01*
X44376Y22986D01*
X44078Y22759D01*
X43775Y22540D01*
X43467Y22328D01*
X43153Y22124D01*
X42835Y21928D01*
X42512Y21740D01*
X42184Y21560D01*
X41852Y21387D01*
X41516Y21223D01*
X41176Y21067D01*
X40832Y20920D01*
X40485Y20781D01*
X40134Y20651D01*
X39781Y20529D01*
X39424Y20416D01*
X39065Y20312D01*
X38703Y20217D01*
X38339Y20130D01*
X37973Y20053D01*
X37605Y19984D01*
X37236Y19925D01*
X36866Y19875D01*
X36494Y19833D01*
X36121Y19801D01*
X35748Y19778D01*
X35374Y19765D01*
X35000Y19760D01*
X34626Y19765D01*
X34252Y19778D01*
X33879Y19801D01*
X33506Y19833D01*
X33134Y19875D01*
X32764Y19925D01*
X32395Y19984D01*
X32027Y20053D01*
X31661Y20130D01*
X31297Y20217D01*
X30935Y20312D01*
X30576Y20416D01*
X30219Y20529D01*
X29866Y20651D01*
X29515Y20781D01*
X29168Y20920D01*
X28824Y21067D01*
X28484Y21223D01*
X28148Y21387D01*
X27816Y21560D01*
X27488Y21740D01*
X27165Y21928D01*
X26847Y22124D01*
X26533Y22328D01*
X26225Y22540D01*
X25922Y22759D01*
X25624Y22986D01*
X25332Y23219D01*
X25046Y23460D01*
X24765Y23708D01*
X24491Y23962D01*
X24224Y24224D01*
X23962Y24491D01*
X23708Y24765D01*
X23460Y25046D01*
X23219Y25332D01*
X22986Y25624D01*
X22759Y25922D01*
X22540Y26225D01*
X22328Y26533D01*
X22124Y26847D01*
X21928Y27165D01*
X21740Y27488D01*
X21560Y27816D01*
X21387Y28148D01*
X21223Y28484D01*
X21067Y28824D01*
X20920Y29168D01*
X20781Y29515D01*
X20651Y29866D01*
X20529Y30219D01*
X20416Y30576D01*
X20312Y30935D01*
X20217Y31297D01*
X20130Y31661D01*
X20053Y32027D01*
X19984Y32395D01*
X19925Y32764D01*
X19875Y33134D01*
X19833Y33506D01*
X19801Y33879D01*
X19778Y34252D01*
X19765Y34626D01*
X19760Y35000D01*
X599760Y35000D02*
X599765Y35374D01*
X599778Y35748D01*
X599801Y36121D01*
X599833Y36494D01*
X599875Y36866D01*
X599925Y37236D01*
X599984Y37605D01*
X600053Y37973D01*
X600130Y38339D01*
X600217Y38703D01*
X600312Y39065D01*
X600416Y39424D01*
X600529Y39781D01*
X600651Y40134D01*
X600781Y40485D01*
X600920Y40832D01*
X601067Y41176D01*
X601223Y41516D01*
X601387Y41852D01*
X601560Y42184D01*
X601740Y42512D01*
X601928Y42835D01*
X602124Y43153D01*
X602328Y43467D01*
X602540Y43775D01*
X602759Y44078D01*
X602986Y44376D01*
X603219Y44668D01*
X603460Y44954D01*
X603708Y45235D01*
X603962Y45509D01*
X604224Y45776D01*
X604491Y46038D01*
X604765Y46292D01*
X605046Y46540D01*
X605332Y46781D01*
X605624Y47014D01*
X605922Y47241D01*
X606225Y47460D01*
X606533Y47672D01*
X606847Y47876D01*
X607165Y48072D01*
X607488Y48260D01*
X607816Y48440D01*
X608148Y48613D01*
X608484Y48777D01*
X608824Y48933D01*
X609168Y49080D01*
X609515Y49219D01*
X609866Y49349D01*
X610219Y49471D01*
X610576Y49584D01*
X610935Y49688D01*
X611297Y49783D01*
X611661Y49870D01*
X612027Y49947D01*
X612395Y50016D01*
X612764Y50075D01*
X613134Y50125D01*
X613506Y50167D01*
X613879Y50199D01*
X614252Y50222D01*
X614626Y50235D01*
X615000Y50240D01*
X615374Y50235D01*
X615748Y50222D01*
X616121Y50199D01*
X616494Y50167D01*
X616866Y50125D01*
X617236Y50075D01*
X617605Y50016D01*
X617973Y49947D01*
X618339Y49870D01*
X618703Y49783D01*
X619065Y49688D01*
X619424Y49584D01*
X619781Y49471D01*
X620134Y49349D01*
X620485Y49219D01*
X620832Y49080D01*
X621176Y48933D01*
X621516Y48777D01*
X621852Y48613D01*
X622184Y48440D01*
X622512Y48260D01*
X622835Y48072D01*
X623153Y47876D01*
X623467Y47672D01*
X623775Y47460D01*
X624078Y47241D01*
X624376Y47014D01*
X624668Y46781D01*
X624954Y46540D01*
X625235Y46292D01*
X625509Y46038D01*
X625776Y45776D01*
X626038Y45509D01*
X626292Y45235D01*
X626540Y44954D01*
X626781Y44668D01*
X627014Y44376D01*
X627241Y44078D01*
X627460Y43775D01*
X627672Y43467D01*
X627876Y43153D01*
X628072Y42835D01*
X628260Y42512D01*
X628440Y42184D01*
X628613Y41852D01*
X628777Y41516D01*
X628933Y41176D01*
X629080Y40832D01*
X629219Y40485D01*
X629349Y40134D01*
X629471Y39781D01*
X629584Y39424D01*
X629688Y39065D01*
X629783Y38703D01*
X629870Y38339D01*
X629947Y37973D01*
X630016Y37605D01*
X630075Y37236D01*
X630125Y36866D01*
X630167Y36494D01*
X630199Y36121D01*
X630222Y35748D01*
X630235Y35374D01*
X630240Y35000D01*
X630235Y34626D01*
X630222Y34252D01*
X630199Y33879D01*
X630167Y33506D01*
X630125Y33134D01*
X630075Y32764D01*
X630016Y32395D01*
X629947Y32027D01*
X629870Y31661D01*
X629783Y31297D01*
X629688Y30935D01*
X629584Y30576D01*
X629471Y30219D01*
X629349Y29866D01*
X629219Y29515D01*
X629080Y29168D01*
X628933Y28824D01*
X628777Y28484D01*
X628613Y28148D01*
X628440Y27816D01*
X628260Y27488D01*
X628072Y27165D01*
X627876Y26847D01*
X627672Y26533D01*
X627460Y26225D01*
X627241Y25922D01*
X627014Y25624D01*
X626781Y25332D01*
X626540Y25046D01*
X626292Y24765D01*
X626038Y24491D01*
X625776Y24224D01*
X625509Y23962D01*
X625235Y23708D01*
X624954Y23460D01*
X624668Y23219D01*
X624376Y22986D01*
X624078Y22759D01*
X623775Y22540D01*
X623467Y22328D01*
X623153Y22124D01*
X622835Y21928D01*
X622512Y21740D01*
X622184Y21560D01*
X621852Y21387D01*
X621516Y21223D01*
X621176Y21067D01*
X620832Y20920D01*
X620485Y20781D01*
X620134Y20651D01*
X619781Y20529D01*
X619424Y20416D01*
X619065Y20312D01*
X618703Y20217D01*
X618339Y20130D01*
X617973Y20053D01*
X617605Y19984D01*
X617236Y19925D01*
X616866Y19875D01*
X616494Y19833D01*
X616121Y19801D01*
X615748Y19778D01*
X615374Y19765D01*
X615000Y19760D01*
X614626Y19765D01*
X614252Y19778D01*
X613879Y19801D01*
X613506Y19833D01*
X613134Y19875D01*
X612764Y19925D01*
X612395Y19984D01*
X612027Y20053D01*
X611661Y20130D01*
X611297Y20217D01*
X610935Y20312D01*
X610576Y20416D01*
X610219Y20529D01*
X609866Y20651D01*
X609515Y20781D01*
X609168Y20920D01*
X608824Y21067D01*
X608484Y21223D01*
X608148Y21387D01*
X607816Y21560D01*
X607488Y21740D01*
X607165Y21928D01*
X606847Y22124D01*
X606533Y22328D01*
X606225Y22540D01*
X605922Y22759D01*
X605624Y22986D01*
X605332Y23219D01*
X605046Y23460D01*
X604765Y23708D01*
X604491Y23962D01*
X604224Y24224D01*
X603962Y24491D01*
X603708Y24765D01*
X603460Y25046D01*
X603219Y25332D01*
X602986Y25624D01*
X602759Y25922D01*
X602540Y26225D01*
X602328Y26533D01*
X602124Y26847D01*
X601928Y27165D01*
X601740Y27488D01*
X601560Y27816D01*
X601387Y28148D01*
X601223Y28484D01*
X601067Y28824D01*
X600920Y29168D01*
X600781Y29515D01*
X600651Y29866D01*
X600529Y30219D01*
X600416Y30576D01*
X600312Y30935D01*
X600217Y31297D01*
X600130Y31661D01*
X600053Y32027D01*
X599984Y32395D01*
X599925Y32764D01*
X599875Y33134D01*
X599833Y33506D01*
X599801Y33879D01*
X599778Y34252D01*
X599765Y34626D01*
X599760Y35000D01*
X19760Y525000D02*
X19765Y525374D01*
X19778Y525748D01*
X19801Y526121D01*
X19833Y526494D01*
X19875Y526866D01*
X19925Y527236D01*
X19984Y527605D01*
X20053Y527973D01*
X20130Y528339D01*
X20217Y528703D01*
X20312Y529065D01*
X20416Y529424D01*
X20529Y529781D01*
X20651Y530134D01*
X20781Y530485D01*
X20920Y530832D01*
X21067Y531176D01*
X21223Y531516D01*
X21387Y531852D01*
X21560Y532184D01*
X21740Y532512D01*
X21928Y532835D01*
X22124Y533153D01*
X22328Y533467D01*
X22540Y533775D01*
X22759Y534078D01*
X22986Y534376D01*
X23219Y534668D01*
X23460Y534954D01*
X23708Y535235D01*
X23962Y535509D01*
X24224Y535776D01*
X24491Y536038D01*
X24765Y536292D01*
X25046Y536540D01*
X25332Y536781D01*
X25624Y537014D01*
X25922Y537241D01*
X26225Y537460D01*
X26533Y537672D01*
X26847Y537876D01*
X27165Y538072D01*
X27488Y538260D01*
X27816Y538440D01*
X28148Y538613D01*
X28484Y538777D01*
X28824Y538933D01*
X29168Y539080D01*
X29515Y539219D01*
X29866Y539349D01*
X30219Y539471D01*
X30576Y539584D01*
X30935Y539688D01*
X31297Y539783D01*
X31661Y539870D01*
X32027Y539947D01*
X32395Y540016D01*
X32764Y540075D01*
X33134Y540125D01*
X33506Y540167D01*
X33879Y540199D01*
X34252Y540222D01*
X34626Y540235D01*
X35000Y540240D01*
X35374Y540235D01*
X35748Y540222D01*
X36121Y540199D01*
X36494Y540167D01*
X36866Y540125D01*
X37236Y540075D01*
X37605Y540016D01*
X37973Y539947D01*
X38339Y539870D01*
X38703Y539783D01*
X39065Y539688D01*
X39424Y539584D01*
X39781Y539471D01*
X40134Y539349D01*
X40485Y539219D01*
X40832Y539080D01*
X41176Y538933D01*
X41516Y538777D01*
X41852Y538613D01*
X42184Y538440D01*
X42512Y538260D01*
X42835Y538072D01*
X43153Y537876D01*
X43467Y537672D01*
X43775Y537460D01*
X44078Y537241D01*
X44376Y537014D01*
X44668Y536781D01*
X44954Y536540D01*
X45235Y536292D01*
X45509Y536038D01*
X45776Y535776D01*
X46038Y535509D01*
X46292Y535235D01*
X46540Y534954D01*
X46781Y534668D01*
X47014Y534376D01*
X47241Y534078D01*
X47460Y533775D01*
X47672Y533467D01*
X47876Y533153D01*
X48072Y532835D01*
X48260Y532512D01*
X48440Y532184D01*
X48613Y531852D01*
X48777Y531516D01*
X48933Y531176D01*
X49080Y530832D01*
X49219Y530485D01*
X49349Y530134D01*
X49471Y529781D01*
X49584Y529424D01*
X49688Y529065D01*
X49783Y528703D01*
X49870Y528339D01*
X49947Y527973D01*
X50016Y527605D01*
X50075Y527236D01*
X50125Y526866D01*
X50167Y526494D01*
X50199Y526121D01*
X50222Y525748D01*
X50235Y525374D01*
X50240Y525000D01*
X50235Y524626D01*
X50222Y524252D01*
X50199Y523879D01*
X50167Y523506D01*
X50125Y523134D01*
X50075Y522764D01*
X50016Y522395D01*
X49947Y522027D01*
X49870Y521661D01*
X49783Y521297D01*
X49688Y520935D01*
X49584Y520576D01*
X49471Y520219D01*
X49349Y519866D01*
X49219Y519515D01*
X49080Y519168D01*
X48933Y518824D01*
X48777Y518484D01*
X48613Y518148D01*
X48440Y517816D01*
X48260Y517488D01*
X48072Y517165D01*
X47876Y516847D01*
X47672Y516533D01*
X47460Y516225D01*
X47241Y515922D01*
X47014Y515624D01*
X46781Y515332D01*
X46540Y515046D01*
X46292Y514765D01*
X46038Y514491D01*
X45776Y514224D01*
X45509Y513962D01*
X45235Y513708D01*
X44954Y513460D01*
X44668Y513219D01*
X44376Y512986D01*
X44078Y512759D01*
X43775Y512540D01*
X43467Y512328D01*
X43153Y512124D01*
X42835Y511928D01*
X42512Y511740D01*
X42184Y511560D01*
X41852Y511387D01*
X41516Y511223D01*
X41176Y511067D01*
X40832Y510920D01*
X40485Y510781D01*
X40134Y510651D01*
X39781Y510529D01*
X39424Y510416D01*
X39065Y510312D01*
X38703Y510217D01*
X38339Y510130D01*
X37973Y510053D01*
X37605Y509984D01*
X37236Y509925D01*
X36866Y509875D01*
X36494Y509833D01*
X36121Y509801D01*
X35748Y509778D01*
X35374Y509765D01*
X35000Y509760D01*
X34626Y509765D01*
X34252Y509778D01*
X33879Y509801D01*
X33506Y509833D01*
X33134Y509875D01*
X32764Y509925D01*
X32395Y509984D01*
X32027Y510053D01*
X31661Y510130D01*
X31297Y510217D01*
X30935Y510312D01*
X30576Y510416D01*
X30219Y510529D01*
X29866Y510651D01*
X29515Y510781D01*
X29168Y510920D01*
X28824Y511067D01*
X28484Y511223D01*
X28148Y511387D01*
X27816Y511560D01*
X27488Y511740D01*
X27165Y511928D01*
X26847Y512124D01*
X26533Y512328D01*
X26225Y512540D01*
X25922Y512759D01*
X25624Y512986D01*
X25332Y513219D01*
X25046Y513460D01*
X24765Y513708D01*
X24491Y513962D01*
X24224Y514224D01*
X23962Y514491D01*
X23708Y514765D01*
X23460Y515046D01*
X23219Y515332D01*
X22986Y515624D01*
X22759Y515922D01*
X22540Y516225D01*
X22328Y516533D01*
X22124Y516847D01*
X21928Y517165D01*
X21740Y517488D01*
X21560Y517816D01*
X21387Y518148D01*
X21223Y518484D01*
X21067Y518824D01*
X20920Y519168D01*
X20781Y519515D01*
X20651Y519866D01*
X20529Y520219D01*
X20416Y520576D01*
X20312Y520935D01*
X20217Y521297D01*
X20130Y521661D01*
X20053Y522027D01*
X19984Y522395D01*
X19925Y522764D01*
X19875Y523134D01*
X19833Y523506D01*
X19801Y523879D01*
X19778Y524252D01*
X19765Y524626D01*
X19760Y525000D01*
X599760Y525000D02*
X599765Y525374D01*
X599778Y525748D01*
X599801Y526121D01*
X599833Y526494D01*
X599875Y526866D01*
X599925Y527236D01*
X599984Y527605D01*
X600053Y527973D01*
X600130Y528339D01*
X600217Y528703D01*
X600312Y529065D01*
X600416Y529424D01*
X600529Y529781D01*
X600651Y530134D01*
X600781Y530485D01*
X600920Y530832D01*
X601067Y531176D01*
X601223Y531516D01*
X601387Y531852D01*
X601560Y532184D01*
X601740Y532512D01*
X601928Y532835D01*
X602124Y533153D01*
X602328Y533467D01*
X602540Y533775D01*
X602759Y534078D01*
X602986Y534376D01*
X603219Y534668D01*
X603460Y534954D01*
X603708Y535235D01*
X603962Y535509D01*
X604224Y535776D01*
X604491Y536038D01*
X604765Y536292D01*
X605046Y536540D01*
X605332Y536781D01*
X605624Y537014D01*
X605922Y537241D01*
X606225Y537460D01*
X606533Y537672D01*
X606847Y537876D01*
X607165Y538072D01*
X607488Y538260D01*
X607816Y538440D01*
X608148Y538613D01*
X608484Y538777D01*
X608824Y538933D01*
X609168Y539080D01*
X609515Y539219D01*
X609866Y539349D01*
X610219Y539471D01*
X610576Y539584D01*
X610935Y539688D01*
X611297Y539783D01*
X611661Y539870D01*
X612027Y539947D01*
X612395Y540016D01*
X612764Y540075D01*
X613134Y540125D01*
X613506Y540167D01*
X613879Y540199D01*
X614252Y540222D01*
X614626Y540235D01*
X615000Y540240D01*
X615374Y540235D01*
X615748Y540222D01*
X616121Y540199D01*
X616494Y540167D01*
X616866Y540125D01*
X617236Y540075D01*
X617605Y540016D01*
X617973Y539947D01*
X618339Y539870D01*
X618703Y539783D01*
X619065Y539688D01*
X619424Y539584D01*
X619781Y539471D01*
X620134Y539349D01*
X620485Y539219D01*
X620832Y539080D01*
X621176Y538933D01*
X621516Y538777D01*
X621852Y538613D01*
X622184Y538440D01*
X622512Y538260D01*
X622835Y538072D01*
X623153Y537876D01*
X623467Y537672D01*
X623775Y537460D01*
X624078Y537241D01*
X624376Y537014D01*
X624668Y536781D01*
X624954Y536540D01*
X625235Y536292D01*
X625509Y536038D01*
X625776Y535776D01*
X626038Y535509D01*
X626292Y535235D01*
X626540Y534954D01*
X626781Y534668D01*
X627014Y534376D01*
X627241Y534078D01*
X627460Y533775D01*
X627672Y533467D01*
X627876Y533153D01*
X628072Y532835D01*
X628260Y532512D01*
X628440Y532184D01*
X628613Y531852D01*
X628777Y531516D01*
X628933Y531176D01*
X629080Y530832D01*
X629219Y530485D01*
X629349Y530134D01*
X629471Y529781D01*
X629584Y529424D01*
X629688Y529065D01*
X629783Y528703D01*
X629870Y528339D01*
X629947Y527973D01*
X630016Y527605D01*
X630075Y527236D01*
X630125Y526866D01*
X630167Y526494D01*
X630199Y526121D01*
X630222Y525748D01*
X630235Y525374D01*
X630240Y525000D01*
X630235Y524626D01*
X630222Y524252D01*
X630199Y523879D01*
X630167Y523506D01*
X630125Y523134D01*
X630075Y522764D01*
X630016Y522395D01*
X629947Y522027D01*
X629870Y521661D01*
X629783Y521297D01*
X629688Y520935D01*
X629584Y520576D01*
X629471Y520219D01*
X629349Y519866D01*
X629219Y519515D01*
X629080Y519168D01*
X628933Y518824D01*
X628777Y518484D01*
X628613Y518148D01*
X628440Y517816D01*
X628260Y517488D01*
X628072Y517165D01*
X627876Y516847D01*
X627672Y516533D01*
X627460Y516225D01*
X627241Y515922D01*
X627014Y515624D01*
X626781Y515332D01*
X626540Y515046D01*
X626292Y514765D01*
X626038Y514491D01*
X625776Y514224D01*
X625509Y513962D01*
X625235Y513708D01*
X624954Y513460D01*
X624668Y513219D01*
X624376Y512986D01*
X624078Y512759D01*
X623775Y512540D01*
X623467Y512328D01*
X623153Y512124D01*
X622835Y511928D01*
X622512Y511740D01*
X622184Y511560D01*
X621852Y511387D01*
X621516Y511223D01*
X621176Y511067D01*
X620832Y510920D01*
X620485Y510781D01*
X620134Y510651D01*
X619781Y510529D01*
X619424Y510416D01*
X619065Y510312D01*
X618703Y510217D01*
X618339Y510130D01*
X617973Y510053D01*
X617605Y509984D01*
X617236Y509925D01*
X616866Y509875D01*
X616494Y509833D01*
X616121Y509801D01*
X615748Y509778D01*
X615374Y509765D01*
X615000Y509760D01*
X614626Y509765D01*
X614252Y509778D01*
X613879Y509801D01*
X613506Y509833D01*
X613134Y509875D01*
X612764Y509925D01*
X612395Y509984D01*
X612027Y510053D01*
X611661Y510130D01*
X611297Y510217D01*
X610935Y510312D01*
X610576Y510416D01*
X610219Y510529D01*
X609866Y510651D01*
X609515Y510781D01*
X609168Y510920D01*
X608824Y511067D01*
X608484Y511223D01*
X608148Y511387D01*
X607816Y511560D01*
X607488Y511740D01*
X607165Y511928D01*
X606847Y512124D01*
X606533Y512328D01*
X606225Y512540D01*
X605922Y512759D01*
X605624Y512986D01*
X605332Y513219D01*
X605046Y513460D01*
X604765Y513708D01*
X604491Y513962D01*
X604224Y514224D01*
X603962Y514491D01*
X603708Y514765D01*
X603460Y515046D01*
X603219Y515332D01*
X602986Y515624D01*
X602759Y515922D01*
X602540Y516225D01*
X602328Y516533D01*
X602124Y516847D01*
X601928Y517165D01*
X601740Y517488D01*
X601560Y517816D01*
X601387Y518148D01*
X601223Y518484D01*
X601067Y518824D01*
X600920Y519168D01*
X600781Y519515D01*
X600651Y519866D01*
X600529Y520219D01*
X600416Y520576D01*
X600312Y520935D01*
X600217Y521297D01*
X600130Y521661D01*
X600053Y522027D01*
X599984Y522395D01*
X599925Y522764D01*
X599875Y523134D01*
X599833Y523506D01*
X599801Y523879D01*
X599778Y524252D01*
X599765Y524626D01*
X599760Y525000D01*
D14*
X0Y30000D02*
X114Y27385D01*
X456Y24791D01*
X1022Y22235D01*
X1809Y19739D01*
X2811Y17321D01*
X4019Y15000D01*
X5425Y12793D01*
X7019Y10716D01*
X8787Y8787D01*
X10716Y7019D01*
X12793Y5425D01*
X15000Y4019D01*
X17321Y2811D01*
X19739Y1809D01*
X22235Y1022D01*
X24791Y456D01*
X27385Y114D01*
X30000Y0D01*
X620000Y0D01*
X622615Y114D01*
X625209Y456D01*
X627765Y1022D01*
X630261Y1809D01*
X632679Y2811D01*
X635000Y4019D01*
X637207Y5425D01*
X639284Y7019D01*
X641213Y8787D01*
X642981Y10716D01*
X644575Y12793D01*
X645981Y15000D01*
X647189Y17321D01*
X648191Y19739D01*
X648978Y22235D01*
X649544Y24791D01*
X649886Y27385D01*
X650000Y30000D01*
X650508Y540334D01*
X650394Y542949D01*
X650052Y545543D01*
X649486Y548099D01*
X648699Y550595D01*
X647697Y553013D01*
X646489Y555334D01*
X645083Y557541D01*
X643489Y559618D01*
X641721Y561547D01*
X639792Y563315D01*
X637715Y564909D01*
X635508Y566315D01*
X633187Y567523D01*
X630769Y568525D01*
X628273Y569312D01*
X625717Y569878D01*
X623123Y570220D01*
X620508Y570334D01*
X30508Y570334D01*
X27893Y570220D01*
X25299Y569878D01*
X22743Y569312D01*
X20247Y568525D01*
X17829Y567523D01*
X15508Y566315D01*
X13301Y564909D01*
X11224Y563315D01*
X9295Y561547D01*
X7527Y559618D01*
X5933Y557541D01*
X4527Y555334D01*
X3319Y553013D01*
X2317Y550595D01*
X1530Y548099D01*
X964Y545543D01*
X622Y542949D01*
X508Y540334D01*
X0Y375000D01*
X38Y374128D01*
X152Y373264D01*
X341Y372412D01*
X603Y371580D01*
X937Y370774D01*
X1340Y370000D01*
X1808Y369264D01*
X2340Y368572D01*
X2929Y367929D01*
X3572Y367340D01*
X4264Y366808D01*
X5000Y366340D01*
X5774Y365937D01*
X6580Y365603D01*
X7412Y365341D01*
X8264Y365152D01*
X9128Y365038D01*
X10000Y365000D01*
X40000Y365000D01*
X40872Y364962D01*
X41736Y364848D01*
X42588Y364659D01*
X43420Y364397D01*
X44226Y364063D01*
X45000Y363660D01*
X45736Y363192D01*
X46428Y362660D01*
X47071Y362071D01*
X47660Y361428D01*
X48192Y360736D01*
X48660Y360000D01*
X49063Y359226D01*
X49397Y358420D01*
X49659Y357588D01*
X49848Y356736D01*
X49962Y355872D01*
X50000Y355000D01*
X50000Y205000D01*
X49962Y204128D01*
X49848Y203264D01*
X49659Y202412D01*
X49397Y201580D01*
X49063Y200774D01*
X48660Y200000D01*
X48192Y199264D01*
X47660Y198572D01*
X47071Y197929D01*
X46428Y197340D01*
X45736Y196808D01*
X45000Y196340D01*
X44226Y195937D01*
X43420Y195603D01*
X42588Y195341D01*
X41736Y195152D01*
X40872Y195038D01*
X40000Y195000D01*
X10000Y195000D01*
X9128Y194962D01*
X8264Y194848D01*
X7412Y194659D01*
X6580Y194397D01*
X5774Y194063D01*
X5000Y193660D01*
X4264Y193192D01*
X3572Y192660D01*
X2929Y192071D01*
X2340Y191428D01*
X1808Y190736D01*
X1340Y190000D01*
X937Y189226D01*
X603Y188420D01*
X341Y187588D01*
X152Y186736D01*
X38Y185872D01*
X0Y185000D01*
X0Y30000D01*
X48850Y389410D02*
X59850Y389410D01*
X60111Y389421D01*
X60371Y389456D01*
X60626Y389512D01*
X60876Y389591D01*
X61118Y389691D01*
X61350Y389812D01*
X61571Y389953D01*
X61778Y390112D01*
X61971Y390289D01*
X62148Y390482D01*
X62307Y390689D01*
X62448Y390910D01*
X62569Y391142D01*
X62669Y391384D01*
X62748Y391634D01*
X62804Y391889D01*
X62839Y392149D01*
X62850Y392410D01*
X62839Y392671D01*
X62804Y392931D01*
X62748Y393186D01*
X62669Y393436D01*
X62569Y393678D01*
X62448Y393910D01*
X62307Y394131D01*
X62148Y394338D01*
X61971Y394531D01*
X61778Y394708D01*
X61571Y394867D01*
X61350Y395008D01*
X61118Y395129D01*
X60876Y395229D01*
X60626Y395308D01*
X60371Y395364D01*
X60111Y395399D01*
X59850Y395410D01*
X48850Y395410D01*
X48589Y395399D01*
X48329Y395364D01*
X48074Y395308D01*
X47824Y395229D01*
X47582Y395129D01*
X47350Y395008D01*
X47129Y394867D01*
X46922Y394708D01*
X46729Y394531D01*
X46552Y394338D01*
X46393Y394131D01*
X46252Y393910D01*
X46131Y393678D01*
X46031Y393436D01*
X45952Y393186D01*
X45896Y392931D01*
X45861Y392671D01*
X45850Y392410D01*
X45861Y392149D01*
X45896Y391889D01*
X45952Y391634D01*
X46031Y391384D01*
X46131Y391142D01*
X46252Y390910D01*
X46393Y390689D01*
X46552Y390482D01*
X46729Y390289D01*
X46922Y390112D01*
X47129Y389953D01*
X47350Y389812D01*
X47582Y389691D01*
X47824Y389591D01*
X48074Y389512D01*
X48329Y389456D01*
X48589Y389421D01*
X48850Y389410D01*
X9500Y389410D02*
X15700Y389410D01*
X15961Y389421D01*
X16221Y389456D01*
X16476Y389512D01*
X16726Y389591D01*
X16968Y389691D01*
X17200Y389812D01*
X17421Y389953D01*
X17628Y390112D01*
X17821Y390289D01*
X17998Y390482D01*
X18157Y390689D01*
X18298Y390910D01*
X18419Y391142D01*
X18519Y391384D01*
X18598Y391634D01*
X18654Y391889D01*
X18689Y392149D01*
X18700Y392410D01*
X18689Y392671D01*
X18654Y392931D01*
X18598Y393186D01*
X18519Y393436D01*
X18419Y393678D01*
X18298Y393910D01*
X18157Y394131D01*
X17998Y394338D01*
X17821Y394531D01*
X17628Y394708D01*
X17421Y394867D01*
X17200Y395008D01*
X16968Y395129D01*
X16726Y395229D01*
X16476Y395308D01*
X16221Y395364D01*
X15961Y395399D01*
X15700Y395410D01*
X9500Y395410D01*
X9239Y395399D01*
X8979Y395364D01*
X8724Y395308D01*
X8474Y395229D01*
X8232Y395129D01*
X8000Y395008D01*
X7779Y394867D01*
X7572Y394708D01*
X7379Y394531D01*
X7202Y394338D01*
X7043Y394131D01*
X6902Y393910D01*
X6781Y393678D01*
X6681Y393436D01*
X6602Y393186D01*
X6546Y392931D01*
X6511Y392671D01*
X6500Y392410D01*
X6511Y392149D01*
X6546Y391889D01*
X6602Y391634D01*
X6681Y391384D01*
X6781Y391142D01*
X6902Y390910D01*
X7043Y390689D01*
X7202Y390482D01*
X7379Y390289D01*
X7572Y390112D01*
X7779Y389953D01*
X8000Y389812D01*
X8232Y389691D01*
X8474Y389591D01*
X8724Y389512D01*
X8979Y389456D01*
X9239Y389421D01*
X9500Y389410D01*
X9500Y475810D02*
X15700Y475810D01*
X15961Y475821D01*
X16221Y475856D01*
X16476Y475912D01*
X16726Y475991D01*
X16968Y476091D01*
X17200Y476212D01*
X17421Y476353D01*
X17628Y476512D01*
X17821Y476689D01*
X17998Y476882D01*
X18157Y477089D01*
X18298Y477310D01*
X18419Y477542D01*
X18519Y477784D01*
X18598Y478034D01*
X18654Y478289D01*
X18689Y478549D01*
X18700Y478810D01*
X18689Y479071D01*
X18654Y479331D01*
X18598Y479586D01*
X18519Y479836D01*
X18419Y480078D01*
X18298Y480310D01*
X18157Y480531D01*
X17998Y480738D01*
X17821Y480931D01*
X17628Y481108D01*
X17421Y481267D01*
X17200Y481408D01*
X16968Y481529D01*
X16726Y481629D01*
X16476Y481708D01*
X16221Y481764D01*
X15961Y481799D01*
X15700Y481810D01*
X9500Y481810D01*
X9239Y481799D01*
X8979Y481764D01*
X8724Y481708D01*
X8474Y481629D01*
X8232Y481529D01*
X8000Y481408D01*
X7779Y481267D01*
X7572Y481108D01*
X7379Y480931D01*
X7202Y480738D01*
X7043Y480531D01*
X6902Y480310D01*
X6781Y480078D01*
X6681Y479836D01*
X6602Y479586D01*
X6546Y479331D01*
X6511Y479071D01*
X6500Y478810D01*
X6511Y478549D01*
X6546Y478289D01*
X6602Y478034D01*
X6681Y477784D01*
X6781Y477542D01*
X6902Y477310D01*
X7043Y477089D01*
X7202Y476882D01*
X7379Y476689D01*
X7572Y476512D01*
X7779Y476353D01*
X8000Y476212D01*
X8232Y476091D01*
X8474Y475991D01*
X8724Y475912D01*
X8979Y475856D01*
X9239Y475821D01*
X9500Y475810D01*
X48850Y475810D02*
X59850Y475810D01*
X60111Y475821D01*
X60371Y475856D01*
X60626Y475912D01*
X60876Y475991D01*
X61118Y476091D01*
X61350Y476212D01*
X61571Y476353D01*
X61778Y476512D01*
X61971Y476689D01*
X62148Y476882D01*
X62307Y477089D01*
X62448Y477310D01*
X62569Y477542D01*
X62669Y477784D01*
X62748Y478034D01*
X62804Y478289D01*
X62839Y478549D01*
X62850Y478810D01*
X62839Y479071D01*
X62804Y479331D01*
X62748Y479586D01*
X62669Y479836D01*
X62569Y480078D01*
X62448Y480310D01*
X62307Y480531D01*
X62148Y480738D01*
X61971Y480931D01*
X61778Y481108D01*
X61571Y481267D01*
X61350Y481408D01*
X61118Y481529D01*
X60876Y481629D01*
X60626Y481708D01*
X60371Y481764D01*
X60111Y481799D01*
X59850Y481810D01*
X48850Y481810D01*
X48589Y481799D01*
X48329Y481764D01*
X48074Y481708D01*
X47824Y481629D01*
X47582Y481529D01*
X47350Y481408D01*
X47129Y481267D01*
X46922Y481108D01*
X46729Y480931D01*
X46552Y480738D01*
X46393Y480531D01*
X46252Y480310D01*
X46131Y480078D01*
X46031Y479836D01*
X45952Y479586D01*
X45896Y479331D01*
X45861Y479071D01*
X45850Y478810D01*
X45861Y478549D01*
X45896Y478289D01*
X45952Y478034D01*
X46031Y477784D01*
X46131Y477542D01*
X46252Y477310D01*
X46393Y477089D01*
X46552Y476882D01*
X46729Y476689D01*
X46922Y476512D01*
X47129Y476353D01*
X47350Y476212D01*
X47582Y476091D01*
X47824Y475991D01*
X48074Y475912D01*
X48329Y475856D01*
X48589Y475821D01*
X48850Y475810D01*
X48850Y389410D02*
X59850Y389410D01*
X60111Y389421D01*
X60371Y389456D01*
X60626Y389512D01*
X60876Y389591D01*
X61118Y389691D01*
X61350Y389812D01*
X61571Y389953D01*
X61778Y390112D01*
X61971Y390289D01*
X62148Y390482D01*
X62307Y390689D01*
X62448Y390910D01*
X62569Y391142D01*
X62669Y391384D01*
X62748Y391634D01*
X62804Y391889D01*
X62839Y392149D01*
X62850Y392410D01*
X62839Y392671D01*
X62804Y392931D01*
X62748Y393186D01*
X62669Y393436D01*
X62569Y393678D01*
X62448Y393910D01*
X62307Y394131D01*
X62148Y394338D01*
X61971Y394531D01*
X61778Y394708D01*
X61571Y394867D01*
X61350Y395008D01*
X61118Y395129D01*
X60876Y395229D01*
X60626Y395308D01*
X60371Y395364D01*
X60111Y395399D01*
X59850Y395410D01*
X48850Y395410D01*
X48589Y395399D01*
X48329Y395364D01*
X48074Y395308D01*
X47824Y395229D01*
X47582Y395129D01*
X47350Y395008D01*
X47129Y394867D01*
X46922Y394708D01*
X46729Y394531D01*
X46552Y394338D01*
X46393Y394131D01*
X46252Y393910D01*
X46131Y393678D01*
X46031Y393436D01*
X45952Y393186D01*
X45896Y392931D01*
X45861Y392671D01*
X45850Y392410D01*
X45861Y392149D01*
X45896Y391889D01*
X45952Y391634D01*
X46031Y391384D01*
X46131Y391142D01*
X46252Y390910D01*
X46393Y390689D01*
X46552Y390482D01*
X46729Y390289D01*
X46922Y390112D01*
X47129Y389953D01*
X47350Y389812D01*
X47582Y389691D01*
X47824Y389591D01*
X48074Y389512D01*
X48329Y389456D01*
X48589Y389421D01*
X48850Y389410D01*
X9500Y389410D02*
X15700Y389410D01*
X15961Y389421D01*
X16221Y389456D01*
X16476Y389512D01*
X16726Y389591D01*
X16968Y389691D01*
X17200Y389812D01*
X17421Y389953D01*
X17628Y390112D01*
X17821Y390289D01*
X17998Y390482D01*
X18157Y390689D01*
X18298Y390910D01*
X18419Y391142D01*
X18519Y391384D01*
X18598Y391634D01*
X18654Y391889D01*
X18689Y392149D01*
X18700Y392410D01*
X18689Y392671D01*
X18654Y392931D01*
X18598Y393186D01*
X18519Y393436D01*
X18419Y393678D01*
X18298Y393910D01*
X18157Y394131D01*
X17998Y394338D01*
X17821Y394531D01*
X17628Y394708D01*
X17421Y394867D01*
X17200Y395008D01*
X16968Y395129D01*
X16726Y395229D01*
X16476Y395308D01*
X16221Y395364D01*
X15961Y395399D01*
X15700Y395410D01*
X9500Y395410D01*
X9239Y395399D01*
X8979Y395364D01*
X8724Y395308D01*
X8474Y395229D01*
X8232Y395129D01*
X8000Y395008D01*
X7779Y394867D01*
X7572Y394708D01*
X7379Y394531D01*
X7202Y394338D01*
X7043Y394131D01*
X6902Y393910D01*
X6781Y393678D01*
X6681Y393436D01*
X6602Y393186D01*
X6546Y392931D01*
X6511Y392671D01*
X6500Y392410D01*
X6511Y392149D01*
X6546Y391889D01*
X6602Y391634D01*
X6681Y391384D01*
X6781Y391142D01*
X6902Y390910D01*
X7043Y390689D01*
X7202Y390482D01*
X7379Y390289D01*
X7572Y390112D01*
X7779Y389953D01*
X8000Y389812D01*
X8232Y389691D01*
X8474Y389591D01*
X8724Y389512D01*
X8979Y389456D01*
X9239Y389421D01*
X9500Y389410D01*
X48850Y475810D02*
X59850Y475810D01*
X60111Y475821D01*
X60371Y475856D01*
X60626Y475912D01*
X60876Y475991D01*
X61118Y476091D01*
X61350Y476212D01*
X61571Y476353D01*
X61778Y476512D01*
X61971Y476689D01*
X62148Y476882D01*
X62307Y477089D01*
X62448Y477310D01*
X62569Y477542D01*
X62669Y477784D01*
X62748Y478034D01*
X62804Y478289D01*
X62839Y478549D01*
X62850Y478810D01*
X62839Y479071D01*
X62804Y479331D01*
X62748Y479586D01*
X62669Y479836D01*
X62569Y480078D01*
X62448Y480310D01*
X62307Y480531D01*
X62148Y480738D01*
X61971Y480931D01*
X61778Y481108D01*
X61571Y481267D01*
X61350Y481408D01*
X61118Y481529D01*
X60876Y481629D01*
X60626Y481708D01*
X60371Y481764D01*
X60111Y481799D01*
X59850Y481810D01*
X48850Y481810D01*
X48589Y481799D01*
X48329Y481764D01*
X48074Y481708D01*
X47824Y481629D01*
X47582Y481529D01*
X47350Y481408D01*
X47129Y481267D01*
X46922Y481108D01*
X46729Y480931D01*
X46552Y480738D01*
X46393Y480531D01*
X46252Y480310D01*
X46131Y480078D01*
X46031Y479836D01*
X45952Y479586D01*
X45896Y479331D01*
X45861Y479071D01*
X45850Y478810D01*
X45861Y478549D01*
X45896Y478289D01*
X45952Y478034D01*
X46031Y477784D01*
X46131Y477542D01*
X46252Y477310D01*
X46393Y477089D01*
X46552Y476882D01*
X46729Y476689D01*
X46922Y476512D01*
X47129Y476353D01*
X47350Y476212D01*
X47582Y476091D01*
X47824Y475991D01*
X48074Y475912D01*
X48329Y475856D01*
X48589Y475821D01*
X48850Y475810D01*
X9500Y475810D02*
X15700Y475810D01*
X15961Y475821D01*
X16221Y475856D01*
X16476Y475912D01*
X16726Y475991D01*
X16968Y476091D01*
X17200Y476212D01*
X17421Y476353D01*
X17628Y476512D01*
X17821Y476689D01*
X17998Y476882D01*
X18157Y477089D01*
X18298Y477310D01*
X18419Y477542D01*
X18519Y477784D01*
X18598Y478034D01*
X18654Y478289D01*
X18689Y478549D01*
X18700Y478810D01*
X18689Y479071D01*
X18654Y479331D01*
X18598Y479586D01*
X18519Y479836D01*
X18419Y480078D01*
X18298Y480310D01*
X18157Y480531D01*
X17998Y480738D01*
X17821Y480931D01*
X17628Y481108D01*
X17421Y481267D01*
X17200Y481408D01*
X16968Y481529D01*
X16726Y481629D01*
X16476Y481708D01*
X16221Y481764D01*
X15961Y481799D01*
X15700Y481810D01*
X9500Y481810D01*
X9239Y481799D01*
X8979Y481764D01*
X8724Y481708D01*
X8474Y481629D01*
X8232Y481529D01*
X8000Y481408D01*
X7779Y481267D01*
X7572Y481108D01*
X7379Y480931D01*
X7202Y480738D01*
X7043Y480531D01*
X6902Y480310D01*
X6781Y480078D01*
X6681Y479836D01*
X6602Y479586D01*
X6546Y479331D01*
X6511Y479071D01*
X6500Y478810D01*
X6511Y478549D01*
X6546Y478289D01*
X6602Y478034D01*
X6681Y477784D01*
X6781Y477542D01*
X6902Y477310D01*
X7043Y477089D01*
X7202Y476882D01*
X7379Y476689D01*
X7572Y476512D01*
X7779Y476353D01*
X8000Y476212D01*
X8232Y476091D01*
X8474Y475991D01*
X8724Y475912D01*
X8979Y475856D01*
X9239Y475821D01*
X9500Y475810D01*
X440000Y40000D02*
X440038Y39128D01*
X440152Y38264D01*
X440341Y37412D01*
X440603Y36580D01*
X440937Y35774D01*
X441340Y35000D01*
X441808Y34264D01*
X442340Y33572D01*
X442929Y32929D01*
X443572Y32340D01*
X444264Y31808D01*
X445000Y31340D01*
X445774Y30937D01*
X446580Y30603D01*
X447412Y30341D01*
X448264Y30152D01*
X449128Y30038D01*
X450000Y30000D01*
X450872Y30038D01*
X451736Y30152D01*
X452588Y30341D01*
X453420Y30603D01*
X454226Y30937D01*
X455000Y31340D01*
X455736Y31808D01*
X456428Y32340D01*
X457071Y32929D01*
X457660Y33572D01*
X458192Y34264D01*
X458660Y35000D01*
X459063Y35774D01*
X459397Y36580D01*
X459659Y37412D01*
X459848Y38264D01*
X459962Y39128D01*
X460000Y40000D01*
X460000Y190000D01*
X459962Y190872D01*
X459848Y191736D01*
X459659Y192588D01*
X459397Y193420D01*
X459063Y194226D01*
X458660Y195000D01*
X458192Y195736D01*
X457660Y196428D01*
X457071Y197071D01*
X456428Y197660D01*
X455736Y198192D01*
X455000Y198660D01*
X454226Y199063D01*
X453420Y199397D01*
X452588Y199659D01*
X451736Y199848D01*
X450872Y199962D01*
X450000Y200000D01*
X449128Y199962D01*
X448264Y199848D01*
X447412Y199659D01*
X446580Y199397D01*
X445774Y199063D01*
X445000Y198660D01*
X444264Y198192D01*
X443572Y197660D01*
X442929Y197071D01*
X442340Y196428D01*
X441808Y195736D01*
X441340Y195000D01*
X440937Y194226D01*
X440603Y193420D01*
X440341Y192588D01*
X440152Y191736D01*
X440038Y190872D01*
X440000Y190000D01*
X440000Y40000D01*
X48837Y461260D02*
X48415Y461316D01*
X48003Y461426D01*
X47609Y461589D01*
X47241Y461802D01*
X46903Y462061D01*
X46601Y462363D01*
X46342Y462701D01*
X46129Y463069D01*
X45966Y463463D01*
X45856Y463875D01*
X45800Y464297D01*
X45800Y464723D01*
X45856Y465145D01*
X45966Y465557D01*
X46129Y465951D01*
X46342Y466319D01*
X46601Y466657D01*
X46903Y466959D01*
X47241Y467218D01*
X47609Y467431D01*
X48003Y467594D01*
X48415Y467704D01*
X48837Y467760D01*
X49263Y467760D01*
X49685Y467704D01*
X50097Y467594D01*
X50491Y467431D01*
X50859Y467218D01*
X51197Y466959D01*
X51499Y466657D01*
X51758Y466319D01*
X51971Y465951D01*
X52134Y465557D01*
X52244Y465145D01*
X52300Y464723D01*
X52300Y464297D01*
X52244Y463875D01*
X52134Y463463D01*
X51971Y463069D01*
X51758Y462701D01*
X51499Y462363D01*
X51197Y462061D01*
X50859Y461802D01*
X50491Y461589D01*
X50097Y461426D01*
X49685Y461316D01*
X49263Y461260D01*
X48837Y461260D01*
X48837Y403460D02*
X48415Y403516D01*
X48003Y403626D01*
X47609Y403789D01*
X47241Y404002D01*
X46903Y404261D01*
X46601Y404563D01*
X46342Y404901D01*
X46129Y405269D01*
X45966Y405663D01*
X45856Y406075D01*
X45800Y406497D01*
X45800Y406923D01*
X45856Y407345D01*
X45966Y407757D01*
X46129Y408151D01*
X46342Y408519D01*
X46601Y408857D01*
X46903Y409159D01*
X47241Y409418D01*
X47609Y409631D01*
X48003Y409794D01*
X48415Y409904D01*
X48837Y409960D01*
X49263Y409960D01*
X49685Y409904D01*
X50097Y409794D01*
X50491Y409631D01*
X50859Y409418D01*
X51197Y409159D01*
X51499Y408857D01*
X51758Y408519D01*
X51971Y408151D01*
X52134Y407757D01*
X52244Y407345D01*
X52300Y406923D01*
X52300Y406497D01*
X52244Y406075D01*
X52134Y405663D01*
X51971Y405269D01*
X51758Y404901D01*
X51499Y404563D01*
X51197Y404261D01*
X50859Y404002D01*
X50491Y403789D01*
X50097Y403626D01*
X49685Y403516D01*
X49263Y403460D01*
X48837Y403460D01*
X101420Y524579D02*
X101357Y524021D01*
X101232Y523474D01*
X101047Y522944D01*
X100803Y522438D01*
X100504Y521962D01*
X100154Y521523D01*
X99757Y521126D01*
X99318Y520776D01*
X98842Y520477D01*
X98336Y520233D01*
X97806Y520048D01*
X97259Y519923D01*
X96701Y519860D01*
X96139Y519860D01*
X95581Y519923D01*
X95034Y520048D01*
X94504Y520233D01*
X93998Y520477D01*
X93522Y520776D01*
X93083Y521126D01*
X92686Y521523D01*
X92336Y521962D01*
X92037Y522438D01*
X91793Y522944D01*
X91608Y523474D01*
X91483Y524021D01*
X91420Y524579D01*
X91420Y525141D01*
X91483Y525699D01*
X91608Y526246D01*
X91793Y526776D01*
X92037Y527282D01*
X92336Y527758D01*
X92686Y528197D01*
X93083Y528594D01*
X93522Y528944D01*
X93998Y529243D01*
X94504Y529487D01*
X95034Y529672D01*
X95581Y529797D01*
X96139Y529860D01*
X96701Y529860D01*
X97259Y529797D01*
X97806Y529672D01*
X98336Y529487D01*
X98842Y529243D01*
X99318Y528944D01*
X99757Y528594D01*
X100154Y528197D01*
X100504Y527758D01*
X100803Y527282D01*
X101047Y526776D01*
X101232Y526246D01*
X101357Y525699D01*
X101420Y525141D01*
X101420Y524579D01*
X558620Y524579D02*
X558557Y524021D01*
X558432Y523474D01*
X558247Y522944D01*
X558003Y522438D01*
X557704Y521962D01*
X557354Y521523D01*
X556957Y521126D01*
X556518Y520776D01*
X556042Y520477D01*
X555536Y520233D01*
X555006Y520048D01*
X554459Y519923D01*
X553901Y519860D01*
X553339Y519860D01*
X552781Y519923D01*
X552234Y520048D01*
X551704Y520233D01*
X551198Y520477D01*
X550722Y520776D01*
X550283Y521126D01*
X549886Y521523D01*
X549536Y521962D01*
X549237Y522438D01*
X548993Y522944D01*
X548808Y523474D01*
X548683Y524021D01*
X548620Y524579D01*
X548620Y525141D01*
X548683Y525699D01*
X548808Y526246D01*
X548993Y526776D01*
X549237Y527282D01*
X549536Y527758D01*
X549886Y528197D01*
X550283Y528594D01*
X550722Y528944D01*
X551198Y529243D01*
X551704Y529487D01*
X552234Y529672D01*
X552781Y529797D01*
X553339Y529860D01*
X553901Y529860D01*
X554459Y529797D01*
X555006Y529672D01*
X555536Y529487D01*
X556042Y529243D01*
X556518Y528944D01*
X556957Y528594D01*
X557354Y528197D01*
X557704Y527758D01*
X558003Y527282D01*
X558247Y526776D01*
X558432Y526246D01*
X558557Y525699D01*
X558620Y525141D01*
X558620Y524579D01*
X50240Y34456D02*
X50162Y33370D01*
X50007Y32292D01*
X49776Y31229D01*
X49469Y30184D01*
X49089Y29164D01*
X48637Y28174D01*
X48115Y27219D01*
X47526Y26303D01*
X46874Y25431D01*
X46161Y24609D01*
X45391Y23839D01*
X44569Y23126D01*
X43697Y22474D01*
X42781Y21885D01*
X41826Y21363D01*
X40836Y20911D01*
X39816Y20531D01*
X38771Y20224D01*
X37708Y19993D01*
X36630Y19838D01*
X35544Y19760D01*
X34456Y19760D01*
X33370Y19838D01*
X32292Y19993D01*
X31229Y20224D01*
X30184Y20531D01*
X29164Y20911D01*
X28174Y21363D01*
X27219Y21885D01*
X26303Y22474D01*
X25431Y23126D01*
X24609Y23839D01*
X23839Y24609D01*
X23126Y25431D01*
X22474Y26303D01*
X21885Y27219D01*
X21363Y28174D01*
X20911Y29164D01*
X20531Y30184D01*
X20224Y31229D01*
X19993Y32292D01*
X19838Y33370D01*
X19760Y34456D01*
X19760Y35544D01*
X19838Y36630D01*
X19993Y37708D01*
X20224Y38771D01*
X20531Y39816D01*
X20911Y40836D01*
X21363Y41826D01*
X21885Y42781D01*
X22474Y43697D01*
X23126Y44569D01*
X23839Y45391D01*
X24609Y46161D01*
X25431Y46874D01*
X26303Y47526D01*
X27219Y48115D01*
X28174Y48637D01*
X29164Y49089D01*
X30184Y49469D01*
X31229Y49776D01*
X32292Y50007D01*
X33370Y50162D01*
X34456Y50240D01*
X35544Y50240D01*
X36630Y50162D01*
X37708Y50007D01*
X38771Y49776D01*
X39816Y49469D01*
X40836Y49089D01*
X41826Y48637D01*
X42781Y48115D01*
X43697Y47526D01*
X44569Y46874D01*
X45391Y46161D01*
X46161Y45391D01*
X46874Y44569D01*
X47526Y43697D01*
X48115Y42781D01*
X48637Y41826D01*
X49089Y40836D01*
X49469Y39816D01*
X49776Y38771D01*
X50007Y37708D01*
X50162Y36630D01*
X50240Y35544D01*
X50240Y34456D01*
X630240Y34456D02*
X630162Y33370D01*
X630007Y32292D01*
X629776Y31229D01*
X629469Y30184D01*
X629089Y29164D01*
X628637Y28174D01*
X628115Y27219D01*
X627526Y26303D01*
X626874Y25431D01*
X626161Y24609D01*
X625391Y23839D01*
X624569Y23126D01*
X623697Y22474D01*
X622781Y21885D01*
X621826Y21363D01*
X620836Y20911D01*
X619816Y20531D01*
X618771Y20224D01*
X617708Y19993D01*
X616630Y19838D01*
X615544Y19760D01*
X614456Y19760D01*
X613370Y19838D01*
X612292Y19993D01*
X611229Y20224D01*
X610184Y20531D01*
X609164Y20911D01*
X608174Y21363D01*
X607219Y21885D01*
X606303Y22474D01*
X605431Y23126D01*
X604609Y23839D01*
X603839Y24609D01*
X603126Y25431D01*
X602474Y26303D01*
X601885Y27219D01*
X601363Y28174D01*
X600911Y29164D01*
X600531Y30184D01*
X600224Y31229D01*
X599993Y32292D01*
X599838Y33370D01*
X599760Y34456D01*
X599760Y35544D01*
X599838Y36630D01*
X599993Y37708D01*
X600224Y38771D01*
X600531Y39816D01*
X600911Y40836D01*
X601363Y41826D01*
X601885Y42781D01*
X602474Y43697D01*
X603126Y44569D01*
X603839Y45391D01*
X604609Y46161D01*
X605431Y46874D01*
X606303Y47526D01*
X607219Y48115D01*
X608174Y48637D01*
X609164Y49089D01*
X610184Y49469D01*
X611229Y49776D01*
X612292Y50007D01*
X613370Y50162D01*
X614456Y50240D01*
X615544Y50240D01*
X616630Y50162D01*
X617708Y50007D01*
X618771Y49776D01*
X619816Y49469D01*
X620836Y49089D01*
X621826Y48637D01*
X622781Y48115D01*
X623697Y47526D01*
X624569Y46874D01*
X625391Y46161D01*
X626161Y45391D01*
X626874Y44569D01*
X627526Y43697D01*
X628115Y42781D01*
X628637Y41826D01*
X629089Y40836D01*
X629469Y39816D01*
X629776Y38771D01*
X630007Y37708D01*
X630162Y36630D01*
X630240Y35544D01*
X630240Y34456D01*
X50240Y524456D02*
X50162Y523370D01*
X50007Y522292D01*
X49776Y521229D01*
X49469Y520184D01*
X49089Y519164D01*
X48637Y518174D01*
X48115Y517219D01*
X47526Y516303D01*
X46874Y515431D01*
X46161Y514609D01*
X45391Y513839D01*
X44569Y513126D01*
X43697Y512474D01*
X42781Y511885D01*
X41826Y511363D01*
X40836Y510911D01*
X39816Y510531D01*
X38771Y510224D01*
X37708Y509993D01*
X36630Y509838D01*
X35544Y509760D01*
X34456Y509760D01*
X33370Y509838D01*
X32292Y509993D01*
X31229Y510224D01*
X30184Y510531D01*
X29164Y510911D01*
X28174Y511363D01*
X27219Y511885D01*
X26303Y512474D01*
X25431Y513126D01*
X24609Y513839D01*
X23839Y514609D01*
X23126Y515431D01*
X22474Y516303D01*
X21885Y517219D01*
X21363Y518174D01*
X20911Y519164D01*
X20531Y520184D01*
X20224Y521229D01*
X19993Y522292D01*
X19838Y523370D01*
X19760Y524456D01*
X19760Y525544D01*
X19838Y526630D01*
X19993Y527708D01*
X20224Y528771D01*
X20531Y529816D01*
X20911Y530836D01*
X21363Y531826D01*
X21885Y532781D01*
X22474Y533697D01*
X23126Y534569D01*
X23839Y535391D01*
X24609Y536161D01*
X25431Y536874D01*
X26303Y537526D01*
X27219Y538115D01*
X28174Y538637D01*
X29164Y539089D01*
X30184Y539469D01*
X31229Y539776D01*
X32292Y540007D01*
X33370Y540162D01*
X34456Y540240D01*
X35544Y540240D01*
X36630Y540162D01*
X37708Y540007D01*
X38771Y539776D01*
X39816Y539469D01*
X40836Y539089D01*
X41826Y538637D01*
X42781Y538115D01*
X43697Y537526D01*
X44569Y536874D01*
X45391Y536161D01*
X46161Y535391D01*
X46874Y534569D01*
X47526Y533697D01*
X48115Y532781D01*
X48637Y531826D01*
X49089Y530836D01*
X49469Y529816D01*
X49776Y528771D01*
X50007Y527708D01*
X50162Y526630D01*
X50240Y525544D01*
X50240Y524456D01*
X630240Y524456D02*
X630162Y523370D01*
X630007Y522292D01*
X629776Y521229D01*
X629469Y520184D01*
X629089Y519164D01*
X628637Y518174D01*
X628115Y517219D01*
X627526Y516303D01*
X626874Y515431D01*
X626161Y514609D01*
X625391Y513839D01*
X624569Y513126D01*
X623697Y512474D01*
X622781Y511885D01*
X621826Y511363D01*
X620836Y510911D01*
X619816Y510531D01*
X618771Y510224D01*
X617708Y509993D01*
X616630Y509838D01*
X615544Y509760D01*
X614456Y509760D01*
X613370Y509838D01*
X612292Y509993D01*
X611229Y510224D01*
X610184Y510531D01*
X609164Y510911D01*
X608174Y511363D01*
X607219Y511885D01*
X606303Y512474D01*
X605431Y513126D01*
X604609Y513839D01*
X603839Y514609D01*
X603126Y515431D01*
X602474Y516303D01*
X601885Y517219D01*
X601363Y518174D01*
X600911Y519164D01*
X600531Y520184D01*
X600224Y521229D01*
X599993Y522292D01*
X599838Y523370D01*
X599760Y524456D01*
X599760Y525544D01*
X599838Y526630D01*
X599993Y527708D01*
X600224Y528771D01*
X600531Y529816D01*
X600911Y530836D01*
X601363Y531826D01*
X601885Y532781D01*
X602474Y533697D01*
X603126Y534569D01*
X603839Y535391D01*
X604609Y536161D01*
X605431Y536874D01*
X606303Y537526D01*
X607219Y538115D01*
X608174Y538637D01*
X609164Y539089D01*
X610184Y539469D01*
X611229Y539776D01*
X612292Y540007D01*
X613370Y540162D01*
X614456Y540240D01*
X615544Y540240D01*
X616630Y540162D01*
X617708Y540007D01*
X618771Y539776D01*
X619816Y539469D01*
X620836Y539089D01*
X621826Y538637D01*
X622781Y538115D01*
X623697Y537526D01*
X624569Y536874D01*
X625391Y536161D01*
X626161Y535391D01*
X626874Y534569D01*
X627526Y533697D01*
X628115Y532781D01*
X628637Y531826D01*
X629089Y530836D01*
X629469Y529816D01*
X629776Y528771D01*
X630007Y527708D01*
X630162Y526630D01*
X630240Y525544D01*
X630240Y524456D01*
M02*
