G75*
%MOIN*%
%OFA0B0*%
%FSLAX25Y25*%
%IPPOS*%
%LPD*%
%AMOC8*
5,1,8,0,0,1.08239X$1,22.5*
%
%ADD10R,0.04737X0.05131*%
%ADD11R,0.05131X0.04737*%
%ADD12R,0.01981X0.04737*%
%ADD13R,0.12611X0.06312*%
%ADD14R,0.08674X0.05524*%
%ADD15R,0.06115X0.03162*%
%ADD16R,0.04737X0.01981*%
%ADD17R,0.04737X0.03162*%
%ADD18C,0.03359*%
%ADD19C,0.00039*%
%ADD20R,0.12200X0.07400*%
%ADD21R,0.05800X0.03300*%
%ADD22C,0.00500*%
%ADD23R,0.03556X0.03556*%
%ADD24R,0.03950X0.04343*%
%ADD25R,0.03950X0.02375*%
%ADD26R,0.04343X0.03950*%
%ADD27R,0.04343X0.04146*%
%ADD28R,0.04146X0.04343*%
%ADD29R,0.01981X0.03556*%
%ADD30R,0.08674X0.04343*%
%ADD31C,0.08200*%
%ADD32R,0.03950X0.05524*%
%ADD33C,0.01990*%
%ADD34R,0.01920X0.03950*%
%ADD35R,0.03950X0.01920*%
%ADD36R,0.18123X0.18123*%
%ADD37R,0.02749X0.01784*%
%ADD38R,0.03162X0.01784*%
%ADD39R,0.01784X0.02749*%
%ADD40R,0.01784X0.03162*%
%ADD41R,0.00409X0.01783*%
%ADD42R,0.01783X0.00409*%
%ADD43R,0.02375X0.03753*%
%ADD44R,0.02611X0.03359*%
%ADD45R,0.03162X0.03162*%
%ADD46R,0.06800X0.06800*%
%ADD47R,0.05524X0.03162*%
%ADD48C,0.04737*%
%ADD49C,0.12800*%
%ADD50C,0.03300*%
D10*
X0156895Y0194487D03*
X0164395Y0194487D03*
X0171895Y0194487D03*
X0179395Y0194487D03*
X0179395Y0201180D03*
X0171895Y0201180D03*
X0164395Y0201180D03*
X0156895Y0201180D03*
X0156895Y0209487D03*
X0156895Y0216180D03*
X0164395Y0216180D03*
X0164395Y0209487D03*
X0171895Y0209487D03*
X0171895Y0216180D03*
X0179395Y0216180D03*
X0179395Y0209487D03*
X0179395Y0224487D03*
X0179395Y0231180D03*
X0171895Y0231180D03*
X0171895Y0224487D03*
X0164395Y0224487D03*
X0164395Y0231180D03*
X0156895Y0231180D03*
X0156895Y0224487D03*
X0193455Y0225910D03*
X0193455Y0219217D03*
X0220095Y0256047D03*
X0220095Y0262740D03*
X0235545Y0259957D03*
X0235545Y0266650D03*
X0191895Y0269487D03*
X0191895Y0276180D03*
X0154515Y0274130D03*
X0154515Y0267437D03*
X0153895Y0301517D03*
X0153895Y0308210D03*
X0183915Y0322377D03*
X0183915Y0329070D03*
X0284395Y0315680D03*
X0284395Y0308987D03*
X0289075Y0288670D03*
X0289075Y0281977D03*
X0288795Y0275560D03*
X0288795Y0268867D03*
X0288985Y0260810D03*
X0288985Y0254117D03*
X0318605Y0277077D03*
X0318605Y0283770D03*
X0314395Y0309487D03*
X0314395Y0316180D03*
X0247865Y0222859D03*
X0247865Y0216167D03*
D11*
X0248549Y0202833D03*
X0255242Y0202833D03*
X0252892Y0229523D03*
X0252832Y0235703D03*
X0246139Y0235703D03*
X0246199Y0229523D03*
X0206742Y0224733D03*
X0206742Y0218933D03*
X0200049Y0218933D03*
X0200049Y0224733D03*
X0251199Y0274363D03*
X0257892Y0274363D03*
X0258032Y0282363D03*
X0251339Y0282363D03*
X0290549Y0306963D03*
X0297242Y0306963D03*
X0296449Y0291733D03*
X0303142Y0291733D03*
X0312019Y0292013D03*
X0318712Y0292013D03*
X0321139Y0307333D03*
X0327832Y0307333D03*
X0357249Y0212303D03*
X0363942Y0212303D03*
X0175242Y0282833D03*
X0168549Y0282833D03*
X0170359Y0313713D03*
X0177052Y0313713D03*
X0160222Y0314383D03*
X0153529Y0314383D03*
X0153549Y0324873D03*
X0160242Y0324873D03*
D12*
X0296049Y0268384D03*
X0298608Y0268384D03*
X0301167Y0268384D03*
X0303726Y0268384D03*
X0306285Y0268384D03*
X0308844Y0268384D03*
X0311403Y0268384D03*
X0313962Y0268384D03*
X0316521Y0268384D03*
X0319080Y0268384D03*
X0321639Y0268384D03*
X0324198Y0268384D03*
X0326757Y0268384D03*
X0329316Y0268384D03*
X0329316Y0243187D03*
X0326757Y0243187D03*
X0324198Y0243187D03*
X0321639Y0243187D03*
X0319080Y0243187D03*
X0316521Y0243187D03*
X0313962Y0243187D03*
X0311403Y0243187D03*
X0308844Y0243187D03*
X0306285Y0243187D03*
X0303726Y0243187D03*
X0301167Y0243187D03*
X0298608Y0243187D03*
X0296049Y0243187D03*
D13*
X0349566Y0229413D03*
X0368464Y0229413D03*
D14*
X0371364Y0198857D03*
X0371364Y0176809D03*
D15*
X0356895Y0181928D03*
X0356895Y0185865D03*
X0356895Y0189802D03*
X0356895Y0193739D03*
D16*
X0145557Y0312443D03*
X0145557Y0314412D03*
X0145557Y0316380D03*
X0145557Y0318349D03*
X0145557Y0320317D03*
X0145557Y0322286D03*
X0145557Y0324254D03*
X0145557Y0326223D03*
D17*
X0145557Y0328979D03*
X0145557Y0332030D03*
X0145557Y0309687D03*
X0145557Y0306636D03*
D18*
X0141206Y0307955D03*
X0141206Y0330711D03*
D19*
X0140911Y0333979D02*
X0140412Y0334059D01*
X0139944Y0334249D01*
X0139529Y0334538D01*
X0139189Y0334912D01*
X0138941Y0335352D01*
X0138798Y0335837D01*
X0138765Y0336341D01*
X0138798Y0336845D01*
X0138941Y0337330D01*
X0139189Y0337770D01*
X0139529Y0338144D01*
X0139944Y0338433D01*
X0140412Y0338623D01*
X0140911Y0338703D01*
X0145635Y0338703D01*
X0146077Y0338642D01*
X0146499Y0338496D01*
X0146884Y0338271D01*
X0147217Y0337975D01*
X0147486Y0337619D01*
X0147681Y0337218D01*
X0147794Y0336786D01*
X0147820Y0336341D01*
X0147794Y0335896D01*
X0147681Y0335464D01*
X0147486Y0335063D01*
X0147217Y0334707D01*
X0146884Y0334411D01*
X0146499Y0334186D01*
X0146077Y0334040D01*
X0145635Y0333979D01*
X0140911Y0333979D01*
X0140889Y0333982D02*
X0145661Y0333982D01*
X0145935Y0334020D02*
X0140655Y0334020D01*
X0140420Y0334058D02*
X0146130Y0334058D01*
X0146239Y0334096D02*
X0140322Y0334096D01*
X0140228Y0334134D02*
X0146349Y0334134D01*
X0146458Y0334172D02*
X0140135Y0334172D01*
X0140041Y0334210D02*
X0146539Y0334210D01*
X0146604Y0334247D02*
X0139947Y0334247D01*
X0139892Y0334285D02*
X0146669Y0334285D01*
X0146733Y0334323D02*
X0139837Y0334323D01*
X0139783Y0334361D02*
X0146798Y0334361D01*
X0146863Y0334399D02*
X0139729Y0334399D01*
X0139674Y0334437D02*
X0146912Y0334437D01*
X0146955Y0334475D02*
X0139620Y0334475D01*
X0139566Y0334513D02*
X0146998Y0334513D01*
X0147040Y0334550D02*
X0139518Y0334550D01*
X0139483Y0334588D02*
X0147083Y0334588D01*
X0147126Y0334626D02*
X0139449Y0334626D01*
X0139415Y0334664D02*
X0147168Y0334664D01*
X0147211Y0334702D02*
X0139380Y0334702D01*
X0139346Y0334740D02*
X0147242Y0334740D01*
X0147270Y0334778D02*
X0139311Y0334778D01*
X0139277Y0334816D02*
X0147299Y0334816D01*
X0147328Y0334854D02*
X0139243Y0334854D01*
X0139208Y0334891D02*
X0147357Y0334891D01*
X0147385Y0334929D02*
X0139180Y0334929D01*
X0139158Y0334967D02*
X0147414Y0334967D01*
X0147443Y0335005D02*
X0139137Y0335005D01*
X0139116Y0335043D02*
X0147471Y0335043D01*
X0147495Y0335081D02*
X0139094Y0335081D01*
X0139073Y0335119D02*
X0147513Y0335119D01*
X0147532Y0335157D02*
X0139052Y0335157D01*
X0139030Y0335194D02*
X0147550Y0335194D01*
X0147569Y0335232D02*
X0139009Y0335232D01*
X0138988Y0335270D02*
X0147587Y0335270D01*
X0147605Y0335308D02*
X0138966Y0335308D01*
X0138945Y0335346D02*
X0147624Y0335346D01*
X0147642Y0335384D02*
X0138932Y0335384D01*
X0138921Y0335422D02*
X0147661Y0335422D01*
X0147679Y0335460D02*
X0138910Y0335460D01*
X0138898Y0335498D02*
X0147690Y0335498D01*
X0147700Y0335535D02*
X0138887Y0335535D01*
X0138876Y0335573D02*
X0147710Y0335573D01*
X0147720Y0335611D02*
X0138865Y0335611D01*
X0138853Y0335649D02*
X0147729Y0335649D01*
X0147739Y0335687D02*
X0138842Y0335687D01*
X0138831Y0335725D02*
X0147749Y0335725D01*
X0147759Y0335763D02*
X0138820Y0335763D01*
X0138808Y0335801D02*
X0147769Y0335801D01*
X0147779Y0335838D02*
X0138798Y0335838D01*
X0138795Y0335876D02*
X0147789Y0335876D01*
X0147795Y0335914D02*
X0138793Y0335914D01*
X0138790Y0335952D02*
X0147797Y0335952D01*
X0147800Y0335990D02*
X0138788Y0335990D01*
X0138785Y0336028D02*
X0147802Y0336028D01*
X0147804Y0336066D02*
X0138783Y0336066D01*
X0138780Y0336104D02*
X0147806Y0336104D01*
X0147809Y0336141D02*
X0138778Y0336141D01*
X0138776Y0336179D02*
X0147811Y0336179D01*
X0147813Y0336217D02*
X0138773Y0336217D01*
X0138771Y0336255D02*
X0147815Y0336255D01*
X0147818Y0336293D02*
X0138768Y0336293D01*
X0138766Y0336331D02*
X0147820Y0336331D01*
X0147819Y0336369D02*
X0138767Y0336369D01*
X0138769Y0336407D02*
X0147816Y0336407D01*
X0147814Y0336445D02*
X0138772Y0336445D01*
X0138774Y0336482D02*
X0147812Y0336482D01*
X0147810Y0336520D02*
X0138777Y0336520D01*
X0138779Y0336558D02*
X0147807Y0336558D01*
X0147805Y0336596D02*
X0138782Y0336596D01*
X0138784Y0336634D02*
X0147803Y0336634D01*
X0147801Y0336672D02*
X0138786Y0336672D01*
X0138789Y0336710D02*
X0147798Y0336710D01*
X0147796Y0336748D02*
X0138791Y0336748D01*
X0138794Y0336785D02*
X0147794Y0336785D01*
X0147784Y0336823D02*
X0138796Y0336823D01*
X0138802Y0336861D02*
X0147774Y0336861D01*
X0147764Y0336899D02*
X0138814Y0336899D01*
X0138825Y0336937D02*
X0147755Y0336937D01*
X0147745Y0336975D02*
X0138836Y0336975D01*
X0138847Y0337013D02*
X0147735Y0337013D01*
X0147725Y0337051D02*
X0138859Y0337051D01*
X0138870Y0337089D02*
X0147715Y0337089D01*
X0147705Y0337126D02*
X0138881Y0337126D01*
X0138892Y0337164D02*
X0147695Y0337164D01*
X0147685Y0337202D02*
X0138904Y0337202D01*
X0138915Y0337240D02*
X0147670Y0337240D01*
X0147652Y0337278D02*
X0138926Y0337278D01*
X0138937Y0337316D02*
X0147634Y0337316D01*
X0147615Y0337354D02*
X0138955Y0337354D01*
X0138976Y0337392D02*
X0147597Y0337392D01*
X0147578Y0337429D02*
X0138998Y0337429D01*
X0139019Y0337467D02*
X0147560Y0337467D01*
X0147542Y0337505D02*
X0139040Y0337505D01*
X0139062Y0337543D02*
X0147523Y0337543D01*
X0147505Y0337581D02*
X0139083Y0337581D01*
X0139104Y0337619D02*
X0147486Y0337619D01*
X0147458Y0337657D02*
X0139126Y0337657D01*
X0139147Y0337695D02*
X0147429Y0337695D01*
X0147400Y0337733D02*
X0139168Y0337733D01*
X0139190Y0337770D02*
X0147372Y0337770D01*
X0147343Y0337808D02*
X0139224Y0337808D01*
X0139259Y0337846D02*
X0147314Y0337846D01*
X0147286Y0337884D02*
X0139293Y0337884D01*
X0139328Y0337922D02*
X0147257Y0337922D01*
X0147228Y0337960D02*
X0139362Y0337960D01*
X0139396Y0337998D02*
X0147191Y0337998D01*
X0147148Y0338036D02*
X0139431Y0338036D01*
X0139465Y0338073D02*
X0147106Y0338073D01*
X0147063Y0338111D02*
X0139500Y0338111D01*
X0139537Y0338149D02*
X0147020Y0338149D01*
X0146978Y0338187D02*
X0139591Y0338187D01*
X0139645Y0338225D02*
X0146935Y0338225D01*
X0146892Y0338263D02*
X0139700Y0338263D01*
X0139754Y0338301D02*
X0146832Y0338301D01*
X0146768Y0338339D02*
X0139808Y0338339D01*
X0139863Y0338377D02*
X0146703Y0338377D01*
X0146638Y0338414D02*
X0139917Y0338414D01*
X0139991Y0338452D02*
X0146574Y0338452D01*
X0146509Y0338490D02*
X0140085Y0338490D01*
X0140179Y0338528D02*
X0146407Y0338528D01*
X0146297Y0338566D02*
X0140272Y0338566D01*
X0140366Y0338604D02*
X0146188Y0338604D01*
X0146079Y0338642D02*
X0140530Y0338642D01*
X0140765Y0338680D02*
X0145806Y0338680D01*
X0130318Y0336869D02*
X0130379Y0336341D01*
X0130332Y0335878D01*
X0130195Y0335434D01*
X0129974Y0335025D01*
X0129678Y0334667D01*
X0129317Y0334373D01*
X0128906Y0334156D01*
X0128460Y0334022D01*
X0127998Y0333979D01*
X0125635Y0333979D01*
X0125177Y0334026D01*
X0124736Y0334162D01*
X0124330Y0334381D01*
X0123975Y0334675D01*
X0123684Y0335032D01*
X0123468Y0335440D01*
X0123336Y0335882D01*
X0123293Y0336341D01*
X0123350Y0336865D01*
X0123521Y0337363D01*
X0123800Y0337810D01*
X0124171Y0338184D01*
X0124616Y0338466D01*
X0125112Y0338642D01*
X0125635Y0338703D01*
X0127998Y0338703D01*
X0128526Y0338646D01*
X0129028Y0338473D01*
X0129479Y0338192D01*
X0129856Y0337818D01*
X0130140Y0337369D01*
X0130318Y0336869D01*
X0130319Y0336861D02*
X0123349Y0336861D01*
X0123345Y0336823D02*
X0130323Y0336823D01*
X0130327Y0336785D02*
X0123341Y0336785D01*
X0123337Y0336748D02*
X0130332Y0336748D01*
X0130336Y0336710D02*
X0123333Y0336710D01*
X0123329Y0336672D02*
X0130341Y0336672D01*
X0130345Y0336634D02*
X0123325Y0336634D01*
X0123320Y0336596D02*
X0130350Y0336596D01*
X0130354Y0336558D02*
X0123316Y0336558D01*
X0123312Y0336520D02*
X0130358Y0336520D01*
X0130363Y0336482D02*
X0123308Y0336482D01*
X0123304Y0336445D02*
X0130367Y0336445D01*
X0130372Y0336407D02*
X0123300Y0336407D01*
X0123296Y0336369D02*
X0130376Y0336369D01*
X0130378Y0336331D02*
X0123294Y0336331D01*
X0123297Y0336293D02*
X0130374Y0336293D01*
X0130371Y0336255D02*
X0123301Y0336255D01*
X0123304Y0336217D02*
X0130367Y0336217D01*
X0130363Y0336179D02*
X0123308Y0336179D01*
X0123312Y0336141D02*
X0130359Y0336141D01*
X0130355Y0336104D02*
X0123315Y0336104D01*
X0123319Y0336066D02*
X0130351Y0336066D01*
X0130347Y0336028D02*
X0123322Y0336028D01*
X0123326Y0335990D02*
X0130343Y0335990D01*
X0130339Y0335952D02*
X0123329Y0335952D01*
X0123333Y0335914D02*
X0130336Y0335914D01*
X0130331Y0335876D02*
X0123338Y0335876D01*
X0123349Y0335838D02*
X0130320Y0335838D01*
X0130308Y0335801D02*
X0123360Y0335801D01*
X0123372Y0335763D02*
X0130296Y0335763D01*
X0130285Y0335725D02*
X0123383Y0335725D01*
X0123394Y0335687D02*
X0130273Y0335687D01*
X0130261Y0335649D02*
X0123406Y0335649D01*
X0123417Y0335611D02*
X0130250Y0335611D01*
X0130238Y0335573D02*
X0123428Y0335573D01*
X0123440Y0335535D02*
X0130226Y0335535D01*
X0130215Y0335498D02*
X0123451Y0335498D01*
X0123462Y0335460D02*
X0130203Y0335460D01*
X0130188Y0335422D02*
X0123478Y0335422D01*
X0123498Y0335384D02*
X0130168Y0335384D01*
X0130148Y0335346D02*
X0123518Y0335346D01*
X0123538Y0335308D02*
X0130127Y0335308D01*
X0130107Y0335270D02*
X0123558Y0335270D01*
X0123578Y0335232D02*
X0130086Y0335232D01*
X0130066Y0335194D02*
X0123598Y0335194D01*
X0123618Y0335157D02*
X0130045Y0335157D01*
X0130025Y0335119D02*
X0123638Y0335119D01*
X0123658Y0335081D02*
X0130004Y0335081D01*
X0129984Y0335043D02*
X0123678Y0335043D01*
X0123706Y0335005D02*
X0129958Y0335005D01*
X0129927Y0334967D02*
X0123737Y0334967D01*
X0123768Y0334929D02*
X0129895Y0334929D01*
X0129864Y0334891D02*
X0123798Y0334891D01*
X0123829Y0334854D02*
X0129832Y0334854D01*
X0129801Y0334816D02*
X0123860Y0334816D01*
X0123891Y0334778D02*
X0129770Y0334778D01*
X0129738Y0334740D02*
X0123922Y0334740D01*
X0123953Y0334702D02*
X0129707Y0334702D01*
X0129675Y0334664D02*
X0123988Y0334664D01*
X0124033Y0334626D02*
X0129628Y0334626D01*
X0129582Y0334588D02*
X0124079Y0334588D01*
X0124125Y0334550D02*
X0129535Y0334550D01*
X0129489Y0334513D02*
X0124171Y0334513D01*
X0124216Y0334475D02*
X0129442Y0334475D01*
X0129395Y0334437D02*
X0124262Y0334437D01*
X0124308Y0334399D02*
X0129349Y0334399D01*
X0129294Y0334361D02*
X0124366Y0334361D01*
X0124436Y0334323D02*
X0129223Y0334323D01*
X0129151Y0334285D02*
X0124507Y0334285D01*
X0124577Y0334247D02*
X0129080Y0334247D01*
X0129008Y0334210D02*
X0124647Y0334210D01*
X0124717Y0334172D02*
X0128936Y0334172D01*
X0128833Y0334134D02*
X0124826Y0334134D01*
X0124949Y0334096D02*
X0128706Y0334096D01*
X0128580Y0334058D02*
X0125072Y0334058D01*
X0125232Y0334020D02*
X0128436Y0334020D01*
X0128035Y0333982D02*
X0125601Y0333982D01*
X0123361Y0336899D02*
X0130307Y0336899D01*
X0130293Y0336937D02*
X0123375Y0336937D01*
X0123388Y0336975D02*
X0130280Y0336975D01*
X0130267Y0337013D02*
X0123401Y0337013D01*
X0123414Y0337051D02*
X0130253Y0337051D01*
X0130240Y0337089D02*
X0123427Y0337089D01*
X0123440Y0337126D02*
X0130226Y0337126D01*
X0130213Y0337164D02*
X0123453Y0337164D01*
X0123466Y0337202D02*
X0130199Y0337202D01*
X0130186Y0337240D02*
X0123479Y0337240D01*
X0123492Y0337278D02*
X0130173Y0337278D01*
X0130159Y0337316D02*
X0123505Y0337316D01*
X0123518Y0337354D02*
X0130146Y0337354D01*
X0130126Y0337392D02*
X0123540Y0337392D01*
X0123563Y0337429D02*
X0130102Y0337429D01*
X0130078Y0337467D02*
X0123587Y0337467D01*
X0123610Y0337505D02*
X0130054Y0337505D01*
X0130030Y0337543D02*
X0123634Y0337543D01*
X0123657Y0337581D02*
X0130006Y0337581D01*
X0129982Y0337619D02*
X0123681Y0337619D01*
X0123705Y0337657D02*
X0129958Y0337657D01*
X0129934Y0337695D02*
X0123728Y0337695D01*
X0123752Y0337733D02*
X0129910Y0337733D01*
X0129886Y0337770D02*
X0123775Y0337770D01*
X0123799Y0337808D02*
X0129862Y0337808D01*
X0129827Y0337846D02*
X0123836Y0337846D01*
X0123873Y0337884D02*
X0129789Y0337884D01*
X0129751Y0337922D02*
X0123911Y0337922D01*
X0123949Y0337960D02*
X0129712Y0337960D01*
X0129674Y0337998D02*
X0123986Y0337998D01*
X0124024Y0338036D02*
X0129636Y0338036D01*
X0129598Y0338073D02*
X0124061Y0338073D01*
X0124099Y0338111D02*
X0129560Y0338111D01*
X0129522Y0338149D02*
X0124136Y0338149D01*
X0124176Y0338187D02*
X0129483Y0338187D01*
X0129425Y0338225D02*
X0124236Y0338225D01*
X0124295Y0338263D02*
X0129364Y0338263D01*
X0129304Y0338301D02*
X0124355Y0338301D01*
X0124415Y0338339D02*
X0129243Y0338339D01*
X0129182Y0338377D02*
X0124475Y0338377D01*
X0124534Y0338414D02*
X0129121Y0338414D01*
X0129060Y0338452D02*
X0124594Y0338452D01*
X0124684Y0338490D02*
X0128977Y0338490D01*
X0128867Y0338528D02*
X0124791Y0338528D01*
X0124898Y0338566D02*
X0128757Y0338566D01*
X0128647Y0338604D02*
X0125004Y0338604D01*
X0125111Y0338642D02*
X0128538Y0338642D01*
X0128215Y0338680D02*
X0125433Y0338680D01*
X0125635Y0304687D02*
X0125112Y0304626D01*
X0124616Y0304450D01*
X0124171Y0304168D01*
X0123800Y0303794D01*
X0123521Y0303347D01*
X0123350Y0302849D01*
X0123293Y0302325D01*
X0123336Y0301866D01*
X0123468Y0301424D01*
X0123684Y0301017D01*
X0123975Y0300659D01*
X0124330Y0300365D01*
X0124736Y0300146D01*
X0125177Y0300010D01*
X0125635Y0299963D01*
X0127998Y0299963D01*
X0128460Y0300007D01*
X0128906Y0300140D01*
X0129317Y0300357D01*
X0129678Y0300651D01*
X0129974Y0301009D01*
X0130195Y0301418D01*
X0130332Y0301863D01*
X0130379Y0302325D01*
X0130318Y0302853D01*
X0130140Y0303353D01*
X0129856Y0303802D01*
X0129479Y0304176D01*
X0129028Y0304457D01*
X0128526Y0304630D01*
X0127998Y0304687D01*
X0125635Y0304687D01*
X0125419Y0304662D02*
X0128231Y0304662D01*
X0128543Y0304624D02*
X0125106Y0304624D01*
X0124999Y0304586D02*
X0128652Y0304586D01*
X0128762Y0304548D02*
X0124893Y0304548D01*
X0124786Y0304511D02*
X0128872Y0304511D01*
X0128982Y0304473D02*
X0124679Y0304473D01*
X0124591Y0304435D02*
X0129063Y0304435D01*
X0129124Y0304397D02*
X0124532Y0304397D01*
X0124472Y0304359D02*
X0129185Y0304359D01*
X0129246Y0304321D02*
X0124412Y0304321D01*
X0124352Y0304283D02*
X0129306Y0304283D01*
X0129367Y0304245D02*
X0124293Y0304245D01*
X0124233Y0304207D02*
X0129428Y0304207D01*
X0129485Y0304170D02*
X0124173Y0304170D01*
X0124135Y0304132D02*
X0129523Y0304132D01*
X0129561Y0304094D02*
X0124097Y0304094D01*
X0124060Y0304056D02*
X0129600Y0304056D01*
X0129638Y0304018D02*
X0124022Y0304018D01*
X0123984Y0303980D02*
X0129676Y0303980D01*
X0129714Y0303942D02*
X0123947Y0303942D01*
X0123909Y0303904D02*
X0129752Y0303904D01*
X0129791Y0303867D02*
X0123872Y0303867D01*
X0123834Y0303829D02*
X0129829Y0303829D01*
X0129863Y0303791D02*
X0123798Y0303791D01*
X0123774Y0303753D02*
X0129887Y0303753D01*
X0129911Y0303715D02*
X0123751Y0303715D01*
X0123727Y0303677D02*
X0129935Y0303677D01*
X0129959Y0303639D02*
X0123704Y0303639D01*
X0123680Y0303601D02*
X0129983Y0303601D01*
X0130007Y0303563D02*
X0123656Y0303563D01*
X0123633Y0303526D02*
X0130031Y0303526D01*
X0130055Y0303488D02*
X0123609Y0303488D01*
X0123586Y0303450D02*
X0130079Y0303450D01*
X0130103Y0303412D02*
X0123562Y0303412D01*
X0123538Y0303374D02*
X0130127Y0303374D01*
X0130146Y0303336D02*
X0123518Y0303336D01*
X0123505Y0303298D02*
X0130160Y0303298D01*
X0130173Y0303260D02*
X0123492Y0303260D01*
X0123479Y0303223D02*
X0130187Y0303223D01*
X0130200Y0303185D02*
X0123465Y0303185D01*
X0123452Y0303147D02*
X0130213Y0303147D01*
X0130227Y0303109D02*
X0123439Y0303109D01*
X0123426Y0303071D02*
X0130240Y0303071D01*
X0130254Y0303033D02*
X0123413Y0303033D01*
X0123400Y0302995D02*
X0130267Y0302995D01*
X0130281Y0302957D02*
X0123387Y0302957D01*
X0123374Y0302920D02*
X0130294Y0302920D01*
X0130307Y0302882D02*
X0123361Y0302882D01*
X0123349Y0302844D02*
X0130319Y0302844D01*
X0130323Y0302806D02*
X0123345Y0302806D01*
X0123341Y0302768D02*
X0130328Y0302768D01*
X0130332Y0302730D02*
X0123337Y0302730D01*
X0123333Y0302692D02*
X0130336Y0302692D01*
X0130341Y0302654D02*
X0123328Y0302654D01*
X0123324Y0302616D02*
X0130345Y0302616D01*
X0130350Y0302579D02*
X0123320Y0302579D01*
X0123316Y0302541D02*
X0130354Y0302541D01*
X0130359Y0302503D02*
X0123312Y0302503D01*
X0123308Y0302465D02*
X0130363Y0302465D01*
X0130367Y0302427D02*
X0123304Y0302427D01*
X0123300Y0302389D02*
X0130372Y0302389D01*
X0130376Y0302351D02*
X0123296Y0302351D01*
X0123294Y0302313D02*
X0130378Y0302313D01*
X0130374Y0302276D02*
X0123297Y0302276D01*
X0123301Y0302238D02*
X0130370Y0302238D01*
X0130367Y0302200D02*
X0123305Y0302200D01*
X0123308Y0302162D02*
X0130363Y0302162D01*
X0130359Y0302124D02*
X0123312Y0302124D01*
X0123315Y0302086D02*
X0130355Y0302086D01*
X0130351Y0302048D02*
X0123319Y0302048D01*
X0123322Y0302010D02*
X0130347Y0302010D01*
X0130343Y0301972D02*
X0123326Y0301972D01*
X0123330Y0301935D02*
X0130339Y0301935D01*
X0130335Y0301897D02*
X0123333Y0301897D01*
X0123338Y0301859D02*
X0130331Y0301859D01*
X0130319Y0301821D02*
X0123350Y0301821D01*
X0123361Y0301783D02*
X0130307Y0301783D01*
X0130296Y0301745D02*
X0123372Y0301745D01*
X0123384Y0301707D02*
X0130284Y0301707D01*
X0130272Y0301669D02*
X0123395Y0301669D01*
X0123406Y0301632D02*
X0130261Y0301632D01*
X0130249Y0301594D02*
X0123417Y0301594D01*
X0123429Y0301556D02*
X0130237Y0301556D01*
X0130226Y0301518D02*
X0123440Y0301518D01*
X0123451Y0301480D02*
X0130214Y0301480D01*
X0130202Y0301442D02*
X0123463Y0301442D01*
X0123479Y0301404D02*
X0130188Y0301404D01*
X0130167Y0301366D02*
X0123499Y0301366D01*
X0123519Y0301328D02*
X0130147Y0301328D01*
X0130126Y0301291D02*
X0123539Y0301291D01*
X0123559Y0301253D02*
X0130106Y0301253D01*
X0130085Y0301215D02*
X0123579Y0301215D01*
X0123599Y0301177D02*
X0130065Y0301177D01*
X0130044Y0301139D02*
X0123619Y0301139D01*
X0123639Y0301101D02*
X0130024Y0301101D01*
X0130003Y0301063D02*
X0123659Y0301063D01*
X0123679Y0301025D02*
X0129983Y0301025D01*
X0129956Y0300988D02*
X0123707Y0300988D01*
X0123738Y0300950D02*
X0129925Y0300950D01*
X0129894Y0300912D02*
X0123769Y0300912D01*
X0123800Y0300874D02*
X0129862Y0300874D01*
X0129831Y0300836D02*
X0123831Y0300836D01*
X0123862Y0300798D02*
X0129800Y0300798D01*
X0129768Y0300760D02*
X0123892Y0300760D01*
X0123923Y0300722D02*
X0129737Y0300722D01*
X0129706Y0300685D02*
X0123954Y0300685D01*
X0123990Y0300647D02*
X0129673Y0300647D01*
X0129626Y0300609D02*
X0124035Y0300609D01*
X0124081Y0300571D02*
X0129579Y0300571D01*
X0129533Y0300533D02*
X0124127Y0300533D01*
X0124173Y0300495D02*
X0129486Y0300495D01*
X0129440Y0300457D02*
X0124219Y0300457D01*
X0124264Y0300419D02*
X0129393Y0300419D01*
X0129347Y0300381D02*
X0124310Y0300381D01*
X0124370Y0300344D02*
X0129291Y0300344D01*
X0129220Y0300306D02*
X0124440Y0300306D01*
X0124510Y0300268D02*
X0129148Y0300268D01*
X0129076Y0300230D02*
X0124580Y0300230D01*
X0124650Y0300192D02*
X0129005Y0300192D01*
X0128933Y0300154D02*
X0124720Y0300154D01*
X0124832Y0300116D02*
X0128827Y0300116D01*
X0128701Y0300078D02*
X0124955Y0300078D01*
X0125078Y0300041D02*
X0128574Y0300041D01*
X0128418Y0300003D02*
X0125249Y0300003D01*
X0125618Y0299965D02*
X0128016Y0299965D01*
X0138798Y0301821D02*
X0138765Y0302325D01*
X0138798Y0302829D01*
X0138941Y0303314D01*
X0139189Y0303754D01*
X0139529Y0304128D01*
X0139944Y0304417D01*
X0140412Y0304607D01*
X0140911Y0304687D01*
X0145635Y0304687D01*
X0146077Y0304626D01*
X0146499Y0304480D01*
X0146884Y0304255D01*
X0147217Y0303959D01*
X0147486Y0303603D01*
X0147681Y0303202D01*
X0147794Y0302770D01*
X0147820Y0302325D01*
X0147794Y0301880D01*
X0147681Y0301448D01*
X0147486Y0301047D01*
X0147217Y0300692D01*
X0146884Y0300395D01*
X0146499Y0300170D01*
X0146077Y0300024D01*
X0145635Y0299963D01*
X0140911Y0299963D01*
X0140412Y0300044D01*
X0139944Y0300233D01*
X0139529Y0300522D01*
X0139189Y0300896D01*
X0138941Y0301337D01*
X0138798Y0301821D01*
X0147779Y0301821D01*
X0147788Y0301859D02*
X0138795Y0301859D01*
X0138793Y0301897D02*
X0147795Y0301897D01*
X0147797Y0301935D02*
X0138790Y0301935D01*
X0138788Y0301972D02*
X0147799Y0301972D01*
X0147802Y0302010D02*
X0138785Y0302010D01*
X0138783Y0302048D02*
X0147804Y0302048D01*
X0147806Y0302086D02*
X0138781Y0302086D01*
X0138778Y0302124D02*
X0147808Y0302124D01*
X0147811Y0302162D02*
X0138776Y0302162D01*
X0138773Y0302200D02*
X0147813Y0302200D01*
X0147815Y0302238D02*
X0138771Y0302238D01*
X0138768Y0302276D02*
X0147817Y0302276D01*
X0147820Y0302313D02*
X0138766Y0302313D01*
X0138767Y0302351D02*
X0147819Y0302351D01*
X0147817Y0302389D02*
X0138769Y0302389D01*
X0138772Y0302427D02*
X0147814Y0302427D01*
X0147812Y0302465D02*
X0138774Y0302465D01*
X0138777Y0302503D02*
X0147810Y0302503D01*
X0147808Y0302541D02*
X0138779Y0302541D01*
X0138782Y0302579D02*
X0147805Y0302579D01*
X0147803Y0302616D02*
X0138784Y0302616D01*
X0138786Y0302654D02*
X0147801Y0302654D01*
X0147799Y0302692D02*
X0138789Y0302692D01*
X0138791Y0302730D02*
X0147796Y0302730D01*
X0147794Y0302768D02*
X0138794Y0302768D01*
X0138796Y0302806D02*
X0147785Y0302806D01*
X0147775Y0302844D02*
X0138802Y0302844D01*
X0138813Y0302882D02*
X0147765Y0302882D01*
X0147755Y0302920D02*
X0138824Y0302920D01*
X0138836Y0302957D02*
X0147745Y0302957D01*
X0147735Y0302995D02*
X0138847Y0302995D01*
X0138858Y0303033D02*
X0147725Y0303033D01*
X0147715Y0303071D02*
X0138869Y0303071D01*
X0138881Y0303109D02*
X0147705Y0303109D01*
X0147696Y0303147D02*
X0138892Y0303147D01*
X0138903Y0303185D02*
X0147686Y0303185D01*
X0147671Y0303223D02*
X0138914Y0303223D01*
X0138926Y0303260D02*
X0147653Y0303260D01*
X0147634Y0303298D02*
X0138937Y0303298D01*
X0138954Y0303336D02*
X0147616Y0303336D01*
X0147598Y0303374D02*
X0138975Y0303374D01*
X0138997Y0303412D02*
X0147579Y0303412D01*
X0147561Y0303450D02*
X0139018Y0303450D01*
X0139039Y0303488D02*
X0147542Y0303488D01*
X0147524Y0303526D02*
X0139061Y0303526D01*
X0139082Y0303563D02*
X0147506Y0303563D01*
X0147487Y0303601D02*
X0139103Y0303601D01*
X0139125Y0303639D02*
X0147459Y0303639D01*
X0147430Y0303677D02*
X0139146Y0303677D01*
X0139167Y0303715D02*
X0147402Y0303715D01*
X0147373Y0303753D02*
X0139189Y0303753D01*
X0139223Y0303791D02*
X0147344Y0303791D01*
X0147316Y0303829D02*
X0139257Y0303829D01*
X0139292Y0303867D02*
X0147287Y0303867D01*
X0147258Y0303904D02*
X0139326Y0303904D01*
X0139360Y0303942D02*
X0147230Y0303942D01*
X0147193Y0303980D02*
X0139395Y0303980D01*
X0139429Y0304018D02*
X0147150Y0304018D01*
X0147108Y0304056D02*
X0139464Y0304056D01*
X0139498Y0304094D02*
X0147065Y0304094D01*
X0147022Y0304132D02*
X0139534Y0304132D01*
X0139589Y0304170D02*
X0146980Y0304170D01*
X0146937Y0304207D02*
X0139643Y0304207D01*
X0139697Y0304245D02*
X0146894Y0304245D01*
X0146835Y0304283D02*
X0139752Y0304283D01*
X0139806Y0304321D02*
X0146771Y0304321D01*
X0146706Y0304359D02*
X0139860Y0304359D01*
X0139915Y0304397D02*
X0146641Y0304397D01*
X0146577Y0304435D02*
X0139987Y0304435D01*
X0140081Y0304473D02*
X0146512Y0304473D01*
X0146412Y0304511D02*
X0140174Y0304511D01*
X0140268Y0304548D02*
X0146302Y0304548D01*
X0146193Y0304586D02*
X0140361Y0304586D01*
X0140520Y0304624D02*
X0146084Y0304624D01*
X0145819Y0304662D02*
X0140754Y0304662D01*
X0138809Y0301783D02*
X0147769Y0301783D01*
X0147759Y0301745D02*
X0138820Y0301745D01*
X0138831Y0301707D02*
X0147749Y0301707D01*
X0147739Y0301669D02*
X0138843Y0301669D01*
X0138854Y0301632D02*
X0147729Y0301632D01*
X0147719Y0301594D02*
X0138865Y0301594D01*
X0138876Y0301556D02*
X0147709Y0301556D01*
X0147699Y0301518D02*
X0138888Y0301518D01*
X0138899Y0301480D02*
X0147689Y0301480D01*
X0147678Y0301442D02*
X0138910Y0301442D01*
X0138921Y0301404D02*
X0147660Y0301404D01*
X0147641Y0301366D02*
X0138933Y0301366D01*
X0138946Y0301328D02*
X0147623Y0301328D01*
X0147605Y0301291D02*
X0138967Y0301291D01*
X0138989Y0301253D02*
X0147586Y0301253D01*
X0147568Y0301215D02*
X0139010Y0301215D01*
X0139031Y0301177D02*
X0147549Y0301177D01*
X0147531Y0301139D02*
X0139053Y0301139D01*
X0139074Y0301101D02*
X0147513Y0301101D01*
X0147494Y0301063D02*
X0139095Y0301063D01*
X0139117Y0301025D02*
X0147470Y0301025D01*
X0147441Y0300988D02*
X0139138Y0300988D01*
X0139159Y0300950D02*
X0147413Y0300950D01*
X0147384Y0300912D02*
X0139181Y0300912D01*
X0139210Y0300874D02*
X0147355Y0300874D01*
X0147327Y0300836D02*
X0139244Y0300836D01*
X0139279Y0300798D02*
X0147298Y0300798D01*
X0147269Y0300760D02*
X0139313Y0300760D01*
X0139347Y0300722D02*
X0147240Y0300722D01*
X0147209Y0300685D02*
X0139382Y0300685D01*
X0139416Y0300647D02*
X0147166Y0300647D01*
X0147124Y0300609D02*
X0139451Y0300609D01*
X0139485Y0300571D02*
X0147081Y0300571D01*
X0147038Y0300533D02*
X0139519Y0300533D01*
X0139568Y0300495D02*
X0146996Y0300495D01*
X0146953Y0300457D02*
X0139622Y0300457D01*
X0139677Y0300419D02*
X0146911Y0300419D01*
X0146860Y0300381D02*
X0139731Y0300381D01*
X0139785Y0300344D02*
X0146795Y0300344D01*
X0146730Y0300306D02*
X0139840Y0300306D01*
X0139894Y0300268D02*
X0146666Y0300268D01*
X0146601Y0300230D02*
X0139952Y0300230D01*
X0140045Y0300192D02*
X0146536Y0300192D01*
X0146453Y0300154D02*
X0140139Y0300154D01*
X0140232Y0300116D02*
X0146344Y0300116D01*
X0146234Y0300078D02*
X0140326Y0300078D01*
X0140431Y0300041D02*
X0146125Y0300041D01*
X0145923Y0300003D02*
X0140665Y0300003D01*
X0140900Y0299965D02*
X0145648Y0299965D01*
D20*
X0193625Y0314003D03*
X0193625Y0332803D03*
D21*
X0163555Y0333903D03*
X0163555Y0337903D03*
D22*
X0163055Y0336653D02*
X0164055Y0336653D01*
X0164055Y0335153D01*
X0163055Y0335153D01*
X0163055Y0336653D01*
X0163055Y0336270D02*
X0164055Y0336270D01*
X0164055Y0335772D02*
X0163055Y0335772D01*
X0163055Y0335273D02*
X0164055Y0335273D01*
D23*
X0296056Y0284005D03*
X0301174Y0284005D03*
X0307306Y0283915D03*
X0312424Y0283915D03*
X0309865Y0276631D03*
X0298615Y0276721D03*
D24*
X0295635Y0323896D03*
X0288155Y0323896D03*
X0291895Y0332164D03*
X0318155Y0323896D03*
X0325635Y0323896D03*
X0321895Y0332164D03*
D25*
X0321246Y0318392D03*
X0321246Y0315833D03*
X0321246Y0313274D03*
X0327545Y0313274D03*
X0327545Y0315833D03*
X0327545Y0318392D03*
X0297045Y0317892D03*
X0297045Y0315333D03*
X0297045Y0312774D03*
X0290746Y0312774D03*
X0290746Y0315333D03*
X0290746Y0317892D03*
X0178475Y0318814D03*
X0178475Y0321373D03*
X0178475Y0323932D03*
X0172176Y0323932D03*
X0172176Y0321373D03*
X0172176Y0318814D03*
D26*
X0171098Y0330323D03*
X0171098Y0337803D03*
X0179366Y0334063D03*
D27*
X0209395Y0235617D03*
X0209395Y0231050D03*
X0214895Y0231050D03*
X0214895Y0235617D03*
X0210895Y0196117D03*
X0210895Y0191550D03*
D28*
X0207179Y0202533D03*
X0202612Y0202533D03*
X0202612Y0207933D03*
X0207179Y0207933D03*
X0207179Y0213333D03*
X0202612Y0213333D03*
X0204179Y0230333D03*
X0199612Y0230333D03*
X0199612Y0235833D03*
X0204179Y0235833D03*
D29*
X0216974Y0197967D03*
X0218942Y0197967D03*
X0220911Y0197967D03*
X0222879Y0197967D03*
X0224848Y0197967D03*
X0226816Y0197967D03*
X0226816Y0189699D03*
X0224848Y0189699D03*
X0222879Y0189699D03*
X0220911Y0189699D03*
X0218942Y0189699D03*
X0216974Y0189699D03*
D30*
X0221895Y0193833D03*
D31*
X0311395Y0192833D03*
X0321395Y0192833D03*
X0331395Y0192833D03*
X0341395Y0192833D03*
X0342395Y0202833D03*
X0332395Y0202833D03*
X0322395Y0202833D03*
X0312395Y0202833D03*
X0311395Y0212833D03*
X0321395Y0212833D03*
X0331395Y0212833D03*
X0341395Y0212833D03*
X0371895Y0247833D03*
X0371895Y0257833D03*
X0371895Y0267833D03*
X0371895Y0277833D03*
X0371895Y0287833D03*
X0371895Y0297833D03*
X0371895Y0307833D03*
X0371895Y0317833D03*
X0371895Y0327833D03*
X0371895Y0337833D03*
X0344856Y0349471D03*
X0344856Y0359471D03*
X0334856Y0359471D03*
X0324856Y0359471D03*
X0324856Y0349471D03*
X0334856Y0349471D03*
X0314856Y0349471D03*
X0314856Y0359471D03*
X0304856Y0359471D03*
X0294856Y0359471D03*
X0294856Y0349471D03*
X0304856Y0349471D03*
X0284856Y0349471D03*
X0284856Y0359471D03*
X0274856Y0359471D03*
X0264856Y0359471D03*
X0264856Y0349471D03*
X0274856Y0349471D03*
X0254856Y0349471D03*
X0254856Y0359471D03*
X0244856Y0359471D03*
X0234856Y0359471D03*
X0234856Y0349471D03*
X0244856Y0349471D03*
X0224856Y0349471D03*
X0224856Y0359471D03*
X0214856Y0359471D03*
X0204856Y0359471D03*
X0204856Y0349471D03*
X0214856Y0349471D03*
X0194856Y0349471D03*
X0194856Y0359471D03*
X0184856Y0359471D03*
X0174856Y0359471D03*
X0174856Y0349471D03*
X0184856Y0349471D03*
X0164856Y0349471D03*
X0164856Y0359471D03*
X0154856Y0359471D03*
X0154856Y0349471D03*
D32*
X0198352Y0191833D03*
X0205438Y0191833D03*
D33*
X0219802Y0159949D02*
X0222548Y0159949D01*
X0222548Y0157203D01*
X0219802Y0157203D01*
X0219802Y0159949D01*
X0219802Y0159093D02*
X0222548Y0159093D01*
X0222548Y0153043D02*
X0219802Y0153043D01*
X0222548Y0153043D02*
X0222548Y0150297D01*
X0219802Y0150297D01*
X0219802Y0153043D01*
X0219802Y0152187D02*
X0222548Y0152187D01*
D34*
X0222874Y0202522D03*
X0224842Y0202522D03*
X0226811Y0202522D03*
X0228779Y0202522D03*
X0230748Y0202522D03*
X0232716Y0202522D03*
X0234685Y0202522D03*
X0236653Y0202522D03*
X0220905Y0202522D03*
X0218937Y0202522D03*
X0218937Y0226144D03*
X0220905Y0226144D03*
X0222874Y0226144D03*
X0224842Y0226144D03*
X0226811Y0226144D03*
X0228779Y0226144D03*
X0230748Y0226144D03*
X0232716Y0226144D03*
X0234685Y0226144D03*
X0236653Y0226144D03*
D35*
X0239606Y0223191D03*
X0239606Y0221223D03*
X0239606Y0219254D03*
X0239606Y0217286D03*
X0239606Y0215317D03*
X0239606Y0213349D03*
X0239606Y0211380D03*
X0239606Y0209412D03*
X0239606Y0207443D03*
X0239606Y0205475D03*
X0215984Y0205475D03*
X0215984Y0207443D03*
X0215984Y0209412D03*
X0215984Y0211380D03*
X0215984Y0213349D03*
X0215984Y0215317D03*
X0215984Y0217286D03*
X0215984Y0219254D03*
X0215984Y0221223D03*
X0215984Y0223191D03*
D36*
X0227795Y0214333D03*
D37*
X0240783Y0258896D03*
X0240783Y0266770D03*
X0253007Y0266770D03*
X0253007Y0258896D03*
D38*
X0252801Y0260471D03*
X0252801Y0262046D03*
X0252801Y0263620D03*
X0252801Y0265195D03*
X0240990Y0265195D03*
X0240990Y0263620D03*
X0240990Y0262046D03*
X0240990Y0260471D03*
D39*
X0242958Y0256721D03*
X0250832Y0256721D03*
X0250832Y0268945D03*
X0242958Y0268945D03*
D40*
X0244533Y0268739D03*
X0246108Y0268739D03*
X0247683Y0268739D03*
X0249257Y0268739D03*
X0249257Y0256928D03*
X0247683Y0256928D03*
X0246108Y0256928D03*
X0244533Y0256928D03*
D41*
X0242364Y0258898D03*
X0242364Y0266768D03*
X0251427Y0266768D03*
X0251427Y0258898D03*
D42*
X0250830Y0258302D03*
X0242960Y0258302D03*
X0242960Y0267365D03*
X0250830Y0267365D03*
D43*
X0230214Y0262411D03*
X0225096Y0262411D03*
X0225096Y0255915D03*
X0227655Y0255915D03*
X0230214Y0255915D03*
D44*
X0239927Y0246164D03*
X0243864Y0246164D03*
X0241895Y0241636D03*
X0249927Y0246164D03*
X0253864Y0246164D03*
X0251895Y0241636D03*
X0243864Y0279502D03*
X0239927Y0279502D03*
X0241895Y0284030D03*
X0228224Y0279532D03*
X0224287Y0279532D03*
X0226255Y0284060D03*
D45*
X0231555Y0283922D03*
X0231555Y0279985D03*
X0236225Y0280065D03*
X0236225Y0284002D03*
X0239887Y0275333D03*
X0243824Y0275333D03*
X0228224Y0275363D03*
X0224287Y0275363D03*
X0239927Y0250333D03*
X0243864Y0250333D03*
X0249927Y0250333D03*
X0253864Y0250333D03*
D46*
X0160895Y0160333D03*
X0170895Y0160333D03*
X0180895Y0160333D03*
X0190895Y0160333D03*
X0200895Y0160333D03*
X0210895Y0160333D03*
X0230895Y0160333D03*
X0240895Y0160333D03*
X0250895Y0160333D03*
X0260895Y0160333D03*
X0270895Y0160333D03*
X0280895Y0160333D03*
D47*
X0182919Y0245333D03*
X0182919Y0250333D03*
X0182919Y0255333D03*
X0182919Y0260333D03*
X0182919Y0265333D03*
X0182919Y0270333D03*
X0182919Y0275333D03*
X0160872Y0275333D03*
X0160872Y0270333D03*
X0160872Y0265333D03*
X0160872Y0260333D03*
X0160872Y0255333D03*
X0160872Y0250333D03*
X0160872Y0245333D03*
D48*
X0261895Y0225333D03*
X0261895Y0220333D03*
X0266895Y0220333D03*
X0266895Y0225333D03*
X0271895Y0225333D03*
X0271895Y0220333D03*
X0276895Y0220333D03*
X0276895Y0225333D03*
X0281895Y0225333D03*
X0281895Y0220333D03*
D49*
X0364021Y0161613D03*
X0135675Y0161613D03*
X0135675Y0354526D03*
X0364021Y0354526D03*
D50*
X0124949Y0344339D03*
X0352745Y0151317D03*
M02*
