G04 EAGLE Gerber RS-274X export*
G75*
%MOMM*%
%FSLAX34Y34*%
%LPD*%
%INSoldermask Bottom*%
%IPPOS*%
%AMOC8*
5,1,8,0,0,1.08239X$1,22.5*%
G01*
%ADD10C,0.853200*%
%ADD11R,1.473200X0.838200*%
%ADD12R,0.838200X1.473200*%
%ADD13C,1.219200*%
%ADD14C,0.762000*%
%ADD15C,2.082800*%
%ADD16R,1.727200X1.727200*%
%ADD17C,1.221313*%
%ADD18C,1.203200*%
%ADD19R,1.223200X2.073200*%
%ADD20C,3.251200*%
%ADD21C,0.838200*%
%ADD22C,1.270000*%
%ADD23C,1.703200*%

G36*
X1062057Y663305D02*
X1062057Y663305D01*
X1062116Y663303D01*
X1062197Y663324D01*
X1062281Y663336D01*
X1062334Y663360D01*
X1062391Y663375D01*
X1062463Y663418D01*
X1062540Y663452D01*
X1062585Y663490D01*
X1062635Y663520D01*
X1062693Y663582D01*
X1062757Y663636D01*
X1062790Y663685D01*
X1062830Y663727D01*
X1062868Y663803D01*
X1062915Y663873D01*
X1062933Y663929D01*
X1062959Y663981D01*
X1062971Y664049D01*
X1063001Y664144D01*
X1063003Y664244D01*
X1063015Y664312D01*
X1063015Y722732D01*
X1063006Y722789D01*
X1063008Y722848D01*
X1062987Y722930D01*
X1062975Y723013D01*
X1062951Y723066D01*
X1062936Y723123D01*
X1062893Y723195D01*
X1062859Y723273D01*
X1062821Y723317D01*
X1062791Y723367D01*
X1062729Y723425D01*
X1062675Y723490D01*
X1062626Y723522D01*
X1062584Y723562D01*
X1062509Y723600D01*
X1062438Y723647D01*
X1062382Y723665D01*
X1062330Y723691D01*
X1062262Y723703D01*
X1062167Y723733D01*
X1062067Y723735D01*
X1061999Y723747D01*
X807999Y723747D01*
X807942Y723739D01*
X807883Y723740D01*
X807801Y723719D01*
X807718Y723707D01*
X807665Y723683D01*
X807608Y723668D01*
X807536Y723625D01*
X807459Y723591D01*
X807414Y723553D01*
X807364Y723523D01*
X807306Y723462D01*
X807242Y723407D01*
X807209Y723358D01*
X807169Y723316D01*
X807131Y723241D01*
X807084Y723170D01*
X807066Y723115D01*
X807040Y723063D01*
X807028Y722995D01*
X806998Y722899D01*
X806996Y722800D01*
X806984Y722732D01*
X806984Y664312D01*
X806992Y664254D01*
X806991Y664195D01*
X807012Y664114D01*
X807024Y664030D01*
X807048Y663977D01*
X807063Y663920D01*
X807106Y663848D01*
X807140Y663771D01*
X807178Y663726D01*
X807208Y663676D01*
X807269Y663618D01*
X807324Y663554D01*
X807373Y663521D01*
X807415Y663481D01*
X807490Y663443D01*
X807561Y663396D01*
X807616Y663378D01*
X807668Y663352D01*
X807736Y663340D01*
X807832Y663310D01*
X807931Y663308D01*
X807999Y663296D01*
X1061999Y663296D01*
X1062057Y663305D01*
G37*
G36*
X1743031Y663305D02*
X1743031Y663305D01*
X1743090Y663303D01*
X1743171Y663324D01*
X1743255Y663336D01*
X1743308Y663360D01*
X1743365Y663375D01*
X1743437Y663418D01*
X1743514Y663452D01*
X1743559Y663490D01*
X1743609Y663520D01*
X1743667Y663582D01*
X1743731Y663636D01*
X1743764Y663685D01*
X1743804Y663727D01*
X1743842Y663803D01*
X1743889Y663873D01*
X1743907Y663929D01*
X1743933Y663981D01*
X1743945Y664049D01*
X1743975Y664144D01*
X1743977Y664244D01*
X1743989Y664312D01*
X1743989Y722732D01*
X1743980Y722789D01*
X1743982Y722848D01*
X1743961Y722930D01*
X1743949Y723013D01*
X1743925Y723066D01*
X1743910Y723123D01*
X1743867Y723195D01*
X1743833Y723273D01*
X1743795Y723317D01*
X1743765Y723367D01*
X1743703Y723425D01*
X1743649Y723490D01*
X1743600Y723522D01*
X1743558Y723562D01*
X1743483Y723600D01*
X1743412Y723647D01*
X1743356Y723665D01*
X1743304Y723691D01*
X1743236Y723703D01*
X1743141Y723733D01*
X1743041Y723735D01*
X1742973Y723747D01*
X1488973Y723747D01*
X1488916Y723739D01*
X1488857Y723740D01*
X1488775Y723719D01*
X1488692Y723707D01*
X1488639Y723683D01*
X1488582Y723668D01*
X1488510Y723625D01*
X1488433Y723591D01*
X1488388Y723553D01*
X1488338Y723523D01*
X1488280Y723462D01*
X1488216Y723407D01*
X1488183Y723358D01*
X1488143Y723316D01*
X1488105Y723241D01*
X1488058Y723170D01*
X1488040Y723115D01*
X1488014Y723063D01*
X1488002Y722995D01*
X1487972Y722899D01*
X1487970Y722800D01*
X1487958Y722732D01*
X1487958Y664312D01*
X1487966Y664254D01*
X1487965Y664195D01*
X1487986Y664114D01*
X1487998Y664030D01*
X1488022Y663977D01*
X1488037Y663920D01*
X1488080Y663848D01*
X1488114Y663771D01*
X1488152Y663726D01*
X1488182Y663676D01*
X1488243Y663618D01*
X1488298Y663554D01*
X1488347Y663521D01*
X1488389Y663481D01*
X1488464Y663443D01*
X1488535Y663396D01*
X1488590Y663378D01*
X1488642Y663352D01*
X1488710Y663340D01*
X1488806Y663310D01*
X1488905Y663308D01*
X1488973Y663296D01*
X1742973Y663296D01*
X1743031Y663305D01*
G37*
G36*
X381058Y663305D02*
X381058Y663305D01*
X381116Y663303D01*
X381198Y663324D01*
X381282Y663336D01*
X381335Y663360D01*
X381391Y663375D01*
X381464Y663418D01*
X381541Y663452D01*
X381586Y663490D01*
X381636Y663520D01*
X381694Y663582D01*
X381758Y663636D01*
X381790Y663685D01*
X381830Y663727D01*
X381869Y663803D01*
X381916Y663873D01*
X381933Y663929D01*
X381960Y663981D01*
X381971Y664049D01*
X382001Y664144D01*
X382004Y664244D01*
X382015Y664312D01*
X382015Y722732D01*
X382007Y722789D01*
X382009Y722848D01*
X381987Y722930D01*
X381975Y723013D01*
X381952Y723066D01*
X381937Y723123D01*
X381894Y723195D01*
X381859Y723273D01*
X381821Y723317D01*
X381792Y723367D01*
X381730Y723425D01*
X381676Y723490D01*
X381627Y723522D01*
X381584Y723562D01*
X381509Y723600D01*
X381439Y723647D01*
X381383Y723665D01*
X381331Y723691D01*
X381263Y723703D01*
X381168Y723733D01*
X381068Y723735D01*
X381000Y723747D01*
X127000Y723747D01*
X126942Y723739D01*
X126884Y723740D01*
X126802Y723719D01*
X126719Y723707D01*
X126665Y723683D01*
X126609Y723668D01*
X126536Y723625D01*
X126459Y723591D01*
X126414Y723553D01*
X126364Y723523D01*
X126306Y723462D01*
X126242Y723407D01*
X126210Y723358D01*
X126170Y723316D01*
X126131Y723241D01*
X126085Y723170D01*
X126067Y723115D01*
X126040Y723063D01*
X126029Y722995D01*
X125999Y722899D01*
X125996Y722800D01*
X125985Y722732D01*
X125985Y664312D01*
X125993Y664254D01*
X125991Y664195D01*
X126013Y664114D01*
X126025Y664030D01*
X126049Y663977D01*
X126063Y663920D01*
X126106Y663848D01*
X126141Y663771D01*
X126179Y663726D01*
X126209Y663676D01*
X126270Y663618D01*
X126325Y663554D01*
X126373Y663521D01*
X126416Y663481D01*
X126491Y663443D01*
X126561Y663396D01*
X126617Y663378D01*
X126669Y663352D01*
X126737Y663340D01*
X126832Y663310D01*
X126932Y663308D01*
X127000Y663296D01*
X381000Y663296D01*
X381058Y663305D01*
G37*
G36*
X1743031Y87893D02*
X1743031Y87893D01*
X1743090Y87891D01*
X1743171Y87913D01*
X1743255Y87925D01*
X1743308Y87949D01*
X1743365Y87963D01*
X1743437Y88006D01*
X1743514Y88041D01*
X1743559Y88079D01*
X1743609Y88109D01*
X1743667Y88170D01*
X1743731Y88225D01*
X1743764Y88273D01*
X1743804Y88316D01*
X1743842Y88391D01*
X1743889Y88461D01*
X1743907Y88517D01*
X1743933Y88569D01*
X1743945Y88637D01*
X1743975Y88732D01*
X1743977Y88832D01*
X1743989Y88900D01*
X1743989Y147320D01*
X1743980Y147378D01*
X1743982Y147436D01*
X1743961Y147518D01*
X1743949Y147602D01*
X1743925Y147655D01*
X1743910Y147711D01*
X1743867Y147784D01*
X1743833Y147861D01*
X1743795Y147906D01*
X1743765Y147956D01*
X1743703Y148014D01*
X1743649Y148078D01*
X1743600Y148110D01*
X1743558Y148150D01*
X1743483Y148189D01*
X1743412Y148236D01*
X1743356Y148253D01*
X1743304Y148280D01*
X1743236Y148291D01*
X1743141Y148321D01*
X1743041Y148324D01*
X1742973Y148335D01*
X1488973Y148335D01*
X1488916Y148327D01*
X1488857Y148329D01*
X1488775Y148307D01*
X1488692Y148295D01*
X1488639Y148272D01*
X1488582Y148257D01*
X1488510Y148214D01*
X1488433Y148179D01*
X1488388Y148141D01*
X1488338Y148112D01*
X1488280Y148050D01*
X1488216Y147996D01*
X1488183Y147947D01*
X1488143Y147904D01*
X1488105Y147829D01*
X1488058Y147759D01*
X1488040Y147703D01*
X1488014Y147651D01*
X1488002Y147583D01*
X1487972Y147488D01*
X1487970Y147388D01*
X1487958Y147320D01*
X1487958Y88900D01*
X1487966Y88842D01*
X1487965Y88784D01*
X1487986Y88702D01*
X1487998Y88619D01*
X1488022Y88565D01*
X1488037Y88509D01*
X1488080Y88436D01*
X1488114Y88359D01*
X1488152Y88314D01*
X1488182Y88264D01*
X1488243Y88206D01*
X1488298Y88142D01*
X1488347Y88110D01*
X1488389Y88070D01*
X1488464Y88031D01*
X1488535Y87985D01*
X1488590Y87967D01*
X1488642Y87940D01*
X1488710Y87929D01*
X1488806Y87899D01*
X1488905Y87896D01*
X1488973Y87885D01*
X1742973Y87885D01*
X1743031Y87893D01*
G37*
G36*
X1062057Y87893D02*
X1062057Y87893D01*
X1062116Y87891D01*
X1062197Y87913D01*
X1062281Y87925D01*
X1062334Y87949D01*
X1062391Y87963D01*
X1062463Y88006D01*
X1062540Y88041D01*
X1062585Y88079D01*
X1062635Y88109D01*
X1062693Y88170D01*
X1062757Y88225D01*
X1062790Y88273D01*
X1062830Y88316D01*
X1062868Y88391D01*
X1062915Y88461D01*
X1062933Y88517D01*
X1062959Y88569D01*
X1062971Y88637D01*
X1063001Y88732D01*
X1063003Y88832D01*
X1063015Y88900D01*
X1063015Y147320D01*
X1063006Y147378D01*
X1063008Y147436D01*
X1062987Y147518D01*
X1062975Y147602D01*
X1062951Y147655D01*
X1062936Y147711D01*
X1062893Y147784D01*
X1062859Y147861D01*
X1062821Y147906D01*
X1062791Y147956D01*
X1062729Y148014D01*
X1062675Y148078D01*
X1062626Y148110D01*
X1062584Y148150D01*
X1062509Y148189D01*
X1062438Y148236D01*
X1062382Y148253D01*
X1062330Y148280D01*
X1062262Y148291D01*
X1062167Y148321D01*
X1062067Y148324D01*
X1061999Y148335D01*
X807999Y148335D01*
X807942Y148327D01*
X807883Y148329D01*
X807801Y148307D01*
X807718Y148295D01*
X807665Y148272D01*
X807608Y148257D01*
X807536Y148214D01*
X807459Y148179D01*
X807414Y148141D01*
X807364Y148112D01*
X807306Y148050D01*
X807242Y147996D01*
X807209Y147947D01*
X807169Y147904D01*
X807131Y147829D01*
X807084Y147759D01*
X807066Y147703D01*
X807040Y147651D01*
X807028Y147583D01*
X806998Y147488D01*
X806996Y147388D01*
X806984Y147320D01*
X806984Y88900D01*
X806992Y88842D01*
X806991Y88784D01*
X807012Y88702D01*
X807024Y88619D01*
X807048Y88565D01*
X807063Y88509D01*
X807106Y88436D01*
X807140Y88359D01*
X807178Y88314D01*
X807208Y88264D01*
X807269Y88206D01*
X807324Y88142D01*
X807373Y88110D01*
X807415Y88070D01*
X807490Y88031D01*
X807561Y87985D01*
X807616Y87967D01*
X807668Y87940D01*
X807736Y87929D01*
X807832Y87899D01*
X807931Y87896D01*
X807999Y87885D01*
X1061999Y87885D01*
X1062057Y87893D01*
G37*
G36*
X381058Y87893D02*
X381058Y87893D01*
X381116Y87891D01*
X381198Y87913D01*
X381282Y87925D01*
X381335Y87949D01*
X381391Y87963D01*
X381464Y88006D01*
X381541Y88041D01*
X381586Y88079D01*
X381636Y88109D01*
X381694Y88170D01*
X381758Y88225D01*
X381790Y88273D01*
X381830Y88316D01*
X381869Y88391D01*
X381916Y88461D01*
X381933Y88517D01*
X381960Y88569D01*
X381971Y88637D01*
X382001Y88732D01*
X382004Y88832D01*
X382015Y88900D01*
X382015Y147320D01*
X382007Y147378D01*
X382009Y147436D01*
X381987Y147518D01*
X381975Y147602D01*
X381952Y147655D01*
X381937Y147711D01*
X381894Y147784D01*
X381859Y147861D01*
X381821Y147906D01*
X381792Y147956D01*
X381730Y148014D01*
X381676Y148078D01*
X381627Y148110D01*
X381584Y148150D01*
X381509Y148189D01*
X381439Y148236D01*
X381383Y148253D01*
X381331Y148280D01*
X381263Y148291D01*
X381168Y148321D01*
X381068Y148324D01*
X381000Y148335D01*
X127000Y148335D01*
X126942Y148327D01*
X126884Y148329D01*
X126802Y148307D01*
X126719Y148295D01*
X126665Y148272D01*
X126609Y148257D01*
X126536Y148214D01*
X126459Y148179D01*
X126414Y148141D01*
X126364Y148112D01*
X126306Y148050D01*
X126242Y147996D01*
X126210Y147947D01*
X126170Y147904D01*
X126131Y147829D01*
X126085Y147759D01*
X126067Y147703D01*
X126040Y147651D01*
X126029Y147583D01*
X125999Y147488D01*
X125996Y147388D01*
X125985Y147320D01*
X125985Y88900D01*
X125993Y88842D01*
X125991Y88784D01*
X126013Y88702D01*
X126025Y88619D01*
X126049Y88565D01*
X126063Y88509D01*
X126106Y88436D01*
X126141Y88359D01*
X126179Y88314D01*
X126209Y88264D01*
X126270Y88206D01*
X126325Y88142D01*
X126373Y88110D01*
X126416Y88070D01*
X126491Y88031D01*
X126561Y87985D01*
X126617Y87967D01*
X126669Y87940D01*
X126737Y87929D01*
X126832Y87899D01*
X126932Y87896D01*
X127000Y87885D01*
X381000Y87885D01*
X381058Y87893D01*
G37*
G36*
X1851623Y953020D02*
X1851623Y953020D01*
X1851689Y953022D01*
X1851733Y953040D01*
X1851779Y953048D01*
X1851836Y953082D01*
X1851897Y953107D01*
X1851932Y953138D01*
X1851972Y953163D01*
X1852014Y953214D01*
X1852062Y953258D01*
X1852084Y953300D01*
X1852114Y953337D01*
X1852135Y953399D01*
X1852165Y953458D01*
X1852173Y953512D01*
X1852186Y953549D01*
X1852185Y953589D01*
X1852193Y953643D01*
X1852193Y956183D01*
X1852181Y956248D01*
X1852179Y956314D01*
X1852161Y956357D01*
X1852153Y956404D01*
X1852119Y956461D01*
X1852095Y956521D01*
X1852063Y956556D01*
X1852039Y956597D01*
X1851988Y956639D01*
X1851943Y956687D01*
X1851901Y956709D01*
X1851865Y956738D01*
X1851802Y956759D01*
X1851744Y956790D01*
X1851689Y956798D01*
X1851652Y956810D01*
X1851613Y956809D01*
X1851558Y956817D01*
X1837588Y956817D01*
X1837524Y956806D01*
X1837458Y956804D01*
X1837414Y956786D01*
X1837368Y956778D01*
X1837311Y956744D01*
X1837250Y956719D01*
X1837215Y956688D01*
X1837174Y956663D01*
X1837133Y956612D01*
X1837084Y956568D01*
X1837063Y956526D01*
X1837033Y956489D01*
X1837012Y956427D01*
X1836982Y956368D01*
X1836974Y956314D01*
X1836961Y956277D01*
X1836961Y956274D01*
X1836962Y956237D01*
X1836954Y956183D01*
X1836954Y953643D01*
X1836966Y953578D01*
X1836968Y953512D01*
X1836985Y953469D01*
X1836994Y953422D01*
X1837027Y953365D01*
X1837052Y953305D01*
X1837084Y953270D01*
X1837108Y953229D01*
X1837159Y953188D01*
X1837203Y953139D01*
X1837245Y953117D01*
X1837282Y953088D01*
X1837344Y953067D01*
X1837403Y953036D01*
X1837457Y953028D01*
X1837495Y953016D01*
X1837534Y953017D01*
X1837588Y953009D01*
X1851558Y953009D01*
X1851623Y953020D01*
G37*
G36*
X1170649Y953020D02*
X1170649Y953020D01*
X1170715Y953022D01*
X1170759Y953040D01*
X1170805Y953048D01*
X1170862Y953082D01*
X1170923Y953107D01*
X1170958Y953138D01*
X1170998Y953163D01*
X1171040Y953214D01*
X1171088Y953258D01*
X1171110Y953300D01*
X1171140Y953337D01*
X1171161Y953399D01*
X1171191Y953458D01*
X1171199Y953512D01*
X1171212Y953549D01*
X1171211Y953589D01*
X1171219Y953643D01*
X1171219Y956183D01*
X1171207Y956248D01*
X1171205Y956314D01*
X1171187Y956357D01*
X1171179Y956404D01*
X1171145Y956461D01*
X1171121Y956521D01*
X1171089Y956556D01*
X1171065Y956597D01*
X1171014Y956639D01*
X1170969Y956687D01*
X1170927Y956709D01*
X1170891Y956738D01*
X1170828Y956759D01*
X1170770Y956790D01*
X1170715Y956798D01*
X1170678Y956810D01*
X1170639Y956809D01*
X1170584Y956817D01*
X1156614Y956817D01*
X1156550Y956806D01*
X1156484Y956804D01*
X1156440Y956786D01*
X1156394Y956778D01*
X1156337Y956744D01*
X1156276Y956719D01*
X1156241Y956688D01*
X1156200Y956663D01*
X1156159Y956612D01*
X1156110Y956568D01*
X1156089Y956526D01*
X1156059Y956489D01*
X1156038Y956427D01*
X1156008Y956368D01*
X1156000Y956314D01*
X1155987Y956277D01*
X1155987Y956274D01*
X1155988Y956237D01*
X1155980Y956183D01*
X1155980Y953643D01*
X1155992Y953578D01*
X1155994Y953512D01*
X1156011Y953469D01*
X1156020Y953422D01*
X1156053Y953365D01*
X1156078Y953305D01*
X1156110Y953270D01*
X1156134Y953229D01*
X1156185Y953188D01*
X1156229Y953139D01*
X1156271Y953117D01*
X1156308Y953088D01*
X1156370Y953067D01*
X1156429Y953036D01*
X1156483Y953028D01*
X1156521Y953016D01*
X1156560Y953017D01*
X1156614Y953009D01*
X1170584Y953009D01*
X1170649Y953020D01*
G37*
G36*
X489650Y953020D02*
X489650Y953020D01*
X489716Y953022D01*
X489759Y953040D01*
X489806Y953048D01*
X489863Y953082D01*
X489923Y953107D01*
X489958Y953138D01*
X489999Y953163D01*
X490040Y953214D01*
X490089Y953258D01*
X490111Y953300D01*
X490140Y953337D01*
X490161Y953399D01*
X490192Y953458D01*
X490200Y953512D01*
X490212Y953549D01*
X490211Y953589D01*
X490219Y953643D01*
X490219Y956183D01*
X490208Y956248D01*
X490206Y956314D01*
X490188Y956357D01*
X490180Y956404D01*
X490146Y956461D01*
X490121Y956521D01*
X490090Y956556D01*
X490065Y956597D01*
X490014Y956639D01*
X489970Y956687D01*
X489928Y956709D01*
X489891Y956738D01*
X489829Y956759D01*
X489770Y956790D01*
X489716Y956798D01*
X489679Y956810D01*
X489639Y956809D01*
X489585Y956817D01*
X475615Y956817D01*
X475550Y956806D01*
X475484Y956804D01*
X475441Y956786D01*
X475394Y956778D01*
X475337Y956744D01*
X475277Y956719D01*
X475242Y956688D01*
X475201Y956663D01*
X475159Y956612D01*
X475111Y956568D01*
X475089Y956526D01*
X475060Y956489D01*
X475039Y956427D01*
X475008Y956368D01*
X475000Y956314D01*
X474988Y956277D01*
X474988Y956274D01*
X474989Y956237D01*
X474981Y956183D01*
X474981Y953643D01*
X474992Y953578D01*
X474994Y953512D01*
X475012Y953469D01*
X475020Y953422D01*
X475054Y953365D01*
X475079Y953305D01*
X475110Y953270D01*
X475135Y953229D01*
X475186Y953188D01*
X475230Y953139D01*
X475272Y953117D01*
X475309Y953088D01*
X475371Y953067D01*
X475430Y953036D01*
X475484Y953028D01*
X475521Y953016D01*
X475561Y953017D01*
X475615Y953009D01*
X489585Y953009D01*
X489650Y953020D01*
G37*
G36*
X1170649Y377609D02*
X1170649Y377609D01*
X1170715Y377611D01*
X1170759Y377628D01*
X1170805Y377637D01*
X1170862Y377670D01*
X1170923Y377695D01*
X1170958Y377727D01*
X1170998Y377751D01*
X1171040Y377802D01*
X1171088Y377846D01*
X1171110Y377889D01*
X1171140Y377925D01*
X1171161Y377987D01*
X1171191Y378046D01*
X1171199Y378100D01*
X1171212Y378138D01*
X1171211Y378177D01*
X1171219Y378231D01*
X1171219Y380771D01*
X1171207Y380836D01*
X1171205Y380902D01*
X1171187Y380946D01*
X1171179Y380992D01*
X1171145Y381049D01*
X1171121Y381110D01*
X1171089Y381145D01*
X1171065Y381185D01*
X1171014Y381227D01*
X1170969Y381275D01*
X1170927Y381297D01*
X1170891Y381327D01*
X1170828Y381348D01*
X1170770Y381378D01*
X1170715Y381386D01*
X1170678Y381399D01*
X1170639Y381398D01*
X1170584Y381406D01*
X1156614Y381406D01*
X1156550Y381394D01*
X1156484Y381392D01*
X1156440Y381374D01*
X1156394Y381366D01*
X1156337Y381332D01*
X1156276Y381308D01*
X1156241Y381276D01*
X1156200Y381252D01*
X1156159Y381201D01*
X1156110Y381156D01*
X1156089Y381114D01*
X1156059Y381078D01*
X1156038Y381015D01*
X1156008Y380957D01*
X1156000Y380902D01*
X1155987Y380865D01*
X1155987Y380862D01*
X1155988Y380825D01*
X1155980Y380771D01*
X1155980Y378231D01*
X1155992Y378167D01*
X1155994Y378101D01*
X1156011Y378057D01*
X1156020Y378011D01*
X1156053Y377954D01*
X1156078Y377893D01*
X1156110Y377858D01*
X1156134Y377817D01*
X1156185Y377776D01*
X1156229Y377727D01*
X1156271Y377706D01*
X1156308Y377676D01*
X1156370Y377655D01*
X1156429Y377625D01*
X1156483Y377617D01*
X1156521Y377604D01*
X1156560Y377605D01*
X1156614Y377597D01*
X1170584Y377597D01*
X1170649Y377609D01*
G37*
G36*
X489650Y377609D02*
X489650Y377609D01*
X489716Y377611D01*
X489759Y377628D01*
X489806Y377637D01*
X489863Y377670D01*
X489923Y377695D01*
X489958Y377727D01*
X489999Y377751D01*
X490040Y377802D01*
X490089Y377846D01*
X490111Y377889D01*
X490140Y377925D01*
X490161Y377987D01*
X490192Y378046D01*
X490200Y378100D01*
X490212Y378138D01*
X490211Y378177D01*
X490219Y378231D01*
X490219Y380771D01*
X490208Y380836D01*
X490206Y380902D01*
X490188Y380946D01*
X490180Y380992D01*
X490146Y381049D01*
X490121Y381110D01*
X490090Y381145D01*
X490065Y381185D01*
X490014Y381227D01*
X489970Y381275D01*
X489928Y381297D01*
X489891Y381327D01*
X489829Y381348D01*
X489770Y381378D01*
X489716Y381386D01*
X489679Y381399D01*
X489639Y381398D01*
X489585Y381406D01*
X475615Y381406D01*
X475550Y381394D01*
X475484Y381392D01*
X475441Y381374D01*
X475394Y381366D01*
X475337Y381332D01*
X475277Y381308D01*
X475242Y381276D01*
X475201Y381252D01*
X475159Y381201D01*
X475111Y381156D01*
X475089Y381114D01*
X475060Y381078D01*
X475039Y381015D01*
X475008Y380957D01*
X475000Y380902D01*
X474988Y380865D01*
X474988Y380862D01*
X474989Y380825D01*
X474981Y380771D01*
X474981Y378231D01*
X474992Y378167D01*
X474994Y378101D01*
X475012Y378057D01*
X475020Y378011D01*
X475054Y377954D01*
X475079Y377893D01*
X475110Y377858D01*
X475135Y377817D01*
X475186Y377776D01*
X475230Y377727D01*
X475272Y377706D01*
X475309Y377676D01*
X475371Y377655D01*
X475430Y377625D01*
X475484Y377617D01*
X475521Y377604D01*
X475561Y377605D01*
X475615Y377597D01*
X489585Y377597D01*
X489650Y377609D01*
G37*
G36*
X1851623Y377609D02*
X1851623Y377609D01*
X1851689Y377611D01*
X1851733Y377628D01*
X1851779Y377637D01*
X1851836Y377670D01*
X1851897Y377695D01*
X1851932Y377727D01*
X1851972Y377751D01*
X1852014Y377802D01*
X1852062Y377846D01*
X1852084Y377889D01*
X1852114Y377925D01*
X1852135Y377987D01*
X1852165Y378046D01*
X1852173Y378100D01*
X1852186Y378138D01*
X1852185Y378177D01*
X1852193Y378231D01*
X1852193Y380771D01*
X1852181Y380836D01*
X1852179Y380902D01*
X1852161Y380946D01*
X1852153Y380992D01*
X1852119Y381049D01*
X1852095Y381110D01*
X1852063Y381145D01*
X1852039Y381185D01*
X1851988Y381227D01*
X1851943Y381275D01*
X1851901Y381297D01*
X1851865Y381327D01*
X1851802Y381348D01*
X1851744Y381378D01*
X1851689Y381386D01*
X1851652Y381399D01*
X1851613Y381398D01*
X1851558Y381406D01*
X1837588Y381406D01*
X1837524Y381394D01*
X1837458Y381392D01*
X1837414Y381374D01*
X1837368Y381366D01*
X1837311Y381332D01*
X1837250Y381308D01*
X1837215Y381276D01*
X1837174Y381252D01*
X1837133Y381201D01*
X1837084Y381156D01*
X1837063Y381114D01*
X1837033Y381078D01*
X1837012Y381015D01*
X1836982Y380957D01*
X1836974Y380902D01*
X1836961Y380865D01*
X1836961Y380862D01*
X1836962Y380825D01*
X1836954Y380771D01*
X1836954Y378231D01*
X1836966Y378167D01*
X1836968Y378101D01*
X1836985Y378057D01*
X1836994Y378011D01*
X1837027Y377954D01*
X1837052Y377893D01*
X1837084Y377858D01*
X1837108Y377817D01*
X1837159Y377776D01*
X1837203Y377727D01*
X1837245Y377706D01*
X1837282Y377676D01*
X1837344Y377655D01*
X1837403Y377625D01*
X1837457Y377617D01*
X1837495Y377604D01*
X1837534Y377605D01*
X1837588Y377597D01*
X1851558Y377597D01*
X1851623Y377609D01*
G37*
G36*
X859855Y890435D02*
X859855Y890435D01*
X859921Y890437D01*
X859964Y890454D01*
X860011Y890463D01*
X860068Y890496D01*
X860129Y890521D01*
X860163Y890553D01*
X860204Y890577D01*
X860246Y890628D01*
X860294Y890672D01*
X860316Y890714D01*
X860345Y890751D01*
X860367Y890813D01*
X860397Y890872D01*
X860405Y890926D01*
X860417Y890964D01*
X860416Y891003D01*
X860424Y891057D01*
X860424Y894867D01*
X860413Y894932D01*
X860411Y894998D01*
X860393Y895042D01*
X860385Y895088D01*
X860351Y895145D01*
X860326Y895206D01*
X860295Y895241D01*
X860271Y895281D01*
X860219Y895323D01*
X860175Y895371D01*
X860133Y895393D01*
X860096Y895423D01*
X860034Y895444D01*
X859975Y895474D01*
X859921Y895482D01*
X859884Y895495D01*
X859844Y895494D01*
X859790Y895502D01*
X857250Y895502D01*
X857185Y895490D01*
X857120Y895488D01*
X857076Y895470D01*
X857029Y895462D01*
X856972Y895428D01*
X856912Y895404D01*
X856877Y895372D01*
X856836Y895348D01*
X856795Y895297D01*
X856746Y895252D01*
X856724Y895210D01*
X856695Y895174D01*
X856674Y895111D01*
X856643Y895053D01*
X856635Y894998D01*
X856623Y894961D01*
X856623Y894957D01*
X856624Y894921D01*
X856616Y894867D01*
X856616Y891057D01*
X856627Y890993D01*
X856629Y890927D01*
X856647Y890883D01*
X856655Y890837D01*
X856689Y890780D01*
X856714Y890719D01*
X856746Y890684D01*
X856770Y890643D01*
X856821Y890602D01*
X856865Y890553D01*
X856907Y890532D01*
X856944Y890502D01*
X857006Y890481D01*
X857065Y890451D01*
X857119Y890443D01*
X857156Y890430D01*
X857196Y890431D01*
X857250Y890423D01*
X859790Y890423D01*
X859855Y890435D01*
G37*
G36*
X178855Y890435D02*
X178855Y890435D01*
X178921Y890437D01*
X178965Y890454D01*
X179011Y890463D01*
X179068Y890496D01*
X179129Y890521D01*
X179164Y890553D01*
X179205Y890577D01*
X179246Y890628D01*
X179295Y890672D01*
X179316Y890714D01*
X179346Y890751D01*
X179367Y890813D01*
X179397Y890872D01*
X179405Y890926D01*
X179418Y890964D01*
X179417Y891003D01*
X179425Y891057D01*
X179425Y894867D01*
X179413Y894932D01*
X179411Y894998D01*
X179394Y895042D01*
X179385Y895088D01*
X179352Y895145D01*
X179327Y895206D01*
X179295Y895241D01*
X179271Y895281D01*
X179220Y895323D01*
X179176Y895371D01*
X179134Y895393D01*
X179097Y895423D01*
X179035Y895444D01*
X178976Y895474D01*
X178922Y895482D01*
X178884Y895495D01*
X178845Y895494D01*
X178791Y895502D01*
X176251Y895502D01*
X176186Y895490D01*
X176120Y895488D01*
X176076Y895470D01*
X176030Y895462D01*
X175973Y895428D01*
X175912Y895404D01*
X175877Y895372D01*
X175837Y895348D01*
X175795Y895297D01*
X175747Y895252D01*
X175725Y895210D01*
X175695Y895174D01*
X175674Y895111D01*
X175644Y895053D01*
X175636Y894998D01*
X175623Y894961D01*
X175623Y894957D01*
X175624Y894921D01*
X175616Y894867D01*
X175616Y891057D01*
X175628Y890993D01*
X175630Y890927D01*
X175648Y890883D01*
X175656Y890837D01*
X175690Y890780D01*
X175714Y890719D01*
X175746Y890684D01*
X175770Y890643D01*
X175821Y890602D01*
X175866Y890553D01*
X175908Y890532D01*
X175944Y890502D01*
X176007Y890481D01*
X176065Y890451D01*
X176120Y890443D01*
X176157Y890430D01*
X176196Y890431D01*
X176251Y890423D01*
X178791Y890423D01*
X178855Y890435D01*
G37*
G36*
X1540829Y890435D02*
X1540829Y890435D01*
X1540895Y890437D01*
X1540938Y890454D01*
X1540985Y890463D01*
X1541042Y890496D01*
X1541103Y890521D01*
X1541137Y890553D01*
X1541178Y890577D01*
X1541220Y890628D01*
X1541268Y890672D01*
X1541290Y890714D01*
X1541319Y890751D01*
X1541341Y890813D01*
X1541371Y890872D01*
X1541379Y890926D01*
X1541391Y890964D01*
X1541390Y891003D01*
X1541398Y891057D01*
X1541398Y894867D01*
X1541387Y894932D01*
X1541385Y894998D01*
X1541367Y895042D01*
X1541359Y895088D01*
X1541325Y895145D01*
X1541300Y895206D01*
X1541269Y895241D01*
X1541245Y895281D01*
X1541193Y895323D01*
X1541149Y895371D01*
X1541107Y895393D01*
X1541070Y895423D01*
X1541008Y895444D01*
X1540949Y895474D01*
X1540895Y895482D01*
X1540858Y895495D01*
X1540818Y895494D01*
X1540764Y895502D01*
X1538224Y895502D01*
X1538159Y895490D01*
X1538094Y895488D01*
X1538050Y895470D01*
X1538003Y895462D01*
X1537946Y895428D01*
X1537886Y895404D01*
X1537851Y895372D01*
X1537810Y895348D01*
X1537769Y895297D01*
X1537720Y895252D01*
X1537698Y895210D01*
X1537669Y895174D01*
X1537648Y895111D01*
X1537617Y895053D01*
X1537609Y894998D01*
X1537597Y894961D01*
X1537597Y894957D01*
X1537598Y894921D01*
X1537590Y894867D01*
X1537590Y891057D01*
X1537601Y890993D01*
X1537603Y890927D01*
X1537621Y890883D01*
X1537629Y890837D01*
X1537663Y890780D01*
X1537688Y890719D01*
X1537720Y890684D01*
X1537744Y890643D01*
X1537795Y890602D01*
X1537839Y890553D01*
X1537881Y890532D01*
X1537918Y890502D01*
X1537980Y890481D01*
X1538039Y890451D01*
X1538093Y890443D01*
X1538130Y890430D01*
X1538170Y890431D01*
X1538224Y890423D01*
X1540764Y890423D01*
X1540829Y890435D01*
G37*
G36*
X238825Y802754D02*
X238825Y802754D01*
X238891Y802756D01*
X238934Y802774D01*
X238981Y802782D01*
X239038Y802816D01*
X239098Y802840D01*
X239133Y802872D01*
X239174Y802896D01*
X239216Y802947D01*
X239264Y802992D01*
X239286Y803034D01*
X239315Y803070D01*
X239336Y803133D01*
X239367Y803191D01*
X239375Y803246D01*
X239387Y803283D01*
X239386Y803322D01*
X239394Y803377D01*
X239394Y807187D01*
X239383Y807251D01*
X239381Y807317D01*
X239363Y807361D01*
X239355Y807407D01*
X239321Y807464D01*
X239296Y807525D01*
X239265Y807560D01*
X239240Y807601D01*
X239189Y807642D01*
X239145Y807691D01*
X239103Y807712D01*
X239066Y807742D01*
X239004Y807763D01*
X238945Y807793D01*
X238891Y807801D01*
X238854Y807814D01*
X238814Y807813D01*
X238760Y807821D01*
X236220Y807821D01*
X236155Y807809D01*
X236089Y807807D01*
X236046Y807790D01*
X235999Y807781D01*
X235942Y807748D01*
X235882Y807723D01*
X235847Y807691D01*
X235806Y807667D01*
X235765Y807616D01*
X235716Y807572D01*
X235694Y807530D01*
X235665Y807493D01*
X235644Y807431D01*
X235613Y807372D01*
X235605Y807318D01*
X235593Y807280D01*
X235593Y807276D01*
X235594Y807240D01*
X235586Y807187D01*
X235586Y803377D01*
X235597Y803312D01*
X235599Y803246D01*
X235617Y803202D01*
X235625Y803156D01*
X235659Y803099D01*
X235684Y803038D01*
X235715Y803003D01*
X235740Y802963D01*
X235791Y802921D01*
X235835Y802873D01*
X235877Y802851D01*
X235914Y802821D01*
X235976Y802800D01*
X236035Y802770D01*
X236089Y802762D01*
X236126Y802749D01*
X236166Y802750D01*
X236220Y802742D01*
X238760Y802742D01*
X238825Y802754D01*
G37*
G36*
X919824Y802754D02*
X919824Y802754D01*
X919890Y802756D01*
X919934Y802774D01*
X919980Y802782D01*
X920037Y802816D01*
X920098Y802840D01*
X920133Y802872D01*
X920173Y802896D01*
X920215Y802947D01*
X920263Y802992D01*
X920285Y803034D01*
X920315Y803070D01*
X920336Y803133D01*
X920366Y803191D01*
X920374Y803246D01*
X920387Y803283D01*
X920386Y803322D01*
X920394Y803377D01*
X920394Y807187D01*
X920382Y807251D01*
X920380Y807317D01*
X920362Y807361D01*
X920354Y807407D01*
X920320Y807464D01*
X920296Y807525D01*
X920264Y807560D01*
X920240Y807601D01*
X920189Y807642D01*
X920144Y807691D01*
X920102Y807712D01*
X920066Y807742D01*
X920003Y807763D01*
X919945Y807793D01*
X919890Y807801D01*
X919853Y807814D01*
X919814Y807813D01*
X919759Y807821D01*
X917219Y807821D01*
X917155Y807809D01*
X917089Y807807D01*
X917045Y807790D01*
X916999Y807781D01*
X916942Y807748D01*
X916881Y807723D01*
X916846Y807691D01*
X916805Y807667D01*
X916764Y807616D01*
X916715Y807572D01*
X916694Y807530D01*
X916664Y807493D01*
X916643Y807431D01*
X916613Y807372D01*
X916605Y807318D01*
X916592Y807280D01*
X916592Y807276D01*
X916593Y807240D01*
X916585Y807187D01*
X916585Y803377D01*
X916597Y803312D01*
X916599Y803246D01*
X916616Y803202D01*
X916625Y803156D01*
X916658Y803099D01*
X916683Y803038D01*
X916715Y803003D01*
X916739Y802963D01*
X916790Y802921D01*
X916834Y802873D01*
X916877Y802851D01*
X916913Y802821D01*
X916975Y802800D01*
X917034Y802770D01*
X917088Y802762D01*
X917126Y802749D01*
X917165Y802750D01*
X917219Y802742D01*
X919759Y802742D01*
X919824Y802754D01*
G37*
G36*
X1600798Y802754D02*
X1600798Y802754D01*
X1600864Y802756D01*
X1600908Y802774D01*
X1600954Y802782D01*
X1601011Y802816D01*
X1601072Y802840D01*
X1601107Y802872D01*
X1601147Y802896D01*
X1601189Y802947D01*
X1601237Y802992D01*
X1601259Y803034D01*
X1601289Y803070D01*
X1601310Y803133D01*
X1601340Y803191D01*
X1601348Y803246D01*
X1601361Y803283D01*
X1601360Y803322D01*
X1601368Y803377D01*
X1601368Y807187D01*
X1601356Y807251D01*
X1601354Y807317D01*
X1601336Y807361D01*
X1601328Y807407D01*
X1601294Y807464D01*
X1601270Y807525D01*
X1601238Y807560D01*
X1601214Y807601D01*
X1601163Y807642D01*
X1601118Y807691D01*
X1601076Y807712D01*
X1601040Y807742D01*
X1600977Y807763D01*
X1600919Y807793D01*
X1600864Y807801D01*
X1600827Y807814D01*
X1600788Y807813D01*
X1600733Y807821D01*
X1598193Y807821D01*
X1598129Y807809D01*
X1598063Y807807D01*
X1598019Y807790D01*
X1597973Y807781D01*
X1597916Y807748D01*
X1597855Y807723D01*
X1597820Y807691D01*
X1597779Y807667D01*
X1597738Y807616D01*
X1597689Y807572D01*
X1597668Y807530D01*
X1597638Y807493D01*
X1597617Y807431D01*
X1597587Y807372D01*
X1597579Y807318D01*
X1597566Y807280D01*
X1597566Y807276D01*
X1597567Y807240D01*
X1597559Y807187D01*
X1597559Y803377D01*
X1597571Y803312D01*
X1597573Y803246D01*
X1597590Y803202D01*
X1597599Y803156D01*
X1597632Y803099D01*
X1597657Y803038D01*
X1597689Y803003D01*
X1597713Y802963D01*
X1597764Y802921D01*
X1597808Y802873D01*
X1597851Y802851D01*
X1597887Y802821D01*
X1597949Y802800D01*
X1598008Y802770D01*
X1598062Y802762D01*
X1598100Y802749D01*
X1598139Y802750D01*
X1598193Y802742D01*
X1600733Y802742D01*
X1600798Y802754D01*
G37*
G36*
X859855Y315023D02*
X859855Y315023D01*
X859921Y315025D01*
X859964Y315043D01*
X860011Y315051D01*
X860068Y315085D01*
X860129Y315109D01*
X860163Y315141D01*
X860204Y315165D01*
X860246Y315216D01*
X860294Y315261D01*
X860316Y315303D01*
X860345Y315340D01*
X860367Y315402D01*
X860397Y315460D01*
X860405Y315515D01*
X860417Y315552D01*
X860416Y315591D01*
X860424Y315646D01*
X860424Y319456D01*
X860413Y319521D01*
X860411Y319586D01*
X860393Y319630D01*
X860385Y319677D01*
X860351Y319733D01*
X860326Y319794D01*
X860295Y319829D01*
X860271Y319870D01*
X860219Y319911D01*
X860175Y319960D01*
X860133Y319981D01*
X860096Y320011D01*
X860034Y320032D01*
X859975Y320062D01*
X859921Y320070D01*
X859884Y320083D01*
X859844Y320082D01*
X859790Y320090D01*
X857250Y320090D01*
X857185Y320078D01*
X857120Y320076D01*
X857076Y320059D01*
X857029Y320050D01*
X856972Y320017D01*
X856912Y319992D01*
X856877Y319960D01*
X856836Y319936D01*
X856795Y319885D01*
X856746Y319841D01*
X856724Y319799D01*
X856695Y319762D01*
X856674Y319700D01*
X856643Y319641D01*
X856635Y319587D01*
X856623Y319550D01*
X856623Y319545D01*
X856624Y319509D01*
X856616Y319456D01*
X856616Y315646D01*
X856627Y315581D01*
X856629Y315515D01*
X856647Y315472D01*
X856655Y315425D01*
X856689Y315368D01*
X856714Y315307D01*
X856746Y315272D01*
X856770Y315232D01*
X856821Y315190D01*
X856865Y315142D01*
X856907Y315120D01*
X856944Y315090D01*
X857006Y315069D01*
X857065Y315039D01*
X857119Y315031D01*
X857156Y315019D01*
X857196Y315020D01*
X857250Y315012D01*
X859790Y315012D01*
X859855Y315023D01*
G37*
G36*
X178855Y315023D02*
X178855Y315023D01*
X178921Y315025D01*
X178965Y315043D01*
X179011Y315051D01*
X179068Y315085D01*
X179129Y315109D01*
X179164Y315141D01*
X179205Y315165D01*
X179246Y315216D01*
X179295Y315261D01*
X179316Y315303D01*
X179346Y315340D01*
X179367Y315402D01*
X179397Y315460D01*
X179405Y315515D01*
X179418Y315552D01*
X179417Y315591D01*
X179425Y315646D01*
X179425Y319456D01*
X179413Y319521D01*
X179411Y319586D01*
X179394Y319630D01*
X179385Y319677D01*
X179352Y319733D01*
X179327Y319794D01*
X179295Y319829D01*
X179271Y319870D01*
X179220Y319911D01*
X179176Y319960D01*
X179134Y319981D01*
X179097Y320011D01*
X179035Y320032D01*
X178976Y320062D01*
X178922Y320070D01*
X178884Y320083D01*
X178845Y320082D01*
X178791Y320090D01*
X176251Y320090D01*
X176186Y320078D01*
X176120Y320076D01*
X176076Y320059D01*
X176030Y320050D01*
X175973Y320017D01*
X175912Y319992D01*
X175877Y319960D01*
X175837Y319936D01*
X175795Y319885D01*
X175747Y319841D01*
X175725Y319799D01*
X175695Y319762D01*
X175674Y319700D01*
X175644Y319641D01*
X175636Y319587D01*
X175623Y319550D01*
X175623Y319545D01*
X175624Y319509D01*
X175616Y319456D01*
X175616Y315646D01*
X175628Y315581D01*
X175630Y315515D01*
X175648Y315472D01*
X175656Y315425D01*
X175690Y315368D01*
X175714Y315307D01*
X175746Y315272D01*
X175770Y315232D01*
X175821Y315190D01*
X175866Y315142D01*
X175908Y315120D01*
X175944Y315090D01*
X176007Y315069D01*
X176065Y315039D01*
X176120Y315031D01*
X176157Y315019D01*
X176196Y315020D01*
X176251Y315012D01*
X178791Y315012D01*
X178855Y315023D01*
G37*
G36*
X1540829Y315023D02*
X1540829Y315023D01*
X1540895Y315025D01*
X1540938Y315043D01*
X1540985Y315051D01*
X1541042Y315085D01*
X1541103Y315109D01*
X1541137Y315141D01*
X1541178Y315165D01*
X1541220Y315216D01*
X1541268Y315261D01*
X1541290Y315303D01*
X1541319Y315340D01*
X1541341Y315402D01*
X1541371Y315460D01*
X1541379Y315515D01*
X1541391Y315552D01*
X1541390Y315591D01*
X1541398Y315646D01*
X1541398Y319456D01*
X1541387Y319521D01*
X1541385Y319586D01*
X1541367Y319630D01*
X1541359Y319677D01*
X1541325Y319733D01*
X1541300Y319794D01*
X1541269Y319829D01*
X1541245Y319870D01*
X1541193Y319911D01*
X1541149Y319960D01*
X1541107Y319981D01*
X1541070Y320011D01*
X1541008Y320032D01*
X1540949Y320062D01*
X1540895Y320070D01*
X1540858Y320083D01*
X1540818Y320082D01*
X1540764Y320090D01*
X1538224Y320090D01*
X1538159Y320078D01*
X1538094Y320076D01*
X1538050Y320059D01*
X1538003Y320050D01*
X1537946Y320017D01*
X1537886Y319992D01*
X1537851Y319960D01*
X1537810Y319936D01*
X1537769Y319885D01*
X1537720Y319841D01*
X1537698Y319799D01*
X1537669Y319762D01*
X1537648Y319700D01*
X1537617Y319641D01*
X1537609Y319587D01*
X1537597Y319550D01*
X1537597Y319545D01*
X1537598Y319509D01*
X1537590Y319456D01*
X1537590Y315646D01*
X1537601Y315581D01*
X1537603Y315515D01*
X1537621Y315472D01*
X1537629Y315425D01*
X1537663Y315368D01*
X1537688Y315307D01*
X1537720Y315272D01*
X1537744Y315232D01*
X1537795Y315190D01*
X1537839Y315142D01*
X1537881Y315120D01*
X1537918Y315090D01*
X1537980Y315069D01*
X1538039Y315039D01*
X1538093Y315031D01*
X1538130Y315019D01*
X1538170Y315020D01*
X1538224Y315012D01*
X1540764Y315012D01*
X1540829Y315023D01*
G37*
G36*
X1600798Y227342D02*
X1600798Y227342D01*
X1600864Y227344D01*
X1600908Y227362D01*
X1600954Y227370D01*
X1601011Y227404D01*
X1601072Y227429D01*
X1601107Y227460D01*
X1601147Y227485D01*
X1601189Y227536D01*
X1601237Y227580D01*
X1601259Y227622D01*
X1601289Y227659D01*
X1601310Y227721D01*
X1601340Y227780D01*
X1601348Y227834D01*
X1601361Y227871D01*
X1601360Y227911D01*
X1601368Y227965D01*
X1601368Y231775D01*
X1601356Y231840D01*
X1601354Y231906D01*
X1601336Y231949D01*
X1601328Y231996D01*
X1601294Y232053D01*
X1601270Y232113D01*
X1601238Y232148D01*
X1601214Y232189D01*
X1601163Y232231D01*
X1601118Y232279D01*
X1601076Y232301D01*
X1601040Y232330D01*
X1600977Y232351D01*
X1600919Y232382D01*
X1600864Y232390D01*
X1600827Y232402D01*
X1600788Y232401D01*
X1600733Y232409D01*
X1598193Y232409D01*
X1598129Y232398D01*
X1598063Y232396D01*
X1598019Y232378D01*
X1597973Y232370D01*
X1597916Y232336D01*
X1597855Y232311D01*
X1597820Y232280D01*
X1597779Y232255D01*
X1597738Y232204D01*
X1597689Y232160D01*
X1597668Y232118D01*
X1597638Y232081D01*
X1597617Y232019D01*
X1597587Y231960D01*
X1597579Y231906D01*
X1597566Y231869D01*
X1597566Y231865D01*
X1597566Y231864D01*
X1597567Y231829D01*
X1597559Y231775D01*
X1597559Y227965D01*
X1597571Y227900D01*
X1597573Y227834D01*
X1597590Y227791D01*
X1597599Y227744D01*
X1597632Y227687D01*
X1597657Y227627D01*
X1597689Y227592D01*
X1597713Y227551D01*
X1597764Y227510D01*
X1597808Y227461D01*
X1597851Y227439D01*
X1597887Y227410D01*
X1597949Y227389D01*
X1598008Y227358D01*
X1598062Y227350D01*
X1598100Y227338D01*
X1598139Y227339D01*
X1598193Y227331D01*
X1600733Y227331D01*
X1600798Y227342D01*
G37*
G36*
X238825Y227342D02*
X238825Y227342D01*
X238891Y227344D01*
X238934Y227362D01*
X238981Y227370D01*
X239038Y227404D01*
X239098Y227429D01*
X239133Y227460D01*
X239174Y227485D01*
X239216Y227536D01*
X239264Y227580D01*
X239286Y227622D01*
X239315Y227659D01*
X239336Y227721D01*
X239367Y227780D01*
X239375Y227834D01*
X239387Y227871D01*
X239386Y227911D01*
X239394Y227965D01*
X239394Y231775D01*
X239383Y231840D01*
X239381Y231906D01*
X239363Y231949D01*
X239355Y231996D01*
X239321Y232053D01*
X239296Y232113D01*
X239265Y232148D01*
X239240Y232189D01*
X239189Y232231D01*
X239145Y232279D01*
X239103Y232301D01*
X239066Y232330D01*
X239004Y232351D01*
X238945Y232382D01*
X238891Y232390D01*
X238854Y232402D01*
X238814Y232401D01*
X238760Y232409D01*
X236220Y232409D01*
X236155Y232398D01*
X236089Y232396D01*
X236046Y232378D01*
X235999Y232370D01*
X235942Y232336D01*
X235882Y232311D01*
X235847Y232280D01*
X235806Y232255D01*
X235765Y232204D01*
X235716Y232160D01*
X235694Y232118D01*
X235665Y232081D01*
X235644Y232019D01*
X235613Y231960D01*
X235605Y231906D01*
X235593Y231869D01*
X235593Y231865D01*
X235593Y231864D01*
X235594Y231829D01*
X235586Y231775D01*
X235586Y227965D01*
X235597Y227900D01*
X235599Y227834D01*
X235617Y227791D01*
X235625Y227744D01*
X235659Y227687D01*
X235684Y227627D01*
X235715Y227592D01*
X235740Y227551D01*
X235791Y227510D01*
X235835Y227461D01*
X235877Y227439D01*
X235914Y227410D01*
X235976Y227389D01*
X236035Y227358D01*
X236089Y227350D01*
X236126Y227338D01*
X236166Y227339D01*
X236220Y227331D01*
X238760Y227331D01*
X238825Y227342D01*
G37*
G36*
X919824Y227342D02*
X919824Y227342D01*
X919890Y227344D01*
X919934Y227362D01*
X919980Y227370D01*
X920037Y227404D01*
X920098Y227429D01*
X920133Y227460D01*
X920173Y227485D01*
X920215Y227536D01*
X920263Y227580D01*
X920285Y227622D01*
X920315Y227659D01*
X920336Y227721D01*
X920366Y227780D01*
X920374Y227834D01*
X920387Y227871D01*
X920386Y227911D01*
X920394Y227965D01*
X920394Y231775D01*
X920382Y231840D01*
X920380Y231906D01*
X920362Y231949D01*
X920354Y231996D01*
X920320Y232053D01*
X920296Y232113D01*
X920264Y232148D01*
X920240Y232189D01*
X920189Y232231D01*
X920144Y232279D01*
X920102Y232301D01*
X920066Y232330D01*
X920003Y232351D01*
X919945Y232382D01*
X919890Y232390D01*
X919853Y232402D01*
X919814Y232401D01*
X919759Y232409D01*
X917219Y232409D01*
X917155Y232398D01*
X917089Y232396D01*
X917045Y232378D01*
X916999Y232370D01*
X916942Y232336D01*
X916881Y232311D01*
X916846Y232280D01*
X916805Y232255D01*
X916764Y232204D01*
X916715Y232160D01*
X916694Y232118D01*
X916664Y232081D01*
X916643Y232019D01*
X916613Y231960D01*
X916605Y231906D01*
X916592Y231869D01*
X916592Y231865D01*
X916592Y231864D01*
X916593Y231829D01*
X916585Y231775D01*
X916585Y227965D01*
X916597Y227900D01*
X916599Y227834D01*
X916616Y227791D01*
X916625Y227744D01*
X916658Y227687D01*
X916683Y227627D01*
X916715Y227592D01*
X916739Y227551D01*
X916790Y227510D01*
X916834Y227461D01*
X916877Y227439D01*
X916913Y227410D01*
X916975Y227389D01*
X917034Y227358D01*
X917088Y227350D01*
X917126Y227338D01*
X917165Y227339D01*
X917219Y227331D01*
X919759Y227331D01*
X919824Y227342D01*
G37*
D10*
X49050Y464510D03*
X49050Y406710D03*
D11*
X181915Y442138D03*
X181915Y450266D03*
D12*
X472440Y379501D03*
X482600Y379501D03*
X492760Y379501D03*
D13*
X482600Y203200D03*
X508000Y203200D03*
X533400Y203200D03*
X558800Y203200D03*
D14*
X608838Y114808D03*
X609600Y88900D03*
D13*
X88900Y444500D03*
D11*
X237490Y234950D03*
X237490Y224790D03*
X260350Y235204D03*
X260350Y227076D03*
X283210Y235204D03*
X283210Y227076D03*
X306070Y235204D03*
X306070Y227076D03*
D15*
X635000Y406400D03*
X635000Y431800D03*
D13*
X406400Y165100D03*
X381000Y165100D03*
X266700Y330200D03*
D11*
X322707Y378511D03*
X322707Y370383D03*
D16*
X124460Y31750D03*
X99060Y31750D03*
X175260Y31750D03*
X149860Y31750D03*
X226060Y31750D03*
X200660Y31750D03*
X302260Y31750D03*
X276860Y31750D03*
X353060Y31750D03*
X327660Y31750D03*
X403860Y31750D03*
X378460Y31750D03*
D15*
X635000Y330200D03*
X635000Y304800D03*
D11*
X177800Y359664D03*
X177800Y351536D03*
D17*
X139700Y228600D03*
X139700Y254000D03*
X139700Y279400D03*
X114300Y228600D03*
X114300Y254000D03*
X114300Y279400D03*
D11*
X177521Y322631D03*
X177521Y312471D03*
D15*
X481330Y114300D03*
X483870Y139700D03*
X481330Y165100D03*
X506730Y114300D03*
X509270Y139700D03*
X506730Y165100D03*
X532130Y114300D03*
X534670Y139700D03*
X532130Y165100D03*
X557530Y114300D03*
X560070Y139700D03*
X557530Y165100D03*
X635000Y355600D03*
X635000Y381000D03*
X635000Y457200D03*
X635000Y482600D03*
X635000Y254000D03*
X635000Y279400D03*
D18*
X368300Y184150D03*
X381000Y184150D03*
X393700Y184150D03*
X406400Y184150D03*
X355600Y184150D03*
X368300Y196850D03*
X381000Y196850D03*
X393700Y196850D03*
X406400Y196850D03*
X355600Y196850D03*
D19*
X83720Y496285D03*
X83720Y553435D03*
X109120Y496285D03*
X109120Y553435D03*
X134520Y496285D03*
X134520Y553435D03*
X159920Y496285D03*
X159920Y553435D03*
X185320Y496285D03*
X185320Y553435D03*
X210720Y496285D03*
X210720Y553435D03*
X236120Y496285D03*
X236120Y553435D03*
X261520Y496285D03*
X261520Y553435D03*
X286920Y496285D03*
X286920Y553435D03*
X312320Y496285D03*
X312320Y553435D03*
X337720Y496285D03*
X337720Y553435D03*
X363120Y496285D03*
X363120Y553435D03*
X388520Y496285D03*
X388520Y553435D03*
X413920Y496285D03*
X413920Y553435D03*
X439320Y496285D03*
X439320Y553435D03*
X464720Y496285D03*
X464720Y553435D03*
X490120Y496285D03*
X490120Y553435D03*
X515520Y496285D03*
X515520Y553435D03*
X540920Y496285D03*
X540920Y553435D03*
X566320Y496285D03*
X566320Y553435D03*
D18*
X96420Y524860D03*
X553620Y524860D03*
D20*
X35000Y35000D03*
X615000Y35000D03*
X35000Y525000D03*
X615000Y525000D03*
D21*
X586358Y8849D03*
X7757Y499126D03*
D13*
X266700Y393700D03*
X368300Y63500D03*
X342900Y63500D03*
X292100Y63500D03*
X266700Y63500D03*
X241300Y63500D03*
X215900Y63500D03*
X152400Y63500D03*
X127000Y63500D03*
D10*
X730049Y464510D03*
X730049Y406710D03*
D11*
X862914Y442138D03*
X862914Y450266D03*
D12*
X1153439Y379501D03*
X1163599Y379501D03*
X1173759Y379501D03*
D13*
X1163599Y203200D03*
X1188999Y203200D03*
X1214399Y203200D03*
X1239799Y203200D03*
D14*
X1289837Y114808D03*
X1290599Y88900D03*
D13*
X769899Y444500D03*
D11*
X918489Y234950D03*
X918489Y224790D03*
X941349Y235204D03*
X941349Y227076D03*
X964209Y235204D03*
X964209Y227076D03*
X987069Y235204D03*
X987069Y227076D03*
D15*
X1315999Y406400D03*
X1315999Y431800D03*
D13*
X1087399Y165100D03*
X1061999Y165100D03*
X947699Y330200D03*
D11*
X1003706Y378511D03*
X1003706Y370383D03*
D16*
X805459Y31750D03*
X780059Y31750D03*
X856259Y31750D03*
X830859Y31750D03*
X907059Y31750D03*
X881659Y31750D03*
X983259Y31750D03*
X957859Y31750D03*
X1034059Y31750D03*
X1008659Y31750D03*
X1084859Y31750D03*
X1059459Y31750D03*
D15*
X1315999Y330200D03*
X1315999Y304800D03*
D11*
X858799Y359664D03*
X858799Y351536D03*
D17*
X820699Y228600D03*
X820699Y254000D03*
X820699Y279400D03*
X795299Y228600D03*
X795299Y254000D03*
X795299Y279400D03*
D11*
X858520Y322631D03*
X858520Y312471D03*
D15*
X1162329Y114300D03*
X1164869Y139700D03*
X1162329Y165100D03*
X1187729Y114300D03*
X1190269Y139700D03*
X1187729Y165100D03*
X1213129Y114300D03*
X1215669Y139700D03*
X1213129Y165100D03*
X1238529Y114300D03*
X1241069Y139700D03*
X1238529Y165100D03*
X1315999Y355600D03*
X1315999Y381000D03*
X1315999Y457200D03*
X1315999Y482600D03*
X1315999Y254000D03*
X1315999Y279400D03*
D18*
X1049299Y184150D03*
X1061999Y184150D03*
X1074699Y184150D03*
X1087399Y184150D03*
X1036599Y184150D03*
X1049299Y196850D03*
X1061999Y196850D03*
X1074699Y196850D03*
X1087399Y196850D03*
X1036599Y196850D03*
D19*
X764719Y496285D03*
X764719Y553435D03*
X790119Y496285D03*
X790119Y553435D03*
X815519Y496285D03*
X815519Y553435D03*
X840919Y496285D03*
X840919Y553435D03*
X866319Y496285D03*
X866319Y553435D03*
X891719Y496285D03*
X891719Y553435D03*
X917119Y496285D03*
X917119Y553435D03*
X942519Y496285D03*
X942519Y553435D03*
X967919Y496285D03*
X967919Y553435D03*
X993319Y496285D03*
X993319Y553435D03*
X1018719Y496285D03*
X1018719Y553435D03*
X1044119Y496285D03*
X1044119Y553435D03*
X1069519Y496285D03*
X1069519Y553435D03*
X1094919Y496285D03*
X1094919Y553435D03*
X1120319Y496285D03*
X1120319Y553435D03*
X1145719Y496285D03*
X1145719Y553435D03*
X1171119Y496285D03*
X1171119Y553435D03*
X1196519Y496285D03*
X1196519Y553435D03*
X1221919Y496285D03*
X1221919Y553435D03*
X1247319Y496285D03*
X1247319Y553435D03*
D18*
X777419Y524860D03*
X1234619Y524860D03*
D20*
X715999Y35000D03*
X1295999Y35000D03*
X715999Y525000D03*
X1295999Y525000D03*
D21*
X1267357Y8849D03*
X688757Y499126D03*
D13*
X947699Y393700D03*
X1049299Y63500D03*
X1023899Y63500D03*
X973099Y63500D03*
X947699Y63500D03*
X922299Y63500D03*
X896899Y63500D03*
X833399Y63500D03*
X807999Y63500D03*
D10*
X1411023Y464510D03*
X1411023Y406710D03*
D11*
X1543888Y442138D03*
X1543888Y450266D03*
D12*
X1834413Y379501D03*
X1844573Y379501D03*
X1854733Y379501D03*
D13*
X1844573Y203200D03*
X1869973Y203200D03*
X1895373Y203200D03*
X1920773Y203200D03*
D14*
X1970811Y114808D03*
X1971573Y88900D03*
D13*
X1450873Y444500D03*
D11*
X1599463Y234950D03*
X1599463Y224790D03*
X1622323Y235204D03*
X1622323Y227076D03*
X1645183Y235204D03*
X1645183Y227076D03*
X1668043Y235204D03*
X1668043Y227076D03*
D15*
X1996973Y406400D03*
X1996973Y431800D03*
D13*
X1768373Y165100D03*
X1742973Y165100D03*
X1628673Y330200D03*
D11*
X1684680Y378511D03*
X1684680Y370383D03*
D16*
X1486433Y31750D03*
X1461033Y31750D03*
X1537233Y31750D03*
X1511833Y31750D03*
X1588033Y31750D03*
X1562633Y31750D03*
X1664233Y31750D03*
X1638833Y31750D03*
X1715033Y31750D03*
X1689633Y31750D03*
X1765833Y31750D03*
X1740433Y31750D03*
D15*
X1996973Y330200D03*
X1996973Y304800D03*
D11*
X1539773Y359664D03*
X1539773Y351536D03*
D17*
X1501673Y228600D03*
X1501673Y254000D03*
X1501673Y279400D03*
X1476273Y228600D03*
X1476273Y254000D03*
X1476273Y279400D03*
D11*
X1539494Y322631D03*
X1539494Y312471D03*
D15*
X1843303Y114300D03*
X1845843Y139700D03*
X1843303Y165100D03*
X1868703Y114300D03*
X1871243Y139700D03*
X1868703Y165100D03*
X1894103Y114300D03*
X1896643Y139700D03*
X1894103Y165100D03*
X1919503Y114300D03*
X1922043Y139700D03*
X1919503Y165100D03*
X1996973Y355600D03*
X1996973Y381000D03*
X1996973Y457200D03*
X1996973Y482600D03*
X1996973Y254000D03*
X1996973Y279400D03*
D18*
X1730273Y184150D03*
X1742973Y184150D03*
X1755673Y184150D03*
X1768373Y184150D03*
X1717573Y184150D03*
X1730273Y196850D03*
X1742973Y196850D03*
X1755673Y196850D03*
X1768373Y196850D03*
X1717573Y196850D03*
D19*
X1445693Y496285D03*
X1445693Y553435D03*
X1471093Y496285D03*
X1471093Y553435D03*
X1496493Y496285D03*
X1496493Y553435D03*
X1521893Y496285D03*
X1521893Y553435D03*
X1547293Y496285D03*
X1547293Y553435D03*
X1572693Y496285D03*
X1572693Y553435D03*
X1598093Y496285D03*
X1598093Y553435D03*
X1623493Y496285D03*
X1623493Y553435D03*
X1648893Y496285D03*
X1648893Y553435D03*
X1674293Y496285D03*
X1674293Y553435D03*
X1699693Y496285D03*
X1699693Y553435D03*
X1725093Y496285D03*
X1725093Y553435D03*
X1750493Y496285D03*
X1750493Y553435D03*
X1775893Y496285D03*
X1775893Y553435D03*
X1801293Y496285D03*
X1801293Y553435D03*
X1826693Y496285D03*
X1826693Y553435D03*
X1852093Y496285D03*
X1852093Y553435D03*
X1877493Y496285D03*
X1877493Y553435D03*
X1902893Y496285D03*
X1902893Y553435D03*
X1928293Y496285D03*
X1928293Y553435D03*
D18*
X1458393Y524860D03*
X1915593Y524860D03*
D20*
X1396973Y35000D03*
X1976973Y35000D03*
X1396973Y525000D03*
X1976973Y525000D03*
D21*
X1948331Y8849D03*
X1369731Y499126D03*
D13*
X1628673Y393700D03*
X1730273Y63500D03*
X1704873Y63500D03*
X1654073Y63500D03*
X1628673Y63500D03*
X1603273Y63500D03*
X1577873Y63500D03*
X1514373Y63500D03*
X1488973Y63500D03*
D10*
X49050Y1039922D03*
X49050Y982122D03*
D11*
X181915Y1017549D03*
X181915Y1025677D03*
D12*
X472440Y954913D03*
X482600Y954913D03*
X492760Y954913D03*
D13*
X482600Y778612D03*
X508000Y778612D03*
X533400Y778612D03*
X558800Y778612D03*
D14*
X608838Y690220D03*
X609600Y664312D03*
D13*
X88900Y1019912D03*
D11*
X237490Y810362D03*
X237490Y800202D03*
X260350Y810616D03*
X260350Y802488D03*
X283210Y810616D03*
X283210Y802488D03*
X306070Y810616D03*
X306070Y802488D03*
D15*
X635000Y981812D03*
X635000Y1007212D03*
D13*
X406400Y740512D03*
X381000Y740512D03*
X266700Y905612D03*
D11*
X322707Y953922D03*
X322707Y945794D03*
D16*
X124460Y607162D03*
X99060Y607162D03*
X175260Y607162D03*
X149860Y607162D03*
X226060Y607162D03*
X200660Y607162D03*
X302260Y607162D03*
X276860Y607162D03*
X353060Y607162D03*
X327660Y607162D03*
X403860Y607162D03*
X378460Y607162D03*
D15*
X635000Y905612D03*
X635000Y880212D03*
D11*
X177800Y935076D03*
X177800Y926948D03*
D17*
X139700Y804012D03*
X139700Y829412D03*
X139700Y854812D03*
X114300Y804012D03*
X114300Y829412D03*
X114300Y854812D03*
D11*
X177521Y898042D03*
X177521Y887882D03*
D15*
X481330Y689712D03*
X483870Y715112D03*
X481330Y740512D03*
X506730Y689712D03*
X509270Y715112D03*
X506730Y740512D03*
X532130Y689712D03*
X534670Y715112D03*
X532130Y740512D03*
X557530Y689712D03*
X560070Y715112D03*
X557530Y740512D03*
X635000Y931012D03*
X635000Y956412D03*
X635000Y1032612D03*
X635000Y1058012D03*
X635000Y829412D03*
X635000Y854812D03*
D18*
X368300Y759562D03*
X381000Y759562D03*
X393700Y759562D03*
X406400Y759562D03*
X355600Y759562D03*
X368300Y772262D03*
X381000Y772262D03*
X393700Y772262D03*
X406400Y772262D03*
X355600Y772262D03*
D19*
X83720Y1071697D03*
X83720Y1128847D03*
X109120Y1071697D03*
X109120Y1128847D03*
X134520Y1071697D03*
X134520Y1128847D03*
X159920Y1071697D03*
X159920Y1128847D03*
X185320Y1071697D03*
X185320Y1128847D03*
X210720Y1071697D03*
X210720Y1128847D03*
X236120Y1071697D03*
X236120Y1128847D03*
X261520Y1071697D03*
X261520Y1128847D03*
X286920Y1071697D03*
X286920Y1128847D03*
X312320Y1071697D03*
X312320Y1128847D03*
X337720Y1071697D03*
X337720Y1128847D03*
X363120Y1071697D03*
X363120Y1128847D03*
X388520Y1071697D03*
X388520Y1128847D03*
X413920Y1071697D03*
X413920Y1128847D03*
X439320Y1071697D03*
X439320Y1128847D03*
X464720Y1071697D03*
X464720Y1128847D03*
X490120Y1071697D03*
X490120Y1128847D03*
X515520Y1071697D03*
X515520Y1128847D03*
X540920Y1071697D03*
X540920Y1128847D03*
X566320Y1071697D03*
X566320Y1128847D03*
D18*
X96420Y1100272D03*
X553620Y1100272D03*
D20*
X35000Y610412D03*
X615000Y610412D03*
X35000Y1100412D03*
X615000Y1100412D03*
D21*
X586358Y584261D03*
X7757Y1074538D03*
D13*
X266700Y969112D03*
X368300Y638912D03*
X342900Y638912D03*
X292100Y638912D03*
X266700Y638912D03*
X241300Y638912D03*
X215900Y638912D03*
X152400Y638912D03*
X127000Y638912D03*
D10*
X730049Y1039922D03*
X730049Y982122D03*
D11*
X862914Y1017549D03*
X862914Y1025677D03*
D12*
X1153439Y954913D03*
X1163599Y954913D03*
X1173759Y954913D03*
D13*
X1163599Y778612D03*
X1188999Y778612D03*
X1214399Y778612D03*
X1239799Y778612D03*
D14*
X1289837Y690220D03*
X1290599Y664312D03*
D13*
X769899Y1019912D03*
D11*
X918489Y810362D03*
X918489Y800202D03*
X941349Y810616D03*
X941349Y802488D03*
X964209Y810616D03*
X964209Y802488D03*
X987069Y810616D03*
X987069Y802488D03*
D15*
X1315999Y981812D03*
X1315999Y1007212D03*
D13*
X1087399Y740512D03*
X1061999Y740512D03*
X947699Y905612D03*
D11*
X1003706Y953922D03*
X1003706Y945794D03*
D16*
X805459Y607162D03*
X780059Y607162D03*
X856259Y607162D03*
X830859Y607162D03*
X907059Y607162D03*
X881659Y607162D03*
X983259Y607162D03*
X957859Y607162D03*
X1034059Y607162D03*
X1008659Y607162D03*
X1084859Y607162D03*
X1059459Y607162D03*
D15*
X1315999Y905612D03*
X1315999Y880212D03*
D11*
X858799Y935076D03*
X858799Y926948D03*
D17*
X820699Y804012D03*
X820699Y829412D03*
X820699Y854812D03*
X795299Y804012D03*
X795299Y829412D03*
X795299Y854812D03*
D11*
X858520Y898042D03*
X858520Y887882D03*
D15*
X1162329Y689712D03*
X1164869Y715112D03*
X1162329Y740512D03*
X1187729Y689712D03*
X1190269Y715112D03*
X1187729Y740512D03*
X1213129Y689712D03*
X1215669Y715112D03*
X1213129Y740512D03*
X1238529Y689712D03*
X1241069Y715112D03*
X1238529Y740512D03*
X1315999Y931012D03*
X1315999Y956412D03*
X1315999Y1032612D03*
X1315999Y1058012D03*
X1315999Y829412D03*
X1315999Y854812D03*
D18*
X1049299Y759562D03*
X1061999Y759562D03*
X1074699Y759562D03*
X1087399Y759562D03*
X1036599Y759562D03*
X1049299Y772262D03*
X1061999Y772262D03*
X1074699Y772262D03*
X1087399Y772262D03*
X1036599Y772262D03*
D19*
X764719Y1071697D03*
X764719Y1128847D03*
X790119Y1071697D03*
X790119Y1128847D03*
X815519Y1071697D03*
X815519Y1128847D03*
X840919Y1071697D03*
X840919Y1128847D03*
X866319Y1071697D03*
X866319Y1128847D03*
X891719Y1071697D03*
X891719Y1128847D03*
X917119Y1071697D03*
X917119Y1128847D03*
X942519Y1071697D03*
X942519Y1128847D03*
X967919Y1071697D03*
X967919Y1128847D03*
X993319Y1071697D03*
X993319Y1128847D03*
X1018719Y1071697D03*
X1018719Y1128847D03*
X1044119Y1071697D03*
X1044119Y1128847D03*
X1069519Y1071697D03*
X1069519Y1128847D03*
X1094919Y1071697D03*
X1094919Y1128847D03*
X1120319Y1071697D03*
X1120319Y1128847D03*
X1145719Y1071697D03*
X1145719Y1128847D03*
X1171119Y1071697D03*
X1171119Y1128847D03*
X1196519Y1071697D03*
X1196519Y1128847D03*
X1221919Y1071697D03*
X1221919Y1128847D03*
X1247319Y1071697D03*
X1247319Y1128847D03*
D18*
X777419Y1100272D03*
X1234619Y1100272D03*
D20*
X715999Y610412D03*
X1295999Y610412D03*
X715999Y1100412D03*
X1295999Y1100412D03*
D21*
X1267357Y584261D03*
X688757Y1074538D03*
D13*
X947699Y969112D03*
X1049299Y638912D03*
X1023899Y638912D03*
X973099Y638912D03*
X947699Y638912D03*
X922299Y638912D03*
X896899Y638912D03*
X833399Y638912D03*
X807999Y638912D03*
D10*
X1411023Y1039922D03*
X1411023Y982122D03*
D11*
X1543888Y1017549D03*
X1543888Y1025677D03*
D12*
X1834413Y954913D03*
X1844573Y954913D03*
X1854733Y954913D03*
D13*
X1844573Y778612D03*
X1869973Y778612D03*
X1895373Y778612D03*
X1920773Y778612D03*
D14*
X1970811Y690220D03*
X1971573Y664312D03*
D13*
X1450873Y1019912D03*
D11*
X1599463Y810362D03*
X1599463Y800202D03*
X1622323Y810616D03*
X1622323Y802488D03*
X1645183Y810616D03*
X1645183Y802488D03*
X1668043Y810616D03*
X1668043Y802488D03*
D15*
X1996973Y981812D03*
X1996973Y1007212D03*
D13*
X1768373Y740512D03*
X1742973Y740512D03*
X1628673Y905612D03*
D11*
X1684680Y953922D03*
X1684680Y945794D03*
D16*
X1486433Y607162D03*
X1461033Y607162D03*
X1537233Y607162D03*
X1511833Y607162D03*
X1588033Y607162D03*
X1562633Y607162D03*
X1664233Y607162D03*
X1638833Y607162D03*
X1715033Y607162D03*
X1689633Y607162D03*
X1765833Y607162D03*
X1740433Y607162D03*
D15*
X1996973Y905612D03*
X1996973Y880212D03*
D11*
X1539773Y935076D03*
X1539773Y926948D03*
D17*
X1501673Y804012D03*
X1501673Y829412D03*
X1501673Y854812D03*
X1476273Y804012D03*
X1476273Y829412D03*
X1476273Y854812D03*
D11*
X1539494Y898042D03*
X1539494Y887882D03*
D15*
X1843303Y689712D03*
X1845843Y715112D03*
X1843303Y740512D03*
X1868703Y689712D03*
X1871243Y715112D03*
X1868703Y740512D03*
X1894103Y689712D03*
X1896643Y715112D03*
X1894103Y740512D03*
X1919503Y689712D03*
X1922043Y715112D03*
X1919503Y740512D03*
X1996973Y931012D03*
X1996973Y956412D03*
X1996973Y1032612D03*
X1996973Y1058012D03*
X1996973Y829412D03*
X1996973Y854812D03*
D18*
X1730273Y759562D03*
X1742973Y759562D03*
X1755673Y759562D03*
X1768373Y759562D03*
X1717573Y759562D03*
X1730273Y772262D03*
X1742973Y772262D03*
X1755673Y772262D03*
X1768373Y772262D03*
X1717573Y772262D03*
D19*
X1445693Y1071697D03*
X1445693Y1128847D03*
X1471093Y1071697D03*
X1471093Y1128847D03*
X1496493Y1071697D03*
X1496493Y1128847D03*
X1521893Y1071697D03*
X1521893Y1128847D03*
X1547293Y1071697D03*
X1547293Y1128847D03*
X1572693Y1071697D03*
X1572693Y1128847D03*
X1598093Y1071697D03*
X1598093Y1128847D03*
X1623493Y1071697D03*
X1623493Y1128847D03*
X1648893Y1071697D03*
X1648893Y1128847D03*
X1674293Y1071697D03*
X1674293Y1128847D03*
X1699693Y1071697D03*
X1699693Y1128847D03*
X1725093Y1071697D03*
X1725093Y1128847D03*
X1750493Y1071697D03*
X1750493Y1128847D03*
X1775893Y1071697D03*
X1775893Y1128847D03*
X1801293Y1071697D03*
X1801293Y1128847D03*
X1826693Y1071697D03*
X1826693Y1128847D03*
X1852093Y1071697D03*
X1852093Y1128847D03*
X1877493Y1071697D03*
X1877493Y1128847D03*
X1902893Y1071697D03*
X1902893Y1128847D03*
X1928293Y1071697D03*
X1928293Y1128847D03*
D18*
X1458393Y1100272D03*
X1915593Y1100272D03*
D20*
X1396973Y610412D03*
X1976973Y610412D03*
X1396973Y1100412D03*
X1976973Y1100412D03*
D21*
X1948331Y584261D03*
X1369731Y1074538D03*
D13*
X1628673Y969112D03*
X1730273Y638912D03*
X1704873Y638912D03*
X1654073Y638912D03*
X1628673Y638912D03*
X1603273Y638912D03*
X1577873Y638912D03*
X1514373Y638912D03*
X1488973Y638912D03*
D18*
X93980Y1166698D03*
X1994078Y1166698D03*
D22*
X84925Y-20955D02*
X84928Y-20733D01*
X84936Y-20511D01*
X84950Y-20289D01*
X84969Y-20067D01*
X84993Y-19847D01*
X85023Y-19626D01*
X85058Y-19407D01*
X85099Y-19188D01*
X85145Y-18971D01*
X85196Y-18755D01*
X85253Y-18540D01*
X85315Y-18326D01*
X85382Y-18115D01*
X85454Y-17904D01*
X85532Y-17696D01*
X85614Y-17490D01*
X85702Y-17286D01*
X85794Y-17083D01*
X85892Y-16884D01*
X85994Y-16687D01*
X86101Y-16492D01*
X86213Y-16300D01*
X86330Y-16111D01*
X86451Y-15924D01*
X86577Y-15741D01*
X86707Y-15561D01*
X86842Y-15384D01*
X86980Y-15211D01*
X87123Y-15041D01*
X87271Y-14874D01*
X87422Y-14711D01*
X87577Y-14552D01*
X87736Y-14397D01*
X87899Y-14246D01*
X88066Y-14098D01*
X88236Y-13955D01*
X88409Y-13817D01*
X88586Y-13682D01*
X88766Y-13552D01*
X88949Y-13426D01*
X89136Y-13305D01*
X89325Y-13188D01*
X89517Y-13076D01*
X89712Y-12969D01*
X89909Y-12867D01*
X90108Y-12769D01*
X90311Y-12677D01*
X90515Y-12589D01*
X90721Y-12507D01*
X90929Y-12429D01*
X91140Y-12357D01*
X91351Y-12290D01*
X91565Y-12228D01*
X91780Y-12171D01*
X91996Y-12120D01*
X92213Y-12074D01*
X92432Y-12033D01*
X92651Y-11998D01*
X92872Y-11968D01*
X93092Y-11944D01*
X93314Y-11925D01*
X93536Y-11911D01*
X93758Y-11903D01*
X93980Y-11900D01*
X94202Y-11903D01*
X94424Y-11911D01*
X94646Y-11925D01*
X94868Y-11944D01*
X95088Y-11968D01*
X95309Y-11998D01*
X95528Y-12033D01*
X95747Y-12074D01*
X95964Y-12120D01*
X96180Y-12171D01*
X96395Y-12228D01*
X96609Y-12290D01*
X96820Y-12357D01*
X97031Y-12429D01*
X97239Y-12507D01*
X97445Y-12589D01*
X97649Y-12677D01*
X97852Y-12769D01*
X98051Y-12867D01*
X98248Y-12969D01*
X98443Y-13076D01*
X98635Y-13188D01*
X98824Y-13305D01*
X99011Y-13426D01*
X99194Y-13552D01*
X99374Y-13682D01*
X99551Y-13817D01*
X99724Y-13955D01*
X99894Y-14098D01*
X100061Y-14246D01*
X100224Y-14397D01*
X100383Y-14552D01*
X100538Y-14711D01*
X100689Y-14874D01*
X100837Y-15041D01*
X100980Y-15211D01*
X101118Y-15384D01*
X101253Y-15561D01*
X101383Y-15741D01*
X101509Y-15924D01*
X101630Y-16111D01*
X101747Y-16300D01*
X101859Y-16492D01*
X101966Y-16687D01*
X102068Y-16884D01*
X102166Y-17083D01*
X102258Y-17286D01*
X102346Y-17490D01*
X102428Y-17696D01*
X102506Y-17904D01*
X102578Y-18115D01*
X102645Y-18326D01*
X102707Y-18540D01*
X102764Y-18755D01*
X102815Y-18971D01*
X102861Y-19188D01*
X102902Y-19407D01*
X102937Y-19626D01*
X102967Y-19847D01*
X102991Y-20067D01*
X103010Y-20289D01*
X103024Y-20511D01*
X103032Y-20733D01*
X103035Y-20955D01*
X103032Y-21177D01*
X103024Y-21399D01*
X103010Y-21621D01*
X102991Y-21843D01*
X102967Y-22063D01*
X102937Y-22284D01*
X102902Y-22503D01*
X102861Y-22722D01*
X102815Y-22939D01*
X102764Y-23155D01*
X102707Y-23370D01*
X102645Y-23584D01*
X102578Y-23795D01*
X102506Y-24006D01*
X102428Y-24214D01*
X102346Y-24420D01*
X102258Y-24624D01*
X102166Y-24827D01*
X102068Y-25026D01*
X101966Y-25223D01*
X101859Y-25418D01*
X101747Y-25610D01*
X101630Y-25799D01*
X101509Y-25986D01*
X101383Y-26169D01*
X101253Y-26349D01*
X101118Y-26526D01*
X100980Y-26699D01*
X100837Y-26869D01*
X100689Y-27036D01*
X100538Y-27199D01*
X100383Y-27358D01*
X100224Y-27513D01*
X100061Y-27664D01*
X99894Y-27812D01*
X99724Y-27955D01*
X99551Y-28093D01*
X99374Y-28228D01*
X99194Y-28358D01*
X99011Y-28484D01*
X98824Y-28605D01*
X98635Y-28722D01*
X98443Y-28834D01*
X98248Y-28941D01*
X98051Y-29043D01*
X97852Y-29141D01*
X97649Y-29233D01*
X97445Y-29321D01*
X97239Y-29403D01*
X97031Y-29481D01*
X96820Y-29553D01*
X96609Y-29620D01*
X96395Y-29682D01*
X96180Y-29739D01*
X95964Y-29790D01*
X95747Y-29836D01*
X95528Y-29877D01*
X95309Y-29912D01*
X95088Y-29942D01*
X94868Y-29966D01*
X94646Y-29985D01*
X94424Y-29999D01*
X94202Y-30007D01*
X93980Y-30010D01*
X93758Y-30007D01*
X93536Y-29999D01*
X93314Y-29985D01*
X93092Y-29966D01*
X92872Y-29942D01*
X92651Y-29912D01*
X92432Y-29877D01*
X92213Y-29836D01*
X91996Y-29790D01*
X91780Y-29739D01*
X91565Y-29682D01*
X91351Y-29620D01*
X91140Y-29553D01*
X90929Y-29481D01*
X90721Y-29403D01*
X90515Y-29321D01*
X90311Y-29233D01*
X90108Y-29141D01*
X89909Y-29043D01*
X89712Y-28941D01*
X89517Y-28834D01*
X89325Y-28722D01*
X89136Y-28605D01*
X88949Y-28484D01*
X88766Y-28358D01*
X88586Y-28228D01*
X88409Y-28093D01*
X88236Y-27955D01*
X88066Y-27812D01*
X87899Y-27664D01*
X87736Y-27513D01*
X87577Y-27358D01*
X87422Y-27199D01*
X87271Y-27036D01*
X87123Y-26869D01*
X86980Y-26699D01*
X86842Y-26526D01*
X86707Y-26349D01*
X86577Y-26169D01*
X86451Y-25986D01*
X86330Y-25799D01*
X86213Y-25610D01*
X86101Y-25418D01*
X85994Y-25223D01*
X85892Y-25026D01*
X85794Y-24827D01*
X85702Y-24624D01*
X85614Y-24420D01*
X85532Y-24214D01*
X85454Y-24006D01*
X85382Y-23795D01*
X85315Y-23584D01*
X85253Y-23370D01*
X85196Y-23155D01*
X85145Y-22939D01*
X85099Y-22722D01*
X85058Y-22503D01*
X85023Y-22284D01*
X84993Y-22063D01*
X84969Y-21843D01*
X84950Y-21621D01*
X84936Y-21399D01*
X84928Y-21177D01*
X84925Y-20955D01*
D23*
X93980Y-20955D03*
M02*
