G04 EAGLE Gerber RS-274X export*
G75*
%MOMM*%
%FSLAX34Y34*%
%LPD*%
%INSoldermask Top*%
%IPPOS*%
%AMOC8*
5,1,8,0,0,1.08239X$1,22.5*%
G01*
%ADD10R,1.203200X1.303200*%
%ADD11R,1.303200X1.203200*%
%ADD12R,0.503200X1.203200*%
%ADD13R,3.203200X1.603200*%
%ADD14R,2.203200X1.403200*%
%ADD15R,1.553200X0.803200*%
%ADD16R,1.203200X0.503200*%
%ADD17R,1.203200X0.803200*%
%ADD18C,0.853200*%
%ADD19R,3.098800X1.879600*%
%ADD20R,1.473200X0.838200*%
%ADD21R,0.903200X0.903200*%
%ADD22R,1.003200X1.103200*%
%ADD23R,1.003200X0.603200*%
%ADD24R,1.103200X1.003200*%
%ADD25R,1.103200X1.053200*%
%ADD26R,1.053200X1.103200*%
%ADD27R,0.503200X0.903200*%
%ADD28R,2.203200X1.103200*%
%ADD29C,2.082800*%
%ADD30R,1.003200X1.403200*%
%ADD31C,0.505344*%
%ADD32R,0.487800X1.003200*%
%ADD33R,1.003200X0.487800*%
%ADD34R,4.603200X4.603200*%
%ADD35R,0.698200X0.453200*%
%ADD36R,0.803200X0.453200*%
%ADD37R,0.453200X0.698200*%
%ADD38R,0.453200X0.803200*%
%ADD39R,0.104000X0.453000*%
%ADD40R,0.453000X0.104000*%
%ADD41R,0.603200X0.953200*%
%ADD42R,0.663200X0.853200*%
%ADD43R,0.803200X0.803200*%
%ADD44R,1.727200X1.727200*%
%ADD45R,1.403200X0.803200*%
%ADD46C,1.203200*%
%ADD47R,1.473200X3.378200*%
%ADD48C,3.251200*%
%ADD49C,0.838200*%
%ADD50C,0.762000*%
%ADD51C,1.270000*%
%ADD52C,1.703200*%

G36*
X60304Y1048175D02*
X60304Y1048175D01*
X60307Y1048173D01*
X61429Y1048328D01*
X61434Y1048333D01*
X61438Y1048330D01*
X62509Y1048701D01*
X62513Y1048707D01*
X62518Y1048705D01*
X63495Y1049277D01*
X63498Y1049284D01*
X63503Y1049283D01*
X64350Y1050035D01*
X64352Y1050042D01*
X64357Y1050042D01*
X65041Y1050946D01*
X65041Y1050953D01*
X65046Y1050954D01*
X65541Y1051973D01*
X65539Y1051980D01*
X65544Y1051982D01*
X65831Y1053078D01*
X65829Y1053083D01*
X65831Y1053084D01*
X65829Y1053086D01*
X65832Y1053088D01*
X65899Y1054219D01*
X65897Y1054222D01*
X65899Y1054225D01*
X65832Y1055355D01*
X65827Y1055361D01*
X65831Y1055365D01*
X65544Y1056461D01*
X65538Y1056466D01*
X65541Y1056470D01*
X65046Y1057489D01*
X65040Y1057493D01*
X65041Y1057498D01*
X64357Y1058401D01*
X64350Y1058403D01*
X64350Y1058408D01*
X63503Y1059160D01*
X63496Y1059161D01*
X63495Y1059166D01*
X62518Y1059738D01*
X62511Y1059738D01*
X62509Y1059742D01*
X61438Y1060113D01*
X61432Y1060111D01*
X61429Y1060116D01*
X60307Y1060270D01*
X60302Y1060268D01*
X60300Y1060271D01*
X48300Y1060271D01*
X48295Y1060267D01*
X48292Y1060270D01*
X47025Y1060066D01*
X47019Y1060060D01*
X47015Y1060063D01*
X45825Y1059581D01*
X45821Y1059574D01*
X45815Y1059576D01*
X44762Y1058842D01*
X44760Y1058834D01*
X44754Y1058834D01*
X43891Y1057884D01*
X43890Y1057876D01*
X43885Y1057875D01*
X43255Y1056757D01*
X43256Y1056749D01*
X43250Y1056747D01*
X42885Y1055516D01*
X42888Y1055509D01*
X42883Y1055506D01*
X42801Y1054225D01*
X42804Y1054221D01*
X42801Y1054218D01*
X42883Y1052938D01*
X42889Y1052931D01*
X42885Y1052927D01*
X43250Y1051696D01*
X43257Y1051692D01*
X43255Y1051686D01*
X43885Y1050568D01*
X43892Y1050565D01*
X43891Y1050559D01*
X44754Y1049609D01*
X44762Y1049607D01*
X44762Y1049602D01*
X45815Y1048867D01*
X45823Y1048868D01*
X45825Y1048862D01*
X47015Y1048381D01*
X47022Y1048383D01*
X47025Y1048378D01*
X48292Y1048173D01*
X48297Y1048176D01*
X48300Y1048172D01*
X60300Y1048172D01*
X60304Y1048175D01*
G37*
G36*
X741304Y1048175D02*
X741304Y1048175D01*
X741306Y1048173D01*
X742428Y1048328D01*
X742434Y1048333D01*
X742438Y1048330D01*
X743508Y1048701D01*
X743512Y1048707D01*
X743517Y1048705D01*
X744495Y1049277D01*
X744498Y1049284D01*
X744503Y1049283D01*
X745350Y1050035D01*
X745351Y1050042D01*
X745356Y1050042D01*
X746040Y1050946D01*
X746040Y1050953D01*
X746045Y1050954D01*
X746540Y1051973D01*
X746539Y1051980D01*
X746544Y1051982D01*
X746830Y1053078D01*
X746828Y1053083D01*
X746830Y1053084D01*
X746829Y1053086D01*
X746832Y1053088D01*
X746899Y1054219D01*
X746896Y1054222D01*
X746899Y1054225D01*
X746832Y1055355D01*
X746827Y1055361D01*
X746830Y1055365D01*
X746544Y1056461D01*
X746538Y1056466D01*
X746540Y1056470D01*
X746045Y1057489D01*
X746039Y1057493D01*
X746040Y1057498D01*
X745356Y1058401D01*
X745349Y1058403D01*
X745350Y1058408D01*
X744503Y1059160D01*
X744495Y1059161D01*
X744495Y1059166D01*
X743517Y1059738D01*
X743510Y1059738D01*
X743508Y1059742D01*
X742438Y1060113D01*
X742431Y1060111D01*
X742428Y1060116D01*
X741306Y1060270D01*
X741302Y1060268D01*
X741299Y1060271D01*
X729299Y1060271D01*
X729295Y1060267D01*
X729292Y1060270D01*
X728025Y1060066D01*
X728019Y1060060D01*
X728014Y1060063D01*
X726824Y1059581D01*
X726820Y1059574D01*
X726814Y1059576D01*
X725762Y1058842D01*
X725759Y1058834D01*
X725753Y1058834D01*
X724891Y1057884D01*
X724890Y1057876D01*
X724884Y1057875D01*
X724254Y1056757D01*
X724255Y1056749D01*
X724250Y1056747D01*
X723885Y1055516D01*
X723887Y1055509D01*
X723883Y1055506D01*
X723800Y1054225D01*
X723803Y1054221D01*
X723800Y1054218D01*
X723883Y1052938D01*
X723888Y1052931D01*
X723885Y1052927D01*
X724250Y1051696D01*
X724256Y1051692D01*
X724254Y1051686D01*
X724884Y1050568D01*
X724892Y1050565D01*
X724891Y1050559D01*
X725753Y1049609D01*
X725762Y1049607D01*
X725762Y1049602D01*
X726814Y1048867D01*
X726823Y1048868D01*
X726824Y1048862D01*
X728014Y1048381D01*
X728022Y1048383D01*
X728025Y1048378D01*
X729292Y1048173D01*
X729297Y1048176D01*
X729299Y1048172D01*
X741299Y1048172D01*
X741304Y1048175D01*
G37*
G36*
X1422278Y1048175D02*
X1422278Y1048175D01*
X1422280Y1048173D01*
X1423402Y1048328D01*
X1423408Y1048333D01*
X1423412Y1048330D01*
X1424482Y1048701D01*
X1424486Y1048707D01*
X1424491Y1048705D01*
X1425469Y1049277D01*
X1425472Y1049284D01*
X1425477Y1049283D01*
X1426324Y1050035D01*
X1426325Y1050042D01*
X1426330Y1050042D01*
X1427014Y1050946D01*
X1427014Y1050953D01*
X1427019Y1050954D01*
X1427514Y1051973D01*
X1427513Y1051980D01*
X1427518Y1051982D01*
X1427804Y1053078D01*
X1427802Y1053083D01*
X1427804Y1053084D01*
X1427803Y1053086D01*
X1427806Y1053088D01*
X1427873Y1054219D01*
X1427870Y1054222D01*
X1427873Y1054225D01*
X1427806Y1055355D01*
X1427801Y1055361D01*
X1427804Y1055365D01*
X1427518Y1056461D01*
X1427512Y1056466D01*
X1427514Y1056470D01*
X1427019Y1057489D01*
X1427013Y1057493D01*
X1427014Y1057498D01*
X1426330Y1058401D01*
X1426323Y1058403D01*
X1426324Y1058408D01*
X1425477Y1059160D01*
X1425469Y1059161D01*
X1425469Y1059166D01*
X1424491Y1059738D01*
X1424484Y1059738D01*
X1424482Y1059742D01*
X1423412Y1060113D01*
X1423405Y1060111D01*
X1423402Y1060116D01*
X1422280Y1060270D01*
X1422276Y1060268D01*
X1422273Y1060271D01*
X1410273Y1060271D01*
X1410269Y1060267D01*
X1410266Y1060270D01*
X1408999Y1060066D01*
X1408993Y1060060D01*
X1408988Y1060063D01*
X1407798Y1059581D01*
X1407794Y1059574D01*
X1407788Y1059576D01*
X1406736Y1058842D01*
X1406733Y1058834D01*
X1406727Y1058834D01*
X1405865Y1057884D01*
X1405864Y1057876D01*
X1405858Y1057875D01*
X1405228Y1056757D01*
X1405229Y1056749D01*
X1405224Y1056747D01*
X1404859Y1055516D01*
X1404861Y1055509D01*
X1404857Y1055506D01*
X1404774Y1054225D01*
X1404777Y1054221D01*
X1404774Y1054218D01*
X1404857Y1052938D01*
X1404862Y1052931D01*
X1404859Y1052927D01*
X1405224Y1051696D01*
X1405230Y1051692D01*
X1405228Y1051686D01*
X1405858Y1050568D01*
X1405866Y1050565D01*
X1405865Y1050559D01*
X1406727Y1049609D01*
X1406736Y1049607D01*
X1406736Y1049602D01*
X1407788Y1048867D01*
X1407797Y1048868D01*
X1407798Y1048862D01*
X1408988Y1048381D01*
X1408996Y1048383D01*
X1408999Y1048378D01*
X1410266Y1048173D01*
X1410271Y1048176D01*
X1410273Y1048172D01*
X1422273Y1048172D01*
X1422278Y1048175D01*
G37*
G36*
X1422278Y961775D02*
X1422278Y961775D01*
X1422280Y961773D01*
X1423402Y961928D01*
X1423408Y961933D01*
X1423412Y961930D01*
X1424482Y962301D01*
X1424486Y962307D01*
X1424491Y962305D01*
X1425469Y962877D01*
X1425472Y962884D01*
X1425477Y962883D01*
X1426324Y963635D01*
X1426325Y963642D01*
X1426330Y963642D01*
X1427014Y964546D01*
X1427014Y964553D01*
X1427019Y964554D01*
X1427514Y965573D01*
X1427513Y965580D01*
X1427518Y965582D01*
X1427804Y966678D01*
X1427802Y966683D01*
X1427804Y966684D01*
X1427803Y966686D01*
X1427806Y966688D01*
X1427873Y967819D01*
X1427870Y967822D01*
X1427873Y967825D01*
X1427806Y968955D01*
X1427801Y968961D01*
X1427804Y968965D01*
X1427518Y970061D01*
X1427512Y970066D01*
X1427514Y970070D01*
X1427019Y971089D01*
X1427013Y971093D01*
X1427014Y971098D01*
X1426330Y972001D01*
X1426323Y972003D01*
X1426324Y972008D01*
X1425477Y972760D01*
X1425469Y972761D01*
X1425469Y972766D01*
X1424491Y973338D01*
X1424484Y973338D01*
X1424482Y973342D01*
X1423412Y973713D01*
X1423405Y973711D01*
X1423402Y973716D01*
X1422280Y973870D01*
X1422276Y973868D01*
X1422273Y973871D01*
X1410273Y973871D01*
X1410269Y973867D01*
X1410266Y973870D01*
X1408999Y973666D01*
X1408993Y973660D01*
X1408988Y973663D01*
X1407798Y973181D01*
X1407794Y973174D01*
X1407788Y973176D01*
X1406736Y972442D01*
X1406733Y972434D01*
X1406727Y972434D01*
X1405865Y971484D01*
X1405864Y971476D01*
X1405858Y971475D01*
X1405228Y970357D01*
X1405229Y970349D01*
X1405224Y970347D01*
X1404859Y969116D01*
X1404861Y969109D01*
X1404857Y969106D01*
X1404774Y967825D01*
X1404777Y967821D01*
X1404774Y967818D01*
X1404857Y966538D01*
X1404862Y966531D01*
X1404859Y966527D01*
X1405224Y965296D01*
X1405230Y965292D01*
X1405228Y965286D01*
X1405858Y964168D01*
X1405866Y964165D01*
X1405865Y964159D01*
X1406727Y963209D01*
X1406736Y963207D01*
X1406736Y963202D01*
X1407788Y962467D01*
X1407797Y962468D01*
X1407798Y962462D01*
X1408988Y961981D01*
X1408996Y961983D01*
X1408999Y961978D01*
X1410266Y961773D01*
X1410271Y961776D01*
X1410273Y961772D01*
X1422273Y961772D01*
X1422278Y961775D01*
G37*
G36*
X60304Y961775D02*
X60304Y961775D01*
X60307Y961773D01*
X61429Y961928D01*
X61434Y961933D01*
X61438Y961930D01*
X62509Y962301D01*
X62513Y962307D01*
X62518Y962305D01*
X63495Y962877D01*
X63498Y962884D01*
X63503Y962883D01*
X64350Y963635D01*
X64352Y963642D01*
X64357Y963642D01*
X65041Y964546D01*
X65041Y964553D01*
X65046Y964554D01*
X65541Y965573D01*
X65539Y965580D01*
X65544Y965582D01*
X65831Y966678D01*
X65829Y966683D01*
X65831Y966684D01*
X65829Y966686D01*
X65832Y966688D01*
X65899Y967819D01*
X65897Y967822D01*
X65899Y967825D01*
X65832Y968955D01*
X65827Y968961D01*
X65831Y968965D01*
X65544Y970061D01*
X65538Y970066D01*
X65541Y970070D01*
X65046Y971089D01*
X65040Y971093D01*
X65041Y971098D01*
X64357Y972001D01*
X64350Y972003D01*
X64350Y972008D01*
X63503Y972760D01*
X63496Y972761D01*
X63495Y972766D01*
X62518Y973338D01*
X62511Y973338D01*
X62509Y973342D01*
X61438Y973713D01*
X61432Y973711D01*
X61429Y973716D01*
X60307Y973870D01*
X60302Y973868D01*
X60300Y973871D01*
X48300Y973871D01*
X48295Y973867D01*
X48292Y973870D01*
X47025Y973666D01*
X47019Y973660D01*
X47015Y973663D01*
X45825Y973181D01*
X45821Y973174D01*
X45815Y973176D01*
X44762Y972442D01*
X44760Y972434D01*
X44754Y972434D01*
X43891Y971484D01*
X43890Y971476D01*
X43885Y971475D01*
X43255Y970357D01*
X43256Y970349D01*
X43250Y970347D01*
X42885Y969116D01*
X42888Y969109D01*
X42883Y969106D01*
X42801Y967825D01*
X42804Y967821D01*
X42801Y967818D01*
X42883Y966538D01*
X42889Y966531D01*
X42885Y966527D01*
X43250Y965296D01*
X43257Y965292D01*
X43255Y965286D01*
X43885Y964168D01*
X43892Y964165D01*
X43891Y964159D01*
X44754Y963209D01*
X44762Y963207D01*
X44762Y963202D01*
X45815Y962467D01*
X45823Y962468D01*
X45825Y962462D01*
X47015Y961981D01*
X47022Y961983D01*
X47025Y961978D01*
X48292Y961773D01*
X48297Y961776D01*
X48300Y961772D01*
X60300Y961772D01*
X60304Y961775D01*
G37*
G36*
X741304Y961775D02*
X741304Y961775D01*
X741306Y961773D01*
X742428Y961928D01*
X742434Y961933D01*
X742438Y961930D01*
X743508Y962301D01*
X743512Y962307D01*
X743517Y962305D01*
X744495Y962877D01*
X744498Y962884D01*
X744503Y962883D01*
X745350Y963635D01*
X745351Y963642D01*
X745356Y963642D01*
X746040Y964546D01*
X746040Y964553D01*
X746045Y964554D01*
X746540Y965573D01*
X746539Y965580D01*
X746544Y965582D01*
X746830Y966678D01*
X746828Y966683D01*
X746830Y966684D01*
X746829Y966686D01*
X746832Y966688D01*
X746899Y967819D01*
X746896Y967822D01*
X746899Y967825D01*
X746832Y968955D01*
X746827Y968961D01*
X746830Y968965D01*
X746544Y970061D01*
X746538Y970066D01*
X746540Y970070D01*
X746045Y971089D01*
X746039Y971093D01*
X746040Y971098D01*
X745356Y972001D01*
X745349Y972003D01*
X745350Y972008D01*
X744503Y972760D01*
X744495Y972761D01*
X744495Y972766D01*
X743517Y973338D01*
X743510Y973338D01*
X743508Y973342D01*
X742438Y973713D01*
X742431Y973711D01*
X742428Y973716D01*
X741306Y973870D01*
X741302Y973868D01*
X741299Y973871D01*
X729299Y973871D01*
X729295Y973867D01*
X729292Y973870D01*
X728025Y973666D01*
X728019Y973660D01*
X728014Y973663D01*
X726824Y973181D01*
X726820Y973174D01*
X726814Y973176D01*
X725762Y972442D01*
X725759Y972434D01*
X725753Y972434D01*
X724891Y971484D01*
X724890Y971476D01*
X724884Y971475D01*
X724254Y970357D01*
X724255Y970349D01*
X724250Y970347D01*
X723885Y969116D01*
X723887Y969109D01*
X723883Y969106D01*
X723800Y967825D01*
X723803Y967821D01*
X723800Y967818D01*
X723883Y966538D01*
X723888Y966531D01*
X723885Y966527D01*
X724250Y965296D01*
X724256Y965292D01*
X724254Y965286D01*
X724884Y964168D01*
X724892Y964165D01*
X724891Y964159D01*
X725753Y963209D01*
X725762Y963207D01*
X725762Y963202D01*
X726814Y962467D01*
X726823Y962468D01*
X726824Y962462D01*
X728014Y961981D01*
X728022Y961983D01*
X728025Y961978D01*
X729292Y961773D01*
X729297Y961776D01*
X729299Y961772D01*
X741299Y961772D01*
X741304Y961775D01*
G37*
G36*
X741304Y472764D02*
X741304Y472764D01*
X741306Y472761D01*
X742428Y472916D01*
X742434Y472921D01*
X742438Y472918D01*
X743508Y473289D01*
X743512Y473295D01*
X743517Y473293D01*
X744495Y473866D01*
X744498Y473872D01*
X744503Y473871D01*
X745350Y474624D01*
X745351Y474631D01*
X745356Y474631D01*
X746040Y475534D01*
X746040Y475541D01*
X746045Y475542D01*
X746540Y476561D01*
X746539Y476568D01*
X746544Y476570D01*
X746830Y477667D01*
X746828Y477671D01*
X746830Y477672D01*
X746829Y477674D01*
X746832Y477676D01*
X746899Y478807D01*
X746896Y478811D01*
X746899Y478813D01*
X746832Y479944D01*
X746827Y479949D01*
X746830Y479953D01*
X746544Y481050D01*
X746538Y481054D01*
X746540Y481059D01*
X746045Y482078D01*
X746039Y482081D01*
X746040Y482086D01*
X745356Y482989D01*
X745349Y482991D01*
X745350Y482996D01*
X744503Y483749D01*
X744495Y483749D01*
X744495Y483754D01*
X743517Y484327D01*
X743510Y484326D01*
X743508Y484331D01*
X742438Y484702D01*
X742431Y484699D01*
X742428Y484704D01*
X741306Y484859D01*
X741302Y484856D01*
X741299Y484859D01*
X729299Y484859D01*
X729295Y484856D01*
X729292Y484859D01*
X728025Y484654D01*
X728019Y484648D01*
X728014Y484651D01*
X726824Y484169D01*
X726820Y484162D01*
X726814Y484164D01*
X725762Y483430D01*
X725759Y483422D01*
X725753Y483423D01*
X724891Y482473D01*
X724890Y482464D01*
X724884Y482464D01*
X724254Y481345D01*
X724255Y481337D01*
X724250Y481335D01*
X723885Y480105D01*
X723887Y480097D01*
X723883Y480094D01*
X723800Y478813D01*
X723803Y478809D01*
X723800Y478807D01*
X723883Y477526D01*
X723888Y477520D01*
X723885Y477515D01*
X724250Y476285D01*
X724256Y476280D01*
X724254Y476275D01*
X724884Y475156D01*
X724892Y475153D01*
X724891Y475147D01*
X725753Y474197D01*
X725762Y474196D01*
X725762Y474190D01*
X726814Y473456D01*
X726823Y473456D01*
X726824Y473451D01*
X728014Y472969D01*
X728022Y472971D01*
X728025Y472966D01*
X729292Y472761D01*
X729297Y472764D01*
X729299Y472761D01*
X741299Y472761D01*
X741304Y472764D01*
G37*
G36*
X60304Y472764D02*
X60304Y472764D01*
X60307Y472761D01*
X61429Y472916D01*
X61434Y472921D01*
X61438Y472918D01*
X62509Y473289D01*
X62513Y473295D01*
X62518Y473293D01*
X63495Y473866D01*
X63498Y473872D01*
X63503Y473871D01*
X64350Y474624D01*
X64352Y474631D01*
X64357Y474631D01*
X65041Y475534D01*
X65041Y475541D01*
X65046Y475542D01*
X65541Y476561D01*
X65539Y476568D01*
X65544Y476570D01*
X65831Y477667D01*
X65829Y477671D01*
X65831Y477672D01*
X65829Y477674D01*
X65832Y477676D01*
X65899Y478807D01*
X65897Y478811D01*
X65899Y478813D01*
X65832Y479944D01*
X65827Y479949D01*
X65831Y479953D01*
X65544Y481050D01*
X65538Y481054D01*
X65541Y481059D01*
X65046Y482078D01*
X65040Y482081D01*
X65041Y482086D01*
X64357Y482989D01*
X64350Y482991D01*
X64350Y482996D01*
X63503Y483749D01*
X63496Y483749D01*
X63495Y483754D01*
X62518Y484327D01*
X62511Y484326D01*
X62509Y484331D01*
X61438Y484702D01*
X61432Y484699D01*
X61429Y484704D01*
X60307Y484859D01*
X60302Y484856D01*
X60300Y484859D01*
X48300Y484859D01*
X48295Y484856D01*
X48292Y484859D01*
X47025Y484654D01*
X47019Y484648D01*
X47015Y484651D01*
X45825Y484169D01*
X45821Y484162D01*
X45815Y484164D01*
X44762Y483430D01*
X44760Y483422D01*
X44754Y483423D01*
X43891Y482473D01*
X43890Y482464D01*
X43885Y482464D01*
X43255Y481345D01*
X43256Y481337D01*
X43250Y481335D01*
X42885Y480105D01*
X42888Y480097D01*
X42883Y480094D01*
X42801Y478813D01*
X42804Y478809D01*
X42801Y478807D01*
X42883Y477526D01*
X42889Y477520D01*
X42885Y477515D01*
X43250Y476285D01*
X43257Y476280D01*
X43255Y476275D01*
X43885Y475156D01*
X43892Y475153D01*
X43891Y475147D01*
X44754Y474197D01*
X44762Y474196D01*
X44762Y474190D01*
X45815Y473456D01*
X45823Y473456D01*
X45825Y473451D01*
X47015Y472969D01*
X47022Y472971D01*
X47025Y472966D01*
X48292Y472761D01*
X48297Y472764D01*
X48300Y472761D01*
X60300Y472761D01*
X60304Y472764D01*
G37*
G36*
X1422278Y472764D02*
X1422278Y472764D01*
X1422280Y472761D01*
X1423402Y472916D01*
X1423408Y472921D01*
X1423412Y472918D01*
X1424482Y473289D01*
X1424486Y473295D01*
X1424491Y473293D01*
X1425469Y473866D01*
X1425472Y473872D01*
X1425477Y473871D01*
X1426324Y474624D01*
X1426325Y474631D01*
X1426330Y474631D01*
X1427014Y475534D01*
X1427014Y475541D01*
X1427019Y475542D01*
X1427514Y476561D01*
X1427513Y476568D01*
X1427518Y476570D01*
X1427804Y477667D01*
X1427802Y477671D01*
X1427804Y477672D01*
X1427803Y477674D01*
X1427806Y477676D01*
X1427873Y478807D01*
X1427870Y478811D01*
X1427873Y478813D01*
X1427806Y479944D01*
X1427801Y479949D01*
X1427804Y479953D01*
X1427518Y481050D01*
X1427512Y481054D01*
X1427514Y481059D01*
X1427019Y482078D01*
X1427013Y482081D01*
X1427014Y482086D01*
X1426330Y482989D01*
X1426323Y482991D01*
X1426324Y482996D01*
X1425477Y483749D01*
X1425469Y483749D01*
X1425469Y483754D01*
X1424491Y484327D01*
X1424484Y484326D01*
X1424482Y484331D01*
X1423412Y484702D01*
X1423405Y484699D01*
X1423402Y484704D01*
X1422280Y484859D01*
X1422276Y484856D01*
X1422273Y484859D01*
X1410273Y484859D01*
X1410269Y484856D01*
X1410266Y484859D01*
X1408999Y484654D01*
X1408993Y484648D01*
X1408988Y484651D01*
X1407798Y484169D01*
X1407794Y484162D01*
X1407788Y484164D01*
X1406736Y483430D01*
X1406733Y483422D01*
X1406727Y483423D01*
X1405865Y482473D01*
X1405864Y482464D01*
X1405858Y482464D01*
X1405228Y481345D01*
X1405229Y481337D01*
X1405224Y481335D01*
X1404859Y480105D01*
X1404861Y480097D01*
X1404857Y480094D01*
X1404774Y478813D01*
X1404777Y478809D01*
X1404774Y478807D01*
X1404857Y477526D01*
X1404862Y477520D01*
X1404859Y477515D01*
X1405224Y476285D01*
X1405230Y476280D01*
X1405228Y476275D01*
X1405858Y475156D01*
X1405866Y475153D01*
X1405865Y475147D01*
X1406727Y474197D01*
X1406736Y474196D01*
X1406736Y474190D01*
X1407788Y473456D01*
X1407797Y473456D01*
X1407798Y473451D01*
X1408988Y472969D01*
X1408996Y472971D01*
X1408999Y472966D01*
X1410266Y472761D01*
X1410271Y472764D01*
X1410273Y472761D01*
X1422273Y472761D01*
X1422278Y472764D01*
G37*
G36*
X60304Y386364D02*
X60304Y386364D01*
X60307Y386361D01*
X61429Y386516D01*
X61434Y386521D01*
X61438Y386518D01*
X62509Y386889D01*
X62513Y386895D01*
X62518Y386893D01*
X63495Y387466D01*
X63498Y387472D01*
X63503Y387471D01*
X64350Y388224D01*
X64352Y388231D01*
X64357Y388231D01*
X65041Y389134D01*
X65041Y389141D01*
X65046Y389142D01*
X65541Y390161D01*
X65539Y390168D01*
X65544Y390170D01*
X65831Y391267D01*
X65829Y391271D01*
X65831Y391272D01*
X65829Y391274D01*
X65832Y391276D01*
X65899Y392407D01*
X65897Y392411D01*
X65899Y392413D01*
X65832Y393544D01*
X65827Y393549D01*
X65831Y393553D01*
X65544Y394650D01*
X65538Y394654D01*
X65541Y394659D01*
X65046Y395678D01*
X65040Y395681D01*
X65041Y395686D01*
X64357Y396589D01*
X64350Y396591D01*
X64350Y396596D01*
X63503Y397349D01*
X63496Y397349D01*
X63495Y397354D01*
X62518Y397927D01*
X62511Y397926D01*
X62509Y397931D01*
X61438Y398302D01*
X61432Y398299D01*
X61429Y398304D01*
X60307Y398459D01*
X60302Y398456D01*
X60300Y398459D01*
X48300Y398459D01*
X48295Y398456D01*
X48292Y398459D01*
X47025Y398254D01*
X47019Y398248D01*
X47015Y398251D01*
X45825Y397769D01*
X45821Y397762D01*
X45815Y397764D01*
X44762Y397030D01*
X44760Y397022D01*
X44754Y397023D01*
X43891Y396073D01*
X43890Y396064D01*
X43885Y396064D01*
X43255Y394945D01*
X43256Y394937D01*
X43250Y394935D01*
X42885Y393705D01*
X42888Y393697D01*
X42883Y393694D01*
X42801Y392413D01*
X42804Y392409D01*
X42801Y392407D01*
X42883Y391126D01*
X42889Y391120D01*
X42885Y391115D01*
X43250Y389885D01*
X43257Y389880D01*
X43255Y389875D01*
X43885Y388756D01*
X43892Y388753D01*
X43891Y388747D01*
X44754Y387797D01*
X44762Y387796D01*
X44762Y387790D01*
X45815Y387056D01*
X45823Y387056D01*
X45825Y387051D01*
X47015Y386569D01*
X47022Y386571D01*
X47025Y386566D01*
X48292Y386361D01*
X48297Y386364D01*
X48300Y386361D01*
X60300Y386361D01*
X60304Y386364D01*
G37*
G36*
X741304Y386364D02*
X741304Y386364D01*
X741306Y386361D01*
X742428Y386516D01*
X742434Y386521D01*
X742438Y386518D01*
X743508Y386889D01*
X743512Y386895D01*
X743517Y386893D01*
X744495Y387466D01*
X744498Y387472D01*
X744503Y387471D01*
X745350Y388224D01*
X745351Y388231D01*
X745356Y388231D01*
X746040Y389134D01*
X746040Y389141D01*
X746045Y389142D01*
X746540Y390161D01*
X746539Y390168D01*
X746544Y390170D01*
X746830Y391267D01*
X746828Y391271D01*
X746830Y391272D01*
X746829Y391274D01*
X746832Y391276D01*
X746899Y392407D01*
X746896Y392411D01*
X746899Y392413D01*
X746832Y393544D01*
X746827Y393549D01*
X746830Y393553D01*
X746544Y394650D01*
X746538Y394654D01*
X746540Y394659D01*
X746045Y395678D01*
X746039Y395681D01*
X746040Y395686D01*
X745356Y396589D01*
X745349Y396591D01*
X745350Y396596D01*
X744503Y397349D01*
X744495Y397349D01*
X744495Y397354D01*
X743517Y397927D01*
X743510Y397926D01*
X743508Y397931D01*
X742438Y398302D01*
X742431Y398299D01*
X742428Y398304D01*
X741306Y398459D01*
X741302Y398456D01*
X741299Y398459D01*
X729299Y398459D01*
X729295Y398456D01*
X729292Y398459D01*
X728025Y398254D01*
X728019Y398248D01*
X728014Y398251D01*
X726824Y397769D01*
X726820Y397762D01*
X726814Y397764D01*
X725762Y397030D01*
X725759Y397022D01*
X725753Y397023D01*
X724891Y396073D01*
X724890Y396064D01*
X724884Y396064D01*
X724254Y394945D01*
X724255Y394937D01*
X724250Y394935D01*
X723885Y393705D01*
X723887Y393697D01*
X723883Y393694D01*
X723800Y392413D01*
X723803Y392409D01*
X723800Y392407D01*
X723883Y391126D01*
X723888Y391120D01*
X723885Y391115D01*
X724250Y389885D01*
X724256Y389880D01*
X724254Y389875D01*
X724884Y388756D01*
X724892Y388753D01*
X724891Y388747D01*
X725753Y387797D01*
X725762Y387796D01*
X725762Y387790D01*
X726814Y387056D01*
X726823Y387056D01*
X726824Y387051D01*
X728014Y386569D01*
X728022Y386571D01*
X728025Y386566D01*
X729292Y386361D01*
X729297Y386364D01*
X729299Y386361D01*
X741299Y386361D01*
X741304Y386364D01*
G37*
G36*
X1422278Y386364D02*
X1422278Y386364D01*
X1422280Y386361D01*
X1423402Y386516D01*
X1423408Y386521D01*
X1423412Y386518D01*
X1424482Y386889D01*
X1424486Y386895D01*
X1424491Y386893D01*
X1425469Y387466D01*
X1425472Y387472D01*
X1425477Y387471D01*
X1426324Y388224D01*
X1426325Y388231D01*
X1426330Y388231D01*
X1427014Y389134D01*
X1427014Y389141D01*
X1427019Y389142D01*
X1427514Y390161D01*
X1427513Y390168D01*
X1427518Y390170D01*
X1427804Y391267D01*
X1427802Y391271D01*
X1427804Y391272D01*
X1427803Y391274D01*
X1427806Y391276D01*
X1427873Y392407D01*
X1427870Y392411D01*
X1427873Y392413D01*
X1427806Y393544D01*
X1427801Y393549D01*
X1427804Y393553D01*
X1427518Y394650D01*
X1427512Y394654D01*
X1427514Y394659D01*
X1427019Y395678D01*
X1427013Y395681D01*
X1427014Y395686D01*
X1426330Y396589D01*
X1426323Y396591D01*
X1426324Y396596D01*
X1425477Y397349D01*
X1425469Y397349D01*
X1425469Y397354D01*
X1424491Y397927D01*
X1424484Y397926D01*
X1424482Y397931D01*
X1423412Y398302D01*
X1423405Y398299D01*
X1423402Y398304D01*
X1422280Y398459D01*
X1422276Y398456D01*
X1422273Y398459D01*
X1410273Y398459D01*
X1410269Y398456D01*
X1410266Y398459D01*
X1408999Y398254D01*
X1408993Y398248D01*
X1408988Y398251D01*
X1407798Y397769D01*
X1407794Y397762D01*
X1407788Y397764D01*
X1406736Y397030D01*
X1406733Y397022D01*
X1406727Y397023D01*
X1405865Y396073D01*
X1405864Y396064D01*
X1405858Y396064D01*
X1405228Y394945D01*
X1405229Y394937D01*
X1405224Y394935D01*
X1404859Y393705D01*
X1404861Y393697D01*
X1404857Y393694D01*
X1404774Y392413D01*
X1404777Y392409D01*
X1404774Y392407D01*
X1404857Y391126D01*
X1404862Y391120D01*
X1404859Y391115D01*
X1405224Y389885D01*
X1405230Y389880D01*
X1405228Y389875D01*
X1405858Y388756D01*
X1405866Y388753D01*
X1405865Y388747D01*
X1406727Y387797D01*
X1406736Y387796D01*
X1406736Y387790D01*
X1407788Y387056D01*
X1407797Y387056D01*
X1407798Y387051D01*
X1408988Y386569D01*
X1408996Y386571D01*
X1408999Y386566D01*
X1410266Y386361D01*
X1410271Y386364D01*
X1410273Y386361D01*
X1422273Y386361D01*
X1422278Y386364D01*
G37*
G36*
X1377476Y1048175D02*
X1377476Y1048175D01*
X1377478Y1048173D01*
X1378654Y1048283D01*
X1378659Y1048288D01*
X1378663Y1048285D01*
X1379795Y1048623D01*
X1379799Y1048629D01*
X1379804Y1048627D01*
X1380848Y1049180D01*
X1380851Y1049186D01*
X1380856Y1049185D01*
X1381772Y1049930D01*
X1381774Y1049937D01*
X1381779Y1049937D01*
X1382532Y1050847D01*
X1382532Y1050854D01*
X1382537Y1050855D01*
X1383099Y1051894D01*
X1383098Y1051899D01*
X1383101Y1051902D01*
X1383101Y1051903D01*
X1383102Y1051903D01*
X1383450Y1053032D01*
X1383449Y1053034D01*
X1383450Y1053035D01*
X1383448Y1053039D01*
X1383447Y1053039D01*
X1383452Y1053042D01*
X1383572Y1054217D01*
X1383568Y1054223D01*
X1383572Y1054227D01*
X1383416Y1055567D01*
X1383410Y1055573D01*
X1383413Y1055578D01*
X1382962Y1056850D01*
X1382955Y1056854D01*
X1382958Y1056860D01*
X1382235Y1057999D01*
X1382227Y1058002D01*
X1382228Y1058008D01*
X1381270Y1058958D01*
X1381262Y1058959D01*
X1381261Y1058965D01*
X1380116Y1059678D01*
X1380108Y1059677D01*
X1380106Y1059682D01*
X1378831Y1060123D01*
X1378823Y1060120D01*
X1378820Y1060125D01*
X1377479Y1060271D01*
X1377475Y1060268D01*
X1377473Y1060271D01*
X1371473Y1060271D01*
X1371470Y1060268D01*
X1371468Y1060271D01*
X1370139Y1060115D01*
X1370133Y1060109D01*
X1370128Y1060113D01*
X1368867Y1059665D01*
X1368862Y1059659D01*
X1368857Y1059661D01*
X1367727Y1058944D01*
X1367724Y1058936D01*
X1367719Y1058937D01*
X1366776Y1057987D01*
X1366775Y1057979D01*
X1366770Y1057978D01*
X1366062Y1056843D01*
X1366063Y1056834D01*
X1366058Y1056833D01*
X1365621Y1055568D01*
X1365624Y1055560D01*
X1365619Y1055557D01*
X1365474Y1054227D01*
X1365478Y1054221D01*
X1365474Y1054217D01*
X1365584Y1053051D01*
X1365589Y1053046D01*
X1365586Y1053041D01*
X1365921Y1051919D01*
X1365927Y1051915D01*
X1365925Y1051910D01*
X1366473Y1050875D01*
X1366480Y1050872D01*
X1366478Y1050867D01*
X1367218Y1049958D01*
X1367225Y1049957D01*
X1367224Y1049951D01*
X1368127Y1049205D01*
X1368134Y1049204D01*
X1368135Y1049199D01*
X1369165Y1048643D01*
X1369173Y1048644D01*
X1369174Y1048639D01*
X1370294Y1048294D01*
X1370301Y1048297D01*
X1370303Y1048292D01*
X1371468Y1048173D01*
X1371472Y1048175D01*
X1371473Y1048172D01*
X1377473Y1048172D01*
X1377476Y1048175D01*
G37*
G36*
X15503Y1048175D02*
X15503Y1048175D01*
X15505Y1048173D01*
X16681Y1048283D01*
X16686Y1048288D01*
X16690Y1048285D01*
X17822Y1048623D01*
X17826Y1048629D01*
X17831Y1048627D01*
X18875Y1049180D01*
X18878Y1049186D01*
X18883Y1049185D01*
X19799Y1049930D01*
X19800Y1049937D01*
X19806Y1049937D01*
X20559Y1050847D01*
X20559Y1050854D01*
X20564Y1050855D01*
X21125Y1051894D01*
X21124Y1051899D01*
X21128Y1051902D01*
X21127Y1051903D01*
X21129Y1051903D01*
X21476Y1053032D01*
X21476Y1053034D01*
X21477Y1053035D01*
X21474Y1053039D01*
X21478Y1053042D01*
X21599Y1054217D01*
X21595Y1054223D01*
X21599Y1054227D01*
X21442Y1055567D01*
X21437Y1055573D01*
X21440Y1055578D01*
X20989Y1056850D01*
X20982Y1056854D01*
X20984Y1056860D01*
X20262Y1057999D01*
X20254Y1058002D01*
X20255Y1058008D01*
X19297Y1058958D01*
X19289Y1058959D01*
X19288Y1058965D01*
X18143Y1059678D01*
X18135Y1059677D01*
X18133Y1059682D01*
X16857Y1060123D01*
X16850Y1060120D01*
X16847Y1060125D01*
X15505Y1060271D01*
X15502Y1060268D01*
X15500Y1060271D01*
X9500Y1060271D01*
X9497Y1060268D01*
X9494Y1060271D01*
X8165Y1060115D01*
X8159Y1060109D01*
X8155Y1060113D01*
X6894Y1059665D01*
X6889Y1059659D01*
X6884Y1059661D01*
X5754Y1058944D01*
X5751Y1058936D01*
X5745Y1058937D01*
X4803Y1057987D01*
X4802Y1057979D01*
X4796Y1057978D01*
X4089Y1056843D01*
X4090Y1056834D01*
X4084Y1056833D01*
X3648Y1055568D01*
X3650Y1055560D01*
X3645Y1055557D01*
X3501Y1054227D01*
X3505Y1054221D01*
X3501Y1054217D01*
X3611Y1053051D01*
X3616Y1053046D01*
X3613Y1053041D01*
X3948Y1051919D01*
X3954Y1051915D01*
X3952Y1051910D01*
X4500Y1050875D01*
X4506Y1050872D01*
X4505Y1050867D01*
X5244Y1049958D01*
X5251Y1049957D01*
X5251Y1049951D01*
X6153Y1049205D01*
X6161Y1049204D01*
X6161Y1049199D01*
X7192Y1048643D01*
X7199Y1048644D01*
X7201Y1048639D01*
X8320Y1048294D01*
X8327Y1048297D01*
X8330Y1048292D01*
X9495Y1048173D01*
X9498Y1048175D01*
X9500Y1048172D01*
X15500Y1048172D01*
X15503Y1048175D01*
G37*
G36*
X696502Y1048175D02*
X696502Y1048175D01*
X696504Y1048173D01*
X697680Y1048283D01*
X697685Y1048288D01*
X697689Y1048285D01*
X698821Y1048623D01*
X698825Y1048629D01*
X698830Y1048627D01*
X699874Y1049180D01*
X699877Y1049186D01*
X699882Y1049185D01*
X700798Y1049930D01*
X700800Y1049937D01*
X700805Y1049937D01*
X701558Y1050847D01*
X701558Y1050854D01*
X701563Y1050855D01*
X702125Y1051894D01*
X702124Y1051899D01*
X702127Y1051902D01*
X702127Y1051903D01*
X702128Y1051903D01*
X702476Y1053032D01*
X702475Y1053034D01*
X702476Y1053035D01*
X702474Y1053039D01*
X702473Y1053039D01*
X702478Y1053042D01*
X702598Y1054217D01*
X702594Y1054223D01*
X702598Y1054227D01*
X702442Y1055567D01*
X702436Y1055573D01*
X702439Y1055578D01*
X701988Y1056850D01*
X701981Y1056854D01*
X701984Y1056860D01*
X701261Y1057999D01*
X701253Y1058002D01*
X701254Y1058008D01*
X700296Y1058958D01*
X700288Y1058959D01*
X700287Y1058965D01*
X699142Y1059678D01*
X699134Y1059677D01*
X699132Y1059682D01*
X697857Y1060123D01*
X697849Y1060120D01*
X697846Y1060125D01*
X696505Y1060271D01*
X696501Y1060268D01*
X696499Y1060271D01*
X690499Y1060271D01*
X690496Y1060268D01*
X690494Y1060271D01*
X689165Y1060115D01*
X689159Y1060109D01*
X689154Y1060113D01*
X687893Y1059665D01*
X687888Y1059659D01*
X687883Y1059661D01*
X686753Y1058944D01*
X686750Y1058936D01*
X686745Y1058937D01*
X685802Y1057987D01*
X685801Y1057979D01*
X685796Y1057978D01*
X685088Y1056843D01*
X685089Y1056834D01*
X685084Y1056833D01*
X684647Y1055568D01*
X684650Y1055560D01*
X684645Y1055557D01*
X684500Y1054227D01*
X684504Y1054221D01*
X684500Y1054217D01*
X684610Y1053051D01*
X684615Y1053046D01*
X684612Y1053041D01*
X684947Y1051919D01*
X684953Y1051915D01*
X684951Y1051910D01*
X685499Y1050875D01*
X685506Y1050872D01*
X685504Y1050867D01*
X686244Y1049958D01*
X686251Y1049957D01*
X686250Y1049951D01*
X687153Y1049205D01*
X687160Y1049204D01*
X687161Y1049199D01*
X688191Y1048643D01*
X688199Y1048644D01*
X688200Y1048639D01*
X689320Y1048294D01*
X689327Y1048297D01*
X689329Y1048292D01*
X690494Y1048173D01*
X690498Y1048175D01*
X690499Y1048172D01*
X696499Y1048172D01*
X696502Y1048175D01*
G37*
G36*
X1377476Y961775D02*
X1377476Y961775D01*
X1377478Y961773D01*
X1378654Y961883D01*
X1378659Y961888D01*
X1378663Y961885D01*
X1379795Y962223D01*
X1379799Y962229D01*
X1379804Y962227D01*
X1380848Y962780D01*
X1380851Y962786D01*
X1380856Y962785D01*
X1381772Y963530D01*
X1381774Y963537D01*
X1381779Y963537D01*
X1382532Y964447D01*
X1382532Y964454D01*
X1382537Y964455D01*
X1383099Y965494D01*
X1383098Y965499D01*
X1383101Y965502D01*
X1383101Y965503D01*
X1383102Y965503D01*
X1383450Y966632D01*
X1383449Y966634D01*
X1383450Y966635D01*
X1383448Y966639D01*
X1383447Y966639D01*
X1383452Y966642D01*
X1383572Y967817D01*
X1383568Y967823D01*
X1383572Y967827D01*
X1383416Y969167D01*
X1383410Y969173D01*
X1383413Y969178D01*
X1382962Y970450D01*
X1382955Y970454D01*
X1382958Y970460D01*
X1382235Y971599D01*
X1382227Y971602D01*
X1382228Y971608D01*
X1381270Y972558D01*
X1381262Y972559D01*
X1381261Y972565D01*
X1380116Y973278D01*
X1380108Y973277D01*
X1380106Y973282D01*
X1378831Y973723D01*
X1378823Y973720D01*
X1378820Y973725D01*
X1377479Y973871D01*
X1377475Y973868D01*
X1377473Y973871D01*
X1371473Y973871D01*
X1371470Y973868D01*
X1371468Y973871D01*
X1370139Y973715D01*
X1370133Y973709D01*
X1370128Y973713D01*
X1368867Y973265D01*
X1368862Y973259D01*
X1368857Y973261D01*
X1367727Y972544D01*
X1367724Y972536D01*
X1367719Y972537D01*
X1366776Y971587D01*
X1366775Y971579D01*
X1366770Y971578D01*
X1366062Y970443D01*
X1366063Y970434D01*
X1366058Y970433D01*
X1365621Y969168D01*
X1365624Y969160D01*
X1365619Y969157D01*
X1365474Y967827D01*
X1365478Y967821D01*
X1365474Y967817D01*
X1365584Y966651D01*
X1365589Y966646D01*
X1365586Y966641D01*
X1365921Y965519D01*
X1365927Y965515D01*
X1365925Y965510D01*
X1366473Y964475D01*
X1366480Y964472D01*
X1366478Y964467D01*
X1367218Y963558D01*
X1367225Y963557D01*
X1367224Y963551D01*
X1368127Y962805D01*
X1368134Y962804D01*
X1368135Y962799D01*
X1369165Y962243D01*
X1369173Y962244D01*
X1369174Y962239D01*
X1370294Y961894D01*
X1370301Y961897D01*
X1370303Y961892D01*
X1371468Y961773D01*
X1371472Y961775D01*
X1371473Y961772D01*
X1377473Y961772D01*
X1377476Y961775D01*
G37*
G36*
X15503Y961775D02*
X15503Y961775D01*
X15505Y961773D01*
X16681Y961883D01*
X16686Y961888D01*
X16690Y961885D01*
X17822Y962223D01*
X17826Y962229D01*
X17831Y962227D01*
X18875Y962780D01*
X18878Y962786D01*
X18883Y962785D01*
X19799Y963530D01*
X19800Y963537D01*
X19806Y963537D01*
X20559Y964447D01*
X20559Y964454D01*
X20564Y964455D01*
X21125Y965494D01*
X21124Y965499D01*
X21128Y965502D01*
X21127Y965503D01*
X21129Y965503D01*
X21476Y966632D01*
X21476Y966634D01*
X21477Y966635D01*
X21474Y966639D01*
X21478Y966642D01*
X21599Y967817D01*
X21595Y967823D01*
X21599Y967827D01*
X21442Y969167D01*
X21437Y969173D01*
X21440Y969178D01*
X20989Y970450D01*
X20982Y970454D01*
X20984Y970460D01*
X20262Y971599D01*
X20254Y971602D01*
X20255Y971608D01*
X19297Y972558D01*
X19289Y972559D01*
X19288Y972565D01*
X18143Y973278D01*
X18135Y973277D01*
X18133Y973282D01*
X16857Y973723D01*
X16850Y973720D01*
X16847Y973725D01*
X15505Y973871D01*
X15502Y973868D01*
X15500Y973871D01*
X9500Y973871D01*
X9497Y973868D01*
X9494Y973871D01*
X8165Y973715D01*
X8159Y973709D01*
X8155Y973713D01*
X6894Y973265D01*
X6889Y973259D01*
X6884Y973261D01*
X5754Y972544D01*
X5751Y972536D01*
X5745Y972537D01*
X4803Y971587D01*
X4802Y971579D01*
X4796Y971578D01*
X4089Y970443D01*
X4090Y970434D01*
X4084Y970433D01*
X3648Y969168D01*
X3650Y969160D01*
X3645Y969157D01*
X3501Y967827D01*
X3505Y967821D01*
X3501Y967817D01*
X3611Y966651D01*
X3616Y966646D01*
X3613Y966641D01*
X3948Y965519D01*
X3954Y965515D01*
X3952Y965510D01*
X4500Y964475D01*
X4506Y964472D01*
X4505Y964467D01*
X5244Y963558D01*
X5251Y963557D01*
X5251Y963551D01*
X6153Y962805D01*
X6161Y962804D01*
X6161Y962799D01*
X7192Y962243D01*
X7199Y962244D01*
X7201Y962239D01*
X8320Y961894D01*
X8327Y961897D01*
X8330Y961892D01*
X9495Y961773D01*
X9498Y961775D01*
X9500Y961772D01*
X15500Y961772D01*
X15503Y961775D01*
G37*
G36*
X696502Y961775D02*
X696502Y961775D01*
X696504Y961773D01*
X697680Y961883D01*
X697685Y961888D01*
X697689Y961885D01*
X698821Y962223D01*
X698825Y962229D01*
X698830Y962227D01*
X699874Y962780D01*
X699877Y962786D01*
X699882Y962785D01*
X700798Y963530D01*
X700800Y963537D01*
X700805Y963537D01*
X701558Y964447D01*
X701558Y964454D01*
X701563Y964455D01*
X702125Y965494D01*
X702124Y965499D01*
X702127Y965502D01*
X702127Y965503D01*
X702128Y965503D01*
X702476Y966632D01*
X702475Y966634D01*
X702476Y966635D01*
X702474Y966639D01*
X702473Y966639D01*
X702478Y966642D01*
X702598Y967817D01*
X702594Y967823D01*
X702598Y967827D01*
X702442Y969167D01*
X702436Y969173D01*
X702439Y969178D01*
X701988Y970450D01*
X701981Y970454D01*
X701984Y970460D01*
X701261Y971599D01*
X701253Y971602D01*
X701254Y971608D01*
X700296Y972558D01*
X700288Y972559D01*
X700287Y972565D01*
X699142Y973278D01*
X699134Y973277D01*
X699132Y973282D01*
X697857Y973723D01*
X697849Y973720D01*
X697846Y973725D01*
X696505Y973871D01*
X696501Y973868D01*
X696499Y973871D01*
X690499Y973871D01*
X690496Y973868D01*
X690494Y973871D01*
X689165Y973715D01*
X689159Y973709D01*
X689154Y973713D01*
X687893Y973265D01*
X687888Y973259D01*
X687883Y973261D01*
X686753Y972544D01*
X686750Y972536D01*
X686745Y972537D01*
X685802Y971587D01*
X685801Y971579D01*
X685796Y971578D01*
X685088Y970443D01*
X685089Y970434D01*
X685084Y970433D01*
X684647Y969168D01*
X684650Y969160D01*
X684645Y969157D01*
X684500Y967827D01*
X684504Y967821D01*
X684500Y967817D01*
X684610Y966651D01*
X684615Y966646D01*
X684612Y966641D01*
X684947Y965519D01*
X684953Y965515D01*
X684951Y965510D01*
X685499Y964475D01*
X685506Y964472D01*
X685504Y964467D01*
X686244Y963558D01*
X686251Y963557D01*
X686250Y963551D01*
X687153Y962805D01*
X687160Y962804D01*
X687161Y962799D01*
X688191Y962243D01*
X688199Y962244D01*
X688200Y962239D01*
X689320Y961894D01*
X689327Y961897D01*
X689329Y961892D01*
X690494Y961773D01*
X690498Y961775D01*
X690499Y961772D01*
X696499Y961772D01*
X696502Y961775D01*
G37*
G36*
X1377476Y472763D02*
X1377476Y472763D01*
X1377478Y472761D01*
X1378654Y472872D01*
X1378659Y472877D01*
X1378663Y472874D01*
X1379795Y473212D01*
X1379799Y473218D01*
X1379804Y473216D01*
X1380848Y473768D01*
X1380851Y473775D01*
X1380856Y473773D01*
X1381772Y474519D01*
X1381774Y474526D01*
X1381779Y474526D01*
X1382532Y475436D01*
X1382532Y475443D01*
X1382537Y475444D01*
X1383099Y476483D01*
X1383098Y476488D01*
X1383101Y476490D01*
X1383101Y476491D01*
X1383102Y476492D01*
X1383450Y477621D01*
X1383449Y477622D01*
X1383450Y477623D01*
X1383448Y477627D01*
X1383447Y477627D01*
X1383452Y477630D01*
X1383572Y478805D01*
X1383568Y478812D01*
X1383572Y478816D01*
X1383416Y480156D01*
X1383410Y480162D01*
X1383413Y480167D01*
X1382962Y481438D01*
X1382955Y481443D01*
X1382958Y481448D01*
X1382235Y482587D01*
X1382227Y482590D01*
X1382228Y482596D01*
X1381270Y483546D01*
X1381262Y483547D01*
X1381261Y483553D01*
X1380116Y484266D01*
X1380108Y484265D01*
X1380106Y484271D01*
X1378831Y484711D01*
X1378823Y484709D01*
X1378820Y484713D01*
X1377479Y484859D01*
X1377475Y484857D01*
X1377473Y484859D01*
X1371473Y484859D01*
X1371470Y484857D01*
X1371468Y484859D01*
X1370139Y484704D01*
X1370133Y484698D01*
X1370128Y484701D01*
X1368867Y484254D01*
X1368862Y484247D01*
X1368857Y484249D01*
X1367727Y483532D01*
X1367724Y483525D01*
X1367719Y483526D01*
X1366776Y482576D01*
X1366775Y482567D01*
X1366770Y482567D01*
X1366062Y481431D01*
X1366063Y481423D01*
X1366058Y481421D01*
X1365621Y480156D01*
X1365624Y480148D01*
X1365619Y480146D01*
X1365474Y478815D01*
X1365478Y478809D01*
X1365474Y478805D01*
X1365584Y477639D01*
X1365589Y477634D01*
X1365586Y477630D01*
X1365921Y476507D01*
X1365927Y476503D01*
X1365925Y476499D01*
X1366473Y475463D01*
X1366480Y475460D01*
X1366478Y475455D01*
X1367218Y474547D01*
X1367225Y474545D01*
X1367224Y474540D01*
X1368127Y473793D01*
X1368134Y473793D01*
X1368135Y473788D01*
X1369165Y473231D01*
X1369173Y473232D01*
X1369174Y473227D01*
X1370294Y472883D01*
X1370301Y472885D01*
X1370303Y472881D01*
X1371468Y472761D01*
X1371472Y472763D01*
X1371473Y472761D01*
X1377473Y472761D01*
X1377476Y472763D01*
G37*
G36*
X696502Y472763D02*
X696502Y472763D01*
X696504Y472761D01*
X697680Y472872D01*
X697685Y472877D01*
X697689Y472874D01*
X698821Y473212D01*
X698825Y473218D01*
X698830Y473216D01*
X699874Y473768D01*
X699877Y473775D01*
X699882Y473773D01*
X700798Y474519D01*
X700800Y474526D01*
X700805Y474526D01*
X701558Y475436D01*
X701558Y475443D01*
X701563Y475444D01*
X702125Y476483D01*
X702124Y476488D01*
X702127Y476490D01*
X702127Y476491D01*
X702128Y476492D01*
X702476Y477621D01*
X702475Y477622D01*
X702476Y477623D01*
X702474Y477627D01*
X702473Y477627D01*
X702478Y477630D01*
X702598Y478805D01*
X702594Y478812D01*
X702598Y478816D01*
X702442Y480156D01*
X702436Y480162D01*
X702439Y480167D01*
X701988Y481438D01*
X701981Y481443D01*
X701984Y481448D01*
X701261Y482587D01*
X701253Y482590D01*
X701254Y482596D01*
X700296Y483546D01*
X700288Y483547D01*
X700287Y483553D01*
X699142Y484266D01*
X699134Y484265D01*
X699132Y484271D01*
X697857Y484711D01*
X697849Y484709D01*
X697846Y484713D01*
X696505Y484859D01*
X696501Y484857D01*
X696499Y484859D01*
X690499Y484859D01*
X690496Y484857D01*
X690494Y484859D01*
X689165Y484704D01*
X689159Y484698D01*
X689154Y484701D01*
X687893Y484254D01*
X687888Y484247D01*
X687883Y484249D01*
X686753Y483532D01*
X686750Y483525D01*
X686745Y483526D01*
X685802Y482576D01*
X685801Y482567D01*
X685796Y482567D01*
X685088Y481431D01*
X685089Y481423D01*
X685084Y481421D01*
X684647Y480156D01*
X684650Y480148D01*
X684645Y480146D01*
X684500Y478815D01*
X684504Y478809D01*
X684500Y478805D01*
X684610Y477639D01*
X684615Y477634D01*
X684612Y477630D01*
X684947Y476507D01*
X684953Y476503D01*
X684951Y476499D01*
X685499Y475463D01*
X685506Y475460D01*
X685504Y475455D01*
X686244Y474547D01*
X686251Y474545D01*
X686250Y474540D01*
X687153Y473793D01*
X687160Y473793D01*
X687161Y473788D01*
X688191Y473231D01*
X688199Y473232D01*
X688200Y473227D01*
X689320Y472883D01*
X689327Y472885D01*
X689329Y472881D01*
X690494Y472761D01*
X690498Y472763D01*
X690499Y472761D01*
X696499Y472761D01*
X696502Y472763D01*
G37*
G36*
X15503Y472763D02*
X15503Y472763D01*
X15505Y472761D01*
X16681Y472872D01*
X16686Y472877D01*
X16690Y472874D01*
X17822Y473212D01*
X17826Y473218D01*
X17831Y473216D01*
X18875Y473768D01*
X18878Y473775D01*
X18883Y473773D01*
X19799Y474519D01*
X19800Y474526D01*
X19806Y474526D01*
X20559Y475436D01*
X20559Y475443D01*
X20564Y475444D01*
X21125Y476483D01*
X21124Y476488D01*
X21128Y476490D01*
X21127Y476491D01*
X21129Y476492D01*
X21476Y477621D01*
X21476Y477622D01*
X21477Y477623D01*
X21474Y477627D01*
X21478Y477630D01*
X21599Y478805D01*
X21595Y478812D01*
X21599Y478816D01*
X21442Y480156D01*
X21437Y480162D01*
X21440Y480167D01*
X20989Y481438D01*
X20982Y481443D01*
X20984Y481448D01*
X20262Y482587D01*
X20254Y482590D01*
X20255Y482596D01*
X19297Y483546D01*
X19289Y483547D01*
X19288Y483553D01*
X18143Y484266D01*
X18135Y484265D01*
X18133Y484271D01*
X16857Y484711D01*
X16850Y484709D01*
X16847Y484713D01*
X15505Y484859D01*
X15502Y484857D01*
X15500Y484859D01*
X9500Y484859D01*
X9497Y484857D01*
X9494Y484859D01*
X8165Y484704D01*
X8159Y484698D01*
X8155Y484701D01*
X6894Y484254D01*
X6889Y484247D01*
X6884Y484249D01*
X5754Y483532D01*
X5751Y483525D01*
X5745Y483526D01*
X4803Y482576D01*
X4802Y482567D01*
X4796Y482567D01*
X4089Y481431D01*
X4090Y481423D01*
X4084Y481421D01*
X3648Y480156D01*
X3650Y480148D01*
X3645Y480146D01*
X3501Y478815D01*
X3505Y478809D01*
X3501Y478805D01*
X3611Y477639D01*
X3616Y477634D01*
X3613Y477630D01*
X3948Y476507D01*
X3954Y476503D01*
X3952Y476499D01*
X4500Y475463D01*
X4506Y475460D01*
X4505Y475455D01*
X5244Y474547D01*
X5251Y474545D01*
X5251Y474540D01*
X6153Y473793D01*
X6161Y473793D01*
X6161Y473788D01*
X7192Y473231D01*
X7199Y473232D01*
X7201Y473227D01*
X8320Y472883D01*
X8327Y472885D01*
X8330Y472881D01*
X9495Y472761D01*
X9498Y472763D01*
X9500Y472761D01*
X15500Y472761D01*
X15503Y472763D01*
G37*
G36*
X696502Y386363D02*
X696502Y386363D01*
X696504Y386361D01*
X697680Y386472D01*
X697685Y386477D01*
X697689Y386474D01*
X698821Y386812D01*
X698825Y386818D01*
X698830Y386816D01*
X699874Y387368D01*
X699877Y387375D01*
X699882Y387373D01*
X700798Y388119D01*
X700800Y388126D01*
X700805Y388126D01*
X701558Y389036D01*
X701558Y389043D01*
X701563Y389044D01*
X702125Y390083D01*
X702124Y390088D01*
X702127Y390090D01*
X702127Y390091D01*
X702128Y390092D01*
X702476Y391221D01*
X702475Y391222D01*
X702476Y391223D01*
X702474Y391227D01*
X702473Y391227D01*
X702478Y391230D01*
X702598Y392405D01*
X702594Y392412D01*
X702598Y392416D01*
X702442Y393756D01*
X702436Y393762D01*
X702439Y393767D01*
X701988Y395038D01*
X701981Y395043D01*
X701984Y395048D01*
X701261Y396187D01*
X701253Y396190D01*
X701254Y396196D01*
X700296Y397146D01*
X700288Y397147D01*
X700287Y397153D01*
X699142Y397866D01*
X699134Y397865D01*
X699132Y397871D01*
X697857Y398311D01*
X697849Y398309D01*
X697846Y398313D01*
X696505Y398459D01*
X696501Y398457D01*
X696499Y398459D01*
X690499Y398459D01*
X690496Y398457D01*
X690494Y398459D01*
X689165Y398304D01*
X689159Y398298D01*
X689154Y398301D01*
X687893Y397854D01*
X687888Y397847D01*
X687883Y397849D01*
X686753Y397132D01*
X686750Y397125D01*
X686745Y397126D01*
X685802Y396176D01*
X685801Y396167D01*
X685796Y396167D01*
X685088Y395031D01*
X685089Y395023D01*
X685084Y395021D01*
X684647Y393756D01*
X684650Y393748D01*
X684645Y393746D01*
X684500Y392415D01*
X684504Y392409D01*
X684500Y392405D01*
X684610Y391239D01*
X684615Y391234D01*
X684612Y391230D01*
X684947Y390107D01*
X684953Y390103D01*
X684951Y390099D01*
X685499Y389063D01*
X685506Y389060D01*
X685504Y389055D01*
X686244Y388147D01*
X686251Y388145D01*
X686250Y388140D01*
X687153Y387393D01*
X687160Y387393D01*
X687161Y387388D01*
X688191Y386831D01*
X688199Y386832D01*
X688200Y386827D01*
X689320Y386483D01*
X689327Y386485D01*
X689329Y386481D01*
X690494Y386361D01*
X690498Y386363D01*
X690499Y386361D01*
X696499Y386361D01*
X696502Y386363D01*
G37*
G36*
X1377476Y386363D02*
X1377476Y386363D01*
X1377478Y386361D01*
X1378654Y386472D01*
X1378659Y386477D01*
X1378663Y386474D01*
X1379795Y386812D01*
X1379799Y386818D01*
X1379804Y386816D01*
X1380848Y387368D01*
X1380851Y387375D01*
X1380856Y387373D01*
X1381772Y388119D01*
X1381774Y388126D01*
X1381779Y388126D01*
X1382532Y389036D01*
X1382532Y389043D01*
X1382537Y389044D01*
X1383099Y390083D01*
X1383098Y390088D01*
X1383101Y390090D01*
X1383101Y390091D01*
X1383102Y390092D01*
X1383450Y391221D01*
X1383449Y391222D01*
X1383450Y391223D01*
X1383448Y391227D01*
X1383447Y391227D01*
X1383452Y391230D01*
X1383572Y392405D01*
X1383568Y392412D01*
X1383572Y392416D01*
X1383416Y393756D01*
X1383410Y393762D01*
X1383413Y393767D01*
X1382962Y395038D01*
X1382955Y395043D01*
X1382958Y395048D01*
X1382235Y396187D01*
X1382227Y396190D01*
X1382228Y396196D01*
X1381270Y397146D01*
X1381262Y397147D01*
X1381261Y397153D01*
X1380116Y397866D01*
X1380108Y397865D01*
X1380106Y397871D01*
X1378831Y398311D01*
X1378823Y398309D01*
X1378820Y398313D01*
X1377479Y398459D01*
X1377475Y398457D01*
X1377473Y398459D01*
X1371473Y398459D01*
X1371470Y398457D01*
X1371468Y398459D01*
X1370139Y398304D01*
X1370133Y398298D01*
X1370128Y398301D01*
X1368867Y397854D01*
X1368862Y397847D01*
X1368857Y397849D01*
X1367727Y397132D01*
X1367724Y397125D01*
X1367719Y397126D01*
X1366776Y396176D01*
X1366775Y396167D01*
X1366770Y396167D01*
X1366062Y395031D01*
X1366063Y395023D01*
X1366058Y395021D01*
X1365621Y393756D01*
X1365624Y393748D01*
X1365619Y393746D01*
X1365474Y392415D01*
X1365478Y392409D01*
X1365474Y392405D01*
X1365584Y391239D01*
X1365589Y391234D01*
X1365586Y391230D01*
X1365921Y390107D01*
X1365927Y390103D01*
X1365925Y390099D01*
X1366473Y389063D01*
X1366480Y389060D01*
X1366478Y389055D01*
X1367218Y388147D01*
X1367225Y388145D01*
X1367224Y388140D01*
X1368127Y387393D01*
X1368134Y387393D01*
X1368135Y387388D01*
X1369165Y386831D01*
X1369173Y386832D01*
X1369174Y386827D01*
X1370294Y386483D01*
X1370301Y386485D01*
X1370303Y386481D01*
X1371468Y386361D01*
X1371472Y386363D01*
X1371473Y386361D01*
X1377473Y386361D01*
X1377476Y386363D01*
G37*
G36*
X15503Y386363D02*
X15503Y386363D01*
X15505Y386361D01*
X16681Y386472D01*
X16686Y386477D01*
X16690Y386474D01*
X17822Y386812D01*
X17826Y386818D01*
X17831Y386816D01*
X18875Y387368D01*
X18878Y387375D01*
X18883Y387373D01*
X19799Y388119D01*
X19800Y388126D01*
X19806Y388126D01*
X20559Y389036D01*
X20559Y389043D01*
X20564Y389044D01*
X21125Y390083D01*
X21124Y390088D01*
X21128Y390090D01*
X21127Y390091D01*
X21129Y390092D01*
X21476Y391221D01*
X21476Y391222D01*
X21477Y391223D01*
X21474Y391227D01*
X21478Y391230D01*
X21599Y392405D01*
X21595Y392412D01*
X21599Y392416D01*
X21442Y393756D01*
X21437Y393762D01*
X21440Y393767D01*
X20989Y395038D01*
X20982Y395043D01*
X20984Y395048D01*
X20262Y396187D01*
X20254Y396190D01*
X20255Y396196D01*
X19297Y397146D01*
X19289Y397147D01*
X19288Y397153D01*
X18143Y397866D01*
X18135Y397865D01*
X18133Y397871D01*
X16857Y398311D01*
X16850Y398309D01*
X16847Y398313D01*
X15505Y398459D01*
X15502Y398457D01*
X15500Y398459D01*
X9500Y398459D01*
X9497Y398457D01*
X9494Y398459D01*
X8165Y398304D01*
X8159Y398298D01*
X8155Y398301D01*
X6894Y397854D01*
X6889Y397847D01*
X6884Y397849D01*
X5754Y397132D01*
X5751Y397125D01*
X5745Y397126D01*
X4803Y396176D01*
X4802Y396167D01*
X4796Y396167D01*
X4089Y395031D01*
X4090Y395023D01*
X4084Y395021D01*
X3648Y393756D01*
X3650Y393748D01*
X3645Y393746D01*
X3501Y392415D01*
X3505Y392409D01*
X3501Y392405D01*
X3611Y391239D01*
X3616Y391234D01*
X3613Y391230D01*
X3948Y390107D01*
X3954Y390103D01*
X3952Y390099D01*
X4500Y389063D01*
X4506Y389060D01*
X4505Y389055D01*
X5244Y388147D01*
X5251Y388145D01*
X5251Y388140D01*
X6153Y387393D01*
X6161Y387393D01*
X6161Y387388D01*
X7192Y386831D01*
X7199Y386832D01*
X7201Y386827D01*
X8320Y386483D01*
X8327Y386485D01*
X8330Y386481D01*
X9495Y386361D01*
X9498Y386363D01*
X9500Y386361D01*
X15500Y386361D01*
X15503Y386363D01*
G37*
G36*
X787389Y1039152D02*
X787389Y1039152D01*
X787454Y1039154D01*
X787498Y1039171D01*
X787545Y1039180D01*
X787601Y1039213D01*
X787662Y1039238D01*
X787697Y1039270D01*
X787738Y1039294D01*
X787779Y1039345D01*
X787828Y1039389D01*
X787849Y1039431D01*
X787879Y1039468D01*
X787900Y1039530D01*
X787930Y1039589D01*
X787939Y1039643D01*
X787951Y1039681D01*
X787950Y1039720D01*
X787958Y1039774D01*
X787958Y1043584D01*
X787946Y1043649D01*
X787944Y1043715D01*
X787927Y1043759D01*
X787918Y1043805D01*
X787885Y1043862D01*
X787860Y1043923D01*
X787828Y1043958D01*
X787804Y1043998D01*
X787753Y1044040D01*
X787709Y1044088D01*
X787667Y1044110D01*
X787630Y1044140D01*
X787568Y1044161D01*
X787509Y1044191D01*
X787455Y1044199D01*
X787418Y1044212D01*
X787378Y1044211D01*
X787324Y1044219D01*
X784784Y1044219D01*
X784719Y1044207D01*
X784653Y1044205D01*
X784610Y1044187D01*
X784563Y1044179D01*
X784506Y1044145D01*
X784445Y1044121D01*
X784411Y1044089D01*
X784370Y1044065D01*
X784328Y1044014D01*
X784280Y1043969D01*
X784258Y1043927D01*
X784228Y1043891D01*
X784207Y1043828D01*
X784177Y1043770D01*
X784169Y1043715D01*
X784157Y1043678D01*
X784157Y1043674D01*
X784158Y1043638D01*
X784150Y1043584D01*
X784150Y1039774D01*
X784161Y1039710D01*
X784163Y1039644D01*
X784181Y1039600D01*
X784189Y1039554D01*
X784223Y1039497D01*
X784247Y1039436D01*
X784279Y1039401D01*
X784303Y1039360D01*
X784354Y1039319D01*
X784399Y1039270D01*
X784441Y1039249D01*
X784478Y1039219D01*
X784540Y1039198D01*
X784598Y1039168D01*
X784653Y1039160D01*
X784690Y1039147D01*
X784729Y1039148D01*
X784784Y1039140D01*
X787324Y1039140D01*
X787389Y1039152D01*
G37*
G36*
X1468363Y1039152D02*
X1468363Y1039152D01*
X1468428Y1039154D01*
X1468472Y1039171D01*
X1468519Y1039180D01*
X1468575Y1039213D01*
X1468636Y1039238D01*
X1468671Y1039270D01*
X1468712Y1039294D01*
X1468753Y1039345D01*
X1468802Y1039389D01*
X1468823Y1039431D01*
X1468853Y1039468D01*
X1468874Y1039530D01*
X1468904Y1039589D01*
X1468913Y1039643D01*
X1468925Y1039681D01*
X1468924Y1039720D01*
X1468932Y1039774D01*
X1468932Y1043584D01*
X1468920Y1043649D01*
X1468918Y1043715D01*
X1468901Y1043759D01*
X1468892Y1043805D01*
X1468859Y1043862D01*
X1468834Y1043923D01*
X1468802Y1043958D01*
X1468778Y1043998D01*
X1468727Y1044040D01*
X1468683Y1044088D01*
X1468641Y1044110D01*
X1468604Y1044140D01*
X1468542Y1044161D01*
X1468483Y1044191D01*
X1468429Y1044199D01*
X1468392Y1044212D01*
X1468352Y1044211D01*
X1468298Y1044219D01*
X1465758Y1044219D01*
X1465693Y1044207D01*
X1465627Y1044205D01*
X1465584Y1044187D01*
X1465537Y1044179D01*
X1465480Y1044145D01*
X1465419Y1044121D01*
X1465385Y1044089D01*
X1465344Y1044065D01*
X1465302Y1044014D01*
X1465254Y1043969D01*
X1465232Y1043927D01*
X1465202Y1043891D01*
X1465181Y1043828D01*
X1465151Y1043770D01*
X1465143Y1043715D01*
X1465131Y1043678D01*
X1465131Y1043674D01*
X1465132Y1043638D01*
X1465124Y1043584D01*
X1465124Y1039774D01*
X1465135Y1039710D01*
X1465137Y1039644D01*
X1465155Y1039600D01*
X1465163Y1039554D01*
X1465197Y1039497D01*
X1465221Y1039436D01*
X1465253Y1039401D01*
X1465277Y1039360D01*
X1465328Y1039319D01*
X1465373Y1039270D01*
X1465415Y1039249D01*
X1465452Y1039219D01*
X1465514Y1039198D01*
X1465572Y1039168D01*
X1465627Y1039160D01*
X1465664Y1039147D01*
X1465703Y1039148D01*
X1465758Y1039140D01*
X1468298Y1039140D01*
X1468363Y1039152D01*
G37*
G36*
X106389Y1039152D02*
X106389Y1039152D01*
X106455Y1039154D01*
X106499Y1039171D01*
X106545Y1039180D01*
X106602Y1039213D01*
X106663Y1039238D01*
X106698Y1039270D01*
X106738Y1039294D01*
X106780Y1039345D01*
X106828Y1039389D01*
X106850Y1039431D01*
X106880Y1039468D01*
X106901Y1039530D01*
X106931Y1039589D01*
X106939Y1039643D01*
X106952Y1039681D01*
X106951Y1039720D01*
X106959Y1039774D01*
X106959Y1043584D01*
X106947Y1043649D01*
X106945Y1043715D01*
X106927Y1043759D01*
X106919Y1043805D01*
X106885Y1043862D01*
X106861Y1043923D01*
X106829Y1043958D01*
X106805Y1043998D01*
X106754Y1044040D01*
X106709Y1044088D01*
X106667Y1044110D01*
X106631Y1044140D01*
X106568Y1044161D01*
X106510Y1044191D01*
X106455Y1044199D01*
X106418Y1044212D01*
X106379Y1044211D01*
X106324Y1044219D01*
X103784Y1044219D01*
X103720Y1044207D01*
X103654Y1044205D01*
X103610Y1044187D01*
X103564Y1044179D01*
X103507Y1044145D01*
X103446Y1044121D01*
X103411Y1044089D01*
X103370Y1044065D01*
X103329Y1044014D01*
X103280Y1043969D01*
X103259Y1043927D01*
X103229Y1043891D01*
X103208Y1043828D01*
X103178Y1043770D01*
X103170Y1043715D01*
X103157Y1043678D01*
X103157Y1043674D01*
X103158Y1043638D01*
X103150Y1043584D01*
X103150Y1039774D01*
X103162Y1039710D01*
X103164Y1039644D01*
X103181Y1039600D01*
X103190Y1039554D01*
X103223Y1039497D01*
X103248Y1039436D01*
X103280Y1039401D01*
X103304Y1039360D01*
X103355Y1039319D01*
X103399Y1039270D01*
X103442Y1039249D01*
X103478Y1039219D01*
X103540Y1039198D01*
X103599Y1039168D01*
X103653Y1039160D01*
X103691Y1039147D01*
X103730Y1039148D01*
X103784Y1039140D01*
X106324Y1039140D01*
X106389Y1039152D01*
G37*
G36*
X787389Y463740D02*
X787389Y463740D01*
X787454Y463742D01*
X787498Y463760D01*
X787545Y463768D01*
X787601Y463802D01*
X787662Y463826D01*
X787697Y463858D01*
X787738Y463882D01*
X787779Y463933D01*
X787828Y463978D01*
X787849Y464020D01*
X787879Y464057D01*
X787900Y464119D01*
X787930Y464177D01*
X787939Y464232D01*
X787951Y464269D01*
X787950Y464308D01*
X787958Y464363D01*
X787958Y468173D01*
X787946Y468238D01*
X787944Y468303D01*
X787927Y468347D01*
X787918Y468394D01*
X787885Y468450D01*
X787860Y468511D01*
X787828Y468546D01*
X787804Y468587D01*
X787753Y468628D01*
X787709Y468677D01*
X787667Y468698D01*
X787630Y468728D01*
X787568Y468749D01*
X787509Y468779D01*
X787455Y468787D01*
X787418Y468800D01*
X787378Y468799D01*
X787324Y468807D01*
X784784Y468807D01*
X784719Y468795D01*
X784653Y468793D01*
X784610Y468776D01*
X784563Y468767D01*
X784506Y468734D01*
X784445Y468709D01*
X784411Y468677D01*
X784370Y468653D01*
X784328Y468602D01*
X784280Y468558D01*
X784258Y468516D01*
X784228Y468479D01*
X784207Y468417D01*
X784177Y468358D01*
X784169Y468304D01*
X784157Y468267D01*
X784157Y468262D01*
X784158Y468226D01*
X784150Y468173D01*
X784150Y464363D01*
X784161Y464298D01*
X784163Y464232D01*
X784181Y464189D01*
X784189Y464142D01*
X784223Y464085D01*
X784247Y464024D01*
X784279Y463989D01*
X784303Y463949D01*
X784354Y463907D01*
X784399Y463859D01*
X784441Y463837D01*
X784478Y463807D01*
X784540Y463786D01*
X784598Y463756D01*
X784653Y463748D01*
X784690Y463736D01*
X784729Y463737D01*
X784784Y463729D01*
X787324Y463729D01*
X787389Y463740D01*
G37*
G36*
X106389Y463740D02*
X106389Y463740D01*
X106455Y463742D01*
X106499Y463760D01*
X106545Y463768D01*
X106602Y463802D01*
X106663Y463826D01*
X106698Y463858D01*
X106738Y463882D01*
X106780Y463933D01*
X106828Y463978D01*
X106850Y464020D01*
X106880Y464057D01*
X106901Y464119D01*
X106931Y464177D01*
X106939Y464232D01*
X106952Y464269D01*
X106951Y464308D01*
X106959Y464363D01*
X106959Y468173D01*
X106947Y468238D01*
X106945Y468303D01*
X106927Y468347D01*
X106919Y468394D01*
X106885Y468450D01*
X106861Y468511D01*
X106829Y468546D01*
X106805Y468587D01*
X106754Y468628D01*
X106709Y468677D01*
X106667Y468698D01*
X106631Y468728D01*
X106568Y468749D01*
X106510Y468779D01*
X106455Y468787D01*
X106418Y468800D01*
X106379Y468799D01*
X106324Y468807D01*
X103784Y468807D01*
X103720Y468795D01*
X103654Y468793D01*
X103610Y468776D01*
X103564Y468767D01*
X103507Y468734D01*
X103446Y468709D01*
X103411Y468677D01*
X103370Y468653D01*
X103329Y468602D01*
X103280Y468558D01*
X103259Y468516D01*
X103229Y468479D01*
X103208Y468417D01*
X103178Y468358D01*
X103170Y468304D01*
X103157Y468267D01*
X103157Y468262D01*
X103158Y468226D01*
X103150Y468173D01*
X103150Y464363D01*
X103162Y464298D01*
X103164Y464232D01*
X103181Y464189D01*
X103190Y464142D01*
X103223Y464085D01*
X103248Y464024D01*
X103280Y463989D01*
X103304Y463949D01*
X103355Y463907D01*
X103399Y463859D01*
X103442Y463837D01*
X103478Y463807D01*
X103540Y463786D01*
X103599Y463756D01*
X103653Y463748D01*
X103691Y463736D01*
X103730Y463737D01*
X103784Y463729D01*
X106324Y463729D01*
X106389Y463740D01*
G37*
G36*
X1468363Y463740D02*
X1468363Y463740D01*
X1468428Y463742D01*
X1468472Y463760D01*
X1468519Y463768D01*
X1468575Y463802D01*
X1468636Y463826D01*
X1468671Y463858D01*
X1468712Y463882D01*
X1468753Y463933D01*
X1468802Y463978D01*
X1468823Y464020D01*
X1468853Y464057D01*
X1468874Y464119D01*
X1468904Y464177D01*
X1468913Y464232D01*
X1468925Y464269D01*
X1468924Y464308D01*
X1468932Y464363D01*
X1468932Y468173D01*
X1468920Y468238D01*
X1468918Y468303D01*
X1468901Y468347D01*
X1468892Y468394D01*
X1468859Y468450D01*
X1468834Y468511D01*
X1468802Y468546D01*
X1468778Y468587D01*
X1468727Y468628D01*
X1468683Y468677D01*
X1468641Y468698D01*
X1468604Y468728D01*
X1468542Y468749D01*
X1468483Y468779D01*
X1468429Y468787D01*
X1468392Y468800D01*
X1468352Y468799D01*
X1468298Y468807D01*
X1465758Y468807D01*
X1465693Y468795D01*
X1465627Y468793D01*
X1465584Y468776D01*
X1465537Y468767D01*
X1465480Y468734D01*
X1465419Y468709D01*
X1465385Y468677D01*
X1465344Y468653D01*
X1465302Y468602D01*
X1465254Y468558D01*
X1465232Y468516D01*
X1465202Y468479D01*
X1465181Y468417D01*
X1465151Y468358D01*
X1465143Y468304D01*
X1465131Y468267D01*
X1465131Y468262D01*
X1465132Y468226D01*
X1465124Y468173D01*
X1465124Y464363D01*
X1465135Y464298D01*
X1465137Y464232D01*
X1465155Y464189D01*
X1465163Y464142D01*
X1465197Y464085D01*
X1465221Y464024D01*
X1465253Y463989D01*
X1465277Y463949D01*
X1465328Y463907D01*
X1465373Y463859D01*
X1465415Y463837D01*
X1465452Y463807D01*
X1465514Y463786D01*
X1465572Y463756D01*
X1465627Y463748D01*
X1465664Y463736D01*
X1465703Y463737D01*
X1465758Y463729D01*
X1468298Y463729D01*
X1468363Y463740D01*
G37*
D10*
X181762Y198314D03*
X181762Y181314D03*
X423926Y324425D03*
X423926Y307425D03*
X499643Y328279D03*
X499643Y345279D03*
D11*
X482914Y366217D03*
X499914Y366217D03*
X443366Y365506D03*
X460366Y365506D03*
D12*
X442350Y242200D03*
X448850Y242200D03*
X455350Y242200D03*
X461850Y242200D03*
X468350Y242200D03*
X474850Y242200D03*
X481350Y242200D03*
X487850Y242200D03*
X494350Y242200D03*
X500850Y242200D03*
X507350Y242200D03*
X513850Y242200D03*
X520350Y242200D03*
X526850Y242200D03*
X526850Y306200D03*
X520350Y306200D03*
X513850Y306200D03*
X507350Y306200D03*
X500850Y306200D03*
X494350Y306200D03*
X487850Y306200D03*
X481350Y306200D03*
X474850Y306200D03*
X468350Y306200D03*
X461850Y306200D03*
X455350Y306200D03*
X448850Y306200D03*
X442350Y306200D03*
D13*
X578285Y207213D03*
X626285Y207213D03*
D11*
X597798Y163754D03*
X614798Y163754D03*
D10*
X424637Y340725D03*
X424637Y357725D03*
X424409Y286960D03*
X424409Y269960D03*
D14*
X633650Y73600D03*
X633650Y129600D03*
D15*
X596900Y86600D03*
X596900Y96600D03*
X596900Y106600D03*
X596900Y116600D03*
D10*
X81280Y407356D03*
X81280Y390356D03*
D16*
X60100Y428110D03*
X60100Y433110D03*
D17*
X60100Y403360D03*
X60100Y411110D03*
D16*
X60100Y418110D03*
X60100Y423110D03*
X60100Y443110D03*
X60100Y438110D03*
D17*
X60100Y467860D03*
X60100Y460110D03*
D16*
X60100Y453110D03*
X60100Y448110D03*
D18*
X49050Y464510D03*
X49050Y406710D03*
D11*
X97349Y423037D03*
X80349Y423037D03*
X97146Y441808D03*
X80146Y441808D03*
D19*
X182448Y419786D03*
X182448Y467538D03*
D20*
X105054Y461188D03*
X105054Y471348D03*
D21*
X483944Y345648D03*
X470944Y345648D03*
X477444Y327148D03*
X455369Y345876D03*
X442369Y345876D03*
X448869Y327376D03*
D22*
X498500Y447200D03*
X517500Y447200D03*
X508000Y468200D03*
D23*
X506350Y433220D03*
X506350Y426720D03*
X506350Y420220D03*
X522350Y420220D03*
X522350Y426720D03*
X522350Y433220D03*
D11*
X523079Y405130D03*
X506079Y405130D03*
D10*
X488950Y410600D03*
X488950Y427600D03*
D22*
X422300Y447200D03*
X441300Y447200D03*
X431800Y468200D03*
D23*
X428880Y431950D03*
X428880Y425450D03*
X428880Y418950D03*
X444880Y418950D03*
X444880Y425450D03*
X444880Y431950D03*
D11*
X445380Y404190D03*
X428380Y404190D03*
D10*
X412750Y409330D03*
X412750Y426330D03*
D24*
X125484Y475666D03*
X125484Y456666D03*
X146484Y466166D03*
D23*
X128220Y445768D03*
X128220Y439268D03*
X128220Y432768D03*
X144220Y432768D03*
X144220Y439268D03*
X144220Y445768D03*
D11*
X140097Y421335D03*
X123097Y421335D03*
D10*
X159055Y458055D03*
X159055Y441055D03*
D25*
X222250Y211370D03*
X222250Y222970D03*
X226060Y111040D03*
X226060Y122640D03*
D26*
X209000Y209550D03*
X197400Y209550D03*
X216620Y166370D03*
X205020Y166370D03*
X216620Y138938D03*
X205020Y138938D03*
X209000Y223520D03*
X197400Y223520D03*
X216620Y152654D03*
X205020Y152654D03*
D25*
X236220Y211370D03*
X236220Y222970D03*
D11*
X215510Y180594D03*
X198510Y180594D03*
X215510Y195326D03*
X198510Y195326D03*
D10*
X319964Y173567D03*
X319964Y190567D03*
D27*
X241500Y106340D03*
X246500Y106340D03*
X251500Y106340D03*
X256500Y106340D03*
X261500Y106340D03*
X266500Y106340D03*
X266500Y127340D03*
X261500Y127340D03*
X256500Y127340D03*
X251500Y127340D03*
X246500Y127340D03*
X241500Y127340D03*
D28*
X254000Y116840D03*
D29*
X635000Y406400D03*
X635000Y431800D03*
D30*
X212200Y111760D03*
X194200Y111760D03*
D31*
X248681Y13237D02*
X255661Y13237D01*
X255661Y6257D01*
X248681Y6257D01*
X248681Y13237D01*
X248681Y11057D02*
X255661Y11057D01*
X255661Y30777D02*
X248681Y30777D01*
X255661Y30777D02*
X255661Y23797D01*
X248681Y23797D01*
X248681Y30777D01*
X248681Y28597D02*
X255661Y28597D01*
D32*
X246486Y138910D03*
X251486Y138910D03*
X256486Y138910D03*
X261486Y138910D03*
X266486Y138910D03*
X271486Y138910D03*
X276486Y138910D03*
X281486Y138910D03*
X286486Y138910D03*
X291486Y138910D03*
D33*
X298986Y146410D03*
X298986Y151410D03*
X298986Y156410D03*
X298986Y161410D03*
X298986Y166410D03*
X298986Y171410D03*
X298986Y176410D03*
X298986Y181410D03*
X298986Y186410D03*
X298986Y191410D03*
D32*
X291486Y198910D03*
X286486Y198910D03*
X281486Y198910D03*
X276486Y198910D03*
X271486Y198910D03*
X266486Y198910D03*
X261486Y198910D03*
X256486Y198910D03*
X251486Y198910D03*
X246486Y198910D03*
D33*
X238986Y191410D03*
X238986Y186410D03*
X238986Y181410D03*
X238986Y176410D03*
X238986Y171410D03*
X238986Y166410D03*
X238986Y161410D03*
X238986Y156410D03*
X238986Y151410D03*
X238986Y146410D03*
D34*
X268986Y168910D03*
D35*
X333025Y282100D03*
D36*
X332500Y286100D03*
X332500Y290100D03*
X332500Y294100D03*
X332500Y298100D03*
D35*
X333025Y302100D03*
D37*
X327500Y307625D03*
D38*
X323500Y307100D03*
X319500Y307100D03*
X315500Y307100D03*
X311500Y307100D03*
D37*
X307500Y307625D03*
D35*
X301975Y302100D03*
D36*
X302500Y298100D03*
X302500Y294100D03*
X302500Y290100D03*
X302500Y286100D03*
D35*
X301975Y282100D03*
D37*
X307500Y276575D03*
D38*
X311500Y277100D03*
X315500Y277100D03*
X319500Y277100D03*
X323500Y277100D03*
D37*
X327500Y276575D03*
D39*
X329010Y282105D03*
D40*
X327495Y303610D03*
D39*
X305990Y302095D03*
D40*
X307505Y280590D03*
X327495Y280590D03*
D39*
X329010Y302095D03*
D40*
X307505Y303610D03*
D39*
X305990Y282105D03*
D11*
X328533Y349580D03*
X345533Y349580D03*
D10*
X288671Y301794D03*
X288671Y284794D03*
D11*
X328431Y321386D03*
X345431Y321386D03*
D41*
X262130Y274528D03*
X268630Y274528D03*
X275130Y274528D03*
X275130Y291028D03*
X262130Y291028D03*
D10*
X249428Y274862D03*
X249428Y291862D03*
D42*
X307260Y248490D03*
X297260Y248490D03*
X302260Y236990D03*
D43*
X297006Y258826D03*
X307006Y258826D03*
D42*
X337486Y248236D03*
X327486Y248236D03*
X332486Y236736D03*
D43*
X327232Y258826D03*
X337232Y258826D03*
D42*
X299800Y334440D03*
X309800Y334440D03*
X304800Y345940D03*
D43*
X309698Y323850D03*
X299698Y323850D03*
X290398Y345868D03*
X290398Y335868D03*
D42*
X260074Y334516D03*
X270074Y334516D03*
X265074Y346016D03*
D43*
X270074Y323926D03*
X260074Y323926D03*
X278536Y345665D03*
X278536Y335665D03*
D44*
X124460Y31750D03*
X99060Y31750D03*
X175260Y31750D03*
X149860Y31750D03*
X226060Y31750D03*
X200660Y31750D03*
X302260Y31750D03*
X276860Y31750D03*
X353060Y31750D03*
X327660Y31750D03*
X403860Y31750D03*
X378460Y31750D03*
D29*
X635000Y330200D03*
D11*
X118500Y342900D03*
X135500Y342900D03*
D10*
X82855Y303793D03*
X82855Y320793D03*
D29*
X635000Y304800D03*
D45*
X99000Y323850D03*
X99000Y311150D03*
X99000Y298450D03*
X99000Y285750D03*
X99000Y273050D03*
X99000Y260350D03*
X99000Y247650D03*
X155000Y247650D03*
X155000Y260350D03*
X155000Y273050D03*
X155000Y285750D03*
X155000Y298450D03*
X155000Y311150D03*
X155000Y323850D03*
D10*
X177800Y309000D03*
X177800Y326000D03*
X146050Y135500D03*
X146050Y118500D03*
X146050Y156600D03*
X146050Y173600D03*
X127000Y135500D03*
X127000Y118500D03*
X127000Y173600D03*
X127000Y156600D03*
X127000Y194700D03*
X127000Y211700D03*
X146050Y194700D03*
X146050Y211700D03*
X107950Y135500D03*
X107950Y118500D03*
X107950Y156600D03*
X107950Y173600D03*
X88900Y118500D03*
X88900Y135500D03*
X88900Y173600D03*
X88900Y156600D03*
X88900Y194700D03*
X88900Y211700D03*
X107950Y194700D03*
X107950Y211700D03*
D29*
X481330Y114300D03*
X483870Y139700D03*
X481330Y165100D03*
X506730Y114300D03*
X509270Y139700D03*
X506730Y165100D03*
X532130Y114300D03*
X534670Y139700D03*
X532130Y165100D03*
X557530Y114300D03*
X560070Y139700D03*
X557530Y165100D03*
X635000Y355600D03*
X635000Y381000D03*
X635000Y457200D03*
X635000Y482600D03*
X635000Y254000D03*
X635000Y279400D03*
D46*
X368300Y184150D03*
X381000Y184150D03*
X393700Y184150D03*
X406400Y184150D03*
X355600Y184150D03*
X368300Y196850D03*
X381000Y196850D03*
X393700Y196850D03*
X406400Y196850D03*
X355600Y196850D03*
D11*
X338700Y139700D03*
X321700Y139700D03*
X315579Y223190D03*
X332579Y223190D03*
X315731Y207493D03*
X332731Y207493D03*
D47*
X83720Y497555D03*
X83720Y552165D03*
X109120Y497555D03*
X109120Y552165D03*
X134520Y497555D03*
X134520Y552165D03*
X159920Y497555D03*
X159920Y552165D03*
X185320Y497555D03*
X185320Y552165D03*
X210720Y497555D03*
X210720Y552165D03*
X236120Y497555D03*
X236120Y552165D03*
X261520Y497555D03*
X261520Y552165D03*
X286920Y497555D03*
X286920Y552165D03*
X312320Y497555D03*
X312320Y552165D03*
X337720Y497555D03*
X337720Y552165D03*
X363120Y497555D03*
X363120Y552165D03*
X388520Y497555D03*
X388520Y552165D03*
X413920Y497555D03*
X413920Y552165D03*
X439320Y497555D03*
X439320Y552165D03*
X464720Y497555D03*
X464720Y552165D03*
X490120Y497555D03*
X490120Y552165D03*
X515520Y497555D03*
X515520Y552165D03*
X540920Y497555D03*
X540920Y552165D03*
X566320Y497555D03*
X566320Y552165D03*
D46*
X96420Y524860D03*
X553620Y524860D03*
D48*
X35000Y35000D03*
X615000Y35000D03*
X35000Y525000D03*
X615000Y525000D03*
D49*
X586358Y8849D03*
X7757Y499126D03*
D43*
X338502Y334518D03*
X328502Y334518D03*
D50*
X228600Y393700D03*
D10*
X862762Y198314D03*
X862762Y181314D03*
X1104925Y324425D03*
X1104925Y307425D03*
X1180643Y328279D03*
X1180643Y345279D03*
D11*
X1163913Y366217D03*
X1180913Y366217D03*
X1124365Y365506D03*
X1141365Y365506D03*
D12*
X1123349Y242200D03*
X1129849Y242200D03*
X1136349Y242200D03*
X1142849Y242200D03*
X1149349Y242200D03*
X1155849Y242200D03*
X1162349Y242200D03*
X1168849Y242200D03*
X1175349Y242200D03*
X1181849Y242200D03*
X1188349Y242200D03*
X1194849Y242200D03*
X1201349Y242200D03*
X1207849Y242200D03*
X1207849Y306200D03*
X1201349Y306200D03*
X1194849Y306200D03*
X1188349Y306200D03*
X1181849Y306200D03*
X1175349Y306200D03*
X1168849Y306200D03*
X1162349Y306200D03*
X1155849Y306200D03*
X1149349Y306200D03*
X1142849Y306200D03*
X1136349Y306200D03*
X1129849Y306200D03*
X1123349Y306200D03*
D13*
X1259284Y207213D03*
X1307284Y207213D03*
D11*
X1278797Y163754D03*
X1295797Y163754D03*
D10*
X1105637Y340725D03*
X1105637Y357725D03*
X1105408Y286960D03*
X1105408Y269960D03*
D14*
X1314649Y73600D03*
X1314649Y129600D03*
D15*
X1277899Y86600D03*
X1277899Y96600D03*
X1277899Y106600D03*
X1277899Y116600D03*
D10*
X762279Y407356D03*
X762279Y390356D03*
D16*
X741099Y428110D03*
X741099Y433110D03*
D17*
X741099Y403360D03*
X741099Y411110D03*
D16*
X741099Y418110D03*
X741099Y423110D03*
X741099Y443110D03*
X741099Y438110D03*
D17*
X741099Y467860D03*
X741099Y460110D03*
D16*
X741099Y453110D03*
X741099Y448110D03*
D18*
X730049Y464510D03*
X730049Y406710D03*
D11*
X778349Y423037D03*
X761349Y423037D03*
X778145Y441808D03*
X761145Y441808D03*
D19*
X863448Y419786D03*
X863448Y467538D03*
D20*
X786054Y461188D03*
X786054Y471348D03*
D21*
X1164943Y345648D03*
X1151943Y345648D03*
X1158443Y327148D03*
X1136368Y345876D03*
X1123368Y345876D03*
X1129868Y327376D03*
D22*
X1179499Y447200D03*
X1198499Y447200D03*
X1188999Y468200D03*
D23*
X1187349Y433220D03*
X1187349Y426720D03*
X1187349Y420220D03*
X1203349Y420220D03*
X1203349Y426720D03*
X1203349Y433220D03*
D11*
X1204078Y405130D03*
X1187078Y405130D03*
D10*
X1169949Y410600D03*
X1169949Y427600D03*
D22*
X1103299Y447200D03*
X1122299Y447200D03*
X1112799Y468200D03*
D23*
X1109879Y431950D03*
X1109879Y425450D03*
X1109879Y418950D03*
X1125879Y418950D03*
X1125879Y425450D03*
X1125879Y431950D03*
D11*
X1126379Y404190D03*
X1109379Y404190D03*
D10*
X1093749Y409330D03*
X1093749Y426330D03*
D24*
X806483Y475666D03*
X806483Y456666D03*
X827483Y466166D03*
D23*
X809220Y445768D03*
X809220Y439268D03*
X809220Y432768D03*
X825220Y432768D03*
X825220Y439268D03*
X825220Y445768D03*
D11*
X821097Y421335D03*
X804097Y421335D03*
D10*
X840054Y458055D03*
X840054Y441055D03*
D25*
X903249Y211370D03*
X903249Y222970D03*
X907059Y111040D03*
X907059Y122640D03*
D26*
X889999Y209550D03*
X878399Y209550D03*
X897619Y166370D03*
X886019Y166370D03*
X897619Y138938D03*
X886019Y138938D03*
X889999Y223520D03*
X878399Y223520D03*
X897619Y152654D03*
X886019Y152654D03*
D25*
X917219Y211370D03*
X917219Y222970D03*
D11*
X896509Y180594D03*
X879509Y180594D03*
X896509Y195326D03*
X879509Y195326D03*
D10*
X1000963Y173567D03*
X1000963Y190567D03*
D27*
X922499Y106340D03*
X927499Y106340D03*
X932499Y106340D03*
X937499Y106340D03*
X942499Y106340D03*
X947499Y106340D03*
X947499Y127340D03*
X942499Y127340D03*
X937499Y127340D03*
X932499Y127340D03*
X927499Y127340D03*
X922499Y127340D03*
D28*
X934999Y116840D03*
D29*
X1315999Y406400D03*
X1315999Y431800D03*
D30*
X893199Y111760D03*
X875199Y111760D03*
D31*
X929681Y13237D02*
X936661Y13237D01*
X936661Y6257D01*
X929681Y6257D01*
X929681Y13237D01*
X929681Y11057D02*
X936661Y11057D01*
X936661Y30777D02*
X929681Y30777D01*
X936661Y30777D02*
X936661Y23797D01*
X929681Y23797D01*
X929681Y30777D01*
X929681Y28597D02*
X936661Y28597D01*
D32*
X927485Y138910D03*
X932485Y138910D03*
X937485Y138910D03*
X942485Y138910D03*
X947485Y138910D03*
X952485Y138910D03*
X957485Y138910D03*
X962485Y138910D03*
X967485Y138910D03*
X972485Y138910D03*
D33*
X979985Y146410D03*
X979985Y151410D03*
X979985Y156410D03*
X979985Y161410D03*
X979985Y166410D03*
X979985Y171410D03*
X979985Y176410D03*
X979985Y181410D03*
X979985Y186410D03*
X979985Y191410D03*
D32*
X972485Y198910D03*
X967485Y198910D03*
X962485Y198910D03*
X957485Y198910D03*
X952485Y198910D03*
X947485Y198910D03*
X942485Y198910D03*
X937485Y198910D03*
X932485Y198910D03*
X927485Y198910D03*
D33*
X919985Y191410D03*
X919985Y186410D03*
X919985Y181410D03*
X919985Y176410D03*
X919985Y171410D03*
X919985Y166410D03*
X919985Y161410D03*
X919985Y156410D03*
X919985Y151410D03*
X919985Y146410D03*
D34*
X949985Y168910D03*
D35*
X1014024Y282100D03*
D36*
X1013499Y286100D03*
X1013499Y290100D03*
X1013499Y294100D03*
X1013499Y298100D03*
D35*
X1014024Y302100D03*
D37*
X1008499Y307625D03*
D38*
X1004499Y307100D03*
X1000499Y307100D03*
X996499Y307100D03*
X992499Y307100D03*
D37*
X988499Y307625D03*
D35*
X982974Y302100D03*
D36*
X983499Y298100D03*
X983499Y294100D03*
X983499Y290100D03*
X983499Y286100D03*
D35*
X982974Y282100D03*
D37*
X988499Y276575D03*
D38*
X992499Y277100D03*
X996499Y277100D03*
X1000499Y277100D03*
X1004499Y277100D03*
D37*
X1008499Y276575D03*
D39*
X1010009Y282105D03*
D40*
X1008494Y303610D03*
D39*
X986989Y302095D03*
D40*
X988504Y280590D03*
X1008494Y280590D03*
D39*
X1010009Y302095D03*
D40*
X988504Y303610D03*
D39*
X986989Y282105D03*
D11*
X1009532Y349580D03*
X1026532Y349580D03*
D10*
X969670Y301794D03*
X969670Y284794D03*
D11*
X1009430Y321386D03*
X1026430Y321386D03*
D41*
X943130Y274528D03*
X949630Y274528D03*
X956130Y274528D03*
X956130Y291028D03*
X943130Y291028D03*
D10*
X930427Y274862D03*
X930427Y291862D03*
D42*
X988259Y248490D03*
X978259Y248490D03*
X983259Y236990D03*
D43*
X978005Y258826D03*
X988005Y258826D03*
D42*
X1018485Y248236D03*
X1008485Y248236D03*
X1013485Y236736D03*
D43*
X1008231Y258826D03*
X1018231Y258826D03*
D42*
X980799Y334440D03*
X990799Y334440D03*
X985799Y345940D03*
D43*
X990698Y323850D03*
X980698Y323850D03*
X971398Y345868D03*
X971398Y335868D03*
D42*
X941074Y334516D03*
X951074Y334516D03*
X946074Y346016D03*
D43*
X951074Y323926D03*
X941074Y323926D03*
X959536Y345665D03*
X959536Y335665D03*
D44*
X805459Y31750D03*
X780059Y31750D03*
X856259Y31750D03*
X830859Y31750D03*
X907059Y31750D03*
X881659Y31750D03*
X983259Y31750D03*
X957859Y31750D03*
X1034059Y31750D03*
X1008659Y31750D03*
X1084859Y31750D03*
X1059459Y31750D03*
D29*
X1315999Y330200D03*
D11*
X799499Y342900D03*
X816499Y342900D03*
D10*
X763854Y303793D03*
X763854Y320793D03*
D29*
X1315999Y304800D03*
D45*
X779999Y323850D03*
X779999Y311150D03*
X779999Y298450D03*
X779999Y285750D03*
X779999Y273050D03*
X779999Y260350D03*
X779999Y247650D03*
X835999Y247650D03*
X835999Y260350D03*
X835999Y273050D03*
X835999Y285750D03*
X835999Y298450D03*
X835999Y311150D03*
X835999Y323850D03*
D10*
X858799Y309000D03*
X858799Y326000D03*
X827049Y135500D03*
X827049Y118500D03*
X827049Y156600D03*
X827049Y173600D03*
X807999Y135500D03*
X807999Y118500D03*
X807999Y173600D03*
X807999Y156600D03*
X807999Y194700D03*
X807999Y211700D03*
X827049Y194700D03*
X827049Y211700D03*
X788949Y135500D03*
X788949Y118500D03*
X788949Y156600D03*
X788949Y173600D03*
X769899Y118500D03*
X769899Y135500D03*
X769899Y173600D03*
X769899Y156600D03*
X769899Y194700D03*
X769899Y211700D03*
X788949Y194700D03*
X788949Y211700D03*
D29*
X1162329Y114300D03*
X1164869Y139700D03*
X1162329Y165100D03*
X1187729Y114300D03*
X1190269Y139700D03*
X1187729Y165100D03*
X1213129Y114300D03*
X1215669Y139700D03*
X1213129Y165100D03*
X1238529Y114300D03*
X1241069Y139700D03*
X1238529Y165100D03*
X1315999Y355600D03*
X1315999Y381000D03*
X1315999Y457200D03*
X1315999Y482600D03*
X1315999Y254000D03*
X1315999Y279400D03*
D46*
X1049299Y184150D03*
X1061999Y184150D03*
X1074699Y184150D03*
X1087399Y184150D03*
X1036599Y184150D03*
X1049299Y196850D03*
X1061999Y196850D03*
X1074699Y196850D03*
X1087399Y196850D03*
X1036599Y196850D03*
D11*
X1019699Y139700D03*
X1002699Y139700D03*
X996578Y223190D03*
X1013578Y223190D03*
X996730Y207493D03*
X1013730Y207493D03*
D47*
X764719Y497555D03*
X764719Y552165D03*
X790119Y497555D03*
X790119Y552165D03*
X815519Y497555D03*
X815519Y552165D03*
X840919Y497555D03*
X840919Y552165D03*
X866319Y497555D03*
X866319Y552165D03*
X891719Y497555D03*
X891719Y552165D03*
X917119Y497555D03*
X917119Y552165D03*
X942519Y497555D03*
X942519Y552165D03*
X967919Y497555D03*
X967919Y552165D03*
X993319Y497555D03*
X993319Y552165D03*
X1018719Y497555D03*
X1018719Y552165D03*
X1044119Y497555D03*
X1044119Y552165D03*
X1069519Y497555D03*
X1069519Y552165D03*
X1094919Y497555D03*
X1094919Y552165D03*
X1120319Y497555D03*
X1120319Y552165D03*
X1145719Y497555D03*
X1145719Y552165D03*
X1171119Y497555D03*
X1171119Y552165D03*
X1196519Y497555D03*
X1196519Y552165D03*
X1221919Y497555D03*
X1221919Y552165D03*
X1247319Y497555D03*
X1247319Y552165D03*
D46*
X777419Y524860D03*
X1234619Y524860D03*
D48*
X715999Y35000D03*
X1295999Y35000D03*
X715999Y525000D03*
X1295999Y525000D03*
D49*
X1267357Y8849D03*
X688757Y499126D03*
D43*
X1019501Y334518D03*
X1009501Y334518D03*
D50*
X909599Y393700D03*
D10*
X1543736Y198314D03*
X1543736Y181314D03*
X1785899Y324425D03*
X1785899Y307425D03*
X1861617Y328279D03*
X1861617Y345279D03*
D11*
X1844887Y366217D03*
X1861887Y366217D03*
X1805339Y365506D03*
X1822339Y365506D03*
D12*
X1804323Y242200D03*
X1810823Y242200D03*
X1817323Y242200D03*
X1823823Y242200D03*
X1830323Y242200D03*
X1836823Y242200D03*
X1843323Y242200D03*
X1849823Y242200D03*
X1856323Y242200D03*
X1862823Y242200D03*
X1869323Y242200D03*
X1875823Y242200D03*
X1882323Y242200D03*
X1888823Y242200D03*
X1888823Y306200D03*
X1882323Y306200D03*
X1875823Y306200D03*
X1869323Y306200D03*
X1862823Y306200D03*
X1856323Y306200D03*
X1849823Y306200D03*
X1843323Y306200D03*
X1836823Y306200D03*
X1830323Y306200D03*
X1823823Y306200D03*
X1817323Y306200D03*
X1810823Y306200D03*
X1804323Y306200D03*
D13*
X1940258Y207213D03*
X1988258Y207213D03*
D11*
X1959771Y163754D03*
X1976771Y163754D03*
D10*
X1786611Y340725D03*
X1786611Y357725D03*
X1786382Y286960D03*
X1786382Y269960D03*
D14*
X1995623Y73600D03*
X1995623Y129600D03*
D15*
X1958873Y86600D03*
X1958873Y96600D03*
X1958873Y106600D03*
X1958873Y116600D03*
D10*
X1443253Y407356D03*
X1443253Y390356D03*
D16*
X1422073Y428110D03*
X1422073Y433110D03*
D17*
X1422073Y403360D03*
X1422073Y411110D03*
D16*
X1422073Y418110D03*
X1422073Y423110D03*
X1422073Y443110D03*
X1422073Y438110D03*
D17*
X1422073Y467860D03*
X1422073Y460110D03*
D16*
X1422073Y453110D03*
X1422073Y448110D03*
D18*
X1411023Y464510D03*
X1411023Y406710D03*
D11*
X1459323Y423037D03*
X1442323Y423037D03*
X1459119Y441808D03*
X1442119Y441808D03*
D19*
X1544422Y419786D03*
X1544422Y467538D03*
D20*
X1467028Y461188D03*
X1467028Y471348D03*
D21*
X1845917Y345648D03*
X1832917Y345648D03*
X1839417Y327148D03*
X1817342Y345876D03*
X1804342Y345876D03*
X1810842Y327376D03*
D22*
X1860473Y447200D03*
X1879473Y447200D03*
X1869973Y468200D03*
D23*
X1868323Y433220D03*
X1868323Y426720D03*
X1868323Y420220D03*
X1884323Y420220D03*
X1884323Y426720D03*
X1884323Y433220D03*
D11*
X1885052Y405130D03*
X1868052Y405130D03*
D10*
X1850923Y410600D03*
X1850923Y427600D03*
D22*
X1784273Y447200D03*
X1803273Y447200D03*
X1793773Y468200D03*
D23*
X1790853Y431950D03*
X1790853Y425450D03*
X1790853Y418950D03*
X1806853Y418950D03*
X1806853Y425450D03*
X1806853Y431950D03*
D11*
X1807353Y404190D03*
X1790353Y404190D03*
D10*
X1774723Y409330D03*
X1774723Y426330D03*
D24*
X1487457Y475666D03*
X1487457Y456666D03*
X1508457Y466166D03*
D23*
X1490194Y445768D03*
X1490194Y439268D03*
X1490194Y432768D03*
X1506194Y432768D03*
X1506194Y439268D03*
X1506194Y445768D03*
D11*
X1502071Y421335D03*
X1485071Y421335D03*
D10*
X1521028Y458055D03*
X1521028Y441055D03*
D25*
X1584223Y211370D03*
X1584223Y222970D03*
X1588033Y111040D03*
X1588033Y122640D03*
D26*
X1570973Y209550D03*
X1559373Y209550D03*
X1578593Y166370D03*
X1566993Y166370D03*
X1578593Y138938D03*
X1566993Y138938D03*
X1570973Y223520D03*
X1559373Y223520D03*
X1578593Y152654D03*
X1566993Y152654D03*
D25*
X1598193Y211370D03*
X1598193Y222970D03*
D11*
X1577483Y180594D03*
X1560483Y180594D03*
X1577483Y195326D03*
X1560483Y195326D03*
D10*
X1681937Y173567D03*
X1681937Y190567D03*
D27*
X1603473Y106340D03*
X1608473Y106340D03*
X1613473Y106340D03*
X1618473Y106340D03*
X1623473Y106340D03*
X1628473Y106340D03*
X1628473Y127340D03*
X1623473Y127340D03*
X1618473Y127340D03*
X1613473Y127340D03*
X1608473Y127340D03*
X1603473Y127340D03*
D28*
X1615973Y116840D03*
D29*
X1996973Y406400D03*
X1996973Y431800D03*
D30*
X1574173Y111760D03*
X1556173Y111760D03*
D31*
X1610655Y13237D02*
X1617635Y13237D01*
X1617635Y6257D01*
X1610655Y6257D01*
X1610655Y13237D01*
X1610655Y11057D02*
X1617635Y11057D01*
X1617635Y30777D02*
X1610655Y30777D01*
X1617635Y30777D02*
X1617635Y23797D01*
X1610655Y23797D01*
X1610655Y30777D01*
X1610655Y28597D02*
X1617635Y28597D01*
D32*
X1608459Y138910D03*
X1613459Y138910D03*
X1618459Y138910D03*
X1623459Y138910D03*
X1628459Y138910D03*
X1633459Y138910D03*
X1638459Y138910D03*
X1643459Y138910D03*
X1648459Y138910D03*
X1653459Y138910D03*
D33*
X1660959Y146410D03*
X1660959Y151410D03*
X1660959Y156410D03*
X1660959Y161410D03*
X1660959Y166410D03*
X1660959Y171410D03*
X1660959Y176410D03*
X1660959Y181410D03*
X1660959Y186410D03*
X1660959Y191410D03*
D32*
X1653459Y198910D03*
X1648459Y198910D03*
X1643459Y198910D03*
X1638459Y198910D03*
X1633459Y198910D03*
X1628459Y198910D03*
X1623459Y198910D03*
X1618459Y198910D03*
X1613459Y198910D03*
X1608459Y198910D03*
D33*
X1600959Y191410D03*
X1600959Y186410D03*
X1600959Y181410D03*
X1600959Y176410D03*
X1600959Y171410D03*
X1600959Y166410D03*
X1600959Y161410D03*
X1600959Y156410D03*
X1600959Y151410D03*
X1600959Y146410D03*
D34*
X1630959Y168910D03*
D35*
X1694998Y282100D03*
D36*
X1694473Y286100D03*
X1694473Y290100D03*
X1694473Y294100D03*
X1694473Y298100D03*
D35*
X1694998Y302100D03*
D37*
X1689473Y307625D03*
D38*
X1685473Y307100D03*
X1681473Y307100D03*
X1677473Y307100D03*
X1673473Y307100D03*
D37*
X1669473Y307625D03*
D35*
X1663948Y302100D03*
D36*
X1664473Y298100D03*
X1664473Y294100D03*
X1664473Y290100D03*
X1664473Y286100D03*
D35*
X1663948Y282100D03*
D37*
X1669473Y276575D03*
D38*
X1673473Y277100D03*
X1677473Y277100D03*
X1681473Y277100D03*
X1685473Y277100D03*
D37*
X1689473Y276575D03*
D39*
X1690983Y282105D03*
D40*
X1689468Y303610D03*
D39*
X1667963Y302095D03*
D40*
X1669478Y280590D03*
X1689468Y280590D03*
D39*
X1690983Y302095D03*
D40*
X1669478Y303610D03*
D39*
X1667963Y282105D03*
D11*
X1690506Y349580D03*
X1707506Y349580D03*
D10*
X1650644Y301794D03*
X1650644Y284794D03*
D11*
X1690404Y321386D03*
X1707404Y321386D03*
D41*
X1624104Y274528D03*
X1630604Y274528D03*
X1637104Y274528D03*
X1637104Y291028D03*
X1624104Y291028D03*
D10*
X1611401Y274862D03*
X1611401Y291862D03*
D42*
X1669233Y248490D03*
X1659233Y248490D03*
X1664233Y236990D03*
D43*
X1658979Y258826D03*
X1668979Y258826D03*
D42*
X1699459Y248236D03*
X1689459Y248236D03*
X1694459Y236736D03*
D43*
X1689205Y258826D03*
X1699205Y258826D03*
D42*
X1661773Y334440D03*
X1671773Y334440D03*
X1666773Y345940D03*
D43*
X1671672Y323850D03*
X1661672Y323850D03*
X1652372Y345868D03*
X1652372Y335868D03*
D42*
X1622048Y334516D03*
X1632048Y334516D03*
X1627048Y346016D03*
D43*
X1632048Y323926D03*
X1622048Y323926D03*
X1640510Y345665D03*
X1640510Y335665D03*
D44*
X1486433Y31750D03*
X1461033Y31750D03*
X1537233Y31750D03*
X1511833Y31750D03*
X1588033Y31750D03*
X1562633Y31750D03*
X1664233Y31750D03*
X1638833Y31750D03*
X1715033Y31750D03*
X1689633Y31750D03*
X1765833Y31750D03*
X1740433Y31750D03*
D29*
X1996973Y330200D03*
D11*
X1480473Y342900D03*
X1497473Y342900D03*
D10*
X1444828Y303793D03*
X1444828Y320793D03*
D29*
X1996973Y304800D03*
D45*
X1460973Y323850D03*
X1460973Y311150D03*
X1460973Y298450D03*
X1460973Y285750D03*
X1460973Y273050D03*
X1460973Y260350D03*
X1460973Y247650D03*
X1516973Y247650D03*
X1516973Y260350D03*
X1516973Y273050D03*
X1516973Y285750D03*
X1516973Y298450D03*
X1516973Y311150D03*
X1516973Y323850D03*
D10*
X1539773Y309000D03*
X1539773Y326000D03*
X1508023Y135500D03*
X1508023Y118500D03*
X1508023Y156600D03*
X1508023Y173600D03*
X1488973Y135500D03*
X1488973Y118500D03*
X1488973Y173600D03*
X1488973Y156600D03*
X1488973Y194700D03*
X1488973Y211700D03*
X1508023Y194700D03*
X1508023Y211700D03*
X1469923Y135500D03*
X1469923Y118500D03*
X1469923Y156600D03*
X1469923Y173600D03*
X1450873Y118500D03*
X1450873Y135500D03*
X1450873Y173600D03*
X1450873Y156600D03*
X1450873Y194700D03*
X1450873Y211700D03*
X1469923Y194700D03*
X1469923Y211700D03*
D29*
X1843303Y114300D03*
X1845843Y139700D03*
X1843303Y165100D03*
X1868703Y114300D03*
X1871243Y139700D03*
X1868703Y165100D03*
X1894103Y114300D03*
X1896643Y139700D03*
X1894103Y165100D03*
X1919503Y114300D03*
X1922043Y139700D03*
X1919503Y165100D03*
X1996973Y355600D03*
X1996973Y381000D03*
X1996973Y457200D03*
X1996973Y482600D03*
X1996973Y254000D03*
X1996973Y279400D03*
D46*
X1730273Y184150D03*
X1742973Y184150D03*
X1755673Y184150D03*
X1768373Y184150D03*
X1717573Y184150D03*
X1730273Y196850D03*
X1742973Y196850D03*
X1755673Y196850D03*
X1768373Y196850D03*
X1717573Y196850D03*
D11*
X1700673Y139700D03*
X1683673Y139700D03*
X1677552Y223190D03*
X1694552Y223190D03*
X1677704Y207493D03*
X1694704Y207493D03*
D47*
X1445693Y497555D03*
X1445693Y552165D03*
X1471093Y497555D03*
X1471093Y552165D03*
X1496493Y497555D03*
X1496493Y552165D03*
X1521893Y497555D03*
X1521893Y552165D03*
X1547293Y497555D03*
X1547293Y552165D03*
X1572693Y497555D03*
X1572693Y552165D03*
X1598093Y497555D03*
X1598093Y552165D03*
X1623493Y497555D03*
X1623493Y552165D03*
X1648893Y497555D03*
X1648893Y552165D03*
X1674293Y497555D03*
X1674293Y552165D03*
X1699693Y497555D03*
X1699693Y552165D03*
X1725093Y497555D03*
X1725093Y552165D03*
X1750493Y497555D03*
X1750493Y552165D03*
X1775893Y497555D03*
X1775893Y552165D03*
X1801293Y497555D03*
X1801293Y552165D03*
X1826693Y497555D03*
X1826693Y552165D03*
X1852093Y497555D03*
X1852093Y552165D03*
X1877493Y497555D03*
X1877493Y552165D03*
X1902893Y497555D03*
X1902893Y552165D03*
X1928293Y497555D03*
X1928293Y552165D03*
D46*
X1458393Y524860D03*
X1915593Y524860D03*
D48*
X1396973Y35000D03*
X1976973Y35000D03*
X1396973Y525000D03*
X1976973Y525000D03*
D49*
X1948331Y8849D03*
X1369731Y499126D03*
D43*
X1700475Y334518D03*
X1690475Y334518D03*
D50*
X1590573Y393700D03*
D10*
X181762Y773726D03*
X181762Y756726D03*
X423926Y899837D03*
X423926Y882837D03*
X499643Y903690D03*
X499643Y920690D03*
D11*
X482914Y941629D03*
X499914Y941629D03*
X443366Y940918D03*
X460366Y940918D03*
D12*
X442350Y817612D03*
X448850Y817612D03*
X455350Y817612D03*
X461850Y817612D03*
X468350Y817612D03*
X474850Y817612D03*
X481350Y817612D03*
X487850Y817612D03*
X494350Y817612D03*
X500850Y817612D03*
X507350Y817612D03*
X513850Y817612D03*
X520350Y817612D03*
X526850Y817612D03*
X526850Y881612D03*
X520350Y881612D03*
X513850Y881612D03*
X507350Y881612D03*
X500850Y881612D03*
X494350Y881612D03*
X487850Y881612D03*
X481350Y881612D03*
X474850Y881612D03*
X468350Y881612D03*
X461850Y881612D03*
X455350Y881612D03*
X448850Y881612D03*
X442350Y881612D03*
D13*
X578285Y782625D03*
X626285Y782625D03*
D11*
X597798Y739165D03*
X614798Y739165D03*
D10*
X424637Y916136D03*
X424637Y933136D03*
X424409Y862372D03*
X424409Y845372D03*
D14*
X633650Y649012D03*
X633650Y705012D03*
D15*
X596900Y662012D03*
X596900Y672012D03*
X596900Y682012D03*
X596900Y692012D03*
D10*
X81280Y982768D03*
X81280Y965768D03*
D16*
X60100Y1003522D03*
X60100Y1008522D03*
D17*
X60100Y978772D03*
X60100Y986522D03*
D16*
X60100Y993522D03*
X60100Y998522D03*
X60100Y1018522D03*
X60100Y1013522D03*
D17*
X60100Y1043272D03*
X60100Y1035522D03*
D16*
X60100Y1028522D03*
X60100Y1023522D03*
D18*
X49050Y1039922D03*
X49050Y982122D03*
D11*
X97349Y998449D03*
X80349Y998449D03*
X97146Y1017219D03*
X80146Y1017219D03*
D19*
X182448Y995197D03*
X182448Y1042949D03*
D20*
X105054Y1036599D03*
X105054Y1046759D03*
D21*
X483944Y921059D03*
X470944Y921059D03*
X477444Y902559D03*
X455369Y921288D03*
X442369Y921288D03*
X448869Y902788D03*
D22*
X498500Y1022612D03*
X517500Y1022612D03*
X508000Y1043612D03*
D23*
X506350Y1008632D03*
X506350Y1002132D03*
X506350Y995632D03*
X522350Y995632D03*
X522350Y1002132D03*
X522350Y1008632D03*
D11*
X523079Y980542D03*
X506079Y980542D03*
D10*
X488950Y986012D03*
X488950Y1003012D03*
D22*
X422300Y1022612D03*
X441300Y1022612D03*
X431800Y1043612D03*
D23*
X428880Y1007362D03*
X428880Y1000862D03*
X428880Y994362D03*
X444880Y994362D03*
X444880Y1000862D03*
X444880Y1007362D03*
D11*
X445380Y979602D03*
X428380Y979602D03*
D10*
X412750Y984742D03*
X412750Y1001742D03*
D24*
X125484Y1051078D03*
X125484Y1032078D03*
X146484Y1041578D03*
D23*
X128220Y1021179D03*
X128220Y1014679D03*
X128220Y1008179D03*
X144220Y1008179D03*
X144220Y1014679D03*
X144220Y1021179D03*
D11*
X140097Y996747D03*
X123097Y996747D03*
D10*
X159055Y1033466D03*
X159055Y1016466D03*
D25*
X222250Y786782D03*
X222250Y798382D03*
X226060Y686452D03*
X226060Y698052D03*
D26*
X209000Y784962D03*
X197400Y784962D03*
X216620Y741782D03*
X205020Y741782D03*
X216620Y714350D03*
X205020Y714350D03*
X209000Y798932D03*
X197400Y798932D03*
X216620Y728066D03*
X205020Y728066D03*
D25*
X236220Y786782D03*
X236220Y798382D03*
D11*
X215510Y756006D03*
X198510Y756006D03*
X215510Y770738D03*
X198510Y770738D03*
D10*
X319964Y748979D03*
X319964Y765979D03*
D27*
X241500Y681752D03*
X246500Y681752D03*
X251500Y681752D03*
X256500Y681752D03*
X261500Y681752D03*
X266500Y681752D03*
X266500Y702752D03*
X261500Y702752D03*
X256500Y702752D03*
X251500Y702752D03*
X246500Y702752D03*
X241500Y702752D03*
D28*
X254000Y692252D03*
D29*
X635000Y981812D03*
X635000Y1007212D03*
D30*
X212200Y687172D03*
X194200Y687172D03*
D31*
X248681Y588648D02*
X255661Y588648D01*
X255661Y581668D01*
X248681Y581668D01*
X248681Y588648D01*
X248681Y586468D02*
X255661Y586468D01*
X255661Y606188D02*
X248681Y606188D01*
X255661Y606188D02*
X255661Y599208D01*
X248681Y599208D01*
X248681Y606188D01*
X248681Y604008D02*
X255661Y604008D01*
D32*
X246486Y714322D03*
X251486Y714322D03*
X256486Y714322D03*
X261486Y714322D03*
X266486Y714322D03*
X271486Y714322D03*
X276486Y714322D03*
X281486Y714322D03*
X286486Y714322D03*
X291486Y714322D03*
D33*
X298986Y721822D03*
X298986Y726822D03*
X298986Y731822D03*
X298986Y736822D03*
X298986Y741822D03*
X298986Y746822D03*
X298986Y751822D03*
X298986Y756822D03*
X298986Y761822D03*
X298986Y766822D03*
D32*
X291486Y774322D03*
X286486Y774322D03*
X281486Y774322D03*
X276486Y774322D03*
X271486Y774322D03*
X266486Y774322D03*
X261486Y774322D03*
X256486Y774322D03*
X251486Y774322D03*
X246486Y774322D03*
D33*
X238986Y766822D03*
X238986Y761822D03*
X238986Y756822D03*
X238986Y751822D03*
X238986Y746822D03*
X238986Y741822D03*
X238986Y736822D03*
X238986Y731822D03*
X238986Y726822D03*
X238986Y721822D03*
D34*
X268986Y744322D03*
D35*
X333025Y857512D03*
D36*
X332500Y861512D03*
X332500Y865512D03*
X332500Y869512D03*
X332500Y873512D03*
D35*
X333025Y877512D03*
D37*
X327500Y883037D03*
D38*
X323500Y882512D03*
X319500Y882512D03*
X315500Y882512D03*
X311500Y882512D03*
D37*
X307500Y883037D03*
D35*
X301975Y877512D03*
D36*
X302500Y873512D03*
X302500Y869512D03*
X302500Y865512D03*
X302500Y861512D03*
D35*
X301975Y857512D03*
D37*
X307500Y851987D03*
D38*
X311500Y852512D03*
X315500Y852512D03*
X319500Y852512D03*
X323500Y852512D03*
D37*
X327500Y851987D03*
D39*
X329010Y857517D03*
D40*
X327495Y879022D03*
D39*
X305990Y877507D03*
D40*
X307505Y856002D03*
X327495Y856002D03*
D39*
X329010Y877507D03*
D40*
X307505Y879022D03*
D39*
X305990Y857517D03*
D11*
X328533Y924992D03*
X345533Y924992D03*
D10*
X288671Y877205D03*
X288671Y860205D03*
D11*
X328431Y896798D03*
X345431Y896798D03*
D41*
X262130Y849940D03*
X268630Y849940D03*
X275130Y849940D03*
X275130Y866440D03*
X262130Y866440D03*
D10*
X249428Y850274D03*
X249428Y867274D03*
D42*
X307260Y823902D03*
X297260Y823902D03*
X302260Y812402D03*
D43*
X297006Y834238D03*
X307006Y834238D03*
D42*
X337486Y823648D03*
X327486Y823648D03*
X332486Y812148D03*
D43*
X327232Y834238D03*
X337232Y834238D03*
D42*
X299800Y909852D03*
X309800Y909852D03*
X304800Y921352D03*
D43*
X309698Y899262D03*
X299698Y899262D03*
X290398Y921280D03*
X290398Y911280D03*
D42*
X260074Y909928D03*
X270074Y909928D03*
X265074Y921428D03*
D43*
X270074Y899338D03*
X260074Y899338D03*
X278536Y921076D03*
X278536Y911076D03*
D44*
X124460Y607162D03*
X99060Y607162D03*
X175260Y607162D03*
X149860Y607162D03*
X226060Y607162D03*
X200660Y607162D03*
X302260Y607162D03*
X276860Y607162D03*
X353060Y607162D03*
X327660Y607162D03*
X403860Y607162D03*
X378460Y607162D03*
D29*
X635000Y905612D03*
D11*
X118500Y918312D03*
X135500Y918312D03*
D10*
X82855Y879205D03*
X82855Y896205D03*
D29*
X635000Y880212D03*
D45*
X99000Y899262D03*
X99000Y886562D03*
X99000Y873862D03*
X99000Y861162D03*
X99000Y848462D03*
X99000Y835762D03*
X99000Y823062D03*
X155000Y823062D03*
X155000Y835762D03*
X155000Y848462D03*
X155000Y861162D03*
X155000Y873862D03*
X155000Y886562D03*
X155000Y899262D03*
D10*
X177800Y884412D03*
X177800Y901412D03*
X146050Y710912D03*
X146050Y693912D03*
X146050Y732012D03*
X146050Y749012D03*
X127000Y710912D03*
X127000Y693912D03*
X127000Y749012D03*
X127000Y732012D03*
X127000Y770112D03*
X127000Y787112D03*
X146050Y770112D03*
X146050Y787112D03*
X107950Y710912D03*
X107950Y693912D03*
X107950Y732012D03*
X107950Y749012D03*
X88900Y693912D03*
X88900Y710912D03*
X88900Y749012D03*
X88900Y732012D03*
X88900Y770112D03*
X88900Y787112D03*
X107950Y770112D03*
X107950Y787112D03*
D29*
X481330Y689712D03*
X483870Y715112D03*
X481330Y740512D03*
X506730Y689712D03*
X509270Y715112D03*
X506730Y740512D03*
X532130Y689712D03*
X534670Y715112D03*
X532130Y740512D03*
X557530Y689712D03*
X560070Y715112D03*
X557530Y740512D03*
X635000Y931012D03*
X635000Y956412D03*
X635000Y1032612D03*
X635000Y1058012D03*
X635000Y829412D03*
X635000Y854812D03*
D46*
X368300Y759562D03*
X381000Y759562D03*
X393700Y759562D03*
X406400Y759562D03*
X355600Y759562D03*
X368300Y772262D03*
X381000Y772262D03*
X393700Y772262D03*
X406400Y772262D03*
X355600Y772262D03*
D11*
X338700Y715112D03*
X321700Y715112D03*
X315579Y798601D03*
X332579Y798601D03*
X315731Y782904D03*
X332731Y782904D03*
D47*
X83720Y1072967D03*
X83720Y1127577D03*
X109120Y1072967D03*
X109120Y1127577D03*
X134520Y1072967D03*
X134520Y1127577D03*
X159920Y1072967D03*
X159920Y1127577D03*
X185320Y1072967D03*
X185320Y1127577D03*
X210720Y1072967D03*
X210720Y1127577D03*
X236120Y1072967D03*
X236120Y1127577D03*
X261520Y1072967D03*
X261520Y1127577D03*
X286920Y1072967D03*
X286920Y1127577D03*
X312320Y1072967D03*
X312320Y1127577D03*
X337720Y1072967D03*
X337720Y1127577D03*
X363120Y1072967D03*
X363120Y1127577D03*
X388520Y1072967D03*
X388520Y1127577D03*
X413920Y1072967D03*
X413920Y1127577D03*
X439320Y1072967D03*
X439320Y1127577D03*
X464720Y1072967D03*
X464720Y1127577D03*
X490120Y1072967D03*
X490120Y1127577D03*
X515520Y1072967D03*
X515520Y1127577D03*
X540920Y1072967D03*
X540920Y1127577D03*
X566320Y1072967D03*
X566320Y1127577D03*
D46*
X96420Y1100272D03*
X553620Y1100272D03*
D48*
X35000Y610412D03*
X615000Y610412D03*
X35000Y1100412D03*
X615000Y1100412D03*
D49*
X586358Y584261D03*
X7757Y1074538D03*
D43*
X338502Y909930D03*
X328502Y909930D03*
D50*
X228600Y969112D03*
D10*
X862762Y773726D03*
X862762Y756726D03*
X1104925Y899837D03*
X1104925Y882837D03*
X1180643Y903690D03*
X1180643Y920690D03*
D11*
X1163913Y941629D03*
X1180913Y941629D03*
X1124365Y940918D03*
X1141365Y940918D03*
D12*
X1123349Y817612D03*
X1129849Y817612D03*
X1136349Y817612D03*
X1142849Y817612D03*
X1149349Y817612D03*
X1155849Y817612D03*
X1162349Y817612D03*
X1168849Y817612D03*
X1175349Y817612D03*
X1181849Y817612D03*
X1188349Y817612D03*
X1194849Y817612D03*
X1201349Y817612D03*
X1207849Y817612D03*
X1207849Y881612D03*
X1201349Y881612D03*
X1194849Y881612D03*
X1188349Y881612D03*
X1181849Y881612D03*
X1175349Y881612D03*
X1168849Y881612D03*
X1162349Y881612D03*
X1155849Y881612D03*
X1149349Y881612D03*
X1142849Y881612D03*
X1136349Y881612D03*
X1129849Y881612D03*
X1123349Y881612D03*
D13*
X1259284Y782625D03*
X1307284Y782625D03*
D11*
X1278797Y739165D03*
X1295797Y739165D03*
D10*
X1105637Y916136D03*
X1105637Y933136D03*
X1105408Y862372D03*
X1105408Y845372D03*
D14*
X1314649Y649012D03*
X1314649Y705012D03*
D15*
X1277899Y662012D03*
X1277899Y672012D03*
X1277899Y682012D03*
X1277899Y692012D03*
D10*
X762279Y982768D03*
X762279Y965768D03*
D16*
X741099Y1003522D03*
X741099Y1008522D03*
D17*
X741099Y978772D03*
X741099Y986522D03*
D16*
X741099Y993522D03*
X741099Y998522D03*
X741099Y1018522D03*
X741099Y1013522D03*
D17*
X741099Y1043272D03*
X741099Y1035522D03*
D16*
X741099Y1028522D03*
X741099Y1023522D03*
D18*
X730049Y1039922D03*
X730049Y982122D03*
D11*
X778349Y998449D03*
X761349Y998449D03*
X778145Y1017219D03*
X761145Y1017219D03*
D19*
X863448Y995197D03*
X863448Y1042949D03*
D20*
X786054Y1036599D03*
X786054Y1046759D03*
D21*
X1164943Y921059D03*
X1151943Y921059D03*
X1158443Y902559D03*
X1136368Y921288D03*
X1123368Y921288D03*
X1129868Y902788D03*
D22*
X1179499Y1022612D03*
X1198499Y1022612D03*
X1188999Y1043612D03*
D23*
X1187349Y1008632D03*
X1187349Y1002132D03*
X1187349Y995632D03*
X1203349Y995632D03*
X1203349Y1002132D03*
X1203349Y1008632D03*
D11*
X1204078Y980542D03*
X1187078Y980542D03*
D10*
X1169949Y986012D03*
X1169949Y1003012D03*
D22*
X1103299Y1022612D03*
X1122299Y1022612D03*
X1112799Y1043612D03*
D23*
X1109879Y1007362D03*
X1109879Y1000862D03*
X1109879Y994362D03*
X1125879Y994362D03*
X1125879Y1000862D03*
X1125879Y1007362D03*
D11*
X1126379Y979602D03*
X1109379Y979602D03*
D10*
X1093749Y984742D03*
X1093749Y1001742D03*
D24*
X806483Y1051078D03*
X806483Y1032078D03*
X827483Y1041578D03*
D23*
X809220Y1021179D03*
X809220Y1014679D03*
X809220Y1008179D03*
X825220Y1008179D03*
X825220Y1014679D03*
X825220Y1021179D03*
D11*
X821097Y996747D03*
X804097Y996747D03*
D10*
X840054Y1033466D03*
X840054Y1016466D03*
D25*
X903249Y786782D03*
X903249Y798382D03*
X907059Y686452D03*
X907059Y698052D03*
D26*
X889999Y784962D03*
X878399Y784962D03*
X897619Y741782D03*
X886019Y741782D03*
X897619Y714350D03*
X886019Y714350D03*
X889999Y798932D03*
X878399Y798932D03*
X897619Y728066D03*
X886019Y728066D03*
D25*
X917219Y786782D03*
X917219Y798382D03*
D11*
X896509Y756006D03*
X879509Y756006D03*
X896509Y770738D03*
X879509Y770738D03*
D10*
X1000963Y748979D03*
X1000963Y765979D03*
D27*
X922499Y681752D03*
X927499Y681752D03*
X932499Y681752D03*
X937499Y681752D03*
X942499Y681752D03*
X947499Y681752D03*
X947499Y702752D03*
X942499Y702752D03*
X937499Y702752D03*
X932499Y702752D03*
X927499Y702752D03*
X922499Y702752D03*
D28*
X934999Y692252D03*
D29*
X1315999Y981812D03*
X1315999Y1007212D03*
D30*
X893199Y687172D03*
X875199Y687172D03*
D31*
X929681Y588648D02*
X936661Y588648D01*
X936661Y581668D01*
X929681Y581668D01*
X929681Y588648D01*
X929681Y586468D02*
X936661Y586468D01*
X936661Y606188D02*
X929681Y606188D01*
X936661Y606188D02*
X936661Y599208D01*
X929681Y599208D01*
X929681Y606188D01*
X929681Y604008D02*
X936661Y604008D01*
D32*
X927485Y714322D03*
X932485Y714322D03*
X937485Y714322D03*
X942485Y714322D03*
X947485Y714322D03*
X952485Y714322D03*
X957485Y714322D03*
X962485Y714322D03*
X967485Y714322D03*
X972485Y714322D03*
D33*
X979985Y721822D03*
X979985Y726822D03*
X979985Y731822D03*
X979985Y736822D03*
X979985Y741822D03*
X979985Y746822D03*
X979985Y751822D03*
X979985Y756822D03*
X979985Y761822D03*
X979985Y766822D03*
D32*
X972485Y774322D03*
X967485Y774322D03*
X962485Y774322D03*
X957485Y774322D03*
X952485Y774322D03*
X947485Y774322D03*
X942485Y774322D03*
X937485Y774322D03*
X932485Y774322D03*
X927485Y774322D03*
D33*
X919985Y766822D03*
X919985Y761822D03*
X919985Y756822D03*
X919985Y751822D03*
X919985Y746822D03*
X919985Y741822D03*
X919985Y736822D03*
X919985Y731822D03*
X919985Y726822D03*
X919985Y721822D03*
D34*
X949985Y744322D03*
D35*
X1014024Y857512D03*
D36*
X1013499Y861512D03*
X1013499Y865512D03*
X1013499Y869512D03*
X1013499Y873512D03*
D35*
X1014024Y877512D03*
D37*
X1008499Y883037D03*
D38*
X1004499Y882512D03*
X1000499Y882512D03*
X996499Y882512D03*
X992499Y882512D03*
D37*
X988499Y883037D03*
D35*
X982974Y877512D03*
D36*
X983499Y873512D03*
X983499Y869512D03*
X983499Y865512D03*
X983499Y861512D03*
D35*
X982974Y857512D03*
D37*
X988499Y851987D03*
D38*
X992499Y852512D03*
X996499Y852512D03*
X1000499Y852512D03*
X1004499Y852512D03*
D37*
X1008499Y851987D03*
D39*
X1010009Y857517D03*
D40*
X1008494Y879022D03*
D39*
X986989Y877507D03*
D40*
X988504Y856002D03*
X1008494Y856002D03*
D39*
X1010009Y877507D03*
D40*
X988504Y879022D03*
D39*
X986989Y857517D03*
D11*
X1009532Y924992D03*
X1026532Y924992D03*
D10*
X969670Y877205D03*
X969670Y860205D03*
D11*
X1009430Y896798D03*
X1026430Y896798D03*
D41*
X943130Y849940D03*
X949630Y849940D03*
X956130Y849940D03*
X956130Y866440D03*
X943130Y866440D03*
D10*
X930427Y850274D03*
X930427Y867274D03*
D42*
X988259Y823902D03*
X978259Y823902D03*
X983259Y812402D03*
D43*
X978005Y834238D03*
X988005Y834238D03*
D42*
X1018485Y823648D03*
X1008485Y823648D03*
X1013485Y812148D03*
D43*
X1008231Y834238D03*
X1018231Y834238D03*
D42*
X980799Y909852D03*
X990799Y909852D03*
X985799Y921352D03*
D43*
X990698Y899262D03*
X980698Y899262D03*
X971398Y921280D03*
X971398Y911280D03*
D42*
X941074Y909928D03*
X951074Y909928D03*
X946074Y921428D03*
D43*
X951074Y899338D03*
X941074Y899338D03*
X959536Y921076D03*
X959536Y911076D03*
D44*
X805459Y607162D03*
X780059Y607162D03*
X856259Y607162D03*
X830859Y607162D03*
X907059Y607162D03*
X881659Y607162D03*
X983259Y607162D03*
X957859Y607162D03*
X1034059Y607162D03*
X1008659Y607162D03*
X1084859Y607162D03*
X1059459Y607162D03*
D29*
X1315999Y905612D03*
D11*
X799499Y918312D03*
X816499Y918312D03*
D10*
X763854Y879205D03*
X763854Y896205D03*
D29*
X1315999Y880212D03*
D45*
X779999Y899262D03*
X779999Y886562D03*
X779999Y873862D03*
X779999Y861162D03*
X779999Y848462D03*
X779999Y835762D03*
X779999Y823062D03*
X835999Y823062D03*
X835999Y835762D03*
X835999Y848462D03*
X835999Y861162D03*
X835999Y873862D03*
X835999Y886562D03*
X835999Y899262D03*
D10*
X858799Y884412D03*
X858799Y901412D03*
X827049Y710912D03*
X827049Y693912D03*
X827049Y732012D03*
X827049Y749012D03*
X807999Y710912D03*
X807999Y693912D03*
X807999Y749012D03*
X807999Y732012D03*
X807999Y770112D03*
X807999Y787112D03*
X827049Y770112D03*
X827049Y787112D03*
X788949Y710912D03*
X788949Y693912D03*
X788949Y732012D03*
X788949Y749012D03*
X769899Y693912D03*
X769899Y710912D03*
X769899Y749012D03*
X769899Y732012D03*
X769899Y770112D03*
X769899Y787112D03*
X788949Y770112D03*
X788949Y787112D03*
D29*
X1162329Y689712D03*
X1164869Y715112D03*
X1162329Y740512D03*
X1187729Y689712D03*
X1190269Y715112D03*
X1187729Y740512D03*
X1213129Y689712D03*
X1215669Y715112D03*
X1213129Y740512D03*
X1238529Y689712D03*
X1241069Y715112D03*
X1238529Y740512D03*
X1315999Y931012D03*
X1315999Y956412D03*
X1315999Y1032612D03*
X1315999Y1058012D03*
X1315999Y829412D03*
X1315999Y854812D03*
D46*
X1049299Y759562D03*
X1061999Y759562D03*
X1074699Y759562D03*
X1087399Y759562D03*
X1036599Y759562D03*
X1049299Y772262D03*
X1061999Y772262D03*
X1074699Y772262D03*
X1087399Y772262D03*
X1036599Y772262D03*
D11*
X1019699Y715112D03*
X1002699Y715112D03*
X996578Y798601D03*
X1013578Y798601D03*
X996730Y782904D03*
X1013730Y782904D03*
D47*
X764719Y1072967D03*
X764719Y1127577D03*
X790119Y1072967D03*
X790119Y1127577D03*
X815519Y1072967D03*
X815519Y1127577D03*
X840919Y1072967D03*
X840919Y1127577D03*
X866319Y1072967D03*
X866319Y1127577D03*
X891719Y1072967D03*
X891719Y1127577D03*
X917119Y1072967D03*
X917119Y1127577D03*
X942519Y1072967D03*
X942519Y1127577D03*
X967919Y1072967D03*
X967919Y1127577D03*
X993319Y1072967D03*
X993319Y1127577D03*
X1018719Y1072967D03*
X1018719Y1127577D03*
X1044119Y1072967D03*
X1044119Y1127577D03*
X1069519Y1072967D03*
X1069519Y1127577D03*
X1094919Y1072967D03*
X1094919Y1127577D03*
X1120319Y1072967D03*
X1120319Y1127577D03*
X1145719Y1072967D03*
X1145719Y1127577D03*
X1171119Y1072967D03*
X1171119Y1127577D03*
X1196519Y1072967D03*
X1196519Y1127577D03*
X1221919Y1072967D03*
X1221919Y1127577D03*
X1247319Y1072967D03*
X1247319Y1127577D03*
D46*
X777419Y1100272D03*
X1234619Y1100272D03*
D48*
X715999Y610412D03*
X1295999Y610412D03*
X715999Y1100412D03*
X1295999Y1100412D03*
D49*
X1267357Y584261D03*
X688757Y1074538D03*
D43*
X1019501Y909930D03*
X1009501Y909930D03*
D50*
X909599Y969112D03*
D10*
X1543736Y773726D03*
X1543736Y756726D03*
X1785899Y899837D03*
X1785899Y882837D03*
X1861617Y903690D03*
X1861617Y920690D03*
D11*
X1844887Y941629D03*
X1861887Y941629D03*
X1805339Y940918D03*
X1822339Y940918D03*
D12*
X1804323Y817612D03*
X1810823Y817612D03*
X1817323Y817612D03*
X1823823Y817612D03*
X1830323Y817612D03*
X1836823Y817612D03*
X1843323Y817612D03*
X1849823Y817612D03*
X1856323Y817612D03*
X1862823Y817612D03*
X1869323Y817612D03*
X1875823Y817612D03*
X1882323Y817612D03*
X1888823Y817612D03*
X1888823Y881612D03*
X1882323Y881612D03*
X1875823Y881612D03*
X1869323Y881612D03*
X1862823Y881612D03*
X1856323Y881612D03*
X1849823Y881612D03*
X1843323Y881612D03*
X1836823Y881612D03*
X1830323Y881612D03*
X1823823Y881612D03*
X1817323Y881612D03*
X1810823Y881612D03*
X1804323Y881612D03*
D13*
X1940258Y782625D03*
X1988258Y782625D03*
D11*
X1959771Y739165D03*
X1976771Y739165D03*
D10*
X1786611Y916136D03*
X1786611Y933136D03*
X1786382Y862372D03*
X1786382Y845372D03*
D14*
X1995623Y649012D03*
X1995623Y705012D03*
D15*
X1958873Y662012D03*
X1958873Y672012D03*
X1958873Y682012D03*
X1958873Y692012D03*
D10*
X1443253Y982768D03*
X1443253Y965768D03*
D16*
X1422073Y1003522D03*
X1422073Y1008522D03*
D17*
X1422073Y978772D03*
X1422073Y986522D03*
D16*
X1422073Y993522D03*
X1422073Y998522D03*
X1422073Y1018522D03*
X1422073Y1013522D03*
D17*
X1422073Y1043272D03*
X1422073Y1035522D03*
D16*
X1422073Y1028522D03*
X1422073Y1023522D03*
D18*
X1411023Y1039922D03*
X1411023Y982122D03*
D11*
X1459323Y998449D03*
X1442323Y998449D03*
X1459119Y1017219D03*
X1442119Y1017219D03*
D19*
X1544422Y995197D03*
X1544422Y1042949D03*
D20*
X1467028Y1036599D03*
X1467028Y1046759D03*
D21*
X1845917Y921059D03*
X1832917Y921059D03*
X1839417Y902559D03*
X1817342Y921288D03*
X1804342Y921288D03*
X1810842Y902788D03*
D22*
X1860473Y1022612D03*
X1879473Y1022612D03*
X1869973Y1043612D03*
D23*
X1868323Y1008632D03*
X1868323Y1002132D03*
X1868323Y995632D03*
X1884323Y995632D03*
X1884323Y1002132D03*
X1884323Y1008632D03*
D11*
X1885052Y980542D03*
X1868052Y980542D03*
D10*
X1850923Y986012D03*
X1850923Y1003012D03*
D22*
X1784273Y1022612D03*
X1803273Y1022612D03*
X1793773Y1043612D03*
D23*
X1790853Y1007362D03*
X1790853Y1000862D03*
X1790853Y994362D03*
X1806853Y994362D03*
X1806853Y1000862D03*
X1806853Y1007362D03*
D11*
X1807353Y979602D03*
X1790353Y979602D03*
D10*
X1774723Y984742D03*
X1774723Y1001742D03*
D24*
X1487457Y1051078D03*
X1487457Y1032078D03*
X1508457Y1041578D03*
D23*
X1490194Y1021179D03*
X1490194Y1014679D03*
X1490194Y1008179D03*
X1506194Y1008179D03*
X1506194Y1014679D03*
X1506194Y1021179D03*
D11*
X1502071Y996747D03*
X1485071Y996747D03*
D10*
X1521028Y1033466D03*
X1521028Y1016466D03*
D25*
X1584223Y786782D03*
X1584223Y798382D03*
X1588033Y686452D03*
X1588033Y698052D03*
D26*
X1570973Y784962D03*
X1559373Y784962D03*
X1578593Y741782D03*
X1566993Y741782D03*
X1578593Y714350D03*
X1566993Y714350D03*
X1570973Y798932D03*
X1559373Y798932D03*
X1578593Y728066D03*
X1566993Y728066D03*
D25*
X1598193Y786782D03*
X1598193Y798382D03*
D11*
X1577483Y756006D03*
X1560483Y756006D03*
X1577483Y770738D03*
X1560483Y770738D03*
D10*
X1681937Y748979D03*
X1681937Y765979D03*
D27*
X1603473Y681752D03*
X1608473Y681752D03*
X1613473Y681752D03*
X1618473Y681752D03*
X1623473Y681752D03*
X1628473Y681752D03*
X1628473Y702752D03*
X1623473Y702752D03*
X1618473Y702752D03*
X1613473Y702752D03*
X1608473Y702752D03*
X1603473Y702752D03*
D28*
X1615973Y692252D03*
D29*
X1996973Y981812D03*
X1996973Y1007212D03*
D30*
X1574173Y687172D03*
X1556173Y687172D03*
D31*
X1610655Y588648D02*
X1617635Y588648D01*
X1617635Y581668D01*
X1610655Y581668D01*
X1610655Y588648D01*
X1610655Y586468D02*
X1617635Y586468D01*
X1617635Y606188D02*
X1610655Y606188D01*
X1617635Y606188D02*
X1617635Y599208D01*
X1610655Y599208D01*
X1610655Y606188D01*
X1610655Y604008D02*
X1617635Y604008D01*
D32*
X1608459Y714322D03*
X1613459Y714322D03*
X1618459Y714322D03*
X1623459Y714322D03*
X1628459Y714322D03*
X1633459Y714322D03*
X1638459Y714322D03*
X1643459Y714322D03*
X1648459Y714322D03*
X1653459Y714322D03*
D33*
X1660959Y721822D03*
X1660959Y726822D03*
X1660959Y731822D03*
X1660959Y736822D03*
X1660959Y741822D03*
X1660959Y746822D03*
X1660959Y751822D03*
X1660959Y756822D03*
X1660959Y761822D03*
X1660959Y766822D03*
D32*
X1653459Y774322D03*
X1648459Y774322D03*
X1643459Y774322D03*
X1638459Y774322D03*
X1633459Y774322D03*
X1628459Y774322D03*
X1623459Y774322D03*
X1618459Y774322D03*
X1613459Y774322D03*
X1608459Y774322D03*
D33*
X1600959Y766822D03*
X1600959Y761822D03*
X1600959Y756822D03*
X1600959Y751822D03*
X1600959Y746822D03*
X1600959Y741822D03*
X1600959Y736822D03*
X1600959Y731822D03*
X1600959Y726822D03*
X1600959Y721822D03*
D34*
X1630959Y744322D03*
D35*
X1694998Y857512D03*
D36*
X1694473Y861512D03*
X1694473Y865512D03*
X1694473Y869512D03*
X1694473Y873512D03*
D35*
X1694998Y877512D03*
D37*
X1689473Y883037D03*
D38*
X1685473Y882512D03*
X1681473Y882512D03*
X1677473Y882512D03*
X1673473Y882512D03*
D37*
X1669473Y883037D03*
D35*
X1663948Y877512D03*
D36*
X1664473Y873512D03*
X1664473Y869512D03*
X1664473Y865512D03*
X1664473Y861512D03*
D35*
X1663948Y857512D03*
D37*
X1669473Y851987D03*
D38*
X1673473Y852512D03*
X1677473Y852512D03*
X1681473Y852512D03*
X1685473Y852512D03*
D37*
X1689473Y851987D03*
D39*
X1690983Y857517D03*
D40*
X1689468Y879022D03*
D39*
X1667963Y877507D03*
D40*
X1669478Y856002D03*
X1689468Y856002D03*
D39*
X1690983Y877507D03*
D40*
X1669478Y879022D03*
D39*
X1667963Y857517D03*
D11*
X1690506Y924992D03*
X1707506Y924992D03*
D10*
X1650644Y877205D03*
X1650644Y860205D03*
D11*
X1690404Y896798D03*
X1707404Y896798D03*
D41*
X1624104Y849940D03*
X1630604Y849940D03*
X1637104Y849940D03*
X1637104Y866440D03*
X1624104Y866440D03*
D10*
X1611401Y850274D03*
X1611401Y867274D03*
D42*
X1669233Y823902D03*
X1659233Y823902D03*
X1664233Y812402D03*
D43*
X1658979Y834238D03*
X1668979Y834238D03*
D42*
X1699459Y823648D03*
X1689459Y823648D03*
X1694459Y812148D03*
D43*
X1689205Y834238D03*
X1699205Y834238D03*
D42*
X1661773Y909852D03*
X1671773Y909852D03*
X1666773Y921352D03*
D43*
X1671672Y899262D03*
X1661672Y899262D03*
X1652372Y921280D03*
X1652372Y911280D03*
D42*
X1622048Y909928D03*
X1632048Y909928D03*
X1627048Y921428D03*
D43*
X1632048Y899338D03*
X1622048Y899338D03*
X1640510Y921076D03*
X1640510Y911076D03*
D44*
X1486433Y607162D03*
X1461033Y607162D03*
X1537233Y607162D03*
X1511833Y607162D03*
X1588033Y607162D03*
X1562633Y607162D03*
X1664233Y607162D03*
X1638833Y607162D03*
X1715033Y607162D03*
X1689633Y607162D03*
X1765833Y607162D03*
X1740433Y607162D03*
D29*
X1996973Y905612D03*
D11*
X1480473Y918312D03*
X1497473Y918312D03*
D10*
X1444828Y879205D03*
X1444828Y896205D03*
D29*
X1996973Y880212D03*
D45*
X1460973Y899262D03*
X1460973Y886562D03*
X1460973Y873862D03*
X1460973Y861162D03*
X1460973Y848462D03*
X1460973Y835762D03*
X1460973Y823062D03*
X1516973Y823062D03*
X1516973Y835762D03*
X1516973Y848462D03*
X1516973Y861162D03*
X1516973Y873862D03*
X1516973Y886562D03*
X1516973Y899262D03*
D10*
X1539773Y884412D03*
X1539773Y901412D03*
X1508023Y710912D03*
X1508023Y693912D03*
X1508023Y732012D03*
X1508023Y749012D03*
X1488973Y710912D03*
X1488973Y693912D03*
X1488973Y749012D03*
X1488973Y732012D03*
X1488973Y770112D03*
X1488973Y787112D03*
X1508023Y770112D03*
X1508023Y787112D03*
X1469923Y710912D03*
X1469923Y693912D03*
X1469923Y732012D03*
X1469923Y749012D03*
X1450873Y693912D03*
X1450873Y710912D03*
X1450873Y749012D03*
X1450873Y732012D03*
X1450873Y770112D03*
X1450873Y787112D03*
X1469923Y770112D03*
X1469923Y787112D03*
D29*
X1843303Y689712D03*
X1845843Y715112D03*
X1843303Y740512D03*
X1868703Y689712D03*
X1871243Y715112D03*
X1868703Y740512D03*
X1894103Y689712D03*
X1896643Y715112D03*
X1894103Y740512D03*
X1919503Y689712D03*
X1922043Y715112D03*
X1919503Y740512D03*
X1996973Y931012D03*
X1996973Y956412D03*
X1996973Y1032612D03*
X1996973Y1058012D03*
X1996973Y829412D03*
X1996973Y854812D03*
D46*
X1730273Y759562D03*
X1742973Y759562D03*
X1755673Y759562D03*
X1768373Y759562D03*
X1717573Y759562D03*
X1730273Y772262D03*
X1742973Y772262D03*
X1755673Y772262D03*
X1768373Y772262D03*
X1717573Y772262D03*
D11*
X1700673Y715112D03*
X1683673Y715112D03*
X1677552Y798601D03*
X1694552Y798601D03*
X1677704Y782904D03*
X1694704Y782904D03*
D47*
X1445693Y1072967D03*
X1445693Y1127577D03*
X1471093Y1072967D03*
X1471093Y1127577D03*
X1496493Y1072967D03*
X1496493Y1127577D03*
X1521893Y1072967D03*
X1521893Y1127577D03*
X1547293Y1072967D03*
X1547293Y1127577D03*
X1572693Y1072967D03*
X1572693Y1127577D03*
X1598093Y1072967D03*
X1598093Y1127577D03*
X1623493Y1072967D03*
X1623493Y1127577D03*
X1648893Y1072967D03*
X1648893Y1127577D03*
X1674293Y1072967D03*
X1674293Y1127577D03*
X1699693Y1072967D03*
X1699693Y1127577D03*
X1725093Y1072967D03*
X1725093Y1127577D03*
X1750493Y1072967D03*
X1750493Y1127577D03*
X1775893Y1072967D03*
X1775893Y1127577D03*
X1801293Y1072967D03*
X1801293Y1127577D03*
X1826693Y1072967D03*
X1826693Y1127577D03*
X1852093Y1072967D03*
X1852093Y1127577D03*
X1877493Y1072967D03*
X1877493Y1127577D03*
X1902893Y1072967D03*
X1902893Y1127577D03*
X1928293Y1072967D03*
X1928293Y1127577D03*
D46*
X1458393Y1100272D03*
X1915593Y1100272D03*
D48*
X1396973Y610412D03*
X1976973Y610412D03*
X1396973Y1100412D03*
X1976973Y1100412D03*
D49*
X1948331Y584261D03*
X1369731Y1074538D03*
D43*
X1700475Y909930D03*
X1690475Y909930D03*
D50*
X1590573Y969112D03*
D46*
X93980Y1166698D03*
X1994078Y1166698D03*
D51*
X84925Y-20955D02*
X84928Y-20733D01*
X84936Y-20511D01*
X84950Y-20289D01*
X84969Y-20067D01*
X84993Y-19847D01*
X85023Y-19626D01*
X85058Y-19407D01*
X85099Y-19188D01*
X85145Y-18971D01*
X85196Y-18755D01*
X85253Y-18540D01*
X85315Y-18326D01*
X85382Y-18115D01*
X85454Y-17904D01*
X85532Y-17696D01*
X85614Y-17490D01*
X85702Y-17286D01*
X85794Y-17083D01*
X85892Y-16884D01*
X85994Y-16687D01*
X86101Y-16492D01*
X86213Y-16300D01*
X86330Y-16111D01*
X86451Y-15924D01*
X86577Y-15741D01*
X86707Y-15561D01*
X86842Y-15384D01*
X86980Y-15211D01*
X87123Y-15041D01*
X87271Y-14874D01*
X87422Y-14711D01*
X87577Y-14552D01*
X87736Y-14397D01*
X87899Y-14246D01*
X88066Y-14098D01*
X88236Y-13955D01*
X88409Y-13817D01*
X88586Y-13682D01*
X88766Y-13552D01*
X88949Y-13426D01*
X89136Y-13305D01*
X89325Y-13188D01*
X89517Y-13076D01*
X89712Y-12969D01*
X89909Y-12867D01*
X90108Y-12769D01*
X90311Y-12677D01*
X90515Y-12589D01*
X90721Y-12507D01*
X90929Y-12429D01*
X91140Y-12357D01*
X91351Y-12290D01*
X91565Y-12228D01*
X91780Y-12171D01*
X91996Y-12120D01*
X92213Y-12074D01*
X92432Y-12033D01*
X92651Y-11998D01*
X92872Y-11968D01*
X93092Y-11944D01*
X93314Y-11925D01*
X93536Y-11911D01*
X93758Y-11903D01*
X93980Y-11900D01*
X94202Y-11903D01*
X94424Y-11911D01*
X94646Y-11925D01*
X94868Y-11944D01*
X95088Y-11968D01*
X95309Y-11998D01*
X95528Y-12033D01*
X95747Y-12074D01*
X95964Y-12120D01*
X96180Y-12171D01*
X96395Y-12228D01*
X96609Y-12290D01*
X96820Y-12357D01*
X97031Y-12429D01*
X97239Y-12507D01*
X97445Y-12589D01*
X97649Y-12677D01*
X97852Y-12769D01*
X98051Y-12867D01*
X98248Y-12969D01*
X98443Y-13076D01*
X98635Y-13188D01*
X98824Y-13305D01*
X99011Y-13426D01*
X99194Y-13552D01*
X99374Y-13682D01*
X99551Y-13817D01*
X99724Y-13955D01*
X99894Y-14098D01*
X100061Y-14246D01*
X100224Y-14397D01*
X100383Y-14552D01*
X100538Y-14711D01*
X100689Y-14874D01*
X100837Y-15041D01*
X100980Y-15211D01*
X101118Y-15384D01*
X101253Y-15561D01*
X101383Y-15741D01*
X101509Y-15924D01*
X101630Y-16111D01*
X101747Y-16300D01*
X101859Y-16492D01*
X101966Y-16687D01*
X102068Y-16884D01*
X102166Y-17083D01*
X102258Y-17286D01*
X102346Y-17490D01*
X102428Y-17696D01*
X102506Y-17904D01*
X102578Y-18115D01*
X102645Y-18326D01*
X102707Y-18540D01*
X102764Y-18755D01*
X102815Y-18971D01*
X102861Y-19188D01*
X102902Y-19407D01*
X102937Y-19626D01*
X102967Y-19847D01*
X102991Y-20067D01*
X103010Y-20289D01*
X103024Y-20511D01*
X103032Y-20733D01*
X103035Y-20955D01*
X103032Y-21177D01*
X103024Y-21399D01*
X103010Y-21621D01*
X102991Y-21843D01*
X102967Y-22063D01*
X102937Y-22284D01*
X102902Y-22503D01*
X102861Y-22722D01*
X102815Y-22939D01*
X102764Y-23155D01*
X102707Y-23370D01*
X102645Y-23584D01*
X102578Y-23795D01*
X102506Y-24006D01*
X102428Y-24214D01*
X102346Y-24420D01*
X102258Y-24624D01*
X102166Y-24827D01*
X102068Y-25026D01*
X101966Y-25223D01*
X101859Y-25418D01*
X101747Y-25610D01*
X101630Y-25799D01*
X101509Y-25986D01*
X101383Y-26169D01*
X101253Y-26349D01*
X101118Y-26526D01*
X100980Y-26699D01*
X100837Y-26869D01*
X100689Y-27036D01*
X100538Y-27199D01*
X100383Y-27358D01*
X100224Y-27513D01*
X100061Y-27664D01*
X99894Y-27812D01*
X99724Y-27955D01*
X99551Y-28093D01*
X99374Y-28228D01*
X99194Y-28358D01*
X99011Y-28484D01*
X98824Y-28605D01*
X98635Y-28722D01*
X98443Y-28834D01*
X98248Y-28941D01*
X98051Y-29043D01*
X97852Y-29141D01*
X97649Y-29233D01*
X97445Y-29321D01*
X97239Y-29403D01*
X97031Y-29481D01*
X96820Y-29553D01*
X96609Y-29620D01*
X96395Y-29682D01*
X96180Y-29739D01*
X95964Y-29790D01*
X95747Y-29836D01*
X95528Y-29877D01*
X95309Y-29912D01*
X95088Y-29942D01*
X94868Y-29966D01*
X94646Y-29985D01*
X94424Y-29999D01*
X94202Y-30007D01*
X93980Y-30010D01*
X93758Y-30007D01*
X93536Y-29999D01*
X93314Y-29985D01*
X93092Y-29966D01*
X92872Y-29942D01*
X92651Y-29912D01*
X92432Y-29877D01*
X92213Y-29836D01*
X91996Y-29790D01*
X91780Y-29739D01*
X91565Y-29682D01*
X91351Y-29620D01*
X91140Y-29553D01*
X90929Y-29481D01*
X90721Y-29403D01*
X90515Y-29321D01*
X90311Y-29233D01*
X90108Y-29141D01*
X89909Y-29043D01*
X89712Y-28941D01*
X89517Y-28834D01*
X89325Y-28722D01*
X89136Y-28605D01*
X88949Y-28484D01*
X88766Y-28358D01*
X88586Y-28228D01*
X88409Y-28093D01*
X88236Y-27955D01*
X88066Y-27812D01*
X87899Y-27664D01*
X87736Y-27513D01*
X87577Y-27358D01*
X87422Y-27199D01*
X87271Y-27036D01*
X87123Y-26869D01*
X86980Y-26699D01*
X86842Y-26526D01*
X86707Y-26349D01*
X86577Y-26169D01*
X86451Y-25986D01*
X86330Y-25799D01*
X86213Y-25610D01*
X86101Y-25418D01*
X85994Y-25223D01*
X85892Y-25026D01*
X85794Y-24827D01*
X85702Y-24624D01*
X85614Y-24420D01*
X85532Y-24214D01*
X85454Y-24006D01*
X85382Y-23795D01*
X85315Y-23584D01*
X85253Y-23370D01*
X85196Y-23155D01*
X85145Y-22939D01*
X85099Y-22722D01*
X85058Y-22503D01*
X85023Y-22284D01*
X84993Y-22063D01*
X84969Y-21843D01*
X84950Y-21621D01*
X84936Y-21399D01*
X84928Y-21177D01*
X84925Y-20955D01*
D52*
X93980Y-20955D03*
M02*
