M48
;GenerationSoftware,Autodesk,EAGLE,9.5.2*%
;CreationDate,2020-02-25T22:59:24Z*%
FMAT,2
ICI,OFF
METRIC,TZ,000.000
T8C0.350
T7C0.356
T6C0.381
T5C0.508
T4C0.650
T3C1.000
T2C1.016
T1C3.048
%
G90
M71
T1
X61500Y61041
X139697Y52500
X197697Y52500
X139697Y3500
X197697Y110041
X71600Y61041
X129600Y61041
X71600Y110041
X3500Y3500
X61500Y3500
X3500Y52500
X61500Y52500
X3500Y61041
X129600Y110041
X3500Y110041
X61500Y110041
X139697Y61041
X71600Y3500
X129600Y3500
X71600Y52500
X129600Y52500
X197697Y61041
X139697Y110041
X197697Y3500
T2
X171503Y60716
X168963Y60716
X176583Y60716
X174043Y60716
X199697Y90561
X199697Y88021
X78006Y3175
X184330Y68971
X184584Y71511
X184330Y74051
X186870Y68971
X187124Y71511
X186870Y74051
X189410Y68971
X189664Y71511
X189410Y74051
X191950Y68971
X189664Y13970
X192204Y71511
X191950Y74051
X199697Y93101
X199697Y95641
X199697Y103261
X199697Y105801
X199697Y82941
X199697Y85481
X63500Y40640
X63500Y43180
X12446Y3175
X9906Y3175
X17526Y3175
X14986Y3175
X22606Y3175
X20066Y3175
X30226Y3175
X27686Y3175
X35306Y3175
X32766Y3175
X40386Y3175
X37846Y3175
X63500Y33020
X63500Y30480
X48133Y11430
X48387Y13970
X48133Y16510
X50673Y11430
X50927Y13970
X50673Y16510
X53213Y11430
X53467Y13970
X53213Y16510
X55753Y11430
X56007Y13970
X55753Y16510
X63500Y35560
X63500Y38100
X63500Y45720
X63500Y48260
X63500Y25400
X63500Y27940
X131600Y40640
X131600Y43180
X80546Y3175
X85626Y3175
X83086Y3175
X90706Y3175
X88166Y3175
X98326Y3175
X95786Y3175
X103406Y3175
X100866Y3175
X108486Y3175
X105946Y3175
X131600Y33020
X131600Y30480
X116233Y11430
X116487Y13970
X116233Y16510
X118773Y11430
X119027Y13970
X118773Y16510
X121313Y11430
X121567Y13970
X121313Y16510
X123853Y11430
X124107Y13970
X123853Y16510
X131600Y35560
X131600Y38100
X131600Y45720
X131600Y48260
X131600Y25400
X131600Y27940
X199697Y40640
X199697Y43180
X148643Y3175
X146103Y3175
X153723Y3175
X151183Y3175
X158803Y3175
X156263Y3175
X166423Y3175
X163883Y3175
X171503Y3175
X168963Y3175
X176583Y3175
X174043Y3175
X199697Y33020
X199697Y30480
X184330Y11430
X184584Y13970
X184330Y16510
X186870Y11430
X187124Y13970
X186870Y16510
X189410Y11430
X189410Y16510
X191950Y11430
X192204Y13970
X191950Y16510
X199697Y35560
X199697Y38100
X199697Y45720
X199697Y48260
X199697Y25400
X199697Y27940
X63500Y98181
X63500Y100721
X12446Y60716
X9906Y60716
X17526Y60716
X14986Y60716
X22606Y60716
X20066Y60716
X30226Y60716
X27686Y60716
X35306Y60716
X32766Y60716
X40386Y60716
X37846Y60716
X63500Y90561
X63500Y88021
X48133Y68971
X48387Y71511
X48133Y74051
X50673Y68971
X50927Y71511
X50673Y74051
X53213Y68971
X53467Y71511
X53213Y74051
X55753Y68971
X56007Y71511
X55753Y74051
X63500Y93101
X63500Y95641
X63500Y103261
X63500Y105801
X63500Y82941
X63500Y85481
X131600Y98181
X131600Y100721
X80546Y60716
X78006Y60716
X85626Y60716
X83086Y60716
X90706Y60716
X88166Y60716
X98326Y60716
X95786Y60716
X103406Y60716
X100866Y60716
X108486Y60716
X105946Y60716
X131600Y90561
X131600Y88021
X116233Y68971
X116487Y71511
X116233Y74051
X118773Y68971
X119027Y71511
X118773Y74051
X121313Y68971
X121567Y71511
X121313Y74051
X123853Y68971
X124107Y71511
X123853Y74051
X131600Y93101
X131600Y95641
X131600Y103261
X131600Y105801
X131600Y82941
X131600Y85481
X199697Y98181
X199697Y100721
X148643Y60716
X146103Y60716
X153723Y60716
X151183Y60716
X158803Y60716
X156263Y60716
X166423Y60716
X163883Y60716
T3
X145839Y52486
X191559Y52486
X9642Y52486
X55362Y52486
X77742Y52486
X123462Y52486
X9642Y110027
X55362Y110027
X77742Y110027
X123462Y110027
X145839Y110027
X191559Y110027
T4
X4905Y46451
X4905Y40671
X73005Y46451
X73005Y40671
X141102Y46451
X141102Y40671
X4905Y103992
X4905Y98212
X73005Y103992
X73005Y98212
X141102Y103992
X141102Y98212
T5
X84102Y109484
X112042Y109484
X114582Y109459
X115776Y112761
X117122Y109408
X120907Y112761
X119662Y109433
X123447Y112761
X126063Y112761
X122202Y109433
X110721Y112761
X109502Y109484
X91722Y109484
X103127Y112761
X98021Y112761
X94262Y109459
X90401Y112761
X89182Y109484
X105667Y112761
X99317Y109484
X104422Y109459
X87887Y112761
X85296Y112761
X101882Y109459
X150929Y112761
X161089Y112761
X168709Y112761
X181409Y112761
X186489Y112761
X194109Y107630
X154765Y109560
X176355Y106741
X153749Y109611
X155781Y109586
X150904Y111719
X150929Y110830
X168709Y111821
X168709Y110907
X176355Y107706
X176329Y108621
X194084Y108570
X194135Y106639
X186489Y111846
X186489Y113650
X149634Y109484
X148339Y107325
X164899Y109510
X144579Y109484
X148313Y112761
X176304Y112761
X152199Y109484
X180139Y109484
X182679Y109459
X183873Y112761
X185219Y109408
X189004Y112761
X187759Y109433
X191544Y112761
X194160Y112761
X190299Y109433
X178819Y112761
X177599Y109484
X159819Y109484
X171224Y112761
X166119Y112761
X163604Y112761
X162359Y109459
X158499Y112761
X157279Y109484
X173764Y112761
X167414Y109484
X172519Y109459
X155984Y112761
X153393Y112761
X169979Y109459
X159819Y51943
X82832Y53289
X100612Y54280
X100612Y53365
X108257Y50165
X108232Y51079
X125987Y51029
X126037Y49098
X118392Y54305
X118392Y56109
X17551Y109611
X19583Y109586
X14707Y111719
X14732Y110830
X32512Y111821
X150929Y55220
X161089Y55220
X168709Y55220
X181409Y55220
X186489Y55220
X194109Y50089
X154765Y52019
X176355Y49200
X32512Y110907
X40157Y107706
X40132Y108621
X57887Y108570
X81537Y51943
X153749Y52070
X155781Y52045
X150904Y54178
X80241Y49784
X150929Y53289
X168709Y54280
X168709Y53365
X14732Y55220
X24892Y55220
X32512Y55220
X45212Y55220
X50292Y55220
X57912Y50089
X18567Y52019
X40157Y49200
X176355Y50165
X11430Y22860
X13970Y22860
X11430Y25400
X13970Y25400
X11430Y27940
X13970Y27940
X176329Y51079
X194084Y51029
X194135Y49098
X17551Y52070
X19583Y52045
X14707Y54178
X14732Y53289
X32512Y54280
X32512Y53365
X40157Y50165
X40132Y51079
X57887Y51029
X57937Y49098
X50292Y54305
X50292Y56109
X186489Y54305
X186489Y56109
X57937Y106639
X36830Y18415
X38100Y18415
X39370Y18415
X40640Y18415
X35560Y18415
X36830Y19685
X38100Y19685
X39370Y19685
X40640Y19685
X35560Y19685
X50292Y111846
X152199Y51943
X86667Y109560
X95507Y112761
X180139Y51943
X182679Y51918
X126037Y106639
X125987Y108570
X96802Y51968
X76482Y51943
X183873Y55220
X185219Y51867
X189004Y55220
X187759Y51892
X191544Y55220
X13437Y51943
X79530Y22860
X82070Y22860
X79530Y25400
X82070Y25400
X79530Y27940
X82070Y27940
X194160Y55220
X190299Y51892
X178819Y55220
X12141Y49784
X177599Y51943
X108232Y108621
X80216Y55220
X171224Y55220
X149634Y51943
X166119Y55220
X163604Y55220
X162359Y51918
X148339Y49784
X158499Y55220
X157279Y51943
X173764Y55220
X167414Y51943
X172519Y51918
X104930Y18415
X106200Y18415
X107470Y18415
X108740Y18415
X103660Y18415
X104930Y19685
X106200Y19685
X107470Y19685
X108740Y19685
X103660Y19685
X76482Y109484
X96802Y109510
X28702Y51968
X8382Y51943
X155984Y55220
X153393Y55220
X169979Y51918
X50292Y113650
X126012Y107630
X118392Y112761
X28702Y109510
X8382Y109484
X49022Y109408
X52807Y112761
X80241Y107325
X12116Y55220
X147627Y22860
X150167Y22860
X147627Y25400
X150167Y25400
X147627Y27940
X150167Y27940
X108257Y107706
X82832Y110830
X100612Y110907
X82807Y111719
X164899Y51968
X144579Y51943
X108207Y55220
X100612Y112761
X51562Y109433
X92992Y112761
X55347Y112761
X57963Y112761
X54102Y109433
X40107Y112761
X42621Y112761
X113312Y112761
X12116Y112761
X173027Y18415
X174297Y18415
X175567Y18415
X176837Y18415
X171757Y18415
X173027Y19685
X174297Y19685
X175567Y19685
X176837Y19685
X171757Y19685
X87683Y109586
X148313Y55220
X41402Y109484
X13437Y109484
X81537Y109484
X23622Y109484
X118392Y113650
X84102Y51943
X100612Y111821
X112042Y51943
X40107Y55220
X114582Y51918
X115776Y55220
X117122Y51867
X120907Y55220
X119662Y51892
X11430Y80401
X13970Y80401
X11430Y82941
X13970Y82941
X11430Y85481
X13970Y85481
X123447Y55220
X126063Y55220
X122202Y51892
X110721Y55220
X109502Y51943
X91722Y51943
X103127Y55220
X98021Y55220
X95507Y55220
X94262Y51918
X16002Y51943
X118392Y111846
X43942Y51943
X46482Y51918
X47676Y55220
X49022Y51867
X52807Y55220
X51562Y51892
X36830Y75956
X38100Y75956
X39370Y75956
X40640Y75956
X35560Y75956
X36830Y77226
X38100Y77226
X39370Y77226
X40640Y77226
X35560Y77226
X55347Y55220
X57963Y55220
X54102Y51892
X42621Y55220
X41402Y51943
X23622Y51943
X35027Y55220
X29921Y55220
X27407Y55220
X26162Y51918
X22301Y55220
X21082Y51943
X37567Y55220
X31217Y51943
X36322Y51918
X19787Y55220
X79530Y80401
X82070Y80401
X79530Y82941
X82070Y82941
X79530Y85481
X82070Y85481
X17196Y55220
X33782Y51918
X90401Y55220
X89182Y51943
X105667Y55220
X99317Y51943
X104422Y51918
X87887Y55220
X85296Y55220
X101882Y51918
X35027Y112761
X29921Y112761
X12141Y107325
X27407Y112761
X26162Y109459
X22301Y112761
X21082Y109484
X37567Y112761
X104930Y75956
X106200Y75956
X107470Y75956
X108740Y75956
X103660Y75956
X104930Y77226
X106200Y77226
X107470Y77226
X108740Y77226
X103660Y77226
X31217Y109484
X36322Y109459
X19787Y112761
X17196Y112761
X33782Y109459
X16002Y109484
X14732Y112761
X24892Y112761
X32512Y112761
X45212Y112761
X85651Y109611
X50292Y112761
X108257Y106741
X57912Y107630
X18567Y109560
X40157Y106741
X147627Y80401
X150167Y80401
X147627Y82941
X150167Y82941
X147627Y85481
X150167Y85481
X176304Y55220
X82832Y55220
X92992Y55220
X100612Y55220
X113312Y55220
X118392Y55220
X126012Y50089
X86667Y52019
X108257Y49200
X82832Y112761
X43942Y109484
X46482Y109459
X47676Y112761
X85651Y52070
X87683Y52045
X82807Y54178
X80216Y112761
X108207Y112761
X173027Y75956
X174297Y75956
X175567Y75956
X176837Y75956
X171757Y75956
X173027Y77226
X174297Y77226
X175567Y77226
X176837Y77226
X171757Y77226
T6
X24996Y82517
X15725Y100457
X11913Y104125
X20137Y99832
X50165Y95481
X47163Y94097
X17780Y79131
X39461Y94353
X22860Y84211
X36299Y102464
X34915Y100007
X28461Y93081
X9789Y66345
X13655Y64816
X9883Y91095
X46370Y91117
X46990Y100721
X46990Y104541
X20175Y104524
X51460Y92121
X41126Y85801
X50772Y101765
X51424Y98981
X43127Y101981
X43666Y98856
X13556Y104323
X23683Y77650
X38557Y83696
X58877Y81976
X33731Y77048
X45720Y99451
X45720Y102261
X29337Y78895
X28333Y79143
X27305Y79088
X26035Y79258
X35550Y74163
X25220Y61204
X38933Y58771
X39075Y68867
X35400Y90993
X29825Y88544
X33752Y88702
X28318Y89931
X25227Y89281
X33731Y84237
X31750Y83409
X53340Y95641
X38478Y102014
X27846Y96873
X26749Y93848
X16276Y91958
X20861Y98181
X24239Y98986
X40272Y90482
X55839Y88019
X17760Y91244
X9843Y67386
X7300Y72172
X11339Y88153
X13675Y74021
X16868Y86152
X11750Y75946
X26939Y102568
X40162Y105903
X24900Y106081
X93500Y69225
X92357Y69225
X94643Y69225
X93500Y11684
X86002Y74221
X95024Y74432
X78516Y100775
X75222Y100894
X83091Y99708
X82875Y103081
X76220Y103744
X76965Y103571
X75263Y104376
X94958Y85860
X114132Y97930
X109377Y97399
X121300Y96904
X115606Y86728
X120670Y86357
X121648Y83459
X91925Y87493
X76901Y80145
X75164Y96596
X75169Y95733
X75159Y97485
X108656Y94374
X90891Y74671
X96766Y70234
X84483Y90998
X82263Y88085
X97876Y84851
X130747Y76688
X130846Y73729
X127028Y65115
X76457Y110548
X75542Y110523
X79911Y110599
X79962Y109685
X131661Y76662
X129858Y76688
X85926Y83848
X87119Y84940
X87475Y86617
X92453Y91519
X92149Y89817
X92961Y88268
X88313Y90071
X104112Y89588
X93398Y74458
X96700Y74458
X94999Y72807
X94999Y76058
X112550Y95641
X105562Y82982
X94785Y82199
X109934Y94828
X103635Y81874
X93096Y82517
X83825Y100457
X80013Y104125
X88237Y99832
X118265Y95481
X115263Y94097
X85880Y79131
X107561Y94353
X90960Y84211
X104399Y102464
X103015Y100007
X96561Y93081
X77889Y66345
X81755Y64816
X77983Y91095
X114470Y91117
X115090Y100721
X115090Y104541
X88275Y104524
X119560Y92121
X109226Y85801
X118872Y101765
X119524Y98981
X111227Y101981
X111766Y98856
X81656Y104323
X25400Y11684
X91783Y77650
X106657Y83696
X126977Y81976
X101831Y77048
X113820Y99451
X113820Y102261
X97437Y78895
X96433Y79143
X95405Y79088
X94135Y79258
X103650Y74163
X93320Y61204
X107033Y58771
X107175Y68867
X103500Y90993
X97925Y88544
X101851Y88702
X96418Y89931
X93327Y89281
X101831Y84237
X99850Y83409
X121440Y95641
X106578Y102014
X95946Y96873
X94849Y93848
X24257Y11684
X84376Y91958
X88961Y98181
X92339Y98986
X108372Y90482
X123939Y88019
X85860Y91244
X77942Y67386
X75400Y72172
X79439Y88153
X81775Y74021
X84968Y86152
X79850Y75946
X95039Y102568
X108262Y105903
X93000Y106081
X26543Y11684
X19515Y15578
X17902Y16680
X26924Y16891
X10417Y43233
X7122Y43353
X14991Y42167
X14775Y45540
X8120Y46203
X8865Y46030
X7163Y46835
X26858Y28318
X46032Y40389
X41278Y39858
X53200Y39362
X47506Y29187
X52570Y28816
X53548Y25918
X23825Y29952
X8801Y22603
X7064Y39055
X7069Y38191
X7059Y39944
X40556Y36833
X22791Y17130
X161597Y69225
X160454Y69225
X162740Y69225
X155712Y73119
X154099Y74221
X163121Y74432
X146614Y100775
X143320Y100894
X151188Y99708
X150973Y103081
X144318Y103744
X145062Y103571
X143360Y104376
X163055Y85860
X182230Y97930
X177475Y97399
X189398Y96904
X183703Y86728
X188768Y86357
X189746Y83459
X160023Y87493
X144998Y80145
X143261Y96596
X143266Y95733
X143256Y97485
X176754Y94374
X158989Y74671
X164864Y70234
X152580Y90998
X150360Y88085
X165974Y84851
X198844Y76688
X198943Y73729
X195125Y65115
X28666Y12692
X16383Y33457
X14163Y30544
X29776Y27310
X62647Y19147
X62746Y16187
X58928Y7574
X8357Y53007
X144554Y110548
X143640Y110523
X148008Y110599
X148059Y109685
X7442Y52982
X11811Y53058
X11862Y52144
X63561Y19121
X61758Y19147
X17826Y26307
X19020Y27399
X19375Y29075
X24354Y33978
X24049Y32276
X24862Y30726
X20213Y32530
X199758Y76662
X197955Y76688
X154023Y83848
X155217Y84940
X155572Y86617
X160551Y91519
X160246Y89817
X161059Y88268
X156411Y90071
X172209Y89588
X161496Y74458
X164798Y74458
X163096Y72807
X163096Y76058
X180647Y95641
X173660Y82982
X162883Y82199
X36012Y32047
X178031Y94828
X171732Y81874
X161193Y82517
X25298Y16916
X151922Y100457
X148110Y104125
X156334Y99832
X186362Y95481
X183360Y94097
X153977Y79131
X175659Y94353
X159057Y84211
X172496Y102464
X171112Y100007
X164658Y93081
X145987Y66345
X149852Y64816
X146080Y91095
X182568Y91117
X28600Y16916
X26899Y15265
X183187Y100721
X183187Y104541
X156373Y104524
X187658Y92121
X177323Y85801
X186969Y101765
X187621Y98981
X179324Y101981
X179863Y98856
X149753Y104323
X26899Y18517
X159880Y77650
X174755Y83696
X195075Y81976
X169929Y77048
X181917Y99451
X181917Y102261
X165534Y78895
X164530Y79143
X163502Y79088
X162232Y79258
X171747Y74163
X161417Y61204
X175130Y58771
X175273Y68867
X171597Y90993
X166022Y88544
X169949Y88702
X164516Y89931
X161425Y89281
X169929Y84237
X167947Y83409
X189537Y95641
X174676Y102014
X164043Y96873
X162946Y93848
X44450Y38100
X152474Y91958
X157058Y98181
X160437Y98986
X176469Y90482
X192037Y88019
X153957Y91244
X146040Y67386
X143497Y72172
X147536Y88153
X149872Y74021
X153065Y86152
X147947Y75946
X163137Y102568
X176360Y105903
X161097Y106081
X37462Y25441
X26685Y24658
X41834Y37287
X35535Y24333
X24996Y24976
X15725Y42916
X11913Y46584
X20137Y42291
X50165Y37940
X47163Y36556
X17780Y21590
X39461Y36812
X22860Y26670
X36299Y44922
X34915Y42466
X28461Y35540
X9789Y8804
X13655Y7275
X9883Y33553
X46370Y33576
X46990Y43180
X46990Y47000
X20175Y46982
X51460Y34580
X41126Y28260
X50772Y44224
X51424Y41440
X43127Y44440
X43666Y41315
X13556Y46782
X23683Y20109
X38557Y26154
X58877Y24435
X33731Y19507
X45720Y41910
X45720Y44720
X29337Y21353
X28333Y21602
X27305Y21546
X26035Y21717
X35550Y16622
X25220Y3663
X38933Y1229
X39075Y11326
X35400Y33452
X29825Y31003
X33752Y31161
X28318Y32390
X25227Y31740
X33731Y26695
X31750Y25867
X53340Y38100
X38478Y44473
X27846Y39332
X26749Y36307
X16276Y34417
X20861Y40640
X24239Y41445
X40272Y32941
X55839Y30477
X17760Y33703
X9843Y9845
X7300Y14630
X11339Y30612
X13675Y16480
X16868Y28611
X11750Y18405
X26939Y45027
X40162Y48362
X24900Y48539
X92357Y11684
X94643Y11684
X87615Y15578
X60884Y11481
X60960Y8890
X86002Y16680
X95024Y16891
X78516Y43233
X75222Y43353
X83091Y42167
X82875Y45540
X76220Y46203
X76965Y46030
X75263Y46835
X94958Y28318
X114132Y40389
X109377Y39858
X121300Y39362
X115606Y29187
X120670Y28816
X121648Y25918
X91925Y29952
X76901Y22603
X75164Y39055
X75169Y38191
X75159Y39944
X108656Y36833
X90891Y17130
X96766Y12692
X84483Y33457
X82263Y30544
X97876Y27310
X130747Y19147
X130846Y16187
X127028Y7574
X76457Y53007
X75542Y52982
X79911Y53058
X79962Y52144
X131661Y19121
X129858Y19147
X85926Y26307
X87119Y27399
X87475Y29075
X92453Y33978
X92149Y32276
X92961Y30726
X88313Y32530
X104112Y32047
X93398Y16916
X96700Y16916
X94999Y15265
X94999Y18517
X112550Y38100
X105562Y25441
X22860Y39370
X128984Y11481
X129060Y8890
X94785Y24658
X109934Y37287
X103635Y24333
X93096Y24976
X83825Y42916
X80013Y46584
X88237Y42291
X118265Y37940
X115263Y36556
X85880Y21590
X107561Y36812
X90960Y26670
X104399Y44922
X103015Y42466
X96561Y35540
X77889Y8804
X81755Y7275
X77983Y33553
X114470Y33576
X115090Y43180
X115090Y47000
X88275Y46982
X119560Y34580
X109226Y28260
X118872Y44224
X119524Y41440
X111227Y44440
X111766Y41315
X81656Y46782
X91783Y20109
X106657Y26154
X126977Y24435
X101831Y19507
X113820Y41910
X113820Y44720
X97437Y21353
X96433Y21602
X95405Y21546
X94135Y21717
X103650Y16622
X93320Y3663
X107033Y1229
X107175Y11326
X103500Y33452
X97925Y31003
X101851Y31161
X96418Y32390
X93327Y31740
X101831Y26695
X99850Y25867
X90960Y39370
X197081Y11481
X197157Y8890
X121440Y38100
X106578Y44473
X95946Y39332
X94849Y36307
X84376Y34417
X88961Y40640
X92339Y41445
X108372Y32941
X123939Y30477
X85860Y33703
X77942Y9845
X75400Y14630
X79439Y30612
X81775Y16480
X84968Y28611
X79850Y18405
X95039Y45027
X108262Y48362
X93000Y48539
X161597Y11684
X160454Y11684
X162740Y11684
X155712Y15578
X154099Y16680
X163121Y16891
X146614Y43233
X143320Y43353
X151188Y42167
X150973Y45540
X87615Y73119
X144318Y46203
X145062Y46030
X143360Y46835
X163055Y28318
X182230Y40389
X177475Y39858
X189398Y39362
X183703Y29187
X188768Y28816
X189746Y25918
X160023Y29952
X144998Y22603
X143261Y39055
X143266Y38191
X143256Y39944
X176754Y36833
X158989Y17130
X164864Y12692
X152580Y33457
X150360Y30544
X159057Y39370
X60884Y69022
X60960Y66431
X165974Y27310
X198844Y19147
X198943Y16187
X195125Y7574
X144554Y53007
X143640Y52982
X148008Y53058
X148059Y52144
X199758Y19121
X197955Y19147
X154023Y26307
X155217Y27399
X155572Y29075
X160551Y33978
X160246Y32276
X161059Y30726
X156411Y32530
X172209Y32047
X161496Y16916
X164798Y16916
X163096Y15265
X163096Y18517
X180647Y38100
X173660Y25441
X162883Y24658
X178031Y37287
X171732Y24333
X161193Y24976
X151922Y42916
X148110Y46584
X156334Y42291
X186362Y37940
X183360Y36556
X153977Y21590
X175659Y36812
X159057Y26670
X172496Y44922
X171112Y42466
X164658Y35540
X145987Y8804
X149852Y7275
X146080Y33553
X182568Y33576
X183187Y43180
X183187Y47000
X156373Y46982
X187658Y34580
X177323Y28260
X186969Y44224
X187621Y41440
X22860Y96911
X128984Y69022
X129060Y66431
X179324Y44440
X179863Y41315
X149753Y46782
X159880Y20109
X174755Y26154
X195075Y24435
X169929Y19507
X181917Y41910
X181917Y44720
X165534Y21353
X164530Y21602
X163502Y21546
X162232Y21717
X171747Y16622
X161417Y3663
X175130Y1229
X175273Y11326
X171597Y33452
X166022Y31003
X169949Y31161
X164516Y32390
X161425Y31740
X169929Y26695
X167947Y25867
X189537Y38100
X174676Y44473
X164043Y39332
X162946Y36307
X152474Y34417
X157058Y40640
X160437Y41445
X176469Y32941
X192037Y30477
X153957Y33703
X146040Y9845
X143497Y14630
X147536Y30612
X149872Y16480
X153065Y28611
X147947Y18405
X163137Y45027
X176360Y48362
X161097Y48539
X25400Y69225
X24257Y69225
X26543Y69225
X19515Y73119
X17902Y74221
X26924Y74432
X10417Y100775
X90960Y96911
X197081Y69022
X197157Y66431
X7122Y100894
X14991Y99708
X14775Y103081
X8120Y103744
X8865Y103571
X7163Y104376
X26858Y85860
X46032Y97930
X41278Y97399
X53200Y96904
X47506Y86728
X52570Y86357
X53548Y83459
X23825Y87493
X8801Y80145
X7064Y96596
X7069Y95733
X7059Y97485
X40556Y94374
X22791Y74671
X28666Y70234
X16383Y90998
X14163Y88085
X29776Y84851
X62647Y76688
X62746Y73729
X58928Y65115
X8357Y110548
X7442Y110523
X11811Y110599
X11862Y109685
X63561Y76662
X61758Y76688
X17826Y83848
X19020Y84940
X19375Y86617
X24354Y91519
X24049Y89817
X24862Y88268
X20213Y90071
X36012Y89588
X25298Y74458
X28600Y74458
X26899Y72807
X26899Y76058
X44450Y95641
X37462Y82982
X26685Y82199
X41834Y94828
X35535Y81874
X159057Y96911
T7
X148158Y43436
X11961Y100977
X80061Y43436
X11961Y43436
X148158Y100977
X80061Y100977
T8
X195583Y94193
X173581Y22672
X127485Y36652
X127536Y26721
X99850Y26924
X105484Y80213
X109530Y79418
X41430Y21877
X37384Y22672
X173581Y80213
X177627Y79418
X127485Y94193
X167947Y84465
X109530Y21877
X195633Y84262
X31750Y26924
X105484Y22672
X59385Y36652
X59436Y26721
X99850Y84465
X31750Y84465
X127536Y84262
X41430Y79418
X37384Y80213
X167947Y26924
X195583Y36652
X177627Y21877
X195633Y26721
X59385Y94193
X59436Y84262
M30